<?xml version="1.0" encoding="UTF-8" standalone="no"?>
<!-- Created with Inkscape (http://www.inkscape.org/) -->

<svg
   xmlns:dc="http://purl.org/dc/elements/1.1/"
   xmlns:cc="http://creativecommons.org/ns#"
   xmlns:rdf="http://www.w3.org/1999/02/22-rdf-syntax-ns#"
   xmlns:svg="http://www.w3.org/2000/svg"
   xmlns="http://www.w3.org/2000/svg"
   xmlns:sodipodi="http://sodipodi.sourceforge.net/DTD/sodipodi-0.dtd"
   xmlns:inkscape="http://www.inkscape.org/namespaces/inkscape"
   width="763.37012"
   height="396.69687"
   version="1.1"
   id="svg8"
   sodipodi:docname="noNodesEmptyState.svg"
   inkscape:version="0.92.3 (2405546, 2018-03-11)">
  <metadata
     id="metadata823">
    <rdf:RDF>
      <cc:Work
         rdf:about="">
        <dc:format>image/svg+xml</dc:format>
        <dc:type
           rdf:resource="http://purl.org/dc/dcmitype/StillImage" />
        <dc:title />
      </cc:Work>
    </rdf:RDF>
  </metadata>
  <defs
     id="defs821" />
  <sodipodi:namedview
     pagecolor="#ffffff"
     bordercolor="#666666"
     borderopacity="1"
     objecttolerance="10"
     gridtolerance="10"
     guidetolerance="10"
     inkscape:pageopacity="0"
     inkscape:pageshadow="2"
     inkscape:window-width="1920"
     inkscape:window-height="1080"
     id="namedview819"
     showgrid="false"
     inkscape:pagecheckerboard="true"
     inkscape:zoom="1"
     inkscape:cx="288.33523"
     inkscape:cy="128.30751"
     inkscape:window-x="1920"
     inkscape:window-y="0"
     inkscape:window-maximized="1"
     inkscape:current-layer="svg8"
     fit-margin-top="0"
     fit-margin-left="0"
     fit-margin-right="0"
     fit-margin-bottom="0"
     inkscape:snap-global="true" />
  <text
     xml:space="preserve"
     style="font-style:normal;font-variant:normal;font-weight:normal;font-stretch:normal;font-size:16px;line-height:1.25;font-family:'Noto Sans';-inkscape-font-specification:'Noto Sans, Normal';font-variant-ligatures:normal;font-variant-caps:normal;font-variant-numeric:normal;font-feature-settings:normal;text-align:start;letter-spacing:0px;word-spacing:0px;writing-mode:lr-tb;text-anchor:start;fill:#666666;fill-opacity:1;stroke:none"
     x="86.038139"
     y="109.64618"
     id="text911"><tspan
       sodipodi:role="line"
       x="86.038139"
       y="109.64618"
       id="tspan939"
       style="font-style:normal;font-variant:normal;font-weight:bold;font-stretch:normal;font-size:42.66666794px;font-family:'josefin slab';-inkscape-font-specification:'josefin slab Bold';fill:#666666">Select some data items, and use the</tspan><tspan
       sodipodi:role="line"
       x="86.038139"
       y="162.97951"
       style="font-style:normal;font-variant:normal;font-weight:bold;font-stretch:normal;font-size:42.66666794px;font-family:'josefin slab';-inkscape-font-specification:'josefin slab Bold';fill:#666666"
       id="tspan1305">          <tspan
   style="fill:#333333"
   id="tspan1307">Convert</tspan> menu to interpret</tspan><tspan
       sodipodi:role="line"
       x="86.038139"
       y="216.31285"
       id="tspan947"
       style="font-style:normal;font-variant:normal;font-weight:bold;font-stretch:normal;font-size:42.66666794px;font-family:'josefin slab';-inkscape-font-specification:'josefin slab Bold';fill:#666666">them as Nodes.</tspan><tspan
       sodipodi:role="line"
       x="86.038139"
       y="246.87085"
       id="tspan925"
       style="font-style:normal;font-variant:normal;font-weight:bold;font-stretch:normal;font-size:42.66666794px;font-family:'josefin slab';-inkscape-font-specification:'josefin slab Bold';fill:#666666" /><tspan
       sodipodi:role="line"
       x="86.038139"
       y="289.64618"
       id="tspan915"
       style="font-style:normal;font-variant:normal;font-weight:bold;font-stretch:normal;font-size:42.66666794px;font-family:'josefin slab';-inkscape-font-specification:'josefin slab Bold';fill:#666666">If you already have nodes, you may</tspan><tspan
       sodipodi:role="line"
       x="86.038139"
       y="342.97952"
       id="tspan954"
       style="font-style:normal;font-variant:normal;font-weight:bold;font-stretch:normal;font-size:42.66666794px;font-family:'josefin slab';-inkscape-font-specification:'josefin slab Bold';fill:#666666">need to select and          <tspan
   style="fill:#333333"
   id="tspan1315">Navigate</tspan></tspan><tspan
       sodipodi:role="line"
       x="86.038139"
       y="396.31287"
       style="font-style:normal;font-variant:normal;font-weight:bold;font-stretch:normal;font-size:42.66666794px;font-family:'josefin slab';-inkscape-font-specification:'josefin slab Bold';fill:#666666"
       id="tspan1309">to them.</tspan></text>
  <path
     inkscape:connector-curvature="0"
     id="path1589"
     d="m 156.53878,141.91566 6.45967,6.45994 -6.47658,6.47657 -6.47657,6.47658 v -4.3121 -4.31209 h -10.82262 -10.82262 v -4.32905 -4.32905 h 10.82212 10.82212 l 0.0174,-4.29537 0.0174,-4.29537 z"
     style="fill:#666666;stroke-width:1" />
  <path
     style="fill:#e7298a;stroke-width:1"
     d="m 1.5939562,63.619759 c -1.08827797,-0.60192 -1.82506697,-2.10371 -1.52759797,-3.11368 0.120774,-0.41005 3.20720997,-3.75005 6.85874297,-7.42221 l 6.6391528,-6.67667 -1.42047,-2.35517 C 6.5667402,34.805159 7.9756772,23.255539 15.612343,15.618869 23.24901,7.9821993 34.798636,6.5732693 44.045499,12.150309 l 2.355176,1.42047 6.676665,-6.6391497 c 3.672167,-3.65154 7.012163,-6.73796999 7.422213,-6.85873999 1.707173,-0.50283 3.929811,1.70044999 3.428493,3.39861999 -0.12473,0.42252 -3.214402,3.77272 -6.865937,7.4448897 l -6.639152,6.67667 1.42047,2.35517 c 5.577044,9.24687 4.168107,20.79649 -3.468559,28.43315 -7.636666,7.63667 -19.186292,9.04561 -28.43316,3.46856 l -2.355171,-1.42047 -6.676666,6.65357 c -3.9850248,3.97125 -7.0285948,6.72961 -7.5496338,6.84219 -0.480134,0.10373 -1.274961,-0.0337 -1.766281,-0.30548 z M 35.55559,49.073619 c 6.700806,-1.39736 12.245196,-7.06212 13.567545,-13.86209 0.757363,-3.89462 -0.0091,-8.42546 -2.012643,-11.89838 l -0.881901,-1.52863 -12.184445,12.17885 c -13.529086,13.52288 -12.715413,12.3217 -9.383477,13.8523 3.374709,1.55026 7.312803,2.00496 10.894921,1.25795 z m 5.957106,-31.69115 c -1.05272,-0.81429 -4.02347,-2.03461 -5.957106,-2.44703 -11.198972,-2.38863 -21.882291,7.00297 -20.92247,18.39273 0.226955,2.69317 0.983598,5.17494 2.243599,7.35894 l 0.881901,1.52863 12.184446,-12.17885 c 11.072855,-11.06777 12.128354,-12.22224 11.56963,-12.65442 z"
     id="path4658"
     inkscape:connector-curvature="0" />
  <text
     xml:space="preserve"
     style="font-style:normal;font-variant:normal;font-weight:normal;font-stretch:normal;font-size:16px;line-height:1.25;font-family:'Noto Sans';-inkscape-font-specification:'Noto Sans, Normal';font-variant-ligatures:normal;font-variant-caps:normal;font-variant-numeric:normal;font-feature-settings:normal;text-align:start;letter-spacing:0px;word-spacing:0px;writing-mode:lr-tb;text-anchor:start;fill:#e7298a;fill-opacity:1;stroke:none"
     x="82.019707"
     y="56.118484"
     id="text907"><tspan
       sodipodi:role="line"
       id="tspan905"
       x="82.019707"
       y="56.118484"
       style="font-style:normal;font-variant:normal;font-weight:600;font-stretch:normal;font-size:64px;font-family:'Josefin Sans';-inkscape-font-specification:'Josefin Sans Semi-Bold';fill:#e7298a">No Nodes...</tspan></text>
  <style
     id="style4569"
     type="text/css">
	.st0{fill:#ffffff;}
</style>
  <path
     inkscape:connector-curvature="0"
     id="path902"
     d="m 446.3048,342.8128 c -0.37055,-0.0899 -0.7929,-0.31664 -0.97501,-0.52345 -0.21952,-0.24929 -0.38993,-0.60814 -2.34369,-4.93539 -1.02464,-2.2694 -1.88281,-4.05055 -2.02165,-4.19597 -0.2981,-0.31223 -0.735,-0.44093 -1.16647,-0.34362 -0.38981,0.0879 -0.1269,-0.11208 -2.86412,2.17878 -1.22127,1.02212 -2.3665,1.94455 -2.54496,2.04984 -0.41652,0.24575 -0.72805,0.17315 -0.92963,-0.21667 -0.13829,-0.26742 -0.16094,-1.43831 -0.24689,-12.76404 -0.052,-6.85829 -0.0661,-12.58254 -0.0313,-12.72056 0.0349,-0.13801 0.1619,-0.31552 0.28238,-0.39446 0.19362,-0.12686 0.25463,-0.12816 0.52566,-0.0111 0.47247,0.20398 19.03982,16.9791 19.11217,17.26735 0.0965,0.38436 -0.0696,0.70256 -0.42738,0.81904 -0.1753,0.0571 -1.70069,0.27724 -3.38976,0.48928 -3.22739,0.40515 -3.42639,0.45493 -3.79481,0.94919 -0.41174,0.55236 -0.35022,0.74097 1.75455,5.37902 1.06395,2.34452 1.96162,4.41089 1.99482,4.59194 0.15184,0.82795 -0.36066,1.59514 -1.37548,2.059 -0.72228,0.33014 -1.15549,0.41962 -1.55843,0.32187 z"
     style="fill:#666666;stroke-width:1.00000012" />
  <path
     inkscape:connector-curvature="0"
     id="path4310"
     d="m 520.93598,341.79888 c -3.10937,-3.77801 -6.0186,-8.12631 -7.74272,-11.57268 -1.35043,-2.69941 -2.08044,-4.83668 -2.35143,-6.88442 -0.77541,-5.8593 3.25774,-11.29744 9.16953,-12.36385 0.95528,-0.17232 2.85125,-0.1699 3.82007,0.005 3.51989,0.63498 6.47046,2.85434 8.06536,6.06662 0.66506,1.33947 0.97638,2.48823 1.12058,4.13482 0.12775,1.45858 -0.0197,2.639 -0.5684,4.54978 -1.05606,3.67773 -3.94165,8.74494 -7.93977,13.94255 -0.78667,1.02267 -2.21455,2.78707 -2.55828,3.16121 -0.0658,0.0717 -0.28859,-0.15636 -1.01494,-1.0389 z m 1.89325,-15.18537 c 1.61883,-0.30973 3.06051,-1.59878 3.57589,-3.1973 0.15368,-0.47663 0.19438,-0.74944 0.19841,-1.32969 0.006,-0.85157 -0.0937,-1.33019 -0.43004,-2.06689 -1.32992,-2.91274 -5.06444,-3.66466 -7.46804,-1.50361 -0.52392,0.47104 -1.06173,1.31044 -1.2954,2.02181 -0.16186,0.49276 -0.19757,0.73634 -0.20029,1.36619 -0.004,0.93189 0.0959,1.38058 0.48779,2.19005 0.42058,0.86877 1.22381,1.67621 2.09571,2.1067 1.01567,0.50147 1.92564,0.62518 3.03597,0.41274 z"
     style="fill:#333333;stroke-width:0.99999994" />
  <style
     id="style4376"
     type="text/css">
	.st0{fill:#ffffff;}
</style>
  <g
     transform="matrix(0.06148422,0,0,0.06148422,86.271404,129.57879)"
     style="fill:#666666;stroke-width:16.26433563"
     id="g6217">
    <path
       inkscape:connector-curvature="0"
       style="fill:#666666;stroke-width:16.26433563"
       d="m 322.20117,63.837891 c 0.2544,0.788224 0.51125,1.575278 0.74219,2.371093 3.92464,12.693533 4.29486,25.960725 1.80273,38.734376 1.01632,0.14685 2.03251,0.29456 3.04883,0.44141 17.53261,2.55167 35.06447,5.10761 52.59961,7.63867 2.27335,-13.98215 9.17314,-27.27096 19.04102,-37.576174 -8.09988,-0.721788 -16.09675,-3.928434 -24.31836,-3.869141 -17.65308,-2.714673 -35.39725,-4.467698 -52.91602,-7.740234 z M 156.32031,123.74219 c -25.00733,21.74584 -49.94326,43.58488 -75.505857,64.68359 13.30249,4.45464 25.125327,13.40385 33.302737,24.83008 22.171,-19.03321 44.37184,-38.54563 66.74414,-57.09375 -10.51067,-8.85644 -19.08424,-19.93518 -24.54102,-32.41992 z m 236.82813,38.08984 c -25.38298,25.38591 -50.76546,50.7723 -76.14844,76.1582 12.18754,5.95706 22.16165,16.65919 27.88281,29.04883 27.4842,-27.32418 54.82375,-55.15796 82.40625,-82.14062 -13.33435,-4.1332 -25.5074,-12.21156 -34.14062,-23.06641 z m 87.86718,16.4043 c -3.54312,2.21129 -7.32084,4.0749 -11.30664,5.51562 -9.70914,3.91874 -20.14487,5.01047 -30.34179,3.76172 -3.78178,47.91425 -7.0335,95.8867 -11.63672,143.70703 10.65148,1.10518 20.80859,5.97107 28.86328,12.97657 4.39679,3.45657 8.04365,7.6298 10.96484,12.25585 -0.69153,-4.515 -0.81083,-9.07372 0.33789,-13.73242 4.04193,-54.86216 7.75187,-109.76215 13.11914,-164.48437 z m -354.96874,70.08008 c 0.21379,11.43422 -2.66915,22.95674 -8.49219,32.88086 -1.145,2.12493 -2.42277,4.17137 -3.8125,6.13476 41.29773,4.8886 82.80949,7.70309 124.16797,11.86524 -1.92285,-13.73737 1.869,-27.92046 9.4414,-39.62696 -40.44585,-3.68037 -80.88617,-7.37272 -121.30468,-11.2539 z M 108.62695,293.625 c -9.474831,10.22144 -22.338537,17.28639 -36.019528,19.625 18.646777,30.29438 37.319238,60.56443 55.398438,91.19141 8.98977,-10.24587 19.95526,-18.73204 32.14062,-24.56641 -17.30213,-28.67907 -34.58629,-57.37041 -51.51953,-86.25 z m 239.07422,14.67188 c -4.48285,12.99935 -13.75753,24.45048 -25.87109,30.93164 5.16281,3.01426 9.60506,7.51578 15.33008,9.5664 11.1104,6.96241 23.25704,13.50225 33.85546,20.6875 4.73421,-13.07888 14.04943,-24.6829 25.89844,-31.64453 -16.40435,-9.84692 -32.80854,-19.69409 -49.21289,-29.54101 z m 20.94336,90.24609 c -28.46558,9.47994 -56.90822,19.0268 -85.39062,28.45508 5.60932,12.44306 8.69441,26.04151 8.77929,39.66015 34.23769,-11.50282 68.34515,-23.42223 102.84766,-34.05078 -10.86406,-5.73381 -19.7628,-14.82774 -24.08594,-26.82031 -0.92461,-2.37727 -1.63223,-4.79871 -2.15039,-7.24414 z"
       id="path5101" />
    <path
       style="fill:#666666;stroke-width:16.26433563"
       d="m 237.30078,21.380859 c -41.09892,-0.634075 -76.37809,43.167814 -65.92383,82.867191 7.53891,39.44664 55.47591,65.69699 92.37891,48.61718 33.39021,-13.29348 52.94087,-56.261573 36.71484,-89.447261 -10.6718,-24.476186 -35.95297,-42.911942 -63.16992,-42.03711 z"
       id="path5787"
       inkscape:connector-curvature="0" />
    <path
       style="fill:#666666;stroke-width:16.26433563"
       d="m 444.93359,73.244141 c -32.95979,-0.360895 -57.88812,39.869269 -42.64843,69.156249 12.30089,27.92477 53.98911,37.03503 75.94637,15.28233 19.2261,-16.51479 21.74518,-49.38251 3.49113,-67.565532 -9.15978,-10.427969 -22.79621,-17.13639 -36.78907,-16.873047 z"
       id="path5785"
       inkscape:connector-curvature="0" />
    <path
       style="fill:#666666;stroke-width:16.26433563"
       d="m 59.207031,201.41602 c -32.083587,0.93071 -56.1569114,40.01393 -41.206923,68.8474 11.824739,27.09508 51.054768,36.95135 73.605361,17.22486 19.068591,-14.55452 24.724351,-44.0592 10.271481,-63.66016 -9.315067,-14.08654 -25.53675,-23.49141 -42.669919,-22.4121 z"
       id="path5779"
       inkscape:connector-curvature="0" />
    <path
       style="fill:#666666;stroke-width:16.26433563"
       d="m 293.33594,252.87891 c -27.91593,-0.007 -46.6266,37.88946 -28.67969,59.63281 16.03699,20.60455 54.69693,16.45807 63.67773,-8.89844 8.34061,-22.61522 -10.00737,-51.84199 -34.99804,-50.73437 z"
       id="path5777"
       inkscape:connector-curvature="0" />
    <path
       style="fill:#666666;stroke-width:16.26433563"
       d="m 422.26367,349.0918 c -28.36223,-0.73203 -47.84379,38.20592 -28.96094,59.95312 15.53055,18.53 49.94203,16.43844 61.26758,-5.66211 12.08541,-22.36021 -6.28405,-55.12436 -32.30664,-54.29101 z"
       id="path5773"
       inkscape:connector-curvature="0" />
    <path
       style="fill:#666666;stroke-width:16.26433563"
       d="m 195.86914,389.36914 c -45.02504,0.52985 -81.71909,47.60105 -73.3855,91.38892 6.51581,38.72896 47.65637,65.50077 85.75659,60.43725 34.07135,-3.35992 64.14777,-33.10598 65.39454,-67.77343 3.3351,-38.22774 -24.94877,-78.08455 -63.88556,-83.0975 -4.58298,-0.76374 -9.23758,-1.03142 -13.88007,-0.95524 z"
       id="path5769"
       inkscape:connector-curvature="0" />
  </g>
  <style
     id="style4569-4"
     type="text/css">
	.st0{fill:#ffffff;}
</style>
  <path
     inkscape:connector-curvature="0"
     id="path830"
     d="m 190.78135,161.37075 -1.51448,-1.52079 3.03605,-3.03921 3.03605,-3.03921 h -10.67842 -10.67842 v -2.16 -2.16 h 15.95929 15.95929 l -6.71858,6.72001 c -3.69521,3.69599 -6.75631,6.71999 -6.80244,6.71999 -0.0462,0 -0.76539,-0.68436 -1.59834,-1.52079 z m -9.95938,-22.83858 6.75937,-6.75937 1.55909,1.5591 1.5591,1.55909 -3.03712,3.04028 -3.03712,3.04027 h 10.67842 10.67843 v 2.16 2.16 h -15.95977 -15.95976 z"
     style="fill:#333333;stroke-width:1" />
  <path
     style="fill:#666666;stroke-width:1"
     d="m 492.15105,320.37364 6.45967,6.45994 -6.47658,6.47657 -6.47657,6.47658 v -4.3121 -4.31209 h -10.82262 -10.82262 v -4.32905 -4.32905 h 10.82212 10.82212 l 0.0174,-4.29537 0.0174,-4.29537 z"
     id="path1311"
     inkscape:connector-curvature="0" />
</svg>
