<?xml version="1.0" encoding="UTF-8" standalone="no"?>
<!-- Created with Inkscape (http://www.inkscape.org/) -->

<svg
   xmlns:dc="http://purl.org/dc/elements/1.1/"
   xmlns:cc="http://creativecommons.org/ns#"
   xmlns:rdf="http://www.w3.org/1999/02/22-rdf-syntax-ns#"
   xmlns:svg="http://www.w3.org/2000/svg"
   xmlns="http://www.w3.org/2000/svg"
   xmlns:sodipodi="http://sodipodi.sourceforge.net/DTD/sodipodi-0.dtd"
   xmlns:inkscape="http://www.inkscape.org/namespaces/inkscape"
   width="681.90912"
   height="217.66106"
   version="1.1"
   id="svg8"
   sodipodi:docname="noWindow.svg"
   inkscape:version="0.92.3 (2405546, 2018-03-11)">
  <metadata
     id="metadata823">
    <rdf:RDF>
      <cc:Work
         rdf:about="">
        <dc:format>image/svg+xml</dc:format>
        <dc:type
           rdf:resource="http://purl.org/dc/dcmitype/StillImage" />
        <dc:title></dc:title>
      </cc:Work>
    </rdf:RDF>
  </metadata>
  <defs
     id="defs821">
    <filter
       style="color-interpolation-filters:sRGB"
       inkscape:label="Drop Shadow"
       id="filter1162">
      <feFlood
         flood-opacity="1"
         flood-color="rgb(255,255,255)"
         result="flood"
         id="feFlood1152" />
      <feComposite
         in="flood"
         in2="SourceGraphic"
         operator="in"
         result="composite1"
         id="feComposite1154" />
      <feGaussianBlur
         in="composite1"
         stdDeviation="20"
         result="blur"
         id="feGaussianBlur1156" />
      <feOffset
         dx="-10"
         dy="10"
         result="offset"
         id="feOffset1158" />
      <feComposite
         in="SourceGraphic"
         in2="offset"
         operator="over"
         result="composite2"
         id="feComposite1160" />
    </filter>
  </defs>
  <sodipodi:namedview
     pagecolor="#ffffff"
     bordercolor="#666666"
     borderopacity="1"
     objecttolerance="10"
     gridtolerance="10"
     guidetolerance="10"
     inkscape:pageopacity="0"
     inkscape:pageshadow="2"
     inkscape:window-width="1920"
     inkscape:window-height="1080"
     id="namedview819"
     showgrid="false"
     inkscape:pagecheckerboard="true"
     inkscape:zoom="1.4142136"
     inkscape:cx="242.64099"
     inkscape:cy="128.5973"
     inkscape:window-x="1920"
     inkscape:window-y="0"
     inkscape:window-maximized="1"
     inkscape:current-layer="svg8"
     fit-margin-top="0"
     fit-margin-left="0"
     fit-margin-right="0"
     fit-margin-bottom="0" />
  <g
     transform="matrix(0.17068532,0,0,0.17068532,-1.0249096,-16.812504)"
     id="g7047"
     style="fill:#ffd92f;stroke-width:5.85873508">
    <path
       inkscape:connector-curvature="0"
       class="st0"
       d="m 505.5,262.8 c 5.4,38.7 -39.6,81.1 -79.4,74.2 0.5,-17 7.1,-31.5 17.6,-44.6 15.2,-19 40.2,-30.9 61.8,-29.6 z"
       id="path7021"
       style="fill:#ffd92f;stroke-width:5.85873508" />
    <path
       inkscape:connector-curvature="0"
       class="st0"
       d="M 85.5,337.2 C 46.9,344.7 2.7,303.5 6.2,263.5 c 37.3,-4 79.1,33.1 79.3,73.7 z"
       id="path7023"
       style="fill:#ffd92f;stroke-width:5.85873508" />
    <path
       inkscape:connector-curvature="0"
       class="st0"
       d="m 431.8,413.9 c -5.7,11.1 -14.8,17.9 -26,21.4 -17.9,5.5 -36.4,5.8 -54.8,2.7 -10.4,-1.7 -18.7,-7.9 -27.2,-13.7 16.7,-25.3 71,-41.2 108,-10.4 z"
       id="path7025"
       style="fill:#ffd92f;stroke-width:5.85873508" />
    <path
       inkscape:connector-curvature="0"
       class="st0"
       d="m 81.5,416.5 c 1.6,-0.4 2.7,-0.6 4.6,-1 -2.5,-0.4 -3.9,-0.6 -6.4,-1 1.5,-1.4 2.6,-2.6 3.7,-3.4 29.6,-21.7 75.5,-18 101.4,8.2 3.9,3.9 3.7,4.4 -0.7,7.7 -12.7,9.6 -27.1,13.6 -42.8,12.6 -10.4,-0.6 -20.9,-1.1 -31,-3.2 -11.8,-2.4 -21.6,-9 -28.8,-19.9 z"
       id="path7027"
       style="fill:#ffd92f;stroke-width:5.85873508" />
    <path
       inkscape:connector-curvature="0"
       class="st0"
       d="m 9.6,177.8 c 42.1,11.8 63,63.3 51.1,95.8 C 34.6,270.3 -5.6,222.3 9.6,177.8 Z"
       id="path7029"
       style="fill:#ffd92f;stroke-width:5.85873508" />
    <path
       inkscape:connector-curvature="0"
       class="st0"
       d="m 382.1,388.8 c 11.9,-36.3 65,-59.8 98.9,-44.2 -7.8,37.1 -70.3,60 -98.9,44.2 z"
       id="path7031"
       style="fill:#ffd92f;stroke-width:5.85873508" />
    <path
       inkscape:connector-curvature="0"
       class="st0"
       d="m 129.6,388.9 c -26,15.6 -89.2,-5 -98.9,-44.1 33.3,-16.1 89.6,9.1 98.9,44.1 z"
       id="path7033"
       style="fill:#ffd92f;stroke-width:5.85873508" />
    <path
       inkscape:connector-curvature="0"
       class="st0"
       d="m 502.4,177.8 c 14.7,41.5 -21.3,90 -50.4,95.9 -18.3,-26.7 14.7,-89.8 50.4,-95.9 z"
       id="path7035"
       style="fill:#ffd92f;stroke-width:5.85873508" />
    <path
       inkscape:connector-curvature="0"
       class="st0"
       d="m 214.5,426.4 c 14.2,0.1 24.9,2.6 35.1,7.3 6,2.8 6.2,3.2 2.2,8.7 -7.4,10.5 -17.2,18.2 -29.2,22.7 -20.3,7.7 -41.1,11.2 -62.7,4.3 -12,-3.9 -12.9,-5.5 -4.7,-14.8 16.5,-18.6 37.5,-27.6 59.3,-28.2 z"
       id="path7037"
       style="fill:#ffd92f;stroke-width:5.85873508" />
    <path
       inkscape:connector-curvature="0"
       class="st0"
       d="m 295.2,426.9 c 26.3,0.6 48,10.9 64.4,31.5 4.3,5.3 3.8,7.3 -2.8,9.6 -31.1,10.7 -60,5.5 -86.1,-14.1 -4.8,-3.6 -8.2,-9 -12.2,-13.8 -1.8,-2.3 -1.2,-3.7 1.4,-5 11.3,-5.3 22.9,-8.4 35.3,-8.2 z"
       id="path7039"
       style="fill:#ffd92f;stroke-width:5.85873508" />
    <path
       inkscape:connector-curvature="0"
       class="st0"
       d="M 57.4,206.4 C 42.9,194.8 31.9,181.2 30.4,161.8 28.7,140 33.8,119.4 40.7,99 c 28.9,18 43.5,73.8 16.7,107.4 z"
       id="path7041"
       style="fill:#ffd92f;stroke-width:5.85873508" />
    <path
       inkscape:connector-curvature="0"
       class="st0"
       d="m 454.4,206.4 c -26.2,-34.9 -12.3,-87.8 16.7,-107.9 1.2,4 2.5,7.8 3.6,11.6 5.1,16.9 8.2,33.9 6.9,51.6 -1.5,19.4 -12.5,33 -27.2,44.7 z"
       id="path7043"
       style="fill:#ffd92f;stroke-width:5.85873508" />
    <polygon
       class="st0"
       points="218.4,175.2 256.1,98.9 293.7,175.2 377.8,187.4 316.9,246.8 331.3,330.5 256.1,291 180.8,330.5 195.1,246.8 134.3,187.4 "
       id="polygon7045"
       style="fill:#ffd92f;stroke-width:5.85873508" />
  </g>
  <path
     style="fill:#333333;stroke-width:0.99999994"
     d="m 114.51074,184.31963 c -3.96442,0 -3.78061,-0.0119 -4.39941,0.29492 -0.52151,0.2586 -1.0107,0.82652 -1.21094,1.40625 l -0.11914,0.34571 v 13.94043 13.93945 l 0.11914,0.3457 c 0.30386,0.87973 1.14653,1.56533 2.08008,1.69141 0.0844,0.0114 6.35768,0.0177 13.94042,0.0146 l 13.78711,-0.005 0.28516,-0.10938 c 0.1572,-0.0602 0.36491,-0.14944 0.46094,-0.19824 0.48213,-0.24502 0.97244,-0.81285 1.17969,-1.36621 l 0.12011,-0.32129 0.0137,-12.30762 0.0137,-12.30761 -3.30859,-0.0342 c -1.81977,-0.0187 -6.43442,-0.0342 -10.25391,-0.0342 h -6.94433 l -0.0215,-1.59864 c -0.023,-1.74276 -0.0426,-1.88177 -0.34668,-2.41699 -0.22971,-0.40426 -0.49116,-0.67578 -0.85938,-0.89062 -0.61458,-0.3586 -0.50455,-0.38707 -3.19922,-0.38867 -0.38495,-2.1e-4 -0.82719,0 -1.33691,0 z m 12.19043,0 a 2.5599998,2.5599998 0 0 0 -2.56055,2.56055 2.5599998,2.5599998 0 0 0 2.56055,2.55957 2.5599998,2.5599998 0 0 0 2.55957,-2.55957 2.5599998,2.5599998 0 0 0 -2.55957,-2.56055 z m 5.75976,0 a 2.5599998,2.5599998 0 0 0 -2.55957,2.56055 2.5599998,2.5599998 0 0 0 2.55957,2.55957 2.5599998,2.5599998 0 0 0 2.55957,-2.55957 2.5599998,2.5599998 0 0 0 -2.55957,-2.56055 z m 5.75977,0 a 2.5599998,2.5599998 0 0 0 -2.55957,2.56055 2.5599998,2.5599998 0 0 0 2.55957,2.55957 2.5599998,2.5599998 0 0 0 2.56055,-2.55957 2.5599998,2.5599998 0 0 0 -2.56055,-2.56055 z m -26.60059,7.64844 h 13.14746 13.14747 v 10.74316 10.74219 h -13.14747 -13.14746 v -10.74219 z m 18.76368,8.08398 c -0.22835,0.0527 -0.46944,0.12263 -0.72852,0.21485 -0.25908,0.0922 -0.48745,0.16703 -0.68066,0.22851 v 4.20215 h -4.1543 c -0.0922,0.202 -0.17975,0.42205 -0.26758,0.65918 -0.0834,0.23274 -0.15433,0.4562 -0.20703,0.6582 l 0.38281,0.36914 h 4.2461 v 4.30371 l 0.38671,0.3379 c 0.22396,-0.0483 0.46503,-0.11384 0.71094,-0.19727 0.24591,-0.0834 0.47428,-0.17195 0.68067,-0.27734 v -4.16309 h 4.17187 c 0.0834,-0.17126 0.16706,-0.38642 0.25488,-0.63672 0.0834,-0.2503 0.15336,-0.47818 0.20606,-0.68457 l -0.36914,-0.36914 h -4.26367 v -4.29004 z"
     id="path1732"
     inkscape:connector-curvature="0" />
  <text
     xml:space="preserve"
     style="font-style:normal;font-variant:normal;font-weight:normal;font-stretch:normal;font-size:16px;line-height:1.25;font-family:'Noto Sans';-inkscape-font-specification:'Noto Sans, Normal';font-variant-ligatures:normal;font-variant-caps:normal;font-variant-numeric:normal;font-feature-settings:normal;text-align:start;letter-spacing:0px;word-spacing:0px;writing-mode:lr-tb;text-anchor:start;fill:#666666;fill-opacity:1;stroke:none"
     x="107.28973"
     y="109.62905"
     id="text911"><tspan
       sodipodi:role="line"
       x="107.28973"
       y="109.62905"
       style="font-style:normal;font-variant:normal;font-weight:bold;font-stretch:normal;font-size:42.66666794px;font-family:'josefin slab';-inkscape-font-specification:'josefin slab Bold';fill:#666666"
       id="tspan1309">When you've had enough</tspan><tspan
       sodipodi:role="line"
       x="107.28973"
       y="162.96239"
       style="font-style:normal;font-variant:normal;font-weight:bold;font-stretch:normal;font-size:42.66666794px;font-family:'josefin slab';-inkscape-font-specification:'josefin slab Bold';fill:#666666"
       id="tspan2258">no-window tranquility, use the</tspan><tspan
       sodipodi:role="line"
       x="107.28973"
       y="216.29573"
       style="font-style:normal;font-variant:normal;font-weight:bold;font-stretch:normal;font-size:42.66666794px;font-family:'josefin slab';-inkscape-font-specification:'josefin slab Bold';fill:#666666"
       id="tspan2260"
       dx="0 0 0">  <tspan
   style="word-spacing:5px"
   id="tspan2445"> </tspan><tspan
   style="fill:#333333"
   id="tspan2443"
   dx="0">View</tspan> menu</tspan></text>
  <g
     aria-label="Minimalism achieved!"
     style="font-style:normal;font-variant:normal;font-weight:normal;font-stretch:normal;font-size:16px;line-height:1.25;font-family:'Noto Sans';-inkscape-font-specification:'Noto Sans, Normal';font-variant-ligatures:normal;font-variant-caps:normal;font-variant-numeric:normal;font-feature-settings:normal;text-align:start;letter-spacing:0px;word-spacing:0px;writing-mode:lr-tb;text-anchor:start;fill:#ffd92f;fill-opacity:1;stroke:none"
     id="text907">
    <path
       d="m 108.96729,7.653368 q 0.576,0.896 2.368,3.456 1.856,2.496 4.224,5.824 2.432,3.328 5.12,7.104 2.688,3.712 5.056,7.04 2.368,3.264 4.096,5.696 1.792,2.432 2.368,3.2 0.192,-0.32 1.216,-1.728 1.024,-1.408 2.496,-3.52 1.536,-2.112 3.456,-4.736 1.92,-2.688 3.904,-5.44 2.048,-2.816 3.968,-5.568 1.984,-2.752 3.648,-4.992 1.664,-2.304 2.816,-3.968 1.216,-1.728 1.728,-2.368 v 48.448 h -7.424 v -25.984 q 0,-0.512 0.064,-1.088 0.128,-0.576 0.128,-0.832 -0.576,0.768 -1.856,2.624 -1.216,1.792 -2.88,4.16 -1.6,2.304 -3.392,4.928 -1.792,2.56 -3.392,4.864 -1.6,2.304 -2.816,4.096 -1.216,1.728 -1.664,2.432 -0.448,-0.576 -1.792,-2.368 -1.28,-1.856 -3.072,-4.288 -1.728,-2.432 -3.712,-5.184 -1.92,-2.752 -3.584,-5.12 -1.664,-2.368 -2.88,-4.032 -1.216,-1.728 -1.408,-2.112 0,0.256 0.064,0.832 0.128,0.576 0.128,1.088 v 25.984 h -6.976 z"
       style="font-style:normal;font-variant:normal;font-weight:600;font-stretch:normal;font-size:64px;font-family:'Josefin Sans';-inkscape-font-specification:'Josefin Sans Semi-Bold';fill:#ffd92f"
       id="path1164"
       inkscape:connector-curvature="0" />
    <path
       d="m 163.65729,19.109368 q 0,-1.536 1.088,-2.56 1.152,-1.024 2.432,-1.024 1.28,0 2.368,1.024 1.088,1.024 1.088,2.56 0,1.536 -1.088,2.56 -1.088,0.96 -2.368,0.96 -1.28,0 -2.432,-0.96 -1.088,-1.024 -1.088,-2.56 z m 6.144,36.992 h -5.44 v -26.752 h 5.44 z"
       style="font-style:normal;font-variant:normal;font-weight:600;font-stretch:normal;font-size:64px;font-family:'Josefin Sans';-inkscape-font-specification:'Josefin Sans Semi-Bold';fill:#ffd92f"
       id="path1166"
       inkscape:connector-curvature="0" />
    <path
       d="m 177.48629,29.349368 h 4.8 q 0.128,1.984 0.192,3.648 0.128,1.6 0.256,3.2 1.472,-3.456 4.16,-5.504 2.752,-2.048 6.72,-2.048 4.032,0 6.464,2.24 2.432,2.24 2.56,5.76 v 19.456 h -5.504 v -16.96 q -0.128,-2.048 -1.408,-3.456 -1.28,-1.472 -4.032,-1.6 -1.92,0 -3.52,0.704 -1.6,0.64 -2.752,1.792 -1.152,1.152 -1.856,2.752 -0.64,1.6 -0.64,3.52 v 13.248 h -5.44 z"
       style="font-style:normal;font-variant:normal;font-weight:600;font-stretch:normal;font-size:64px;font-family:'Josefin Sans';-inkscape-font-specification:'Josefin Sans Semi-Bold';fill:#ffd92f"
       id="path1168"
       inkscape:connector-curvature="0" />
    <path
       d="m 209.40729,19.109368 q 0,-1.536 1.088,-2.56 1.152,-1.024 2.432,-1.024 1.28,0 2.368,1.024 1.088,1.024 1.088,2.56 0,1.536 -1.088,2.56 -1.088,0.96 -2.368,0.96 -1.28,0 -2.432,-0.96 -1.088,-1.024 -1.088,-2.56 z m 6.144,36.992 h -5.44 v -26.752 h 5.44 z"
       style="font-style:normal;font-variant:normal;font-weight:600;font-stretch:normal;font-size:64px;font-family:'Josefin Sans';-inkscape-font-specification:'Josefin Sans Semi-Bold';fill:#ffd92f"
       id="path1170"
       inkscape:connector-curvature="0" />
    <path
       d="m 223.23629,29.349368 h 4.8 q 0.128,1.984 0.192,3.648 0.128,1.6 0.256,3.2 1.472,-3.456 3.84,-5.44 2.432,-2.048 6.464,-2.112 3.904,0 6.272,1.984 2.368,1.984 2.752,5.184 1.6,-3.264 3.904,-5.184 2.368,-1.92 6.336,-1.984 4.16,0 6.528,2.24 2.432,2.24 2.56,5.76 v 19.456 h -5.504 v -16.96 q -0.128,-2.048 -1.408,-3.456 -1.216,-1.472 -4.032,-1.6 -3.84,0 -6.016,2.496 -2.176,2.432 -2.304,6.272 v 13.248 h -5.44 v -16.96 q -0.128,-2.048 -1.472,-3.456 -1.28,-1.472 -3.968,-1.6 -1.92,0 -3.456,0.704 -1.536,0.64 -2.624,1.792 -1.088,1.152 -1.664,2.752 -0.576,1.6 -0.576,3.52 v 13.248 h -5.44 z"
       style="font-style:normal;font-variant:normal;font-weight:600;font-stretch:normal;font-size:64px;font-family:'Josefin Sans';-inkscape-font-specification:'Josefin Sans Semi-Bold';fill:#ffd92f"
       id="path1172"
       inkscape:connector-curvature="0" />
    <path
       d="m 272.75529,42.981368 q 0,-2.944 1.088,-5.504 1.152,-2.624 3.072,-4.544 1.92,-1.984 4.416,-3.136 2.56,-1.152 5.44,-1.152 1.92,0 3.52,0.512 1.6,0.448 2.752,1.152 1.152,0.704 1.856,1.472 0.704,0.768 0.96,1.344 l 0.256,-3.776 h 5.248 v 26.752 h -5.504 v -3.392 q -0.32,0.512 -1.024,1.216 -0.704,0.704 -1.856,1.344 -1.088,0.576 -2.624,1.024 -1.536,0.448 -3.52,0.448 -3.072,0 -5.696,-1.088 -2.56,-1.152 -4.416,-3.008 -1.856,-1.92 -2.944,-4.416 -1.024,-2.496 -1.024,-5.248 z m 5.504,-0.32 q 0,1.856 0.64,3.456 0.704,1.6 1.856,2.752 1.152,1.152 2.752,1.856 1.6,0.64 3.52,0.64 1.92,0 3.52,-0.64 1.664,-0.704 2.816,-1.856 1.216,-1.216 1.856,-2.752 0.64,-1.6 0.64,-3.456 0,-1.856 -0.64,-3.392 -0.64,-1.6 -1.856,-2.752 -1.152,-1.152 -2.816,-1.792 -1.6,-0.704 -3.52,-0.704 -1.92,0 -3.52,0.704 -1.6,0.64 -2.752,1.792 -1.152,1.152 -1.856,2.752 -0.64,1.536 -0.64,3.392 z"
       style="font-style:normal;font-variant:normal;font-weight:600;font-stretch:normal;font-size:64px;font-family:'Josefin Sans';-inkscape-font-specification:'Josefin Sans Semi-Bold';fill:#ffd92f"
       id="path1174"
       inkscape:connector-curvature="0" />
    <path
       d="m 314.49029,56.101368 h -5.44 v -49.728 h 5.44 z"
       style="font-style:normal;font-variant:normal;font-weight:600;font-stretch:normal;font-size:64px;font-family:'Josefin Sans';-inkscape-font-specification:'Josefin Sans Semi-Bold';fill:#ffd92f"
       id="path1176"
       inkscape:connector-curvature="0" />
    <path
       d="m 321.53229,19.109368 q 0,-1.536 1.088,-2.56 1.152,-1.024 2.432,-1.024 1.28,0 2.368,1.024 1.088,1.024 1.088,2.56 0,1.536 -1.088,2.56 -1.088,0.96 -2.368,0.96 -1.28,0 -2.432,-0.96 -1.088,-1.024 -1.088,-2.56 z m 6.144,36.992 h -5.44 v -26.752 h 5.44 z"
       style="font-style:normal;font-variant:normal;font-weight:600;font-stretch:normal;font-size:64px;font-family:'Josefin Sans';-inkscape-font-specification:'Josefin Sans Semi-Bold';fill:#ffd92f"
       id="path1178"
       inkscape:connector-curvature="0" />
    <path
       d="m 350.27329,31.717368 -2.88,3.84 q -0.064,-0.064 -0.448,-0.32 -0.384,-0.256 -1.024,-0.512 -0.576,-0.256 -1.408,-0.448 -0.768,-0.256 -1.6,-0.256 -1.088,0 -2.176,0.512 -1.024,0.512 -1.024,1.92 0,1.216 0.832,1.984 0.896,0.768 2.176,1.408 1.28,0.576 2.752,1.216 1.536,0.64 2.816,1.6 1.28,0.896 2.112,2.304 0.896,1.344 0.896,3.456 0,3.584 -2.496,5.952 -2.432,2.304 -6.72,2.304 -2.496,0 -4.928,-0.832 -2.368,-0.896 -3.84,-2.56 0.448,-0.448 0.96,-1.152 0.576,-0.704 1.088,-1.344 0.576,-0.64 0.896,-1.024 0.384,-0.448 0.448,-0.448 0,0.064 0.448,0.384 0.512,0.32 1.28,0.704 0.768,0.32 1.728,0.64 0.96,0.256 1.92,0.256 1.536,0 2.624,-0.768 1.088,-0.768 1.088,-2.048 0,-1.152 -0.896,-1.792 -0.832,-0.704 -2.112,-1.28 -1.28,-0.576 -2.816,-1.152 -1.536,-0.64 -2.816,-1.6 -1.28,-0.96 -2.176,-2.368 -0.832,-1.472 -0.832,-3.776 0,-2.176 0.768,-3.648 0.832,-1.472 2.048,-2.368 1.28,-0.96 2.816,-1.344 1.536,-0.448 2.944,-0.448 1.856,0 3.968,0.768 2.112,0.768 3.584,2.24 z"
       style="font-style:normal;font-variant:normal;font-weight:600;font-stretch:normal;font-size:64px;font-family:'Josefin Sans';-inkscape-font-specification:'Josefin Sans Semi-Bold';fill:#ffd92f"
       id="path1180"
       inkscape:connector-curvature="0" />
    <path
       d="m 357.11129,29.349368 h 4.8 q 0.128,1.984 0.192,3.648 0.128,1.6 0.256,3.2 1.472,-3.456 3.84,-5.44 2.432,-2.048 6.464,-2.112 3.904,0 6.272,1.984 2.368,1.984 2.752,5.184 1.6,-3.264 3.904,-5.184 2.368,-1.92 6.336,-1.984 4.16,0 6.528,2.24 2.432,2.24 2.56,5.76 v 19.456 h -5.504 v -16.96 q -0.128,-2.048 -1.408,-3.456 -1.216,-1.472 -4.032,-1.6 -3.84,0 -6.016,2.496 -2.176,2.432 -2.304,6.272 v 13.248 h -5.44 v -16.96 q -0.128,-2.048 -1.472,-3.456 -1.28,-1.472 -3.968,-1.6 -1.92,0 -3.456,0.704 -1.536,0.64 -2.624,1.792 -1.088,1.152 -1.664,2.752 -0.576,1.6 -0.576,3.52 v 13.248 h -5.44 z"
       style="font-style:normal;font-variant:normal;font-weight:600;font-stretch:normal;font-size:64px;font-family:'Josefin Sans';-inkscape-font-specification:'Josefin Sans Semi-Bold';fill:#ffd92f"
       id="path1182"
       inkscape:connector-curvature="0" />
    <path
       d="m 421.38029,42.981368 q 0,-2.944 1.088,-5.504 1.152,-2.624 3.072,-4.544 1.92,-1.984 4.416,-3.136 2.56,-1.152 5.44,-1.152 1.92,0 3.52,0.512 1.6,0.448 2.752,1.152 1.152,0.704 1.856,1.472 0.704,0.768 0.96,1.344 l 0.256,-3.776 h 5.248 v 26.752 h -5.504 v -3.392 q -0.32,0.512 -1.024,1.216 -0.704,0.704 -1.856,1.344 -1.088,0.576 -2.624,1.024 -1.536,0.448 -3.52,0.448 -3.072,0 -5.696,-1.088 -2.56,-1.152 -4.416,-3.008 -1.856,-1.92 -2.944,-4.416 -1.024,-2.496 -1.024,-5.248 z m 5.504,-0.32 q 0,1.856 0.64,3.456 0.704,1.6 1.856,2.752 1.152,1.152 2.752,1.856 1.6,0.64 3.52,0.64 1.92,0 3.52,-0.64 1.664,-0.704 2.816,-1.856 1.216,-1.216 1.856,-2.752 0.64,-1.6 0.64,-3.456 0,-1.856 -0.64,-3.392 -0.64,-1.6 -1.856,-2.752 -1.152,-1.152 -2.816,-1.792 -1.6,-0.704 -3.52,-0.704 -1.92,0 -3.52,0.704 -1.6,0.64 -2.752,1.792 -1.152,1.152 -1.856,2.752 -0.64,1.536 -0.64,3.392 z"
       style="font-style:normal;font-variant:normal;font-weight:600;font-stretch:normal;font-size:64px;font-family:'Josefin Sans';-inkscape-font-specification:'Josefin Sans Semi-Bold';fill:#ffd92f"
       id="path1184"
       inkscape:connector-curvature="0" />
    <path
       d="m 475.53129,49.509368 q 0.896,1.088 1.664,2.112 0.832,0.96 1.664,2.048 -1.792,1.408 -4.032,2.24 -2.24,0.832 -4.864,0.832 -2.944,0 -5.568,-1.088 -2.56,-1.152 -4.48,-3.072 -1.92,-1.92 -3.072,-4.48 -1.088,-2.56 -1.088,-5.44 0,-2.88 1.088,-5.44 1.152,-2.56 3.072,-4.416 1.92,-1.92 4.48,-3.008 2.624,-1.152 5.568,-1.152 2.688,0 4.928,0.832 2.304,0.832 4.16,2.24 l -3.52,4.16 q -1.088,-0.896 -2.496,-1.344 -1.408,-0.512 -3.072,-0.512 -1.92,0 -3.52,0.704 -1.6,0.64 -2.816,1.792 -1.152,1.152 -1.792,2.752 -0.64,1.536 -0.64,3.392 0,1.856 0.64,3.456 0.64,1.536 1.792,2.752 1.216,1.152 2.816,1.856 1.6,0.64 3.52,0.64 1.664,0 3.072,-0.448 1.408,-0.512 2.496,-1.408 z"
       style="font-style:normal;font-variant:normal;font-weight:600;font-stretch:normal;font-size:64px;font-family:'Josefin Sans';-inkscape-font-specification:'Josefin Sans Semi-Bold';fill:#ffd92f"
       id="path1186"
       inkscape:connector-curvature="0" />
    <path
       d="m 484.23629,6.373368 h 5.44 v 29.44 q 1.408,-3.2 3.968,-5.12 2.56,-1.984 6.592,-2.048 4.096,-0.064 6.528,2.176 2.496,2.24 2.624,5.824 v 19.456 h -5.504 v -16.96 q -0.128,-2.048 -1.408,-3.456 -1.28,-1.472 -4.032,-1.6 -1.92,0 -3.52,0.704 -1.6,0.64 -2.752,1.792 -1.152,1.152 -1.856,2.752 -0.64,1.6 -0.64,3.52 v 13.248 h -5.44 z"
       style="font-style:normal;font-variant:normal;font-weight:600;font-stretch:normal;font-size:64px;font-family:'Josefin Sans';-inkscape-font-specification:'Josefin Sans Semi-Bold';fill:#ffd92f"
       id="path1188"
       inkscape:connector-curvature="0" />
    <path
       d="m 516.15729,19.109368 q 0,-1.536 1.088,-2.56 1.152,-1.024 2.432,-1.024 1.28,0 2.368,1.024 1.088,1.024 1.088,2.56 0,1.536 -1.088,2.56 -1.088,0.96 -2.368,0.96 -1.28,0 -2.432,-0.96 -1.088,-1.024 -1.088,-2.56 z m 6.144,36.992 h -5.44 v -26.752 h 5.44 z"
       style="font-style:normal;font-variant:normal;font-weight:600;font-stretch:normal;font-size:64px;font-family:'Josefin Sans';-inkscape-font-specification:'Josefin Sans Semi-Bold';fill:#ffd92f"
       id="path1190"
       inkscape:connector-curvature="0" />
    <path
       d="m 552.64229,52.965368 q -1.92,1.728 -4.672,2.752 -2.752,1.024 -5.632,1.024 -2.944,0 -5.568,-1.088 -2.56,-1.152 -4.48,-3.008 -1.92,-1.92 -3.072,-4.48 -1.088,-2.56 -1.088,-5.44 0,-2.88 1.088,-5.44 1.152,-2.56 3.072,-4.48 1.92,-1.92 4.416,-3.008 2.56,-1.152 5.44,-1.152 4.544,0 7.872,2.752 3.392,2.688 4.864,7.104 -1.984,0.704 -4.544,1.728 -2.56,1.024 -5.312,2.176 -2.752,1.088 -5.504,2.176 -2.752,1.088 -5.12,1.984 1.088,2.176 3.136,3.52 2.112,1.28 4.672,1.28 1.728,0 3.456,-0.64 1.792,-0.64 2.88,-1.728 z m -4.608,-15.744 q -0.768,-1.6 -2.432,-2.368 -1.664,-0.832 -3.392,-0.832 -1.856,0 -3.456,0.704 -1.536,0.704 -2.688,1.92 -1.152,1.152 -1.856,2.688 -0.64,1.536 -0.64,3.136 0,0.32 0,0.448 0.064,0.128 0.064,0.192 1.664,-0.64 3.584,-1.408 1.984,-0.832 3.904,-1.6 1.92,-0.832 3.712,-1.536 1.792,-0.768 3.2,-1.344 z"
       style="font-style:normal;font-variant:normal;font-weight:600;font-stretch:normal;font-size:64px;font-family:'Josefin Sans';-inkscape-font-specification:'Josefin Sans Semi-Bold';fill:#ffd92f"
       id="path1192"
       inkscape:connector-curvature="0" />
    <path
       d="m 569.66829,57.701368 q -3.776,-7.168 -7.104,-14.144 -3.264,-7.04 -6.912,-14.208 h 5.952 q 2.304,4.544 3.648,7.424 1.408,2.88 2.24,4.8 0.832,1.92 1.28,3.264 0.448,1.28 0.896,2.624 0.512,-1.344 0.96,-2.624 0.512,-1.344 1.28,-3.264 0.832,-1.92 2.176,-4.8 1.408,-2.88 3.712,-7.424 h 5.952 q -3.648,7.168 -7.04,14.208 -3.392,6.976 -7.04,14.144 z"
       style="font-style:normal;font-variant:normal;font-weight:600;font-stretch:normal;font-size:64px;font-family:'Josefin Sans';-inkscape-font-specification:'Josefin Sans Semi-Bold';fill:#ffd92f"
       id="path1194"
       inkscape:connector-curvature="0" />
    <path
       d="m 609.39229,52.965368 q -1.92,1.728 -4.672,2.752 -2.752,1.024 -5.632,1.024 -2.944,0 -5.568,-1.088 -2.56,-1.152 -4.48,-3.008 -1.92,-1.92 -3.072,-4.48 -1.088,-2.56 -1.088,-5.44 0,-2.88 1.088,-5.44 1.152,-2.56 3.072,-4.48 1.92,-1.92 4.416,-3.008 2.56,-1.152 5.44,-1.152 4.544,0 7.872,2.752 3.392,2.688 4.864,7.104 -1.984,0.704 -4.544,1.728 -2.56,1.024 -5.312,2.176 -2.752,1.088 -5.504,2.176 -2.752,1.088 -5.12,1.984 1.088,2.176 3.136,3.52 2.112,1.28 4.672,1.28 1.728,0 3.456,-0.64 1.792,-0.64 2.88,-1.728 z m -4.608,-15.744 q -0.768,-1.6 -2.432,-2.368 -1.664,-0.832 -3.392,-0.832 -1.856,0 -3.456,0.704 -1.536,0.704 -2.688,1.92 -1.152,1.152 -1.856,2.688 -0.64,1.536 -0.64,3.136 0,0.32 0,0.448 0.064,0.128 0.064,0.192 1.664,-0.64 3.584,-1.408 1.984,-0.832 3.904,-1.6 1.92,-0.832 3.712,-1.536 1.792,-0.768 3.2,-1.344 z"
       style="font-style:normal;font-variant:normal;font-weight:600;font-stretch:normal;font-size:64px;font-family:'Josefin Sans';-inkscape-font-specification:'Josefin Sans Semi-Bold';fill:#ffd92f"
       id="path1196"
       inkscape:connector-curvature="0" />
    <path
       d="m 614.56929,42.725368 q 0,-3.136 1.024,-5.696 1.088,-2.624 2.944,-4.48 1.856,-1.856 4.352,-2.88 2.56,-1.024 5.504,-1.024 1.984,0 3.52,0.512 1.6,0.448 2.688,1.152 1.152,0.64 1.92,1.472 0.768,0.832 1.152,1.472 v -26.88 h 5.504 v 49.728 h -5.504 v -1.984 q 0,-0.384 0.064,-0.832 0.064,-0.512 0.064,-0.832 -0.64,0.768 -1.536,1.536 -0.832,0.704 -1.984,1.344 -1.152,0.64 -2.688,1.024 -1.472,0.384 -3.392,0.384 -3.2,0 -5.76,-1.088 -2.496,-1.152 -4.288,-3.008 -1.728,-1.92 -2.688,-4.48 -0.896,-2.56 -0.896,-5.44 z m 5.504,-0.064 q 0,1.856 0.64,3.456 0.704,1.6 1.856,2.752 1.152,1.152 2.752,1.856 1.6,0.64 3.52,0.64 1.92,0 3.52,-0.64 1.664,-0.704 2.816,-1.856 1.216,-1.216 1.856,-2.752 0.64,-1.6 0.64,-3.456 0,-1.856 -0.64,-3.392 -0.64,-1.6 -1.856,-2.752 -1.152,-1.152 -2.816,-1.792 -1.6,-0.704 -3.52,-0.704 -1.92,0 -3.52,0.704 -1.6,0.64 -2.752,1.792 -1.152,1.152 -1.856,2.752 -0.64,1.536 -0.64,3.392 z"
       style="font-style:normal;font-variant:normal;font-weight:600;font-stretch:normal;font-size:64px;font-family:'Josefin Sans';-inkscape-font-specification:'Josefin Sans Semi-Bold';fill:#ffd92f"
       id="path1198"
       inkscape:connector-curvature="0" />
    <path
       d="m 652.58929,7.461368 h 5.888 v 37.888 h -5.888 z m 2.944,48.896 q -1.344,0 -2.496,-1.024 -1.088,-1.024 -1.088,-2.624 0,-1.6 1.088,-2.624 1.152,-1.024 2.496,-1.024 1.344,0 2.432,1.024 1.088,1.024 1.088,2.624 0,1.6 -1.088,2.624 -1.088,1.024 -2.432,1.024 z"
       style="font-style:normal;font-variant:normal;font-weight:600;font-stretch:normal;font-size:64px;font-family:'Josefin Sans';-inkscape-font-specification:'Josefin Sans Semi-Bold';fill:#ffd92f"
       id="path1200"
       inkscape:connector-curvature="0" />
  </g>
</svg>
