<?xml version="1.0" encoding="UTF-8" standalone="no"?>
<!-- Created with Inkscape (http://www.inkscape.org/) -->

<svg
   xmlns:dc="http://purl.org/dc/elements/1.1/"
   xmlns:cc="http://creativecommons.org/ns#"
   xmlns:rdf="http://www.w3.org/1999/02/22-rdf-syntax-ns#"
   xmlns:svg="http://www.w3.org/2000/svg"
   xmlns="http://www.w3.org/2000/svg"
   xmlns:sodipodi="http://sodipodi.sourceforge.net/DTD/sodipodi-0.dtd"
   xmlns:inkscape="http://www.inkscape.org/namespaces/inkscape"
   width="681.90912"
   height="217.66104"
   version="1.1"
   id="svg8"
   sodipodi:docname="noWindowEmptyState.svg"
   inkscape:version="0.92.3 (2405546, 2018-03-11)">
  <metadata
     id="metadata823">
    <rdf:RDF>
      <cc:Work
         rdf:about="">
        <dc:format>image/svg+xml</dc:format>
        <dc:type
           rdf:resource="http://purl.org/dc/dcmitype/StillImage" />
        <dc:title></dc:title>
      </cc:Work>
    </rdf:RDF>
  </metadata>
  <defs
     id="defs821" />
  <sodipodi:namedview
     pagecolor="#ffffff"
     bordercolor="#666666"
     borderopacity="1"
     objecttolerance="10"
     gridtolerance="10"
     guidetolerance="10"
     inkscape:pageopacity="0"
     inkscape:pageshadow="2"
     inkscape:window-width="1920"
     inkscape:window-height="1080"
     id="namedview819"
     showgrid="false"
     inkscape:pagecheckerboard="true"
     inkscape:zoom="1.4142136"
     inkscape:cx="372.53403"
     inkscape:cy="131.07073"
     inkscape:window-x="1920"
     inkscape:window-y="0"
     inkscape:window-maximized="1"
     inkscape:current-layer="svg8"
     fit-margin-top="0"
     fit-margin-left="0"
     fit-margin-right="0"
     fit-margin-bottom="0" />
  <g
     transform="matrix(0.17068532,0,0,0.17068532,-1.0249096,-16.812504)"
     id="g7047"
     style="fill:#e6ab02;stroke-width:5.85873508">
    <path
       inkscape:connector-curvature="0"
       class="st0"
       d="m 505.5,262.8 c 5.4,38.7 -39.6,81.1 -79.4,74.2 0.5,-17 7.1,-31.5 17.6,-44.6 15.2,-19 40.2,-30.9 61.8,-29.6 z"
       id="path7021"
       style="fill:#e6ab02;stroke-width:5.85873508" />
    <path
       inkscape:connector-curvature="0"
       class="st0"
       d="M 85.5,337.2 C 46.9,344.7 2.7,303.5 6.2,263.5 c 37.3,-4 79.1,33.1 79.3,73.7 z"
       id="path7023"
       style="fill:#e6ab02;stroke-width:5.85873508" />
    <path
       inkscape:connector-curvature="0"
       class="st0"
       d="m 431.8,413.9 c -5.7,11.1 -14.8,17.9 -26,21.4 -17.9,5.5 -36.4,5.8 -54.8,2.7 -10.4,-1.7 -18.7,-7.9 -27.2,-13.7 16.7,-25.3 71,-41.2 108,-10.4 z"
       id="path7025"
       style="fill:#e6ab02;stroke-width:5.85873508" />
    <path
       inkscape:connector-curvature="0"
       class="st0"
       d="m 81.5,416.5 c 1.6,-0.4 2.7,-0.6 4.6,-1 -2.5,-0.4 -3.9,-0.6 -6.4,-1 1.5,-1.4 2.6,-2.6 3.7,-3.4 29.6,-21.7 75.5,-18 101.4,8.2 3.9,3.9 3.7,4.4 -0.7,7.7 -12.7,9.6 -27.1,13.6 -42.8,12.6 -10.4,-0.6 -20.9,-1.1 -31,-3.2 -11.8,-2.4 -21.6,-9 -28.8,-19.9 z"
       id="path7027"
       style="fill:#e6ab02;stroke-width:5.85873508" />
    <path
       inkscape:connector-curvature="0"
       class="st0"
       d="m 9.6,177.8 c 42.1,11.8 63,63.3 51.1,95.8 C 34.6,270.3 -5.6,222.3 9.6,177.8 Z"
       id="path7029"
       style="fill:#e6ab02;stroke-width:5.85873508" />
    <path
       inkscape:connector-curvature="0"
       class="st0"
       d="m 382.1,388.8 c 11.9,-36.3 65,-59.8 98.9,-44.2 -7.8,37.1 -70.3,60 -98.9,44.2 z"
       id="path7031"
       style="fill:#e6ab02;stroke-width:5.85873508" />
    <path
       inkscape:connector-curvature="0"
       class="st0"
       d="m 129.6,388.9 c -26,15.6 -89.2,-5 -98.9,-44.1 33.3,-16.1 89.6,9.1 98.9,44.1 z"
       id="path7033"
       style="fill:#e6ab02;stroke-width:5.85873508" />
    <path
       inkscape:connector-curvature="0"
       class="st0"
       d="m 502.4,177.8 c 14.7,41.5 -21.3,90 -50.4,95.9 -18.3,-26.7 14.7,-89.8 50.4,-95.9 z"
       id="path7035"
       style="fill:#e6ab02;stroke-width:5.85873508" />
    <path
       inkscape:connector-curvature="0"
       class="st0"
       d="m 214.5,426.4 c 14.2,0.1 24.9,2.6 35.1,7.3 6,2.8 6.2,3.2 2.2,8.7 -7.4,10.5 -17.2,18.2 -29.2,22.7 -20.3,7.7 -41.1,11.2 -62.7,4.3 -12,-3.9 -12.9,-5.5 -4.7,-14.8 16.5,-18.6 37.5,-27.6 59.3,-28.2 z"
       id="path7037"
       style="fill:#e6ab02;stroke-width:5.85873508" />
    <path
       inkscape:connector-curvature="0"
       class="st0"
       d="m 295.2,426.9 c 26.3,0.6 48,10.9 64.4,31.5 4.3,5.3 3.8,7.3 -2.8,9.6 -31.1,10.7 -60,5.5 -86.1,-14.1 -4.8,-3.6 -8.2,-9 -12.2,-13.8 -1.8,-2.3 -1.2,-3.7 1.4,-5 11.3,-5.3 22.9,-8.4 35.3,-8.2 z"
       id="path7039"
       style="fill:#e6ab02;stroke-width:5.85873508" />
    <path
       inkscape:connector-curvature="0"
       class="st0"
       d="M 57.4,206.4 C 42.9,194.8 31.9,181.2 30.4,161.8 28.7,140 33.8,119.4 40.7,99 c 28.9,18 43.5,73.8 16.7,107.4 z"
       id="path7041"
       style="fill:#e6ab02;stroke-width:5.85873508" />
    <path
       inkscape:connector-curvature="0"
       class="st0"
       d="m 454.4,206.4 c -26.2,-34.9 -12.3,-87.8 16.7,-107.9 1.2,4 2.5,7.8 3.6,11.6 5.1,16.9 8.2,33.9 6.9,51.6 -1.5,19.4 -12.5,33 -27.2,44.7 z"
       id="path7043"
       style="fill:#e6ab02;stroke-width:5.85873508" />
    <polygon
       class="st0"
       points="256.1,291 180.8,330.5 195.1,246.8 134.3,187.4 218.4,175.2 256.1,98.9 293.7,175.2 377.8,187.4 316.9,246.8 331.3,330.5 "
       id="polygon7045"
       style="fill:#e6ab02;stroke-width:5.85873508" />
  </g>
  <path
     style="fill:#333333;stroke-width:0.99999994"
     d="m 114.51074,184.31963 c -3.96442,0 -3.78061,-0.0119 -4.39941,0.29492 -0.52151,0.2586 -1.0107,0.82652 -1.21094,1.40625 l -0.11914,0.34571 v 13.94043 13.93945 l 0.11914,0.3457 c 0.30386,0.87973 1.14653,1.56533 2.08008,1.69141 0.0844,0.0114 6.35768,0.0177 13.94042,0.0146 l 13.78711,-0.005 0.28516,-0.10938 c 0.1572,-0.0602 0.36491,-0.14944 0.46094,-0.19824 0.48213,-0.24502 0.97244,-0.81285 1.17969,-1.36621 l 0.12011,-0.32129 0.0137,-12.30762 0.0137,-12.30761 -3.30859,-0.0342 c -1.81977,-0.0187 -6.43442,-0.0342 -10.25391,-0.0342 h -6.94433 l -0.0215,-1.59864 c -0.023,-1.74276 -0.0426,-1.88177 -0.34668,-2.41699 -0.22971,-0.40426 -0.49116,-0.67578 -0.85938,-0.89062 -0.61458,-0.3586 -0.50455,-0.38707 -3.19922,-0.38867 -0.38495,-2.1e-4 -0.82719,0 -1.33691,0 z m 12.19043,0 a 2.5599998,2.5599998 0 0 0 -2.56055,2.56055 2.5599998,2.5599998 0 0 0 2.56055,2.55957 2.5599998,2.5599998 0 0 0 2.55957,-2.55957 2.5599998,2.5599998 0 0 0 -2.55957,-2.56055 z m 5.75976,0 a 2.5599998,2.5599998 0 0 0 -2.55957,2.56055 2.5599998,2.5599998 0 0 0 2.55957,2.55957 2.5599998,2.5599998 0 0 0 2.55957,-2.55957 2.5599998,2.5599998 0 0 0 -2.55957,-2.56055 z m 5.75977,0 a 2.5599998,2.5599998 0 0 0 -2.55957,2.56055 2.5599998,2.5599998 0 0 0 2.55957,2.55957 2.5599998,2.5599998 0 0 0 2.56055,-2.55957 2.5599998,2.5599998 0 0 0 -2.56055,-2.56055 z m -26.60059,7.64844 h 13.14746 13.14747 v 10.74316 10.74219 h -13.14747 -13.14746 v -10.74219 z m 18.76368,8.08398 c -0.22835,0.0527 -0.46944,0.12263 -0.72852,0.21485 -0.25908,0.0922 -0.48745,0.16703 -0.68066,0.22851 v 4.20215 h -4.1543 c -0.0922,0.202 -0.17975,0.42205 -0.26758,0.65918 -0.0834,0.23274 -0.15433,0.4562 -0.20703,0.6582 l 0.38281,0.36914 h 4.2461 v 4.30371 l 0.38671,0.3379 c 0.22396,-0.0483 0.46503,-0.11384 0.71094,-0.19727 0.24591,-0.0834 0.47428,-0.17195 0.68067,-0.27734 v -4.16309 h 4.17187 c 0.0834,-0.17126 0.16706,-0.38642 0.25488,-0.63672 0.0834,-0.2503 0.15336,-0.47818 0.20606,-0.68457 l -0.36914,-0.36914 h -4.26367 v -4.29004 z"
     id="path1732"
     inkscape:connector-curvature="0" />
  <text
     xml:space="preserve"
     style="font-style:normal;font-variant:normal;font-weight:normal;font-stretch:normal;font-size:16px;line-height:1.25;font-family:'Noto Sans';-inkscape-font-specification:'Noto Sans, Normal';font-variant-ligatures:normal;font-variant-caps:normal;font-variant-numeric:normal;font-feature-settings:normal;text-align:start;letter-spacing:0px;word-spacing:0px;writing-mode:lr-tb;text-anchor:start;fill:#666666;fill-opacity:1;stroke:none"
     x="107.28973"
     y="109.62904"
     id="text911"><tspan
       sodipodi:role="line"
       x="107.28973"
       y="109.62904"
       style="font-style:normal;font-variant:normal;font-weight:bold;font-stretch:normal;font-size:42.66666794px;font-family:'josefin slab';-inkscape-font-specification:'josefin slab Bold';fill:#666666"
       id="tspan1309">When you've had enough</tspan><tspan
       sodipodi:role="line"
       x="107.28973"
       y="162.96237"
       style="font-style:normal;font-variant:normal;font-weight:bold;font-stretch:normal;font-size:42.66666794px;font-family:'josefin slab';-inkscape-font-specification:'josefin slab Bold';fill:#666666"
       id="tspan2258">no-window tranquility, use the</tspan><tspan
       sodipodi:role="line"
       x="107.28973"
       y="216.29572"
       style="font-style:normal;font-variant:normal;font-weight:bold;font-stretch:normal;font-size:42.66666794px;font-family:'josefin slab';-inkscape-font-specification:'josefin slab Bold';fill:#666666"
       id="tspan2260"
       dx="0 0 0">  <tspan
   style="word-spacing:5px"
   id="tspan2445"> </tspan><tspan
   style="fill:#333333"
   id="tspan2443"
   dx="0">View</tspan> menu</tspan></text>
  <text
     xml:space="preserve"
     style="font-style:normal;font-variant:normal;font-weight:normal;font-stretch:normal;font-size:16px;line-height:1.25;font-family:'Noto Sans';-inkscape-font-specification:'Noto Sans, Normal';font-variant-ligatures:normal;font-variant-caps:normal;font-variant-numeric:normal;font-feature-settings:normal;text-align:start;letter-spacing:0px;word-spacing:0px;writing-mode:lr-tb;text-anchor:start;fill:#e7298a;fill-opacity:1;stroke:none"
     x="103.27129"
     y="56.101368"
     id="text907"><tspan
       sodipodi:role="line"
       id="tspan905"
       x="103.27129"
       y="56.101368"
       style="font-style:normal;font-variant:normal;font-weight:600;font-stretch:normal;font-size:64px;font-family:'Josefin Sans';-inkscape-font-specification:'Josefin Sans Semi-Bold';fill:#e6ab02">Minimalism achieved!</tspan></text>
</svg>
