<?xml version="1.0" encoding="UTF-8" standalone="no"?>
<!-- Created with Inkscape (http://www.inkscape.org/) -->

<svg
   xmlns:dc="http://purl.org/dc/elements/1.1/"
   xmlns:cc="http://creativecommons.org/ns#"
   xmlns:rdf="http://www.w3.org/1999/02/22-rdf-syntax-ns#"
   xmlns:svg="http://www.w3.org/2000/svg"
   xmlns="http://www.w3.org/2000/svg"
   xmlns:sodipodi="http://sodipodi.sourceforge.net/DTD/sodipodi-0.dtd"
   xmlns:inkscape="http://www.inkscape.org/namespaces/inkscape"
   width="512"
   height="512"
   version="1.1"
   id="svg8"
   sodipodi:docname="cut.svg"
   inkscape:version="0.92.2 (5c3e80d, 2017-08-06)">
  <metadata
     id="metadata823">
    <rdf:RDF>
      <cc:Work
         rdf:about="">
        <dc:format>image/svg+xml</dc:format>
        <dc:type
           rdf:resource="http://purl.org/dc/dcmitype/StillImage" />
        <dc:title></dc:title>
      </cc:Work>
    </rdf:RDF>
  </metadata>
  <defs
     id="defs821" />
  <sodipodi:namedview
     pagecolor="#ffffff"
     bordercolor="#666666"
     borderopacity="1"
     objecttolerance="10"
     gridtolerance="10"
     guidetolerance="10"
     inkscape:pageopacity="0"
     inkscape:pageshadow="2"
     inkscape:window-width="958"
     inkscape:window-height="1010"
     id="namedview819"
     showgrid="false"
     inkscape:pagecheckerboard="true"
     inkscape:zoom="0.9140625"
     inkscape:cx="250.09199"
     inkscape:cy="256"
     inkscape:window-x="0"
     inkscape:window-y="0"
     inkscape:window-maximized="0"
     inkscape:current-layer="svg8" />
  <path
     style="fill:#ffffff;stroke-width:1"
     d="m 204.62083,497.39932 c -11.93731,-4.36893 -24.38802,-16.90773 -30.73165,-30.94903 -4.59365,-10.16778 -5.17411,-14.87969 -5.14397,-41.75543 0.0388,-34.52434 1.49635,-42.17962 32.47397,-170.54575 24.89708,-103.16929 35.70577,-145.06973 40.71181,-157.821154 10.48308,-26.70255 38.66002,-57.136998 66.38928,-71.708315 19.95549,-10.486319 34.28318,-15.7214451 34.28318,-12.526562 0,5.381099 -48.00953,191.052371 -54.40612,210.409341 -5.66546,17.14449 -11.2923,27.55525 -30.09057,55.67338 -22.08011,33.02704 -31.37939,52.66217 -28.49768,60.17184 0.68916,1.79589 8.18141,5.32863 16.64946,7.85051 28.39064,8.4551 41.9109,24.0566 47.03997,54.28108 4.37053,25.75447 -2.89586,58.87019 -17.21753,78.46686 -10.99322,15.04231 -26.03204,22.09371 -46.68028,21.88744 -8.70573,-0.0871 -19.85667,-1.63237 -24.77987,-3.43421 z m 39.47476,-30.65865 c 9.8288,-6.54658 14.66068,-16.67886 17.8749,-37.48299 5.26614,-34.08523 -4.47314,-51.6873 -28.59875,-51.6873 -11.02751,0 -13.21022,0.81588 -19.79271,7.39836 -8.75005,8.75005 -12.11429,18.99572 -13.89384,42.31314 -1.12574,14.75053 -0.61969,18.60051 3.5872,27.2908 7.86499,16.24688 26.40329,21.77252 40.8232,12.16799 z M 222.13473,307.66973 c 6.64206,-3.49612 8.19282,-6.26188 8.23321,-14.68399 0.0233,-4.88707 -1.55163,-8.27669 -4.95301,-10.6591 -10.72602,-7.51279 -24.18493,-1.50749 -24.18493,10.79121 0,7.70636 3.38255,13.57544 8.97609,15.57453 5.22817,1.86849 6.6709,1.74482 11.92864,-1.02265 z M 57.074178,322.60929 C 40.290568,318.34947 29.008878,312.40673 20.138868,303.15326 9.7215978,292.28563 5.9999978,281.54064 5.9999978,262.33152 c 0,-40.01531 27.6113102,-62.03896 77.7789502,-62.03896 48.490832,0 72.904342,18.43319 78.501922,59.2721 0.91983,6.71084 3.03114,11.60036 5.86664,13.58641 4.39483,3.07829 4.38792,3.27491 -0.87912,25.00416 -4.99165,20.59309 -5.71097,22.02116 -12.04087,23.90479 -12.61787,3.75482 -83.950852,4.15398 -98.153342,0.54927 z m 57.954752,-35.0112 c 11.28007,-5.316 15.56432,-12.8762 15.34992,-27.08724 -0.30678,-20.33309 -14.61135,-28.84104 -48.342422,-28.75269 -31.62444,0.0828 -44.62011,8.94905 -44.62011,30.44172 0,12.21538 4.72106,20.93043 14.04009,25.91782 13.30129,7.11864 47.96606,6.83531 63.572522,-0.51961 z m 160.25383,19.51928 c 0,-0.48857 6.25896,-10.83913 13.90881,-23.00124 7.64983,-12.16211 16.84788,-29.18161 20.44009,-37.8211 3.59221,-8.63949 7.25914,-16.49527 8.14872,-17.45729 2.59274,-2.80384 185.71725,-29.96865 187.82398,-27.86194 4.21172,4.21174 -26.21248,47.10574 -43.26306,60.99506 -30.02969,24.46202 -46.04602,29.41499 -127.0009,39.27437 -58.51735,7.12675 -60.05764,7.27734 -60.05764,5.87214 z"
     id="path1536"
     inkscape:connector-curvature="0" />
</svg>
