<?xml version="1.0" encoding="UTF-8" standalone="no"?>
<!-- Created with Inkscape (http://www.inkscape.org/) -->

<svg
   xmlns:dc="http://purl.org/dc/elements/1.1/"
   xmlns:cc="http://creativecommons.org/ns#"
   xmlns:rdf="http://www.w3.org/1999/02/22-rdf-syntax-ns#"
   xmlns:svg="http://www.w3.org/2000/svg"
   xmlns="http://www.w3.org/2000/svg"
   xmlns:sodipodi="http://sodipodi.sourceforge.net/DTD/sodipodi-0.dtd"
   xmlns:inkscape="http://www.inkscape.org/namespaces/inkscape"
   width="512"
   height="512"
   version="1.1"
   id="svg8"
   sodipodi:docname="delete.svg"
   inkscape:version="0.92.2 (5c3e80d, 2017-08-06)">
  <metadata
     id="metadata823">
    <rdf:RDF>
      <cc:Work
         rdf:about="">
        <dc:format>image/svg+xml</dc:format>
        <dc:type
           rdf:resource="http://purl.org/dc/dcmitype/StillImage" />
        <dc:title></dc:title>
      </cc:Work>
    </rdf:RDF>
  </metadata>
  <defs
     id="defs821" />
  <sodipodi:namedview
     pagecolor="#ffffff"
     bordercolor="#666666"
     borderopacity="1"
     objecttolerance="10"
     gridtolerance="10"
     guidetolerance="10"
     inkscape:pageopacity="0"
     inkscape:pageshadow="2"
     inkscape:window-width="958"
     inkscape:window-height="1010"
     id="namedview819"
     showgrid="false"
     inkscape:pagecheckerboard="true"
     inkscape:zoom="0.9140625"
     inkscape:cx="185.52156"
     inkscape:cy="401.67306"
     inkscape:window-x="0"
     inkscape:window-y="0"
     inkscape:window-maximized="0"
     inkscape:current-layer="svg8" />
  <path
     style="fill:#ffffff;stroke-width:0.99999994"
     d="M 91.072653,503.96093 C 85.125363,501.38184 80.932712,497.39138 77.845699,491.37184 75.43638,486.67373 75.35505,481.12784 75.35505,321.52631 V 156.53746 H 256 436.64495 v 164.98885 c 0,159.60153 -0.0813,165.14742 -2.49065,169.84553 -3.14908,6.1406 -7.3492,10.06971 -13.52068,12.64832 -4.28925,1.79217 -23.32483,2.0201 -164.91883,1.97478 -140.01295,-0.0448 -160.642814,-0.29969 -164.642137,-2.03401 z M 166.1543,436.17216 c 2.37586,-0.9927 5.59676,-3.42838 7.15757,-5.41262 l 2.83783,-3.60772 V 327.05732 226.96281 l -4.45067,-4.45067 c -3.6315,-3.6315 -5.45047,-4.45067 -9.88267,-4.45067 -7.24452,0 -12.3411,2.83819 -14.94313,8.32155 -1.92074,4.04767 -2.13984,14.41615 -2.13802,101.17957 0.003,108.0879 -0.39954,103.34556 9.16112,108.12166 5.52842,2.76174 6.70392,2.80853 12.25797,0.48791 z m 95.74967,-0.0799 c 2.48098,-1.03663 5.69969,-3.83466 7.15269,-6.21785 2.58745,-4.24393 2.64191,-6.34795 2.6467,-102.24746 0.005,-105.71852 0.20317,-102.60052 -6.82399,-107.52254 -7.02337,-4.91934 -19.84415,-1.17133 -23.13018,6.76185 -1.10136,2.65891 -1.41181,30.2592 -1.15465,102.65517 0.34423,96.91084 0.40744,99.08093 2.96976,101.95235 2.63799,2.95623 9.0426,6.35712 12.15049,6.452 0.92307,0.0281 3.70821,-0.79691 6.18918,-1.83352 z m 97.22237,-1.50866 c 6.9065,-4.52532 6.83146,-3.34646 6.83146,-107.30627 0,-86.49676 -0.21954,-96.84719 -2.14004,-100.89436 -2.60204,-5.48336 -7.69862,-8.32155 -14.94314,-8.32155 -4.4322,0 -6.25116,0.81917 -9.88266,4.45067 l -4.45068,4.45067 v 100.09451 100.0945 l 2.83428,3.6032 c 5.53997,7.04293 14.45119,8.6115 21.75078,3.82863 z M 49.174622,104.78907 c 0,-20.15341 0.430524,-26.59861 2.032976,-30.434747 2.148942,-5.144415 7.345416,-11.274248 11.711749,-13.815333 1.861114,-1.083111 22.676518,-1.712855 71.996173,-2.178133 l 69.37814,-0.654511 0.6564,-17.671789 c 0.68541,-18.453445 1.29242,-20.618501 7.41233,-26.43824 C 219.72426,6.5955401 223.14537,6.0000011 256,6.0000011 c 32.85463,0 36.27575,0.595539 43.63762,7.5963159 6.11991,5.819739 6.72691,7.984795 7.41233,26.43824 l 0.6564,17.671789 69.37813,0.654511 c 49.31966,0.465278 70.13506,1.095022 71.99618,2.178133 4.36633,2.541085 9.5628,8.670918 11.71175,13.815333 1.60245,3.836137 2.03297,10.281337 2.03297,30.434747 v 25.56796 H 256 49.174622 Z"
     id="path1692"
     inkscape:connector-curvature="0" />
</svg>
