<?xml version="1.0" encoding="UTF-8" standalone="no"?>
<!-- Generator: Adobe Illustrator 19.2.1, SVG Export Plug-In . SVG Version: 6.00 Build 0)  -->

<svg
   xmlns:dc="http://purl.org/dc/elements/1.1/"
   xmlns:cc="http://creativecommons.org/ns#"
   xmlns:rdf="http://www.w3.org/1999/02/22-rdf-syntax-ns#"
   xmlns:svg="http://www.w3.org/2000/svg"
   xmlns="http://www.w3.org/2000/svg"
   xmlns:sodipodi="http://sodipodi.sourceforge.net/DTD/sodipodi-0.dtd"
   xmlns:inkscape="http://www.inkscape.org/namespaces/inkscape"
   version="1.1"
   id="Layer_1"
   x="0px"
   y="0px"
   viewBox="0 0 512 512"
   style="enable-background:new 0 0 512 512;"
   xml:space="preserve"
   sodipodi:docname="document.svg"
   inkscape:version="0.92.3 (2405546, 2018-03-11)"><metadata
     id="metadata4582"><rdf:RDF><cc:Work
         rdf:about=""><dc:format>image/svg+xml</dc:format><dc:type
           rdf:resource="http://purl.org/dc/dcmitype/StillImage" /><dc:title /></cc:Work></rdf:RDF></metadata><defs
     id="defs4580" /><sodipodi:namedview
     pagecolor="#ffffff"
     bordercolor="#666666"
     borderopacity="1"
     objecttolerance="10"
     gridtolerance="10"
     guidetolerance="10"
     inkscape:pageopacity="0"
     inkscape:pageshadow="2"
     inkscape:window-width="958"
     inkscape:window-height="1049"
     id="namedview4578"
     showgrid="false"
     inkscape:pagecheckerboard="true"
     inkscape:zoom="0.31764562"
     inkscape:cx="-146.52936"
     inkscape:cy="114.84489"
     inkscape:window-x="960"
     inkscape:window-y="0"
     inkscape:window-maximized="0"
     inkscape:current-layer="Layer_1" /><style
     type="text/css"
     id="style4569">
	.st0{fill:#ffffff;}
</style><path
     style="fill:#ffffff;stroke-width:1"
     d="m 134.62344,505.79266 c -9.80316,-0.7745 -18.78413,-3.27 -27.93208,-7.7615 -23.983707,-11.7754 -40.079976,-35.0555 -42.683489,-61.7332 -0.26,-2.6643 -0.32859,-52.0046 -0.25391,-182.6695 0.0962,-168.364602 0.13516,-179.208202 0.65429,-182.193402 2.305618,-13.2583 7.12622,-24.6153 14.833694,-34.9474 2.967368,-3.9778 10.973548,-11.9918 14.911714,-14.9263 11.083991,-8.259 23.477751,-13.3182999 36.978271,-15.0949999 4.8401,-0.637 166.28906,-0.6139 169.49696,0.024 10.43649,2.0761 20.87034,8.5588999 36.66086,22.7784999 8.14395,7.3337 82.79548,81.679502 88.71252,88.349202 13.35223,15.0506 19.74515,25.622 21.78635,36.026 0.63816,3.2526 0.65231,279.9127 0.0146,284.7168 -2.99539,22.5647 -14.90344,41.9119 -33.54611,54.503 -9.78537,6.6089 -19.64362,10.3961 -32.68863,12.5577 -2.9122,0.4826 -13.09989,0.53 -123.4725,0.5739 -66.16413,0.026 -121.72675,-0.065 -123.47251,-0.203 z m 243.92174,-38.7974 c 8.18718,-1.8594 14.79115,-5.4122 20.16341,-10.8475 5.27967,-5.3417 8.59112,-11.4896 10.52087,-19.5324 0.5442,-2.2681 0.57604,-8.4247 0.67345,-130.2968 0.0748,-93.5955 0.006,-128.5915 -0.25507,-130.4329 -1.27227,-8.9604 -6.71792,-13.3273 -19.10507,-15.3204 -2.8518,-0.4589 -8.0997,-0.5484 -41.82626,-0.7134 l -38.56532,-0.1886 -2.06316,-0.6999 c -5.95378,-2.0196 -10.77348,-6.8362 -12.78155,-12.7734 l -0.69944,-2.068 -0.1911,-39.0414 c -0.13659,-27.906302 -0.29999,-39.765702 -0.5729,-41.580702 -1.47684,-9.8222 -4.50927,-15.2515 -10.03026,-17.9585 l -2.21526,-1.0861 H 208.7453 c -80.53593,0 -74.23611,-0.1527 -80.5309,1.951 -12.94663,4.3266 -22.79887,15.7018 -25.52666,29.4726 -0.37206,1.8782 -0.44012,29.782602 -0.44012,180.447602 v 178.2257 l 0.75877,3.0154 c 0.97223,3.8637 1.97933,6.5446 3.57706,9.5223 6.16015,11.4807 17.42566,19.0429 30.24004,20.2991 1.40861,0.138 55.83838,0.2272 120.95505,0.1981 110.10732,-0.049 118.56001,-0.091 120.76664,-0.5918 z m -225.51196,-77.0092 c -4.15334,-1.2203 -7.42179,-3.3074 -9.87733,-6.3074 -6.08286,-7.4315 -5.84718,-17.7485 0.57714,-25.2643 1.5599,-1.8249 5.30364,-4.339 7.91691,-5.3165 l 2.0181,-0.7549 100.30158,-0.088 c 111.62406,-0.098 102.49411,-0.2735 107.20638,2.0676 3.14083,1.5603 6.71236,5.1163 8.29151,8.2552 3.85345,7.6598 2.46323,16.3371 -3.57426,22.3099 -2.77746,2.7477 -5.23235,4.1643 -8.79584,5.0757 -2.41692,0.6181 -3.86603,0.6267 -102.30569,0.6044 -94.40726,-0.021 -99.95792,-0.053 -101.7585,-0.5822 z m 2.06317,-76.4239 c -3.60862,-0.6089 -7.36303,-2.4859 -10.16926,-5.084 -6.3285,-5.859 -7.95714,-14.7891 -4.11259,-22.55 2.31558,-4.6745 6.06175,-7.9737 10.97797,-9.6682 l 2.59626,-0.8949 82.00754,0.082 82.00754,0.082 2.22187,0.885 c 5.78975,2.3062 9.71135,6.5016 11.78223,12.6049 0.92557,2.7278 0.83676,8.3123 -0.18172,11.4268 -1.93664,5.9223 -6.907,10.6181 -13.36065,12.6225 -1.60638,0.4989 -7.55176,0.5409 -82.35352,0.5824 -44.34218,0.025 -80.97923,-0.016 -81.41567,-0.089 z m -2.06317,-77.4066 c -7.11341,-1.9481 -12.69269,-8.0787 -13.99595,-15.379 -1.44874,-8.1152 2.68048,-16.4722 10.02766,-20.2946 4.67115,-2.4302 -4.7073,-2.2316 105.63224,-2.2369 88.75167,0 99.38068,0.047 101.57122,0.4927 7.26555,1.477 13.01058,7.0513 14.86044,14.4189 0.74712,2.9755 0.4837,7.6604 -0.60479,10.7561 -1.61984,4.607 -4.99219,8.4387 -9.26983,10.5327 -4.91192,2.4045 4.8743,2.2047 -106.47841,2.1732 -83.73027,-0.024 -100.4158,-0.1 -101.74258,-0.4631 z"
     id="path4626"
     inkscape:connector-curvature="0" /></svg>