<?xml version="1.0" encoding="UTF-8" standalone="no"?>
<!-- Generator: Adobe Illustrator 19.2.1, SVG Export Plug-In . SVG Version: 6.00 Build 0)  -->

<svg
   xmlns:dc="http://purl.org/dc/elements/1.1/"
   xmlns:cc="http://creativecommons.org/ns#"
   xmlns:rdf="http://www.w3.org/1999/02/22-rdf-syntax-ns#"
   xmlns:svg="http://www.w3.org/2000/svg"
   xmlns="http://www.w3.org/2000/svg"
   xmlns:sodipodi="http://sodipodi.sourceforge.net/DTD/sodipodi-0.dtd"
   xmlns:inkscape="http://www.inkscape.org/namespaces/inkscape"
   version="1.1"
   id="Layer_1"
   x="0px"
   y="0px"
   viewBox="0 0 512 512"
   style="enable-background:new 0 0 512 512;"
   xml:space="preserve"
   sodipodi:docname="edge.svg"
   inkscape:version="0.92.3 (2405546, 2018-03-11)"><metadata
     id="metadata4582"><rdf:RDF><cc:Work
         rdf:about=""><dc:format>image/svg+xml</dc:format><dc:type
           rdf:resource="http://purl.org/dc/dcmitype/StillImage" /><dc:title /></cc:Work></rdf:RDF></metadata><defs
     id="defs4580" /><sodipodi:namedview
     pagecolor="#ffffff"
     bordercolor="#666666"
     borderopacity="1"
     objecttolerance="10"
     gridtolerance="10"
     guidetolerance="10"
     inkscape:pageopacity="0"
     inkscape:pageshadow="2"
     inkscape:window-width="958"
     inkscape:window-height="1049"
     id="namedview4578"
     showgrid="false"
     inkscape:pagecheckerboard="true"
     inkscape:zoom="0.63529125"
     inkscape:cx="156.75936"
     inkscape:cy="83.799513"
     inkscape:window-x="960"
     inkscape:window-y="0"
     inkscape:window-maximized="0"
     inkscape:current-layer="Layer_1"
     inkscape:snap-object-midpoints="true"
     inkscape:snap-intersection-paths="true" /><style
     type="text/css"
     id="style4569">
	.st0{fill:#ffffff;}
</style><path
     id="path5986"
     style="fill:#ffffff;fill-opacity:1;stroke:none;stroke-width:60.00000381;stroke-miterlimit:4;stroke-dasharray:none;stroke-dashoffset:0;stroke-opacity:1"
     d="M 70.736362,6.193789 C 28.470084,7.71334 -5.4734399,55.646432 9.6699771,95.713507 21.784769,130.37979 64.750862,152.75531 99.274462,137.11767 133.65017,123.86886 153.50184,79.166814 135.64374,45.80805 124.25145,21.668373 97.999682,4.423719 70.736362,6.193789 Z M 436.91384,369.86904 c -42.97442,-0.21599 -78.68928,47.93376 -63.72686,88.77337 11.68241,35.39163 55.66804,58.15909 90.46802,41.98626 33.7584,-13.56209 53.18242,-57.39946 35.93266,-90.58982 -10.92357,-23.79735 -36.21145,-40.99471 -62.67382,-40.16981 z M 190.29407,84.650468 A 116.57281,116.57281 0 0 1 84.750142,190.12152 L 321.91204,427.28343 A 116.57281,116.57281 0 0 1 427.45596,321.81237 Z"
     inkscape:connector-curvature="0" /></svg>