<?xml version="1.0" encoding="UTF-8" standalone="no"?>
<!-- Generator: Adobe Illustrator 19.2.1, SVG Export Plug-In . SVG Version: 6.00 Build 0)  -->

<svg
   xmlns:dc="http://purl.org/dc/elements/1.1/"
   xmlns:cc="http://creativecommons.org/ns#"
   xmlns:rdf="http://www.w3.org/1999/02/22-rdf-syntax-ns#"
   xmlns:svg="http://www.w3.org/2000/svg"
   xmlns="http://www.w3.org/2000/svg"
   xmlns:sodipodi="http://sodipodi.sourceforge.net/DTD/sodipodi-0.dtd"
   xmlns:inkscape="http://www.inkscape.org/namespaces/inkscape"
   version="1.1"
   id="Layer_1"
   x="0px"
   y="0px"
   viewBox="0 0 512 512"
   style="enable-background:new 0 0 512 512;"
   xml:space="preserve"
   sodipodi:docname="meta.svg"
   inkscape:version="0.92.3 (2405546, 2018-03-11)"><metadata
     id="metadata4582"><rdf:RDF><cc:Work
         rdf:about=""><dc:format>image/svg+xml</dc:format><dc:type
           rdf:resource="http://purl.org/dc/dcmitype/StillImage" /><dc:title></dc:title></cc:Work></rdf:RDF></metadata><defs
     id="defs4580" /><sodipodi:namedview
     pagecolor="#ffffff"
     bordercolor="#666666"
     borderopacity="1"
     objecttolerance="10"
     gridtolerance="10"
     guidetolerance="10"
     inkscape:pageopacity="0"
     inkscape:pageshadow="2"
     inkscape:window-width="958"
     inkscape:window-height="1049"
     id="namedview4578"
     showgrid="false"
     inkscape:pagecheckerboard="true"
     inkscape:zoom="0.63529124"
     inkscape:cx="185.07617"
     inkscape:cy="123.42295"
     inkscape:window-x="1920"
     inkscape:window-y="0"
     inkscape:window-maximized="0"
     inkscape:current-layer="Layer_1" /><style
     type="text/css"
     id="style4569">
	.st0{fill:#ffffff;}
</style><g
     transform="translate(0,0.05)"
     id="g900"
     style="fill:#ffffff"><path
       inkscape:connector-curvature="0"
       class="st0"
       d="m 242,393.9 c -2.1,3.7 -4.3,8.2 -6.9,13.2 -2.6,5 -5.1,10.2 -7.9,15.5 -2.8,5.2 -5.6,10.3 -8.6,15.2 -3,4.8 -5.9,9 -8.7,12.3 L 15.9,313 6,287.7 c 0,-1.1 0.1,-1.9 0.3,-2.3 0,-0.8 0,-1.2 0.1,-1.4 0.1,-0.2 0.1,-0.7 0.1,-1.4 l 0.6,-3.3 0.6,-5 1.1,-7.9 1.1,-6.2 1.1,-8.5 1.1,-6.7 c 0.2,-1.9 0.7,-4.6 1.4,-8.5 0,-0.8 0.1,-1.3 0.3,-1.7 l 0.6,-3.9 c 0.2,-0.4 0.3,-0.9 0.3,-1.7 l 1.3,-7.2 1.4,-6.7 214.8,-153.4 9.9,19.7 c -0.6,4.1 -1.3,9.8 -2.3,16.8 -1,7.1 -2,14.6 -3.1,22.5 -1.1,7.9 -2.2,15.4 -3.3,22.5 -1,7.1 -1.9,12.3 -2.4,15.8 L 85.5,263.6 234.4,368.1 Z"
       id="path896"
       style="fill:#ffffff" /><path
       inkscape:connector-curvature="0"
       class="st0"
       d="m 506,224.3 c -1.3,10.8 -3.1,23.3 -5.3,37 -2.3,13.9 -4.3,25.6 -6.2,35.4 L 279.9,450.1 270,430.4 c 0.6,-3.7 1.3,-9.3 2.3,-16.6 0.9,-7.3 2,-14.9 3.1,-22.8 1.1,-7.9 2.2,-15.4 3.3,-22.5 1,-7.1 1.9,-12.3 2.4,-15.8 L 426.6,248.8 277.8,143.8 270.2,118 c 2.1,-3.7 4.3,-8.2 6.9,-13.2 2.6,-5 5.1,-10.2 7.9,-15.5 2.8,-5.2 5.6,-10.3 8.6,-15.2 3,-4.8 5.9,-9 8.7,-12.3 l 194.1,137 z"
       id="path898"
       style="fill:#ffffff" /></g></svg>