<?xml version="1.0" encoding="UTF-8" standalone="no"?>
<!-- Generator: Adobe Illustrator 19.2.1, SVG Export Plug-In . SVG Version: 6.00 Build 0)  -->

<svg
   xmlns:dc="http://purl.org/dc/elements/1.1/"
   xmlns:cc="http://creativecommons.org/ns#"
   xmlns:rdf="http://www.w3.org/1999/02/22-rdf-syntax-ns#"
   xmlns:svg="http://www.w3.org/2000/svg"
   xmlns="http://www.w3.org/2000/svg"
   xmlns:sodipodi="http://sodipodi.sourceforge.net/DTD/sodipodi-0.dtd"
   xmlns:inkscape="http://www.inkscape.org/namespaces/inkscape"
   version="1.1"
   id="Layer_1"
   x="0px"
   y="0px"
   viewBox="0 0 512 512"
   style="enable-background:new 0 0 512 512;"
   xml:space="preserve"
   sodipodi:docname="networkModel.svg"
   inkscape:version="0.92.2 (5c3e80d, 2017-08-06)"><metadata
     id="metadata4385"><rdf:RDF><cc:Work
         rdf:about=""><dc:format>image/svg+xml</dc:format><dc:type
           rdf:resource="http://purl.org/dc/dcmitype/StillImage" /><dc:title></dc:title></cc:Work></rdf:RDF></metadata><defs
     id="defs4383" /><sodipodi:namedview
     pagecolor="#ffffff"
     bordercolor="#666666"
     borderopacity="1"
     objecttolerance="10"
     gridtolerance="10"
     guidetolerance="10"
     inkscape:pageopacity="0"
     inkscape:pageshadow="2"
     inkscape:window-width="958"
     inkscape:window-height="1010"
     id="namedview4381"
     showgrid="false"
     inkscape:pagecheckerboard="true"
     inkscape:zoom="0.921875"
     inkscape:cx="276.72373"
     inkscape:cy="192.25225"
     inkscape:window-x="0"
     inkscape:window-y="0"
     inkscape:window-maximized="0"
     inkscape:current-layer="Layer_1" /><style
     type="text/css"
     id="style4376">
	.st0{fill:#ffffff;}
</style><g
     id="g6217"
     style="fill:#ffffff;stroke-width:1.04091752"
     transform="matrix(0.96069093,0,0,0.96069093,12.186579,-14.511691)"><path
       id="path5101"
       d="m 322.20117,63.837891 c 0.2544,0.788224 0.51125,1.575278 0.74219,2.371093 3.92464,12.693533 4.29486,25.960725 1.80273,38.734376 1.01632,0.14685 2.03251,0.29456 3.04883,0.44141 17.53261,2.55167 35.06447,5.10761 52.59961,7.63867 2.27335,-13.98215 9.17314,-27.27096 19.04102,-37.576174 -8.09988,-0.721788 -16.09675,-3.928434 -24.31836,-3.869141 -17.65308,-2.714673 -35.39725,-4.467698 -52.91602,-7.740234 z M 156.32031,123.74219 c -25.00733,21.74584 -49.94326,43.58488 -75.505857,64.68359 13.30249,4.45464 25.125327,13.40385 33.302737,24.83008 22.171,-19.03321 44.37184,-38.54563 66.74414,-57.09375 -10.51067,-8.85644 -19.08424,-19.93518 -24.54102,-32.41992 z m 236.82813,38.08984 c -25.38298,25.38591 -50.76546,50.7723 -76.14844,76.1582 12.18754,5.95706 22.16165,16.65919 27.88281,29.04883 27.4842,-27.32418 54.82375,-55.15796 82.40625,-82.14062 -13.33435,-4.1332 -25.5074,-12.21156 -34.14062,-23.06641 z m 87.86718,16.4043 c -3.54312,2.21129 -7.32084,4.0749 -11.30664,5.51562 -9.70914,3.91874 -20.14487,5.01047 -30.34179,3.76172 -3.78178,47.91425 -7.0335,95.8867 -11.63672,143.70703 10.65148,1.10518 20.80859,5.97107 28.86328,12.97657 4.39679,3.45657 8.04365,7.6298 10.96484,12.25585 -0.69153,-4.515 -0.81083,-9.07372 0.33789,-13.73242 4.04193,-54.86216 7.75187,-109.76215 13.11914,-164.48437 z m -354.96874,70.08008 c 0.21379,11.43422 -2.66915,22.95674 -8.49219,32.88086 -1.145,2.12493 -2.42277,4.17137 -3.8125,6.13476 41.29773,4.8886 82.80949,7.70309 124.16797,11.86524 -1.92285,-13.73737 1.869,-27.92046 9.4414,-39.62696 -40.44585,-3.68037 -80.88617,-7.37272 -121.30468,-11.2539 z M 108.62695,293.625 c -9.474831,10.22144 -22.338537,17.28639 -36.019528,19.625 18.646777,30.29438 37.319238,60.56443 55.398438,91.19141 8.98977,-10.24587 19.95526,-18.73204 32.14062,-24.56641 -17.30213,-28.67907 -34.58629,-57.37041 -51.51953,-86.25 z m 239.07422,14.67188 c -4.48285,12.99935 -13.75753,24.45048 -25.87109,30.93164 5.16281,3.01426 9.60506,7.51578 15.33008,9.5664 11.1104,6.96241 23.25704,13.50225 33.85546,20.6875 4.73421,-13.07888 14.04943,-24.6829 25.89844,-31.64453 -16.40435,-9.84692 -32.80854,-19.69409 -49.21289,-29.54101 z m 20.94336,90.24609 c -28.46558,9.47994 -56.90822,19.0268 -85.39062,28.45508 5.60932,12.44306 8.69441,26.04151 8.77929,39.66015 34.23769,-11.50282 68.34515,-23.42223 102.84766,-34.05078 -10.86406,-5.73381 -19.7628,-14.82774 -24.08594,-26.82031 -0.92461,-2.37727 -1.63223,-4.79871 -2.15039,-7.24414 z"
       style="fill:#ffffff;stroke-width:1.04091752"
       inkscape:connector-curvature="0" /><path
       inkscape:connector-curvature="0"
       id="path5787"
       d="m 237.30078,21.380859 c -41.09892,-0.634075 -76.37809,43.167814 -65.92383,82.867191 7.53891,39.44664 55.47591,65.69699 92.37891,48.61718 33.39021,-13.29348 52.94087,-56.261573 36.71484,-89.447261 -10.6718,-24.476186 -35.95297,-42.911942 -63.16992,-42.03711 z"
       style="fill:#ffffff;stroke-width:1.04091752" /><path
       inkscape:connector-curvature="0"
       id="path5785"
       d="m 444.93359,73.244141 c -32.95979,-0.360895 -57.88812,39.869269 -42.64843,69.156249 12.30089,27.92477 53.98911,37.03503 75.94637,15.28233 19.2261,-16.51479 21.74518,-49.38251 3.49113,-67.565532 -9.15978,-10.427969 -22.79621,-17.13639 -36.78907,-16.873047 z"
       style="fill:#ffffff;stroke-width:1.04091752" /><path
       inkscape:connector-curvature="0"
       id="path5779"
       d="m 59.207031,201.41602 c -32.083587,0.93071 -56.1569114,40.01393 -41.206923,68.8474 11.824739,27.09508 51.054768,36.95135 73.605361,17.22486 19.068591,-14.55452 24.724351,-44.0592 10.271481,-63.66016 -9.315067,-14.08654 -25.53675,-23.49141 -42.669919,-22.4121 z"
       style="fill:#ffffff;stroke-width:1.04091752" /><path
       inkscape:connector-curvature="0"
       id="path5777"
       d="m 293.33594,252.87891 c -27.91593,-0.007 -46.6266,37.88946 -28.67969,59.63281 16.03699,20.60455 54.69693,16.45807 63.67773,-8.89844 8.34061,-22.61522 -10.00737,-51.84199 -34.99804,-50.73437 z"
       style="fill:#ffffff;stroke-width:1.04091752" /><path
       inkscape:connector-curvature="0"
       id="path5773"
       d="m 422.26367,349.0918 c -28.36223,-0.73203 -47.84379,38.20592 -28.96094,59.95312 15.53055,18.53 49.94203,16.43844 61.26758,-5.66211 12.08541,-22.36021 -6.28405,-55.12436 -32.30664,-54.29101 z"
       style="fill:#ffffff;stroke-width:1.04091752" /><path
       inkscape:connector-curvature="0"
       id="path5769"
       d="m 195.86914,389.36914 c -45.02504,0.52985 -81.71909,47.60105 -73.3855,91.38892 6.51581,38.72896 47.65637,65.50077 85.75659,60.43725 34.07135,-3.35992 64.14777,-33.10598 65.39454,-67.77343 3.3351,-38.22774 -24.94877,-78.08455 -63.88556,-83.0975 -4.58298,-0.76374 -9.23758,-1.03142 -13.88007,-0.95524 z"
       style="fill:#ffffff;stroke-width:1.04091752" /></g></svg>