<?xml version="1.0" encoding="UTF-8" standalone="no"?>
<!-- Created with Inkscape (http://www.inkscape.org/) -->

<svg
   xmlns:dc="http://purl.org/dc/elements/1.1/"
   xmlns:cc="http://creativecommons.org/ns#"
   xmlns:rdf="http://www.w3.org/1999/02/22-rdf-syntax-ns#"
   xmlns:svg="http://www.w3.org/2000/svg"
   xmlns="http://www.w3.org/2000/svg"
   xmlns:sodipodi="http://sodipodi.sourceforge.net/DTD/sodipodi-0.dtd"
   xmlns:inkscape="http://www.inkscape.org/namespaces/inkscape"
   width="596.82898"
   height="238.80563"
   version="1.1"
   id="svg8"
   sodipodi:docname="noDataEmptyState.svg"
   inkscape:version="0.92.3 (2405546, 2018-03-11)">
  <metadata
     id="metadata823">
    <rdf:RDF>
      <cc:Work
         rdf:about="">
        <dc:format>image/svg+xml</dc:format>
        <dc:type
           rdf:resource="http://purl.org/dc/dcmitype/StillImage" />
        <dc:title></dc:title>
      </cc:Work>
    </rdf:RDF>
  </metadata>
  <defs
     id="defs821" />
  <sodipodi:namedview
     pagecolor="#ffffff"
     bordercolor="#666666"
     borderopacity="1"
     objecttolerance="10"
     gridtolerance="10"
     guidetolerance="10"
     inkscape:pageopacity="0"
     inkscape:pageshadow="2"
     inkscape:window-width="958"
     inkscape:window-height="1049"
     id="namedview819"
     showgrid="false"
     inkscape:pagecheckerboard="true"
     inkscape:zoom="1"
     inkscape:cx="147.54958"
     inkscape:cy="141.33315"
     inkscape:window-x="1920"
     inkscape:window-y="0"
     inkscape:window-maximized="0"
     inkscape:current-layer="svg8"
     fit-margin-top="0"
     fit-margin-left="0"
     fit-margin-right="0"
     fit-margin-bottom="0"
     inkscape:snap-global="true" />
  <path
     inkscape:connector-curvature="0"
     id="path1589"
     d="m 590.3693,198.45119 6.45967,6.45994 -6.47658,6.47657 -6.47657,6.47658 v -4.3121 -4.31209 H 573.0532 562.23058 v -4.32905 -4.32905 h 10.82212 10.82212 l 0.0174,-4.29537 0.0174,-4.29537 z"
     style="fill:#ffffff;stroke-width:1" />
  <g
     aria-label="No data yet..."
     style="font-style:normal;font-variant:normal;font-weight:normal;font-stretch:normal;font-size:16px;line-height:1.25;font-family:'Noto Sans';-inkscape-font-specification:'Noto Sans, Normal';font-variant-ligatures:normal;font-variant-caps:normal;font-variant-numeric:normal;font-feature-settings:normal;text-align:start;letter-spacing:0px;word-spacing:0px;writing-mode:lr-tb;text-anchor:start;fill:#e7298a;fill-opacity:1;stroke:none"
     id="text1857">
    <path
       d="m 128.3885,9.698526 v 48.512 q -0.896,-1.152 -3.456,-3.712 -2.56,-2.56 -5.888,-5.888 -3.328,-3.328 -7.104,-6.976 -3.712,-3.648 -7.04,-6.912 -3.328,-3.328 -5.823997,-5.888 -2.496,-2.624 -3.328,-3.712 l -1.216,-1.664 0.192,2.048 v 30.592 h -7.04 v -48.576 q 0.704,0.896 2.304,2.56 1.664,1.664 3.84,3.904 2.24,2.176 4.864,4.736 2.687997,2.56 5.375997,5.184 2.752,2.624 5.376,5.184 2.688,2.496 4.864,4.672 2.24,2.176 3.84,3.84 1.6,1.664 2.24,2.496 l 1.216,1.792 -0.192,-2.176 v -30.016 z"
       style="font-style:normal;font-variant:normal;font-weight:600;font-stretch:normal;font-size:64px;font-family:'josefin sans';-inkscape-font-specification:'josefin sans Semi-Bold';fill:#e7298a"
       id="path3302" />
    <path
       d="m 134.8475,42.658526 q 0,-2.88 1.088,-5.44 1.152,-2.56 3.072,-4.416 1.92,-1.92 4.48,-3.008 2.624,-1.152 5.632,-1.152 3.008,0 5.568,1.152 2.624,1.088 4.48,3.008 1.92,1.856 2.944,4.416 1.088,2.56 1.088,5.44 0,2.88 -1.088,5.44 -1.024,2.56 -2.944,4.48 -1.856,1.92 -4.48,3.072 -2.56,1.088 -5.632,1.088 -2.944,0 -5.568,-1.024 -2.56,-1.024 -4.48,-2.88 -1.92,-1.856 -3.072,-4.416 -1.088,-2.624 -1.088,-5.76 z m 5.44,0.064 q 0,1.792 0.64,3.392 0.704,1.536 1.856,2.752 1.216,1.152 2.752,1.856 1.6,0.64 3.392,0.64 1.792,0 3.392,-0.64 1.6,-0.704 2.752,-1.856 1.216,-1.216 1.92,-2.752 0.704,-1.6 0.704,-3.392 0,-1.792 -0.704,-3.392 -0.704,-1.6 -1.92,-2.752 -1.152,-1.216 -2.752,-1.856 -1.6,-0.704 -3.392,-0.704 -1.792,0 -3.392,0.704 -1.536,0.64 -2.752,1.856 -1.152,1.152 -1.856,2.752 -0.64,1.6 -0.64,3.392 z"
       style="font-style:normal;font-variant:normal;font-weight:600;font-stretch:normal;font-size:64px;font-family:'josefin sans';-inkscape-font-specification:'josefin sans Semi-Bold';fill:#e7298a"
       id="path3304" />
    <path
       d="m 182.0365,42.722526 q 0,-3.136 1.024,-5.696 1.088,-2.624 2.944,-4.48 1.856,-1.856 4.352,-2.88 2.56,-1.024 5.504,-1.024 1.984,0 3.52,0.512 1.6,0.448 2.688,1.152 1.152,0.64 1.92,1.472 0.768,0.832 1.152,1.472 v -26.88 h 5.504 v 49.728 h -5.504 v -1.984 q 0,-0.384 0.064,-0.832 0.064,-0.512 0.064,-0.832 -0.64,0.768 -1.536,1.536 -0.832,0.704 -1.984,1.344 -1.152,0.64 -2.688,1.024 -1.472,0.384 -3.392,0.384 -3.2,0 -5.76,-1.088 -2.496,-1.152 -4.288,-3.008 -1.728,-1.92 -2.688,-4.48 -0.896,-2.56 -0.896,-5.44 z m 5.504,-0.064 q 0,1.856 0.64,3.456 0.704,1.6 1.856,2.752 1.152,1.152 2.752,1.856 1.6,0.64 3.52,0.64 1.92,0 3.52,-0.64 1.664,-0.704 2.816,-1.856 1.216,-1.216 1.856,-2.752 0.64,-1.6 0.64,-3.456 0,-1.856 -0.64,-3.392 -0.64,-1.6 -1.856,-2.752 -1.152,-1.152 -2.816,-1.792 -1.6,-0.704 -3.52,-0.704 -1.92,0 -3.52,0.704 -1.6,0.64 -2.752,1.792 -1.152,1.152 -1.856,2.752 -0.64,1.536 -0.64,3.392 z"
       style="font-style:normal;font-variant:normal;font-weight:600;font-stretch:normal;font-size:64px;font-family:'josefin sans';-inkscape-font-specification:'josefin sans Semi-Bold';fill:#e7298a"
       id="path3306" />
    <path
       d="m 216.4725,42.978526 q 0,-2.944 1.088,-5.504 1.152,-2.624 3.072,-4.544 1.92,-1.984 4.416,-3.136 2.56,-1.152 5.44,-1.152 1.92,0 3.52,0.512 1.6,0.448 2.752,1.152 1.152,0.704 1.856,1.472 0.704,0.768 0.96,1.344 l 0.256,-3.776 h 5.248 v 26.752 h -5.504 v -3.392 q -0.32,0.512 -1.024,1.216 -0.704,0.704 -1.856,1.344 -1.088,0.576 -2.624,1.024 -1.536,0.448 -3.52,0.448 -3.072,0 -5.696,-1.088 -2.56,-1.152 -4.416,-3.008 -1.856,-1.92 -2.944,-4.416 -1.024,-2.496 -1.024,-5.248 z m 5.504,-0.32 q 0,1.856 0.64,3.456 0.704,1.6 1.856,2.752 1.152,1.152 2.752,1.856 1.6,0.64 3.52,0.64 1.92,0 3.52,-0.64 1.664,-0.704 2.816,-1.856 1.216,-1.216 1.856,-2.752 0.64,-1.6 0.64,-3.456 0,-1.856 -0.64,-3.392 -0.64,-1.6 -1.856,-2.752 -1.152,-1.152 -2.816,-1.792 -1.6,-0.704 -3.52,-0.704 -1.92,0 -3.52,0.704 -1.6,0.64 -2.752,1.792 -1.152,1.152 -1.856,2.752 -0.64,1.536 -0.64,3.392 z"
       style="font-style:normal;font-variant:normal;font-weight:600;font-stretch:normal;font-size:64px;font-family:'josefin sans';-inkscape-font-specification:'josefin sans Semi-Bold';fill:#e7298a"
       id="path3308" />
    <path
       d="m 255.0075,17.570526 h 5.44 v 11.84 h 7.168 v 4.864 h -7.168 v 21.824 h -5.44 v -21.824 h -4.8 v -4.864 h 4.8 z"
       style="font-style:normal;font-variant:normal;font-weight:600;font-stretch:normal;font-size:64px;font-family:'josefin sans';-inkscape-font-specification:'josefin sans Semi-Bold';fill:#e7298a"
       id="path3310" />
    <path
       d="m 269.7225,42.978526 q 0,-2.944 1.088,-5.504 1.152,-2.624 3.072,-4.544 1.92,-1.984 4.416,-3.136 2.56,-1.152 5.44,-1.152 1.92,0 3.52,0.512 1.6,0.448 2.752,1.152 1.152,0.704 1.856,1.472 0.704,0.768 0.96,1.344 l 0.256,-3.776 h 5.248 v 26.752 h -5.504 v -3.392 q -0.32,0.512 -1.024,1.216 -0.704,0.704 -1.856,1.344 -1.088,0.576 -2.624,1.024 -1.536,0.448 -3.52,0.448 -3.072,0 -5.696,-1.088 -2.56,-1.152 -4.416,-3.008 -1.856,-1.92 -2.944,-4.416 -1.024,-2.496 -1.024,-5.248 z m 5.504,-0.32 q 0,1.856 0.64,3.456 0.704,1.6 1.856,2.752 1.152,1.152 2.752,1.856 1.6,0.64 3.52,0.64 1.92,0 3.52,-0.64 1.664,-0.704 2.816,-1.856 1.216,-1.216 1.856,-2.752 0.64,-1.6 0.64,-3.456 0,-1.856 -0.64,-3.392 -0.64,-1.6 -1.856,-2.752 -1.152,-1.152 -2.816,-1.792 -1.6,-0.704 -3.52,-0.704 -1.92,0 -3.52,0.704 -1.6,0.64 -2.752,1.792 -1.152,1.152 -1.856,2.752 -0.64,1.536 -0.64,3.392 z"
       style="font-style:normal;font-variant:normal;font-weight:600;font-stretch:normal;font-size:64px;font-family:'josefin sans';-inkscape-font-specification:'josefin sans Semi-Bold';fill:#e7298a"
       id="path3312" />
    <path
       d="m 326.5635,68.962526 h -5.504 q 0.896,-1.856 1.664,-3.584 0.832,-1.664 1.6,-3.456 0.832,-1.728 1.664,-3.648 0.832,-1.856 1.856,-4.032 -1.472,-2.88 -3.008,-6.016 -1.536,-3.2 -3.072,-6.4 -1.536,-3.2 -3.072,-6.4 -1.472,-3.2 -2.944,-6.08 h 5.952 q 2.304,4.544 3.776,7.68 1.536,3.136 2.496,5.44 1.024,2.24 1.6,3.84 0.64,1.6 1.088,2.944 0.512,-1.344 1.088,-2.944 0.64,-1.6 1.6,-3.84 1.024,-2.304 2.496,-5.44 1.536,-3.136 3.84,-7.68 h 5.952 z"
       style="font-style:normal;font-variant:normal;font-weight:600;font-stretch:normal;font-size:64px;font-family:'josefin sans';-inkscape-font-specification:'josefin sans Semi-Bold';fill:#e7298a"
       id="path3314" />
    <path
       d="m 371.4845,52.962526 q -1.92,1.728 -4.672,2.752 -2.752,1.024 -5.632,1.024 -2.944,0 -5.568,-1.088 -2.56,-1.152 -4.48,-3.008 -1.92,-1.92 -3.072,-4.48 -1.088,-2.56 -1.088,-5.44 0,-2.88 1.088,-5.44 1.152,-2.56 3.072,-4.48 1.92,-1.92 4.416,-3.008 2.56,-1.152 5.44,-1.152 4.544,0 7.872,2.752 3.392,2.688 4.864,7.104 -1.984,0.704 -4.544,1.728 -2.56,1.024 -5.312,2.176 -2.752,1.088 -5.504,2.176 -2.752,1.088 -5.12,1.984 1.088,2.176 3.136,3.52 2.112,1.28 4.672,1.28 1.728,0 3.456,-0.64 1.792,-0.64 2.88,-1.728 z m -4.608,-15.744 q -0.768,-1.6 -2.432,-2.368 -1.664,-0.832 -3.392,-0.832 -1.856,0 -3.456,0.704 -1.536,0.704 -2.688,1.92 -1.152,1.152 -1.856,2.688 -0.64,1.536 -0.64,3.136 0,0.32 0,0.448 0.064,0.128 0.064,0.192 1.664,-0.64 3.584,-1.408 1.984,-0.832 3.904,-1.6 1.92,-0.832 3.712,-1.536 1.792,-0.768 3.2,-1.344 z"
       style="font-style:normal;font-variant:normal;font-weight:600;font-stretch:normal;font-size:64px;font-family:'josefin sans';-inkscape-font-specification:'josefin sans Semi-Bold';fill:#e7298a"
       id="path3316" />
    <path
       d="m 380.7575,17.570526 h 5.44 v 11.84 h 7.168 v 4.864 h -7.168 v 21.824 h -5.44 v -21.824 h -4.8 v -4.864 h 4.8 z"
       style="font-style:normal;font-variant:normal;font-weight:600;font-stretch:normal;font-size:64px;font-family:'josefin sans';-inkscape-font-specification:'josefin sans Semi-Bold';fill:#e7298a"
       id="path3318" />
    <path
       d="m 396.1945,52.514526 q 0,-1.536 1.088,-2.56 1.152,-1.088 2.56,-1.088 1.28,0 2.368,1.088 1.152,1.024 1.152,2.56 0,1.664 -1.152,2.624 -1.088,0.96 -2.368,0.96 -1.408,0 -2.56,-0.96 -1.088,-0.96 -1.088,-2.624 z"
       style="font-style:normal;font-variant:normal;font-weight:600;font-stretch:normal;font-size:64px;font-family:'josefin sans';-inkscape-font-specification:'josefin sans Semi-Bold';fill:#e7298a"
       id="path3320" />
    <path
       d="m 410.3195,52.514526 q 0,-1.536 1.088,-2.56 1.152,-1.088 2.56,-1.088 1.28,0 2.368,1.088 1.152,1.024 1.152,2.56 0,1.664 -1.152,2.624 -1.088,0.96 -2.368,0.96 -1.408,0 -2.56,-0.96 -1.088,-0.96 -1.088,-2.624 z"
       style="font-style:normal;font-variant:normal;font-weight:600;font-stretch:normal;font-size:64px;font-family:'josefin sans';-inkscape-font-specification:'josefin sans Semi-Bold';fill:#e7298a"
       id="path3322" />
    <path
       d="m 424.4445,52.514526 q 0,-1.536 1.088,-2.56 1.152,-1.088 2.56,-1.088 1.28,0 2.368,1.088 1.152,1.024 1.152,2.56 0,1.664 -1.152,2.624 -1.088,0.96 -2.368,0.96 -1.408,0 -2.56,-0.96 -1.088,-0.96 -1.088,-2.624 z"
       style="font-style:normal;font-variant:normal;font-weight:600;font-stretch:normal;font-size:64px;font-family:'josefin sans';-inkscape-font-specification:'josefin sans Semi-Bold';fill:#e7298a"
       id="path3324" />
  </g>
  <g
     aria-label="Try creating or uploading
some data with the
File       menu over there"
     style="font-style:normal;font-variant:normal;font-weight:normal;font-stretch:normal;font-size:16px;line-height:1.25;font-family:'Noto Sans';-inkscape-font-specification:'Noto Sans, Normal';font-variant-ligatures:normal;font-variant-caps:normal;font-variant-numeric:normal;font-feature-settings:normal;text-align:start;letter-spacing:0px;word-spacing:0px;writing-mode:lr-tb;text-anchor:start;fill:#ffffff;fill-opacity:1;stroke:none"
     id="text1861">
    <path
       d="M 93.953056,106.38798 H 97.62239 V 83.262651 h -6.698667 v 3.2 h -3.370667 v -6.570667 h 23.594664 v 6.570667 h -3.37066 v -3.2 h -6.61334 v 23.125329 h 3.11467 v 3.37067 H 93.953056 Z"
       style="font-style:normal;font-variant:normal;font-weight:bold;font-stretch:normal;font-size:42.66666794px;font-family:'Josefin Slab';-inkscape-font-specification:'Josefin Slab Bold';fill:#ffffff"
       id="path3327" />
    <path
       d="m 114.13639,106.38798 h 3.24267 v -9.258662 h -2.816 v -3.370667 h 5.93066 v 0.384 q 0.0853,1.024 0.128,1.877334 0.0853,0.810666 0.17067,1.834666 0.512,-1.066666 1.28,-1.877333 0.81067,-0.853333 1.664,-1.408 0.896,-0.597333 1.70667,-0.896 0.85333,-0.298667 1.49333,-0.298667 l -0.256,3.498667 q -2.60267,0 -4.18133,1.450667 -1.57867,1.450666 -1.57867,3.669335 v 4.39466 h 2.688 v 3.37067 h -9.472 z"
       style="font-style:normal;font-variant:normal;font-weight:bold;font-stretch:normal;font-size:42.66666794px;font-family:'Josefin Slab';-inkscape-font-specification:'Josefin Slab Bold';fill:#ffffff"
       id="path3329" />
    <path
       d="m 132.31839,117.05465 h 3.84 q 0.896,-1.83466 1.792,-3.66933 0.93867,-1.83467 1.87734,-3.62667 -1.62134,-3.2 -3.2,-6.31467 -1.536,-3.11466 -3.15734,-6.314662 h -3.584 v -3.370667 h 9.472 v 3.370667 h -2.26133 q 1.23733,2.346667 2.47467,4.736002 1.23733,2.34666 2.048,4.736 0.81066,-2.38934 2.00533,-4.736 1.23733,-2.389335 2.47467,-4.736002 h -2.64534 v -3.370667 h 9.77067 v 3.370667 h -3.49867 q -2.51733,5.034662 -5.03466,9.984002 -2.47467,4.90667 -4.992,9.94133 h 2.09066 v 3.37067 h -9.472 z"
       style="font-style:normal;font-variant:normal;font-weight:bold;font-stretch:normal;font-size:42.66666794px;font-family:'Josefin Slab';-inkscape-font-specification:'Josefin Slab Bold';fill:#ffffff"
       id="path3331" />
    <path
       d="m 182.91972,108.30799 q -1.10933,0.85333 -2.47466,1.36533 -1.32267,0.46933 -2.85867,0.46933 -1.792,0 -3.37067,-0.64 -1.536,-0.68266 -2.688,-1.83466 -1.152,-1.15201 -1.83466,-2.64534 -0.64,-1.536 -0.64,-3.28533 0,-1.70667 0.64,-3.242669 0.68266,-1.536 1.83466,-2.645333 1.152,-1.152 2.688,-1.792 1.57867,-0.682667 3.37067,-0.682667 1.57867,0 2.944,0.512 1.36533,0.469334 2.47467,1.322667 v 4.949332 h -3.15734 v -2.858665 q -1.06666,-0.469334 -2.26133,-0.469334 -2.21867,0 -3.62667,1.408 -1.36533,1.365334 -1.36533,3.498669 0,2.09066 1.36533,3.54133 1.408,1.408 3.62667,1.408 1.87733,0 3.2,-1.06667 z"
       style="font-style:normal;font-variant:normal;font-weight:bold;font-stretch:normal;font-size:42.66666794px;font-family:'Josefin Slab';-inkscape-font-specification:'Josefin Slab Bold';fill:#ffffff"
       id="path3333" />
    <path
       d="m 185.96973,106.38798 h 3.24266 v -9.258662 h -2.816 v -3.370667 h 5.93067 v 0.384 q 0.0853,1.024 0.128,1.877334 0.0853,0.810666 0.17067,1.834666 0.512,-1.066666 1.28,-1.877333 0.81066,-0.853333 1.664,-1.408 0.896,-0.597333 1.70667,-0.896 0.85333,-0.298667 1.49333,-0.298667 l -0.256,3.498667 q -2.60267,0 -4.18134,1.450667 -1.57866,1.450666 -1.57866,3.669335 v 4.39466 h 2.688 v 3.37067 h -9.472 z"
       style="font-style:normal;font-variant:normal;font-weight:bold;font-stretch:normal;font-size:42.66666794px;font-family:'Josefin Slab';-inkscape-font-specification:'Josefin Slab Bold';fill:#ffffff"
       id="path3335" />
    <path
       d="m 210.25306,96.830651 q -2.176,0 -3.54133,1.322667 -1.36534,1.28 -1.45067,3.242662 2.00533,-0.72533 3.968,-1.450662 2.00533,-0.768 4.01067,-1.493333 -0.59733,-0.725334 -1.36533,-1.152 -0.72534,-0.469334 -1.62134,-0.469334 z m 7.50934,3.626669 q -2.90134,1.06666 -5.80267,2.13333 -2.85867,1.06667 -5.76,2.13333 0.64,0.896 1.664,1.45067 1.06666,0.512 2.38933,0.512 1.96267,0 3.24267,-1.36533 l 2.176,2.56 q -1.06667,1.06667 -2.432,1.664 -1.36533,0.59733 -2.98667,0.59733 -1.792,0 -3.37067,-0.64 -1.536,-0.68266 -2.688,-1.83466 -1.152,-1.15201 -1.83466,-2.64534 -0.64,-1.536 -0.64,-3.28533 0,-1.70667 0.64,-3.242669 0.68266,-1.536 1.83466,-2.645333 1.152,-1.152 2.688,-1.792 1.57867,-0.682667 3.37067,-0.682667 1.32267,0 2.51734,0.554667 1.23733,0.512 2.176,1.450667 0.98133,0.938666 1.70666,2.261333 0.72534,1.28 1.10934,2.816002 z"
       style="font-style:normal;font-variant:normal;font-weight:bold;font-stretch:normal;font-size:42.66666794px;font-family:'Josefin Slab';-inkscape-font-specification:'Josefin Slab Bold';fill:#ffffff"
       id="path3337" />
    <path
       d="m 220.8864,101.77998 q 0,-1.664 0.64,-3.199995 0.68267,-1.536 1.83467,-2.688 1.152,-1.152 2.73066,-1.834667 1.57867,-0.682667 3.37067,-0.682667 1.152,0 2.13333,0.341334 0.98134,0.341333 1.70667,0.768 0.72533,0.384 1.152,0.768 0.42667,0.384 0.42667,0.512 0,-0.469334 0.0853,-0.981334 0.0853,-0.512 0.0853,-1.024 h 2.944 v 12.629329 h 3.24267 v 3.37067 h -6.35733 v -0.85333 -0.85333 q -0.0427,0.128 -0.42667,0.46933 -0.384,0.34133 -1.10933,0.72533 -0.68267,0.34134 -1.664,0.59734 -0.98134,0.29866 -2.21867,0.29866 -1.792,0 -3.37067,-0.64 -1.57866,-0.68266 -2.73066,-1.83466 -1.152,-1.15201 -1.83467,-2.64534 -0.64,-1.536 -0.64,-3.24267 z m 3.584,-0.0427 q 0,2.09066 1.36533,3.54133 1.408,1.408 3.62667,1.408 2.21867,0 3.584,-1.408 1.408,-1.45067 1.408,-3.54133 0,-2.133335 -1.408,-3.498669 -1.36533,-1.408 -3.584,-1.408 -2.21867,0 -3.62667,1.408 -1.36533,1.365334 -1.36533,3.498669 z"
       style="font-style:normal;font-variant:normal;font-weight:bold;font-stretch:normal;font-size:42.66666794px;font-family:'Josefin Slab';-inkscape-font-specification:'Josefin Slab Bold';fill:#ffffff"
       id="path3339" />
    <path
       d="m 247.80373,83.347984 h 3.54133 v 10.410667 h 4.18134 v 3.456 h -4.18134 v 9.173329 h 3.2 v 3.37067 h -6.74133 V 97.214651 h -3.584 v -3.456 h 3.584 z"
       style="font-style:normal;font-variant:normal;font-weight:bold;font-stretch:normal;font-size:42.66666794px;font-family:'Josefin Slab';-inkscape-font-specification:'Josefin Slab Bold';fill:#ffffff"
       id="path3341" />
    <path
       d="m 258.55306,106.38798 h 2.98666 v -9.258662 h -2.98666 v -3.370667 h 6.528 v 12.629329 h 2.944 v 3.37067 h -9.472 z m 2.60266,-18.815996 q 0,-0.981333 0.68267,-1.621333 0.68267,-0.64 1.536,-0.64 0.81067,0 1.49333,0.64 0.68267,0.64 0.68267,1.621333 0,0.981334 -0.68267,1.621334 -0.68266,0.597333 -1.49333,0.597333 -0.85333,0 -1.536,-0.597333 -0.68267,-0.64 -0.68267,-1.621334 z"
       style="font-style:normal;font-variant:normal;font-weight:bold;font-stretch:normal;font-size:42.66666794px;font-family:'Josefin Slab';-inkscape-font-specification:'Josefin Slab Bold';fill:#ffffff"
       id="path3343" />
    <path
       d="m 283.34106,106.38798 h 3.28533 v -6.613329 q -0.0853,-1.152 -0.85333,-1.962666 -0.72534,-0.853334 -2.34667,-0.938667 -1.10933,0 -2.13333,0.384 -0.98134,0.384 -1.74934,1.066667 -0.768,0.682666 -1.23733,1.621333 -0.46933,0.938662 -0.46933,2.048002 v 4.39466 h 2.688 v 3.37067 h -9.472 v -3.37067 h 3.24266 v -9.258662 h -2.816 v -3.370667 h 5.93067 v 0.384 q 0.0853,1.024 0.128,1.877334 0.0853,0.810666 0.17067,1.834666 0.85333,-2.048 2.73066,-3.242666 1.92,-1.237334 4.224,-1.237334 2.51734,0 3.968,1.322667 1.45067,1.322667 1.536,3.456 v 8.234662 h 2.64534 v 3.37067 h -9.472 z"
       style="font-style:normal;font-variant:normal;font-weight:bold;font-stretch:normal;font-size:42.66666794px;font-family:'Josefin Slab';-inkscape-font-specification:'Josefin Slab Bold';fill:#ffffff"
       id="path3345" />
    <path
       d="m 309.96839,93.758651 h 6.18667 v 3.370667 h -3.24267 v 15.189332 q 0,1.70667 -0.68267,3.15734 -0.64,1.49333 -1.792,2.56 -1.152,1.10933 -2.688,1.74933 -1.536,0.64 -3.328,0.64 -1.92,0 -3.712,-0.85333 -1.792,-0.81067 -3.072,-1.70667 l 2.34667,-2.90133 q 0.85333,0.64 1.96267,1.19466 1.152,0.59734 2.38933,0.59734 1.10933,0 2.00533,-0.384 0.93867,-0.384 1.62134,-1.06667 0.68266,-0.64 1.024,-1.57867 0.384,-0.896 0.384,-1.96266 v -2.85867 q 0.0853,-0.17067 0.17066,-0.34133 0.0853,-0.21334 0.17067,-0.42667 -0.128,0.21333 -0.55467,0.55467 -0.42666,0.29866 -1.10933,0.64 -0.68267,0.29866 -1.62133,0.512 -0.896,0.256 -2.048,0.256 -1.792,0 -3.37067,-0.64 -1.57867,-0.68267 -2.73067,-1.792 -1.152,-1.15201 -1.83466,-2.64534 -0.64,-1.536 -0.64,-3.24267 0,-1.664 0.64,-3.199995 0.68266,-1.536 1.83466,-2.688 1.152,-1.152 2.73067,-1.834667 1.57867,-0.682667 3.37067,-0.682667 1.152,0 2.13333,0.341334 0.98133,0.341333 1.70667,0.768 0.72533,0.384 1.152,0.768 0.42666,0.384 0.42666,0.512 0,-0.469334 0.0853,-0.981334 0.0853,-0.512 0.0853,-1.024 z m -10.58133,7.978669 q 0,2.09066 1.36533,3.54133 1.408,1.408 3.62667,1.408 2.21866,0 3.584,-1.408 1.408,-1.45067 1.408,-3.54133 0,-2.133335 -1.408,-3.498669 -1.36534,-1.408 -3.584,-1.408 -2.21867,0 -3.62667,1.408 -1.36533,1.365334 -1.36533,3.498669 z"
       style="font-style:normal;font-variant:normal;font-weight:bold;font-stretch:normal;font-size:42.66666794px;font-family:'Josefin Slab';-inkscape-font-specification:'Josefin Slab Bold';fill:#ffffff"
       id="path3347" />
    <path
       d="m 331.96973,101.73732 q 0,-1.70667 0.64,-3.242669 0.68266,-1.536 1.83466,-2.645333 1.152,-1.152 2.688,-1.792 1.57867,-0.682667 3.37067,-0.682667 1.792,0 3.37067,0.682667 1.57867,0.64 2.73067,1.792 1.152,1.109333 1.792,2.645333 0.68266,1.535999 0.68266,3.242669 0,1.74933 -0.68266,3.28533 -0.64,1.49333 -1.792,2.64534 -1.152,1.152 -2.73067,1.83466 -1.57867,0.64 -3.37067,0.64 -1.792,0 -3.37067,-0.64 -1.536,-0.68266 -2.688,-1.83466 -1.152,-1.15201 -1.83466,-2.64534 -0.64,-1.536 -0.64,-3.28533 z m 3.54133,0.0427 q 0,1.024 0.384,1.92 0.384,0.896 1.024,1.57867 0.68267,0.64 1.57867,1.024 0.896,0.384 1.92,0.384 1.024,0 1.92,-0.384 0.896,-0.384 1.57867,-1.024 0.68266,-0.68267 1.06666,-1.57867 0.384,-0.896 0.384,-1.92 0,-1.024 -0.384,-1.919995 -0.384,-0.896 -1.06666,-1.578667 -0.68267,-0.682667 -1.57867,-1.066667 -0.896,-0.384 -1.92,-0.384 -1.024,0 -1.92,0.384 -0.896,0.384 -1.57867,1.066667 -0.64,0.682667 -1.024,1.578667 -0.384,0.895995 -0.384,1.919995 z"
       style="font-style:normal;font-variant:normal;font-weight:bold;font-stretch:normal;font-size:42.66666794px;font-family:'Josefin Slab';-inkscape-font-specification:'Josefin Slab Bold';fill:#ffffff"
       id="path3349" />
    <path
       d="m 352.05306,106.38798 h 3.24266 v -9.258662 h -2.816 v -3.370667 h 5.93067 v 0.384 q 0.0853,1.024 0.128,1.877334 0.0853,0.810666 0.17067,1.834666 0.512,-1.066666 1.28,-1.877333 0.81066,-0.853333 1.664,-1.408 0.896,-0.597333 1.70666,-0.896 0.85334,-0.298667 1.49334,-0.298667 l -0.256,3.498667 q -2.60267,0 -4.18134,1.450667 -1.57866,1.450666 -1.57866,3.669335 v 4.39466 h 2.688 v 3.37067 h -9.472 z"
       style="font-style:normal;font-variant:normal;font-weight:bold;font-stretch:normal;font-size:42.66666794px;font-family:'Josefin Slab';-inkscape-font-specification:'Josefin Slab Bold';fill:#ffffff"
       id="path3351" />
    <path
       d="m 380.6364,93.758651 h 6.35733 v 9.983999 q 0.0853,1.152 0.81067,2.00533 0.768,0.81067 2.38933,0.896 1.10934,0 2.09067,-0.384 1.024,-0.384 1.792,-1.06666 0.768,-0.68267 1.23733,-1.62134 0.46934,-0.93866 0.46934,-2.048 v -4.394662 h -2.816 v -3.370667 h 6.35733 v 13.013329 h 2.64533 v 2.98667 h -6.18666 v -2.176 l 0.128,-1.92 q -0.85334,2.048 -2.77334,3.28534 -1.87733,1.19466 -4.18133,1.19466 -2.51733,0 -3.968,-1.32266 -1.45067,-1.32267 -1.536,-3.45601 v -8.234662 h -2.816 z"
       style="font-style:normal;font-variant:normal;font-weight:bold;font-stretch:normal;font-size:42.66666794px;font-family:'Josefin Slab';-inkscape-font-specification:'Josefin Slab Bold';fill:#ffffff"
       id="path3353" />
    <path
       d="m 405.39641,117.05465 h 2.85867 V 97.129318 h -3.28534 v -3.370667 h 6.22934 q 0,0.469334 0.0427,1.024 0.0427,0.512 0.128,0.981334 0.0427,-0.128 0.46934,-0.512 0.46933,-0.426667 1.19466,-0.810667 0.72534,-0.426667 1.664,-0.725333 0.98134,-0.341334 2.09067,-0.341334 1.792,0 3.37067,0.682667 1.57866,0.64 2.73066,1.792 1.152,1.152 1.792,2.688 0.68267,1.493332 0.68267,3.200002 0,1.70666 -0.68267,3.24266 -0.64,1.536 -1.792,2.68801 -1.152,1.152 -2.73066,1.83466 -1.57867,0.64 -3.37067,0.64 -1.19467,0 -2.13333,-0.256 -0.93867,-0.256 -1.62134,-0.59733 -0.68266,-0.34133 -1.10933,-0.64 -0.384,-0.34133 -0.512,-0.512 0.0853,0.21333 0.17067,0.42667 0.128,0.17066 0.21333,0.384 v 8.10666 h 3.072 v 3.37067 h -9.472 z m 16.384,-15.31733 q 0,-2.133335 -1.408,-3.498669 -1.36533,-1.408 -3.584,-1.408 -2.21867,0 -3.62667,1.408 -1.36533,1.365334 -1.36533,3.498669 0,2.09066 1.36533,3.54133 1.408,1.408 3.62667,1.408 2.21867,0 3.584,-1.408 1.408,-1.45067 1.408,-3.54133 z"
       style="font-style:normal;font-variant:normal;font-weight:bold;font-stretch:normal;font-size:42.66666794px;font-family:'Josefin Slab';-inkscape-font-specification:'Josefin Slab Bold';fill:#ffffff"
       id="path3355" />
    <path
       d="m 428.3864,106.38798 h 3.24267 V 81.129318 h -2.816 v -3.370667 h 6.35733 v 28.629329 h 2.688 v 3.37067 h -9.472 z"
       style="font-style:normal;font-variant:normal;font-weight:bold;font-stretch:normal;font-size:42.66666794px;font-family:'Josefin Slab';-inkscape-font-specification:'Josefin Slab Bold';fill:#ffffff"
       id="path3357" />
    <path
       d="m 440.8864,101.73732 q 0,-1.70667 0.64,-3.242669 0.68267,-1.536 1.83467,-2.645333 1.152,-1.152 2.688,-1.792 1.57866,-0.682667 3.37066,-0.682667 1.792,0 3.37067,0.682667 1.57867,0.64 2.73067,1.792 1.152,1.109333 1.792,2.645333 0.68266,1.535999 0.68266,3.242669 0,1.74933 -0.68266,3.28533 -0.64,1.49333 -1.792,2.64534 -1.152,1.152 -2.73067,1.83466 -1.57867,0.64 -3.37067,0.64 -1.792,0 -3.37066,-0.64 -1.536,-0.68266 -2.688,-1.83466 -1.152,-1.15201 -1.83467,-2.64534 -0.64,-1.536 -0.64,-3.28533 z m 3.54133,0.0427 q 0,1.024 0.384,1.92 0.384,0.896 1.024,1.57867 0.68267,0.64 1.57867,1.024 0.896,0.384 1.92,0.384 1.024,0 1.92,-0.384 0.896,-0.384 1.57867,-1.024 0.68266,-0.68267 1.06666,-1.57867 0.384,-0.896 0.384,-1.92 0,-1.024 -0.384,-1.919995 -0.384,-0.896 -1.06666,-1.578667 -0.68267,-0.682667 -1.57867,-1.066667 -0.896,-0.384 -1.92,-0.384 -1.024,0 -1.92,0.384 -0.896,0.384 -1.57867,1.066667 -0.64,0.682667 -1.024,1.578667 -0.384,0.895995 -0.384,1.919995 z"
       style="font-style:normal;font-variant:normal;font-weight:bold;font-stretch:normal;font-size:42.66666794px;font-family:'Josefin Slab';-inkscape-font-specification:'Josefin Slab Bold';fill:#ffffff"
       id="path3359" />
    <path
       d="m 460.96974,101.77998 q 0,-1.664 0.64,-3.199995 0.68267,-1.536 1.83467,-2.688 1.152,-1.152 2.73067,-1.834667 1.57866,-0.682667 3.37066,-0.682667 1.152,0 2.13334,0.341334 0.98133,0.341333 1.70666,0.768 0.72534,0.384 1.152,0.768 0.42667,0.384 0.42667,0.512 0,-0.469334 0.0853,-0.981334 0.0853,-0.512 0.0853,-1.024 h 2.944 v 12.629329 h 3.24266 v 3.37067 h -6.35733 v -0.85333 -0.85333 q -0.0427,0.128 -0.42667,0.46933 -0.384,0.34133 -1.10933,0.72533 -0.68267,0.34134 -1.664,0.59734 -0.98133,0.29866 -2.21867,0.29866 -1.792,0 -3.37066,-0.64 -1.57867,-0.68266 -2.73067,-1.83466 -1.152,-1.15201 -1.83467,-2.64534 -0.64,-1.536 -0.64,-3.24267 z m 3.584,-0.0427 q 0,2.09066 1.36534,3.54133 1.408,1.408 3.62666,1.408 2.21867,0 3.584,-1.408 1.408,-1.45067 1.408,-3.54133 0,-2.133335 -1.408,-3.498669 -1.36533,-1.408 -3.584,-1.408 -2.21866,0 -3.62666,1.408 -1.36534,1.365334 -1.36534,3.498669 z"
       style="font-style:normal;font-variant:normal;font-weight:bold;font-stretch:normal;font-size:42.66666794px;font-family:'Josefin Slab';-inkscape-font-specification:'Josefin Slab Bold';fill:#ffffff"
       id="path3361" />
    <path
       d="m 498.29772,108.90532 v -0.85333 q -0.0427,0.128 -0.42666,0.46933 -0.384,0.34133 -1.10934,0.72533 -0.68266,0.34134 -1.664,0.59734 -0.98133,0.29866 -2.21866,0.29866 -1.792,0 -3.37067,-0.64 -1.57867,-0.68266 -2.73067,-1.83466 -1.152,-1.15201 -1.83466,-2.68801 -0.64,-1.536 -0.64,-3.24266 0,-1.70667 0.64,-3.200002 0.68266,-1.536 1.83466,-2.688 1.152,-1.152 2.73067,-1.792 1.57867,-0.682667 3.37067,-0.682667 1.06666,0 2.00533,0.298667 0.98133,0.298667 1.70667,0.682667 0.72533,0.384 1.152,0.768 0.46933,0.384 0.55466,0.512 -0.0853,-0.341334 -0.21333,-0.64 -0.128,-0.341334 -0.21333,-0.682667 v -13.184 h -2.816 v -3.370667 h 6.35733 v 28.629329 h 3.24267 v 3.37067 h -6.35734 z m -10.41066,-7.168 q 0,2.09066 1.36533,3.54133 1.408,1.408 3.62667,1.408 2.21866,0 3.584,-1.408 1.408,-1.45067 1.408,-3.54133 0,-2.133335 -1.408,-3.498669 -1.36534,-1.408 -3.584,-1.408 -2.21867,0 -3.62667,1.408 -1.36533,1.365334 -1.36533,3.498669 z"
       style="font-style:normal;font-variant:normal;font-weight:bold;font-stretch:normal;font-size:42.66666794px;font-family:'Josefin Slab';-inkscape-font-specification:'Josefin Slab Bold';fill:#ffffff"
       id="path3363" />
    <path
       d="m 507.6364,106.38798 h 2.98667 v -9.258662 h -2.98667 v -3.370667 h 6.528 v 12.629329 h 2.944 v 3.37067 h -9.472 z m 2.60267,-18.815996 q 0,-0.981333 0.68266,-1.621333 0.68267,-0.64 1.536,-0.64 0.81067,0 1.49334,0.64 0.68266,0.64 0.68266,1.621333 0,0.981334 -0.68266,1.621334 -0.68267,0.597333 -1.49334,0.597333 -0.85333,0 -1.536,-0.597333 -0.68266,-0.64 -0.68266,-1.621334 z"
       style="font-style:normal;font-variant:normal;font-weight:bold;font-stretch:normal;font-size:42.66666794px;font-family:'Josefin Slab';-inkscape-font-specification:'Josefin Slab Bold';fill:#ffffff"
       id="path3365" />
    <path
       d="m 532.4244,106.38798 h 3.28533 v -6.613329 q -0.0853,-1.152 -0.85333,-1.962666 -0.72533,-0.853334 -2.34667,-0.938667 -1.10933,0 -2.13333,0.384 -0.98133,0.384 -1.74933,1.066667 -0.768,0.682666 -1.23734,1.621333 -0.46933,0.938662 -0.46933,2.048002 v 4.39466 h 2.688 v 3.37067 h -9.472 v -3.37067 h 3.24267 v -9.258662 h -2.816 v -3.370667 h 5.93066 v 0.384 q 0.0853,1.024 0.128,1.877334 0.0853,0.810666 0.17067,1.834666 0.85333,-2.048 2.73067,-3.242666 1.92,-1.237334 4.224,-1.237334 2.51733,0 3.968,1.322667 1.45066,1.322667 1.536,3.456 v 8.234662 h 2.64533 v 3.37067 h -9.472 z"
       style="font-style:normal;font-variant:normal;font-weight:bold;font-stretch:normal;font-size:42.66666794px;font-family:'Josefin Slab';-inkscape-font-specification:'Josefin Slab Bold';fill:#ffffff"
       id="path3367" />
    <path
       d="m 559.05173,93.758651 h 6.18667 v 3.370667 h -3.24267 v 15.189332 q 0,1.70667 -0.68266,3.15734 -0.64,1.49333 -1.792,2.56 -1.152,1.10933 -2.688,1.74933 -1.536,0.64 -3.328,0.64 -1.92,0 -3.712,-0.85333 -1.792,-0.81067 -3.072,-1.70667 l 2.34666,-2.90133 q 0.85334,0.64 1.96267,1.19466 1.152,0.59734 2.38933,0.59734 1.10934,0 2.00534,-0.384 0.93866,-0.384 1.62133,-1.06667 0.68267,-0.64 1.024,-1.57867 0.384,-0.896 0.384,-1.96266 v -2.85867 q 0.0853,-0.17067 0.17067,-0.34133 0.0853,-0.21334 0.17066,-0.42667 -0.128,0.21333 -0.55466,0.55467 -0.42667,0.29866 -1.10934,0.64 -0.68266,0.29866 -1.62133,0.512 -0.896,0.256 -2.048,0.256 -1.792,0 -3.37067,-0.64 -1.57866,-0.68267 -2.73066,-1.792 -1.152,-1.15201 -1.83467,-2.64534 -0.64,-1.536 -0.64,-3.24267 0,-1.664 0.64,-3.199995 0.68267,-1.536 1.83467,-2.688 1.152,-1.152 2.73066,-1.834667 1.57867,-0.682667 3.37067,-0.682667 1.152,0 2.13333,0.341334 0.98134,0.341333 1.70667,0.768 0.72533,0.384 1.152,0.768 0.42667,0.384 0.42667,0.512 0,-0.469334 0.0853,-0.981334 0.0853,-0.512 0.0853,-1.024 z m -10.58133,7.978669 q 0,2.09066 1.36533,3.54133 1.408,1.408 3.62667,1.408 2.21867,0 3.584,-1.408 1.408,-1.45067 1.408,-3.54133 0,-2.133335 -1.408,-3.498669 -1.36533,-1.408 -3.584,-1.408 -2.21867,0 -3.62667,1.408 -1.36533,1.365334 -1.36533,3.498669 z"
       style="font-style:normal;font-variant:normal;font-weight:bold;font-stretch:normal;font-size:42.66666794px;font-family:'Josefin Slab';-inkscape-font-specification:'Josefin Slab Bold';fill:#ffffff"
       id="path3369" />
    <path
       d="m 91.22239,157.97199 v 1.664 q 0.512,0.21333 0.981333,0.29866 0.512,0.0427 1.237333,0.0427 0.04267,0 0.298667,0 0.298667,-0.0427 0.64,-0.17067 0.341333,-0.17066 0.597333,-0.46933 0.298667,-0.29867 0.341334,-0.896 0.04267,-0.768 -0.426667,-1.152 -0.469333,-0.42667 -1.237333,-0.68267 -0.725334,-0.29866 -1.621334,-0.55466 -0.896,-0.29867 -1.706666,-0.768 -0.768,-0.512 -1.28,-1.408 -0.512,-0.896 -0.512,-2.38934 0,-1.32266 0.512,-2.21866 0.512,-0.896 1.28,-1.45067 0.768,-0.59733 1.664,-0.85333 0.896,-0.256 1.621333,-0.256 0.426667,0 1.024,0.0853 0.64,0.0853 1.28,0.29867 0.64,0.21333 1.237334,0.55466 0.64,0.34134 1.109333,0.85334 v 3.712 h -3.157333 v -1.83467 q -0.640001,-0.21333 -1.280001,-0.21333 -0.938666,0 -1.365333,0.42666 -0.426667,0.384 -0.341333,1.06667 0.08533,0.512 0.64,0.85333 0.554666,0.29867 1.28,0.59734 0.768,0.29866 1.621333,0.68266 0.853334,0.384 1.578667,0.98134 0.725333,0.55466 1.194667,1.45066 0.469333,0.85334 0.469333,2.176 0,0.59734 -0.256,1.45067 -0.213333,0.85333 -0.810667,1.664 -0.597333,0.81067 -1.664,1.36533 -1.066666,0.55467 -2.773333,0.55467 -1.578667,0 -3.029334,-0.384 -1.450666,-0.42667 -2.304,-1.36533 v -3.712 z"
       style="font-style:normal;font-variant:normal;font-weight:bold;font-stretch:normal;font-size:42.66666794px;font-family:'Josefin Slab';-inkscape-font-specification:'Josefin Slab Bold';fill:#ffffff"
       id="path3371" />
    <path
       d="m 101.71972,155.07065 q 0,-1.70666 0.64,-3.24266 0.68267,-1.536 1.83467,-2.64534 1.152,-1.152 2.688,-1.792 1.57867,-0.68266 3.37067,-0.68266 1.792,0 3.37066,0.68266 1.57867,0.64 2.73067,1.792 1.152,1.10934 1.792,2.64534 0.68267,1.536 0.68267,3.24266 0,1.74934 -0.68267,3.28534 -0.64,1.49333 -1.792,2.64533 -1.152,1.152 -2.73067,1.83467 -1.57866,0.64 -3.37066,0.64 -1.792,0 -3.37067,-0.64 -1.536,-0.68267 -2.688,-1.83467 -1.152,-1.152 -1.83467,-2.64533 -0.64,-1.536 -0.64,-3.28534 z m 3.54134,0.0427 q 0,1.024 0.384,1.92 0.384,0.896 1.024,1.57867 0.68266,0.64 1.57866,1.024 0.896,0.384 1.92,0.384 1.024,0 1.92,-0.384 0.896,-0.384 1.57867,-1.024 0.68267,-0.68267 1.06667,-1.57867 0.384,-0.896 0.384,-1.92 0,-1.024 -0.384,-1.92 -0.384,-0.896 -1.06667,-1.57867 -0.68267,-0.68266 -1.57867,-1.06666 -0.896,-0.384 -1.92,-0.384 -1.024,0 -1.92,0.384 -0.896,0.384 -1.57866,1.06666 -0.64,0.68267 -1.024,1.57867 -0.384,0.896 -0.384,1.92 z"
       style="font-style:normal;font-variant:normal;font-weight:bold;font-stretch:normal;font-size:42.66666794px;font-family:'Josefin Slab';-inkscape-font-specification:'Josefin Slab Bold';fill:#ffffff"
       id="path3373" />
    <path
       d="m 146.46439,159.72132 h 3.24267 v -6.61333 q -0.0853,-1.152 -0.85334,-1.96267 -0.72533,-0.85333 -2.34666,-0.93867 -1.10934,0 -2.13334,0.384 -0.98133,0.384 -1.74933,1.06667 -0.768,0.68267 -1.23733,1.62133 -0.46934,0.93867 -0.46934,2.048 v 4.39467 h 2.688 v 3.37067 h -9.472 v -3.37067 h 3.24267 v -6.61333 q -0.0853,-1.152 -0.85333,-1.96267 -0.72534,-0.85333 -2.34667,-0.93867 -1.10933,0 -2.13333,0.384 -0.98134,0.384 -1.74934,1.06667 -0.768,0.68267 -1.23733,1.62133 -0.46933,0.93867 -0.46933,2.048 v 4.39467 h 2.688 v 3.37067 h -9.472 v -3.37067 h 3.24266 v -9.25867 h -2.816 v -3.37066 h 5.93067 v 0.384 q 0.0853,1.024 0.128,1.87733 0.0853,0.81067 0.17067,1.83467 0.896,-2.048 2.688,-3.2 1.83466,-1.19467 4.26666,-1.28 2.34667,0 3.75467,1.19466 1.45067,1.152 1.70667,3.072 0.93866,-1.96266 2.73066,-3.072 1.792,-1.10933 4.13867,-1.19466 2.51733,0 3.968,1.32266 1.45067,1.32267 1.536,3.456 v 8.23467 h 2.688 v 3.37067 h -9.472 z"
       style="font-style:normal;font-variant:normal;font-weight:bold;font-stretch:normal;font-size:42.66666794px;font-family:'Josefin Slab';-inkscape-font-specification:'Josefin Slab Bold';fill:#ffffff"
       id="path3375" />
    <path
       d="m 167.41973,150.16399 q -2.176,0 -3.54134,1.32266 -1.36533,1.28 -1.45066,3.24267 2.00533,-0.72533 3.968,-1.45067 2.00533,-0.768 4.01066,-1.49333 -0.59733,-0.72533 -1.36533,-1.152 -0.72533,-0.46933 -1.62133,-0.46933 z m 7.50933,3.62666 q -2.90133,1.06667 -5.80267,2.13334 -2.85866,1.06666 -5.76,2.13333 0.64,0.896 1.664,1.45067 1.06667,0.512 2.38934,0.512 1.96266,0 3.24266,-1.36534 l 2.176,2.56 q -1.06666,1.06667 -2.432,1.664 -1.36533,0.59734 -2.98666,0.59734 -1.792,0 -3.37067,-0.64 -1.536,-0.68267 -2.688,-1.83467 -1.152,-1.152 -1.83467,-2.64533 -0.64,-1.536 -0.64,-3.28534 0,-1.70666 0.64,-3.24266 0.68267,-1.536 1.83467,-2.64534 1.152,-1.152 2.688,-1.792 1.57867,-0.68266 3.37067,-0.68266 1.32266,0 2.51733,0.55466 1.23733,0.512 2.176,1.45067 0.98133,0.93867 1.70667,2.26133 0.72533,1.28 1.10933,2.816 z"
       style="font-style:normal;font-variant:normal;font-weight:bold;font-stretch:normal;font-size:42.66666794px;font-family:'Josefin Slab';-inkscape-font-specification:'Josefin Slab Bold';fill:#ffffff"
       id="path3377" />
    <path
       d="m 204.88106,162.23865 v -0.85333 q -0.0427,0.128 -0.42667,0.46933 -0.384,0.34134 -1.10933,0.72534 -0.68267,0.34133 -1.664,0.59733 -0.98133,0.29867 -2.21867,0.29867 -1.792,0 -3.37066,-0.64 -1.57867,-0.68267 -2.73067,-1.83467 -1.152,-1.152 -1.83467,-2.688 -0.64,-1.536 -0.64,-3.24267 0,-1.70666 0.64,-3.2 0.68267,-1.536 1.83467,-2.688 1.152,-1.152 2.73067,-1.792 1.57866,-0.68266 3.37066,-0.68266 1.06667,0 2.00534,0.29866 0.98133,0.29867 1.70666,0.68267 0.72534,0.384 1.152,0.768 0.46934,0.384 0.55467,0.512 -0.0853,-0.34133 -0.21333,-0.64 -0.128,-0.34133 -0.21334,-0.68267 v -13.184 h -2.816 v -3.37066 h 6.35734 v 28.62933 h 3.24266 v 3.37067 h -6.35733 z m -10.41067,-7.168 q 0,2.09067 1.36534,3.54134 1.408,1.408 3.62666,1.408 2.21867,0 3.584,-1.408 1.408,-1.45067 1.408,-3.54134 0,-2.13333 -1.408,-3.49866 -1.36533,-1.408 -3.584,-1.408 -2.21866,0 -3.62666,1.408 -1.36534,1.36533 -1.36534,3.49866 z"
       style="font-style:normal;font-variant:normal;font-weight:bold;font-stretch:normal;font-size:42.66666794px;font-family:'Josefin Slab';-inkscape-font-specification:'Josefin Slab Bold';fill:#ffffff"
       id="path3379" />
    <path
       d="m 214.21973,155.11332 q 0,-1.664 0.64,-3.2 0.68266,-1.536 1.83466,-2.688 1.152,-1.152 2.73067,-1.83467 1.57867,-0.68266 3.37067,-0.68266 1.152,0 2.13333,0.34133 0.98134,0.34133 1.70667,0.768 0.72533,0.384 1.152,0.768 0.42667,0.384 0.42667,0.512 0,-0.46933 0.0853,-0.98133 0.0853,-0.512 0.0853,-1.024 h 2.944 v 12.62933 h 3.24267 v 3.37067 h -6.35733 v -0.85334 -0.85333 q -0.0427,0.128 -0.42667,0.46933 -0.384,0.34134 -1.10933,0.72534 -0.68267,0.34133 -1.664,0.59733 -0.98134,0.29867 -2.21867,0.29867 -1.792,0 -3.37067,-0.64 -1.57867,-0.68267 -2.73067,-1.83467 -1.152,-1.152 -1.83466,-2.64533 -0.64,-1.536 -0.64,-3.24267 z m 3.584,-0.0427 q 0,2.09067 1.36533,3.54134 1.408,1.408 3.62667,1.408 2.21867,0 3.584,-1.408 1.408,-1.45067 1.408,-3.54134 0,-2.13333 -1.408,-3.49866 -1.36533,-1.408 -3.584,-1.408 -2.21867,0 -3.62667,1.408 -1.36533,1.36533 -1.36533,3.49866 z"
       style="font-style:normal;font-variant:normal;font-weight:bold;font-stretch:normal;font-size:42.66666794px;font-family:'Josefin Slab';-inkscape-font-specification:'Josefin Slab Bold';fill:#ffffff"
       id="path3381" />
    <path
       d="m 241.13706,136.68132 h 3.54133 v 10.41067 h 4.18133 v 3.456 h -4.18133 v 9.17333 h 3.2 v 3.37067 h -6.74133 v -12.544 h -3.584 v -3.456 h 3.584 z"
       style="font-style:normal;font-variant:normal;font-weight:bold;font-stretch:normal;font-size:42.66666794px;font-family:'Josefin Slab';-inkscape-font-specification:'Josefin Slab Bold';fill:#ffffff"
       id="path3383" />
    <path
       d="m 251.8864,155.11332 q 0,-1.664 0.64,-3.2 0.68267,-1.536 1.83467,-2.688 1.152,-1.152 2.73066,-1.83467 1.57867,-0.68266 3.37067,-0.68266 1.152,0 2.13333,0.34133 0.98134,0.34133 1.70667,0.768 0.72533,0.384 1.152,0.768 0.42667,0.384 0.42667,0.512 0,-0.46933 0.0853,-0.98133 0.0853,-0.512 0.0853,-1.024 h 2.944 v 12.62933 h 3.24267 v 3.37067 h -6.35733 v -0.85334 -0.85333 q -0.0427,0.128 -0.42667,0.46933 -0.384,0.34134 -1.10933,0.72534 -0.68267,0.34133 -1.664,0.59733 -0.98134,0.29867 -2.21867,0.29867 -1.792,0 -3.37067,-0.64 -1.57866,-0.68267 -2.73066,-1.83467 -1.152,-1.152 -1.83467,-2.64533 -0.64,-1.536 -0.64,-3.24267 z m 3.584,-0.0427 q 0,2.09067 1.36533,3.54134 1.408,1.408 3.62667,1.408 2.21867,0 3.584,-1.408 1.408,-1.45067 1.408,-3.54134 0,-2.13333 -1.408,-3.49866 -1.36533,-1.408 -3.584,-1.408 -2.21867,0 -3.62667,1.408 -1.36533,1.36533 -1.36533,3.49866 z"
       style="font-style:normal;font-variant:normal;font-weight:bold;font-stretch:normal;font-size:42.66666794px;font-family:'Josefin Slab';-inkscape-font-specification:'Josefin Slab Bold';fill:#ffffff"
       id="path3385" />
    <path
       d="m 311.34907,147.09199 h 9.13067 v 3.37066 h -3.24267 q -1.70666,3.456 -3.456,6.82667 -1.70666,3.37067 -3.41333,6.784 l -5.80267,-11.47733 -5.80266,11.47733 q -1.74934,-3.41333 -3.456,-6.784 -1.70667,-3.41333 -3.45601,-6.82667 h -3.79733 v -3.37066 h 8.832 v 3.37066 h -1.49333 q 0.93867,1.87734 1.83467,3.75467 0.896,1.83467 1.536,3.75467 0.46933,-1.45067 1.10933,-2.816 0.68267,-1.408 1.36533,-2.816 0.21334,-0.46934 0.42667,-0.93867 0.256,-0.46933 0.46933,-0.93867 h -2.176 v -3.37066 h 9.472 v 3.37066 h -2.432 q 0.93867,1.87734 1.83467,3.75467 0.896,1.83467 1.536,3.75467 0.64,-1.92 1.49333,-3.75467 0.896,-1.87733 1.87734,-3.75467 h -2.38934 z"
       style="font-style:normal;font-variant:normal;font-weight:bold;font-stretch:normal;font-size:42.66666794px;font-family:'Josefin Slab';-inkscape-font-specification:'Josefin Slab Bold';fill:#ffffff"
       id="path3387" />
    <path
       d="m 323.46973,159.72132 h 2.98666 v -9.25867 h -2.98666 v -3.37066 h 6.528 v 12.62933 h 2.944 v 3.37067 h -9.472 z m 2.60266,-18.816 q 0,-0.98133 0.68267,-1.62133 0.68267,-0.64 1.536,-0.64 0.81067,0 1.49333,0.64 0.68267,0.64 0.68267,1.62133 0,0.98133 -0.68267,1.62133 -0.68266,0.59734 -1.49333,0.59734 -0.85333,0 -1.536,-0.59734 -0.68267,-0.64 -0.68267,-1.62133 z"
       style="font-style:normal;font-variant:normal;font-weight:bold;font-stretch:normal;font-size:42.66666794px;font-family:'Josefin Slab';-inkscape-font-specification:'Josefin Slab Bold';fill:#ffffff"
       id="path3389" />
    <path
       d="m 339.55373,136.68132 h 3.54133 v 10.41067 h 4.18134 v 3.456 h -4.18134 v 9.17333 h 3.2 v 3.37067 h -6.74133 v -12.544 h -3.584 v -3.456 h 3.584 z"
       style="font-style:normal;font-variant:normal;font-weight:bold;font-stretch:normal;font-size:42.66666794px;font-family:'Josefin Slab';-inkscape-font-specification:'Josefin Slab Bold';fill:#ffffff"
       id="path3391" />
    <path
       d="m 362.59106,159.72132 h 3.28533 v -6.61333 q -0.0853,-1.152 -0.85333,-1.96267 -0.72534,-0.85333 -2.34667,-0.93867 -1.10933,0 -2.13333,0.384 -0.98134,0.384 -1.74934,1.06667 -0.768,0.68267 -1.23733,1.62133 -0.46933,0.93867 -0.46933,2.048 v 4.39467 h 2.688 v 3.37067 h -9.472 v -3.37067 h 3.24266 v -25.25867 h -3.24266 v -3.37066 h 6.784 v 18.176 l -0.128,1.92 q 0.93866,-2.09067 2.73066,-3.2 1.792,-1.152 4.224,-1.28 2.51734,0 3.968,1.32266 1.45067,1.32267 1.536,3.456 v 8.23467 h 2.64534 v 3.37067 h -9.472 z"
       style="font-style:normal;font-variant:normal;font-weight:bold;font-stretch:normal;font-size:42.66666794px;font-family:'Josefin Slab';-inkscape-font-specification:'Josefin Slab Bold';fill:#ffffff"
       id="path3393" />
    <path
       d="m 391.4704,136.68132 h 3.54133 v 10.41067 h 4.18134 v 3.456 h -4.18134 v 9.17333 h 3.2 v 3.37067 h -6.74133 v -12.544 h -3.584 v -3.456 h 3.584 z"
       style="font-style:normal;font-variant:normal;font-weight:bold;font-stretch:normal;font-size:42.66666794px;font-family:'Josefin Slab';-inkscape-font-specification:'Josefin Slab Bold';fill:#ffffff"
       id="path3395" />
    <path
       d="m 414.50774,159.72132 h 3.28534 v -6.61333 q -0.0853,-1.152 -0.85334,-1.96267 -0.72533,-0.85333 -2.34666,-0.93867 -1.10934,0 -2.13334,0.384 -0.98133,0.384 -1.74933,1.06667 -0.768,0.68267 -1.23733,1.62133 -0.46934,0.93867 -0.46934,2.048 v 4.39467 h 2.688 v 3.37067 h -9.472 v -3.37067 h 3.24267 v -25.25867 h -3.24267 v -3.37066 h 6.784 v 18.176 l -0.128,1.92 q 0.93867,-2.09067 2.73067,-3.2 1.792,-1.152 4.224,-1.28 2.51733,0 3.968,1.32266 1.45067,1.32267 1.536,3.456 v 8.23467 h 2.64533 v 3.37067 h -9.472 z"
       style="font-style:normal;font-variant:normal;font-weight:bold;font-stretch:normal;font-size:42.66666794px;font-family:'Josefin Slab';-inkscape-font-specification:'Josefin Slab Bold';fill:#ffffff"
       id="path3397" />
    <path
       d="m 435.50308,150.16399 q -2.176,0 -3.54134,1.32266 -1.36533,1.28 -1.45066,3.24267 2.00533,-0.72533 3.968,-1.45067 2.00533,-0.768 4.01066,-1.49333 -0.59733,-0.72533 -1.36533,-1.152 -0.72533,-0.46933 -1.62133,-0.46933 z m 7.50933,3.62666 q -2.90133,1.06667 -5.80267,2.13334 -2.85866,1.06666 -5.76,2.13333 0.64,0.896 1.664,1.45067 1.06667,0.512 2.38934,0.512 1.96266,0 3.24266,-1.36534 l 2.176,2.56 q -1.06666,1.06667 -2.432,1.664 -1.36533,0.59734 -2.98666,0.59734 -1.792,0 -3.37067,-0.64 -1.536,-0.68267 -2.688,-1.83467 -1.152,-1.152 -1.83467,-2.64533 -0.64,-1.536 -0.64,-3.28534 0,-1.70666 0.64,-3.24266 0.68267,-1.536 1.83467,-2.64534 1.152,-1.152 2.688,-1.792 1.57867,-0.68266 3.37067,-0.68266 1.32266,0 2.51733,0.55466 1.23733,0.512 2.176,1.45067 0.98133,0.93867 1.70667,2.26133 0.72533,1.28 1.10933,2.816 z"
       style="font-style:normal;font-variant:normal;font-weight:bold;font-stretch:normal;font-size:42.66666794px;font-family:'Josefin Slab';-inkscape-font-specification:'Josefin Slab Bold';fill:#ffffff"
       id="path3399" />
    <path
       d="m 87.553056,213.05465 h 2.389334 v -23.12533 h -2.389334 v -3.37067 h 20.778664 v 6.57067 h -3.37066 v -3.2 H 93.483723 v 9.77067 h 13.183997 v 3.37066 H 93.483723 v 9.984 h 4.394667 v 3.37067 H 87.553056 Z"
       style="font-style:normal;font-variant:normal;font-weight:bold;font-stretch:normal;font-size:42.66666794px;font-family:'Josefin Slab';-inkscape-font-specification:'Josefin Slab Bold';fill:#ffffff"
       id="path3401" />
    <path
       d="m 111.30306,213.05465 h 2.98666 v -9.25866 h -2.98666 v -3.37067 h 6.528 v 12.62933 h 2.944 v 3.37067 h -9.472 z m 2.60266,-18.816 q 0,-0.98133 0.68267,-1.62133 0.68267,-0.64 1.536,-0.64 0.81067,0 1.49333,0.64 0.68267,0.64 0.68267,1.62133 0,0.98134 -0.68267,1.62134 -0.68266,0.59733 -1.49333,0.59733 -0.85333,0 -1.536,-0.59733 -0.68267,-0.64 -0.68267,-1.62134 z"
       style="font-style:normal;font-variant:normal;font-weight:bold;font-stretch:normal;font-size:42.66666794px;font-family:'Josefin Slab';-inkscape-font-specification:'Josefin Slab Bold';fill:#ffffff"
       id="path3403" />
    <path
       d="m 123.80306,213.05465 h 3.24266 v -25.25866 h -2.816 v -3.37067 h 6.35734 v 28.62933 h 2.688 v 3.37067 h -9.472 z"
       style="font-style:normal;font-variant:normal;font-weight:bold;font-stretch:normal;font-size:42.66666794px;font-family:'Josefin Slab';-inkscape-font-specification:'Josefin Slab Bold';fill:#ffffff"
       id="path3405" />
    <path
       d="m 144.83639,203.49732 q -2.176,0 -3.54133,1.32267 -1.36534,1.28 -1.45067,3.24266 2.00533,-0.72533 3.968,-1.45066 2.00533,-0.768 4.01067,-1.49334 -0.59734,-0.72533 -1.36534,-1.152 -0.72533,-0.46933 -1.62133,-0.46933 z m 7.50933,3.62667 q -2.90133,1.06666 -5.80266,2.13333 -2.85867,1.06667 -5.76,2.13333 0.64,0.896 1.664,1.45067 1.06666,0.512 2.38933,0.512 1.96267,0 3.24267,-1.36533 l 2.176,2.56 q -1.06667,1.06666 -2.432,1.664 -1.36534,0.59733 -2.98667,0.59733 -1.792,0 -3.37067,-0.64 -1.536,-0.68267 -2.688,-1.83467 -1.152,-1.152 -1.83466,-2.64533 -0.64,-1.536 -0.64,-3.28533 0,-1.70667 0.64,-3.24267 0.68266,-1.536 1.83466,-2.64533 1.152,-1.152 2.688,-1.792 1.57867,-0.68267 3.37067,-0.68267 1.32267,0 2.51733,0.55467 1.23734,0.512 2.176,1.45066 0.98134,0.93867 1.70667,2.26134 0.72533,1.28 1.10933,2.816 z"
       style="font-style:normal;font-variant:normal;font-weight:bold;font-stretch:normal;font-size:42.66666794px;font-family:'Josefin Slab';-inkscape-font-specification:'Josefin Slab Bold';fill:#ffffff"
       id="path3407" />
    <path
       d="m 269.96439,213.05465 h 3.24267 v -6.61333 q -0.0853,-1.152 -0.85334,-1.96267 -0.72533,-0.85333 -2.34666,-0.93866 -1.10934,0 -2.13334,0.384 -0.98133,0.384 -1.74933,1.06666 -0.768,0.68267 -1.23733,1.62134 -0.46934,0.93866 -0.46934,2.048 v 4.39466 h 2.688 v 3.37067 h -9.472 v -3.37067 h 3.24267 v -6.61333 q -0.0853,-1.152 -0.85333,-1.96267 -0.72534,-0.85333 -2.34667,-0.93866 -1.10933,0 -2.13333,0.384 -0.98134,0.384 -1.74934,1.06666 -0.768,0.68267 -1.23733,1.62134 -0.46933,0.93866 -0.46933,2.048 v 4.39466 h 2.688 v 3.37067 h -9.472 v -3.37067 h 3.24266 v -9.25866 h -2.816 v -3.37067 h 5.93067 v 0.384 q 0.0853,1.024 0.128,1.87733 0.0853,0.81067 0.17067,1.83467 0.896,-2.048 2.688,-3.2 1.83466,-1.19467 4.26666,-1.28 2.34667,0 3.75467,1.19467 1.45067,1.152 1.70667,3.072 0.93866,-1.96267 2.73066,-3.072 1.792,-1.10934 4.13867,-1.19467 2.51733,0 3.968,1.32267 1.45067,1.32266 1.536,3.456 v 8.23466 h 2.688 v 3.37067 h -9.472 z"
       style="font-style:normal;font-variant:normal;font-weight:bold;font-stretch:normal;font-size:42.66666794px;font-family:'Josefin Slab';-inkscape-font-specification:'Josefin Slab Bold';fill:#ffffff"
       id="path3409" />
    <path
       d="m 290.91973,203.49732 q -2.176,0 -3.54133,1.32267 -1.36533,1.28 -1.45067,3.24266 2.00534,-0.72533 3.968,-1.45066 2.00534,-0.768 4.01067,-1.49334 -0.59733,-0.72533 -1.36533,-1.152 -0.72534,-0.46933 -1.62134,-0.46933 z m 7.50934,3.62667 q -2.90134,1.06666 -5.80267,2.13333 -2.85867,1.06667 -5.76,2.13333 0.64,0.896 1.664,1.45067 1.06667,0.512 2.38933,0.512 1.96267,0 3.24267,-1.36533 l 2.176,2.56 q -1.06667,1.06666 -2.432,1.664 -1.36533,0.59733 -2.98667,0.59733 -1.792,0 -3.37066,-0.64 -1.536,-0.68267 -2.688,-1.83467 -1.152,-1.152 -1.83467,-2.64533 -0.64,-1.536 -0.64,-3.28533 0,-1.70667 0.64,-3.24267 0.68267,-1.536 1.83467,-2.64533 1.152,-1.152 2.688,-1.792 1.57866,-0.68267 3.37066,-0.68267 1.32267,0 2.51734,0.55467 1.23733,0.512 2.176,1.45066 0.98133,0.93867 1.70666,2.26134 0.72534,1.28 1.10934,2.816 z"
       style="font-style:normal;font-variant:normal;font-weight:bold;font-stretch:normal;font-size:42.66666794px;font-family:'Josefin Slab';-inkscape-font-specification:'Josefin Slab Bold';fill:#ffffff"
       id="path3411" />
    <path
       d="m 313.84107,213.05465 h 3.28534 v -6.61333 q -0.0853,-1.152 -0.85334,-1.96267 -0.72533,-0.85333 -2.34666,-0.93866 -1.10934,0 -2.13334,0.384 -0.98133,0.384 -1.74933,1.06666 -0.768,0.68267 -1.23733,1.62134 -0.46934,0.93866 -0.46934,2.048 v 4.39466 h 2.688 v 3.37067 h -9.472 v -3.37067 h 3.24267 v -9.25866 h -2.816 v -3.37067 h 5.93067 v 0.384 q 0.0853,1.024 0.128,1.87733 0.0853,0.81067 0.17066,1.83467 0.85334,-2.048 2.73067,-3.24267 1.92,-1.23733 4.224,-1.23733 2.51733,0 3.968,1.32267 1.45067,1.32266 1.536,3.456 v 8.23466 h 2.64533 v 3.37067 h -9.472 z"
       style="font-style:normal;font-variant:normal;font-weight:bold;font-stretch:normal;font-size:42.66666794px;font-family:'Josefin Slab';-inkscape-font-specification:'Josefin Slab Bold';fill:#ffffff"
       id="path3413" />
    <path
       d="m 326.30307,200.42532 h 6.35734 v 9.984 q 0.0853,1.152 0.81066,2.00533 0.768,0.81067 2.38934,0.896 1.10933,0 2.09066,-0.384 1.024,-0.384 1.792,-1.06666 0.768,-0.68267 1.23734,-1.62134 0.46933,-0.93866 0.46933,-2.048 v -4.39466 h -2.816 v -3.37067 h 6.35733 v 13.01333 h 2.64534 v 2.98667 h -6.18667 v -2.176 l 0.128,-1.92 q -0.85333,2.048 -2.77333,3.28533 -1.87734,1.19467 -4.18134,1.19467 -2.51733,0 -3.968,-1.32267 -1.45067,-1.32266 -1.536,-3.456 v -8.23466 h -2.816 z"
       style="font-style:normal;font-variant:normal;font-weight:bold;font-stretch:normal;font-size:42.66666794px;font-family:'Josefin Slab';-inkscape-font-specification:'Josefin Slab Bold';fill:#ffffff"
       id="path3415" />
    <path
       d="m 363.46974,208.40399 q 0,-1.70667 0.64,-3.24267 0.68267,-1.536 1.83467,-2.64533 1.152,-1.152 2.688,-1.792 1.57867,-0.68267 3.37067,-0.68267 1.792,0 3.37066,0.68267 1.57867,0.64 2.73067,1.792 1.152,1.10933 1.792,2.64533 0.68267,1.536 0.68267,3.24267 0,1.74933 -0.68267,3.28533 -0.64,1.49333 -1.792,2.64533 -1.152,1.152 -2.73067,1.83467 -1.57866,0.64 -3.37066,0.64 -1.792,0 -3.37067,-0.64 -1.536,-0.68267 -2.688,-1.83467 -1.152,-1.152 -1.83467,-2.64533 -0.64,-1.536 -0.64,-3.28533 z m 3.54134,0.0427 q 0,1.024 0.384,1.92 0.384,0.896 1.024,1.57867 0.68266,0.64 1.57866,1.024 0.896,0.384 1.92,0.384 1.024,0 1.92,-0.384 0.896,-0.384 1.57867,-1.024 0.68267,-0.68267 1.06667,-1.57867 0.384,-0.896 0.384,-1.92 0,-1.024 -0.384,-1.92 -0.384,-0.896 -1.06667,-1.57866 -0.68267,-0.68267 -1.57867,-1.06667 -0.896,-0.384 -1.92,-0.384 -1.024,0 -1.92,0.384 -0.896,0.384 -1.57866,1.06667 -0.64,0.68266 -1.024,1.57866 -0.384,0.896 -0.384,1.92 z"
       style="font-style:normal;font-variant:normal;font-weight:bold;font-stretch:normal;font-size:42.66666794px;font-family:'Josefin Slab';-inkscape-font-specification:'Josefin Slab Bold';fill:#ffffff"
       id="path3417" />
    <path
       d="m 383.55306,200.42532 h 9.472 v 3.37067 h -2.21867 q 1.10933,1.87733 2.13333,3.75466 1.024,1.87734 1.62134,3.75467 0.59733,-1.87733 1.57866,-3.75467 1.024,-1.87733 2.13334,-3.75466 h -2.56 v -3.37067 h 9.77066 v 3.37067 h -3.54133 q -1.83467,3.456 -3.712,6.82666 -1.83467,3.37067 -3.66933,6.784 -1.87734,-3.41333 -3.712,-6.784 -1.83467,-3.41333 -3.712,-6.82666 h -3.584 z"
       style="font-style:normal;font-variant:normal;font-weight:bold;font-stretch:normal;font-size:42.66666794px;font-family:'Josefin Slab';-inkscape-font-specification:'Josefin Slab Bold';fill:#ffffff"
       id="path3419" />
    <path
       d="m 417.00308,203.49732 q -2.176,0 -3.54134,1.32267 -1.36533,1.28 -1.45066,3.24266 2.00533,-0.72533 3.968,-1.45066 2.00533,-0.768 4.01066,-1.49334 -0.59733,-0.72533 -1.36533,-1.152 -0.72533,-0.46933 -1.62133,-0.46933 z m 7.50933,3.62667 q -2.90133,1.06666 -5.80267,2.13333 -2.85866,1.06667 -5.76,2.13333 0.64,0.896 1.664,1.45067 1.06667,0.512 2.38934,0.512 1.96266,0 3.24266,-1.36533 l 2.176,2.56 q -1.06666,1.06666 -2.432,1.664 -1.36533,0.59733 -2.98666,0.59733 -1.792,0 -3.37067,-0.64 -1.536,-0.68267 -2.688,-1.83467 -1.152,-1.152 -1.83467,-2.64533 -0.64,-1.536 -0.64,-3.28533 0,-1.70667 0.64,-3.24267 0.68267,-1.536 1.83467,-2.64533 1.152,-1.152 2.688,-1.792 1.57867,-0.68267 3.37067,-0.68267 1.32266,0 2.51733,0.55467 1.23733,0.512 2.176,1.45066 0.98133,0.93867 1.70667,2.26134 0.72533,1.28 1.10933,2.816 z"
       style="font-style:normal;font-variant:normal;font-weight:bold;font-stretch:normal;font-size:42.66666794px;font-family:'Josefin Slab';-inkscape-font-specification:'Josefin Slab Bold';fill:#ffffff"
       id="path3421" />
    <path
       d="m 427.6364,213.05465 h 3.24267 v -9.25866 h -2.816 v -3.37067 h 5.93066 v 0.384 q 0.0853,1.024 0.128,1.87733 0.0853,0.81067 0.17067,1.83467 0.512,-1.06667 1.28,-1.87733 0.81067,-0.85334 1.664,-1.408 0.896,-0.59734 1.70667,-0.896 0.85333,-0.29867 1.49333,-0.29867 l -0.256,3.49867 q -2.60267,0 -4.18133,1.45066 -1.57867,1.45067 -1.57867,3.66934 v 4.39466 h 2.688 v 3.37067 h -9.472 z"
       style="font-style:normal;font-variant:normal;font-weight:bold;font-stretch:normal;font-size:42.66666794px;font-family:'Josefin Slab';-inkscape-font-specification:'Josefin Slab Bold';fill:#ffffff"
       id="path3423" />
    <path
       d="m 459.80374,190.01465 h 3.54134 v 10.41067 h 4.18133 v 3.456 h -4.18133 v 9.17333 h 3.2 v 3.37067 h -6.74134 v -12.544 h -3.584 v -3.456 h 3.584 z"
       style="font-style:normal;font-variant:normal;font-weight:bold;font-stretch:normal;font-size:42.66666794px;font-family:'Josefin Slab';-inkscape-font-specification:'Josefin Slab Bold';fill:#ffffff"
       id="path3425" />
    <path
       d="m 482.84106,213.05465 h 3.28533 v -6.61333 q -0.0853,-1.152 -0.85333,-1.96267 -0.72534,-0.85333 -2.34667,-0.93866 -1.10933,0 -2.13333,0.384 -0.98134,0.384 -1.74934,1.06666 -0.768,0.68267 -1.23733,1.62134 -0.46933,0.93866 -0.46933,2.048 v 4.39466 h 2.688 v 3.37067 h -9.472 v -3.37067 h 3.24266 v -25.25866 h -3.24266 v -3.37067 h 6.784 v 18.176 l -0.128,1.92 q 0.93866,-2.09067 2.73066,-3.2 1.792,-1.152 4.224,-1.28 2.51734,0 3.968,1.32267 1.45067,1.32266 1.536,3.456 v 8.23466 h 2.64534 v 3.37067 h -9.472 z"
       style="font-style:normal;font-variant:normal;font-weight:bold;font-stretch:normal;font-size:42.66666794px;font-family:'Josefin Slab';-inkscape-font-specification:'Josefin Slab Bold';fill:#ffffff"
       id="path3427" />
    <path
       d="m 503.83639,203.49732 q -2.176,0 -3.54133,1.32267 -1.36534,1.28 -1.45067,3.24266 2.00533,-0.72533 3.968,-1.45066 2.00533,-0.768 4.01067,-1.49334 -0.59734,-0.72533 -1.36534,-1.152 -0.72533,-0.46933 -1.62133,-0.46933 z m 7.50933,3.62667 q -2.90133,1.06666 -5.80266,2.13333 -2.85867,1.06667 -5.76,2.13333 0.64,0.896 1.664,1.45067 1.06666,0.512 2.38933,0.512 1.96267,0 3.24267,-1.36533 l 2.176,2.56 q -1.06667,1.06666 -2.432,1.664 -1.36534,0.59733 -2.98667,0.59733 -1.792,0 -3.37067,-0.64 -1.536,-0.68267 -2.688,-1.83467 -1.152,-1.152 -1.83466,-2.64533 -0.64,-1.536 -0.64,-3.28533 0,-1.70667 0.64,-3.24267 0.68266,-1.536 1.83466,-2.64533 1.152,-1.152 2.688,-1.792 1.57867,-0.68267 3.37067,-0.68267 1.32267,0 2.51733,0.55467 1.23734,0.512 2.176,1.45066 0.98134,0.93867 1.70667,2.26134 0.72533,1.28 1.10933,2.816 z"
       style="font-style:normal;font-variant:normal;font-weight:bold;font-stretch:normal;font-size:42.66666794px;font-family:'Josefin Slab';-inkscape-font-specification:'Josefin Slab Bold';fill:#ffffff"
       id="path3429" />
    <path
       d="m 514.46974,213.05465 h 3.24267 v -9.25866 h -2.816 v -3.37067 h 5.93067 v 0.384 q 0.0853,1.024 0.128,1.87733 0.0853,0.81067 0.17066,1.83467 0.512,-1.06667 1.28,-1.87733 0.81067,-0.85334 1.664,-1.408 0.896,-0.59734 1.70667,-0.896 0.85333,-0.29867 1.49333,-0.29867 l -0.256,3.49867 q -2.60266,0 -4.18133,1.45066 -1.57867,1.45067 -1.57867,3.66934 v 4.39466 h 2.688 v 3.37067 h -9.472 z"
       style="font-style:normal;font-variant:normal;font-weight:bold;font-stretch:normal;font-size:42.66666794px;font-family:'Josefin Slab';-inkscape-font-specification:'Josefin Slab Bold';fill:#ffffff"
       id="path3431" />
    <path
       d="m 538.75308,203.49732 q -2.176,0 -3.54134,1.32267 -1.36533,1.28 -1.45066,3.24266 2.00533,-0.72533 3.968,-1.45066 2.00533,-0.768 4.01066,-1.49334 -0.59733,-0.72533 -1.36533,-1.152 -0.72533,-0.46933 -1.62133,-0.46933 z m 7.50933,3.62667 q -2.90133,1.06666 -5.80267,2.13333 -2.85866,1.06667 -5.76,2.13333 0.64,0.896 1.664,1.45067 1.06667,0.512 2.38934,0.512 1.96266,0 3.24266,-1.36533 l 2.176,2.56 q -1.06666,1.06666 -2.432,1.664 -1.36533,0.59733 -2.98666,0.59733 -1.792,0 -3.37067,-0.64 -1.536,-0.68267 -2.688,-1.83467 -1.152,-1.152 -1.83467,-2.64533 -0.64,-1.536 -0.64,-3.28533 0,-1.70667 0.64,-3.24267 0.68267,-1.536 1.83467,-2.64533 1.152,-1.152 2.688,-1.792 1.57867,-0.68267 3.37067,-0.68267 1.32266,0 2.51733,0.55467 1.23733,0.512 2.176,1.45066 0.98133,0.93867 1.70667,2.26134 0.72533,1.28 1.10933,2.816 z"
       style="font-style:normal;font-variant:normal;font-weight:bold;font-stretch:normal;font-size:42.66666794px;font-family:'Josefin Slab';-inkscape-font-specification:'Josefin Slab Bold';fill:#ffffff"
       id="path3433" />
  </g>
  <path
     style="fill:#ffffff;stroke-width:1"
     id="path1926"
     d="m 179.09692,202.47923 c 13.4272,0 26.3552,0 39.6032,0 0,-9.2544 0,-18.3552 0,-27.6224 1.6256,0 2.9184,0 4.3264,0 2.5088,2.56 5.12,5.2224 7.9616,8.128 0,18.2784 0,36.9536 0,55.8208 -21.3632,0 -42.5984,0 -64,0 0,-21.2864 0,-42.4576 0,-63.872 3.904,0 7.8336,0 12.1088,0 0,9.024 0,18.1248 0,27.5456 z"
     class="st0"
     inkscape:connector-curvature="0" />
  <path
     style="fill:#ffffff;stroke-width:1"
     id="path1928"
     d="m 215.00092,174.85683 c 0,8.0384 0,15.8976 0,23.9744 -10.6496,0 -21.2352,0 -32.0128,0 0,-7.9616 0,-15.8848 0,-23.9744 10.6368,0 21.1584,0 32.0128,0 z m -11.6224,4.3904 c 0,5.2736 0,10.1888 0,15.1424 2.5344,0 4.864,0 7.168,0 0,-5.184 0,-10.0992 0,-15.1424 -2.4704,0 -4.736,0 -7.168,0 z"
     class="st0"
     inkscape:connector-curvature="0" />
  <path
     style="fill:#e7298a;stroke-width:1"
     d="m 1.5939562,63.619759 c -1.08827797,-0.60192 -1.82506697,-2.10371 -1.52759797,-3.11368 0.120774,-0.41005 3.20720997,-3.75005 6.85874297,-7.42221 l 6.6391528,-6.67667 -1.42047,-2.35517 C 6.5667402,34.805159 7.9756772,23.255539 15.612343,15.618869 23.24901,7.9821993 34.798636,6.5732693 44.045499,12.150309 l 2.355176,1.42047 6.676665,-6.6391497 c 3.672167,-3.65154 7.012163,-6.73796999 7.422213,-6.85873999 1.707173,-0.50283 3.929811,1.70044999 3.428493,3.39861999 -0.12473,0.42252 -3.214402,3.77272 -6.865937,7.4448897 l -6.639152,6.67667 1.42047,2.35517 c 5.577044,9.24687 4.168107,20.79649 -3.468559,28.43315 -7.636666,7.63667 -19.186292,9.04561 -28.43316,3.46856 l -2.355171,-1.42047 -6.676666,6.65357 c -3.9850248,3.97125 -7.0285948,6.72961 -7.5496338,6.84219 -0.480134,0.10373 -1.274961,-0.0337 -1.766281,-0.30548 z M 35.55559,49.073619 c 6.700806,-1.39736 12.245196,-7.06212 13.567545,-13.86209 0.757363,-3.89462 -0.0091,-8.42546 -2.012643,-11.89838 l -0.881901,-1.52863 -12.184445,12.17885 c -13.529086,13.52288 -12.715413,12.3217 -9.383477,13.8523 3.374709,1.55026 7.312803,2.00496 10.894921,1.25795 z m 5.957106,-31.69115 c -1.05272,-0.81429 -4.02347,-2.03461 -5.957106,-2.44703 -11.198972,-2.38863 -21.882291,7.00297 -20.92247,18.39273 0.226955,2.69317 0.983598,5.17494 2.243599,7.35894 l 0.881901,1.52863 12.184446,-12.17885 c 11.072855,-11.06777 12.128354,-12.22224 11.56963,-12.65442 z"
     id="path4658"
     inkscape:connector-curvature="0" />
</svg>
