<?xml version="1.0" encoding="UTF-8" standalone="no"?>
<!-- Created with Inkscape (http://www.inkscape.org/) -->

<svg
   xmlns:dc="http://purl.org/dc/elements/1.1/"
   xmlns:cc="http://creativecommons.org/ns#"
   xmlns:rdf="http://www.w3.org/1999/02/22-rdf-syntax-ns#"
   xmlns:svg="http://www.w3.org/2000/svg"
   xmlns="http://www.w3.org/2000/svg"
   xmlns:sodipodi="http://sodipodi.sourceforge.net/DTD/sodipodi-0.dtd"
   xmlns:inkscape="http://www.inkscape.org/namespaces/inkscape"
   width="596.82898"
   height="238.80563"
   version="1.1"
   id="svg8"
   sodipodi:docname="noDataEmptyState.svg"
   inkscape:version="0.92.3 (2405546, 2018-03-11)">
  <metadata
     id="metadata823">
    <rdf:RDF>
      <cc:Work
         rdf:about="">
        <dc:format>image/svg+xml</dc:format>
        <dc:type
           rdf:resource="http://purl.org/dc/dcmitype/StillImage" />
        <dc:title></dc:title>
      </cc:Work>
    </rdf:RDF>
  </metadata>
  <defs
     id="defs821" />
  <sodipodi:namedview
     pagecolor="#ffffff"
     bordercolor="#666666"
     borderopacity="1"
     objecttolerance="10"
     gridtolerance="10"
     guidetolerance="10"
     inkscape:pageopacity="0"
     inkscape:pageshadow="2"
     inkscape:window-width="1920"
     inkscape:window-height="1080"
     id="namedview819"
     showgrid="false"
     inkscape:pagecheckerboard="true"
     inkscape:zoom="1"
     inkscape:cx="147.54958"
     inkscape:cy="141.33315"
     inkscape:window-x="1920"
     inkscape:window-y="0"
     inkscape:window-maximized="1"
     inkscape:current-layer="svg8"
     fit-margin-top="0"
     fit-margin-left="0"
     fit-margin-right="0"
     fit-margin-bottom="0"
     inkscape:snap-global="true" />
  <path
     inkscape:connector-curvature="0"
     id="path1589"
     d="m 590.3693,198.45119 6.45967,6.45994 -6.47658,6.47657 -6.47657,6.47658 v -4.3121 -4.31209 H 573.0532 562.23058 v -4.32905 -4.32905 h 10.82212 10.82212 l 0.0174,-4.29537 0.0174,-4.29537 z"
     style="fill:#ffffff;stroke-width:1" />
  <text
     id="text1857"
     y="56.098526"
     x="81.988503"
     style="font-style:normal;font-variant:normal;font-weight:normal;font-stretch:normal;font-size:16px;line-height:1.25;font-family:'Noto Sans';-inkscape-font-specification:'Noto Sans, Normal';font-variant-ligatures:normal;font-variant-caps:normal;font-variant-numeric:normal;font-feature-settings:normal;text-align:start;letter-spacing:0px;word-spacing:0px;writing-mode:lr-tb;text-anchor:start;fill:#e7298a;fill-opacity:1;stroke:none"
     xml:space="preserve"><tspan
       style="font-style:normal;font-variant:normal;font-weight:600;font-stretch:normal;font-size:64px;font-family:'josefin sans';-inkscape-font-specification:'josefin sans Semi-Bold';fill:#e7298a"
       y="56.098526"
       x="81.988503"
       id="tspan1855"
       sodipodi:role="line">No data yet...</tspan></text>
  <text
     xml:space="preserve"
     style="font-style:normal;font-variant:normal;font-weight:normal;font-stretch:normal;font-size:16px;line-height:1.25;font-family:'Noto Sans';-inkscape-font-specification:'Noto Sans, Normal';font-variant-ligatures:normal;font-variant-caps:normal;font-variant-numeric:normal;font-feature-settings:normal;text-align:start;letter-spacing:0px;word-spacing:0px;writing-mode:lr-tb;text-anchor:start;fill:#ffffff;fill-opacity:1;stroke:none"
     x="86.059723"
     y="109.75865"
     id="text1861"><tspan
       sodipodi:role="line"
       x="86.059723"
       y="109.75865"
       id="tspan1863"
       style="font-style:normal;font-variant:normal;font-weight:bold;font-stretch:normal;font-size:42.66666794px;font-family:'Josefin Slab';-inkscape-font-specification:'Josefin Slab Bold';fill:#ffffff">Try creating or uploading</tspan><tspan
       sodipodi:role="line"
       x="86.059723"
       y="163.09198"
       id="tspan1867"
       style="font-style:normal;font-variant:normal;font-weight:bold;font-stretch:normal;font-size:42.66666794px;font-family:'Josefin Slab';-inkscape-font-specification:'Josefin Slab Bold';fill:#ffffff">some data with the</tspan><tspan
       sodipodi:role="line"
       x="86.059723"
       y="216.42532"
       id="tspan1869"
       style="font-style:normal;font-variant:normal;font-weight:bold;font-stretch:normal;font-size:42.66666794px;font-family:'Josefin Slab';-inkscape-font-specification:'Josefin Slab Bold';fill:#ffffff">File       menu over there</tspan></text>
  <path
     style="fill:#ffffff;stroke-width:1"
     id="path1926"
     d="m 179.09692,202.47923 c 13.4272,0 26.3552,0 39.6032,0 0,-9.2544 0,-18.3552 0,-27.6224 1.6256,0 2.9184,0 4.3264,0 2.5088,2.56 5.12,5.2224 7.9616,8.128 0,18.2784 0,36.9536 0,55.8208 -21.3632,0 -42.5984,0 -64,0 0,-21.2864 0,-42.4576 0,-63.872 3.904,0 7.8336,0 12.1088,0 0,9.024 0,18.1248 0,27.5456 z"
     class="st0"
     inkscape:connector-curvature="0" />
  <path
     style="fill:#ffffff;stroke-width:1"
     id="path1928"
     d="m 215.00092,174.85683 c 0,8.0384 0,15.8976 0,23.9744 -10.6496,0 -21.2352,0 -32.0128,0 0,-7.9616 0,-15.8848 0,-23.9744 10.6368,0 21.1584,0 32.0128,0 z m -11.6224,4.3904 c 0,5.2736 0,10.1888 0,15.1424 2.5344,0 4.864,0 7.168,0 0,-5.184 0,-10.0992 0,-15.1424 -2.4704,0 -4.736,0 -7.168,0 z"
     class="st0"
     inkscape:connector-curvature="0" />
  <path
     style="fill:#e7298a;stroke-width:1"
     d="m 1.5939562,63.619759 c -1.08827797,-0.60192 -1.82506697,-2.10371 -1.52759797,-3.11368 0.120774,-0.41005 3.20720997,-3.75005 6.85874297,-7.42221 l 6.6391528,-6.67667 -1.42047,-2.35517 C 6.5667402,34.805159 7.9756772,23.255539 15.612343,15.618869 23.24901,7.9821993 34.798636,6.5732693 44.045499,12.150309 l 2.355176,1.42047 6.676665,-6.6391497 c 3.672167,-3.65154 7.012163,-6.73796999 7.422213,-6.85873999 1.707173,-0.50283 3.929811,1.70044999 3.428493,3.39861999 -0.12473,0.42252 -3.214402,3.77272 -6.865937,7.4448897 l -6.639152,6.67667 1.42047,2.35517 c 5.577044,9.24687 4.168107,20.79649 -3.468559,28.43315 -7.636666,7.63667 -19.186292,9.04561 -28.43316,3.46856 l -2.355171,-1.42047 -6.676666,6.65357 c -3.9850248,3.97125 -7.0285948,6.72961 -7.5496338,6.84219 -0.480134,0.10373 -1.274961,-0.0337 -1.766281,-0.30548 z M 35.55559,49.073619 c 6.700806,-1.39736 12.245196,-7.06212 13.567545,-13.86209 0.757363,-3.89462 -0.0091,-8.42546 -2.012643,-11.89838 l -0.881901,-1.52863 -12.184445,12.17885 c -13.529086,13.52288 -12.715413,12.3217 -9.383477,13.8523 3.374709,1.55026 7.312803,2.00496 10.894921,1.25795 z m 5.957106,-31.69115 c -1.05272,-0.81429 -4.02347,-2.03461 -5.957106,-2.44703 -11.198972,-2.38863 -21.882291,7.00297 -20.92247,18.39273 0.226955,2.69317 0.983598,5.17494 2.243599,7.35894 l 0.881901,1.52863 12.184446,-12.17885 c 11.072855,-11.06777 12.128354,-12.22224 11.56963,-12.65442 z"
     id="path4658"
     inkscape:connector-curvature="0" />
</svg>
