<?xml version="1.0" encoding="UTF-8" standalone="no"?>
<!-- Generator: Adobe Illustrator 19.2.1, SVG Export Plug-In . SVG Version: 6.00 Build 0)  -->

<svg
   xmlns:dc="http://purl.org/dc/elements/1.1/"
   xmlns:cc="http://creativecommons.org/ns#"
   xmlns:rdf="http://www.w3.org/1999/02/22-rdf-syntax-ns#"
   xmlns:svg="http://www.w3.org/2000/svg"
   xmlns="http://www.w3.org/2000/svg"
   xmlns:sodipodi="http://sodipodi.sourceforge.net/DTD/sodipodi-0.dtd"
   xmlns:inkscape="http://www.inkscape.org/namespaces/inkscape"
   version="1.1"
   id="Layer_1"
   x="0px"
   y="0px"
   viewBox="0 0 512 512"
   style="enable-background:new 0 0 512 512;"
   xml:space="preserve"
   sodipodi:docname="root.svg"
   inkscape:version="0.92.3 (2405546, 2018-03-11)"><metadata
     id="metadata4582"><rdf:RDF><cc:Work
         rdf:about=""><dc:format>image/svg+xml</dc:format><dc:type
           rdf:resource="http://purl.org/dc/dcmitype/StillImage" /><dc:title /></cc:Work></rdf:RDF></metadata><defs
     id="defs4580" /><sodipodi:namedview
     pagecolor="#ffffff"
     bordercolor="#666666"
     borderopacity="1"
     objecttolerance="10"
     gridtolerance="10"
     guidetolerance="10"
     inkscape:pageopacity="0"
     inkscape:pageshadow="2"
     inkscape:window-width="958"
     inkscape:window-height="1049"
     id="namedview4578"
     showgrid="false"
     inkscape:pagecheckerboard="true"
     inkscape:zoom="0.8984375"
     inkscape:cx="41.182609"
     inkscape:cy="256"
     inkscape:window-x="960"
     inkscape:window-y="0"
     inkscape:window-maximized="0"
     inkscape:current-layer="Layer_1" /><style
     type="text/css"
     id="style4569">
	.st0{fill:#ffffff;}
</style><g
     transform="translate(0.04743596,-0.03694158)"
     id="g10"
     style="fill:#ffffff"><path
       inkscape:connector-curvature="0"
       class="st0"
       d="m 11.7,17.3 c -8.1,2 -8.8,3 -8.8,12.3 0,112 0,224.2 0,336 0,42.5 0,85 0.1,127.4 0,4.2 2.7,12.4 9.2,12.4 31.2,0 83.5,0.5 109.4,0.5 10.3,0 9.5,-9.6 9.5,-13.8 0.1,-154.1 0.1,-308 0.1,-462 0,-0.3 0,-0.7 0,-0.9 -0.4,-10 -1.9,-11.6 -11.8,-11.8 -35.7,-0.1 -71.6,0 -107.4,0 m 92.5,99.5 H 28.6 V 70.8 h 75.9 z m 0,259.9 H 28.6 v -46.1 h 75.9 z m -0.8,73.6 H 29.3 v -46.1 h 74.4 z"
       id="path4"
       style="fill:#ffffff" /><path
       inkscape:connector-curvature="0"
       class="st0"
       d="m 179.7,17.3 c -8.1,2 -8.8,3 -8.8,12.3 0,112 0,224.2 0,336 0,42.5 0,85 0.1,127.4 0,4.2 2.7,12.4 9.2,12.4 31.2,0 83.5,0.5 109.4,0.5 10.3,0 9.5,-9.6 9.5,-13.8 0.1,-154.1 0.1,-308 0.1,-462 0,-0.3 0,-0.7 0,-0.9 -0.4,-10 -1.9,-11.6 -11.8,-11.8 -35.7,-0.1 -71.6,0 -107.4,0 m 92.5,99.5 H 196.6 V 70.8 h 75.9 z m 0,259.9 h -75.9 v -46.1 h 75.9 z m -0.8,73.6 h -74.4 v -46.1 h 74.4 z"
       id="path6"
       style="fill:#ffffff" /><path
       inkscape:connector-curvature="0"
       class="st0"
       d="m 306.7,25.5 c -7.6,3.4 -8.1,4.6 -6.5,13.7 19.8,110.2 39.6,220.6 59.4,330.7 7.6,41.9 15,83.6 22.7,125.4 0.7,4.1 4.9,11.8 11.2,10.6 30.8,-5.5 82.2,-14.2 107.8,-18.8 10,-1.8 7.7,-11.2 6.9,-15.3 -27.1,-151.6 -54.4,-303.2 -81.6,-454.7 0,-0.3 -0.1,-0.7 -0.1,-0.9 C 424.3,6.5 422.6,5 412.8,6.6 377.6,12.8 342.5,19.2 307,25.5 m 108.8,81.7 -74.7,13.4 -8.1,-45.5 74.7,-13.4 z m 46,255.8 -74.7,13.4 -8.1,-45.4 74.7,-13.4 z m 12.1,72.5 -73.3,13.1 -8.1,-45.5 73.3,-13.1 z"
       id="path8"
       style="fill:#ffffff" /></g></svg>