<?xml version="1.0" encoding="UTF-8" standalone="no"?>
<!-- Generator: Adobe Illustrator 19.2.1, SVG Export Plug-In . SVG Version: 6.00 Build 0)  -->

<svg
   xmlns:dc="http://purl.org/dc/elements/1.1/"
   xmlns:cc="http://creativecommons.org/ns#"
   xmlns:rdf="http://www.w3.org/1999/02/22-rdf-syntax-ns#"
   xmlns:svg="http://www.w3.org/2000/svg"
   xmlns="http://www.w3.org/2000/svg"
   xmlns:sodipodi="http://sodipodi.sourceforge.net/DTD/sodipodi-0.dtd"
   xmlns:inkscape="http://www.inkscape.org/namespaces/inkscape"
   version="1.1"
   id="Layer_1"
   x="0px"
   y="0px"
   viewBox="0 0 512 512"
   style="enable-background:new 0 0 512 512;"
   xml:space="preserve"
   sodipodi:docname="sync.svg"
   inkscape:version="0.92.2 (5c3e80d, 2017-08-06)"><metadata
     id="metadata29"><rdf:RDF><cc:Work
         rdf:about=""><dc:format>image/svg+xml</dc:format><dc:type
           rdf:resource="http://purl.org/dc/dcmitype/StillImage" /><dc:title></dc:title></cc:Work></rdf:RDF></metadata><defs
     id="defs27" /><sodipodi:namedview
     pagecolor="#ffffff"
     bordercolor="#666666"
     borderopacity="1"
     objecttolerance="10"
     gridtolerance="10"
     guidetolerance="10"
     inkscape:pageopacity="0"
     inkscape:pageshadow="2"
     inkscape:window-width="958"
     inkscape:window-height="1010"
     id="namedview25"
     showgrid="false"
     inkscape:pagecheckerboard="true"
     inkscape:zoom="0.4609375"
     inkscape:cx="256"
     inkscape:cy="251.66102"
     inkscape:window-x="0"
     inkscape:window-y="0"
     inkscape:window-maximized="0"
     inkscape:current-layer="Layer_1" /><style
     type="text/css"
     id="style2">
	.st0{fill:#ffffff;}
</style><path
     inkscape:connector-curvature="0"
     id="path44"
     d="m 237.8069,505.60236 c -26.6249,-2.0149 -54.72536,-9.18584 -80.47084,-20.53528 -23.08358,-10.17599 -50.23733,-28.0428 -69.059945,-45.44053 -4.06187,-3.75439 -8.09635,-6.82615 -8.96551,-6.82615 -0.86917,0 -17.634167,16.2557 -37.255555,36.12377 L 6.3798135,505.04794 6.0764325,406.95575 c -0.166851,-53.95071 -0.05134,-98.75299 0.256825,-99.56064 0.441991,-1.15858 21.2851715,-1.46845 98.7753925,-1.46845 85.20288,0 98.16488,0.22576 97.83537,1.70394 -0.20889,0.93716 -15.44608,16.30263 -33.86039,34.14547 -18.41431,17.84284 -33.63732,33.12601 -33.8289,33.96257 -0.44533,1.94466 10.4813,11.3904 23.07515,19.94778 20.74924,14.09887 43.53396,23.41734 68.1034,27.85282 11.73051,2.1177 16.62294,2.38552 33.694,1.84447 27.85386,-0.88279 44.65435,-4.84865 68.62245,-16.19877 39.80426,-18.84932 69.91976,-51.34624 86.4377,-93.27284 l 3.70257,-9.39806 40.36941,-0.30937 c 22.20319,-0.17015 40.79164,0.11289 41.30767,0.62888 1.13849,1.1385 -3.31335,18.12332 -8.53781,32.57368 -4.62496,12.79221 -18.60745,40.60476 -25.69098,51.10192 -20.74661,30.74462 -48.44428,57.96583 -78.16252,76.81793 -22.00882,13.96154 -51.62105,26.49309 -76.65049,32.43756 -21.61448,5.13343 -51.62334,7.50982 -73.71838,5.83772 z M 11.882068,205.05584 c -1.267057,-0.80345 -1.203985,-2.33816 0.349279,-8.499 C 18.747124,170.7128 32.092079,139.89777 45.732674,119.19843 85.655275,58.616699 147.93346,18.752878 219.59817,7.9083568 c 17.97705,-2.720337 57.60998,-2.720983 75.18444,-0.0012 17.46572,2.7029402 38.53605,8.0283942 52.74513,13.3311642 25.29974,9.441744 53.39103,25.88593 72.21583,42.273988 14.72431,12.818343 12.77742,12.354056 20.48391,4.88485 25.15121,-24.376838 64.09962,-60.8587462 64.97332,-60.8587462 0.61272,0 0.92605,41.2936882 0.75101,98.9732572 l -0.30036,98.97327 h -97.9943 c -70.41273,0 -98.11591,-0.36487 -98.42641,-1.29635 -0.23766,-0.71299 14.93671,-17.33044 33.72081,-36.92767 18.7841,-19.59723 34.00075,-36.24902 33.81479,-37.00396 -0.5704,-2.31548 -13.86226,-13.32859 -25.00803,-20.72063 -66.99388,-44.431392 -151.49816,-37.05722 -209.38383,18.27164 -21.24846,20.30993 -36.48675,43.26555 -46.339505,69.80781 -1.36675,3.68193 -3.06724,7.08279 -3.77885,7.55748 -1.8005,1.20107 -78.471421,1.08904 -80.374057,-0.11747 z"
     style="fill:#ffffff;stroke-width:1" /></svg>