<?xml version="1.0" encoding="UTF-8" standalone="no"?>
<!-- Generator: Adobe Illustrator 19.2.1, SVG Export Plug-In . SVG Version: 6.00 Build 0)  -->

<svg
   xmlns:dc="http://purl.org/dc/elements/1.1/"
   xmlns:cc="http://creativecommons.org/ns#"
   xmlns:rdf="http://www.w3.org/1999/02/22-rdf-syntax-ns#"
   xmlns:svg="http://www.w3.org/2000/svg"
   xmlns="http://www.w3.org/2000/svg"
   xmlns:sodipodi="http://sodipodi.sourceforge.net/DTD/sodipodi-0.dtd"
   xmlns:inkscape="http://www.inkscape.org/namespaces/inkscape"
   version="1.1"
   id="Layer_1"
   x="0px"
   y="0px"
   viewBox="0 0 512 512"
   style="enable-background:new 0 0 512 512;"
   xml:space="preserve"
   sodipodi:docname="table.svg"
   inkscape:version="0.92.2 (5c3e80d, 2017-08-06)"><metadata
     id="metadata4385"><rdf:RDF><cc:Work
         rdf:about=""><dc:format>image/svg+xml</dc:format><dc:type
           rdf:resource="http://purl.org/dc/dcmitype/StillImage" /><dc:title></dc:title></cc:Work></rdf:RDF></metadata><defs
     id="defs4383" /><sodipodi:namedview
     pagecolor="#ffffff"
     bordercolor="#666666"
     borderopacity="1"
     objecttolerance="10"
     gridtolerance="10"
     guidetolerance="10"
     inkscape:pageopacity="0"
     inkscape:pageshadow="2"
     inkscape:window-width="958"
     inkscape:window-height="1010"
     id="namedview4381"
     showgrid="false"
     inkscape:pagecheckerboard="true"
     inkscape:zoom="0.921875"
     inkscape:cx="276.72373"
     inkscape:cy="192.25225"
     inkscape:window-x="0"
     inkscape:window-y="0"
     inkscape:window-maximized="0"
     inkscape:current-layer="Layer_1" /><style
     type="text/css"
     id="style4376">
	.st0{fill:#ffffff;}
</style><path
     style="fill:#ffffff;stroke-width:1"
     d="M 6,7.908397 C 6,173.93893 6,339.96946 6,506 c 166.66667,0 333.33333,0 500,0 0,-166.66667 0,-333.33333 0,-500 C 339.33333,6 172.66667,6 6,6 v 0.954199 z m 149.80916,50.572519 c 0,32.442744 0,64.885494 0,97.328244 -32.76081,0 -65.521629,0 -98.282443,0 0,-32.44275 0,-64.8855 0,-97.328244 32.760814,0 65.521633,0 98.282443,0 z m 148.85496,0 c 0,32.442744 0,64.885494 0,97.328244 -32.44275,0 -64.88549,0 -97.32824,0 0,-32.44275 0,-64.8855 0,-97.328244 32.44275,0 64.88549,0 97.32824,0 z m 149.80916,0 c 0,32.442744 0,64.885494 0,97.328244 -32.76081,0 -65.52163,0 -98.28244,0 0,-32.44275 0,-64.8855 0,-97.328244 32.76081,0 65.52163,0 98.28244,0 z M 155.80916,207.33588 c 0,32.44275 0,64.88549 0,97.32824 -32.76081,0 -65.521629,0 -98.282443,0 0,-32.44275 0,-64.88549 0,-97.32824 32.760814,0 65.521633,0 98.282443,0 z m 148.85496,0 c 0,32.44275 0,64.88549 0,97.32824 -32.44275,0 -64.88549,0 -97.32824,0 0,-32.44275 0,-64.88549 0,-97.32824 32.44275,0 64.88549,0 97.32824,0 z m 149.80916,0 c 0,32.44275 0,64.88549 0,97.32824 -32.76081,0 -65.52163,0 -98.28244,0 0,-32.44275 0,-64.88549 0,-97.32824 32.76081,0 65.52163,0 98.28244,0 z M 155.80916,356.19084 c 0,32.76081 0,65.52163 0,98.28244 -32.76081,0 -65.521629,0 -98.282443,0 0,-32.76081 0,-65.52163 0,-98.28244 32.760814,0 65.521633,0 98.282443,0 z m 148.85496,0 c 0,32.76081 0,65.52163 0,98.28244 -32.44275,0 -64.88549,0 -97.32824,0 0,-32.76081 0,-65.52163 0,-98.28244 32.44275,0 64.88549,0 97.32824,0 z m 149.80916,0 c 0,32.76081 0,65.52163 0,98.28244 -32.76081,0 -65.52163,0 -98.28244,0 0,-32.76081 0,-65.52163 0,-98.28244 32.76081,0 65.52163,0 98.28244,0 z"
     id="path4378"
     inkscape:connector-curvature="0" /></svg>