<?xml version="1.0" encoding="UTF-8" standalone="no"?>
<!-- Generator: Adobe Illustrator 19.2.1, SVG Export Plug-In . SVG Version: 6.00 Build 0)  -->

<svg
   xmlns:dc="http://purl.org/dc/elements/1.1/"
   xmlns:cc="http://creativecommons.org/ns#"
   xmlns:rdf="http://www.w3.org/1999/02/22-rdf-syntax-ns#"
   xmlns:svg="http://www.w3.org/2000/svg"
   xmlns="http://www.w3.org/2000/svg"
   xmlns:sodipodi="http://sodipodi.sourceforge.net/DTD/sodipodi-0.dtd"
   xmlns:inkscape="http://www.inkscape.org/namespaces/inkscape"
   version="1.1"
   id="Layer_1"
   x="0px"
   y="0px"
   viewBox="0 0 512 512"
   style="enable-background:new 0 0 512 512;"
   xml:space="preserve"
   sodipodi:docname="tag.svg"
   inkscape:version="0.92.3 (2405546, 2018-03-11)"><metadata
     id="metadata4582"><rdf:RDF><cc:Work
         rdf:about=""><dc:format>image/svg+xml</dc:format><dc:type
           rdf:resource="http://purl.org/dc/dcmitype/StillImage" /><dc:title /></cc:Work></rdf:RDF></metadata><defs
     id="defs4580" /><sodipodi:namedview
     pagecolor="#ffffff"
     bordercolor="#666666"
     borderopacity="1"
     objecttolerance="10"
     gridtolerance="10"
     guidetolerance="10"
     inkscape:pageopacity="0"
     inkscape:pageshadow="2"
     inkscape:window-width="958"
     inkscape:window-height="1049"
     id="namedview4578"
     showgrid="false"
     inkscape:pagecheckerboard="true"
     inkscape:zoom="0.31764562"
     inkscape:cx="-146.52936"
     inkscape:cy="114.84489"
     inkscape:window-x="960"
     inkscape:window-y="0"
     inkscape:window-maximized="0"
     inkscape:current-layer="Layer_1" /><style
     type="text/css"
     id="style4569">
	.st0{fill:#ffffff;}
</style><path
     style="fill:#ffffff;stroke-width:1"
     d="m 298.20689,505.56332 c -3.70796,-0.6728 -7.17386,-2.0509 -10.65591,-4.2371 -1.6898,-1.061 -273.719477,-272.7875 -275.928647,-275.6212 -2.6756303,-3.432 -4.7293903,-8.3509 -5.3698503,-12.861 -0.23075,-1.6249 -0.29204,-26.426 -0.22943,-92.837 l 0.0854,-90.619797 0.604,-2.2238 c 1.41654,-5.2154 3.8442103,-9.4838 7.4377703,-13.0774 3.46357,-3.4635 8.27593,-6.1890001 13.09409,-7.4159001 l 2.48508,-0.6328 h 91.731657 91.73166 l 2.27784,0.6082 c 2.91533,0.7784 5.0895,1.6612 7.79311,3.1643 2.03413,1.1310001 10.14675,9.1834001 139.29164,138.2574971 75.42243,75.3812 137.68721,137.8258 138.36619,138.7658 1.60761,2.2257 3.53592,6.3337 4.28654,9.1319 0.84885,3.1644 1.04941,8.6481 0.43528,11.9006 -0.81208,4.3007 -2.49121,8.2167 -4.9094,11.4493 -1.48563,1.986 -180.54304,180.8588 -182.04978,181.8621 -5.94488,3.9586 -13.69047,5.6177 -20.47726,4.3863 z M 123.68486,172.26172 c 9.91588,-1.1546 19.4193,-5.0271 27.5195,-11.2138 2.49967,-1.9092 7.18048,-6.5432 9.30577,-9.2128 7.87327,-9.8897 12.23727,-22.2809 12.23727,-34.7469 0,-12.5315 -4.50026,-25.211497 -12.4307,-35.024797 -1.98923,-2.4615 -6.75461,-7.134 -9.11234,-8.9348 -8.27721,-6.3219 -18.28186,-10.3104 -28.45237,-11.343 -14.45309,-1.4675 -29.257527,2.9563 -40.624347,12.139 -2.46068,1.9878 -7.13328,6.753 -8.93482,9.1117 -7.49959,9.8193 -11.62567,21.904697 -11.62567,34.051897 0,14.1937 5.52283,28.0044 15.27376,38.1944 12.30795,12.8623 29.301657,19.0218 46.843947,16.9791 z"
     id="path4722"
     inkscape:connector-curvature="0" /></svg>