<?xml version="1.0" encoding="UTF-8" standalone="no"?>
<!-- Generator: Adobe Illustrator 19.2.1, SVG Export Plug-In . SVG Version: 6.00 Build 0)  -->

<svg
   xmlns:dc="http://purl.org/dc/elements/1.1/"
   xmlns:cc="http://creativecommons.org/ns#"
   xmlns:rdf="http://www.w3.org/1999/02/22-rdf-syntax-ns#"
   xmlns:svg="http://www.w3.org/2000/svg"
   xmlns="http://www.w3.org/2000/svg"
   xmlns:sodipodi="http://sodipodi.sourceforge.net/DTD/sodipodi-0.dtd"
   xmlns:inkscape="http://www.inkscape.org/namespaces/inkscape"
   version="1.1"
   id="Layer_1"
   x="0px"
   y="0px"
   viewBox="0 0 512 512"
   style="enable-background:new 0 0 512 512;"
   xml:space="preserve"
   sodipodi:docname="addSeed.svg"
   inkscape:version="0.92.3 (2405546, 2018-03-11)"><metadata
     id="metadata4385"><rdf:RDF><cc:Work
         rdf:about=""><dc:format>image/svg+xml</dc:format><dc:type
           rdf:resource="http://purl.org/dc/dcmitype/StillImage" /><dc:title /></cc:Work></rdf:RDF></metadata><defs
     id="defs4383" /><sodipodi:namedview
     pagecolor="#ffffff"
     bordercolor="#666666"
     borderopacity="1"
     objecttolerance="10"
     gridtolerance="10"
     guidetolerance="10"
     inkscape:pageopacity="0"
     inkscape:pageshadow="2"
     inkscape:window-width="1920"
     inkscape:window-height="1007"
     id="namedview4381"
     showgrid="false"
     inkscape:pagecheckerboard="true"
     inkscape:zoom="1.3037281"
     inkscape:cx="317.53969"
     inkscape:cy="250.00553"
     inkscape:window-x="0"
     inkscape:window-y="0"
     inkscape:window-maximized="1"
     inkscape:current-layer="Layer_1"
     inkscape:snap-object-midpoints="true" /><style
     type="text/css"
     id="style4376">
	.st0{fill:#000000;}
</style><path
     style="fill:#000000;stroke-width:0.99999046"
     d="M 353.55664,250 V 353.55664 H 250 v 48.8457 H 353.55664 V 506 h 48.84571 V 402.40234 H 506 v -48.8457 H 402.40235 V 250 Z"
     id="rect920"
     inkscape:connector-curvature="0" /><path
     style="fill:#000000;fill-opacity:1;stroke:none;stroke-width:16;stroke-linecap:round;stroke-miterlimit:4;stroke-dasharray:none;stroke-opacity:1"
     d="m 206.96289,5.9999975 a 49.089989,49.089989 0 0 0 -49.08984,49.0898435 49.089989,49.089989 0 0 0 7.10742,25.34961 L 80.011725,166.26562 a 49.089989,49.089989 0 0 0 -24.91992,-6.85938 49.089989,49.089989 0 0 0 -49.0918,49.08985 49.089989,49.089989 0 0 0 49.0918,49.08984 49.089989,49.089989 0 0 0 49.089835,-49.08984 49.089989,49.089989 0 0 0 -7.109365,-25.34766 L 182.04102,97.320311 a 49.089989,49.089989 0 0 0 1.32812,0.81445 L 122.95313,330.4707 a 49.089989,49.089989 0 0 0 -0.36328,-0.0176 49.089989,49.089989 0 0 0 -49.089845,49.08984 49.089989,49.089989 0 0 0 49.089845,49.0918 49.089989,49.089989 0 0 0 49.08984,-49.0918 49.089989,49.089989 0 0 0 -14.26758,-34.56641 l 79.76953,-132.47656 a 49.089989,49.089989 0 0 0 14.26954,2.13282 49.089989,49.089989 0 0 0 48.52539,-42.07813 L 411.7207,160.9238 a 49.089989,49.089989 0 0 0 46.06055,32.23242 49.089989,49.089989 0 0 0 49.0918,-49.09179 49.089989,49.089989 0 0 0 -49.0918,-49.089839 49.089989,49.089989 0 0 0 -40.82422,21.874999 L 255.82422,59.689451 a 49.089989,49.089989 0 0 0 0.22852,-4.59961 49.089989,49.089989 0 0 0 -49.08985,-49.0898435 z m 40.82422,76.3046835 155.95117,55.322269 -106.2246,11.05664 a 49.089989,49.089989 0 0 0 -46.0625,-32.23047 49.089989,49.089989 0 0 0 -49.08985,49.08984 49.089989,49.089989 0 0 0 14.26758,34.56641 l -61.56641,102.24414 51.53907,-198.1914 a 49.089989,49.089989 0 0 0 0.36132,0.0176 49.089989,49.089989 0 0 0 40.82422,-21.874999 z"
     id="path1416"
     inkscape:connector-curvature="0" /></svg>