<?xml version="1.0" encoding="UTF-8" standalone="no"?>
<!-- Created with Inkscape (http://www.inkscape.org/) -->

<svg
   xmlns:dc="http://purl.org/dc/elements/1.1/"
   xmlns:cc="http://creativecommons.org/ns#"
   xmlns:rdf="http://www.w3.org/1999/02/22-rdf-syntax-ns#"
   xmlns:svg="http://www.w3.org/2000/svg"
   xmlns="http://www.w3.org/2000/svg"
   xmlns:sodipodi="http://sodipodi.sourceforge.net/DTD/sodipodi-0.dtd"
   xmlns:inkscape="http://www.inkscape.org/namespaces/inkscape"
   width="512"
   height="512"
   viewBox="0 0 135.46666 135.46666"
   version="1.1"
   id="svg1991"
   inkscape:version="0.92.3 (2405546, 2018-03-11)"
   sodipodi:docname="app_color.svg"
   inkscape:export-filename="/home/home/Repositories/origraph.github.io/img/app.png"
   inkscape:export-xdpi="96"
   inkscape:export-ydpi="96">
  <defs
     id="defs1985" />
  <sodipodi:namedview
     id="base"
     pagecolor="#ffffff"
     bordercolor="#666666"
     borderopacity="1.0"
     inkscape:pageopacity="0.0"
     inkscape:pageshadow="2"
     inkscape:zoom="1.4"
     inkscape:cx="273.11156"
     inkscape:cy="283.92364"
     inkscape:document-units="mm"
     inkscape:current-layer="layer1"
     showgrid="false"
     inkscape:window-width="1920"
     inkscape:window-height="1007"
     inkscape:window-x="0"
     inkscape:window-y="0"
     inkscape:window-maximized="1"
     units="px" />
  <metadata
     id="metadata1988">
    <rdf:RDF>
      <cc:Work
         rdf:about="">
        <dc:format>image/svg+xml</dc:format>
        <dc:type
           rdf:resource="http://purl.org/dc/dcmitype/StillImage" />
        <dc:title></dc:title>
      </cc:Work>
    </rdf:RDF>
  </metadata>
  <g
     inkscape:label="Layer 1"
     inkscape:groupmode="layer"
     id="layer1"
     transform="translate(0,-161.53336)">
    <path
       style="color:#000000;font-style:normal;font-variant:normal;font-weight:normal;font-stretch:normal;font-size:medium;line-height:normal;font-family:sans-serif;font-variant-ligatures:normal;font-variant-position:normal;font-variant-caps:normal;font-variant-numeric:normal;font-variant-alternates:normal;font-feature-settings:normal;text-indent:0;text-align:start;text-decoration:none;text-decoration-line:none;text-decoration-style:solid;text-decoration-color:#000000;letter-spacing:normal;word-spacing:normal;text-transform:none;writing-mode:lr-tb;direction:ltr;text-orientation:mixed;dominant-baseline:auto;baseline-shift:baseline;text-anchor:start;white-space:normal;shape-padding:0;clip-rule:nonzero;display:inline;overflow:visible;visibility:visible;opacity:1;isolation:auto;mix-blend-mode:normal;color-interpolation:sRGB;color-interpolation-filters:linearRGB;solid-color:#000000;solid-opacity:1;vector-effect:none;fill:#000000;fill-opacity:1;fill-rule:nonzero;stroke:none;stroke-width:10.58333111;stroke-linecap:butt;stroke-linejoin:miter;stroke-miterlimit:4;stroke-dasharray:none;stroke-dashoffset:0;stroke-opacity:1;color-rendering:auto;image-rendering:auto;shape-rendering:auto;text-rendering:auto;enable-background:accumulate"
       d="m 15.078426,202.2061 a 7.5958189,7.5958189 0 0 0 -0.834419,9.75093 7.5958189,7.5958189 0 0 0 9.792225,2.30827 l 23.474807,22.30689 a 9.9945194,9.9945194 0 0 0 -0.09246,9.75736 l -32.761238,30.02522 a 8.5952769,8.5952769 0 0 0 -9.4310981,0.3046 8.5952769,8.5952769 0 0 0 -2.0657004,11.97879 8.5952769,8.5952769 0 0 0 11.9787865,2.0657 8.5952769,8.5952769 0 0 0 3.596244,-7.7929 l 60.169626,-23.36742 a 8.2307586,8.2307586 0 0 0 11.226351,1.65655 8.2307586,8.2307586 0 0 0 1.978033,-11.47071 8.2307586,8.2307586 0 0 0 -1.064249,-1.21849 l 11.897516,-23.66608 a 8.5952769,8.5952769 0 0 0 6.54176,-1.42542 8.5952769,8.5952769 0 0 0 2.0657,-11.97879 8.5952769,8.5952769 0 0 0 -4.73539,-3.32315 l -0.0995,-8.9999 a 5.9097263,5.9097263 0 0 0 0.97024,-0.55233 5.9097263,5.9097263 0 0 0 2.46395,-5.49048 l 11.48089,-6.67194 a 7.3959267,7.3959267 0 0 0 9.11756,0.47157 7.3959267,7.3959267 0 0 0 1.77754,-10.30743 7.3959267,7.3959267 0 0 0 -10.30726,-1.77738 7.3959267,7.3959267 0 0 0 -1.55103,1.48325 l -11.91896,-4.17899 a 6.1924164,6.1924164 0 0 0 -1.11559,-3.2157 6.1924164,6.1924164 0 0 0 -8.629982,-1.48848 6.1924164,6.1924164 0 0 0 -1.64311,8.38558 L 82.87208,196.58196 a 6.6164507,6.6164507 0 0 0 -5.387073,1.01292 6.6164507,6.6164507 0 0 0 -1.478558,1.45025 l -9.931004,-2.78733 a 8.5952769,8.5952769 0 0 0 -1.569736,-4.8979 8.5952769,8.5952769 0 0 0 -11.978625,-2.06588 8.5952769,8.5952769 0 0 0 -3.63792,7.15 l -22.229777,6.75895 a 7.5958189,7.5958189 0 0 0 -0.004,-0.006 7.5958189,7.5958189 0 0 0 -10.585899,-1.82572 7.5958189,7.5958189 0 0 0 -0.991082,0.83486 z"
       id="path6304" />
    <path
       style="color:#000000;font-style:normal;font-variant:normal;font-weight:normal;font-stretch:normal;font-size:medium;line-height:normal;font-family:sans-serif;font-variant-ligatures:normal;font-variant-position:normal;font-variant-caps:normal;font-variant-numeric:normal;font-variant-alternates:normal;font-feature-settings:normal;text-indent:0;text-align:start;text-decoration:none;text-decoration-line:none;text-decoration-style:solid;text-decoration-color:#000000;letter-spacing:normal;word-spacing:normal;text-transform:none;writing-mode:lr-tb;direction:ltr;text-orientation:mixed;dominant-baseline:auto;baseline-shift:baseline;text-anchor:start;white-space:normal;shape-padding:0;clip-rule:nonzero;display:inline;overflow:visible;visibility:visible;opacity:1;isolation:auto;mix-blend-mode:normal;color-interpolation:sRGB;color-interpolation-filters:linearRGB;solid-color:#000000;solid-opacity:1;vector-effect:none;fill:#66c2a5;fill-opacity:1;fill-rule:nonzero;stroke:none;stroke-width:10.58333111;stroke-linecap:butt;stroke-linejoin:miter;stroke-miterlimit:4;stroke-dasharray:none;stroke-dashoffset:0;stroke-opacity:1;color-rendering:auto;image-rendering:auto;shape-rendering:auto;text-rendering:auto;enable-background:accumulate"
       d="m 28.034405,207.75605 22.248272,-6.76497 a 8.5952769,8.5952769 0 0 0 0.178326,0.28174 8.5952769,8.5952769 0 0 0 4.40644,3.22284 l -0.78731,27.26166 a 9.9945194,9.9945194 0 0 0 -3.29262,1.36852 L 27.309804,210.81627 a 7.5958189,7.5958189 0 0 0 0.724601,-3.06022 z"
       id="path6302" />
    <path
       style="color:#000000;font-style:normal;font-variant:normal;font-weight:normal;font-stretch:normal;font-size:medium;line-height:normal;font-family:sans-serif;font-variant-ligatures:normal;font-variant-position:normal;font-variant-caps:normal;font-variant-numeric:normal;font-variant-alternates:normal;font-feature-settings:normal;text-indent:0;text-align:start;text-decoration:none;text-decoration-line:none;text-decoration-style:solid;text-decoration-color:#000000;letter-spacing:normal;word-spacing:normal;text-transform:none;writing-mode:lr-tb;direction:ltr;text-orientation:mixed;dominant-baseline:auto;baseline-shift:baseline;text-anchor:start;white-space:normal;shape-padding:0;clip-rule:nonzero;display:inline;overflow:visible;visibility:visible;opacity:1;isolation:auto;mix-blend-mode:normal;color-interpolation:sRGB;color-interpolation-filters:linearRGB;solid-color:#000000;solid-opacity:1;vector-effect:none;fill:#1b9e77;fill-opacity:1;fill-rule:nonzero;stroke:none;stroke-width:10.58333111;stroke-linecap:butt;stroke-linejoin:miter;stroke-miterlimit:4;stroke-dasharray:none;stroke-dashoffset:0;stroke-opacity:1;color-rendering:auto;image-rendering:auto;shape-rendering:auto;text-rendering:auto;enable-background:accumulate"
       d="m 59.622673,204.63069 a 8.5952769,8.5952769 0 0 0 2.817281,-1.29202 8.5952769,8.5952769 0 0 0 2.344288,-2.50375 l 9.934324,2.78818 a 6.6164507,6.6164507 0 0 0 1.17615,3.19289 6.6164507,6.6164507 0 0 0 9.220952,1.59006 6.6164507,6.6164507 0 0 0 0.344297,-0.26153 l 10.734543,6.19161 a 8.5952769,8.5952769 0 0 0 -0.0868,3.75734 l -32.423903,16.85255 a 9.9945194,9.9945194 0 0 0 -4.84913,-3.04609 z"
       id="path6300" />
    <path
       style="color:#000000;font-style:normal;font-variant:normal;font-weight:normal;font-stretch:normal;font-size:medium;line-height:normal;font-family:sans-serif;font-variant-ligatures:normal;font-variant-position:normal;font-variant-caps:normal;font-variant-numeric:normal;font-variant-alternates:normal;font-feature-settings:normal;text-indent:0;text-align:start;text-decoration:none;text-decoration-line:none;text-decoration-style:solid;text-decoration-color:#000000;letter-spacing:normal;word-spacing:normal;text-transform:none;writing-mode:lr-tb;direction:ltr;text-orientation:mixed;dominant-baseline:auto;baseline-shift:baseline;text-anchor:start;white-space:normal;shape-padding:0;clip-rule:nonzero;display:inline;overflow:visible;visibility:visible;opacity:1;isolation:auto;mix-blend-mode:normal;color-interpolation:sRGB;color-interpolation-filters:linearRGB;solid-color:#000000;solid-opacity:1;vector-effect:none;fill:#66c2a5;fill-opacity:1;fill-rule:nonzero;stroke:none;stroke-width:10.58333111;stroke-linecap:butt;stroke-linejoin:miter;stroke-miterlimit:4;stroke-dasharray:none;stroke-dashoffset:0;stroke-opacity:1;color-rendering:auto;image-rendering:auto;shape-rendering:auto;text-rendering:auto;enable-background:accumulate"
       d="m 100.73245,179.25434 0.74327,9.28474 a 5.9097263,5.9097263 0 0 0 -0.60585,0.36969 5.9097263,5.9097263 0 0 0 -1.420362,8.23593 5.9097263,5.9097263 0 0 0 2.509402,2.02343 l 0.0997,9.00416 a 8.5952769,8.5952769 0 0 0 -2.486942,1.20244 8.5952769,8.5952769 0 0 0 -1.00487,0.8392 l -10.736382,-6.19204 a 6.6164507,6.6164507 0 0 0 -1.053788,-4.72492 z"
       id="path6298" />
    <path
       style="color:#000000;font-style:normal;font-variant:normal;font-weight:normal;font-stretch:normal;font-size:medium;line-height:normal;font-family:sans-serif;font-variant-ligatures:normal;font-variant-position:normal;font-variant-caps:normal;font-variant-numeric:normal;font-variant-alternates:normal;font-feature-settings:normal;text-indent:0;text-align:start;text-decoration:none;text-decoration-line:none;text-decoration-style:solid;text-decoration-color:#000000;letter-spacing:normal;word-spacing:normal;text-transform:none;writing-mode:lr-tb;direction:ltr;text-orientation:mixed;dominant-baseline:auto;baseline-shift:baseline;text-anchor:start;white-space:normal;shape-padding:0;clip-rule:nonzero;display:inline;overflow:visible;visibility:visible;opacity:1;isolation:auto;mix-blend-mode:normal;color-interpolation:sRGB;color-interpolation-filters:linearRGB;solid-color:#000000;solid-opacity:1;vector-effect:none;fill:#b3e2cd;fill-opacity:1;fill-rule:nonzero;stroke:none;stroke-width:10.58333111;stroke-linecap:butt;stroke-linejoin:miter;stroke-miterlimit:4;stroke-dasharray:none;stroke-dashoffset:0;stroke-opacity:1;color-rendering:auto;image-rendering:auto;shape-rendering:auto;text-rendering:auto;enable-background:accumulate"
       d="m 105.39965,177.95044 a 6.1924164,6.1924164 0 0 0 0.74491,-0.44235 6.1924164,6.1924164 0 0 0 1.03012,-0.92618 l 11.91964,4.17962 a 7.3959267,7.3959267 0 0 0 0.1435,1.53085 l -11.48426,6.67423 a 5.9097263,5.9097263 0 0 0 -1.53582,-0.80392 z"
       id="path6296" />
    <path
       style="color:#000000;font-style:normal;font-variant:normal;font-weight:normal;font-stretch:normal;font-size:medium;line-height:normal;font-family:sans-serif;font-variant-ligatures:normal;font-variant-position:normal;font-variant-caps:normal;font-variant-numeric:normal;font-variant-alternates:normal;font-feature-settings:normal;text-indent:0;text-align:start;text-decoration:none;text-decoration-line:none;text-decoration-style:solid;text-decoration-color:#000000;letter-spacing:normal;word-spacing:normal;text-transform:none;writing-mode:lr-tb;direction:ltr;text-orientation:mixed;dominant-baseline:auto;baseline-shift:baseline;text-anchor:start;white-space:normal;shape-padding:0;clip-rule:nonzero;display:inline;overflow:visible;visibility:visible;opacity:1;isolation:auto;mix-blend-mode:normal;color-interpolation:sRGB;color-interpolation-filters:linearRGB;solid-color:#000000;solid-opacity:1;vector-effect:none;fill:#1b9e77;fill-opacity:1;fill-rule:nonzero;stroke:none;stroke-width:10.58333111;stroke-linecap:butt;stroke-linejoin:miter;stroke-miterlimit:4;stroke-dasharray:none;stroke-dashoffset:0;stroke-opacity:1;color-rendering:auto;image-rendering:auto;shape-rendering:auto;text-rendering:auto;enable-background:accumulate"
       d="m 21.120986,276.88262 29.508451,-27.04358 a 9.9945194,9.9945194 0 0 0 11.311526,-0.14584 9.9945194,9.9945194 0 0 0 2.13795,-2.06155 l 13.148157,5.82864 a 8.2307586,8.2307586 0 0 0 -0.03865,1.64782 z"
       id="path6294" />
    <path
       style="color:#000000;font-style:normal;font-variant:normal;font-weight:normal;font-stretch:normal;font-size:medium;line-height:normal;font-family:sans-serif;font-variant-ligatures:normal;font-variant-position:normal;font-variant-caps:normal;font-variant-numeric:normal;font-variant-alternates:normal;font-feature-settings:normal;text-indent:0;text-align:start;text-decoration:none;text-decoration-line:none;text-decoration-style:solid;text-decoration-color:#000000;letter-spacing:normal;word-spacing:normal;text-transform:none;writing-mode:lr-tb;direction:ltr;text-orientation:mixed;dominant-baseline:auto;baseline-shift:baseline;text-anchor:start;white-space:normal;shape-padding:0;clip-rule:nonzero;display:inline;overflow:visible;visibility:visible;opacity:1;isolation:auto;mix-blend-mode:normal;color-interpolation:sRGB;color-interpolation-filters:linearRGB;solid-color:#000000;solid-opacity:1;vector-effect:none;fill:#0d4e3b;fill-opacity:1;fill-rule:nonzero;stroke:none;stroke-width:10.58333111;stroke-linecap:butt;stroke-linejoin:miter;stroke-miterlimit:4;stroke-dasharray:none;stroke-dashoffset:0;stroke-opacity:1;color-rendering:auto;image-rendering:auto;shape-rendering:auto;text-rendering:auto;enable-background:accumulate"
       d="m 65.879167,239.16512 32.424231,-16.85255 a 8.5952769,8.5952769 0 0 0 0.39454,0.38643 l -11.900695,23.67261 a 8.2307586,8.2307586 0 0 0 -6.158217,1.37958 8.2307586,8.2307586 0 0 0 -1.486128,1.36017 L 66.011961,243.2862 a 9.9945194,9.9945194 0 0 0 -0.132797,-4.12107 z"
       id="path1578" />
  </g>
</svg>
