<?xml version="1.0" encoding="UTF-8" standalone="no"?>
<!-- Created with Inkscape (http://www.inkscape.org/) -->

<svg
   xmlns:dc="http://purl.org/dc/elements/1.1/"
   xmlns:cc="http://creativecommons.org/ns#"
   xmlns:rdf="http://www.w3.org/1999/02/22-rdf-syntax-ns#"
   xmlns:svg="http://www.w3.org/2000/svg"
   xmlns="http://www.w3.org/2000/svg"
   xmlns:sodipodi="http://sodipodi.sourceforge.net/DTD/sodipodi-0.dtd"
   xmlns:inkscape="http://www.inkscape.org/namespaces/inkscape"
   width="512"
   height="512"
   version="1.1"
   id="svg8"
   sodipodi:docname="sortAscending.svg"
   inkscape:version="0.92.3 (2405546, 2018-03-11)">
  <metadata
     id="metadata823">
    <rdf:RDF>
      <cc:Work
         rdf:about="">
        <dc:format>image/svg+xml</dc:format>
        <dc:type
           rdf:resource="http://purl.org/dc/dcmitype/StillImage" />
        <dc:title></dc:title>
      </cc:Work>
    </rdf:RDF>
  </metadata>
  <defs
     id="defs821" />
  <sodipodi:namedview
     pagecolor="#ffffff"
     bordercolor="#666666"
     borderopacity="1"
     objecttolerance="10"
     gridtolerance="10"
     guidetolerance="10"
     inkscape:pageopacity="0"
     inkscape:pageshadow="2"
     inkscape:window-width="1918"
     inkscape:window-height="1049"
     id="namedview819"
     showgrid="false"
     inkscape:pagecheckerboard="true"
     inkscape:zoom="1.2926796"
     inkscape:cx="362.86284"
     inkscape:cy="267.83229"
     inkscape:window-x="1920"
     inkscape:window-y="0"
     inkscape:window-maximized="0"
     inkscape:current-layer="svg8"
     showguides="true"
     inkscape:guide-bbox="true" />
  <path
     style="fill:#000000"
     d="m 110.97027,6.3152039 c 0.64696,0.2114 1.71466,0.705 2.37267,1.0968 0.658,0.3918 21.69786,21.2265001 46.7552,46.2993001 38.3045,38.3282 45.65796,45.8092 46.18153,46.982596 1.80573,4.0472 -0.40196,9.8009 -4.48519,11.6895 -1.27532,0.5899 -1.40716,0.5929 -29.40308,0.6688 l -28.12201,0.076 -0.0708,193.22589 -0.0708,193.22587 -0.65808,1.45536 c -0.81964,1.81264 -2.8301,3.7264 -4.65338,4.42956 -1.33578,0.51516 -2.47116,0.53523 -30.27845,0.53523 -27.807305,0 -28.942695,-0.0201 -30.278475,-0.53523 -1.82327,-0.70316 -3.83372,-2.61692 -4.65338,-4.42956 l -0.65806,-1.45536 -0.0708,-193.22709 -0.0708,-193.22707 -27.98244,-0.075 -27.98244,-0.075 -1.42329,-0.6443 c -1.78181,-0.8066 -3.52413,-2.5636 -4.34367,-4.3802 -0.48589,-1.0771 -0.62898,-1.9055 -0.62677,-3.6288 0.006,-4.345796 -4.1499301,0.1671 46.98075,-51.021696 37.71532,-37.7582 45.923215,-45.8446001 47.142455,-46.4445001 1.78715,-0.8793 4.6294,-1.1198 6.39926,-0.5413 z"
     id="path3900"
     inkscape:connector-curvature="0" />
  <path
     style="fill:#000000"
     d="m 376.7168,505.99825 c -115.84878,0 -118.24153,-0.0106 -119.60157,-0.53515 -1.82329,-0.70316 -3.83272,-2.61705 -4.65234,-4.42969 l -0.6582,-1.45508 v -29.03125 c 0,-27.88324 0.0203,-29.08339 0.53125,-30.4082 0.92355,-2.39462 2.95202,-4.22799 5.60937,-5.07031 0.89522,-0.2837 24.52371,-0.34424 119.19141,-0.30274 l 118.07422,0.0527 1.45508,0.6582 c 1.8126,0.81964 3.72648,2.82906 4.42968,4.65234 0.5152,1.33593 0.53516,2.4731 0.53516,30.41797 v 29.03125 l -0.6582,1.45508 c -0.8196,1.81264 -2.82905,3.72653 -4.65235,4.42969 -1.3601,0.52453 -3.75471,0.53515 -119.60351,0.53515 z M 349.91992,363.08028 c -89.43633,0 -91.44694,-0.0115 -92.80469,-0.53515 -1.82329,-0.70317 -3.83272,-2.61704 -4.65234,-4.42969 l -0.6582,-1.45508 v -29.03125 c 0,-27.88324 0.0203,-29.08339 0.53125,-30.4082 0.92353,-2.3945 2.95157,-4.22739 5.60937,-5.07032 0.89371,-0.28331 19.33412,-0.34433 92.39453,-0.30273 l 91.27735,0.0527 1.45508,0.65821 c 1.8127,0.81964 3.72648,2.82906 4.42968,4.65234 0.5152,1.33593 0.53516,2.4731 0.53516,30.41797 v 29.03125 l -0.6582,1.45508 c -0.8196,1.81265 -2.82905,3.72653 -4.65235,4.42969 -1.3577,0.52362 -3.37034,0.53515 -92.80664,0.53515 z M 323.12305,220.16231 c -63.02391,0 -64.65429,-0.0132 -66.00782,-0.53515 -1.82329,-0.70318 -3.83272,-2.61706 -4.65234,-4.42969 l -0.6582,-1.45508 v -29.03125 c 0,-27.88323 0.0203,-29.08308 0.53125,-30.4082 0.92344,-2.39429 2.95076,-4.22663 5.60937,-5.07031 0.89098,-0.28274 14.14433,-0.34454 65.59766,-0.30274 l 64.48047,0.0527 1.45508,0.6582 c 1.8126,0.81963 3.72648,2.82904 4.42968,4.65234 0.5152,1.33592 0.53516,2.47311 0.53516,30.41797 v 29.03125 l -0.6582,1.45508 c -0.8196,1.81263 -2.831,3.72651 -4.6543,4.42969 -1.3535,0.52211 -2.98391,0.53515 -66.00781,0.53515 z M 296.32617,77.244344 c -36.61148,0 -37.86757,-0.01715 -39.21094,-0.53515 -1.82329,-0.7032 -3.83272,-2.61709 -4.65234,-4.42969 l -0.6582,-1.45508 v -29.02929 c 0,-27.8832 0.0203,-29.08506 0.53125,-30.41016 0.92325,-2.3937998 2.94886,-4.2259698 5.60937,-5.0722698 0.88436,-0.281 8.95398,-0.34278 38.80078,-0.30078 l 37.68164,0.05274 1.45704,0.6582 c 1.8126,0.8197 3.72463,2.82904 4.42773,4.6523398 0.5153,1.3359 0.53711,2.47513 0.53711,30.41993 v 29.02929 l -0.6582,1.45508 c -0.8197,1.8126 -2.831,3.72649 -4.6543,4.42969 -1.3434,0.5182 -2.59954,0.53515 -39.21094,0.53515 z"
     id="path3898"
     inkscape:connector-curvature="0" />
</svg>
