<?xml version="1.0" encoding="UTF-8" standalone="no"?>
<!-- Generator: Adobe Illustrator 19.2.1, SVG Export Plug-In . SVG Version: 6.00 Build 0)  -->

<svg
   xmlns:dc="http://purl.org/dc/elements/1.1/"
   xmlns:cc="http://creativecommons.org/ns#"
   xmlns:rdf="http://www.w3.org/1999/02/22-rdf-syntax-ns#"
   xmlns:svg="http://www.w3.org/2000/svg"
   xmlns="http://www.w3.org/2000/svg"
   xmlns:sodipodi="http://sodipodi.sourceforge.net/DTD/sodipodi-0.dtd"
   xmlns:inkscape="http://www.inkscape.org/namespaces/inkscape"
   version="1.1"
   id="Layer_1"
   x="0px"
   y="0px"
   viewBox="0 0 512 512"
   style="enable-background:new 0 0 512 512;"
   xml:space="preserve"
   sodipodi:docname="attach.svg"
   inkscape:version="0.92.3 (2405546, 2018-03-11)"><metadata
     id="metadata4582"><rdf:RDF><cc:Work
         rdf:about=""><dc:format>image/svg+xml</dc:format><dc:type
           rdf:resource="http://purl.org/dc/dcmitype/StillImage" /><dc:title></dc:title></cc:Work></rdf:RDF></metadata><defs
     id="defs4580" /><sodipodi:namedview
     pagecolor="#ffffff"
     bordercolor="#666666"
     borderopacity="1"
     objecttolerance="10"
     gridtolerance="10"
     guidetolerance="10"
     inkscape:pageopacity="0"
     inkscape:pageshadow="2"
     inkscape:window-width="958"
     inkscape:window-height="1049"
     id="namedview4578"
     showgrid="false"
     inkscape:pagecheckerboard="true"
     inkscape:zoom="0.63529125"
     inkscape:cx="262.47106"
     inkscape:cy="2.0770768"
     inkscape:window-x="2880"
     inkscape:window-y="0"
     inkscape:window-maximized="0"
     inkscape:current-layer="Layer_1" /><style
     type="text/css"
     id="style4569">
	.st0{fill:#ffffff;}
</style><path
     style="fill:#ffffff;stroke-width:0.99999994"
     d="M 42.178924,441.17068 C 16.758815,405.8884 4.8589558,368.06151 6.0599868,326.35686 c 0.175985,-6.10993 1.025214,-16.71037 1.697297,-21.18584 l 0.377026,-2.51015 0.4357,2.08461 c 1.098306,5.25468 3.9376062,12.48035 7.3473302,18.69794 2.349598,4.28447 9.699013,13.48409 13.361506,16.72842 9.287719,8.22053 19.108341,13.31009 28.515302,14.77792 3.627543,0.56612 13.612217,-0.18474 26.34667,-1.98117 4.068751,-0.57397 7.511971,-0.91531 7.651461,-0.75859 0.13928,0.15706 0.67544,2.06086 1.19094,4.2313 1.28227,5.39813 4.55765,14.15038 7.350391,19.64077 4.32133,8.49582 6.51627,11.83493 13.63107,20.73666 5.94115,7.43822 6.70909,8.29002 9.35721,10.43911 4.43414,3.59795 8.80318,6.30538 14.1881,8.79203 20.24324,9.34828 43.64693,7.56664 62.11678,-4.72856 4.55215,-3.0303 198.82894,-158.20519 202.79044,-161.97499 21.28173,-20.25185 25.99092,-51.53402 11.61625,-77.16371 -2.44962,-4.36742 -8.52811,-11.98091 -13.47993,-16.87669 -23.90964,-23.66924 -65.72194,-45.77508 -108.45955,-57.341763 -17.0242,-4.607446 -35.43817,-7.529191 -49.36053,-7.83195 -6.1814,-0.134374 -18.21608,0.334861 -23.45479,0.914596 -3.07166,0.339913 -3.23665,0.308085 -10.36072,-1.997213 -11.50767,-3.72384 -19.98279,-5.949502 -31.51747,-8.276995 -6.82988,-1.37808 -17.34727,-3.056598 -22.15364,-3.535458 l -3.4463,-0.343401 3.3089,1.125001 c 12.71346,4.322491 25.31359,11.0634 41.19844,22.040473 0.38537,0.26626 0.36557,0.48205 -0.0777,0.83612 -0.32846,0.26236 -1.34777,1.96558 -2.26525,3.78503 -2.31957,4.60029 -6.47028,10.90496 -9.58566,14.5601 -3.30332,3.87567 -8.11198,7.8274 -11.21496,9.21642 -5.4079,2.42084 -10.92798,2.5256 -16.59064,0.31486 -4.12599,-1.60953 -19.00063,-8.02073 -24.2468,-10.44941 -10.42448,-4.826 -17.5018,-10.2581 -20.57417,-15.79155 -2.62725,-4.731475 -2.82631,-11.199877 -0.55885,-18.155953 1.87097,-5.739793 7.46337,-16.833732 12.40728,-24.613025 10.60319,-16.684171 25.438,-29.753302 44.23675,-38.971502 18.28068,-8.964179 40.78494,-14.0273221 65.37446,-14.7084441 55.17082,-1.528084 122.85361,18.4263061 178.21124,52.5408761 27.06667,16.680065 49.70409,36.3344 64.73137,56.201348 7.15989,9.46572 11.62009,16.87507 16.45166,27.32972 23.67429,51.22623 15.56332,111.99787 -20.7499,155.46991 -3.51143,4.20362 -8.9384,9.87815 -13.33562,13.94395 -4.87678,4.50918 -205.43143,164.70265 -210.75418,168.34004 -16.23113,11.09279 -33.02737,18.46104 -51.52185,22.60195 -25.23513,5.6501 -52.09698,4.41623 -76.73752,-3.52495 -8.04463,-2.59263 -11.1633,-3.8199 -18.5245,-7.29009 -8.957211,-4.22249 -16.541615,-8.79746 -24.628394,-14.85634 -13.134844,-9.84079 -22.973721,-20.10598 -34.18214,-35.66278 z M 16.874455,309.00586 c -4.529025,-7.9159 -6.370627,-16.6416 -5.369381,-25.44159 0.781102,-6.86584 2.662096,-12.10071 6.443214,-17.93222 4.912991,-7.5771 12.107589,-13.29846 20.671821,-16.43881 3.937112,-1.44365 7.220231,-2.05473 14.342381,-2.66945 9.792417,-0.8452 16.439033,-1.82989 25.114076,-3.72053 23.290194,-5.07595 44.457604,-14.3 66.604024,-29.02388 6.09169,-4.04999 21.38787,-16.39915 27.15878,-21.92625 9.5003,-9.0989 19.20941,-19.97715 24.85846,-27.85178 4.05227,-5.64866 9.07498,-12.16696 11.61912,-15.07875 3.25579,-3.72632 11.14549,-10.06417 14.14478,-11.36267 6.92663,-2.99877 13.84712,-2.27861 21.6942,2.25744 3.79746,2.19513 23.81027,16.11057 28.44067,19.77566 4.09891,3.24436 7.78324,7.39881 9.03653,10.18939 3.23675,7.20738 0.95041,15.06856 -9.05722,31.14147 -15.26438,24.51562 -43.38595,54.04209 -70.51589,74.03869 -25.86424,19.06365 -50.58605,32.24288 -77.87182,41.51366 -20.77235,7.05777 -39.76163,11.03275 -62.415413,13.06524 -9.940926,0.89198 -15.919599,0.49184 -21.774075,-1.45709 -9.770989,-3.25279 -17.912838,-9.97014 -23.124257,-19.07853 z m 23.454721,-1.92419 c 4.20655,2.89146 10.466537,4.39585 15.403409,3.70172 9.236443,-1.29863 16.587727,-8.04669 18.969428,-17.41289 1.167621,-4.59183 0.517868,-10.74432 -1.572745,-14.89077 -2.154717,-4.27371 -6.438088,-8.23758 -11.159303,-10.32718 -3.850361,-1.70404 -9.907274,-2.30135 -14.070467,-1.38752 -11.37251,2.49625 -18.133416,12.04145 -17.101746,24.14477 0.530825,6.2285 4.252835,12.54362 9.531424,16.17187 z"
     id="path833"
     inkscape:connector-curvature="0" /></svg>