<?xml version="1.0" encoding="UTF-8" standalone="no"?>
<!-- Generator: Adobe Illustrator 19.2.1, SVG Export Plug-In . SVG Version: 6.00 Build 0)  -->

<svg
   xmlns:dc="http://purl.org/dc/elements/1.1/"
   xmlns:cc="http://creativecommons.org/ns#"
   xmlns:rdf="http://www.w3.org/1999/02/22-rdf-syntax-ns#"
   xmlns:svg="http://www.w3.org/2000/svg"
   xmlns="http://www.w3.org/2000/svg"
   xmlns:sodipodi="http://sodipodi.sourceforge.net/DTD/sodipodi-0.dtd"
   xmlns:inkscape="http://www.inkscape.org/namespaces/inkscape"
   version="1.1"
   id="Layer_1"
   x="0px"
   y="0px"
   viewBox="0 0 512 512"
   style="enable-background:new 0 0 512 512;"
   xml:space="preserve"
   sodipodi:docname="attach.svg"
   inkscape:version="0.92.3 (2405546, 2018-03-11)"><metadata
     id="metadata4582"><rdf:RDF><cc:Work
         rdf:about=""><dc:format>image/svg+xml</dc:format><dc:type
           rdf:resource="http://purl.org/dc/dcmitype/StillImage" /><dc:title></dc:title></cc:Work></rdf:RDF></metadata><defs
     id="defs4580" /><sodipodi:namedview
     pagecolor="#ffffff"
     bordercolor="#666666"
     borderopacity="1"
     objecttolerance="10"
     gridtolerance="10"
     guidetolerance="10"
     inkscape:pageopacity="0"
     inkscape:pageshadow="2"
     inkscape:window-width="958"
     inkscape:window-height="1049"
     id="namedview4578"
     showgrid="false"
     inkscape:pagecheckerboard="true"
     inkscape:zoom="0.63529125"
     inkscape:cx="262.47106"
     inkscape:cy="2.0770768"
     inkscape:window-x="2880"
     inkscape:window-y="0"
     inkscape:window-maximized="0"
     inkscape:current-layer="Layer_1" /><style
     type="text/css"
     id="style4569">
	.st0{fill:#ffffff;}
</style><path
     id="path2268"
     style="fill:#ffffff;fill-opacity:1;stroke:none;stroke-width:1;stroke-miterlimit:4;stroke-dasharray:none;stroke-dashoffset:0;stroke-opacity:1"
     d="m 15.501468,390.80757 c -13.2521508,13.739 -15.37802078,64.56251 14.599701,93.47501 29.974566,28.90995 80.688811,24.95345 93.932991,11.2095 L 284.7002,328.91957 c 11.6946,-12.1245 2.59335,-40.892 -21.5251,-68.079 l -102.8321,106.612 c -13.24631,13.7355 -27.9711,21.0315 -32.89078,16.297 -4.92402,-4.736 1.83459,-19.7225 15.0919,-33.465 l 102.83973,-106.62 c -28.1279,-23.359 -57.43049,-31.584 -69.21635,-19.4295 z M 294.2524,12.808056 c -1.48465,1.6205 -78.08489,85.707504 -78.08489,85.707504 -21.92925,22.7395 5.56894,84.84251 61.41964,138.71151 55.85025,53.871 121.3586,76.5665 134.213,62.4395 1.4899,-1.626 83.59811,-87.468 83.59811,-87.468 21.92925,-22.7395 10.1065,-101.09451 -45.74415,-154.963512 C 393.8054,3.3690556 307.10425,-1.3049444 294.25405,12.809556 Z M 252.60165,136.74606 c 11.3152,-11.7255 49.69875,13.8895 75.38535,39.437 36.8643,35.55701 58.22365,66.02351 46.91415,77.75501 -11.3152,11.725 -41.66215,-3.8235 -73.70145,-33.184 -36.8643,-35.557 -59.90755,-72.27701 -48.59805,-84.00801 z"
     inkscape:connector-curvature="0" /></svg>