<?xml version="1.0" encoding="UTF-8" standalone="no"?>
<!-- Generator: Adobe Illustrator 19.2.1, SVG Export Plug-In . SVG Version: 6.00 Build 0)  -->

<svg
   xmlns:dc="http://purl.org/dc/elements/1.1/"
   xmlns:cc="http://creativecommons.org/ns#"
   xmlns:rdf="http://www.w3.org/1999/02/22-rdf-syntax-ns#"
   xmlns:svg="http://www.w3.org/2000/svg"
   xmlns="http://www.w3.org/2000/svg"
   xmlns:sodipodi="http://sodipodi.sourceforge.net/DTD/sodipodi-0.dtd"
   xmlns:inkscape="http://www.inkscape.org/namespaces/inkscape"
   sodipodi:docname="boilerplate.svg"
   xml:space="preserve"
   style="enable-background:new 0 0 512 512;"
   viewBox="0 0 512 512"
   y="0px"
   x="0px"
   id="Layer_1"
   version="1.1"
   inkscape:version="0.92.3 (2405546, 2018-03-11)"><sodipodi:namedview
   inkscape:current-layer="Layer_1"
   inkscape:window-maximized="0"
   inkscape:window-y="0"
   inkscape:window-x="2880"
   inkscape:cy="268.1094"
   inkscape:cx="277.74215"
   inkscape:zoom="0.65186406"
   inkscape:pagecheckerboard="true"
   showgrid="false"
   id="namedview15"
   inkscape:window-height="1049"
   inkscape:window-width="958"
   inkscape:pageshadow="2"
   inkscape:pageopacity="0"
   guidetolerance="10"
   gridtolerance="10"
   objecttolerance="10"
   borderopacity="1"
   bordercolor="#666666"
   pagecolor="#ffffff" /><metadata
   id="metadata19"><rdf:RDF><cc:Work
       rdf:about=""><dc:format>image/svg+xml</dc:format><dc:type
         rdf:resource="http://purl.org/dc/dcmitype/StillImage" /><dc:title></dc:title></cc:Work></rdf:RDF></metadata><defs
   id="defs17"><inkscape:path-effect
     overflow_perspective="false"
     vertical_mirror="false"
     horizontal_mirror="true"
     deform_type="perspective"
     is_visible="true"
     id="path-effect4567"
     down_right_point="427.6388,266.81519"
     down_left_point="81.035834,266.81519"
     up_right_point="427.6388,66.128317"
     up_left_point="81.035834,66.128317"
     effect="perspective-envelope" /></defs>
<style
   id="style2"
   type="text/css">
	.st0{fill:#ffffff;}
</style>





<path
   style="fill:#ffffff;stroke:none;stroke-width:0.99999994"
   d="m 256,41.598846 c -153.54322,0 -160.751387,0.08417 -164.793894,1.920436 C 82.505908,47.471228 84.835487,40.08754 45.951219,187.01064 26.242317,261.48015 9.842216,323.4687 9.505825,324.76315 L 8.89292,327.11671 H 256 503.10505 l -0.61087,-2.35356 C 502.15779,323.4687 485.75565,261.48015 466.04674,187.01064 427.16247,40.08754 429.49207,47.471228 420.79186,43.519282 416.74935,41.683048 409.54322,41.598846 256,41.598846 Z m -2.74582,23.020724 c 47.2607,0.08963 97.2135,13.909151 131.25164,48.07425 21.9669,21.50469 33.7234,54.89766 23.83589,84.85471 -12.22531,37.51475 -46.47075,62.98146 -81.65533,77.52639 -61.54125,24.76308 -132.73704,25.31884 -194.57089,1.19721 -11.11777,-1.76555 2.66402,-9.81878 5.10141,-15.00596 2.98986,-7.20168 8.0914,-5.83662 13.78425,-2.89087 55.06191,19.08396 116.96715,17.1746 170.34478,-6.52336 29.49893,-13.51265 58.89821,-37.44164 64.85969,-71.02755 5.17437,-30.4542 -14.69874,-59.2831 -39.26272,-75.37102 -42.06264,-27.872384 -96.17218,-31.965028 -144.13082,-20.101255 -28.38052,7.542905 -58.7847,22.228305 -71.17669,50.560605 -9.91596,22.0277 0.46544,48.12296 19.11446,61.92387 31.84803,24.12203 74.61181,28.69435 112.78276,20.40975 24.71194,-5.79081 52.16308,-18.60604 61.94021,-43.91671 7.16589,-19.61506 -5.14464,-40.09119 -21.78061,-50.2521 -27.93025,-17.35829 -64.64827,-18.44507 -94.4099,-5.2097 -13.46342,5.9491 -27.50392,19.82584 -22.46502,35.81614 6.66105,18.58017 29.24573,24.9859 47.14673,24.15664 13.02438,-0.8959 29.91297,-4.50422 35.04184,-18.19102 2.5411,-14.43586 -17.21293,-20.58596 -27.39688,-14.79759 4.72686,5.34341 4.81656,5.24992 12.56047,7.73692 -8.11353,11.44339 -26.43706,10.79594 -34.88656,0.16344 -6.25856,-8.87386 2.16419,-19.4063 10.71358,-22.58353 19.56193,-8.23602 46.0663,-4.59029 59.09838,13.30209 8.27851,11.23179 4.26433,27.3657 -6.01464,35.89991 -18.78543,16.37082 -45.84979,19.50347 -69.69755,15.7864 -21.45459,-3.61417 -45.3627,-15.72889 -50.81599,-38.59669 -4.75751,-20.21024 10.11424,-38.86582 26.97192,-48.01501 32.33417,-17.671528 72.32598,-19.341502 107.01736,-7.90852 25.74401,8.61316 51.45892,28.51284 55.09202,57.06354 3.22093,26.33418 -16.02102,49.36392 -37.40562,62.04031 -40.42184,23.68032 -90.86367,27.21818 -135.54809,14.88543 -29.87385,-8.59541 -60.89775,-26.69124 -71.86316,-57.48439 -9.450207,-25.63126 1.57859,-54.78122 21.37202,-72.32896 32.48212,-29.411814 77.70247,-39.990502 120.48696,-41.158639 1.51832,-0.02546 3.03956,-0.03763 4.5641,-0.03473 z M 434.86825,255.987 c 3.28371,0 5.38583,1.78399 23.76847,20.16663 19.05261,19.05261 20.16662,20.38272 20.16662,24.10557 0,2.78887 -0.75083,4.69184 -2.56806,6.50906 l -2.56808,2.56602 h -39.31992 -39.32196 l -2.56807,-2.56602 c -1.67837,-1.67836 -2.56604,-3.75169 -2.56604,-5.98605 0,-3.04751 2.24238,-5.66034 20.68761,-24.10556 18.87679,-18.87681 21.00257,-20.68965 24.28943,-20.68965 z m 0.002,21.46396 -7.05249,7.05045 -7.05046,7.05045 h 14.10295 14.10091 l -7.05045,-7.05045 z M 6.000007,344.89914 v 54.95105 c 0,47.08358 0.229246,55.50063 1.607854,58.8001 2.167302,5.18709 4.398621,7.51909 9.375409,9.80444 4.020189,1.8461 13.374082,1.92288 238.78791,1.94495 208.79088,0.0204 235.02789,-0.15347 238.45491,-1.58538 5.18709,-2.1673 7.52113,-4.3986 9.80648,-9.37542 1.78629,-3.88999 1.92158,-8.06269 1.94292,-59.36192 l 0.0245,-55.17782 h -250 z m 251.046013,18.26254 c 1.77408,0.0505 3.56281,0.21709 5.36088,0.50666 36.26033,5.83955 50.81168,49.6762 25.04332,75.44456 -6.29818,6.29818 -14.10769,10.51856 -22.87363,12.3623 -24.20908,5.09191 -48.1843,-11.73403 -52.5648,-36.88872 -4.67866,-26.86686 18.4231,-52.18293 45.03423,-51.4248 z M 68.030112,381.21787 c 7.844362,-0.0352 13.396223,2.13916 18.899957,7.40389 5.689744,5.44265 7.935084,10.83164 7.935084,19.03888 0,10.7906 -5.103591,19.21655 -14.566719,24.04428 -15.198933,7.75391 -33.996334,-1.37968 -37.797872,-18.36673 -3.642395,-16.27596 8.89114,-32.04563 25.52955,-32.12032 z m 188.452038,0.38409 c -4.66645,0.0591 -9.8768,0.58515 -10.58078,1.28914 -0.39981,0.3998 3.33743,4.87932 8.30486,9.95563 10.14768,10.37005 11.95196,13.63203 10.06186,18.19511 -1.55513,3.75444 -6.50426,6.44185 -10.16809,5.52227 -1.49549,-0.37534 -7.08853,-4.96897 -12.42972,-10.20691 -5.34122,-5.23794 -9.94956,-9.28342 -10.24165,-8.99132 -0.29209,0.29209 -0.96784,2.84418 -1.50162,5.67346 -2.56322,13.5862 6.5048,27.47162 20.14415,30.84549 5.27201,1.3041 13.33789,-0.0263 19.00415,-3.134 9.75448,-5.34995 15.30851,-17.44529 12.98543,-28.27741 -2.07958,-9.69675 -10.80116,-18.92177 -19.41889,-20.53845 -1.03348,-0.1939 -2.52927,-0.29836 -4.20861,-0.32893 -0.62976,-0.0115 -1.28444,-0.0125 -1.95109,-0.004 z M 68.011725,399.10449 c -3.084528,0.11203 -6.121569,1.80502 -7.602069,5.37927 -1.79342,4.3297 0.22961,9.20533 4.607005,11.09971 5.885346,2.54693 12.113053,-1.45085 12.113053,-7.77573 0,-5.65416 -4.609832,-8.86698 -9.117989,-8.70325 z"
   id="path4640"
   inkscape:connector-curvature="0" /></svg>