<?xml version="1.0" encoding="UTF-8" standalone="no"?>
<!-- Generator: Adobe Illustrator 19.2.1, SVG Export Plug-In . SVG Version: 6.00 Build 0)  -->

<svg
   xmlns:dc="http://purl.org/dc/elements/1.1/"
   xmlns:cc="http://creativecommons.org/ns#"
   xmlns:rdf="http://www.w3.org/1999/02/22-rdf-syntax-ns#"
   xmlns:svg="http://www.w3.org/2000/svg"
   xmlns="http://www.w3.org/2000/svg"
   xmlns:sodipodi="http://sodipodi.sourceforge.net/DTD/sodipodi-0.dtd"
   xmlns:inkscape="http://www.inkscape.org/namespaces/inkscape"
   version="1.1"
   id="Layer_1"
   x="0px"
   y="0px"
   viewBox="0 0 512 512"
   style="enable-background:new 0 0 512 512;"
   xml:space="preserve"
   sodipodi:docname="chinook.svg"
   inkscape:version="0.92.3 (2405546, 2018-03-11)"><metadata
     id="metadata4385"><rdf:RDF><cc:Work
         rdf:about=""><dc:format>image/svg+xml</dc:format><dc:type
           rdf:resource="http://purl.org/dc/dcmitype/StillImage" /><dc:title></dc:title></cc:Work></rdf:RDF></metadata><defs
     id="defs4383" /><sodipodi:namedview
     pagecolor="#ffffff"
     bordercolor="#666666"
     borderopacity="1"
     objecttolerance="10"
     gridtolerance="10"
     guidetolerance="10"
     inkscape:pageopacity="0"
     inkscape:pageshadow="2"
     inkscape:window-width="958"
     inkscape:window-height="1049"
     id="namedview4381"
     showgrid="false"
     inkscape:pagecheckerboard="true"
     inkscape:zoom="1.3037281"
     inkscape:cx="204.4026"
     inkscape:cy="246.93741"
     inkscape:window-x="1920"
     inkscape:window-y="0"
     inkscape:window-maximized="0"
     inkscape:current-layer="Layer_1"
     inkscape:snap-object-midpoints="true" /><style
     type="text/css"
     id="style4376">
	.st0{fill:#000000;}
</style><path
     style="fill:#000000;stroke-width:0.99999994"
     d="m 94.291268,500.92514 c -22.23027,-7.91917 -34.31478,-17.91761 -47.7275,-39.48855 -21.4591,-34.5115 -13.59444,-84.8327 17.32452,-110.84928 18.16151,-15.2819 45.003632,-24.15465 65.935812,-21.79527 l 17.95151,2.0234 V 174.23158 17.647717 l 9.46205,-6.199795 c 8.22431,-5.3887466 28.96463,-6.0513836 158.54722,-5.0652666 120.36811,0.91597 150.37137,2.202767 155.76271,6.6805186 6.11974,5.082694 6.5859,22.728509 5.58013,211.222616 l -1.09749,205.67659 -11.65729,16.81774 c -38.2959,55.24891 -119.25288,50.93927 -151.36302,-8.05764 -9.56964,-17.58259 -10.7286,-23.44394 -9.37444,-47.40944 1.98847,-35.19108 15.53194,-56.04746 47.12913,-72.57693 17.64641,-9.2314 25.82524,-11.1654 42.79565,-10.11964 l 20.98,1.29281 -1.08578,-71.61919 -1.08575,-71.61919 h -99.4711 -99.47109 l -1.98943,139.25954 c -1.96722,137.70563 -2.09526,139.44427 -11.47586,155.81618 -21.12973,36.87771 -65.71984,53.41009 -105.669982,39.17852 z"
     id="path846"
     inkscape:connector-curvature="0" /></svg>