<?xml version="1.0" encoding="UTF-8" standalone="no"?>
<!-- Generator: Adobe Illustrator 19.2.1, SVG Export Plug-In . SVG Version: 6.00 Build 0)  -->

<svg
   xmlns:dc="http://purl.org/dc/elements/1.1/"
   xmlns:cc="http://creativecommons.org/ns#"
   xmlns:rdf="http://www.w3.org/1999/02/22-rdf-syntax-ns#"
   xmlns:svg="http://www.w3.org/2000/svg"
   xmlns="http://www.w3.org/2000/svg"
   xmlns:sodipodi="http://sodipodi.sourceforge.net/DTD/sodipodi-0.dtd"
   xmlns:inkscape="http://www.inkscape.org/namespaces/inkscape"
   version="1.1"
   id="Layer_1"
   x="0px"
   y="0px"
   viewBox="0 0 512 512"
   style="enable-background:new 0 0 512 512;"
   xml:space="preserve"
   sodipodi:docname="collapseLeft.svg"
   inkscape:version="0.92.3 (2405546, 2018-03-11)"><metadata
     id="metadata4385"><rdf:RDF><cc:Work
         rdf:about=""><dc:format>image/svg+xml</dc:format><dc:type
           rdf:resource="http://purl.org/dc/dcmitype/StillImage" /><dc:title></dc:title></cc:Work></rdf:RDF></metadata><defs
     id="defs4383" /><sodipodi:namedview
     pagecolor="#ffffff"
     bordercolor="#666666"
     borderopacity="1"
     objecttolerance="10"
     gridtolerance="10"
     guidetolerance="10"
     inkscape:pageopacity="0"
     inkscape:pageshadow="2"
     inkscape:window-width="958"
     inkscape:window-height="1049"
     id="namedview4381"
     showgrid="false"
     inkscape:pagecheckerboard="true"
     inkscape:zoom="0.65186405"
     inkscape:cx="103.71936"
     inkscape:cy="93.533885"
     inkscape:window-x="1920"
     inkscape:window-y="0"
     inkscape:window-maximized="0"
     inkscape:current-layer="Layer_1"
     inkscape:snap-object-midpoints="true" /><style
     type="text/css"
     id="style4376">
	.st0{fill:#000000;}
</style><path
     style="fill:#000000;stroke-width:1"
     d="m 505.63499,475.90364 c -3.15509,17.56931 -20.0362,30.72117 -37.92408,29.54616 -7.70004,-0.5058 -14.70749,-3.18381 -20.49739,-7.83342 -5.15951,-4.14338 -215.72019,-214.56159 -218.58176,-218.43386 -5.53759,-7.49347 -7.89281,-14.1818 -7.89281,-22.41386 0,-10.0253 3.98045,-19.24542 12.208,-28.27801 1.65582,-1.81783 50.91207,-51.11327 109.45833,-109.54543 99.0717,-98.878621 106.69483,-106.367151 110.01358,-108.071111 10.73063,-5.5094802 22.35064,-5.8530902 32.60197,-0.9640502 9.74639,4.6482202 15.91609,11.5456402 19.41165,21.7012602 1.23803,3.59682 1.40688,4.85268 1.43834,10.69752 0.0301,5.5834 -0.1515,7.22162 -1.15731,10.44282 -1.78557,5.71841 -4.25546,10.01247 -8.66559,15.06566 -2.18234,2.50055 -45.38538,45.805841 -96.00674,96.233981 -50.62137,50.42815 -92.03885,91.92676 -92.03885,92.21915 0,0.29239 43.1969,43.70559 95.99311,96.47378 104.99855,104.94282 97.86705,97.41268 100.63326,106.25852 1.27021,4.06188 1.77859,12.60031 1.00629,16.90089 z m -214.49724,-2.362 c -1.40947,13.94829 -11.83427,26.25742 -25.92551,30.61168 -3.10154,0.95839 -4.97093,1.17971 -9.93341,1.17599 -9.44837,-0.007 -15.51939,-2.15289 -23.5462,-8.32245 C 226.15646,492.7209 16.421584,282.70287 13.393744,278.3732 c -3.2268,-4.61418 -5.7953201,-10.21682 -6.7600401,-14.74548 -1.52085,-7.13929 -0.25075,-16.23076 3.23553,-23.16004 3.8082801,-7.5693 3.7307601,-7.48911 112.9282461,-116.81527 58.57591,-58.644931 107.88873,-107.741441 109.58404,-109.103351 6.98722,-5.6131302 13.71469,-7.8903102 23.15202,-7.8367302 5.43968,0.0309 6.96142,0.23123 10.44281,1.37495 16.54725,5.4361602 27.00171,21.4113602 25.16366,38.4519702 -0.68587,6.35872 -2.53835,11.41497 -6.19537,16.90993 -0.83908,1.26078 -44.36476,45.161981 -96.72374,97.558231 l -95.198146,95.2659 95.310786,95.25185 c 52.42094,52.38852 95.98439,96.22014 96.80766,97.40362 4.73143,6.80153 6.89784,15.69356 5.99655,24.61286 z"
     id="path827"
     inkscape:connector-curvature="0" /></svg>