<?xml version="1.0" encoding="UTF-8" standalone="no"?>
<!-- Generator: Adobe Illustrator 19.2.1, SVG Export Plug-In . SVG Version: 6.00 Build 0)  -->

<svg
   xmlns:dc="http://purl.org/dc/elements/1.1/"
   xmlns:cc="http://creativecommons.org/ns#"
   xmlns:rdf="http://www.w3.org/1999/02/22-rdf-syntax-ns#"
   xmlns:svg="http://www.w3.org/2000/svg"
   xmlns="http://www.w3.org/2000/svg"
   xmlns:sodipodi="http://sodipodi.sourceforge.net/DTD/sodipodi-0.dtd"
   xmlns:inkscape="http://www.inkscape.org/namespaces/inkscape"
   version="1.1"
   id="Layer_1"
   x="0px"
   y="0px"
   viewBox="0 0 512 512"
   style="enable-background:new 0 0 512 512;"
   xml:space="preserve"
   sodipodi:docname="collapseRight.svg"
   inkscape:version="0.92.3 (2405546, 2018-03-11)"><metadata
     id="metadata4385"><rdf:RDF><cc:Work
         rdf:about=""><dc:format>image/svg+xml</dc:format><dc:type
           rdf:resource="http://purl.org/dc/dcmitype/StillImage" /><dc:title></dc:title></cc:Work></rdf:RDF></metadata><defs
     id="defs4383" /><sodipodi:namedview
     pagecolor="#ffffff"
     bordercolor="#666666"
     borderopacity="1"
     objecttolerance="10"
     gridtolerance="10"
     guidetolerance="10"
     inkscape:pageopacity="0"
     inkscape:pageshadow="2"
     inkscape:window-width="958"
     inkscape:window-height="1049"
     id="namedview4381"
     showgrid="false"
     inkscape:pagecheckerboard="true"
     inkscape:zoom="0.65186405"
     inkscape:cx="103.71936"
     inkscape:cy="93.533885"
     inkscape:window-x="1920"
     inkscape:window-y="0"
     inkscape:window-maximized="0"
     inkscape:current-layer="Layer_1"
     inkscape:snap-object-midpoints="true" /><style
     type="text/css"
     id="style4376">
	.st0{fill:#000000;}
</style><path
     style="fill:#000000;stroke-width:1"
     d="M 6.3650088,36.096358 C 9.5200988,18.527048 26.401209,5.3751884 44.289089,6.5501984 c 7.70004,0.5058 14.70749,3.18381 20.49739,7.8334196 5.15951,4.14338 215.720191,214.561592 218.581761,218.433862 5.53759,7.49347 7.89281,14.1818 7.89281,22.41386 0,10.0253 -3.98045,19.24542 -12.208,28.27801 -1.65582,1.81783 -50.91207,51.11327 -109.45833,109.54543 C 70.523019,491.9334 62.899889,499.42193 59.581139,501.12589 c -10.73063,5.50948 -22.35064,5.85309 -32.60197,0.96405 -9.74639,-4.64822 -15.91609,-11.54564 -19.4116502,-21.70126 -1.23803,-3.59682 -1.40688,-4.85268 -1.43834,-10.69752 -0.0301,-5.5834 0.1515,-7.22162 1.15731,-10.44282 1.78557,-5.71841 4.2554602,-10.01247 8.6655902,-15.06566 2.18234,-2.50055 45.38538,-45.80584 96.006741,-96.23398 50.62137,-50.42815 92.03885,-91.92676 92.03885,-92.21915 0,-0.29239 -43.1969,-43.70559 -95.99311,-96.47378 C 3.0060088,54.312948 10.137509,61.843088 7.3712988,52.997248 c -1.27021,-4.06188 -1.77859,-12.60031 -1.00629,-16.90089 z m 214.4972412,2.362 c 1.40947,-13.94829 11.83427,-26.25742 25.92551,-30.6116796 3.10154,-0.95839 4.97093,-1.17971 9.93341,-1.17599 9.44837,0.007 15.51939,2.15289 23.5462,8.3224496 5.57617,4.28596 215.31104,214.303992 218.33888,218.633662 3.2268,4.61418 5.79532,10.21682 6.76004,14.74548 1.52085,7.13929 0.25075,16.23076 -3.23553,23.16004 -3.80828,7.5693 -3.73076,7.48911 -112.92824,116.81527 -58.57591,58.64493 -107.88873,107.74144 -109.58404,109.10335 -6.98722,5.61313 -13.71469,7.89031 -23.15202,7.83673 -5.43968,-0.0309 -6.96142,-0.23123 -10.44281,-1.37495 -16.54725,-5.43616 -27.00171,-21.41136 -25.16366,-38.45197 0.68587,-6.35872 2.53835,-11.41497 6.19537,-16.90993 0.83908,-1.26078 44.36476,-45.16198 96.72374,-97.55823 l 95.19814,-95.2659 -95.31078,-95.25185 C 271.24552,108.08632 227.68207,64.254698 226.8588,63.071218 c -4.73143,-6.80153 -6.89784,-15.69356 -5.99655,-24.61286 z"
     id="path827"
     inkscape:connector-curvature="0" /></svg>