<?xml version="1.0" encoding="UTF-8" standalone="no"?>
<!-- Generator: Adobe Illustrator 21.1.0, SVG Export Plug-In . SVG Version: 6.00 Build 0)  -->

<svg
   xmlns:dc="http://purl.org/dc/elements/1.1/"
   xmlns:cc="http://creativecommons.org/ns#"
   xmlns:rdf="http://www.w3.org/1999/02/22-rdf-syntax-ns#"
   xmlns:svg="http://www.w3.org/2000/svg"
   xmlns="http://www.w3.org/2000/svg"
   xmlns:sodipodi="http://sodipodi.sourceforge.net/DTD/sodipodi-0.dtd"
   xmlns:inkscape="http://www.inkscape.org/namespaces/inkscape"
   version="1.1"
   id="Layer_1"
   inkscape:version="0.92.3 (2405546, 2018-03-11)"
   sodipodi:docname="connect.svg"
   x="0px"
   y="0px"
   viewBox="0 0 512 512"
   style="enable-background:new 0 0 512 512;"
   xml:space="preserve"><metadata
   id="metadata78"><rdf:RDF><cc:Work
       rdf:about=""><dc:format>image/svg+xml</dc:format><dc:type
         rdf:resource="http://purl.org/dc/dcmitype/StillImage" /><dc:title /></cc:Work></rdf:RDF></metadata><defs
   id="defs76" />
<style
   type="text/css"
   id="style64">
	.st0{display:none;fill:#EFEAEA;}
	.st1{fill:none;stroke:#000000;stroke-width:49;stroke-miterlimit:10;}
	.st2{fill:#262626;}
</style>
<path
   class="st0"
   d="M420,500.3H91.1c-48.3,0-87.8-39.5-87.8-87.8V99c0-48.3,39.5-87.8,87.8-87.8H420c48.3,0,87.8,39.5,87.8,87.8  v313.5C507.8,460.8,468.3,500.3,420,500.3z"
   id="path66" />
<sodipodi:namedview
   bordercolor="#666666"
   borderopacity="1"
   gridtolerance="10"
   guidetolerance="10"
   id="namedview4578"
   inkscape:current-layer="Layer_1"
   inkscape:cx="288.16748"
   inkscape:cy="288.58565"
   inkscape:pagecheckerboard="true"
   inkscape:pageopacity="0"
   inkscape:pageshadow="2"
   inkscape:snap-intersection-paths="true"
   inkscape:snap-object-midpoints="true"
   inkscape:window-height="1054"
   inkscape:window-maximized="1"
   inkscape:window-width="1920"
   inkscape:window-x="1920"
   inkscape:window-y="0"
   inkscape:zoom="1.2705825"
   objecttolerance="10"
   pagecolor="#ffffff"
   showgrid="false">
	</sodipodi:namedview>



<path
   style="fill:#000000;stroke:none;stroke-width:8.65091896;stroke-miterlimit:4;stroke-dasharray:none"
   d="M 87.361328 29.544922 A 81.065186 81.065186 0 0 0 6.296875 110.60938 A 81.065186 81.065186 0 0 0 87.361328 191.67383 A 81.065186 81.065186 0 0 0 168.42578 110.60938 A 81.065186 81.065186 0 0 0 87.361328 29.544922 z M 198.6543 61.410156 L 198.40234 61.414062 L 194.3418 61.482422 L 194.10156 61.486328 L 193.86133 61.494141 L 189.80469 61.632812 L 189.57617 61.640625 L 189.34961 61.652344 L 185.30078 61.857422 L 185.08203 61.869141 L 184.86523 61.882812 L 180.83008 62.152344 L 180.62305 62.166016 L 180.41602 62.181641 L 176.39648 62.509766 L 176.19922 62.527344 L 176.00391 62.544922 L 175.67383 62.578125 L 180.51367 112.86328 L 180.87891 117.32812 L 180.94336 117.32227 L 180.94336 117.32422 L 181.04688 117.31445 L 184.77539 117.00977 L 188.30664 116.77539 L 191.89062 116.59375 L 195.51758 116.4707 L 199.1543 116.41016 L 202.58789 116.41797 L 206.12109 116.49219 L 209.52344 116.63281 L 213.05273 116.85352 L 216.3457 117.13477 L 219.6543 117.49609 L 222.90625 117.93164 L 226.06641 118.44141 L 227.96484 118.80273 L 238.23438 64.769531 L 235.99219 64.34375 L 235.61719 64.271484 L 235.24219 64.210938 L 231.33398 63.580078 L 230.97656 63.523438 L 230.61914 63.474609 L 226.67578 62.943359 L 226.33594 62.898438 L 225.99414 62.861328 L 222.01953 62.425781 L 221.69531 62.390625 L 221.37109 62.363281 L 217.36914 62.021484 L 217.06055 61.996094 L 216.75195 61.976562 L 212.72852 61.724609 L 212.43555 61.705078 L 212.14258 61.693359 L 208.10352 61.527344 L 207.82422 61.515625 L 207.54492 61.509766 L 203.49414 61.423828 L 203.22852 61.417969 L 202.96484 61.417969 L 198.90625 61.410156 L 198.6543 61.410156 z M 301.33398 96.013672 L 262.40625 134.86719 L 263.54883 136.01172 L 264.48828 137.00391 L 265.38477 138.00195 L 266.16992 138.92578 L 266.91406 139.85352 L 267.63086 140.80469 L 268.23828 141.66016 L 268.81836 142.53516 L 269.35938 143.40625 L 269.83008 144.22266 L 270.25 145.00391 L 270.65234 145.81641 L 270.99414 146.56641 L 271.33398 147.38281 L 271.61523 148.125 L 271.88281 148.91016 L 272.10352 149.63672 L 272.32227 150.44141 L 272.48828 151.14648 L 272.6582 151.98633 L 272.78711 152.74219 L 272.90234 153.58203 L 272.99219 154.41406 L 273.04102 155.07031 L 273.10547 157.04492 L 273.06445 158.91016 L 272.91406 160.92773 L 272.81836 161.70117 L 327.40234 168.45898 L 327.58008 167.01953 L 327.66211 166.35547 L 327.71289 165.68555 L 327.96484 162.29688 L 328.01953 161.58203 L 328.03516 160.86328 L 328.10938 157.49805 L 328.12695 156.73633 L 328.10156 155.97461 L 327.99023 152.63281 L 327.9707 152.03516 L 327.92383 151.4375 L 327.79688 149.77734 L 327.76562 149.36719 L 327.72266 148.95703 L 327.54492 147.30273 L 327.5 146.88477 L 327.44336 146.46875 L 327.21484 144.81836 L 327.15625 144.39648 L 327.08594 143.97461 L 326.80664 142.33008 L 326.73242 141.90234 L 326.64648 141.47656 L 326.31641 139.83984 L 326.22852 139.4082 L 326.12695 138.98047 L 325.74219 137.34766 L 325.64062 136.91602 L 325.52344 136.48828 L 325.08398 134.86133 L 324.96875 134.42969 L 324.83789 134.00195 L 324.3418 132.38086 L 324.21094 131.95117 L 324.06445 131.52539 L 323.51367 129.91211 L 323.36719 129.48438 L 323.20898 129.06445 L 322.59961 127.45508 L 322.43945 127.03516 L 322.26562 126.61914 L 321.59961 125.01758 L 321.42578 124.60156 L 321.24023 124.19336 L 320.51367 122.59766 L 320.32812 122.19141 L 320.12891 121.79297 L 319.3418 120.20312 L 319.14648 119.80664 L 318.9375 119.41602 L 318.08789 117.83203 L 317.88086 117.44727 L 317.66211 117.06836 L 316.75 115.49023 L 316.53516 115.11719 L 316.30664 114.75 L 315.33203 113.17969 L 315.10742 112.81836 L 314.87305 112.46484 L 313.83398 110.90039 L 313.60352 110.55273 L 313.36133 110.21094 L 312.25781 108.65234 L 312.02148 108.31836 L 311.77539 107.99219 L 310.60352 106.43945 L 310.36328 106.12109 L 310.11328 105.80859 L 308.87305 104.26367 L 308.62891 103.95898 L 308.37695 103.66016 L 307.07031 102.12109 L 306.82422 101.83008 L 306.57031 101.54688 L 305.19336 100.01367 L 304.94531 99.738281 L 304.69141 99.46875 L 303.24414 97.941406 L 302.99805 97.681641 L 302.74414 97.425781 L 301.33398 96.013672 z M 256.66016 203.70117 L 256.29688 204.40234 L 252.46484 211.51758 L 252.43945 211.5625 L 244.00977 226.85352 L 243.98828 226.89062 L 243.96875 226.92578 L 239.69922 234.72656 L 239.63086 234.84961 L 239.56445 234.97461 L 235.35156 242.86133 L 235.24414 243.06055 L 235.14062 243.26367 L 231.05078 251.23438 L 230.94727 251.43555 L 230.84961 251.63672 L 230.35352 252.64062 L 279.69141 276.94727 L 280.08594 276.14648 L 283.93164 268.65039 L 287.94141 261.13867 L 287.99219 261.04492 L 292.17188 253.41211 L 292.21094 253.33984 L 300.62891 238.07617 L 300.69336 237.95703 L 300.75781 237.83789 L 304.81641 230.30273 L 304.91992 230.11133 L 305.01953 229.91797 L 305.48828 229.01562 L 256.66016 203.70117 z M 209.52734 311.35742 L 209.29492 312.60547 L 209.20703 313.07812 L 209.13477 313.55469 L 208.48828 317.8418 L 208.41406 318.34375 L 208.35547 318.84766 L 207.86914 323.1543 L 207.80859 323.68359 L 207.76953 324.21484 L 207.44922 328.54102 L 207.4082 329.0957 L 207.38867 329.65039 L 207.24414 333.99805 L 207.22461 334.57422 L 207.22852 335.15234 L 207.26562 339.51953 L 207.27148 340.11523 L 207.30273 340.71094 L 207.5293 345.09961 L 207.55273 345.55664 L 207.5918 346.01172 L 207.7793 348.21289 L 207.80664 348.52148 L 207.83984 348.83008 L 208.07812 351.03711 L 208.11133 351.34766 L 208.15234 351.66016 L 208.44336 353.87109 L 208.48438 354.18359 L 208.53125 354.49609 L 208.875 356.71289 L 208.92383 357.02734 L 208.98047 357.3418 L 209.37695 359.5625 L 209.43359 359.87695 L 209.49609 360.19141 L 209.94727 362.41797 L 210.02148 362.78125 L 210.10547 363.14258 L 210.57422 365.17383 L 210.66992 365.58789 L 210.77734 366 L 211.30078 367.98438 L 211.41211 368.40234 L 211.53516 368.81641 L 212.11133 370.75391 L 212.23633 371.17383 L 212.375 371.58789 L 213.00391 373.47852 L 213.14453 373.90039 L 213.29688 374.31641 L 213.97852 376.16016 L 214.13281 376.58008 L 214.30078 376.99414 L 215.0332 378.79297 L 215.20117 379.21094 L 215.38477 379.62305 L 216.16602 381.37695 L 216.34961 381.79102 L 216.54883 382.19922 L 216.63867 382.38477 L 247.02344 367.64258 L 266.41406 359.01367 L 265.81836 357.67773 L 265.41797 356.69141 L 265.05273 355.69727 L 264.70117 354.64062 L 264.37695 353.55273 L 264.07227 352.39844 L 263.7832 351.15625 L 263.45508 349.53125 L 263.18359 348.01172 L 262.93555 346.41016 L 262.72461 344.80664 L 262.54883 343.18164 L 262.43164 341.79492 L 262.25781 338.44336 L 262.23242 335.28711 L 262.3418 332.03125 L 262.58008 328.80078 L 262.95117 325.53516 L 263.45117 322.21875 L 263.59375 321.45117 L 209.52734 311.35742 z M 425.00195 319.96289 A 81.065186 81.065186 0 0 0 343.9375 401.02734 A 81.065186 81.065186 0 0 0 425.00195 482.0918 A 81.065186 81.065186 0 0 0 506.06641 401.02734 A 81.065186 81.065186 0 0 0 425.00195 319.96289 z M 291.51172 378.07812 L 274.0957 430.24805 L 276.38672 431.01172 L 276.83594 431.16211 L 277.28906 431.29688 L 281.07812 432.41797 L 281.50391 432.54297 L 281.93164 432.6543 L 285.79492 433.66406 L 286.19531 433.76953 L 286.60156 433.86133 L 290.5293 434.76172 L 290.9082 434.84961 L 291.28906 434.92578 L 295.2793 435.7207 L 295.63477 435.79297 L 295.99414 435.85547 L 300.03516 436.55078 L 300.37109 436.60938 L 300.70898 436.6582 L 304.79492 437.25781 L 305.11133 437.30469 L 305.42969 437.34375 L 309.55078 437.85156 L 309.84961 437.88867 L 310.14844 437.91797 L 314.30273 438.33789 L 314.58398 438.36523 L 314.86523 438.38867 L 319.04102 438.72266 L 319.30664 438.74414 L 319.57227 438.75977 L 323.76172 439.01562 L 324.01367 439.0293 L 324.26367 439.04102 L 328.46289 439.21875 L 328.69922 439.22852 L 328.93555 439.23438 L 333.13477 439.3418 L 333.35742 439.3457 L 333.58203 439.34766 L 336.77734 439.37695 L 337.27344 384.37891 L 334.28906 384.35352 L 330.58398 384.25781 L 326.87109 384.10156 L 323.18359 383.87891 L 319.55078 383.58789 L 315.91016 383.21875 L 312.45312 382.79297 L 309.04102 382.29297 L 305.70508 381.7168 L 302.46094 381.07031 L 299.30273 380.34766 L 296.31055 379.56641 L 293.33203 378.68555 L 291.51172 378.07812 z "
   id="path5247" /></svg>