<?xml version="1.0" encoding="UTF-8" standalone="no"?>
<!-- Generator: Adobe Illustrator 21.1.0, SVG Export Plug-In . SVG Version: 6.00 Build 0)  -->

<svg
   xmlns:dc="http://purl.org/dc/elements/1.1/"
   xmlns:cc="http://creativecommons.org/ns#"
   xmlns:rdf="http://www.w3.org/1999/02/22-rdf-syntax-ns#"
   xmlns:svg="http://www.w3.org/2000/svg"
   xmlns="http://www.w3.org/2000/svg"
   xmlns:sodipodi="http://sodipodi.sourceforge.net/DTD/sodipodi-0.dtd"
   xmlns:inkscape="http://www.inkscape.org/namespaces/inkscape"
   version="1.1"
   id="Layer_1"
   inkscape:version="0.92.3 (2405546, 2018-03-11)"
   sodipodi:docname="connectiveFilter.svg"
   x="0px"
   y="0px"
   viewBox="0 0 512 512"
   style="enable-background:new 0 0 512 512;"
   xml:space="preserve"><metadata
   id="metadata153"><rdf:RDF><cc:Work
       rdf:about=""><dc:format>image/svg+xml</dc:format><dc:type
         rdf:resource="http://purl.org/dc/dcmitype/StillImage" /><dc:title /></cc:Work></rdf:RDF></metadata><defs
   id="defs151"><marker
     inkscape:stockid="Arrow2Send"
     orient="auto"
     refY="0.0"
     refX="0.0"
     id="Arrow2Send"
     style="overflow:visible;"
     inkscape:isstock="true"><path
       id="path2859"
       style="fill-rule:evenodd;stroke-width:0.625;stroke-linejoin:round;stroke:#000000;stroke-opacity:1;fill:#000000;fill-opacity:1"
       d="M 8.7185878,4.0337352 L -2.2072895,0.016013256 L 8.7185884,-4.0017078 C 6.9730900,-1.6296469 6.9831476,1.6157441 8.7185878,4.0337352 z "
       transform="scale(0.3) rotate(180) translate(-2.3,0)" /></marker></defs>
<style
   type="text/css"
   id="style139">
	.st0{display:none;fill:#EFEAEA;}
	.st1{fill:none;stroke:#000000;stroke-width:89;stroke-miterlimit:10;}
	.st2{fill:#262626;}
</style>
<path
   style="fill:#000000;fill-opacity:1;stroke:none;stroke-width:40;stroke-linecap:round;stroke-miterlimit:4;stroke-dasharray:none;stroke-dashoffset:0;stroke-opacity:1"
   d="M 384.60156 0.31835938 L 384.33203 0.32226562 L 381.76758 0.35742188 L 381.49805 0.36132812 L 381.22656 0.37304688 L 378.65625 0.47265625 L 378.38477 0.48242188 L 378.11523 0.5 L 376.60742 0.59570312 L 354.67773 1.9902344 L 357.46484 45.849609 L 379.39648 44.457031 L 380.65625 44.376953 L 382.63477 44.300781 L 384.71289 44.271484 L 386.69141 44.292969 L 388.70117 44.363281 L 390.70117 44.482422 L 392.72266 44.652344 L 394.74609 44.871094 L 396.67773 45.126953 L 398.68945 45.443359 L 400.69727 45.810547 L 402.56055 46.197266 L 404.55273 46.660156 L 406.50391 47.164062 L 408.42188 47.710938 L 410.33398 48.302734 L 412.17578 48.921875 L 413.67188 49.464844 L 434.32812 56.966797 L 449.33008 15.65625 L 428.67578 8.15625 L 426.96875 7.5351562 L 426.7207 7.4453125 L 426.47266 7.3613281 L 424.08398 6.5585938 L 423.83594 6.4746094 L 423.58398 6.3984375 L 421.17578 5.6503906 L 420.92578 5.5722656 L 420.67383 5.5019531 L 418.24609 4.8125 L 417.99414 4.7402344 L 417.73828 4.6757812 L 415.29492 4.0429688 L 415.04102 3.9765625 L 414.7832 3.9179688 L 412.32227 3.3457031 L 412.06641 3.2851562 L 411.80664 3.2304688 L 409.33203 2.7167969 L 409.07227 2.6640625 L 408.8125 2.6171875 L 406.32422 2.1621094 L 406.0625 2.1132812 L 405.80078 2.0722656 L 403.29883 1.6777344 L 403.03516 1.6367188 L 402.77344 1.6015625 L 400.25781 1.2675781 L 399.99414 1.2324219 L 399.72852 1.203125 L 397.20312 0.92773438 L 396.9375 0.90039062 L 396.67188 0.87695312 L 394.13672 0.6640625 L 393.86914 0.64257812 L 393.60352 0.62695312 L 391.05859 0.47460938 L 390.78906 0.45898438 L 390.52148 0.44921875 L 387.96875 0.359375 L 387.69922 0.3515625 L 387.42969 0.34765625 L 384.87109 0.32226562 L 384.60156 0.31835938 z M 298.55273 31.425781 L 285.08984 48.791016 L 283.82227 50.425781 L 283.66016 50.634766 L 283.50195 50.849609 L 282.00195 52.886719 L 281.84375 53.097656 L 281.69336 53.314453 L 280.24219 55.386719 L 280.08984 55.603516 L 279.94336 55.822266 L 278.54492 57.923828 L 278.39844 58.144531 L 278.25781 58.367188 L 276.91016 60.501953 L 276.76953 60.722656 L 276.63477 60.949219 L 275.33984 63.113281 L 275.20312 63.337891 L 275.07422 63.566406 L 273.83203 65.761719 L 273.70312 65.990234 L 273.57812 66.220703 L 272.39062 68.441406 L 272.26562 68.673828 L 272.14844 68.908203 L 271.01367 71.15625 L 270.89258 71.390625 L 270.7832 71.626953 L 269.70117 73.900391 L 269.58789 74.138672 L 269.48047 74.376953 L 268.45508 76.677734 L 268.34766 76.916016 L 268.24609 77.158203 L 267.27539 79.480469 L 267.17383 79.722656 L 267.07812 79.966797 L 266.16406 82.3125 L 266.06836 82.556641 L 265.97852 82.802734 L 265.11914 85.169922 L 265.0293 85.417969 L 264.94531 85.666016 L 264.14062 88.052734 L 264.05859 88.302734 L 263.98047 88.552734 L 263.23438 90.960938 L 263.15625 91.212891 L 263.08398 91.464844 L 262.39453 93.890625 L 262.32422 94.146484 L 262.25586 94.398438 L 261.87305 95.888672 L 256.37891 117.16406 L 298.93164 128.1543 L 304.42578 106.87695 L 304.74805 105.63086 L 305.28125 103.75781 L 305.88672 101.80469 L 306.50586 99.962891 L 307.18555 98.087891 L 307.94141 96.150391 L 308.69141 94.353516 L 309.48633 92.576172 L 310.37891 90.699219 L 311.2793 88.917969 L 312.19727 87.205078 L 313.17969 85.46875 L 314.22461 83.722656 L 315.28125 82.048828 L 316.41406 80.347656 L 317.50781 78.789062 L 318.71875 77.148438 L 319.82422 75.720703 L 333.28906 58.353516 L 298.55273 31.425781 z M 494.29102 59.662109 L 464.03516 72.101562 L 454.06055 75.910156 L 454.15625 76.162109 L 453.64258 76.373047 L 461.99805 96.699219 L 462.01172 96.736328 L 462.76953 98.71875 L 463.48633 100.75 L 464.12891 102.72656 L 464.73438 104.76953 L 465.27344 106.76367 L 465.77344 108.81836 L 466.2207 110.87891 L 466.60156 112.89062 L 466.93359 114.91406 L 467.22266 116.99219 L 467.44922 118.97852 L 467.62891 121.01562 L 467.75586 123.01172 L 467.83789 125.07227 L 467.86523 127.13477 L 467.8457 129.11133 L 467.78516 130.83984 L 467.01562 152.80273 L 510.93945 154.33984 L 511.70703 132.37695 L 511.77734 130.38477 L 511.78711 130.11523 L 511.78906 129.84766 L 511.81641 127.28711 L 511.81836 127.01758 L 511.81445 126.75 L 511.7793 124.18555 L 511.77539 123.91406 L 511.76562 123.64258 L 511.66406 121.07422 L 511.6543 120.80273 L 511.63867 120.53125 L 511.47461 117.95898 L 511.45508 117.6875 L 511.43164 117.41602 L 511.20508 114.83984 L 511.17969 114.56836 L 511.14844 114.29688 L 510.85742 111.7207 L 510.82617 111.44922 L 510.78711 111.17773 L 510.42969 108.60156 L 510.39258 108.32812 L 510.3457 108.05664 L 509.92383 105.48242 L 509.87891 105.21094 L 509.82812 104.93945 L 509.33789 102.36523 L 509.28516 102.0957 L 509.22852 101.82422 L 509.13086 101.38086 L 511.10742 100.56836 L 502.85742 80.501953 L 495.11719 60.232422 L 494.60742 60.427734 L 494.29102 59.662109 z M 303.50586 155.01758 L 267.0293 179.5332 L 279.28906 197.77148 L 280.28711 199.25586 L 280.43945 199.48438 L 280.59961 199.70898 L 282.10352 201.83203 L 282.26172 202.05469 L 282.42578 202.27344 L 283.97852 204.35156 L 284.14258 204.56836 L 284.31055 204.78516 L 285.9082 206.81641 L 286.07812 207.03125 L 286.25 207.24023 L 287.89453 209.22656 L 288.06836 209.43555 L 288.24609 209.64062 L 289.93359 211.58008 L 290.11133 211.78516 L 290.29492 211.98438 L 290.42578 212.12695 L 217.35742 248.13086 C 225.8928 249.31706 233.90511 252.10187 241.08008 256.16406 L 211.02148 287.74805 A 128 128 0 0 0 126.88672 256 A 128 128 0 0 0 -1.1132812 384 A 128 128 0 0 0 126.88672 512 A 128 128 0 0 0 254.88672 384 A 128 128 0 0 0 232.46289 311.63867 L 264.27344 278.21094 C 268.64473 285.12749 271.7488 292.92341 273.23828 301.30859 L 299.02344 241.69336 L 299.47656 241.2168 L 299.30078 241.05078 L 305.61523 226.45312 L 305.79688 226.59961 L 306.00781 226.76172 L 308.00977 228.31445 L 308.21875 228.47852 L 308.43164 228.63477 L 310.46875 230.13672 L 310.68164 230.29492 L 310.89844 230.44727 L 312.96875 231.89648 L 313.18555 232.04883 L 313.40625 232.19336 L 315.50781 233.59375 L 315.72656 233.74023 L 315.95117 233.88086 L 317.01953 234.55664 L 335.59961 246.28906 L 359.06641 209.12695 L 340.48633 197.39453 L 339.62695 196.85352 L 337.95898 195.74219 L 336.37109 194.63086 L 334.72852 193.41992 L 333.11914 192.16992 L 331.60938 190.93945 L 330.06445 189.61523 L 328.54688 188.25391 L 327.14844 186.93555 L 325.66797 185.46875 L 324.30078 184.04688 L 322.91016 182.52344 L 321.55664 180.9668 L 320.28125 179.42578 L 319.01953 177.82422 L 317.78711 176.17188 L 316.60742 174.50781 L 315.76562 173.25391 L 303.50586 155.01758 z M 454.77148 177.1582 L 437.8418 191.16992 L 437.00977 191.85742 L 435.40234 193.12109 L 433.79492 194.32227 L 432.13672 195.5 L 430.38672 196.67578 L 428.66016 197.77539 L 426.85547 198.86133 L 425.00781 199.9082 L 423.19336 200.87891 L 421.28906 201.83789 L 419.41016 202.72461 L 417.43945 203.59375 L 415.43945 204.41602 L 413.41992 205.18555 L 411.38672 205.9043 L 409.41211 206.54688 L 407.36914 207.15234 L 386.25781 212.85156 L 397.71094 255.28125 L 418.92578 249.55664 L 419.08789 249.51367 L 419.35547 249.43945 L 419.62305 249.36133 L 422.17773 248.60156 L 422.44336 248.52148 L 422.70898 248.43555 L 425.25781 247.60938 L 425.52148 247.52344 L 425.78516 247.42969 L 428.32422 246.5332 L 428.58594 246.44141 L 428.8457 246.3418 L 431.37695 245.37695 L 431.63672 245.27734 L 431.89453 245.17188 L 434.40039 244.14062 L 434.65625 244.0332 L 434.91211 243.91992 L 437.37695 242.83398 L 437.63086 242.72266 L 437.88281 242.60352 L 440.30469 241.46094 L 440.55664 241.3418 L 440.80469 241.2168 L 443.1875 240.01953 L 443.43555 239.89453 L 443.67969 239.76367 L 446.01953 238.51172 L 446.26367 238.38281 L 446.50391 238.24609 L 448.80078 236.93945 L 449.04297 236.80273 L 449.2793 236.66211 L 451.5332 235.30469 L 451.76953 235.16211 L 452.00195 235.01562 L 454.21289 233.60742 L 454.44531 233.46094 L 454.67383 233.30664 L 456.83984 231.85156 L 457.06836 231.69727 L 457.29102 231.53906 L 459.41406 230.0332 L 459.63867 229.875 L 459.85742 229.71094 L 461.93555 228.1582 L 462.15234 227.99609 L 462.36914 227.82617 L 464.40039 226.22852 L 464.61328 226.06055 L 464.82422 225.88672 L 465.86133 225.02734 L 482.79102 211.01758 L 454.77148 177.1582 z M 50.347656 330.03906 L 126.88672 330.03906 L 203.42578 330.03906 L 203.67969 332.2168 C 203.89777 334.09505 199.84133 338.42352 174.19336 363.67578 L 144.45312 392.95508 L 144.45312 416.78516 C 144.45312 438.44159 144.31864 440.73149 142.98828 441.87891 C 140.25377 444.2374 114.42687 458.44141 112.87305 458.44141 C 112.02304 458.44141 110.8763 457.98959 110.32422 457.4375 C 109.5788 456.69208 109.32031 448.27136 109.32031 424.72461 L 109.32031 393.01758 L 79.582031 363.69922 C 53.982395 338.46198 49.87663 334.07995 50.09375 332.21094 L 50.347656 330.03906 z "
   id="path2817" /><path
   class="st0"
   d="M419,501.3H90.1c-48.3,0-87.8-39.5-87.8-87.8V100c0-48.3,39.5-87.8,87.8-87.8H419c48.3,0,87.8,39.5,87.8,87.8  v313.5C506.8,461.8,467.3,501.3,419,501.3z"
   id="path141" />
<sodipodi:namedview
   bordercolor="#666666"
   borderopacity="1"
   gridtolerance="10"
   guidetolerance="10"
   id="namedview4578"
   inkscape:current-layer="Layer_1"
   inkscape:cx="386.80698"
   inkscape:cy="205.31752"
   inkscape:pagecheckerboard="true"
   inkscape:pageopacity="0"
   inkscape:pageshadow="2"
   inkscape:snap-intersection-paths="true"
   inkscape:snap-object-midpoints="true"
   inkscape:window-height="1002"
   inkscape:window-maximized="0"
   inkscape:window-width="1918"
   inkscape:window-x="1920"
   inkscape:window-y="0"
   inkscape:zoom="0.82324219"
   objecttolerance="10"
   pagecolor="#ffffff"
   showgrid="false"
   inkscape:snap-bbox="false"
   inkscape:snap-bbox-midpoints="false">
	</sodipodi:namedview>



</svg>