<?xml version="1.0" encoding="UTF-8" standalone="no"?>
<!-- Generator: Adobe Illustrator 21.1.0, SVG Export Plug-In . SVG Version: 6.00 Build 0)  -->

<svg
   xmlns:dc="http://purl.org/dc/elements/1.1/"
   xmlns:cc="http://creativecommons.org/ns#"
   xmlns:rdf="http://www.w3.org/1999/02/22-rdf-syntax-ns#"
   xmlns:svg="http://www.w3.org/2000/svg"
   xmlns="http://www.w3.org/2000/svg"
   xmlns:sodipodi="http://sodipodi.sourceforge.net/DTD/sodipodi-0.dtd"
   xmlns:inkscape="http://www.inkscape.org/namespaces/inkscape"
   version="1.1"
   id="Layer_1"
   inkscape:version="0.92.3 (2405546, 2018-03-11)"
   sodipodi:docname="connect.svg"
   x="0px"
   y="0px"
   viewBox="0 0 512 512"
   style="enable-background:new 0 0 512 512;"
   xml:space="preserve"><metadata
   id="metadata78"><rdf:RDF><cc:Work
       rdf:about=""><dc:format>image/svg+xml</dc:format><dc:type
         rdf:resource="http://purl.org/dc/dcmitype/StillImage" /><dc:title /></cc:Work></rdf:RDF></metadata><defs
   id="defs76" />
<style
   type="text/css"
   id="style64">
	.st0{display:none;fill:#EFEAEA;}
	.st1{fill:none;stroke:#000000;stroke-width:49;stroke-miterlimit:10;}
	.st2{fill:#262626;}
</style>
<path
   class="st0"
   d="M420,500.3H91.1c-48.3,0-87.8-39.5-87.8-87.8V99c0-48.3,39.5-87.8,87.8-87.8H420c48.3,0,87.8,39.5,87.8,87.8  v313.5C507.8,460.8,468.3,500.3,420,500.3z"
   id="path66" />
<sodipodi:namedview
   bordercolor="#666666"
   borderopacity="1"
   gridtolerance="10"
   guidetolerance="10"
   id="namedview4578"
   inkscape:current-layer="Layer_1"
   inkscape:cx="215.36623"
   inkscape:cy="288.58565"
   inkscape:pagecheckerboard="true"
   inkscape:pageopacity="0"
   inkscape:pageshadow="2"
   inkscape:snap-intersection-paths="true"
   inkscape:snap-object-midpoints="true"
   inkscape:window-height="1054"
   inkscape:window-maximized="1"
   inkscape:window-width="1920"
   inkscape:window-x="1920"
   inkscape:window-y="0"
   inkscape:zoom="1.2705825"
   objecttolerance="10"
   pagecolor="#ffffff"
   showgrid="false">
	</sodipodi:namedview>
<path
   style="color:#000000;font-style:normal;font-variant:normal;font-weight:normal;font-stretch:normal;font-size:medium;line-height:normal;font-family:sans-serif;font-variant-ligatures:normal;font-variant-position:normal;font-variant-caps:normal;font-variant-numeric:normal;font-variant-alternates:normal;font-feature-settings:normal;text-indent:0;text-align:start;text-decoration:none;text-decoration-line:none;text-decoration-style:solid;text-decoration-color:#000000;letter-spacing:normal;word-spacing:normal;text-transform:none;writing-mode:lr-tb;direction:ltr;text-orientation:mixed;dominant-baseline:auto;baseline-shift:baseline;text-anchor:start;white-space:normal;shape-padding:0;clip-rule:nonzero;display:inline;overflow:visible;visibility:visible;opacity:1;isolation:auto;mix-blend-mode:normal;color-interpolation:sRGB;color-interpolation-filters:linearRGB;solid-color:#000000;solid-opacity:1;vector-effect:none;fill:#000000;fill-opacity:1;fill-rule:nonzero;stroke:none;stroke-width:54.6875;stroke-linecap:butt;stroke-linejoin:miter;stroke-miterlimit:10;stroke-dasharray:none;stroke-dashoffset:0;stroke-opacity:1;color-rendering:auto;image-rendering:auto;shape-rendering:auto;text-rendering:auto;enable-background:accumulate"
   d="M 87.25 29.4375 A 81.250003 81.250003 0 0 0 6 110.6875 A 81.250003 81.250003 0 0 0 87.25 191.9375 A 81.250003 81.250003 0 0 0 166.91797 126.58398 C 172.96438 125.25849 179.50178 124.00291 186.29297 122.97656 L 180.22656 68.587891 C 172.72727 69.665484 165.53344 70.969582 158.81836 72.365234 A 81.250003 81.250003 0 0 0 87.25 29.4375 z M 218.71289 65.705078 C 215.54673 65.690217 212.40004 65.750259 209.2793 65.871094 C 209.26101 65.871802 209.2429 65.872334 209.22461 65.873047 L 215.32031 120.50586 C 222.22649 120.44002 228.89635 120.79305 234.99023 121.62109 L 241.62109 67.25 C 233.93891 66.203424 226.2703 65.74055 218.71289 65.705078 z M 270.09961 74.285156 L 263.05859 132.0293 C 266.05353 134.58132 268.43581 137.66573 270.42383 141.52148 C 270.83313 142.31532 271.19239 143.15939 271.52344 144.03125 L 311.80469 104.92383 C 300.8289 90.244195 285.73972 80.266223 270.09961 74.285156 z M 322.45117 124.03906 L 272.98828 149.58594 C 273.49393 152.68078 273.61253 156.17119 273.29883 160.10742 L 327.35938 169.05273 C 329.14438 154.15204 328.22126 138.81571 322.45117 124.03906 z M 266.24219 188.45703 C 264.29341 193.71031 261.971 199.23131 259.42383 204.91602 L 310.13672 225.73242 C 314.2171 216.49647 317.92544 207.08583 320.95508 197.51172 L 266.24219 188.45703 z M 246.77148 231.20117 C 244.97869 234.74599 243.16436 238.30771 241.32031 241.89453 C 239.33852 245.74927 237.3446 249.63896 235.35352 253.52344 L 286.12891 274.36719 C 287.39213 271.89321 288.66682 269.40606 289.95703 266.89648 C 292.46934 262.00986 295.01723 257.05029 297.54883 252.04297 L 246.77148 231.20117 z M 222.48242 279.71875 C 218.86751 287.61685 215.5448 295.5898 212.71289 303.64648 L 263.39258 324.44922 C 265.80264 317.26229 269.21993 309.19 273.23633 300.55078 L 222.48242 279.71875 z M 424.75 320.0625 A 81.250003 81.250003 0 0 0 346.12305 381.24414 C 338.13739 381.29603 330.37415 381.36541 322.95508 381.05078 L 320.4707 435.7168 C 331.48914 436.31706 341.9167 436.51123 351.68359 436.70117 A 81.250003 81.250003 0 0 0 424.75 482.5625 A 81.250003 81.250003 0 0 0 506 401.3125 A 81.250003 81.250003 0 0 0 424.75 320.0625 z M 205.44531 332.14062 C 203.63307 345.09371 204.06366 358.52572 208.62109 371.2832 L 266.6875 362.16211 C 264.85626 360.15959 263.10611 357.94356 261.43164 355.47852 C 261.32844 355.3266 261.23494 355.16013 261.13672 355 L 205.44531 332.14062 z M 268.5332 364.07227 L 217.8457 388.53711 C 225.08413 398.59784 233.50711 406.57242 242.61523 412.87305 L 271.5332 366.79492 C 270.50928 365.94141 269.50912 365.03438 268.5332 364.07227 z M 273.27539 368.18359 L 258.57422 422.01758 C 269.29225 427.04185 280.48313 430.32508 291.46875 432.42969 L 293.9668 377.49609 C 286.07494 375.58194 279.25314 372.70515 273.27539 368.18359 z "
   id="path69" />


</svg>