<?xml version="1.0" encoding="UTF-8" standalone="no"?>
<svg
   xmlns:dc="http://purl.org/dc/elements/1.1/"
   xmlns:cc="http://creativecommons.org/ns#"
   xmlns:rdf="http://www.w3.org/1999/02/22-rdf-syntax-ns#"
   xmlns:svg="http://www.w3.org/2000/svg"
   xmlns="http://www.w3.org/2000/svg"
   xmlns:sodipodi="http://sodipodi.sourceforge.net/DTD/sodipodi-0.dtd"
   xmlns:inkscape="http://www.inkscape.org/namespaces/inkscape"
   width="384pt"
   height="384pt"
   viewBox="0 0 384 384"
   version="1.2"
   id="svg820"
   sodipodi:docname="convert.svg"
   inkscape:version="0.92.4 (5da689c313, 2019-01-14)">
  <metadata
     id="metadata826">
    <rdf:RDF>
      <cc:Work
         rdf:about="">
        <dc:format>image/svg+xml</dc:format>
        <dc:type
           rdf:resource="http://purl.org/dc/dcmitype/StillImage" />
        <dc:title></dc:title>
      </cc:Work>
    </rdf:RDF>
  </metadata>
  <defs
     id="defs824" />
  <sodipodi:namedview
     pagecolor="#ffffff"
     bordercolor="#666666"
     borderopacity="1"
     objecttolerance="10"
     gridtolerance="10"
     guidetolerance="10"
     inkscape:pageopacity="0"
     inkscape:pageshadow="2"
     inkscape:window-width="3000"
     inkscape:window-height="1875"
     id="namedview822"
     showgrid="false"
     inkscape:zoom="1.5605469"
     inkscape:cx="262.00189"
     inkscape:cy="89.705898"
     inkscape:window-x="-13"
     inkscape:window-y="-13"
     inkscape:window-maximized="1"
     inkscape:current-layer="svg820" />
  <g
     id="surface1426">
    <path
       style=" stroke:none;fill-rule:nonzero;fill:rgb(0%,0%,0%);fill-opacity:1;"
       d="M 126.054688 4.5 C 113.015625 4.5 100.507813 9.679688 91.285156 18.902344 C 82.066406 28.121094 76.886719 40.628906 76.886719 53.667969 C 76.886719 80.824219 98.898438 102.835938 126.054688 102.835938 C 149.496094 102.832031 169.675781 86.277344 174.265625 63.289063 C 180.054688 62.019531 186.589844 60.851563 193.300781 60.179688 C 203.71875 59.136719 214.28125 59.449219 221.988281 61.585938 C 229.699219 63.722656 233.984375 66.667969 236.902344 72.328125 C 239.414063 77.203125 239.542969 84.449219 236.207031 95.355469 C 232.867188 106.261719 226.265625 119.496094 219.289063 133.066406 C 212.3125 146.636719 204.957031 160.5 200.519531 174.816406 C 196.082031 189.128906 194.367188 206.097656 204.082031 220.398438 C 219.242188 242.714844 243.785156 248.824219 263.863281 250.160156 C 271.769531 250.6875 279.191406 250.820313 286.074219 250.953125 C 294.28125 267.910156 311.453125 278.691406 330.289063 278.707031 C 343.332031 278.707031 355.835938 273.527344 365.058594 264.304688 C 374.277344 255.085938 379.457031 242.578125 379.457031 229.539063 C 379.457031 202.382813 357.445313 180.371094 330.289063 180.371094 C 307.835938 180.398438 288.253906 195.636719 282.710938 217.394531 C 276.925781 217.433594 271.332031 217.492188 266.0625 217.140625 C 249.875 216.0625 239.332031 213.390625 231.460938 201.800781 C 229.660156 199.152344 229.066406 194.492188 232.128906 184.613281 C 235.191406 174.734375 241.710938 161.835938 248.722656 148.199219 C 255.734375 134.558594 263.234375 120.128906 267.851563 105.039063 C 272.46875 89.945313 274.40625 72.851563 266.316406 57.160156 C 258.628906 42.253906 244.609375 33.515625 230.828125 29.695313 C 220.496094 26.828125 209.972656 26.15625 199.898438 26.546875 C 196.542969 26.675781 193.234375 26.925781 190.003906 27.25 C 182.675781 27.984375 175.675781 29.164063 169.363281 30.476563 C 160.816406 14.5 144.175781 4.515625 126.054688 4.5 Z M 126.054688 4.5 "
       id="path815" />
    <path
       style=" stroke:none;fill-rule:nonzero;fill:rgb(0%,0%,0%);fill-opacity:1;"
       d="M 27.117188 226.199219 L 4.542969 256.160156 L 48.699219 289.433594 C 46.644531 296.078125 45.601563 302.992188 45.601563 309.949219 C 45.601563 328.394531 52.929688 346.085938 65.972656 359.128906 C 79.015625 372.171875 96.707031 379.5 115.152344 379.5 C 145.160156 379.476563 171.769531 360.210938 181.160156 331.707031 L 235.460938 331.707031 L 235.460938 294.191406 L 182.808594 294.191406 C 175.488281 262.722656 147.460938 240.4375 115.152344 240.394531 C 98.207031 240.429688 81.855469 246.644531 69.167969 257.882813 Z M 27.117188 226.199219 "
       id="path817" />
  </g>
</svg>
