<?xml version="1.0" encoding="UTF-8" standalone="no"?>
<!-- Generator: Adobe Illustrator 19.2.1, SVG Export Plug-In . SVG Version: 6.00 Build 0)  -->

<svg
   xmlns:dc="http://purl.org/dc/elements/1.1/"
   xmlns:cc="http://creativecommons.org/ns#"
   xmlns:rdf="http://www.w3.org/1999/02/22-rdf-syntax-ns#"
   xmlns:svg="http://www.w3.org/2000/svg"
   xmlns="http://www.w3.org/2000/svg"
   xmlns:sodipodi="http://sodipodi.sourceforge.net/DTD/sodipodi-0.dtd"
   xmlns:inkscape="http://www.inkscape.org/namespaces/inkscape"
   version="1.1"
   id="Layer_1"
   x="0px"
   y="0px"
   viewBox="0 0 512 512"
   style="enable-background:new 0 0 512 512;"
   xml:space="preserve"
   sodipodi:docname="defaultSamples.svg"
   inkscape:version="0.92.3 (2405546, 2018-03-11)"><metadata
     id="metadata4385"><rdf:RDF><cc:Work
         rdf:about=""><dc:format>image/svg+xml</dc:format><dc:type
           rdf:resource="http://purl.org/dc/dcmitype/StillImage" /><dc:title /></cc:Work></rdf:RDF></metadata><defs
     id="defs4383" /><sodipodi:namedview
     pagecolor="#ffffff"
     bordercolor="#666666"
     borderopacity="1"
     objecttolerance="10"
     gridtolerance="10"
     guidetolerance="10"
     inkscape:pageopacity="0"
     inkscape:pageshadow="2"
     inkscape:window-width="1920"
     inkscape:window-height="1007"
     id="namedview4381"
     showgrid="false"
     inkscape:pagecheckerboard="true"
     inkscape:zoom="1.3037281"
     inkscape:cx="95.10067"
     inkscape:cy="243.86929"
     inkscape:window-x="0"
     inkscape:window-y="0"
     inkscape:window-maximized="1"
     inkscape:current-layer="Layer_1"
     inkscape:snap-object-midpoints="true" /><style
     type="text/css"
     id="style4376">
	.st0{fill:#000000;}
</style><path
     style="fill:#000000;fill-opacity:1;stroke:none;stroke-width:64;stroke-linejoin:round;stroke-miterlimit:4;stroke-dasharray:32.00000136, 32.00000136;stroke-dashoffset:0;stroke-opacity:1"
     d="m 431.49525,5.9999908 a 60.016518,60.016518 0 0 0 -60.0161,60.0161062 60.016518,60.016518 0 0 0 6.04335,26.135843 l -77.56016,82.98167 a 60.016518,60.016518 0 0 0 -22.43858,-4.39919 60.016518,60.016518 0 0 0 -60.01822,60.01612 60.016518,60.016518 0 0 0 60.01822,60.0182 60.016518,60.016518 0 0 0 60.0161,-60.0182 60.016518,60.016518 0 0 0 -6.04335,-26.13375 l 77.56016,-82.98166 a 60.016518,60.016518 0 0 0 22.43858,4.39708 A 60.016518,60.016518 0 0 0 491.51347,66.016097 60.016518,60.016518 0 0 0 431.49525,5.9999908 Z M 116.92713,39.941384 A 60.016518,60.016518 0 0 0 56.911027,99.957488 60.016518,60.016518 0 0 0 88.565352,152.82361 L 66.023471,333.16493 a 60.016518,60.016518 0 0 0 -45.536943,58.18222 60.016518,60.016518 0 0 0 60.016104,60.01611 60.016518,60.016518 0 0 0 49.790688,-26.54688 l 130.9427,29.79937 a 60.016518,60.016518 0 0 0 59.33315,51.38426 60.016518,60.016518 0 0 0 60.01611,-60.01611 60.016518,60.016518 0 0 0 -60.01611,-60.01822 60.016518,60.016518 0 0 0 -49.79069,26.549 L 139.83578,382.7132 a 60.016518,60.016518 0 0 0 -30.97136,-44.23427 l 22.54398,-180.3392 a 60.016518,60.016518 0 0 0 45.53483,-58.182242 60.016518,60.016518 0 0 0 -60.0161,-60.016104 z"
     id="circle818"
     inkscape:connector-curvature="0" /></svg>