<?xml version="1.0" encoding="utf-8"?>
<!-- Generator: Adobe Illustrator 21.1.0, SVG Export Plug-In . SVG Version: 6.00 Build 0)  -->
<svg version="1.1"
	 id="svg8" inkscape:version="0.92.2 (5c3e80d, 2017-08-06)" sodipodi:docname="delete.svg" xmlns:cc="http://creativecommons.org/ns#" xmlns:dc="http://purl.org/dc/elements/1.1/" xmlns:inkscape="http://www.inkscape.org/namespaces/inkscape" xmlns:rdf="http://www.w3.org/1999/02/22-rdf-syntax-ns#" xmlns:sodipodi="http://sodipodi.sourceforge.net/DTD/sodipodi-0.dtd" xmlns:svg="http://www.w3.org/2000/svg"
	 xmlns="http://www.w3.org/2000/svg" xmlns:xlink="http://www.w3.org/1999/xlink" x="0px" y="0px" viewBox="0 0 512 512"
	 style="enable-background:new 0 0 512 512;" xml:space="preserve">
<style type="text/css">
	.st0{display:none;fill:#EFEAEA;}
	.st1{fill:#262626;}
</style>
<path class="st0" d="M420,500.3H91.1c-48.3,0-87.8-39.5-87.8-87.8V99c0-48.3,39.5-87.8,87.8-87.8H420c48.3,0,87.8,39.5,87.8,87.8
	v313.5C507.8,460.8,468.3,500.3,420,500.3z"/>
<sodipodi:namedview  bordercolor="#666666" borderopacity="1" gridtolerance="10" guidetolerance="10" id="namedview819" inkscape:current-layer="svg8" inkscape:cx="185.52156" inkscape:cy="401.67306" inkscape:pagecheckerboard="true" inkscape:pageopacity="0" inkscape:pageshadow="2" inkscape:window-height="1010" inkscape:window-maximized="0" inkscape:window-width="958" inkscape:window-x="0" inkscape:window-y="0" inkscape:zoom="0.9140625" objecttolerance="10" pagecolor="#ffffff" showgrid="false">
	</sodipodi:namedview>
<path id="path1692" inkscape:connector-curvature="0" class="st1" d="M109.9,475.6c-5.3-2.3-9-5.8-11.7-11.1
	c-2.1-4.2-2.2-9.1-2.2-150.4V167.9h160h160V314c0,141.3-0.1,146.3-2.2,150.4c-2.8,5.4-6.5,8.9-12,11.2c-3.8,1.6-20.7,1.8-146.1,1.7
	C131.8,477.4,113.5,477.1,109.9,475.6z M176.4,415.6c2.1-0.9,5-3,6.3-4.8l2.5-3.2v-88.6v-88.6l-3.9-3.9c-3.2-3.2-4.8-3.9-8.8-3.9
	c-6.4,0-10.9,2.5-13.2,7.4c-1.7,3.6-1.9,12.8-1.9,89.6c0,95.7-0.4,91.5,8.1,95.8C170.5,417.6,171.5,417.6,176.4,415.6L176.4,415.6z
	 M261.2,415.5c2.2-0.9,5-3.4,6.3-5.5c2.3-3.8,2.3-5.6,2.3-90.6c0-93.6,0.2-90.9-6-95.2c-6.2-4.4-17.6-1-20.5,6
	c-1,2.4-1.3,26.8-1,90.9c0.3,85.8,0.4,87.7,2.6,90.3c2.3,2.6,8,5.6,10.8,5.7C256.6,417.1,259,416.4,261.2,415.5L261.2,415.5z
	 M347.3,414.2c6.1-4,6-3,6-95c0-76.6-0.2-85.8-1.9-89.4c-2.3-4.9-6.8-7.4-13.2-7.4c-3.9,0-5.5,0.7-8.8,3.9l-3.9,3.9v88.6v88.6
	l2.5,3.2C333,417,340.9,418.4,347.3,414.2z M72.8,122.1c0-17.8,0.4-23.6,1.8-27c1.9-4.6,6.5-10,10.4-12.2c1.6-1,20.1-1.5,63.8-1.9
	l61.4-0.6l0.6-15.7c0.6-16.3,1.1-18.3,6.6-23.4c6.5-6.2,9.5-6.7,38.6-6.7s32.1,0.5,38.6,6.7c5.4,5.2,6,7.1,6.6,23.4l0.6,15.7
	l61.4,0.6c43.7,0.4,62.1,1,63.8,1.9c3.9,2.3,8.5,7.7,10.4,12.2c1.4,3.4,1.8,9.1,1.8,27v22.6H256H72.8V122.1z"/>
</svg>
