<?xml version="1.0" encoding="UTF-8" standalone="no"?>
<!-- Generator: Adobe Illustrator 21.1.0, SVG Export Plug-In . SVG Version: 6.00 Build 0)  -->

<svg
   xmlns:dc="http://purl.org/dc/elements/1.1/"
   xmlns:cc="http://creativecommons.org/ns#"
   xmlns:rdf="http://www.w3.org/1999/02/22-rdf-syntax-ns#"
   xmlns:svg="http://www.w3.org/2000/svg"
   xmlns="http://www.w3.org/2000/svg"
   xmlns:sodipodi="http://sodipodi.sourceforge.net/DTD/sodipodi-0.dtd"
   xmlns:inkscape="http://www.inkscape.org/namespaces/inkscape"
   version="1.1"
   id="Layer_1"
   inkscape:version="0.92.3 (2405546, 2018-03-11)"
   sodipodi:docname="deriveAttribute.svg"
   x="0px"
   y="0px"
   viewBox="0 0 512 512"
   style="enable-background:new 0 0 512 512;"
   xml:space="preserve"><metadata
   id="metadata153"><rdf:RDF><cc:Work
       rdf:about=""><dc:format>image/svg+xml</dc:format><dc:type
         rdf:resource="http://purl.org/dc/dcmitype/StillImage" /><dc:title /></cc:Work></rdf:RDF></metadata><defs
   id="defs151"><marker
     inkscape:stockid="Arrow2Sstart"
     orient="auto"
     refY="0.0"
     refX="0.0"
     id="Arrow2Sstart"
     style="overflow:visible"
     inkscape:isstock="true"><path
       id="path1176"
       style="fill-rule:evenodd;stroke-width:0.625;stroke-linejoin:round;stroke:#000000;stroke-opacity:1;fill:#000000;fill-opacity:1"
       d="M 8.7185878,4.0337352 L -2.2072895,0.016013256 L 8.7185884,-4.0017078 C 6.9730900,-1.6296469 6.9831476,1.6157441 8.7185878,4.0337352 z "
       transform="scale(0.3) translate(-2.3,0)" /></marker><marker
     inkscape:stockid="Arrow2Send"
     orient="auto"
     refY="0.0"
     refX="0.0"
     id="Arrow2Send"
     style="overflow:visible;"
     inkscape:isstock="true"><path
       id="path1179"
       style="fill-rule:evenodd;stroke-width:0.625;stroke-linejoin:round;stroke:#000000;stroke-opacity:1;fill:#000000;fill-opacity:1"
       d="M 8.7185878,4.0337352 L -2.2072895,0.016013256 L 8.7185884,-4.0017078 C 6.9730900,-1.6296469 6.9831476,1.6157441 8.7185878,4.0337352 z "
       transform="scale(0.3) rotate(180) translate(-2.3,0)" /></marker><marker
     inkscape:stockid="Arrow1Send"
     orient="auto"
     refY="0.0"
     refX="0.0"
     id="Arrow1Send"
     style="overflow:visible;"
     inkscape:isstock="true"><path
       id="path1161"
       d="M 0.0,0.0 L 5.0,-5.0 L -12.5,0.0 L 5.0,5.0 L 0.0,0.0 z "
       style="fill-rule:evenodd;stroke:#000000;stroke-width:1pt;stroke-opacity:1;fill:#000000;fill-opacity:1"
       transform="scale(0.2) rotate(180) translate(6,0)" /></marker><marker
     inkscape:stockid="Arrow1Sstart"
     orient="auto"
     refY="0.0"
     refX="0.0"
     id="Arrow1Sstart"
     style="overflow:visible"
     inkscape:isstock="true"><path
       id="path1158"
       d="M 0.0,0.0 L 5.0,-5.0 L -12.5,0.0 L 5.0,5.0 L 0.0,0.0 z "
       style="fill-rule:evenodd;stroke:#000000;stroke-width:1pt;stroke-opacity:1;fill:#000000;fill-opacity:1"
       transform="scale(0.2) translate(6,0)" /></marker><marker
     inkscape:stockid="Arrow1Mstart"
     orient="auto"
     refY="0.0"
     refX="0.0"
     id="Arrow1Mstart"
     style="overflow:visible"
     inkscape:isstock="true"><path
       id="path1152"
       d="M 0.0,0.0 L 5.0,-5.0 L -12.5,0.0 L 5.0,5.0 L 0.0,0.0 z "
       style="fill-rule:evenodd;stroke:#000000;stroke-width:1pt;stroke-opacity:1;fill:#000000;fill-opacity:1"
       transform="scale(0.4) translate(10,0)" /></marker></defs>
<style
   type="text/css"
   id="style139">
	.st0{display:none;fill:#EFEAEA;}
	.st1{fill:none;stroke:#000000;stroke-width:89;stroke-miterlimit:10;}
	.st2{fill:#262626;}
</style>
<path
   class="st0"
   d="M419,501.3H90.1c-48.3,0-87.8-39.5-87.8-87.8V100c0-48.3,39.5-87.8,87.8-87.8H419c48.3,0,87.8,39.5,87.8,87.8  v313.5C506.8,461.8,467.3,501.3,419,501.3z"
   id="path141" />
<sodipodi:namedview
   bordercolor="#666666"
   borderopacity="1"
   gridtolerance="10"
   guidetolerance="10"
   id="namedview4578"
   inkscape:current-layer="Layer_1"
   inkscape:cx="271.17354"
   inkscape:cy="146.85845"
   inkscape:pagecheckerboard="true"
   inkscape:pageopacity="0"
   inkscape:pageshadow="2"
   inkscape:snap-intersection-paths="true"
   inkscape:snap-object-midpoints="true"
   inkscape:window-height="1049"
   inkscape:window-maximized="0"
   inkscape:window-width="958"
   inkscape:window-x="2880"
   inkscape:window-y="0"
   inkscape:zoom="0.56554732"
   objecttolerance="10"
   pagecolor="#ffffff"
   showgrid="false"
   inkscape:snap-bbox="false"
   inkscape:snap-bbox-midpoints="false"
   inkscape:snap-page="true"
   showguides="true"
   inkscape:guide-bbox="true">
	</sodipodi:namedview>



<path
   style="color:#000000;font-style:normal;font-variant:normal;font-weight:normal;font-stretch:normal;font-size:medium;line-height:normal;font-family:sans-serif;font-variant-ligatures:normal;font-variant-position:normal;font-variant-caps:normal;font-variant-numeric:normal;font-variant-alternates:normal;font-feature-settings:normal;text-indent:0;text-align:start;text-decoration:none;text-decoration-line:none;text-decoration-style:solid;text-decoration-color:#000000;letter-spacing:normal;word-spacing:normal;text-transform:none;writing-mode:lr-tb;direction:ltr;text-orientation:mixed;dominant-baseline:auto;baseline-shift:baseline;text-anchor:start;white-space:normal;shape-padding:0;clip-rule:nonzero;display:inline;overflow:visible;visibility:visible;opacity:1;isolation:auto;mix-blend-mode:normal;color-interpolation:sRGB;color-interpolation-filters:linearRGB;solid-color:#000000;solid-opacity:1;vector-effect:none;fill:#000000;fill-opacity:1;fill-rule:nonzero;stroke:none;stroke-width:50;stroke-linecap:butt;stroke-linejoin:miter;stroke-miterlimit:4;stroke-dasharray:none;stroke-dashoffset:0;stroke-opacity:1;color-rendering:auto;image-rendering:auto;shape-rendering:auto;text-rendering:auto;enable-background:accumulate"
   d="m 5.9999965,12.081757 v 24.391825 121.959118 24.39183 24.39182 97.5673 24.39182 24.39183 146.35094 H 201.13458 347.48553 V 304.78365 158.4327 12.081757 H 201.13458 152.35094 Z m 402.4327035,0 v 48.783649 h -48.78365 v 48.783644 h 48.78365 v 48.78365 h 48.78365 V 109.64905 H 506 V 60.865406 H 457.21635 V 12.081757 Z M 54.783644,60.865406 H 152.35094 V 158.4327 H 54.783644 Z m 146.350936,0 h 97.5673 V 158.4327 h -97.5673 z M 408.4327,185.24846 v 48.78365 h -48.78365 v 48.78365 h 48.78365 v 48.78364 h 48.78365 V 282.81576 H 506 V 234.03211 H 457.21635 V 185.24846 Z M 54.783644,207.21635 h 97.567296 v 97.5673 H 54.783644 Z m 146.350936,0 h 97.5673 v 97.5673 h -97.5673 z M 54.783644,353.5673 h 97.567296 v 97.56729 H 54.783644 Z m 146.350936,0 h 97.5673 v 97.56729 h -97.5673 z m 207.29812,0 v 48.78365 h -48.78365 v 48.78364 h 48.78365 v 48.78365 h 48.78365 V 451.13459 H 506 V 402.35095 H 457.21635 V 353.5673 Z"
   id="rect5156"
   inkscape:connector-curvature="0" /></svg>