<?xml version="1.0" encoding="UTF-8" standalone="no"?>
<!-- Created with Inkscape (http://www.inkscape.org/) -->

<svg
   xmlns:dc="http://purl.org/dc/elements/1.1/"
   xmlns:cc="http://creativecommons.org/ns#"
   xmlns:rdf="http://www.w3.org/1999/02/22-rdf-syntax-ns#"
   xmlns:svg="http://www.w3.org/2000/svg"
   xmlns="http://www.w3.org/2000/svg"
   xmlns:sodipodi="http://sodipodi.sourceforge.net/DTD/sodipodi-0.dtd"
   xmlns:inkscape="http://www.inkscape.org/namespaces/inkscape"
   width="512"
   height="512"
   version="1.1"
   id="svg8"
   sodipodi:docname="sortDescending.svg"
   inkscape:version="0.92.3 (2405546, 2018-03-11)">
  <metadata
     id="metadata823">
    <rdf:RDF>
      <cc:Work
         rdf:about="">
        <dc:format>image/svg+xml</dc:format>
        <dc:type
           rdf:resource="http://purl.org/dc/dcmitype/StillImage" />
        <dc:title></dc:title>
      </cc:Work>
    </rdf:RDF>
  </metadata>
  <defs
     id="defs821" />
  <sodipodi:namedview
     pagecolor="#ffffff"
     bordercolor="#666666"
     borderopacity="1"
     objecttolerance="10"
     gridtolerance="10"
     guidetolerance="10"
     inkscape:pageopacity="0"
     inkscape:pageshadow="2"
     inkscape:window-width="1918"
     inkscape:window-height="1049"
     id="namedview819"
     showgrid="false"
     inkscape:pagecheckerboard="true"
     inkscape:zoom="1.2926796"
     inkscape:cx="362.86284"
     inkscape:cy="267.83229"
     inkscape:window-x="1920"
     inkscape:window-y="0"
     inkscape:window-maximized="0"
     inkscape:current-layer="svg8"
     showguides="true"
     inkscape:guide-bbox="true" />
  <path
     style="fill:#000000"
     d="m 106.31423,505.685 c -0.64696,-0.2114 -1.71466,-0.705 -2.37267,-1.0968 -0.658,-0.3918 -21.697854,-21.2265 -46.755194,-46.2993 -38.3045,-38.3282 -45.65796,-45.8092 -46.18153,-46.9826 -1.80573,-4.0472 0.40196,-9.8009 4.48519,-11.6895 1.27532,-0.5899 1.40716,-0.5929 29.40308,-0.6688 l 28.12201,-0.076 0.0708,-193.22589 0.0708,-193.225864 0.65808,-1.45536 c 0.81964,-1.8126398 2.8301,-3.7263998 4.65338,-4.4295598 1.33578,-0.51516 2.47116,-0.53523 30.278444,-0.53523 27.80731,0 28.9427,0.0201 30.27848,0.53523 1.82327,0.70316 3.83372,2.61692 4.65338,4.4295598 l 0.65806,1.45536 0.0708,193.227084 0.0708,193.22707 27.98244,0.075 27.98244,0.075 1.42329,0.6443 c 1.78181,0.8066 3.52413,2.5636 4.34367,4.3802 0.48589,1.0771 0.62898,1.9055 0.62677,3.6288 -0.006,4.3458 4.14993,-0.1671 -46.98075,51.0217 -37.71532,37.7582 -45.92322,45.8446 -47.14246,46.4445 -1.78715,0.8793 -4.6294,1.1198 -6.39926,0.5413 z m 151.63088,0 c -2.66051,-0.8463 -4.68578,-2.6773 -5.60903,-5.0711 -0.51096,-1.3251 -0.53198,-2.5266 -0.53198,-30.4098 v -29.0302 l 0.6581,-1.4554 c 0.81962,-1.8126 2.83008,-3.7264 4.65337,-4.4296 1.34337,-0.518 2.59938,-0.5352 39.21086,-0.5352 36.6114,0 37.8674,0.017 39.2108,0.5352 1.8233,0.7032 3.8337,2.617 4.6534,4.4296 l 0.6581,1.4554 v 29.0302 c 0,27.9448 -0.02,29.0821 -0.5353,30.418 -0.7031,1.8233 -2.6169,3.8337 -4.4295,4.6534 l -1.4554,0.6581 -37.6834,0.053 c -29.8468,0.042 -37.91566,-0.021 -38.80002,-0.302 z m 0,-142.91876 c -2.65861,-0.84369 -4.68559,-2.676 -5.60903,-5.07029 -0.51096,-1.32512 -0.53198,-2.52658 -0.53198,-30.40981 v -29.03021 l 0.6581,-1.45536 c 0.81962,-1.81263 2.83008,-3.72639 4.65337,-4.42957 1.35353,-0.52198 2.98405,-0.53521 66.00796,-0.53521 63.0239,0 64.6544,0.0131 66.0079,0.53521 1.8233,0.70318 3.8338,2.61694 4.6534,4.42957 l 0.6581,1.45536 v 29.03021 c 0,27.94486 -0.02,29.08209 -0.5352,30.41801 -0.7032,1.8233 -2.617,3.83375 -4.4296,4.65338 l -1.4554,0.65809 -64.4805,0.0523 c -51.45333,0.0418 -64.70614,-0.0193 -65.59712,-0.30203 z m 0,-142.91828 c -2.6578,-0.84293 -4.6855,-2.67575 -5.60903,-5.07025 -0.51096,-1.32481 -0.53198,-2.52628 -0.53198,-30.40952 v -29.0302 l 0.6581,-1.45535 c 0.81962,-1.81265 2.83008,-3.72641 4.65337,-4.42957 1.35775,-0.52363 3.36873,-0.53522 92.80506,-0.53522 89.4363,0 91.4473,0.0116 92.805,0.53522 1.8233,0.70316 3.8338,2.61692 4.6534,4.42957 l 0.6581,1.45535 v 29.0302 c 0,27.94487 -0.02,29.0821 -0.5352,30.41803 -0.7032,1.82328 -2.6169,3.83374 -4.4296,4.65338 l -1.4553,0.65808 -91.2777,0.052 c -73.06041,0.0416 -91.50051,-0.0187 -92.39422,-0.30201 z m 0,-142.918144 c -2.65735,-0.84232 -4.68548,-2.67543 -5.60903,-5.07005 -0.51096,-1.32481 -0.53198,-2.52628 -0.53198,-30.40952 v -29.0302 l 0.6581,-1.45536 c 0.81962,-1.8126398 2.83008,-3.7263998 4.65337,-4.4295598 1.36004,-0.52452 3.75338,-0.53523 119.60216,-0.53523 115.8488,0 118.2421,0.0107 119.6022,0.53523 1.8233,0.70316 3.8337,2.61692 4.6533,4.4295598 l 0.6581,1.45536 v 29.0302 c 0,27.94487 -0.02,29.0821 -0.5352,30.41803 -0.7032,1.82328 -2.6169,3.83374 -4.4295,4.65338 l -1.4554,0.65808 -118.0748,0.0518 c -94.6677,0.0415 -118.2961,-0.0183 -119.19132,-0.302 z"
     id="path3871"
     inkscape:connector-curvature="0" />
</svg>
