<?xml version="1.0" encoding="UTF-8" standalone="no"?>
<!-- Generator: Adobe Illustrator 19.2.1, SVG Export Plug-In . SVG Version: 6.00 Build 0)  -->

<svg
   xmlns:dc="http://purl.org/dc/elements/1.1/"
   xmlns:cc="http://creativecommons.org/ns#"
   xmlns:rdf="http://www.w3.org/1999/02/22-rdf-syntax-ns#"
   xmlns:svg="http://www.w3.org/2000/svg"
   xmlns="http://www.w3.org/2000/svg"
   xmlns:sodipodi="http://sodipodi.sourceforge.net/DTD/sodipodi-0.dtd"
   xmlns:inkscape="http://www.inkscape.org/namespaces/inkscape"
   version="1.1"
   id="Layer_1"
   x="0px"
   y="0px"
   viewBox="0 0 512 512"
   style="enable-background:new 0 0 512 512;"
   xml:space="preserve"
   sodipodi:docname="edgeProjection.svg"
   inkscape:version="0.92.3 (2405546, 2018-03-11)"><metadata
     id="metadata4385"><rdf:RDF><cc:Work
         rdf:about=""><dc:format>image/svg+xml</dc:format><dc:type
           rdf:resource="http://purl.org/dc/dcmitype/StillImage" /><dc:title></dc:title></cc:Work></rdf:RDF></metadata><defs
     id="defs4383" /><sodipodi:namedview
     pagecolor="#ffffff"
     bordercolor="#666666"
     borderopacity="1"
     objecttolerance="10"
     gridtolerance="10"
     guidetolerance="10"
     inkscape:pageopacity="0"
     inkscape:pageshadow="2"
     inkscape:window-width="958"
     inkscape:window-height="1002"
     id="namedview4381"
     showgrid="false"
     inkscape:pagecheckerboard="true"
     inkscape:zoom="0.32593203"
     inkscape:cx="428.22512"
     inkscape:cy="307.23819"
     inkscape:window-x="0"
     inkscape:window-y="0"
     inkscape:window-maximized="0"
     inkscape:current-layer="Layer_1"
     inkscape:snap-object-midpoints="true" /><style
     type="text/css"
     id="style4376">
	.st0{fill:#000000;}
</style><path
     style="fill:#000000;fill-opacity:1;stroke:none;stroke-width:7.99999952;stroke-linejoin:round;stroke-miterlimit:4;stroke-dasharray:none;stroke-dashoffset:0;stroke-opacity:1"
     d="m 314.9199,6 a 73.242187,73.242187 0 0 0 -73.24219,73.242187 73.242187,73.242187 0 0 0 2.07711,16.956333 l -76.17569,45.55321 A 73.242187,73.242187 0 0 0 118.9551,123.1875 73.242187,73.242187 0 0 0 45.712906,196.42969 73.242187,73.242187 0 0 0 85.721451,261.61333 L 69.137055,360.29764 A 73.242187,73.242187 0 0 0 6,432.75781 73.242187,73.242187 0 0 0 79.242187,506 73.242187,73.242187 0 0 0 152.39282,434.59269 l 25.23041,-11.15228 -25.26665,-57.16514 -25.2037,11.14082 a 73.242187,73.242187 0 0 0 -14.67515,-9.84192 l 16.58249,-98.68431 a 73.242187,73.242187 0 0 0 63.13707,-72.46017 73.242187,73.242187 0 0 0 -2.07711,-16.95633 l 76.17569,-45.55321 a 73.242187,73.242187 0 0 0 48.62403,18.56422 73.242187,73.242187 0 0 0 16.9201,-2.06947 l 46.26273,77.44599 a 73.242187,73.242187 0 0 0 -18.49555,46.81205 l -7.17163,3.17002 25.26665,57.16515 7.14492,-3.15858 A 73.242187,73.242187 0 0 0 432.75781,349.75 73.242187,73.242187 0 0 0 506,276.50781 73.242187,73.242187 0 0 0 432.75781,203.26562 73.242187,73.242187 0 0 0 415.83772,205.3351 L 369.57498,127.89103 A 73.242187,73.242187 0 0 0 388.16209,79.242187 73.242187,73.242187 0 0 0 314.9199,6 Z m 8.93212,284.47724 -28.58162,12.63236 25.26665,57.16515 28.58162,-12.63237 z m -57.16515,25.26473 -28.58162,12.63428 25.26665,57.16515 28.58163,-12.63428 z m -57.16514,25.26665 -28.58162,12.63428 25.26474,57.16515 28.58353,-12.63428 z"
     id="path835"
     inkscape:connector-curvature="0" /></svg>