<?xml version="1.0" encoding="UTF-8" standalone="no"?>
<!-- Generator: Adobe Illustrator 19.2.1, SVG Export Plug-In . SVG Version: 6.00 Build 0)  -->

<svg
   xmlns:dc="http://purl.org/dc/elements/1.1/"
   xmlns:cc="http://creativecommons.org/ns#"
   xmlns:rdf="http://www.w3.org/1999/02/22-rdf-syntax-ns#"
   xmlns:svg="http://www.w3.org/2000/svg"
   xmlns="http://www.w3.org/2000/svg"
   xmlns:sodipodi="http://sodipodi.sourceforge.net/DTD/sodipodi-0.dtd"
   xmlns:inkscape="http://www.inkscape.org/namespaces/inkscape"
   version="1.1"
   id="Layer_1"
   x="0px"
   y="0px"
   viewBox="0 0 512 512"
   style="enable-background:new 0 0 512 512;"
   xml:space="preserve"
   sodipodi:docname="edge.svg"
   inkscape:version="0.92.3 (2405546, 2018-03-11)"><metadata
     id="metadata4582"><rdf:RDF><cc:Work
         rdf:about=""><dc:format>image/svg+xml</dc:format><dc:type
           rdf:resource="http://purl.org/dc/dcmitype/StillImage" /><dc:title /></cc:Work></rdf:RDF></metadata><defs
     id="defs4580" /><sodipodi:namedview
     pagecolor="#ffffff"
     bordercolor="#666666"
     borderopacity="1"
     objecttolerance="10"
     gridtolerance="10"
     guidetolerance="10"
     inkscape:pageopacity="0"
     inkscape:pageshadow="2"
     inkscape:window-width="958"
     inkscape:window-height="1049"
     id="namedview4578"
     showgrid="false"
     inkscape:pagecheckerboard="true"
     inkscape:zoom="0.63529125"
     inkscape:cx="293.70442"
     inkscape:cy="83.799513"
     inkscape:window-x="2880"
     inkscape:window-y="0"
     inkscape:window-maximized="0"
     inkscape:current-layer="Layer_1"
     inkscape:snap-object-midpoints="true"
     inkscape:snap-intersection-paths="true" /><style
     type="text/css"
     id="style4569">
	.st0{fill:#ffffff;}
</style><path
     style="fill:#ffffff;fill-opacity:1;stroke:none;stroke-width:1;stroke-miterlimit:4;stroke-dasharray:none;stroke-dashoffset:0;stroke-opacity:1"
     d="m 125.76387,11.686688 c -12.3576,-12.53450019 -42.64605,-3.7835002 -71.6782,20.695 L 162.74632,142.59768 c 13.9997,14.198 21.2334,29.7715 16.15905,34.7855 -5.0755,5.02 -20.5539,-2.435 -34.56005,-16.644 L 35.67643,50.514688 c -25.13925,28.7675 -34.50045,59.158992 -22.114,71.789992 l 186.33684,189.004 186.33685,189.0045 c 12.3576,12.53455 42.64605,3.784 71.6782,-20.6945 L 349.25367,369.40218 c -13.9997,-14.1975 -21.2334,-29.7705 -16.15905,-34.785 5.0755,-5.02 20.55385,2.4345 34.56,16.644 l 108.66895,110.224 c 25.13925,-28.767 34.50045,-59.159 22.114,-71.7895 l -186.33685,-189.004 z"
     id="path2287"
     inkscape:connector-curvature="0" /></svg>