<?xml version="1.0" encoding="UTF-8" standalone="no"?>
<!-- Generator: Adobe Illustrator 21.1.0, SVG Export Plug-In . SVG Version: 6.00 Build 0)  -->

<svg
   xmlns:dc="http://purl.org/dc/elements/1.1/"
   xmlns:cc="http://creativecommons.org/ns#"
   xmlns:rdf="http://www.w3.org/1999/02/22-rdf-syntax-ns#"
   xmlns:svg="http://www.w3.org/2000/svg"
   xmlns="http://www.w3.org/2000/svg"
   xmlns:sodipodi="http://sodipodi.sourceforge.net/DTD/sodipodi-0.dtd"
   xmlns:inkscape="http://www.inkscape.org/namespaces/inkscape"
   version="1.1"
   id="Layer_1"
   inkscape:version="0.92.3 (2405546, 2018-03-11)"
   sodipodi:docname="transpose.svg"
   x="0px"
   y="0px"
   viewBox="0 0 512 512"
   style="enable-background:new 0 0 512 512;"
   xml:space="preserve"><metadata
   id="metadata153"><rdf:RDF><cc:Work
       rdf:about=""><dc:format>image/svg+xml</dc:format><dc:type
         rdf:resource="http://purl.org/dc/dcmitype/StillImage" /><dc:title /></cc:Work></rdf:RDF></metadata><defs
   id="defs151"><marker
     inkscape:stockid="Arrow2Sstart"
     orient="auto"
     refY="0.0"
     refX="0.0"
     id="Arrow2Sstart"
     style="overflow:visible"
     inkscape:isstock="true"><path
       id="path1176"
       style="fill-rule:evenodd;stroke-width:0.625;stroke-linejoin:round;stroke:#000000;stroke-opacity:1;fill:#000000;fill-opacity:1"
       d="M 8.7185878,4.0337352 L -2.2072895,0.016013256 L 8.7185884,-4.0017078 C 6.9730900,-1.6296469 6.9831476,1.6157441 8.7185878,4.0337352 z "
       transform="scale(0.3) translate(-2.3,0)" /></marker><marker
     inkscape:stockid="Arrow2Send"
     orient="auto"
     refY="0.0"
     refX="0.0"
     id="Arrow2Send"
     style="overflow:visible;"
     inkscape:isstock="true"><path
       id="path1179"
       style="fill-rule:evenodd;stroke-width:0.625;stroke-linejoin:round;stroke:#000000;stroke-opacity:1;fill:#000000;fill-opacity:1"
       d="M 8.7185878,4.0337352 L -2.2072895,0.016013256 L 8.7185884,-4.0017078 C 6.9730900,-1.6296469 6.9831476,1.6157441 8.7185878,4.0337352 z "
       transform="scale(0.3) rotate(180) translate(-2.3,0)" /></marker><marker
     inkscape:stockid="Arrow1Send"
     orient="auto"
     refY="0.0"
     refX="0.0"
     id="Arrow1Send"
     style="overflow:visible;"
     inkscape:isstock="true"><path
       id="path1161"
       d="M 0.0,0.0 L 5.0,-5.0 L -12.5,0.0 L 5.0,5.0 L 0.0,0.0 z "
       style="fill-rule:evenodd;stroke:#000000;stroke-width:1pt;stroke-opacity:1;fill:#000000;fill-opacity:1"
       transform="scale(0.2) rotate(180) translate(6,0)" /></marker><marker
     inkscape:stockid="Arrow1Sstart"
     orient="auto"
     refY="0.0"
     refX="0.0"
     id="Arrow1Sstart"
     style="overflow:visible"
     inkscape:isstock="true"><path
       id="path1158"
       d="M 0.0,0.0 L 5.0,-5.0 L -12.5,0.0 L 5.0,5.0 L 0.0,0.0 z "
       style="fill-rule:evenodd;stroke:#000000;stroke-width:1pt;stroke-opacity:1;fill:#000000;fill-opacity:1"
       transform="scale(0.2) translate(6,0)" /></marker><marker
     inkscape:stockid="Arrow1Mstart"
     orient="auto"
     refY="0.0"
     refX="0.0"
     id="Arrow1Mstart"
     style="overflow:visible"
     inkscape:isstock="true"><path
       id="path1152"
       d="M 0.0,0.0 L 5.0,-5.0 L -12.5,0.0 L 5.0,5.0 L 0.0,0.0 z "
       style="fill-rule:evenodd;stroke:#000000;stroke-width:1pt;stroke-opacity:1;fill:#000000;fill-opacity:1"
       transform="scale(0.4) translate(10,0)" /></marker></defs>
<style
   type="text/css"
   id="style139">
	.st0{display:none;fill:#EFEAEA;}
	.st1{fill:none;stroke:#000000;stroke-width:89;stroke-miterlimit:10;}
	.st2{fill:#262626;}
</style>
<path
   class="st0"
   d="M419,501.3H90.1c-48.3,0-87.8-39.5-87.8-87.8V100c0-48.3,39.5-87.8,87.8-87.8H419c48.3,0,87.8,39.5,87.8,87.8  v313.5C506.8,461.8,467.3,501.3,419,501.3z"
   id="path141" />
<sodipodi:namedview
   bordercolor="#666666"
   borderopacity="1"
   gridtolerance="10"
   guidetolerance="10"
   id="namedview4578"
   inkscape:current-layer="Layer_1"
   inkscape:cx="-177.09684"
   inkscape:cy="310.64154"
   inkscape:pagecheckerboard="true"
   inkscape:pageopacity="0"
   inkscape:pageshadow="2"
   inkscape:snap-intersection-paths="true"
   inkscape:snap-object-midpoints="true"
   inkscape:window-height="1002"
   inkscape:window-maximized="0"
   inkscape:window-width="1918"
   inkscape:window-x="0"
   inkscape:window-y="0"
   inkscape:zoom="0.79980469"
   objecttolerance="10"
   pagecolor="#ffffff"
   showgrid="false"
   inkscape:snap-bbox="false"
   inkscape:snap-bbox-midpoints="false"
   inkscape:snap-page="true"
   showguides="true"
   inkscape:guide-bbox="true">
	</sodipodi:namedview>



<path
   style="color:#000000;font-style:normal;font-variant:normal;font-weight:normal;font-stretch:normal;font-size:medium;line-height:normal;font-family:sans-serif;font-variant-ligatures:normal;font-variant-position:normal;font-variant-caps:normal;font-variant-numeric:normal;font-variant-alternates:normal;font-feature-settings:normal;text-indent:0;text-align:start;text-decoration:none;text-decoration-line:none;text-decoration-style:solid;text-decoration-color:#000000;letter-spacing:normal;word-spacing:normal;text-transform:none;writing-mode:lr-tb;direction:ltr;text-orientation:mixed;dominant-baseline:auto;baseline-shift:baseline;text-anchor:start;white-space:normal;shape-padding:0;clip-rule:nonzero;display:inline;overflow:visible;visibility:visible;opacity:1;isolation:auto;mix-blend-mode:normal;color-interpolation:sRGB;color-interpolation-filters:linearRGB;solid-color:#000000;solid-opacity:1;vector-effect:none;fill:#000000;fill-opacity:1;fill-rule:nonzero;stroke:none;stroke-width:16;stroke-linecap:round;stroke-linejoin:miter;stroke-miterlimit:4;stroke-dasharray:none;stroke-dashoffset:0;stroke-opacity:1;color-rendering:auto;image-rendering:auto;shape-rendering:auto;text-rendering:auto;enable-background:accumulate"
   d="M 6 6 L 6 67.443359 L 6 75.443359 L 6 83.443359 L 6 128.88867 L 6 136.88867 L 6 144.88867 L 6 198.33398 L 6 206.33398 L 164 206.33398 L 306 206.33398 L 306 144.88867 L 306 128.88867 L 306 83.443359 L 306 67.443359 L 306 6 L 164 6 L 6 6 z M 164 22 L 290 22 L 290 67.443359 L 164 67.443359 L 164 22 z M 164 83.443359 L 290 83.443359 L 290 128.88867 L 164 128.88867 L 164 83.443359 z M 380.39844 110.17383 L 349.37305 121.20117 A 8.0008 8.0008 0 0 0 344.10156 123.07617 L 327.74805 128.88867 L 343.67773 134.94336 A 8.0008 8.0008 0 0 0 349.29297 137.19922 C 349.29297 137.19922 349.60722 137.21043 349.64062 137.21094 L 379.97852 148.74219 C 377.96262 145.93943 376.45597 142.88979 375.44727 139.7168 C 377.44543 140.03713 379.50296 140.3959 381.61328 140.80273 C 399.44596 144.24054 420.12089 151.25566 431.72266 162.85742 C 443.32442 174.45919 450.33954 195.13412 453.77734 212.9668 C 454.18392 215.0758 454.5431 217.13191 454.86328 219.12891 C 451.65102 218.11919 448.55178 216.61193 445.68555 214.60156 L 457.38477 245.38086 A 8.0008 8.0008 0 0 0 459.34961 250.55273 L 465.53711 266.83398 L 471.26367 250.72461 A 8.0008 8.0008 0 0 0 473.37891 245.11328 C 473.37891 245.11328 473.36948 244.82394 473.36914 244.79883 L 484.25195 214.18359 C 480.30245 217.15649 475.82564 219.08215 471.17773 220.00781 C 470.71663 216.81216 470.16245 213.43458 469.48828 209.9375 C 465.76145 190.60555 458.7768 167.28266 443.03711 151.54297 C 427.29741 135.80327 403.97258 128.81863 384.64062 125.0918 C 381.14716 124.41832 377.77467 123.86512 374.58203 123.4043 C 375.5136 118.73102 377.44024 114.20244 380.39844 110.17383 z M 164 144.88867 L 290 144.88867 L 290 190.33398 L 164 190.33398 L 164 144.88867 z M 48 290 L 48 298 L 48 390 L 48 398 L 48 406 L 48 506 L 164 506 L 164 406 L 164 390 L 164 290 L 48 290 z M 219 290 L 219 298 L 219 390 L 219 398 L 219 406 L 219 506 L 335 506 L 335 406 L 335 390 L 335 290 L 219 290 z M 390 290 L 390 298 L 390 390 L 390 398 L 390 406 L 390 506 L 506 506 L 506 406 L 506 390 L 506 290 L 390 290 z M 64 406 L 148 406 L 148 490 L 64 490 L 64 406 z M 235 406 L 319 406 L 319 490 L 235 490 L 235 406 z M 406 406 L 490 406 L 490 490 L 406 490 L 406 406 z "
   id="rect1067" /></svg>