<?xml version="1.0" encoding="UTF-8" standalone="no"?>
<!-- Generator: Adobe Illustrator 21.1.0, SVG Export Plug-In . SVG Version: 6.00 Build 0)  -->

<svg
   xmlns:dc="http://purl.org/dc/elements/1.1/"
   xmlns:cc="http://creativecommons.org/ns#"
   xmlns:rdf="http://www.w3.org/1999/02/22-rdf-syntax-ns#"
   xmlns:svg="http://www.w3.org/2000/svg"
   xmlns="http://www.w3.org/2000/svg"
   xmlns:sodipodi="http://sodipodi.sourceforge.net/DTD/sodipodi-0.dtd"
   xmlns:inkscape="http://www.inkscape.org/namespaces/inkscape"
   version="1.1"
   id="Layer_1"
   inkscape:version="0.92.3 (2405546, 2018-03-11)"
   sodipodi:docname="facet.svg"
   x="0px"
   y="0px"
   viewBox="0 0 512 512"
   style="enable-background:new 0 0 512 512;"
   xml:space="preserve"><metadata
   id="metadata78"><rdf:RDF><cc:Work
       rdf:about=""><dc:format>image/svg+xml</dc:format><dc:type
         rdf:resource="http://purl.org/dc/dcmitype/StillImage" /><dc:title /></cc:Work></rdf:RDF></metadata><defs
   id="defs76"><marker
     inkscape:isstock="true"
     style="overflow:visible;"
     id="marker4806"
     refX="0.0"
     refY="0.0"
     orient="auto"
     inkscape:stockid="Arrow2Send"><path
       transform="scale(0.3) rotate(180) translate(-2.3,0)"
       d="M 8.7185878,4.0337352 L -2.2072895,0.016013256 L 8.7185884,-4.0017078 C 6.9730900,-1.6296469 6.9831476,1.6157441 8.7185878,4.0337352 z "
       style="fill-rule:evenodd;stroke-width:0.625;stroke-linejoin:round;stroke:#000000;stroke-opacity:1;fill:#000000;fill-opacity:1"
       id="path4804" /></marker><marker
     inkscape:stockid="Arrow2Send"
     orient="auto"
     refY="0.0"
     refX="0.0"
     id="marker4372"
     style="overflow:visible;"
     inkscape:isstock="true"><path
       id="path2378"
       style="fill-rule:evenodd;stroke-width:0.625;stroke-linejoin:round;stroke:#000000;stroke-opacity:1;fill:#000000;fill-opacity:1"
       d="M 8.7185878,4.0337352 L -2.2072895,0.016013256 L 8.7185884,-4.0017078 C 6.9730900,-1.6296469 6.9831476,1.6157441 8.7185878,4.0337352 z "
       transform="scale(0.3) rotate(180) translate(-2.3,0)" /></marker><marker
     inkscape:stockid="Arrow2Send"
     orient="auto"
     refY="0.0"
     refX="0.0"
     id="Arrow2Send"
     style="overflow:visible;"
     inkscape:isstock="true"><path
       id="path3546"
       style="fill-rule:evenodd;stroke-width:0.625;stroke-linejoin:round;stroke:#000000;stroke-opacity:1;fill:#000000;fill-opacity:1"
       d="M 8.7185878,4.0337352 L -2.2072895,0.016013256 L 8.7185884,-4.0017078 C 6.9730900,-1.6296469 6.9831476,1.6157441 8.7185878,4.0337352 z "
       transform="scale(0.3) rotate(180) translate(-2.3,0)" /></marker></defs>
<style
   type="text/css"
   id="style64">
	.st0{display:none;fill:#EFEAEA;}
	.st1{fill:none;stroke:#000000;stroke-width:49;stroke-miterlimit:10;}
	.st2{fill:#262626;}
</style>
<path
   class="st0"
   d="M420,500.3H91.1c-48.3,0-87.8-39.5-87.8-87.8V99c0-48.3,39.5-87.8,87.8-87.8H420c48.3,0,87.8,39.5,87.8,87.8  v313.5C507.8,460.8,468.3,500.3,420,500.3z"
   id="path66" />
<sodipodi:namedview
   bordercolor="#666666"
   borderopacity="1"
   gridtolerance="10"
   guidetolerance="10"
   id="namedview4578"
   inkscape:current-layer="Layer_1"
   inkscape:cx="448.20652"
   inkscape:cy="-53.871932"
   inkscape:pagecheckerboard="true"
   inkscape:pageopacity="0"
   inkscape:pageshadow="2"
   inkscape:snap-intersection-paths="true"
   inkscape:snap-object-midpoints="true"
   inkscape:window-height="1049"
   inkscape:window-maximized="0"
   inkscape:window-width="1918"
   inkscape:window-x="1920"
   inkscape:window-y="0"
   inkscape:zoom="0.44921876"
   objecttolerance="10"
   pagecolor="#ffffff"
   showgrid="false">
	</sodipodi:namedview>



<path
   style="color:#000000;font-style:normal;font-variant:normal;font-weight:normal;font-stretch:normal;font-size:medium;line-height:normal;font-family:sans-serif;font-variant-ligatures:normal;font-variant-position:normal;font-variant-caps:normal;font-variant-numeric:normal;font-variant-alternates:normal;font-feature-settings:normal;text-indent:0;text-align:start;text-decoration:none;text-decoration-line:none;text-decoration-style:solid;text-decoration-color:#000000;letter-spacing:normal;word-spacing:normal;text-transform:none;writing-mode:lr-tb;direction:ltr;text-orientation:mixed;dominant-baseline:auto;baseline-shift:baseline;text-anchor:start;white-space:normal;shape-padding:0;clip-rule:nonzero;display:inline;overflow:visible;visibility:visible;opacity:1;isolation:auto;mix-blend-mode:normal;color-interpolation:sRGB;color-interpolation-filters:linearRGB;solid-color:#000000;solid-opacity:1;vector-effect:none;fill:#000000;fill-opacity:1;fill-rule:nonzero;stroke:none;stroke-width:32.15657043;stroke-linecap:butt;stroke-linejoin:miter;stroke-miterlimit:4;stroke-dasharray:none;stroke-dashoffset:0;stroke-opacity:1;color-rendering:auto;image-rendering:auto;shape-rendering:auto;text-rendering:auto;enable-background:accumulate"
   d="M 6,20.061713 C 6,182.04114 6,344.02057 6,506 c 61.806299,0 123.6126,0 185.4189,0 0,-166.66666 0,-333.33334 0,-500 C 129.6126,6 67.806299,6 6,6 c 0,4.687238 0,9.374475 0,14.061713 z m 332.6357,-0.104351 c 0,97.619488 0,195.238998 0,292.858498 55.7881,0 111.5762,0 167.3643,0 C 506,210.5439 506,108.27196 506,6 450.2119,6 394.4238,6 338.6357,6 c 0,4.652454 0,9.304908 0,13.957362 z m 29.93282,13.959331 c 36.50493,0 73.00986,0 109.51479,0 0,37.176973 0,74.353947 0,111.530917 -37.17698,0 -74.35395,0 -111.53092,0 0,-37.17697 0,-74.353944 0,-111.530917 h 1.00806 z M 36.139554,34.123425 c 42.38465,0 84.769296,-10e-7 127.153956,0 0,43.056693 0,86.113385 0,129.170085 -43.0567,0 -86.113392,0 -129.170085,0 0,-43.0567 -10e-7,-86.113392 0,-129.170085 H 35.13149 Z M 223.84038,140.82469 c 6.60945,3.20206 12.56471,7.61787 17.87739,12.66578 -12.49737,8.21116 -24.99701,16.41885 -37.49527,24.62867 5.0272,7.65302 10.0544,15.30604 15.08159,22.95907 12.50454,-8.21252 25.00733,-16.42771 37.513,-24.63852 2.47882,6.77738 4.13,13.89205 4.3965,21.12013 19.51239,-26.35628 39.02412,-52.71294 58.53271,-79.07203 -31.96864,7.44564 -63.93728,14.89127 -95.90592,22.3369 z m 144.72814,32.53961 c 36.50493,0 73.00986,0 109.51479,0 0,37.17829 0,74.35658 0,111.53486 -37.17698,0 -74.35395,0 -111.53092,0 0,-37.17828 0,-74.35657 0,-111.53486 h 1.00806 z M 36.139554,191.4189 c 42.38465,0 84.769296,0 127.153956,0 0,43.05472 0,86.10945 0,129.16417 -43.0567,0 -86.113392,0 -129.170085,0 0,-43.05472 -10e-7,-86.10945 0,-129.16417 H 35.13149 Z M 204.2225,336.59988 c 12.50426,8.2136 25.00911,16.4263 37.51299,24.64048 -5.23584,4.96596 -11.10813,9.30895 -17.63522,12.42558 31.93958,7.43918 63.87256,14.87477 95.81141,22.31327 -19.46637,-26.03639 -39.47655,-53.84801 -58.6036,-78.7767 -0.35847,7.21127 -2.02649,14.3021 -4.50872,21.06698 -12.49926,-8.20828 -24.99671,-16.41933 -37.49527,-24.62867 -5.02719,7.65301 -10.05439,15.30603 -15.08159,22.95906 z m 134.4132,15.99317 c 0,51.13565 0,102.2713 0,153.40695 55.7881,0 111.5762,0 167.3643,0 0,-55.78876 0,-111.57752 0,-167.36627 -55.7881,0 -111.5762,0 -167.3643,0 0,4.6531 0,9.30622 0,13.95932 z M 36.139554,348.70847 c 42.38465,0 84.769296,0 127.153956,0 0,43.05604 0,86.11206 0,129.1681 -43.0567,0 -86.113392,0 -129.170085,0 0,-43.05604 0,-86.11206 0,-129.1681 h 1.008065 z m 332.428966,17.84195 c 36.50493,0 73.00986,0 109.51479,0 0,37.17762 0,74.35526 0,111.53289 -37.17698,0 -74.35395,0 -111.53092,0 0,-37.17763 0,-74.35527 0,-111.53289 h 1.00806 z"
   id="rect3769"
   inkscape:connector-curvature="0" /></svg>