<?xml version="1.0" encoding="UTF-8" standalone="no"?>
<!-- Generator: Adobe Illustrator 21.1.0, SVG Export Plug-In . SVG Version: 6.00 Build 0)  -->

<svg
   xmlns:dc="http://purl.org/dc/elements/1.1/"
   xmlns:cc="http://creativecommons.org/ns#"
   xmlns:rdf="http://www.w3.org/1999/02/22-rdf-syntax-ns#"
   xmlns:svg="http://www.w3.org/2000/svg"
   xmlns="http://www.w3.org/2000/svg"
   xmlns:sodipodi="http://sodipodi.sourceforge.net/DTD/sodipodi-0.dtd"
   xmlns:inkscape="http://www.inkscape.org/namespaces/inkscape"
   version="1.1"
   id="Layer_1"
   inkscape:version="0.92.3 (2405546, 2018-03-11)"
   sodipodi:docname="filter.svg"
   x="0px"
   y="0px"
   viewBox="0 0 512 512"
   style="enable-background:new 0 0 512 512;"
   xml:space="preserve"><metadata
   id="metadata153"><rdf:RDF><cc:Work
       rdf:about=""><dc:format>image/svg+xml</dc:format><dc:type
         rdf:resource="http://purl.org/dc/dcmitype/StillImage" /><dc:title></dc:title></cc:Work></rdf:RDF></metadata><defs
   id="defs151" />
<style
   type="text/css"
   id="style139">
	.st0{display:none;fill:#EFEAEA;}
	.st1{fill:none;stroke:#000000;stroke-width:89;stroke-miterlimit:10;}
	.st2{fill:#262626;}
</style>
<path
   class="st0"
   d="M419,501.3H90.1c-48.3,0-87.8-39.5-87.8-87.8V100c0-48.3,39.5-87.8,87.8-87.8H419c48.3,0,87.8,39.5,87.8,87.8  v313.5C506.8,461.8,467.3,501.3,419,501.3z"
   id="path141" />
<sodipodi:namedview
   bordercolor="#666666"
   borderopacity="1"
   gridtolerance="10"
   guidetolerance="10"
   id="namedview4578"
   inkscape:current-layer="Layer_1"
   inkscape:cx="38.068156"
   inkscape:cy="234.16613"
   inkscape:pagecheckerboard="true"
   inkscape:pageopacity="0"
   inkscape:pageshadow="2"
   inkscape:snap-intersection-paths="true"
   inkscape:snap-object-midpoints="true"
   inkscape:window-height="1002"
   inkscape:window-maximized="0"
   inkscape:window-width="1918"
   inkscape:window-x="0"
   inkscape:window-y="0"
   inkscape:zoom="1.2705825"
   objecttolerance="10"
   pagecolor="#ffffff"
   showgrid="false"
   inkscape:snap-bbox="false"
   inkscape:snap-bbox-midpoints="false">
	</sodipodi:namedview>



<path
   style="fill:#000000;stroke-width:2.7229712"
   d="m 202.08388,461.72048 c -2.42649,-2.42649 -3.26757,-29.83537 -3.26757,-106.48495 V 252.01815 L 102.01055,156.58277 C 18.678398,74.430286 5.3190378,60.163686 6.0258078,54.07967 l 0.82103,-7.067717 H 255.99871 505.15058 l 0.82313,7.089446 c 0.7099,6.114105 -12.49525,20.202378 -95.98474,102.403731 l -96.80786,95.31432 v 77.57108 c 0,70.49621 -0.43461,77.94593 -4.7652,81.68103 -8.90139,7.67739 -92.97564,53.91649 -98.03364,53.91649 -2.76695,0 -6.50123,-1.4704 -8.29839,-3.26757 z"
   id="path20"
   inkscape:connector-curvature="0" /></svg>