<?xml version="1.0" encoding="UTF-8" standalone="no"?>
<!-- Generator: Adobe Illustrator 19.2.1, SVG Export Plug-In . SVG Version: 6.00 Build 0)  -->

<svg
   xmlns:dc="http://purl.org/dc/elements/1.1/"
   xmlns:cc="http://creativecommons.org/ns#"
   xmlns:rdf="http://www.w3.org/1999/02/22-rdf-syntax-ns#"
   xmlns:svg="http://www.w3.org/2000/svg"
   xmlns="http://www.w3.org/2000/svg"
   xmlns:sodipodi="http://sodipodi.sourceforge.net/DTD/sodipodi-0.dtd"
   xmlns:inkscape="http://www.inkscape.org/namespaces/inkscape"
   version="1.1"
   id="Layer_1"
   x="0px"
   y="0px"
   viewBox="0 0 512 512"
   style="enable-background:new 0 0 512 512;"
   xml:space="preserve"
   sodipodi:docname="group.svg"
   inkscape:version="0.92.3 (2405546, 2018-03-11)"><metadata
     id="metadata4582"><rdf:RDF><cc:Work
         rdf:about=""><dc:format>image/svg+xml</dc:format><dc:type
           rdf:resource="http://purl.org/dc/dcmitype/StillImage" /><dc:title></dc:title></cc:Work></rdf:RDF></metadata><defs
     id="defs4580" /><sodipodi:namedview
     pagecolor="#ffffff"
     bordercolor="#666666"
     borderopacity="1"
     objecttolerance="10"
     gridtolerance="10"
     guidetolerance="10"
     inkscape:pageopacity="0"
     inkscape:pageshadow="2"
     inkscape:window-width="958"
     inkscape:window-height="1049"
     id="namedview4578"
     showgrid="false"
     inkscape:pagecheckerboard="true"
     inkscape:zoom="0.63529125"
     inkscape:cx="272.70133"
     inkscape:cy="65.061334"
     inkscape:window-x="1920"
     inkscape:window-y="0"
     inkscape:window-maximized="0"
     inkscape:current-layer="Layer_1" /><style
     type="text/css"
     id="style4569">
	.st0{fill:#ffffff;}
</style><path
     style="fill:#000000;stroke:none;stroke-width:3.77952766;stroke-miterlimit:4;stroke-dasharray:none"
     d="M 256 6.8476562 L 255.60547 6.8515625 L 249.97852 6.9238281 L 249.58398 6.9277344 L 249.19141 6.9433594 L 243.59961 7.15625 L 243.20508 7.171875 L 242.8125 7.1953125 L 237.25781 7.5488281 L 236.86328 7.5722656 L 236.47266 7.6074219 L 230.95508 8.0976562 L 230.56445 8.1328125 L 230.17383 8.1777344 L 224.69727 8.8027344 L 224.30664 8.8476562 L 223.91797 8.9023438 L 221.16406 9.2871094 L 229.79688 70.986328 L 232.20117 70.650391 L 236.82812 70.123047 L 241.63477 69.695312 L 246.31445 69.398438 L 251.17773 69.212891 L 256 69.154297 L 260.82227 69.212891 L 265.68555 69.398438 L 270.36523 69.695312 L 275.17188 70.123047 L 279.79883 70.650391 L 283.25391 71.132812 L 291.88672 9.4335938 L 288.08203 8.9023438 L 287.69336 8.8476562 L 287.30273 8.8027344 L 281.82617 8.1777344 L 281.43555 8.1328125 L 281.04492 8.0976562 L 275.52734 7.6074219 L 275.13672 7.5722656 L 274.74219 7.5488281 L 269.1875 7.1953125 L 268.79492 7.171875 L 268.40039 7.15625 L 262.80859 6.9433594 L 262.41602 6.9277344 L 262.02148 6.9238281 L 256.39453 6.8515625 L 256 6.8476562 z M 152.68359 29.230469 L 148.31055 31.271484 L 147.96484 31.433594 L 147.625 31.601562 L 142.89258 33.953125 L 142.55469 34.121094 L 142.21875 34.298828 L 137.55273 36.761719 L 137.21875 36.9375 L 136.88867 37.121094 L 132.28906 39.693359 L 131.96094 39.876953 L 131.63672 40.068359 L 127.10547 42.746094 L 126.7832 42.9375 L 126.46484 43.136719 L 122.00586 45.919922 L 121.6875 46.119141 L 121.37305 46.324219 L 116.98828 49.210938 L 116.67578 49.417969 L 116.36719 49.630859 L 112.05664 52.619141 L 111.74805 52.832031 L 111.44727 53.052734 L 107.21094 56.140625 L 106.91016 56.361328 L 106.61328 56.587891 L 102.45703 59.775391 L 102.16016 60.001953 L 101.87109 60.236328 L 97.792969 63.519531 L 97.503906 63.753906 L 97.21875 63.994141 L 93.470703 67.164062 L 133.69531 114.73633 L 137.14258 111.82227 L 140.65039 108.99805 L 144.2168 106.26172 L 147.84766 103.61328 L 151.5957 101.01562 L 155.31836 98.566406 L 159.0957 96.207031 L 163.02148 93.886719 L 166.96484 91.681641 L 170.99805 89.554688 L 174.98828 87.572266 L 179.03906 85.679688 L 152.68359 29.230469 z M 360.2793 29.679688 L 333.92188 86.128906 L 337.01172 87.572266 L 341.00195 89.554688 L 345.03516 91.681641 L 348.97852 93.886719 L 352.9043 96.207031 L 356.68164 98.566406 L 360.4043 101.01562 L 364.15234 103.61328 L 367.7832 106.26172 L 371.34961 108.99805 L 374.85547 111.82031 L 378.27344 114.71094 L 378.54102 114.94922 L 378.54688 114.94336 L 378.55273 114.94727 L 378.75391 114.70898 L 419.89062 68.349609 L 419.33984 67.859375 L 419.06055 67.613281 L 418.77734 67.373047 L 414.78125 63.994141 L 414.49609 63.753906 L 414.20703 63.519531 L 410.12891 60.236328 L 409.83984 60.001953 L 409.54297 59.775391 L 405.38672 56.587891 L 405.08984 56.361328 L 404.78906 56.140625 L 400.55273 53.052734 L 400.25195 52.832031 L 399.94336 52.619141 L 395.63281 49.630859 L 395.32422 49.417969 L 395.01172 49.210938 L 390.62695 46.324219 L 390.3125 46.119141 L 389.99414 45.919922 L 385.53516 43.136719 L 385.2168 42.9375 L 384.89453 42.746094 L 380.36328 40.068359 L 380.03906 39.876953 L 379.71094 39.693359 L 375.11133 37.121094 L 374.78125 36.9375 L 374.44727 36.761719 L 369.78125 34.298828 L 369.44531 34.121094 L 369.10742 33.953125 L 364.375 31.601562 L 364.03516 31.433594 L 363.68945 31.271484 L 360.2793 29.679688 z M 46.796875 120.65625 L 46.324219 121.37305 L 46.119141 121.6875 L 45.919922 122.00586 L 43.136719 126.46484 L 42.9375 126.7832 L 42.746094 127.10547 L 40.068359 131.63672 L 39.876953 131.96094 L 39.693359 132.28906 L 37.121094 136.88867 L 36.9375 137.21875 L 36.761719 137.55273 L 34.298828 142.21875 L 34.121094 142.55469 L 33.953125 142.89258 L 31.601562 147.625 L 31.433594 147.96484 L 31.271484 148.31055 L 29.033203 153.10742 L 28.871094 153.45117 L 28.71875 153.80078 L 26.59375 158.66016 L 26.439453 159.00977 L 26.294922 159.36328 L 24.285156 164.2832 L 24.140625 164.63672 L 24.003906 164.99609 L 22.111328 169.97461 L 21.974609 170.33398 L 21.847656 170.69531 L 20.074219 175.73242 L 19.945312 176.0957 L 19.826172 176.46289 L 18.173828 181.55469 L 18.054688 181.92188 L 17.943359 182.29102 L 17.042969 185.31836 L 76.757812 203.08203 L 77.556641 200.39453 L 78.949219 196.10547 L 80.480469 191.75977 L 82.115234 187.45898 L 83.814453 183.29883 L 85.65625 179.08789 L 87.572266 174.98828 L 89.554688 170.99805 L 91.681641 166.96484 L 93.886719 163.02148 L 96.207031 159.0957 L 98.558594 155.33008 L 98.835938 154.91016 L 46.796875 120.65625 z M 466.1875 122.17773 L 413.33984 155.16797 L 415.79297 159.0957 L 418.11328 163.02148 L 420.31836 166.96484 L 422.44531 170.99805 L 424.42773 174.98828 L 426.34375 179.08789 L 428.18555 183.29883 L 429.88477 187.45898 L 431.51953 191.75977 L 433.05078 196.10547 L 434.44336 200.39453 L 435.54492 204.09961 L 495.25977 186.33594 L 494.05664 182.29102 L 493.94531 181.92188 L 493.82617 181.55469 L 492.17383 176.46289 L 492.05469 176.0957 L 491.92578 175.73242 L 490.15234 170.69531 L 490.02539 170.33398 L 489.88867 169.97461 L 487.99609 164.99609 L 487.85938 164.63672 L 487.71484 164.2832 L 485.70508 159.36328 L 485.56055 159.00977 L 485.40625 158.66016 L 483.28125 153.80078 L 483.12891 153.45117 L 482.9668 153.10742 L 480.72852 148.31055 L 480.56641 147.96484 L 480.39844 147.625 L 478.04688 142.89258 L 477.87891 142.55469 L 477.70117 142.21875 L 475.23828 137.55273 L 475.0625 137.21875 L 474.87891 136.88867 L 472.30664 132.28906 L 472.12305 131.96094 L 471.93164 131.63672 L 469.25391 127.10547 L 469.0625 126.7832 L 468.86328 126.46484 L 466.1875 122.17773 z M 306.98633 123.90039 A 48.110237 48.110237 0 0 0 288.17773 127.3125 A 48.110237 48.110237 0 0 0 261.3125 189.82227 A 48.110237 48.110237 0 0 0 323.82227 216.6875 A 48.110237 48.110237 0 0 0 350.6875 154.17773 A 48.110237 48.110237 0 0 0 306.98633 123.90039 z M 162.98633 209.90039 A 48.110237 48.110237 0 0 0 144.17773 213.3125 A 48.110237 48.110237 0 0 0 117.3125 275.82227 A 48.110237 48.110237 0 0 0 179.82227 302.6875 A 48.110237 48.110237 0 0 0 206.6875 240.17773 A 48.110237 48.110237 0 0 0 162.98633 209.90039 z M 6.8574219 255.25195 L 6.8515625 255.60547 L 6.8476562 256 L 6.8515625 256.39453 L 6.9238281 262.02148 L 6.9277344 262.41602 L 6.9433594 262.80859 L 7.15625 268.40039 L 7.171875 268.79492 L 7.1953125 269.1875 L 7.5488281 274.74219 L 7.5722656 275.13672 L 7.6074219 275.52734 L 8.0976562 281.04492 L 8.1328125 281.43555 L 8.1777344 281.82617 L 8.8027344 287.30273 L 8.8476562 287.69336 L 8.9023438 288.08203 L 9.6621094 293.51562 L 9.7167969 293.9043 L 9.78125 294.29102 L 10.673828 299.68164 L 10.738281 300.06641 L 10.810547 300.45117 L 11.835938 305.79688 L 11.908203 306.17969 L 11.992188 306.56055 L 13.144531 311.85938 L 13.228516 312.23828 L 13.320312 312.61719 L 14.601562 317.86523 L 14.693359 318.24414 L 14.794922 318.61914 L 16.201172 323.81641 L 16.302734 324.19141 L 16.412109 324.5625 L 16.841797 326.00391 L 76.556641 308.24023 L 76.230469 307.14648 L 75.03125 302.7168 L 73.943359 298.25391 L 72.962891 293.75586 L 72.080078 289.15234 L 71.310547 284.51758 L 70.650391 279.79688 L 70.123047 275.17188 L 69.695312 270.36523 L 69.398438 265.68555 L 69.212891 260.82227 L 69.148438 255.60547 L 51.957031 255.82227 L 6.8574219 255.25195 z M 442.85156 255.60547 L 442.78711 260.82227 L 442.60156 265.68555 L 442.30469 270.36523 L 441.87695 275.17188 L 441.34961 279.79688 L 440.68945 284.51758 L 439.91992 289.15234 L 439.03711 293.75586 L 438.05664 298.25391 L 436.96875 302.7168 L 435.76562 307.16016 L 435.34375 308.58008 L 495.05664 326.3418 L 495.58789 324.5625 L 495.69727 324.19141 L 495.79883 323.81641 L 497.20508 318.61914 L 497.30664 318.24414 L 497.39844 317.86523 L 498.67969 312.61719 L 498.77148 312.23828 L 498.85547 311.85938 L 500.00781 306.56055 L 500.0918 306.17969 L 500.16406 305.79688 L 501.18945 300.45117 L 501.26172 300.06641 L 501.32617 299.68164 L 502.21875 294.29102 L 502.2832 293.9043 L 502.33789 293.51562 L 503.09766 288.08203 L 503.15234 287.69336 L 503.19727 287.30273 L 503.82227 281.82617 L 503.86719 281.43555 L 503.90234 281.04492 L 504.39258 275.52734 L 504.42773 275.13672 L 504.45117 274.74219 L 504.80469 269.1875 L 504.82812 268.79492 L 504.84375 268.40039 L 505.05664 262.80859 L 505.07227 262.41602 L 505.07617 262.02148 L 505.14844 256.39453 L 442.85156 255.60547 z M 306.98633 295.90039 A 48.110237 48.110237 0 0 0 288.17773 299.3125 A 48.110237 48.110237 0 0 0 261.3125 361.82227 A 48.110237 48.110237 0 0 0 323.82227 388.6875 A 48.110237 48.110237 0 0 0 350.6875 326.17773 A 48.110237 48.110237 0 0 0 306.98633 295.90039 z M 98.447266 356.5 L 46.408203 390.75195 L 49.210938 395.01172 L 49.417969 395.32422 L 49.630859 395.63281 L 52.619141 399.94336 L 52.832031 400.25195 L 53.052734 400.55273 L 56.140625 404.78906 L 56.361328 405.08984 L 56.587891 405.38672 L 59.775391 409.54297 L 60.001953 409.83984 L 60.236328 410.12891 L 63.519531 414.20703 L 63.753906 414.49609 L 63.994141 414.78125 L 67.373047 418.77734 L 67.613281 419.06055 L 67.859375 419.33984 L 71.332031 423.25391 L 71.580078 423.53125 L 71.832031 423.80273 L 75.396484 427.63086 L 75.650391 427.9043 L 75.910156 428.16992 L 79.5625 431.91211 L 79.822266 432.17773 L 80.087891 432.4375 L 83.830078 436.08984 L 84.095703 436.34961 L 84.369141 436.60352 L 88.197266 440.16797 L 88.46875 440.41992 L 88.746094 440.66797 L 92.373047 443.88477 L 133.72266 397.28516 L 130.38672 394.32617 L 127.09961 391.26562 L 123.87891 388.12109 L 120.73438 384.90039 L 117.67188 381.61133 L 114.72852 378.29297 L 111.82031 374.85547 L 108.99805 371.34961 L 106.26172 367.7832 L 103.61328 364.15234 L 101.01562 360.4043 L 98.447266 356.5 z M 413.35938 356.79492 L 410.98438 360.40234 L 408.38672 364.15234 L 405.73828 367.7832 L 403.00195 371.34961 L 400.17969 374.85547 L 397.27148 378.29297 L 394.32812 381.61133 L 391.26562 384.90039 L 388.12109 388.12109 L 384.90039 391.26562 L 381.61328 394.32812 L 378.01172 397.52148 L 419.36133 444.11914 L 423.25391 440.66797 L 423.53125 440.41992 L 423.80273 440.16797 L 427.63086 436.60352 L 427.9043 436.34961 L 428.16992 436.08984 L 431.91211 432.4375 L 432.17773 432.17773 L 432.4375 431.91211 L 436.08984 428.16992 L 436.34961 427.9043 L 436.60352 427.63086 L 440.16797 423.80273 L 440.41992 423.53125 L 440.66797 423.25391 L 444.14062 419.33984 L 444.38672 419.06055 L 444.62695 418.77734 L 448.00586 414.78125 L 448.24609 414.49609 L 448.48047 414.20703 L 451.76367 410.12891 L 451.99805 409.83984 L 452.22461 409.54297 L 455.41211 405.38672 L 455.63867 405.08984 L 455.85938 404.78906 L 458.94727 400.55273 L 459.16797 400.25195 L 459.38086 399.94336 L 462.36914 395.63281 L 462.58203 395.32422 L 462.78906 395.01172 L 465.39844 391.04688 L 413.35938 356.79492 z M 178.39844 426.01953 L 152.04102 482.4707 L 153.10742 482.9668 L 153.45117 483.12891 L 153.80078 483.28125 L 158.66016 485.40625 L 159.00977 485.56055 L 159.36328 485.70508 L 164.2832 487.71484 L 164.63672 487.85938 L 164.99609 487.99609 L 169.97461 489.88867 L 170.33398 490.02539 L 170.69531 490.15234 L 175.73242 491.92578 L 176.0957 492.05469 L 176.46289 492.17383 L 181.55469 493.82617 L 181.92188 493.94531 L 182.29102 494.05664 L 187.4375 495.58789 L 187.80859 495.69727 L 188.18359 495.79883 L 193.38086 497.20508 L 193.75586 497.30664 L 194.13477 497.39844 L 199.38281 498.67969 L 199.76172 498.77148 L 200.14062 498.85547 L 205.43945 500.00781 L 205.82031 500.0918 L 206.20312 500.16406 L 211.54883 501.18945 L 211.93359 501.26172 L 212.31836 501.32617 L 217.70898 502.21875 L 218.0957 502.2832 L 218.48438 502.33789 L 220.46289 502.61523 L 229.0957 440.91602 L 227.48633 440.69141 L 222.84766 439.91992 L 218.24414 439.03711 L 213.74609 438.05664 L 209.2832 436.96875 L 204.8457 435.76758 L 200.39648 434.44336 L 196.10547 433.05078 L 191.75977 431.51953 L 187.45898 429.88477 L 183.29883 428.18555 L 179.09961 426.34766 L 178.39844 426.01953 z M 333.28125 426.16992 L 332.9082 426.34375 L 328.70117 428.18555 L 324.54102 429.88477 L 320.24023 431.51953 L 315.89453 433.05078 L 311.60352 434.44336 L 307.1543 435.76758 L 302.7168 436.96875 L 298.25391 438.05664 L 293.75586 439.03711 L 289.15234 439.91992 L 284.51562 440.68945 L 282.55273 440.96484 L 291.18555 502.66406 L 293.51562 502.33789 L 293.9043 502.2832 L 294.29102 502.21875 L 299.68164 501.32617 L 300.06641 501.26172 L 300.45117 501.18945 L 305.79688 500.16406 L 306.17969 500.0918 L 306.56055 500.00781 L 311.85938 498.85547 L 312.23828 498.77148 L 312.61719 498.67969 L 317.86523 497.39844 L 318.24414 497.30664 L 318.61914 497.20508 L 323.81641 495.79883 L 324.19141 495.69727 L 324.5625 495.58789 L 329.70898 494.05664 L 330.07812 493.94531 L 330.44531 493.82617 L 335.53711 492.17383 L 335.9043 492.05469 L 336.26758 491.92578 L 341.30469 490.15234 L 341.66602 490.02539 L 342.02539 489.88867 L 347.00391 487.99609 L 347.36328 487.85938 L 347.7168 487.71484 L 352.63672 485.70508 L 352.99023 485.56055 L 353.33984 485.40625 L 358.19922 483.28125 L 358.54883 483.12891 L 358.89258 482.9668 L 359.63672 482.62109 L 333.28125 426.16992 z "
     id="path3566" /></svg>