<?xml version="1.0" encoding="UTF-8" standalone="no"?>
<!-- Generator: Adobe Illustrator 19.2.1, SVG Export Plug-In . SVG Version: 6.00 Build 0)  -->

<svg
   xmlns:dc="http://purl.org/dc/elements/1.1/"
   xmlns:cc="http://creativecommons.org/ns#"
   xmlns:rdf="http://www.w3.org/1999/02/22-rdf-syntax-ns#"
   xmlns:svg="http://www.w3.org/2000/svg"
   xmlns="http://www.w3.org/2000/svg"
   xmlns:sodipodi="http://sodipodi.sourceforge.net/DTD/sodipodi-0.dtd"
   xmlns:inkscape="http://www.inkscape.org/namespaces/inkscape"
   version="1.1"
   id="Layer_1"
   x="0px"
   y="0px"
   viewBox="0 0 512 512"
   style="enable-background:new 0 0 512 512;"
   xml:space="preserve"
   sodipodi:docname="guidedTour.svg"
   inkscape:version="0.92.3 (2405546, 2018-03-11)"><metadata
     id="metadata4582"><rdf:RDF><cc:Work
         rdf:about=""><dc:format>image/svg+xml</dc:format><dc:type
           rdf:resource="http://purl.org/dc/dcmitype/StillImage" /><dc:title></dc:title></cc:Work></rdf:RDF></metadata><defs
     id="defs4580" /><sodipodi:namedview
     pagecolor="#ffffff"
     bordercolor="#666666"
     borderopacity="1"
     objecttolerance="10"
     gridtolerance="10"
     guidetolerance="10"
     inkscape:pageopacity="0"
     inkscape:pageshadow="2"
     inkscape:window-width="958"
     inkscape:window-height="1049"
     id="namedview4578"
     showgrid="false"
     inkscape:pagecheckerboard="true"
     inkscape:zoom="0.63529125"
     inkscape:cx="26.415214"
     inkscape:cy="109.6402"
     inkscape:window-x="1920"
     inkscape:window-y="0"
     inkscape:window-maximized="0"
     inkscape:current-layer="Layer_1" /><style
     type="text/css"
     id="style4569">
	.st0{fill:#ffffff;}
</style><path
     style="fill:#000000;fill-opacity:1;stroke-width:1"
     d="m 256.00001,6.9591804 c -4.6548,0 -9.3089,6.0079996 -18.25226,18.0190256 l -13.46416,18.080989 v 12.702593 12.698973 h -37.24785 c -34.91636,0 -37.36868,0.228265 -39.17911,3.611082 -1.18682,2.217631 -1.93125,21.994832 -1.93125,51.305967 0,45.20972 0.19461,47.88948 3.73135,51.42623 3.66931,3.66941 6.22082,3.73135 153.38225,3.73135 h 149.64727 l 26.6587,-26.65506 C 494.00629,137.21901 506,124.06322 506,122.64539 506,121.22755 494.49629,108.45813 480.43446,94.266787 L 454.86528,68.460761 H 371.29267 287.71643 V 55.761788 43.059195 L 274.25225,24.978206 C 265.30891,12.96718 260.6548,6.9591804 256.00001,6.9591804 Z m -30.78358,185.5687396 -0.57209,7.92911 -0.57575,7.9291 h -83.3066 -83.306605 l -25.72952,25.7295 c -14.14964,14.14964 -25.72586,26.91906 -25.72586,28.37862 0,1.45953 11.99735,14.65013 26.6587,29.31145 l 26.65505,26.65506 H 208.96467 c 147.16144,0 149.70931,-0.0621 153.37862,-3.73135 3.53673,-3.53675 3.73134,-6.21651 3.73134,-51.42623 0,-29.31114 -0.74442,-49.08834 -1.93127,-51.30597 -1.81013,-3.38227 -4.25944,-3.61108 -39.06977,-3.61108 h -37.14218 l -0.57209,-7.9291 -0.57573,-7.92911 h -30.78358 z m 0,139.92537 -0.48465,77.89179 -0.48828,77.89179 h -51.84526 c -37.83647,-2e-5 -52.44873,0.60711 -54.08261,2.24099 -3.29916,3.29916 -2.72392,10.35205 1.02393,12.53498 4.54795,2.6489 268.03421,2.72983 272.97836,0.0838 4.0338,-2.15882 4.79757,-9.19132 1.37011,-12.61879 -1.63388,-1.63388 -16.24977,-2.24099 -54.08625,-2.24099 H 287.7565 l -0.48463,-77.89182 -0.48828,-77.89178 h -30.78358 z"
     id="path856"
     inkscape:connector-curvature="0" /></svg>