<?xml version="1.0" encoding="UTF-8" standalone="no"?>
<!-- Generator: Adobe Illustrator 19.2.1, SVG Export Plug-In . SVG Version: 6.00 Build 0)  -->

<svg
   xmlns:dc="http://purl.org/dc/elements/1.1/"
   xmlns:cc="http://creativecommons.org/ns#"
   xmlns:rdf="http://www.w3.org/1999/02/22-rdf-syntax-ns#"
   xmlns:svg="http://www.w3.org/2000/svg"
   xmlns="http://www.w3.org/2000/svg"
   xmlns:sodipodi="http://sodipodi.sourceforge.net/DTD/sodipodi-0.dtd"
   xmlns:inkscape="http://www.inkscape.org/namespaces/inkscape"
   version="1.1"
   id="Layer_1"
   x="0px"
   y="0px"
   viewBox="0 0 512 512"
   style="enable-background:new 0 0 512 512;"
   xml:space="preserve"
   sodipodi:docname="help.svg"
   inkscape:version="0.92.3 (2405546, 2018-03-11)"><metadata
     id="metadata4385"><rdf:RDF><cc:Work
         rdf:about=""><dc:format>image/svg+xml</dc:format><dc:type
           rdf:resource="http://purl.org/dc/dcmitype/StillImage" /><dc:title></dc:title></cc:Work></rdf:RDF></metadata><defs
     id="defs4383" /><sodipodi:namedview
     pagecolor="#ffffff"
     bordercolor="#666666"
     borderopacity="1"
     objecttolerance="10"
     gridtolerance="10"
     guidetolerance="10"
     inkscape:pageopacity="0"
     inkscape:pageshadow="2"
     inkscape:window-width="1920"
     inkscape:window-height="1007"
     id="namedview4381"
     showgrid="false"
     inkscape:pagecheckerboard="true"
     inkscape:zoom="1.3037281"
     inkscape:cx="194.04768"
     inkscape:cy="246.93741"
     inkscape:window-x="0"
     inkscape:window-y="0"
     inkscape:window-maximized="1"
     inkscape:current-layer="Layer_1"
     inkscape:snap-object-midpoints="true" /><style
     type="text/css"
     id="style4376">
	.st0{fill:#000000;}
</style><path
     inkscape:connector-curvature="0"
     id="path839"
     style="font-style:normal;font-variant:normal;font-weight:bold;font-stretch:normal;font-size:192px;line-height:1.25;font-family:'Josefin sans';-inkscape-font-specification:'Josefin sans Bold';letter-spacing:0px;word-spacing:0px;fill:#000000;fill-opacity:1;stroke:none;stroke-width:1"
     d="m 210.41958,173.2982 q -9.4357,-3.43117 -19.3003,-6.86233 -9.4357,-3.86006 -18.8714,-7.29122 2.57338,-8.57791 7.72012,-20.58699 5.14675,-12.00907 15.01134,-22.73146 9.8646,-10.72238 25.73373,-18.013606 15.86913,-7.720119 40.31618,-7.720119 18.01361,0 33.45384,6.862328 15.86914,6.862327 27.02042,18.442507 11.58018,11.58018 18.01361,27.02041 6.86233,15.44024 6.86233,32.59606 0,24.44704 -11.58018,42.88955 -11.15128,18.4425 -30.88048,33.45384 -5.57564,3.86006 -12.43796,8.57791 -6.86233,4.71785 -13.29576,11.15129 -6.00454,6.00453 -10.2935,14.15355 -4.28895,7.72012 -4.28895,18.4425 v 34.31164 h -44.60513 v -42.46065 q 0,-14.15355 4.28896,-23.16036 4.28895,-9.0068 11.15128,-15.44023 7.29122,-6.86233 16.29803,-12.43797 9.0068,-6.00454 18.8714,-13.29576 31.73826,-24.01815 31.73826,-56.18531 0,-18.01361 -11.15128,-30.02268 -10.72239,-12.00908 -29.16489,-12.00908 -12.00908,0 -20.15809,2.57338 -8.14901,2.57337 -14.15355,7.72011 -5.57564,4.71785 -9.4357,12.43797 -3.86006,7.29123 -6.86233,17.58472 z m 30.45158,238.46588 q -9.8646,0 -18.44251,-6.86233 -8.14901,-7.29122 -8.14901,-19.30029 0,-11.15128 8.14901,-18.8714 8.57791,-7.72012 18.44251,-7.72012 9.4357,0 17.58471,7.72012 8.14902,7.72012 8.14902,18.8714 0,12.00907 -8.14902,19.30029 -8.14901,6.86233 -17.58471,6.86233 z" /><path
     style="color:#000000;font-style:normal;font-variant:normal;font-weight:normal;font-stretch:normal;font-size:medium;line-height:normal;font-family:sans-serif;font-variant-ligatures:normal;font-variant-position:normal;font-variant-caps:normal;font-variant-numeric:normal;font-variant-alternates:normal;font-feature-settings:normal;text-indent:0;text-align:start;text-decoration:none;text-decoration-line:none;text-decoration-style:solid;text-decoration-color:#000000;letter-spacing:normal;word-spacing:normal;text-transform:none;writing-mode:lr-tb;direction:ltr;text-orientation:mixed;dominant-baseline:auto;baseline-shift:baseline;text-anchor:start;white-space:normal;shape-padding:0;clip-rule:nonzero;display:inline;overflow:visible;visibility:visible;opacity:1;isolation:auto;mix-blend-mode:normal;color-interpolation:sRGB;color-interpolation-filters:linearRGB;solid-color:#000000;solid-opacity:1;vector-effect:none;fill:#000000;fill-opacity:1;fill-rule:nonzero;stroke:none;stroke-width:31.99999809;stroke-linecap:round;stroke-linejoin:round;stroke-miterlimit:4;stroke-dasharray:none;stroke-dashoffset:0;stroke-opacity:1;color-rendering:auto;image-rendering:auto;shape-rendering:auto;text-rendering:auto;enable-background:accumulate"
     d="M 256,6 C 118.11833,6 6,118.11833 6,256 6,393.88167 118.11833,506 256,506 393.88167,506 506,393.88167 506,256 506,118.11833 393.88167,6 256,6 Z m 0,32 c 120.58759,0 218,97.41241 218,218 0,120.58759 -97.41241,218 -218,218 C 135.41241,474 38,376.58759 38,256 38,135.41241 135.41241,38 256,38 Z"
     id="path842"
     inkscape:connector-curvature="0" /></svg>