<?xml version="1.0" encoding="UTF-8" standalone="no"?>
<!-- Generator: Adobe Illustrator 21.1.0, SVG Export Plug-In . SVG Version: 6.00 Build 0)  -->

<svg
   xmlns:dc="http://purl.org/dc/elements/1.1/"
   xmlns:cc="http://creativecommons.org/ns#"
   xmlns:rdf="http://www.w3.org/1999/02/22-rdf-syntax-ns#"
   xmlns:svg="http://www.w3.org/2000/svg"
   xmlns="http://www.w3.org/2000/svg"
   xmlns:sodipodi="http://sodipodi.sourceforge.net/DTD/sodipodi-0.dtd"
   xmlns:inkscape="http://www.inkscape.org/namespaces/inkscape"
   version="1.1"
   id="Layer_1"
   inkscape:version="0.92.3 (2405546, 2018-03-11)"
   sodipodi:docname="hide.svg"
   x="0px"
   y="0px"
   viewBox="0 0 512 512"
   style="enable-background:new 0 0 512 512;"
   xml:space="preserve"><metadata
   id="metadata153"><rdf:RDF><cc:Work
       rdf:about=""><dc:format>image/svg+xml</dc:format><dc:type
         rdf:resource="http://purl.org/dc/dcmitype/StillImage" /><dc:title></dc:title></cc:Work></rdf:RDF></metadata><defs
   id="defs151" />
<style
   type="text/css"
   id="style139">
	.st0{display:none;fill:#EFEAEA;}
	.st1{fill:none;stroke:#000000;stroke-width:89;stroke-miterlimit:10;}
	.st2{fill:#262626;}
</style>
<path
   class="st0"
   d="M419,501.3H90.1c-48.3,0-87.8-39.5-87.8-87.8V100c0-48.3,39.5-87.8,87.8-87.8H419c48.3,0,87.8,39.5,87.8,87.8  v313.5C506.8,461.8,467.3,501.3,419,501.3z"
   id="path141" />
<sodipodi:namedview
   bordercolor="#666666"
   borderopacity="1"
   gridtolerance="10"
   guidetolerance="10"
   id="namedview4578"
   inkscape:current-layer="Layer_1"
   inkscape:cx="15.243979"
   inkscape:cy="234.16613"
   inkscape:pagecheckerboard="true"
   inkscape:pageopacity="0"
   inkscape:pageshadow="2"
   inkscape:snap-intersection-paths="true"
   inkscape:snap-object-midpoints="true"
   inkscape:window-height="1002"
   inkscape:window-maximized="0"
   inkscape:window-width="1918"
   inkscape:window-x="0"
   inkscape:window-y="0"
   inkscape:zoom="1.2705825"
   objecttolerance="10"
   pagecolor="#ffffff"
   showgrid="false"
   inkscape:snap-bbox="false"
   inkscape:snap-bbox-midpoints="false"
   inkscape:snap-page="true">
	</sodipodi:namedview>



<path
   style="fill:#000000;stroke-width:0.97781271"
   d="m 440.72471,38.322326 a 32.003151,32.003151 0 0 0 -21.99802,9.681625 L 48.020226,418.71041 a 32.003151,32.003151 0 1 0 45.253838,45.25384 L 463.98053,93.257789 A 32.003151,32.003151 0 0 0 440.72471,38.322326 Z M 253.94374,97.236298 c -21.7529,-0.03146 -39.95138,2.288094 -61.33193,7.673812 -74.17088,18.6835 -138.131698,67.21402 -180.425513,136.90018 -7.2158894,11.88937 -7.7523481,15.37865 -3.5058546,22.80075 4.8049326,8.39814 16.9505496,25.36417 26.2909756,36.72651 12.925335,15.72327 27.202999,30.14098 42.480404,43.05852 22.763238,-23.1115 45.616188,-46.1339 68.527248,-69.0995 -2.06465,-10.03535 -2.58821,-20.26747 -1.37305,-30.23823 4.3499,-35.69265 25.36614,-65.29599 58.32803,-82.16004 21.44134,-10.96987 45.09571,-14.83467 67.80654,-12.07615 15.42742,-15.37187 30.84104,-30.75811 46.24212,-46.15618 -17.19422,-4.35855 -34.72291,-6.70948 -53.48039,-7.273422 -3.27231,-0.09838 -6.45102,-0.151756 -9.55858,-0.15625 z m 180.05832,70.906132 c -22.35306,22.7333 -44.81045,45.36381 -67.33193,67.93154 8.06121,39.68498 -8.38808,82.39284 -47.28118,107.54477 -13.81089,8.93141 -27.62672,14.13916 -45.13079,17.01168 -10.81982,1.7756 -21.94739,1.86132 -32.91401,0.40821 -15.352,15.29842 -30.69888,30.60025 -46.01165,45.93743 0.64156,0.16784 1.28172,0.34895 1.92383,0.51172 9.23375,2.34064 29.4437,5.91622 37.89056,6.70311 2.15118,0.2004 10.95445,0.4389 19.56247,0.5293 86.02953,0.90352 173.73184,-47.06565 234.78676,-128.41778 C 503.94031,267.05636 506,263.53311 506,258.09543 c 0,-4.73604 -0.52498,-5.80815 -8.68358,-17.75193 -19.00511,-27.82252 -40.24609,-52.00443 -63.31436,-72.20107 z"
   id="path52"
   inkscape:connector-curvature="0" /></svg>