<?xml version="1.0" encoding="UTF-8" standalone="no"?>
<!-- Generator: Adobe Illustrator 19.2.1, SVG Export Plug-In . SVG Version: 6.00 Build 0)  -->

<svg
   xmlns:dc="http://purl.org/dc/elements/1.1/"
   xmlns:cc="http://creativecommons.org/ns#"
   xmlns:rdf="http://www.w3.org/1999/02/22-rdf-syntax-ns#"
   xmlns:svg="http://www.w3.org/2000/svg"
   xmlns="http://www.w3.org/2000/svg"
   xmlns:sodipodi="http://sodipodi.sourceforge.net/DTD/sodipodi-0.dtd"
   xmlns:inkscape="http://www.inkscape.org/namespaces/inkscape"
   version="1.1"
   id="Layer_1"
   x="0px"
   y="0px"
   viewBox="0 0 512 512"
   style="enable-background:new 0 0 512 512;"
   xml:space="preserve"
   sodipodi:docname="root.svg"
   inkscape:version="0.92.3 (2405546, 2018-03-11)"><metadata
     id="metadata4582"><rdf:RDF><cc:Work
         rdf:about=""><dc:format>image/svg+xml</dc:format><dc:type
           rdf:resource="http://purl.org/dc/dcmitype/StillImage" /><dc:title></dc:title></cc:Work></rdf:RDF></metadata><defs
     id="defs4580" /><sodipodi:namedview
     pagecolor="#ffffff"
     bordercolor="#666666"
     borderopacity="1"
     objecttolerance="10"
     gridtolerance="10"
     guidetolerance="10"
     inkscape:pageopacity="0"
     inkscape:pageshadow="2"
     inkscape:window-width="958"
     inkscape:window-height="1049"
     id="namedview4578"
     showgrid="false"
     inkscape:pagecheckerboard="true"
     inkscape:zoom="0.44921875"
     inkscape:cx="207.98984"
     inkscape:cy="169.04496"
     inkscape:window-x="1920"
     inkscape:window-y="0"
     inkscape:window-maximized="0"
     inkscape:current-layer="Layer_1" /><style
     type="text/css"
     id="style4569">
	.st0{fill:#ffffff;}
</style><path
     style="fill:#ffffff;stroke-width:1"
     d="m 119.33828,488.53196 c -15.68292,-2.08269 -31.358028,-13.17156 -38.459202,-27.20679 -5.568731,-11.0064 -5.548345,-10.70305 -5.561332,-82.74064 -0.0081,-46.5994 0.323746,-67.28598 1.105197,-68.83249 1.58666,-3.14004 169.883637,-171.58644 173.191297,-173.34505 3.49853,-1.86011 9.25503,-1.86011 12.75356,0 3.30766,1.75861 171.60463,170.20501 173.19129,173.34505 1.78822,3.53893 1.51959,133.85257 -0.28993,140.64841 -3.58113,13.44934 -14.29175,26.87126 -26.05153,32.64625 -11.64936,5.72078 -16.10543,6.15486 -63.38254,6.1743 l -42.7597,0.0176 -0.2606,-64.02434 -0.26061,-64.02434 h -46.56316 -46.56315 l -0.26062,64.02434 -0.2606,64.02434 -43.26582,-0.15167 c -23.79621,-0.0834 -44.63235,-0.33313 -46.30255,-0.55494 z M 25.102107,280.9533 C 12.746158,276.53474 5.9419969,266.71511 6.0003628,253.38607 c 0.025812,-5.90031 0.5548,-8.60673 2.3741027,-12.14691 C 11.720848,234.72741 203.63908,42.519296 213.47684,35.826987 c 24.54385,-16.696394 55.85881,-17.438742 82.27384,-1.950379 3.90794,2.291413 16.05205,13.553775 37.34351,34.632116 l 31.55227,31.236437 0.33337,-19.089527 c 0.33119,-18.964181 0.35298,-19.124905 3.31844,-24.478241 5.39822,-9.74503 13.8586,-14.634324 25.35773,-14.654336 11.70052,-0.02035 20.98429,6.164132 26.21135,17.461022 2.05534,4.442054 2.14216,6.286987 2.43162,51.675791 l 0.30018,47.06928 39.80233,39.98358 c 44.16315,44.36426 43.6319,43.67348 43.59456,56.68558 -0.0314,10.94336 -6.64699,21.15352 -16.6124,25.63868 -6.10689,2.74856 -17.14157,2.85487 -22.84618,0.22012 -2.80801,-1.29692 -34.1422,-31.90415 -102.23649,-99.86458 -69.0274,-68.8917 -99.30519,-98.457452 -101.95092,-99.553336 -4.75538,-1.969723 -7.96737,-1.968771 -12.71806,0.004 -2.64144,1.096754 -33.03555,30.775536 -101.95092,99.551446 -63.669041,63.5402 -99.491625,98.5792 -101.897027,99.66813 -5.891545,2.6671 -14.658689,3.0447 -20.681936,0.89075 z"
     id="path830"
     inkscape:connector-curvature="0" /></svg>