<?xml version="1.0" encoding="UTF-8" standalone="no"?>
<!-- Generator: Adobe Illustrator 19.2.1, SVG Export Plug-In . SVG Version: 6.00 Build 0)  -->

<svg
   xmlns:dc="http://purl.org/dc/elements/1.1/"
   xmlns:cc="http://creativecommons.org/ns#"
   xmlns:rdf="http://www.w3.org/1999/02/22-rdf-syntax-ns#"
   xmlns:svg="http://www.w3.org/2000/svg"
   xmlns="http://www.w3.org/2000/svg"
   xmlns:sodipodi="http://sodipodi.sourceforge.net/DTD/sodipodi-0.dtd"
   xmlns:inkscape="http://www.inkscape.org/namespaces/inkscape"
   version="1.1"
   id="Layer_1"
   x="0px"
   y="0px"
   viewBox="0 0 512 512"
   xml:space="preserve"
   sodipodi:docname="hyperedge.svg"
   inkscape:version="0.92.3 (2405546, 2018-03-11)"
   width="512"
   height="512"><metadata
     id="metadata4582"><rdf:RDF><cc:Work
         rdf:about=""><dc:format>image/svg+xml</dc:format><dc:type
           rdf:resource="http://purl.org/dc/dcmitype/StillImage" /><dc:title /></cc:Work></rdf:RDF></metadata><defs
     id="defs4580" /><sodipodi:namedview
     pagecolor="#ffffff"
     bordercolor="#666666"
     borderopacity="1"
     objecttolerance="10"
     gridtolerance="10"
     guidetolerance="10"
     inkscape:pageopacity="0"
     inkscape:pageshadow="2"
     inkscape:window-width="1920"
     inkscape:window-height="1080"
     id="namedview4578"
     showgrid="false"
     inkscape:pagecheckerboard="true"
     inkscape:zoom="1.2705825"
     inkscape:cx="443.96471"
     inkscape:cy="243.8342"
     inkscape:window-x="1920"
     inkscape:window-y="0"
     inkscape:window-maximized="1"
     inkscape:current-layer="Layer_1"
     inkscape:snap-object-midpoints="true"
     inkscape:snap-intersection-paths="true"
     inkscape:snap-bbox="true"
     inkscape:snap-page="false"
     inkscape:object-paths="true" /><style
     type="text/css"
     id="style4569">
	.st0{fill:#ffffff;}
</style><g
     id="g912"><path
       style="fill:#ffffff;fill-opacity:1;stroke:none;stroke-width:49.99999619;stroke-miterlimit:4;stroke-dasharray:none;stroke-dashoffset:0;stroke-opacity:1"
       d="m 201.34562,419.26001 a 75,75 0 0 1 -75,75.00001 75,75 0 0 1 -75.000003,-75.00001 75,75 0 0 1 75.000003,-75 75,75 0 0 1 75,75 z"
       id="path871"
       inkscape:connector-curvature="0" /><path
       inkscape:connector-curvature="0"
       id="path894"
       d="m 175.08675,105.27718 a 75,75 0 0 1 -75,75.00001 75,75 0 0 1 -74.999995,-75.00001 75,75 0 0 1 74.999995,-75.000003 75,75 0 0 1 75,75.000003 z"
       style="fill:#ffffff;fill-opacity:1;stroke:none;stroke-width:49.99999619;stroke-miterlimit:4;stroke-dasharray:none;stroke-dashoffset:0;stroke-opacity:1" /><path
       style="fill:#ffffff;fill-opacity:1;stroke:none;stroke-width:49.99999619;stroke-miterlimit:4;stroke-dasharray:none;stroke-dashoffset:0;stroke-opacity:1"
       d="m 485.19165,153.72863 a 75,75 0 0 1 -75,75.00001 75,75 0 0 1 -75,-75.00001 75,75 0 0 1 75,-74.999997 75,75 0 0 1 75,74.999997 z"
       id="path896"
       inkscape:connector-curvature="0" /><path
       inkscape:connector-curvature="0"
       id="path898"
       d="M 100.08675,105.27718 236,252 126.34562,419.26002"
       style="fill:none;stroke:#ffffff;stroke-width:50;stroke-linecap:butt;stroke-linejoin:miter;stroke-miterlimit:4;stroke-dasharray:none;stroke-opacity:1" /><path
       inkscape:connector-curvature="0"
       id="path902"
       d="M 100.08674,105.27719 236,252 410.19165,153.72864"
       style="fill:none;stroke:#ffffff;stroke-width:50;stroke-linecap:butt;stroke-linejoin:miter;stroke-miterlimit:4;stroke-dasharray:none;stroke-opacity:1" /><path
       inkscape:connector-curvature="0"
       id="path904"
       d="M 126.34565,419.26003 236,252 410.19166,153.72866"
       style="fill:none;stroke:#ffffff;stroke-width:50;stroke-linecap:butt;stroke-linejoin:miter;stroke-miterlimit:4;stroke-dasharray:none;stroke-opacity:1" /></g></svg>