<?xml version="1.0" encoding="UTF-8" standalone="no"?>
<!-- Generator: Adobe Illustrator 19.2.1, SVG Export Plug-In . SVG Version: 6.00 Build 0)  -->

<svg
   xmlns:dc="http://purl.org/dc/elements/1.1/"
   xmlns:cc="http://creativecommons.org/ns#"
   xmlns:rdf="http://www.w3.org/1999/02/22-rdf-syntax-ns#"
   xmlns:svg="http://www.w3.org/2000/svg"
   xmlns="http://www.w3.org/2000/svg"
   xmlns:sodipodi="http://sodipodi.sourceforge.net/DTD/sodipodi-0.dtd"
   xmlns:inkscape="http://www.inkscape.org/namespaces/inkscape"
   version="1.1"
   id="Layer_1"
   x="0px"
   y="0px"
   viewBox="0 0 512 512"
   style="enable-background:new 0 0 512 512;"
   xml:space="preserve"
   sodipodi:docname="instanceView.svg"
   inkscape:version="0.92.3 (2405546, 2018-03-11)"><metadata
     id="metadata4385"><rdf:RDF><cc:Work
         rdf:about=""><dc:format>image/svg+xml</dc:format><dc:type
           rdf:resource="http://purl.org/dc/dcmitype/StillImage" /><dc:title /></cc:Work></rdf:RDF></metadata><defs
     id="defs4383" /><sodipodi:namedview
     pagecolor="#ffffff"
     bordercolor="#666666"
     borderopacity="1"
     objecttolerance="10"
     gridtolerance="10"
     guidetolerance="10"
     inkscape:pageopacity="0"
     inkscape:pageshadow="2"
     inkscape:window-width="1918"
     inkscape:window-height="1002"
     id="namedview4381"
     showgrid="false"
     inkscape:pagecheckerboard="true"
     inkscape:zoom="0.23046875"
     inkscape:cx="167.16853"
     inkscape:cy="339.85101"
     inkscape:window-x="0"
     inkscape:window-y="0"
     inkscape:window-maximized="0"
     inkscape:current-layer="Layer_1"
     inkscape:object-paths="true"
     inkscape:snap-object-midpoints="true" /><style
     type="text/css"
     id="style4376">
	.st0{fill:#000000;}
</style><path
     style="color:#000000;font-style:normal;font-variant:normal;font-weight:normal;font-stretch:normal;font-size:medium;line-height:normal;font-family:sans-serif;font-variant-ligatures:normal;font-variant-position:normal;font-variant-caps:normal;font-variant-numeric:normal;font-variant-alternates:normal;font-feature-settings:normal;text-indent:0;text-align:start;text-decoration:none;text-decoration-line:none;text-decoration-style:solid;text-decoration-color:#000000;letter-spacing:normal;word-spacing:normal;text-transform:none;writing-mode:lr-tb;direction:ltr;text-orientation:mixed;dominant-baseline:auto;baseline-shift:baseline;text-anchor:start;white-space:normal;shape-padding:0;clip-rule:nonzero;display:inline;overflow:visible;visibility:visible;opacity:1;isolation:auto;mix-blend-mode:normal;color-interpolation:sRGB;color-interpolation-filters:linearRGB;solid-color:#000000;solid-opacity:1;vector-effect:none;fill:#000000;fill-opacity:1;fill-rule:nonzero;stroke:none;stroke-width:50;stroke-linecap:butt;stroke-linejoin:miter;stroke-miterlimit:4;stroke-dasharray:none;stroke-dashoffset:0;stroke-opacity:1;color-rendering:auto;image-rendering:auto;shape-rendering:auto;text-rendering:auto;enable-background:accumulate"
     d="m 285.79046,6 a 64.971541,64.971541 0 0 1 61.81433,45.070624 C 404.05254,65.14805 447.97784,111.55755 458.39143,169.33405 a 64.971541,64.971541 0 0 1 41.05897,60.3897 64.971541,64.971541 0 0 1 -64.97154,64.97154 64.971541,64.971541 0 0 1 -10.68647,-0.90181 c -27.36825,31.25175 -67.5224,51.05172 -112.13683,51.05172 -14.07223,0 -27.70144,-1.97067 -40.62582,-5.64778 a 64.971541,64.971541 0 0 1 -43.74074,17.03472 64.971541,64.971541 0 0 1 -27.95468,-6.38887 l -63.24573,63.24574 a 64.971541,64.971541 0 0 1 6.40409,27.93945 A 64.971541,64.971541 0 0 1 77.521144,506 a 64.971541,64.971541 0 0 1 -64.97154,-64.97154 64.971541,64.971541 0 0 1 64.97154,-64.97154 64.971541,64.971541 0 0 1 27.954686,6.39056 l 63.24573,-63.24574 a 64.971541,64.971541 0 0 1 -6.4041,-27.94114 64.971541,64.971541 0 0 1 12.0265,-37.51769 C 166.76161,235.9 162.56279,216.29903 162.56279,195.75243 c 0,-48.09877 23.01403,-91.01238 58.58099,-118.30911 A 64.971541,64.971541 0 0 1 220.81892,70.97154 64.971541,64.971541 0 0 1 285.79046,6 Z m 60.08007,89.57444 a 64.971541,64.971541 0 0 1 -60.08007,40.36864 64.971541,64.971541 0 0 1 -45.41578,-18.52535 c -21.22712,19.30963 -34.49752,47.19094 -34.49752,78.3347 0,11.42776 1.79376,22.41335 5.10466,32.70065 a 64.971541,64.971541 0 0 1 16.30718,-2.16402 64.971541,64.971541 0 0 1 64.97155,64.97154 64.971541,64.971541 0 0 1 -0.62434,8.39216 c 6.47864,1.22764 13.16863,1.87808 20.01935,1.87808 28.64106,0 54.52077,-11.22639 73.51429,-29.54005 a 64.971541,64.971541 0 0 1 -15.66254,-42.26704 64.971541,64.971541 0 0 1 44.32786,-61.54362 c -9.10788,-34.15666 -34.7605,-61.36169 -67.96464,-72.60569 z"
     id="path872"
     inkscape:connector-curvature="0" /></svg>