<?xml version="1.0" encoding="UTF-8" standalone="no"?>
<!-- Generator: Adobe Illustrator 19.2.1, SVG Export Plug-In . SVG Version: 6.00 Build 0)  -->

<svg
   xmlns:dc="http://purl.org/dc/elements/1.1/"
   xmlns:cc="http://creativecommons.org/ns#"
   xmlns:rdf="http://www.w3.org/1999/02/22-rdf-syntax-ns#"
   xmlns:svg="http://www.w3.org/2000/svg"
   xmlns="http://www.w3.org/2000/svg"
   xmlns:sodipodi="http://sodipodi.sourceforge.net/DTD/sodipodi-0.dtd"
   xmlns:inkscape="http://www.inkscape.org/namespaces/inkscape"
   version="1.1"
   id="Layer_1"
   x="0px"
   y="0px"
   viewBox="0 0 512 512"
   style="enable-background:new 0 0 512 512;"
   xml:space="preserve"
   sodipodi:docname="instanceView.svg"
   inkscape:version="0.92.2 (5c3e80d, 2017-08-06)"><metadata
     id="metadata4385"><rdf:RDF><cc:Work
         rdf:about=""><dc:format>image/svg+xml</dc:format><dc:type
           rdf:resource="http://purl.org/dc/dcmitype/StillImage" /><dc:title></dc:title></cc:Work></rdf:RDF></metadata><defs
     id="defs4383" /><sodipodi:namedview
     pagecolor="#ffffff"
     bordercolor="#666666"
     borderopacity="1"
     objecttolerance="10"
     gridtolerance="10"
     guidetolerance="10"
     inkscape:pageopacity="0"
     inkscape:pageshadow="2"
     inkscape:window-width="958"
     inkscape:window-height="1010"
     id="namedview4381"
     showgrid="false"
     inkscape:pagecheckerboard="true"
     inkscape:zoom="0.921875"
     inkscape:cx="233.3339"
     inkscape:cy="279.03191"
     inkscape:window-x="0"
     inkscape:window-y="0"
     inkscape:window-maximized="0"
     inkscape:current-layer="Layer_1" /><style
     type="text/css"
     id="style4376">
	.st0{fill:#ffffff;}
</style><path
     style="fill:#ffffff;stroke-width:1"
     d="m 186.96776,47.139931 c -24.64013,9.435372 -36.41828,41.54553 -24.81997,64.930139 -1.56814,4.08386 -6.6488,6.11986 -9.0838,9.83426 -25.92032,26.3958 -51.7462,52.87499 -77.767371,79.16017 -22.958433,-8.43744 -52.728714,-0.2943 -64.181332,22.38929 -13.0257502,24.69755 -0.127724,59.56944 26.827226,68.29388 15.245406,6.6398 32.361037,1.01944 46.370547,-5.85475 4.36579,1.51859 7.352763,5.70646 11.750319,7.40293 10.479491,6.63228 21.000341,13.06462 31.206461,20.08681 -1.81598,17.98912 -6.65984,35.68924 -11.21905,53.20891 -20.886653,4.39946 -40.38876,21.61262 -41.725936,43.83009 -0.578986,11.96053 5.063561,23.01526 10.263782,33.39493 9.818201,17.52629 32.944104,23.30002 51.344204,17.81367 14.08343,-3.9646 26.73664,-14.07794 32.24005,-27.81181 41.69729,0.10934 83.45737,-0.20739 125.18262,0.14805 6.45174,19.56126 25.23933,35.93215 46.57196,34.8437 20.38163,-0.14828 40.80016,-13.71804 45.9644,-33.96096 3.32603,-9.77008 2.73694,-20.33212 2.41534,-30.35641 18.1637,-53.69827 40.30867,-105.94489 62.0171,-158.28705 2.72415,-5.39895 4.77838,-11.99305 8.87868,-16.21296 17.73561,-3.07106 36.19118,-12.48432 43.1909,-30.0459 10.0302,-23.37629 -1.65485,-53.4569 -25.24531,-63.35813 -18.23058,-8.30744 -41.97459,-4.33088 -55.06254,11.17304 -5.42998,-1.14908 -10.15472,-5.11881 -15.57111,-6.68257 C 355.21487,118.26842 303.18891,96.885001 253.09397,71.50762 245.03365,64.758669 241.02299,53.711335 230.80366,49.406998 217.57577,42.003609 200.87718,41.042601 186.96776,47.139931 Z m 125.6524,76.240849 c 32.78743,14.64903 65.80214,28.80048 98.4674,43.69413 -0.41365,1.96268 -0.62767,6.1062 -3.69247,4.75355 -38.15691,2.63057 -76.31911,5.19892 -114.51018,7.28842 -10.2218,-16.21502 -29.2811,-28.36667 -48.96495,-24.99456 -24.91815,3.18859 -45.66704,27.78525 -42.69448,52.99414 -8.67578,0.58152 -17.15838,2.81652 -25.85926,3.6691 4.97492,-24.27844 10.74016,-49.05513 16.69899,-72.68325 25.65837,8.86963 56.11728,-8.84811 61.96563,-35.18543 0.85232,-2.26831 0.13354,-6.847855 3.61471,-3.861288 18.32486,8.108398 36.64973,16.216788 54.97461,24.325188 z m -143.34248,13.9635 c -5.78263,25.97248 -10.73564,52.39715 -19.25714,77.56573 -11.24369,2.11523 -22.62023,3.68853 -33.93449,5.57483 -5.91104,0.55551 -12.4286,2.54765 -18.005419,2.28042 -1.947544,-2.53866 -4.233529,-4.83918 -5.815213,-7.64185 25.043982,-26.73015 50.670252,-52.86924 77.105992,-78.21773 z m -63.91152,106.67706 c 13.62702,-2.24969 27.04935,-5.34414 40.73946,-6.38048 -1.60574,7.19484 -2.7645,14.40282 -5.01654,21.37552 -12.59271,-3.63395 -26.02161,-6.92701 -37.75894,-11.74921 -0.11109,-1.87285 -0.88875,-3.68309 2.03602,-3.24583 z m 83.00497,-13.47946 c 6.62111,-0.42683 13.27183,-3.13003 19.82159,-2.44367 2.14394,3.17117 7.99583,7.35642 3.7948,11.16841 -6.58177,11.64128 -13.08753,23.32986 -19.98997,34.78971 -9.75506,-2.63365 -19.58726,-5.17297 -29.10375,-8.42366 1.12707,-10.79359 4.37751,-21.50991 6.7677,-32.20177 6.23655,-0.96301 12.47308,-1.92602 18.70963,-2.88902 z m -87.83986,39.41663 c 12.08041,2.63941 24.55601,6.58351 35.51604,11.39597 -0.79275,3.54425 -1.38717,7.13268 -2.30263,10.64922 -11.559,-7.29772 -23.16233,-14.66416 -34.45042,-22.29187 l 0.93974,0.18741 z m 203.89759,-70.11844 c 35.101,-1.89105 70.14342,-4.72861 105.23486,-6.80237 2.49709,4.97918 4.84598,10.03068 7.23885,15.06029 -27.67404,24.08625 -55.34807,48.1725 -83.02211,72.25875 -11.0751,-11.96414 -28.20302,-22.16161 -44.89528,-16.61727 -13.24502,4.32359 -28.86732,9.30703 -35.29609,22.92634 -1.60598,2.74226 -2.43527,7.20376 -6.42584,4.17817 -11.18467,-3.38438 -22.44216,-6.56111 -33.44407,-10.5159 5.71939,-11.0219 11.19113,-22.25563 18.4839,-32.35481 9.75389,3.29635 20.38454,5.0107 30.3508,1.53957 21.08881,-5.9384 37.80488,-27.08795 35.94844,-49.37059 1.94219,-0.10072 3.88437,-0.20146 5.82654,-0.30218 z m -146.7728,86.90874 c 8.02333,1.22679 15.50718,4.51062 23.24497,6.80622 -3.65781,6.87719 -7.77527,13.73211 -11.71964,20.54177 -5.32336,-3.41129 -10.9453,-6.41851 -15.80611,-10.50055 1.27291,-5.56219 1.91354,-11.89786 4.28078,-16.84744 z m 66.7952,19.83452 c 7.64323,2.54557 16.19577,4.29559 23.28979,7.32165 0.99039,4.21462 -1.94035,7.6515 -5.64825,9.1011 -8.98893,6.48137 -17.89259,13.09831 -27.22156,19.0893 -9.6212,-4.63211 -18.30498,-10.90703 -27.37429,-16.48741 4.94126,-8.53899 9.88251,-17.07798 14.82377,-25.61697 7.37684,2.19744 14.7537,4.39489 22.13054,6.59233 z m -74.52055,20.74646 c 2.75792,2.18338 9.84332,3.78224 6.27783,8.04118 -5.21056,10.97737 -11.50865,22.49608 -18.1383,31.97907 3.98585,-13.43818 6.1303,-27.51124 10.3542,-40.86655 l 0.83541,0.46937 z M 432.60749,223.35865 c 5.11638,0.7252 -1.14639,6.48218 -0.97185,9.40447 -18.9191,50.45445 -39.28034,100.32071 -60.51135,149.83461 -19.25442,-16.02883 -50.88849,-14.11403 -67.38168,5.06036 -2.51066,1.81283 -4.22545,6.58523 -6.70257,6.69369 -20.90939,-13.09272 -41.81879,-26.18543 -62.72819,-39.27815 7.26543,-5.315 14.15058,-11.30316 22.27576,-15.31 9.62908,11.83309 23.94247,20.74092 39.63323,20.04292 22.08016,-0.12585 43.39414,-16.70701 46.97716,-38.86507 1.84256,-7.13055 0.23857,-15.14934 2.05159,-21.90315 29.0508,-25.26598 57.72336,-51.20347 87.3579,-75.67968 z M 187.28485,350.93416 c 2.19823,2.00231 6.30281,3.34503 7.6643,5.11128 -12.23343,8.44666 -23.95393,19.04544 -36.94045,25.53106 -3.41414,-2.61643 2.0043,-5.38953 2.33661,-8.25522 5.30898,-9.78011 11.13047,-19.26873 16.60087,-28.95717 3.44622,2.19002 6.89244,4.38004 10.33867,6.57005 z m 31.20972,19.91209 c 21.76874,13.46098 43.92496,26.35376 64.85247,41.12275 -26.99104,0.91253 -54.24532,0.0628 -81.37516,0.37346 -9.89716,-0.33927 -20.69751,0.48018 -30.00376,-0.75108 -1.54768,-4.80423 -4.11312,-12.02947 2.617,-14.30119 13.2927,-9.89881 26.79721,-19.69625 40.97555,-28.26575 0.97798,0.60728 1.95594,1.21455 2.9339,1.82181 z"
     id="path6287"
     inkscape:connector-curvature="0" /></svg>