<?xml version="1.0" encoding="UTF-8" standalone="no"?>
<!-- Generator: Adobe Illustrator 19.2.1, SVG Export Plug-In . SVG Version: 6.00 Build 0)  -->

<svg
   xmlns:dc="http://purl.org/dc/elements/1.1/"
   xmlns:cc="http://creativecommons.org/ns#"
   xmlns:rdf="http://www.w3.org/1999/02/22-rdf-syntax-ns#"
   xmlns:svg="http://www.w3.org/2000/svg"
   xmlns="http://www.w3.org/2000/svg"
   xmlns:sodipodi="http://sodipodi.sourceforge.net/DTD/sodipodi-0.dtd"
   xmlns:inkscape="http://www.inkscape.org/namespaces/inkscape"
   version="1.1"
   id="Layer_1"
   x="0px"
   y="0px"
   viewBox="0 0 512 512"
   style="enable-background:new 0 0 512 512;"
   xml:space="preserve"
   sodipodi:docname="container.svg"
   inkscape:version="0.92.3 (2405546, 2018-03-11)"><metadata
     id="metadata4582"><rdf:RDF><cc:Work
         rdf:about=""><dc:format>image/svg+xml</dc:format><dc:type
           rdf:resource="http://purl.org/dc/dcmitype/StillImage" /><dc:title /></cc:Work></rdf:RDF></metadata><defs
     id="defs4580" /><sodipodi:namedview
     pagecolor="#ffffff"
     bordercolor="#666666"
     borderopacity="1"
     objecttolerance="10"
     gridtolerance="10"
     guidetolerance="10"
     inkscape:pageopacity="0"
     inkscape:pageshadow="2"
     inkscape:window-width="958"
     inkscape:window-height="1049"
     id="namedview4578"
     showgrid="false"
     inkscape:pagecheckerboard="true"
     inkscape:zoom="0.31764562"
     inkscape:cx="-146.52936"
     inkscape:cy="114.84489"
     inkscape:window-x="960"
     inkscape:window-y="0"
     inkscape:window-maximized="0"
     inkscape:current-layer="Layer_1" /><style
     type="text/css"
     id="style4569">
	.st0{fill:#ffffff;}
</style><path
     style="fill:#ffffff;stroke-width:1"
     d="M 151.05689,443.29862 47.50337,380.82764 48.22638,255.38896 48.94939,129.95031 152.19908,67.975144 255.44877,6.0000064 359.24969,68.126027 l 103.80092,62.126053 0.72301,125.28574 0.72301,125.28577 -104.45103,62.70298 c -57.44804,34.48663 -104.67245,62.59949 -104.94311,62.473 -0.2707,-0.12645 -47.09118,-28.34192 -104.0456,-62.70095 z m 88.26789,-84.04723 v -94.17335 l -35.59219,-21.1636 c -19.5757,-11.63997 -36.41245,-21.16357 -37.41496,-21.16357 -1.00252,0 -2.18232,11.19513 -2.62182,24.87806 l -0.7991,24.87803 -14.59082,-8.43224 -14.59081,-8.43224 -0.0664,-26.8678 -0.0664,-26.86783 -24.74427,-14.59082 C 95.22867,179.29108 83.37743,172.72522 82.5019,172.72522 c -0.87551,0 -1.59185,42.21109 -1.59185,93.80243 v 93.80243 l 77.12288,46.43433 c 42.41758,25.53888 78.06086,46.48517 79.20728,46.54732 1.14642,0.0623 2.0844,-42.26504 2.0844,-94.06034 z m 124.61193,41.40175 67.15307,-40.26517 v -93.99539 c 0,-51.69748 -0.93798,-93.48057 -2.0844,-92.85133 -1.14643,0.62926 -36.16438,21.51425 -77.81768,46.41113 l -75.73328,45.26704 v 94.26017 94.26016 l 10.66461,-6.41073 c 5.86553,-3.52589 40.88349,-24.53005 77.81768,-46.67588 z M 336.38789,188.0837 c 39.83856,-23.99399 73.04809,-44.61949 73.79897,-45.83444 0.75089,-1.21496 -13.59321,-11.15344 -31.87578,-22.08552 l -33.24105,-19.8765 -79.47869,46.28382 -79.47873,46.28381 34.2489,20.56663 c 18.83688,11.31166 36.35122,20.05387 38.92076,19.42716 2.56951,-0.62674 37.26702,-20.77096 77.10562,-44.76496 z M 234.04541,127.92288 c 43.41054,-24.64127 79.28763,-45.115103 79.72685,-45.497437 0.43923,-0.382308 -12.40722,-8.510976 -28.54766,-18.063707 L 255.87836,46.993164 178.00548,93.623823 c -42.83004,25.646847 -76.88264,47.573147 -75.67244,48.725067 3.23319,3.07744 49.15874,30.36479 51.11549,30.37102 0.91775,0.003 37.18634,-20.15572 80.59688,-44.79703 z"
     id="path4690"
     inkscape:connector-curvature="0" /></svg>