<?xml version="1.0" encoding="UTF-8" standalone="no"?>
<!-- Generator: Adobe Illustrator 21.1.0, SVG Export Plug-In . SVG Version: 6.00 Build 0)  -->

<svg
   xmlns:dc="http://purl.org/dc/elements/1.1/"
   xmlns:cc="http://creativecommons.org/ns#"
   xmlns:rdf="http://www.w3.org/1999/02/22-rdf-syntax-ns#"
   xmlns:svg="http://www.w3.org/2000/svg"
   xmlns="http://www.w3.org/2000/svg"
   xmlns:sodipodi="http://sodipodi.sourceforge.net/DTD/sodipodi-0.dtd"
   xmlns:inkscape="http://www.inkscape.org/namespaces/inkscape"
   version="1.1"
   id="Layer_1"
   inkscape:version="0.92.3 (2405546, 2018-03-11)"
   sodipodi:docname="lesMiserables.svg"
   x="0px"
   y="0px"
   viewBox="0 0 512 512"
   style="enable-background:new 0 0 512 512;"
   xml:space="preserve"><metadata
   id="metadata153"><rdf:RDF><cc:Work
       rdf:about=""><dc:format>image/svg+xml</dc:format><dc:type
         rdf:resource="http://purl.org/dc/dcmitype/StillImage" /><dc:title></dc:title></cc:Work></rdf:RDF></metadata><defs
   id="defs151" />
<style
   type="text/css"
   id="style139">
	.st0{display:none;fill:#EFEAEA;}
	.st1{fill:none;stroke:#000000;stroke-width:89;stroke-miterlimit:10;}
	.st2{fill:#262626;}
</style>
<path
   class="st0"
   d="M419,501.3H90.1c-48.3,0-87.8-39.5-87.8-87.8V100c0-48.3,39.5-87.8,87.8-87.8H419c48.3,0,87.8,39.5,87.8,87.8  v313.5C506.8,461.8,467.3,501.3,419,501.3z"
   id="path141" />
<sodipodi:namedview
   bordercolor="#666666"
   borderopacity="1"
   gridtolerance="10"
   guidetolerance="10"
   id="namedview4578"
   inkscape:current-layer="Layer_1"
   inkscape:cx="133.29457"
   inkscape:cy="284.3777"
   inkscape:pagecheckerboard="true"
   inkscape:pageopacity="0"
   inkscape:pageshadow="2"
   inkscape:snap-intersection-paths="true"
   inkscape:snap-object-midpoints="true"
   inkscape:window-height="1049"
   inkscape:window-maximized="0"
   inkscape:window-width="958"
   inkscape:window-x="1920"
   inkscape:window-y="0"
   inkscape:zoom="0.44921875"
   objecttolerance="10"
   pagecolor="#ffffff"
   showgrid="false"
   inkscape:snap-bbox="false"
   inkscape:snap-bbox-midpoints="false"
   inkscape:snap-global="false">
	</sodipodi:namedview>



<path
   style="fill:#000000;stroke-width:1"
   d="m 315.32953,6.0033977 c -34.28306,-0.20088 -76.108,8.6175503 -91.68277,20.7761103 -8.55729,6.68037 -24.7141,22.913782 -24.7141,24.830692 0,2.862745 -11.79949,13.912351 -14.85634,13.912351 -1.51689,0 -2.38891,3.352027 -1.93914,7.44949 0.44981,4.097462 -1.47422,9.909464 -4.27635,12.917189 -2.80209,3.007722 -4.53661,7.14061 -3.85554,9.183914 0.68115,2.043335 -0.38617,3.716215 -2.36848,3.716215 -2.36545,0 -2.92776,2.684931 -1.64059,7.813431 1.35263,5.38921 0.90892,7.16356 -1.4302,5.71791 -2.13009,-1.31647 -3.04717,-0.003 -2.46514,3.52856 0.50964,3.09271 -0.30872,7.59349 -1.81688,10.00279 -1.50819,2.40928 -2.83482,11.80007 -2.94852,20.86711 -0.17015,13.57267 -1.27542,16.89988 -6.25531,18.84266 -3.47085,1.35409 -4.21193,2.45134 -1.7401,2.57319 3.0516,0.15062 2.24038,2.41447 -2.78361,7.76227 -3.90042,4.15182 -6.25506,8.38521 -5.2317,9.40853 1.02334,1.02333 5.26885,-1.81496 9.43412,-6.30932 4.16525,-4.49438 8.90561,-7.35014 10.5345,-6.34344 1.62891,1.0067 3.85319,-0.98291 4.94452,-4.42136 1.68184,-5.29902 2.7115,-5.65087 6.75287,-2.31162 4.27983,3.53625 4.33767,3.24991 0.57151,-2.79783 l -4.19389,-6.73865 -3.74464,6.73865 c -5.79675,10.43246 -4.62591,1.92336 1.36763,-9.94023 2.92873,-5.79711 5.28193,-13.26118 5.2317,-16.58791 -0.0504,-3.32673 2.97282,-8.50901 6.71592,-11.51544 3.74314,-3.0065 6.4914,-7.0286 6.10744,-8.93654 -0.38393,-1.90796 0.66246,-3.71251 2.32584,-4.01192 10.41651,-1.87473 16.78231,-5.5641 15.47617,-8.96782 -1.05465,-2.74848 0.76014,-3.497082 6.12167,-2.52487 5.58838,1.01336 7.01923,0.34653 5.37671,-2.502114 -1.23156,-2.135877 -1.07403,-2.82253 0.34972,-1.526861 4.85365,4.417075 3.91731,11.315995 -1.96473,14.463955 -3.22889,1.72805 -5.05078,4.46924 -4.04889,6.09038 1.00191,1.62112 0.70013,2.75181 -0.67102,2.51349 -1.37116,-0.23982 -4.53647,-0.25388 -7.03151,-0.0313 -3.91909,0.3494 -3.94036,0.78274 -0.16207,3.17315 2.67253,1.69082 6.49559,1.63061 9.82934,-0.15354 3.00049,-1.60581 5.45633,-1.98109 5.45633,-0.83309 0,1.14802 2.82258,-0.46626 6.27235,-3.58827 3.44979,-3.12201 6.00951,-4.35478 5.68949,-2.73811 -1.15591,5.83909 0.20536,7.78967 3.86122,5.53025 2.04995,-1.26694 6.1376,-2.48117 9.08439,-2.69831 4.80539,-0.35399 4.88993,0.12387 0.81034,4.63176 -2.5017,2.76436 -4.54931,6.47536 -4.54931,8.24563 0,1.77027 -2.04004,4.00128 -4.53508,4.95874 -2.49504,0.95742 -4.51661,3.48415 -4.49244,5.61555 0.0367,3.06862 0.57405,3.04753 2.5732,-0.10525 1.38858,-2.1898 4.43004,-4.27123 6.75857,-4.62323 6.57439,-0.99394 11.80323,-5.00155 11.69739,-8.96498 -0.053,-1.98103 -2.09581,-0.95982 -4.53792,2.26896 -2.44215,3.2288 -4.43842,4.46157 -4.43842,2.73812 0,-3.31166 11.36517,-14.6573 14.68289,-14.6573 1.07293,0 1.68536,-0.79257 1.36194,-1.76285 -0.32344,-0.97032 1.40068,-1.76571 3.8328,-1.76571 3.2514,0 2.67104,1.86603 -2.19505,7.04574 -3.64001,3.87465 -5.6942,7.97077 -4.56351,9.10146 1.13066,1.13071 -1.019,5.51541 -4.77678,9.74689 -3.75777,4.23147 -4.5925,5.98827 -1.85668,3.90103 2.7358,-2.08719 6.81873,-3.40847 9.07302,-2.93429 2.25427,0.47419 3.80807,-0.69234 3.45178,-2.59312 -0.75377,-4.02041 10.51109,-7.71924 12.70395,-4.17114 1.91103,3.09207 -21.15289,32.1146 -27.43801,34.5264 -2.63828,1.01242 -7.06141,0.51789 -9.82934,-1.09752 -4.57503,-2.67009 -4.58549,-2.94472 -0.11093,-3.02814 2.70719,-0.0507 6.64373,-2.16403 8.74605,-4.69716 3.24554,-3.91068 2.95773,-4.28298 -1.89934,-2.45946 -5.22118,1.96023 -5.33463,1.63705 -1.2994,-3.71053 2.4315,-3.22232 0.20247,-2.0081 -4.95305,2.69831 l -9.37443,8.55838 -4.52086,-6.46002 -4.52373,-6.45718 -6.08185,7.73099 c -3.34425,4.25155 -7.11615,7.72814 -8.38209,7.72814 -1.26593,0 -0.25648,-2.38053 2.24337,-5.29142 8.17715,-9.52172 9.9791,-14.7605 2.95989,-8.60388 -3.61263,3.1687 -6.56805,4.70231 -6.56805,3.40914 0,-1.29315 -1.91694,-0.75782 -4.26214,1.18851 -3.38252,2.80725 -5.25819,2.11975 -9.07302,-3.32668 -3.16966,-4.52533 -4.82584,-5.34923 -4.85639,-2.41397 -0.0374,3.59286 -0.54147,3.67534 -2.60448,0.4208 -2.09556,-3.30582 -2.85785,-3.24417 -4.23369,0.34119 -1.16518,3.03642 0.32436,4.27148 4.87059,4.03468 5.63858,-0.2936 6.43741,1.07917 5.7435,9.872 -0.44328,5.61821 0.61242,11.92334 2.34574,14.01186 3.84342,4.63104 -4.94518,9.03149 -10.23878,5.1265 -4.9387,-3.64322 -11.76538,-2.73888 -13.26408,1.75716 -0.90773,2.72314 1.06118,3.464 6.55385,2.46801 7.74832,-1.40506 10.70075,2.10647 4.82511,5.73781 -1.66335,1.02801 -3.06576,4.85144 -3.11628,8.49583 -0.0901,6.49903 -0.16182,6.50976 -3.702,0.57719 -1.98519,-3.3267 -3.81463,-7.06919 -4.06594,-8.3167 -0.25136,-1.24753 -0.62788,-3.11593 -0.83594,-4.15124 -0.20793,-1.03535 -2.75869,-0.0788 -5.66957,2.12397 -4.50248,3.4069 -4.72871,3.37056 -1.51264,-0.236 5.8661,-6.57836 4.45446,-10.62366 -1.74864,-5.00993 -3.04186,2.75286 -7.1248,5.00424 -9.07302,5.00424 -1.94823,0 -3.54279,2.04289 -3.54279,4.53793 0,2.49505 -2.04287,4.53509 -4.53792,4.53509 -2.49504,0 -4.69187,2.38338 -4.88482,5.29426 -0.31864,4.80724 -0.48199,4.78421 -1.77708,-0.22463 -0.90178,-3.48774 -3.13755,-4.85742 -6.08185,-3.72758 -2.56041,0.98251 -6.78512,0.0636 -9.38863,-2.04435 -2.6035,-2.10791 -3.92464,-2.4737 -2.93715,-0.81034 1.01109,1.70326 -1.9399,3.16042 -6.75288,3.33522 -7.39388,0.26856 -7.9656,-0.26867 -4.23939,-3.99486 2.36874,-2.36876 4.30764,-6.10707 4.30764,-8.30534 0,-5.65613 6.88132,-7.60326 20.23872,-5.72645 l 11.51544,1.61785 -8.66074,-4.80236 c -4.76439,-2.6423 -10.20926,-4.76101 -12.09832,-4.70569 -4.78162,0.14005 -17.04284,10.75328 -17.04284,14.75113 0,1.81257 -1.61775,2.95492 -3.59395,2.53908 -4.78173,-1.00616 -8.99021,22.43546 -4.75118,26.46276 2.18883,2.0795 2.42526,1.69809 0.75915,-1.22264 -1.6369,-2.86941 -1.27172,-3.53974 1.12027,-2.06139 6.11687,3.78045 0.27872,8.16304 -8.93938,6.71022 -4.87877,-0.76889 -8.06271,-0.16216 -7.12252,1.35911 3.3048,5.34726 3.97343,14.76806 1.17145,16.49977 -1.5611,0.96481 -2.83763,5.7563 -2.83763,10.64823 0,4.89191 -1.44288,8.89389 -3.20442,8.89389 -1.76153,0 -2.36152,-1.35909 -1.33351,-3.02245 3.50924,-5.67809 -0.44486,-3.03736 -7.787848,5.20042 -4.032506,4.52389 -5.292868,6.70139 -2.797824,4.83933 3.467155,-2.58753 5.582099,-2.25366 8.973512,1.42167 3.93542,4.26483 3.85248,4.58518 -0.75348,2.81772 -3.323485,-1.27535 -5.194742,-0.52701 -5.194742,2.07847 0,4.70496 17.696622,4.29798 20.781802,-0.47769 1.04499,-1.61755 6.41496,-5.25268 11.93341,-8.0807 9.60278,-4.92113 9.91262,-4.90819 7.21349,0.33267 -1.55127,3.0118 -2.2206,7.51627 -1.48706,10.01132 1.15126,3.916 0.91687,3.93625 -1.7202,0.14499 -1.68023,-2.41561 -2.20415,-5.81761 -1.16292,-7.56038 1.04121,-1.74278 -0.40713,-1.30194 -3.22148,0.98095 -2.81434,2.28286 -5.02177,6.36578 -4.90472,9.07302 0.16603,3.84484 0.831,3.59874 3.0452,-1.12596 2.29481,-4.89675 2.63957,-4.14997 1.8055,3.91241 -0.79821,7.71459 -0.04,9.57906 3.36081,8.27406 2.41459,-0.92659 1.16465,1.66184 -2.77508,5.75487 -3.93972,4.09302 -7.2242,11.25947 -7.30165,15.92257 -0.12374,7.45078 -1.2852,8.47336 -9.58197,8.46171 -5.19256,-0.007 -9.21345,1.35399 -8.93371,3.0253 0.27988,1.67132 -1.19061,2.69903 -3.26981,2.28318 -2.079202,-0.41584 -3.441134,0.94323 -3.025291,3.02245 0.41583,2.0792 -1.047084,3.40841 -3.24991,2.95135 -2.202679,-0.45702 -3.236834,0.40949 -2.300244,1.92494 0.936633,1.51546 -0.867634,3.42428 -4.006234,4.24506 -8.160496,2.13395 -16.600541,16.08536 -13.68204,22.61291 2.055675,4.59771 2.543289,4.33947 3.619542,-1.90219 1.13468,-6.58045 17.409203,-24.53781 22.237583,-24.53781 1.114694,0 2.809944,2.04004 3.767394,4.53508 1.62935,4.24605 -1.63627,6.01264 -8.655056,4.68009 -1.663358,-0.31575 -1.442386,1.03548 0.491893,3.0054 2.100367,2.13908 5.148083,2.55162 7.563223,1.02075 2.22412,-1.40978 5.06465,-2.586 6.31216,-2.61017 1.24753,-0.0255 1.92565,-1.4074 1.50981,-3.07079 -0.41583,-1.66336 -1.64554,-2.72603 -2.73528,-2.36278 -4.15051,1.38349 -4.98514,-7.80298 -0.85299,-9.38864 2.56215,-0.98317 4.34459,0.1535 4.34459,2.77224 0,5.2805 1.48113,5.48048 9.35735,1.26527 3.26397,-1.74683 5.24901,-4.28639 4.40999,-5.64399 -0.83904,-1.3576 1.16229,-4.90083 4.44979,-7.87598 7.30888,-6.61444 7.78136,-11.02331 0.89849,-8.38209 -4.37543,1.679 -4.27051,0.86982 0.75632,-5.84303 4.17588,-5.57649 6.45405,-6.70957 8.01247,-3.98633 2.73178,4.77371 0.67339,16.04252 -3.94653,21.60921 -1.92982,2.32528 -2.32126,4.28325 -0.87006,4.35313 1.45118,0.0697 -2.12245,2.76842 -7.94422,5.99655 l -10.58566,5.86861 14.25923,-0.88427 c 10.84578,-0.67387 13.53594,-0.0151 11.23679,2.75516 -2.08813,2.51604 -1.47907,5.18564 1.96757,8.63231 4.63648,4.6365 4.60826,5.40678 -0.36679,10.90413 -3.07613,3.39913 -3.8665,5.91694 -1.85952,5.91694 1.92118,0 3.49154,-1.58796 3.49158,-3.52856 -4e-5,-1.94067 0.73245,-2.79629 1.62638,-1.90218 2.25851,2.25851 -5.00374,17.52906 -8.3366,17.52906 -1.49454,0 -1.73828,-1.70242 -0.54024,-3.78162 1.19808,-2.0792 -1.19049,-0.71727 -5.30846,3.02528 -7.88887,7.16967 -13.41081,9.10207 -9.93456,3.47739 2.98736,-4.83365 -8.72324,1.75226 -13.63086,7.66558 -2.13089,2.56755 -4.98915,3.9795 -6.34912,3.13902 -1.35996,-0.84052 -3.339904,-0.12243 -4.401457,1.5951 -1.061568,1.71749 -3.04434,2.43561 -4.404299,1.59511 -1.359973,-0.84048 -4.326001,0.75812 -6.593652,3.55413 -2.835696,3.49639 -2.944061,4.37409 -0.344041,2.81204 5.272669,-3.1677 4.719549,1.82192 -0.980944,8.85125 -2.618433,3.2288 -3.768194,3.95689 -2.556142,1.62069 1.4852,-2.86274 1.016282,-3.51435 -1.435876,-1.99884 -2.830426,1.75011 -2.822962,3.22836 0.03127,6.66757 2.941531,3.54428 2.55393,5.43603 -1.956202,9.55923 -5.317667,4.86131 -5.403958,4.84948 -1.578042,-0.22462 4.68442,-6.2127 3.333095,-9.04691 -2.573202,-5.39662 -2.239016,1.38379 -4.462176,6.06705 -4.938841,10.40938 -0.778536,7.09228 -0.07892,7.69714 6.877985,5.95107 6.093043,-1.52927 7.22255,-1.04377 5.294255,2.2775 -1.347993,2.3218 0.831383,1.30822 4.842169,-2.25475 4.0108,-3.56299 12.054175,-7.35319 17.875929,-8.42191 10.30215,-1.89119 10.22316,-1.76962 -3.02244,4.5749 -16.870667,8.08092 -17.389982,8.5642 -12.453729,11.61496 2.992542,1.8495 3.196725,3.98598 0.807501,8.45032 -2.005378,3.74707 -2.218021,9.24773 -0.571506,14.75114 1.443986,4.82645 2.740021,7.07491 2.883124,4.99571 0.142957,-2.0792 2.175852,-3.78162 4.515186,-3.78162 7.537324,0 1.917026,10.23941 -10.48331,19.09856 -12.441487,8.88859 -16.675589,16.92952 -5.868606,11.1458 3.326716,-1.7804 6.050579,-4.69712 6.050579,-6.47991 0,-1.78282 2.040047,-2.45872 4.535091,-1.50127 2.495044,0.95743 4.559261,0.0821 4.583426,-1.94484 0.0293,-2.3309 1.122816,-2.01609 2.976954,0.853 2.43686,3.77079 2.96718,3.51507 3.14471,-1.51264 0.11749,-3.32673 4.22331,-9.21588 9.12136,-13.08494 11.21562,-8.85946 11.61876,-6.31175 0.617,3.88965 -4.55726,4.22573 -6.92351,7.68264 -5.26014,7.68264 4.73807,0 19.06092,-14.38666 24.18241,-24.29045 2.55291,-4.93685 6.13414,-8.97634 7.95845,-8.97636 2.20732,0 2.05899,1.51628 -0.4464,4.5351 -2.10533,2.53678 -2.43236,4.53792 -0.73926,4.53792 1.66521,0 4.72004,-4.08289 6.787,-9.07302 4.23537,-10.22511 4.26429,-10.24015 12.2945,-5.94253 4.53692,2.42808 5.85154,2.14269 5.85154,-1.26811 0,-7.2189 10.10797,-22.59885 15.83728,-24.09712 7.57552,-1.98104 6.64301,3.26547 -1.01223,5.69516 -4.7063,1.49369 -5.98993,3.86402 -4.97295,9.18392 0.754,3.94439 0.36108,6.54876 -0.8729,5.78616 -2.10545,-1.30128 -5.03445,5.28708 -7.75658,17.44658 -1.81621,8.11276 1.57287,6.28588 4.98434,-2.68693 1.66872,-4.3891 3.69397,-7.32101 4.50098,-6.51404 0.80696,0.80698 -0.59456,6.40707 -3.11629,12.44235 -0.68539,1.64037 1.32499,4.92178 1.32499,4.92178 0,0 6.27879,-15.44307 17.2959,-28.33933 10.5613,-12.36274 33.29464,-22.57436 47.88145,-21.50685 4.99009,0.36518 15.19887,1.03842 22.68398,1.49558 12.90698,0.7883 13.13973,0.95917 4.5351,3.28972 l -9.07302,2.45663 10.58566,-0.0967 c 15.67495,-0.14412 17.0785,0.29569 12.09548,3.78446 -3.59011,2.51352 -3.16783,2.7929 2.01591,1.34204 3.6026,-1.00829 7.42316,-0.41739 8.49299,1.31362 1.06986,1.73105 -0.51667,3.25508 -3.52572,3.38639 -4.10517,0.17916 -4.3723,0.67121 -1.07193,1.97042 2.41918,0.95228 7.1831,4.34664 10.58568,7.54332 5.43986,5.11069 8.98246,5.56733 29.35156,3.7873 27.79787,-2.42925 35.80974,-0.5878 33.63359,7.73382 -0.85482,3.26885 -3.0963,5.96669 -4.98149,5.99086 -1.88519,0.0255 -1.38614,1.36455 1.1089,2.97697 2.49504,1.61243 7.25609,2.81873 10.58282,2.67839 4.98296,-0.21021 4.71888,-0.68363 -1.5098,-2.67839 -7.42897,-2.37918 -7.40495,-2.42753 1.5098,-2.77508 9.84732,-0.38391 21.49639,-10.46303 23.16735,-20.04824 0.56629,-3.2486 3.06932,-6.9521 5.56437,-8.23141 2.5718,-1.31867 -0.0469,-1.73715 -6.04774,-0.96672 l -10.58567,1.35911 8.79154,-3.91525 c 6.01272,-2.67753 7.44825,-4.44976 4.53793,-5.60133 -3.1629,-1.25144 -2.92478,-1.74456 0.92977,-1.92209 6.73224,-0.30997 12.96774,-11.21252 7.64284,-13.36358 -2.06592,-0.83455 -1.03501,-1.72213 2.2917,-1.97043 l 6.05058,-0.44923 -6.05058,-2.8547 c -5.18248,-2.44502 -4.85696,-2.69239 2.26898,-1.7202 9.0835,1.23927 11.57751,-2.84803 3.02528,-4.95875 -2.96289,-0.73137 -2.36548,-1.02212 1.35911,-0.65966 4.69752,0.45719 6.9458,-1.22141 7.64852,-5.70937 13.1082,-18.83941 16.65825,-4.34339 35.92815,-26.10733 3.50814,-8.1548 5.53992,-12.15964 9.37727,-18.93365 3.83734,-6.77403 9.62395,-16.55461 12.91718,-23.6365 3.29323,-7.08188 7.92709,-19.98167 11.23111,-28.3365 14.44458,-36.52613 15.44892,-41.49051 12.23764,-60.55412 -1.71568,-10.18503 -2.08689,-27.43484 -0.84447,-39.31739 1.65803,-15.8578 1.10128,-23.82528 -2.21779,-31.75416 -2.43702,-5.82177 -5.48216,-22.36447 -6.7671,-36.76124 -1.82579,-20.45731 -4.53389,-30.64138 -12.39686,-46.613346 -9.16249,-18.611624 -41.80369,-58.394856 -42.01569,-51.208136 -0.0528,1.79341 -0.99408,1.68835 -2.31162,-0.26159 -4.85231,-7.18152 -42.76653,-22.30253 -64.82479,-25.8514403 -6.69292,-1.07681 -14.20384,-1.60277 -22.11531,-1.64912 z M 215.74519,50.398948 c 0.73353,0 1.33351,1.361917 1.33351,3.025289 0,1.663358 -1.44004,3.022446 -3.20158,3.022446 -1.76153,0 -2.36152,-1.359088 -1.3335,-3.022446 1.02801,-1.663372 2.46806,-3.025289 3.20157,-3.025289 z m 170.22086,1.566667 c 0.30125,-0.03743 0.63156,0.04458 0.9781,0.258742 1.38612,0.856667 2.51918,2.836261 2.51918,4.401455 0,1.565193 -1.13306,2.84616 -2.51918,2.84616 -1.38616,0 -2.51918,-1.982422 -2.51918,-4.404298 0,-1.816418 0.63733,-2.989776 1.54108,-3.102059 z M 254.40292,84.532967 c 0.56841,-0.0965 2.04878,0.568853 4.65168,1.96189 4.56871,2.445233 6.41452,2.482379 6.41452,0.12511 0,-1.820051 1.54378,-2.355435 3.43188,-1.188507 2.22471,1.374935 0.99824,3.424787 -3.48306,5.823114 -5.10428,2.731724 -5.80396,4.138082 -2.67556,5.376712 2.89228,1.145119 3.03761,1.753387 0.45776,1.916395 -2.0792,0.131311 -3.952,-0.43928 -4.15977,-1.270962 -0.20791,-0.83168 -0.56833,-2.53409 -0.80181,-3.781612 -0.23337,-1.247519 -1.5883,-4.103982 -3.01107,-6.349127 -1.04987,-1.656696 -1.39298,-2.516506 -0.82457,-2.613008 z m 67.7392,2.158078 c 4.4611,0 2.7686,4.479995 -1.73159,4.583428 -5.7131,0.131224 -8.42961,5.181704 -7.21918,13.428987 1.43652,9.78752 6.68338,12.82312 6.76141,3.9124 0.0255,-2.91088 1.43659,-7.3343 3.13618,-9.829344 2.21525,-3.251993 2.50861,-1.186803 1.03781,7.290264 -1.65075,9.5141 -0.9672,12.61674 3.49158,15.87708 3.04804,2.22875 4.123,4.05173 2.39124,4.05173 -1.73178,0 -3.01249,4.42341 -2.84617,9.82934 0.23651,7.68606 1.6221,9.84424 6.35199,9.90043 4.17261,0.0495 5.75064,1.78475 5.08953,5.59566 -0.52711,3.03833 0.21077,4.80283 1.63775,3.92092 1.42706,-0.88194 2.0479,3.06655 1.38185,8.77163 -1.14741,9.82844 -0.72148,10.37242 8.09208,10.37242 h 9.30049 l -6.58228,-11.15717 c -4.3494,-7.37167 -5.08465,-10.27297 -2.1666,-8.5527 2.97929,1.75637 2.71582,0.66043 -0.80751,-3.36932 -5.35664,-6.12653 -6.71536,-12.06456 -5.79468,-25.31121 0.41615,-5.98747 1.11929,-6.62051 3.37786,-3.04804 1.79381,2.83728 1.77721,5.58676 -0.0454,7.40968 -4.76052,4.76054 -3.27702,8.79191 1.71169,4.65168 2.53522,-2.10407 4.91575,-3.29146 5.2914,-2.6386 0.37562,0.65289 2.37097,3.90952 4.43273,7.23624 9.53428,15.38377 15.88988,28.90864 15.17762,32.30008 -0.4292,2.04366 1.03096,3.77713 3.24423,3.85269 2.2133,0.0756 5.82258,2.60226 8.02385,5.61271 2.52353,3.45111 4.73615,4.28707 5.98518,2.26612 2.4964,-4.03931 -0.91666,-9.9083 -4.48107,-7.70539 -3.42824,2.11881 -9.50073,-9.05389 -6.64199,-12.22058 1.18901,-1.31717 0.46136,-1.41546 -1.61785,-0.21893 -3.48976,2.00829 -5.24622,-1.65791 -4.01476,-8.38779 0.26638,-1.45572 -1.95287,-5.43263 -4.93315,-8.83702 -3.1659,-3.61649 -3.63211,-5.13925 -1.12312,-3.66219 3.10479,1.82785 3.81252,1.27244 2.55614,-2.00169 -0.99804,-2.60084 -0.0536,-4.52657 2.22063,-4.52657 2.23172,0 3.30144,2.08946 2.45095,4.78814 -1.13909,3.61442 -0.81818,3.8259 1.31077,0.86437 2.26874,-3.15604 3.5805,-3.00789 6.70454,0.75633 3.59068,4.32653 2.25628,6.02875 -3.88681,4.96159 -1.37116,-0.23817 -1.58962,1.02955 -0.48622,2.81488 1.33221,2.15571 3.21563,2.24393 5.60418,0.26158 2.53103,-2.10057 6.69572,0.18209 14.05452,7.70823 5.75194,5.88275 8.43483,10.23219 5.96243,9.66444 -2.47239,-0.56779 -4.49528,0.31835 -4.49528,1.97042 0,1.65209 1.02143,2.66491 2.26896,2.24906 3.15162,-1.05055 2.83523,1.60568 -1.05771,8.87968 -2.46767,4.61102 -2.43811,5.66659 0.11937,4.08585 2.41223,-1.49082 2.90008,0.44315 1.62355,6.44011 -1.52295,7.1547 -1.2613,7.68443 1.57803,3.21295 1.87059,-2.94587 4.6771,-4.56732 6.23824,-3.60248 4.32208,2.67117 3.38569,-3.6714 -1.22263,-8.27974 -2.56406,-2.56405 -3.20129,-6.26895 -1.72588,-10.04544 1.34254,-3.43645 2.42831,-4.16124 2.55045,-1.70031 0.1169,2.35633 1.15636,3.34177 2.30877,2.18936 1.15241,-1.15241 -5.41482,-9.88479 -14.59474,-19.40564 -24.45865,-25.36696 -32.21994,-40.36045 -15.47618,-29.90032 2.0792,1.29894 3.78161,1.38953 3.78161,0.20188 0,-1.18764 3.0615,0.42578 6.80406,3.58258 l 6.80406,5.7378 -6.66473,-7.58595 c -4.61932,-5.25714 -5.82854,-8.94091 -3.93516,-12.00449 1.84044,-2.97788 1.05671,-6.28508 -2.40544,-10.13359 -4.87411,-5.418083 -4.82639,-5.647766 0.90986,-4.42704 3.32672,0.70793 5.65015,3.07566 5.1663,5.26014 -0.54259,2.44964 0.87552,3.29845 3.69916,2.21494 5.03021,-1.93029 23.82733,12.17036 21.4187,16.06758 -0.81784,1.32328 0.87768,4.26058 3.77024,6.52826 4.75924,3.73107 4.86495,3.62074 1.10889,-1.16861 -2.28275,-2.91089 -3.39576,-5.29141 -2.47369,-5.29141 0.92208,0 4.76007,4.32851 8.52712,9.61894 3.76712,5.29043 4.98852,8.46767 2.71537,7.0628 -3.09141,-1.91061 -3.62192,-1.22414 -2.10689,2.72391 2.29788,5.98819 -4.76496,18.03511 -8.55839,14.59758 -1.36496,-1.23695 -1.46616,-0.48872 -0.22463,1.66334 1.24156,2.15209 0.66734,5.82932 -1.27665,8.17169 -2.03507,2.4521 -2.62526,7.12716 -1.39038,11.01786 2.12477,6.69463 2.20301,6.67461 8.5129,-1.98749 3.50292,-4.80875 6.39277,-10.72868 6.42305,-13.15601 0.0291,-2.42732 1.75359,-4.98331 3.83279,-5.68096 2.32183,-0.7791 3.77876,1.51152 3.77876,5.93969 0,10.51692 -6.8645,23.5304 -11.98742,22.72379 -2.43867,-0.38395 -4.80304,2.01906 -5.26582,5.35113 l -0.83878,6.04773 3.04518,-6.04773 c 3.32494,-6.60443 3.44844,-8.07804 -1.71451,20.41217 -1.13037,6.23761 -3.26726,11.34199 -4.7455,11.34199 -3.28692,0 -3.29237,0.55773 0.1137,-11.31924 1.61017,-5.614 1.66779,-10.47061 0.13364,-11.41876 -1.46819,-0.90737 -1.81792,-3.87049 -0.77624,-6.58513 1.25412,-3.26812 0.71601,-4.20625 -1.5951,-2.77793 -1.91967,1.18646 -4.74972,6.5127 -6.28941,11.83673 -2.18485,7.55491 -2.86072,8.18538 -3.07363,2.8746 -0.15003,-3.74258 -1.29155,-6.64269 -2.53908,-6.4458 -6.66352,1.05212 -9.82934,-0.98093 -9.82934,-6.31216 0,-3.98156 -1.46645,-5.39148 -4.42421,-4.25645 -3.82564,1.46802 -3.77056,2.69355 0.40943,9.07303 2.65785,4.05637 4.09237,8.11403 3.18737,9.019 -0.90495,0.90499 -0.50919,5.60468 0.87858,10.44351 3.12688,10.90283 -4.72144,32.97433 -11.85094,33.32651 -3.12708,0.15446 -3.50051,0.77601 -1.05487,1.76286 2.0792,0.83893 3.7816,4.21439 3.7816,7.50068 0,3.90215 -1.31275,5.23519 -3.7816,3.84132 -3.02429,-1.70746 -3.02429,-1.31914 0,1.93914 2.0792,2.24003 3.7816,8.3033 3.7816,13.47448 0,9.99339 4.64827,17.89556 12.09548,20.55717 3.28262,1.17319 2.86416,1.74619 -1.51264,2.07278 l -6.04774,0.4521 6.04774,2.59878 6.05056,2.5988 -6.05056,0.25873 c -5.03149,0.21532 -5.28343,0.7515 -1.5098,3.19021 3.66834,2.37065 3.23356,2.93942 -2.26898,2.97695 -5.53424,0.0377 -6.80406,1.74236 -6.80406,9.12137 0,8.40442 -0.83646,9.09699 -11.34198,9.42843 -11.28731,0.35614 -11.29882,0.36932 -2.26898,2.66703 8.11927,2.06601 7.48439,2.39211 -6.04772,3.09637 l -15.12076,0.7876 12.09546,2.16661 v -0.003 l 12.09832,2.1666 -12.09832,0.0454 c -6.65347,0.0242 -20.94236,-1.328 -31.75416,-3.00254 -14.71468,-2.27905 -18.1357,-3.64966 -13.60811,-5.45064 3.32673,-1.32327 10.55211,-2.50165 16.0562,-2.61869 6.53432,-0.13874 9.28407,-1.37852 7.92718,-3.57406 -1.14293,-1.84934 -0.2025,-4.55029 2.08983,-6.00223 3.34174,-2.11664 3.16856,-2.64984 -0.8729,-2.68694 -2.77225,-0.0255 -5.72625,-1.7479 -6.56521,-3.8271 -0.83897,-2.0792 -1.65423,-1.05777 -1.81119,2.26896 -0.15778,3.34819 -1.27505,4.69939 -2.50498,3.02529 -3.65219,-4.97109 -15.31867,-10.58567 -21.99589,-10.58567 -5.80103,0 -5.66405,-0.53769 1.91355,-7.56038 4.99913,-4.63304 6.52228,-7.58149 3.93516,-7.60871 -3.57788,-0.0393 -3.57077,-0.45856 0.0483,-2.74949 3.45631,-2.18793 3.16748,-2.9661 -1.51264,-4.08869 -3.18054,-0.76301 -2.038,-1.12276 2.53623,-0.79898 4.57425,0.32378 8.31671,-0.53545 8.31671,-1.91071 0,-1.3753 2.38052,-2.51043 5.29141,-2.51916 3.68658,-0.0131 2.80601,-1.31654 -2.90019,-4.29342 -4.50556,-2.35051 -12.28996,-3.62701 -17.29874,-2.83763 -5.00876,0.7894 -13.81597,0.13393 -19.57339,-1.45578 -8.35292,-2.30636 -10.81672,-1.9846 -12.1893,1.59226 -2.4772,6.45548 -2.23737,7.01161 2.99686,7.01161 2.59328,0 3.87134,1.36194 2.84331,3.0253 -1.02801,1.66336 0.33393,3.02244 3.0253,3.02244 2.69138,0 4.05329,1.36194 3.02528,3.0253 -1.02803,1.66337 0.59343,3.04661 3.60248,3.07077 4.6387,0.0393 4.77892,0.49129 0.9326,2.97695 -3.84628,2.48567 -3.70323,2.9405 0.93546,2.97981 3.00905,0.0255 4.63048,1.40741 3.60248,3.07077 -1.02802,1.66337 -4.51094,3.02246 -7.7395,3.02246 -3.22856,0 -5.87416,1.02143 -5.87999,2.26896 -0.006,1.24752 -15.25022,2.32785 -33.87527,2.39976 -32.84554,0.1268 -33.41325,0.0185 -18.891,-3.61386 l 14.97291,-3.74464 -13.61096,1.56666 c -7.48513,0.86184 -15.99149,2.23999 -18.90237,3.06226 -2.91089,0.8222 -5.29141,0.75952 -5.29141,-0.13641 0,-0.89622 4.42341,-2.90595 9.82934,-4.46685 8.88043,-2.5641 9.10003,-2.88535 2.26896,-3.32385 -6.97873,-0.44795 -7.09563,-0.68591 -1.51264,-3.08499 5.38143,-2.31249 5.13991,-2.62302 -2.17513,-2.81204 -6.11219,-0.15804 -7.774,0.95228 -6.47992,4.32469 0.95747,2.49505 0.15388,4.53793 -1.7856,4.53793 -1.93939,0 -2.68568,-1.36191 -1.65766,-3.02529 1.02802,-1.66335 0.0875,-3.04662 -2.08983,-3.07079 -7.14643,-0.0836 4.52352,-5.87923 12.6755,-6.2951 4.49368,-0.22921 0.81305,-2.01377 -9.07302,-4.39861 l -16.6334,-4.01192 18.14604,1.18851 18.14605,1.1885 -16.63341,-3.46315 -16.6334,-3.46317 10.58282,-2.04718 10.58568,-2.05003 -12.09548,-0.82741 -12.0983,-0.8274 12.0983,-2.16377 12.09548,-2.16661 -10.58568,-0.73072 c -9.88244,-0.68212 -10.08135,-0.89258 -3.02244,-3.15325 l 7.56038,-2.41966 -7.56038,-0.60278 -7.56038,-0.60278 7.56038,-2.42252 7.56038,-2.4225 -7.56038,-0.51179 c -6.98318,-0.47476 -7.09917,-0.7128 -1.51264,-3.11343 l 6.04773,-2.60164 -6.04773,-0.51181 c -5.1381,-0.43669 -4.90996,-0.88025 1.51264,-2.93713 7.48347,-2.39664 7.46752,-2.42677 -1.51264,-3.07933 l -9.07302,-0.65964 9.07302,-2.30877 c 6.14468,-1.56357 7.12175,-2.43883 3.02528,-2.71253 -5.04309,-0.33694 -5.29497,-0.89089 -1.51264,-3.33521 2.49505,-1.61244 7.72752,-2.95563 11.62917,-2.97979 3.90163,-0.0255 11.29164,-3.03363 16.42299,-6.68748 5.13139,-3.65389 8.4797,-5.26503 7.43813,-3.57975 -1.04157,1.6853 2.45532,5.61763 7.77078,8.74036 13.04921,7.66618 16.44731,11.36848 14.84781,16.16711 -1.07163,3.21485 -0.0389,3.34763 5.0156,0.64258 3.49954,-1.87286 7.20544,-6.76812 8.23709,-10.87853 1.03164,-4.11039 4.11045,-7.56849 6.84102,-7.68549 3.87145,-0.16575 3.63342,-0.78518 -1.0833,-2.81204 -4.85771,-2.08744 -3.66772,-2.72601 6.04774,-3.24137 l 12.0983,-0.6426 -12.0983,-2.1666 -12.09832,-2.16377 11.09462,-0.42934 c 13.67667,-0.52907 21.16649,-3.21491 18.95355,-6.79553 -0.9203,-1.48904 3.51064,-2.54546 9.84642,-2.34858 11.37981,0.35348 11.4109,0.38638 2.44809,2.66703 l -9.07304,2.30594 10.58284,0.71651 10.58567,0.71652 -9.07303,2.30877 c -8.6004,2.18844 -8.67964,2.34344 -1.51264,2.96842 l 7.56322,0.65966 -7.56322,2.41966 c -7.42779,2.3788 -7.40072,2.42773 1.51264,2.76939 6.10509,0.23401 7.77067,1.17449 5.08954,2.87459 -2.89495,1.83567 -1.44884,3.57713 5.29142,6.36903 5.10234,2.11344 9.27773,4.90966 9.27773,6.21549 0,1.30583 2.8782,1.62185 6.39462,0.7023 5.54877,-1.45103 5.74618,-2.0307 1.5098,-4.40145 -7.30621,-4.0888 -5.88438,-13.10024 2.68126,-17.00304 4.15841,-1.89468 7.56038,-2.26011 7.56038,-0.81034 0,1.44972 -2.19392,3.48017 -4.87629,4.50949 -3.94969,1.51566 -4.16806,2.72702 -1.14302,6.37189 2.05436,2.47534 6.29119,4.50096 9.41423,4.50096 6.98658,0 7.25513,2.71543 0.74211,7.47792 -4.11304,3.00753 -2.65623,3.69449 8.74318,4.12567 12.22722,0.46251 13.87561,-0.27746 15.5558,-6.97183 3.66646,-14.6084 -1.47252,-39.85426 -10.01701,-49.20928 -4.41423,-4.83295 -9.68524,-8.23586 -11.71162,-7.56038 -2.0264,0.67548 -3.6821,-0.2452 -3.6821,-2.04719 0,-1.80196 -4.53787,-3.27834 -10.0824,-3.27834 -13.49978,0 -14.21026,8.89668 -0.75632,9.47109 l 9.32608,0.39805 -10.58567,2.22916 c -6.15428,1.29543 -8.05467,2.47478 -4.53793,2.81773 5.52048,0.53832 5.43299,0.83708 -1.02075,3.42335 -4.45789,1.78648 -8.9298,1.75002 -12.09832,-0.0996 -3.26694,-1.90674 -3.63952,-2.96544 -1.06624,-3.02528 2.17736,-0.0507 3.11787,-1.45292 2.08984,-3.11628 -1.02802,-1.66337 -0.42801,-3.02528 1.33351,-3.02528 1.76154,0 3.18025,-2.38053 3.15608,-5.29142 -0.0396,-4.52299 -0.47152,-4.63312 -2.97695,-0.75632 -2.22977,3.45037 -2.94442,2.21788 -2.9798,-5.14356 -0.0255,-5.32327 -1.94163,-10.76529 -4.25929,-12.09548 -2.3177,-1.33016 -4.86978,-7.37791 -5.67241,-13.44035 -0.80258,-6.06242 -2.4991,-12.70183 -3.76739,-14.75397 -3.81427,-6.17161 -8.21988,5.10529 -5.97951,15.30558 1.18053,5.37492 0.729,8.95644 -1.1288,8.95644 -1.89079,0 -2.76137,-7.9452 -2.23769,-20.41217 0.47163,-11.22769 -0.17776,-24.1113 -1.44155,-28.62936 -2.61024,-9.33152 6.19131,-23.53982 14.58053,-23.53982 z m 19.36866,0.980944 c 3.06165,-0.05069 5.61271,1.011794 5.61271,3.221479 0,2.2906 -2.618,4.849206 -5.82027,5.686634 -4.32751,1.131661 -5.36102,0.318619 -4.02329,-3.167455 1.31218,-3.41954 0.63444,-4.015546 -2.49643,-2.197884 -2.36188,1.371213 -3.23804,1.333142 -1.94767,-0.08529 2.04096,-2.243419 5.61335,-3.40678 8.67495,-3.457473 z m 9.73837,0.06539 c 0.27504,0.04165 0.60184,0.505571 0.96387,1.410285 0.87375,2.183148 0.76896,4.79255 -0.23598,5.797524 -1.00498,1.004942 -1.72073,-0.78118 -1.58942,-3.96927 0.0907,-2.201971 0.40312,-3.307949 0.86153,-3.238539 z m 17.22482,1.978948 c 1.76153,0 2.36156,1.359084 1.3335,3.022447 -1.02801,1.663362 -2.4709,3.025289 -3.20441,3.025289 -0.73352,0 -1.33352,-1.361927 -1.33351,-3.025289 0,-1.663363 1.44288,-3.022447 3.20442,-3.022447 z m -6.71024,7.523417 c 0.7172,0.08273 1.30512,0.43207 1.69178,1.057715 0.96106,1.555032 -0.95978,3.533541 -4.26782,4.398611 -7.12633,1.86357 -7.4969,1.08567 -1.74864,-3.684939 1.57377,-1.306117 3.12934,-1.909266 4.32468,-1.771387 z m -68.38462,0.497581 c 0.21547,-0.02607 0.44351,-0.02377 0.6824,0.0086 0.273,0.03672 0.56059,0.111979 0.86153,0.227466 3.02145,1.159424 3.13995,2.516389 0.49473,5.703689 -4.41029,5.3142 -4.45832,5.29807 -4.45832,-1.52117 0,-2.651798 0.91145,-4.236031 2.41966,-4.418514 z m -10.37526,2.647125 c 0.83888,0.027 1.5108,0.43684 2.0017,1.23116 1.97441,3.19465 1.52513,3.62611 -4.52657,4.35596 -1.72406,0.20792 -4.22499,2.14401 -5.55867,4.30194 -1.90247,3.07831 -3.34631,2.78775 -6.69601,-1.3392 -3.13971,-3.86832 -3.21876,-4.62572 -0.29855,-2.86891 2.36433,1.42239 6.22167,0.35328 9.53079,-2.64144 2.28411,-2.06707 4.14918,-3.08453 5.54731,-3.03951 z m -40.68786,2.94852 c 1.54771,0.004 2.87603,0.50498 3.4461,1.42735 2.38438,3.858 -2.56654,6.15609 -7.15378,3.32099 -3.03824,-1.87772 -2.86414,-2.79851 0.80181,-4.20526 0.96796,-0.37145 1.97724,-0.5456 2.90587,-0.54308 z m 136.06408,0.29286 c 3.72748,0.13504 6.32895,4.43019 6.72446,11.83389 0.51123,9.56988 -1.06607,9.55849 -4.71423,-0.037 -1.58102,-4.1584 -4.60693,-7.58452 -6.72728,-7.60872 -2.67452,-0.0321 -2.47561,-0.91878 0.65396,-2.89734 1.45307,-0.91866 2.8206,-1.33587 4.06309,-1.29086 z m -13.25553,1.21126 c 1.93945,0 2.78205,1.20699 1.87089,2.68125 -0.91112,1.47425 1.04793,3.38569 4.35597,4.25075 3.30801,0.86507 6.01645,2.93429 6.01645,4.59765 0,1.66336 -2.57036,2.35343 -5.70937,1.53254 -3.13901,-0.82085 -6.7503,0.19803 -8.02668,2.26329 -1.60226,2.59248 -1.07933,2.98861 1.68608,1.27949 2.90255,-1.79386 3.47628,-1.10133 2.08699,2.51918 -1.1069,2.88446 -0.52524,4.69191 1.37616,4.27634 1.8114,-0.39588 3.99073,1.32354 4.84218,3.81858 0.8515,2.49499 0.46639,3.52761 -0.85583,2.29455 -1.3222,-1.2331 -4.01574,-0.90663 -5.98519,0.72789 -4.49792,3.73294 -7.68884,0.82718 -5.46202,-4.9758 0.92569,-2.41233 -0.50335,-6.02172 -3.17598,-8.021 -3.44691,-2.57851 -4.00866,-4.95381 -1.93629,-8.17169 2.12197,-3.29488 2.93479,-3.45257 2.96842,-0.57719 0.0255,2.17746 1.34643,3.15256 2.93715,2.16945 1.59073,-0.98311 2.12542,-3.78508 1.18849,-6.22687 -0.93704,-2.44175 -0.11689,-4.43841 1.82258,-4.43841 z m -147.40324,0.22178 c -1.17533,-0.0346 -2.93394,0.8752 -4.47255,2.42534 -2.96459,2.98685 -2.61845,3.33585 1.69178,1.69462 2.98262,-1.13571 4.66159,-2.82774 3.73043,-3.75886 -0.2328,-0.23279 -0.55789,-0.34957 -0.94966,-0.3611 z m 181.19321,3.56267 c -0.5663,-0.0619 0.80964,1.06767 3.98065,3.60817 6.17035,4.94348 7.7395,5.6125 7.7395,3.29825 0,-0.77316 -3.06147,-2.88921 -6.80405,-4.70285 -2.8588,-1.38537 -4.47566,-2.15546 -4.9161,-2.20357 z m -63.85236,2.26328 c 5.45067,0 5.88082,1.34003 4.11712,12.85464 -2.55175,16.65955 -4.15124,18.24141 -4.15124,4.10574 0,-6.74161 -1.21581,-10.51832 -3.0253,-9.4 -1.66339,1.02802 -3.02528,-0.25295 -3.02528,-2.84616 0,-2.70798 2.59021,-4.71422 6.0847,-4.71422 z m -50.40632,1.73158 c 1.22068,-0.0404 3.17227,0.89052 6.00508,2.74665 3.87533,2.53917 7.95826,3.70501 9.07302,2.59026 1.11472,-1.11476 2.02444,-0.4393 2.02444,1.50127 0,1.9406 -1.1941,3.52856 -2.65566,3.52856 -4.27048,0 -9.89089,16.48878 -8.8683,26.0192 0.59667,5.5604 3.14909,9.47643 6.98888,10.72498 4.5926,1.49333 3.69712,2.04004 -3.72191,2.26897 l -9.77248,0.30139 1.93061,-14.08011 c 1.4516,-10.59048 1.02665,-13.52516 -1.71452,-11.83104 -2.00465,1.23897 -3.42168,4.51538 -3.1504,7.27889 1.09539,11.1645 0.0146,13.50572 -4.49812,9.76111 -3.39056,-2.81393 -4.95742,-2.41379 -7.46655,1.89934 -1.74704,3.00313 -3.2193,3.92555 -3.26981,2.05003 -0.0507,-1.87554 2.03841,-5.17975 4.64313,-7.34145 2.60471,-2.16174 6.74479,-7.81183 9.19813,-12.55608 4.96771,-9.60647 3.05197,-16.78294 -3.11343,-11.66613 -2.70265,2.24303 -3.76172,1.90582 -3.76172,-1.19704 0,-2.37623 0.79254,-4.23598 1.76286,-4.13134 5.0278,0.54183 9.28518,-0.78519 8.96783,-2.79498 -0.5312,-3.36429 -0.17054,-5.02056 1.39892,-5.07248 z m 3.49443,7.34145 c -2.49504,0 -4.5351,1.36192 -4.5351,3.02529 0,1.66336 2.04006,3.02244 4.5351,3.02244 2.49505,0 4.53793,-1.35908 4.53793,-3.02244 0,-1.66337 -2.04288,-3.02529 -4.53793,-3.02529 z m 96.77798,7.56037 5.76055,6.80406 c 3.16865,3.74258 6.23017,6.8069 6.80406,6.8069 2.42019,0 0.63414,-2.43626 -5.76055,-7.8504 z M 201.79872,132.44 c -0.0424,-0.0131 -0.10642,-0.006 -0.1905,0.0146 -0.40337,0.097 -1.29074,0.56814 -2.67556,1.38186 -2.49505,1.46608 -5.44208,2.68833 -6.55101,2.71252 -1.10888,0.0255 -3.15178,1.28362 -4.53793,2.79782 -1.49449,1.63239 -0.77226,1.73999 1.77423,0.26159 3.14011,-1.82305 3.8078,-1.22128 2.47938,2.24053 -2.24246,5.84372 5.24231,5.31414 10.64821,-0.75348 3.1802,-3.56934 2.94471,-3.60121 -1.54392,-0.20472 -6.0661,4.59019 -7.17451,0.45306 -1.51264,-5.64683 1.68294,-1.81314 2.40593,-2.71245 2.10974,-2.80066 z m 222.44406,3.64798 c -2.34869,0 -3.56922,1.13303 -2.71252,2.51918 0.85667,1.38614 2.07718,2.52202 2.71252,2.52202 0.63535,0 1.85586,-1.13588 2.71252,-2.52202 0.8567,-1.38615 -0.36381,-2.51918 -2.71252,-2.51918 z m -73.59642,0.62838 c -0.48237,0.0202 -0.96591,0.16472 -1.42166,0.4464 -2.3287,1.43919 -2.22905,2.40925 0.33552,3.26413 2.00765,0.66919 2.75103,2.6715 1.65196,4.44979 -1.15305,1.86568 -0.57659,2.3553 1.36195,1.15723 1.8476,-1.14195 2.59383,-4.06475 1.6605,-6.49698 -0.69999,-1.82409 -2.1412,-2.88142 -3.58827,-2.82057 z m 49.40264,2.90018 7.33291,8.31671 c 6.85273,7.77331 9.30049,9.70196 9.30049,7.33007 0,-0.54172 -3.74246,-4.28416 -8.3167,-8.3167 z m -227.31466,2.6642 c 0.81742,0.0207 0.90819,1.20861 0.13364,3.22716 -2.01053,5.23935 -4.17683,6.19839 -4.17683,1.84816 0,-1.5652 1.34402,-3.6781 2.98833,-4.69432 0.42858,-0.26488 0.7824,-0.38786 1.05487,-0.381 z m 123.15542,1.87089 c 1.76154,0 2.36155,1.36194 1.33353,3.0253 -1.02802,1.66337 -2.46807,3.02528 -3.20158,3.02528 -0.73351,0 -1.33352,-1.36191 -1.33352,-3.02528 0,-1.66336 1.44005,-3.0253 3.20157,-3.0253 z m 140.92048,3.66504 c 0.66567,0.0412 1.0435,0.74594 1.0435,2.20642 0,1.76153 -1.19696,3.20158 -2.6585,3.20158 -1.46156,0 -4.36122,4.11261 -6.44295,9.13841 -2.08175,5.02578 -5.06704,9.93141 -6.63631,10.90128 -1.56932,0.96988 -0.0504,-3.72902 3.37501,-10.44351 4.73638,-9.28404 9.32221,-15.12781 11.31925,-15.00418 z m -78.63193,0.61984 c -0.29718,0.1555 -0.84438,1.79641 -1.75433,4.78816 -1.26475,4.1584 -1.75107,8.58182 -1.0833,9.82934 2.07486,3.87588 2.5802,2.59408 2.98833,-7.56038 0.20097,-5.00047 0.2314,-7.25706 -0.1507,-7.05712 z m -154.49447,10.83588 c 0.83168,0 0.0544,2.72386 -1.7259,6.05058 -1.7804,3.32673 -3.91664,6.04774 -4.74833,6.04774 -0.83167,0 -0.0574,-2.72101 1.72305,-6.04774 1.7804,-3.32672 3.91951,-6.05058 4.75118,-6.05058 z m 18.12614,1.40461 c 2.04911,0.10278 4.34176,1.24197 4.34176,2.80635 0,0.45627 -1.9796,0.83024 -4.40146,0.83024 -2.42188,0 -3.69117,-1.15429 -2.81773,-2.56751 0.50489,-0.81698 1.64795,-1.13078 2.87743,-1.06908 z m 92.04671,2.01306 c 1.37038,0 2.74201,0.20889 3.7816,0.62837 2.07922,0.83897 0.37681,1.52687 -3.7816,1.52687 -4.1584,0 -5.85797,-0.6879 -3.77877,-1.52687 1.0396,-0.41948 2.40839,-0.62837 3.77877,-0.62837 z m -47.38104,0.94967 c 0.9196,0.047 1.14558,0.64589 0.48336,1.71736 -1.01624,1.64432 -3.12911,2.98832 -4.6943,2.98834 -4.35023,0 -3.39121,-2.16633 1.84815,-4.17685 1.00922,-0.38729 1.81102,-0.5571 2.36279,-0.52885 z m 27.69391,2.13533 9.10145,0.45493 -9.07302,1.62638 c -8.88855,1.5942 -8.82615,1.66793 3.0253,3.65366 l 12.0983,2.02728 -12.79209,0.42934 c -11.64442,0.39068 -13.33034,1.48108 -18.77441,12.15234 -3.28924,6.4475 -5.12917,12.57049 -4.09154,13.60813 1.03764,1.03763 -2.76435,1.75229 -8.44749,1.58656 -9.47302,-0.27636 -9.70366,-0.49333 -2.77224,-2.59594 7.15486,-2.17036 6.99153,-2.37109 -3.02528,-3.75035 l -10.58282,-1.45862 10.58282,-0.6966 c 8.84473,-0.58202 9.59207,-1.12359 4.53793,-3.29542 -5.83155,-2.5059 -5.8112,-2.60699 0.5772,-2.81204 3.64439,-0.1169 7.59615,-1.78448 8.783,-3.70484 1.33696,-2.16327 0.82978,-2.67049 -1.33351,-1.3335 -6.2667,3.87302 -3.67352,-0.80674 4.79667,-8.66075 5.46721,-5.06947 11.38288,-7.52966 17.38973,-7.23056 z m 25.37376,2.95705 c 1.64446,0.0202 3.1758,0.23977 4.19957,0.65397 2.04754,0.82841 -0.35818,1.45778 -5.34826,1.39606 -4.99009,-0.0616 -6.66727,-0.74013 -3.72476,-1.50695 1.47128,-0.38344 3.22899,-0.56337 4.87345,-0.54308 z m -90.49709,1.46715 c 1.97078,0.0415 3.59064,0.4191 4.4043,1.2397 2.37945,2.39972 1.68716,2.70482 -2.50212,1.10888 -4.2391,-1.61499 -5.15648,-1.1818 -3.4262,1.61785 1.29954,2.10269 5.56654,3.21035 9.47962,2.46231 4.65376,-0.88962 6.42123,-0.20235 5.11228,1.98464 -1.10062,1.83892 0.33281,1.44901 3.18736,-0.86721 6.1199,-4.96583 8.87217,-3.49286 5.04405,2.70115 -1.69019,2.73477 -7.79198,4.3968 -16.34054,4.44979 -9.85171,0.0611 -14.80894,1.68162 -17.84751,5.83733 -4.00029,5.47097 -13.08758,4.32644 -9.66159,-1.21695 0.88593,-1.43349 0.0169,-3.59021 -1.93061,-4.79382 -2.04097,-1.2614 -2.73659,-0.88628 -1.64059,0.88711 1.04579,1.69212 -2.70963,7.27154 -8.34513,12.39971 -7.82305,7.11883 -10.63744,8.30179 -11.90498,4.99854 -1.56562,-4.07984 7.80901,-11.62497 14.74828,-11.87085 1.66338,-0.059 3.02245,-1.86066 3.02245,-4.00054 0,-2.13986 2.04289,-5.17851 4.53794,-6.75572 3.73121,-2.35874 3.77423,-2.87626 0.2502,-2.9144 -2.35635,-0.0255 -3.49414,-0.83907 -2.5277,-1.8055 0.96644,-0.96645 4.51345,-0.28146 7.88167,1.52117 4.48171,2.39847 6.70539,2.33937 8.28827,-0.22179 1.34191,-2.17126 0.83836,-2.68084 -1.32783,-1.34203 -1.92036,1.18685 -3.49159,1.36339 -3.49159,0.39237 0,-3.03736 9.07763,-5.93627 14.98997,-5.81174 z m -44.28182,0.0853 c -0.88205,0.0386 -3.4821,1.54298 -8.5726,4.54645 -5.78861,3.41536 -10.52596,6.90272 -10.52596,7.74805 0,0.84525 2.15419,0.71109 4.78531,-0.29855 2.63107,-1.00966 5.70531,-1.83679 6.83249,-1.83679 1.12722,5e-5 3.71031,-2.66017 5.74065,-5.91124 1.78547,-2.85896 2.62217,-4.28648 1.74011,-4.24792 z m -40.26706,4.11142 c -0.15609,-0.15609 -1.38327,0.75766 -3.7816,2.6386 -2.91089,2.28286 -5.29142,4.6634 -5.29142,5.29142 0,2.48909 2.48357,0.88648 6.43442,-4.15124 1.88091,-2.39835 2.7947,-3.62267 2.6386,-3.77878 z m 165.33035,1.28519 c 0.64838,-0.0211 1.22664,-0.0147 1.74011,0.017 3.42307,0.20559 4.01761,1.61565 4.01761,4.89619 0,5.04407 -1.99547,5.84208 -13.719,5.50181 -13.71028,-0.39794 -13.71007,-0.39747 -3.13049,-2.62437 l 10.58566,-2.22916 -11.84525,-0.39807 c -14.86849,-0.49974 -13.30948,-2.05003 4.39008,-4.36165 3.43112,-0.44811 6.01618,-0.73564 7.96128,-0.79897 z m 46.11861,5.13503 c 1.05064,0.0432 1.95415,0.32209 2.45663,0.82457 1.00493,1.00493 -0.78119,1.72071 -3.96927,1.5894 -3.52316,-0.14514 -4.24083,-0.86281 -1.82825,-1.82825 1.09157,-0.43688 2.29025,-0.62897 3.34089,-0.58572 z m 9.27773,6.28657 c 1.4843,0.28854 4.30596,3.19969 8.71763,8.78017 3.93735,4.98049 6.31788,9.8947 5.2914,10.92117 -1.02644,1.02649 -1.86522,0.28008 -1.86522,-1.66049 0,-1.94061 -1.02143,-3.36718 -2.26896,-3.1703 -6.4679,1.02124 -9.25946,-1.07335 -10.56861,-7.92148 -0.93765,-4.90518 -0.79053,-7.23759 0.69376,-6.94907 z m -57.80178,2.75802 c 2.74077,0.007 5.37354,0.19269 7.2334,0.55161 3.71971,0.71786 -0.0425,1.28354 -8.35935,1.26243 -8.31682,-0.0227 -11.36138,-0.60995 -6.76426,-1.30509 2.29857,-0.34748 5.14945,-0.51649 7.89021,-0.50895 z m 8.20297,5.84017 c 2.99466,0.0649 4.71544,0.35935 4.02898,0.95252 -0.69308,0.59886 -10.10642,1.83116 -20.91828,2.73811 -11.79565,0.98947 -16.6351,0.67434 -12.09832,-0.7876 4.66642,-1.50372 17.34932,-2.7135 25.60976,-2.8945 1.23907,-0.0271 2.3796,-0.0297 3.37786,-0.009 z m 135.42719,3.93516 c 0.27504,0.0416 0.60185,0.50556 0.96389,1.41028 0.87374,2.18315 0.76609,4.79254 -0.23885,5.79753 -1.00497,1.00493 -1.72072,-0.78118 -1.58941,-3.96929 0.0907,-2.20196 0.40596,-3.30793 0.86437,-3.23852 z m -227.0872,0.27864 c 1.59148,-0.009 0.30098,1.63076 -3.82426,6.87514 -3.30184,4.19761 -5.32007,8.738 -4.48391,10.09093 0.83615,1.35292 -0.0712,3.44522 -2.01876,4.64883 -2.11049,1.30434 -2.73494,0.8836 -1.54393,-1.04351 1.09907,-1.77829 0.43375,-3.7555 -1.47851,-4.39292 -5.24587,-1.74863 1.86732,-13.36144 9.38863,-15.32831 1.91789,-0.50155 3.23735,-0.84629 3.96074,-0.85016 z m 17.90437,2.12111 c 6.13281,0.0179 8.47593,1.2163 8.47593,4.11427 0,2.49505 -0.67812,4.53794 -1.5098,4.53794 -0.83167,0 -1.51266,-1.27682 -1.51266,-2.83478 0,-1.55797 -4.42342,-3.38088 -9.82934,-4.05173 -9.6772,-1.20095 -9.6534,-1.22663 1.51264,-1.70315 1.03499,-0.0441 1.98711,-0.0651 2.86323,-0.0626 z m 69.84323,0.0512 c 2.82219,-0.0102 4.87134,0.14179 5.69802,0.47199 2.20444,0.88073 -1.17627,1.70831 -7.51205,1.83962 -6.85931,0.14223 -10.76325,1.46332 -9.65022,3.26413 1.02801,1.66336 1.44662,2.82017 0.93261,2.57036 -0.51402,-0.24984 -7.05844,-1.33433 -14.54357,-2.40828 l -13.60811,-1.95053 20.1847,-2.45946 c 6.93904,-0.84476 13.79493,-1.31119 18.49862,-1.32783 z m -106.25475,0.21609 c 4.37134,-0.0504 2.87321,7.34462 -3.73043,14.85348 -3.45345,3.92681 -5.23277,5.09668 -3.95506,2.60164 1.95677,-3.82114 1.55845,-3.91645 -2.52486,-0.60847 -3.31608,2.68639 -5.47668,2.91094 -6.83819,0.70799 -1.0947,-1.77128 -3.4689,-2.30719 -5.27434,-1.19135 -1.97553,1.22093 -2.41171,0.61834 -1.09469,-1.51265 1.20361,-1.94716 3.35949,-2.81927 4.78816,-1.9363 1.42867,0.88298 3.46587,-1.13587 4.52939,-4.48675 1.06352,-3.3509 3.09145,-6.09323 4.50667,-6.09323 1.41521,0 4.72742,-0.82429 7.35851,-1.83393 0.86625,-0.33242 1.61037,-0.49324 2.23484,-0.50043 z m 209.47853,0.69661 c 0.21614,-0.0482 0.46287,0.23168 0.72505,0.88143 0.83897,2.0792 0.83897,5.48118 0,7.56038 -0.83898,2.0792 -1.52686,0.37964 -1.52686,-3.77877 0,-2.8589 0.3264,-4.55696 0.80181,-4.66304 z m -150.2238,1.68609 c 3.0203,0.0265 3.99486,1.015 2.26896,2.30309 -1.66337,1.24137 -4.04673,3.48745 -5.29426,4.99285 -1.24751,1.50541 -2.26896,0.46917 -2.26896,-2.30308 0,-2.80192 2.35226,-5.02008 5.29426,-4.99286 z m 70.31523,0.34403 c 1.37038,0 2.73916,0.20889 3.77876,0.62838 2.0792,0.83898 0.37964,1.52686 -3.77876,1.52686 -4.1584,0 -5.86083,-0.68788 -3.78162,-1.52686 1.0396,-0.41949 2.41124,-0.62838 3.78162,-0.62838 z m 123.10993,1.33353 c 0.68643,-0.016 1.20362,0.62236 1.64628,1.89364 0.75456,2.16737 0.74748,5.64324 -0.017,7.72246 -0.76461,2.0792 -2.52517,3.77876 -3.91241,3.77876 -4.73039,0 -5.37431,-4.59096 -1.40459,-10.01985 1.6437,-2.24789 2.80521,-3.35441 3.68778,-3.37501 z m -292.11386,1.29939 c 1.66336,0 2.18242,1.36193 1.15439,3.02529 -1.02801,1.66337 -3.22999,3.02244 -4.89335,3.02244 -1.66336,0 -2.18244,-1.35907 -1.15439,-3.02244 1.028,-1.66336 3.23,-3.02529 4.89335,-3.02529 z m 270.67525,0.55724 c 0.67624,0.11879 1.15439,1.50082 1.15439,3.65366 0,2.87045 1.35909,4.37744 3.02244,3.34943 1.66338,-1.02803 3.0253,-0.42803 3.0253,1.33351 0,1.76152 -1.40356,3.20157 -3.11912,3.20157 -3.77523,0 -7.45528,-8.57533 -4.81374,-11.21688 0.25931,-0.25929 0.50533,-0.36091 0.73073,-0.32129 z m -348.38594,0.8274 c -0.47542,0.10613 -0.80182,1.80413 -0.80182,4.66303 0,4.15841 0.6879,5.86082 1.52687,3.78162 0.83898,-2.0792 0.83898,-5.48118 0,-7.56038 -0.26217,-0.64974 -0.50896,-0.93248 -0.72505,-0.88427 z m 340.41328,1.64059 c 1.38078,0 1.74541,2.93291 0.80751,6.51973 -1.1685,4.4683 -0.60441,5.8412 1.79413,4.35881 4.33403,-2.67859 4.3622,-1.40433 0.20756,9.33745 -1.81106,4.68252 -3.80946,11.08064 -4.44127,14.2166 -1.62204,8.05083 -3.38349,9.03416 -4.8848,2.73242 -1.77802,-7.46319 3.43019,-37.16501 6.51687,-37.16501 z m -145.47547,0.38385 c 1.64446,0.0202 3.17581,0.24261 4.19959,0.65682 2.04753,0.82841 -0.3582,1.45495 -5.34829,1.39322 -4.99007,-0.0616 -6.6673,-0.74016 -3.72474,-1.50696 1.47126,-0.38344 3.22899,-0.56337 4.87344,-0.54308 z m -180.32884,0.93262 c 1.18019,-0.12535 2.6648,0.84975 5.01844,2.97978 4.15278,3.75824 6.03331,3.94733 9.44835,0.95252 2.34504,-2.05649 2.01462,-1.01516 -0.73358,2.31162 -2.74825,3.32667 -4.97985,7.18078 -4.95874,8.56692 0.0201,1.38614 -0.95926,3.42904 -2.17514,4.53792 -1.2159,1.10892 -1.46855,-0.99587 -0.56298,-4.67726 1.7315,-7.03916 -4.09081,-14.5044 -8.32239,-10.67095 -1.36111,1.23306 -1.43978,0.45314 -0.17628,-1.73443 0.81111,-1.4043 1.54439,-2.16859 2.46232,-2.26612 z m 35.70353,4.73128 c 1.76152,0 2.36152,1.35908 1.3335,3.02244 -1.02802,1.66336 -2.46807,3.02529 -3.20157,3.02529 -0.73353,0 -1.33351,-1.36193 -1.33351,-3.02529 0,-1.66336 1.44004,-3.02244 3.20158,-3.02244 z m 9.45118,1.05203 c 0.5167,-0.0131 1.09008,0.0935 1.70599,0.32982 2.35387,0.90324 5.00006,1.64059 5.87997,1.64059 0.87992,0 -1.61191,2.67684 -5.53877,5.94822 -3.92692,3.27137 -5.71011,5.99526 -3.96359,6.05058 1.74654,0.0553 4.628,-1.35249 6.40316,-3.12765 2.28724,-2.28725 3.74085,-1.89048 4.99001,1.36479 2.40661,6.27159 -14.0533,14.76599 -19.036,9.82366 -2.5797,-2.5588 -2.94645,-2.0979 -1.45294,1.8254 1.46927,3.85961 -0.13903,6.06267 -6.06764,8.31672 -12.07322,4.5902 -16.24391,3.54957 -7.67127,-1.91356 9.59223,-6.1127 22.17788,-21.56868 22.17788,-27.23613 0,-1.87194 1.02308,-2.98285 2.5732,-3.02244 z m 18.76305,0.10525 c 1.0845,0.048 1.85099,1.25667 1.85099,3.20158 0,2.5932 -1.36192,4.71422 -3.02528,4.71422 -1.66336,0 -3.02246,-1.28097 -3.02244,-2.84617 0,-1.56519 1.35908,-3.68623 3.02244,-4.71422 0.41585,-0.25703 0.81279,-0.37141 1.17429,-0.35541 z m 290.66091,5.82881 c 0.49487,0.0444 1.12887,0.48336 1.92778,1.28233 3.46331,3.4633 6.34496,19.80715 6.08186,34.48375 -0.0786,4.38554 -2.26493,12.5514 -4.85923,18.14605 -3.4581,7.45745 -4.28223,8.15601 -3.09353,2.613 4.11863,-19.2057 5.16154,-36.2921 2.21778,-36.29208 -1.81348,0 -2.51698,4.4171 -1.68608,10.58282 0.78456,5.82177 0.13276,10.58566 -1.44725,10.58566 -3.82643,0 -7.15453,-25.42169 -3.49728,-26.71296 1.57034,-0.55448 2.85468,-4.5699 2.85468,-8.92232 0,-4.05582 0.41257,-5.86385 1.50127,-5.76625 z m -278.57112,0.34404 c 2.17355,-0.10147 4.30695,0.79414 5.30563,2.39691 1.62677,2.61081 0.22107,4.46435 -4.29341,5.66104 -3.6927,0.97895 -6.3399,3.46327 -5.88283,5.51889 0.45702,2.0557 -0.53621,2.89174 -2.20641,1.85952 -1.67019,-1.03226 -6.12638,-0.25357 -9.90328,1.72874 -6.83431,3.58696 -6.83968,3.57156 -1.10604,-2.88597 3.16867,-3.56877 7.67023,-6.48845 10.00562,-6.48845 2.33553,0 3.4935,-1.21777 2.5732,-2.70684 -0.92028,-1.48904 0.59249,-3.57794 3.36081,-4.64029 0.69256,-0.26577 1.42218,-0.4097 2.14671,-0.44355 z m 272.85606,1.74295 c 0.65372,0 1.18851,2.04006 1.18851,4.53509 0,2.49505 -1.31745,4.53793 -2.92862,4.53793 -1.61112,0 -2.14595,-2.04288 -1.18851,-4.53793 0.95745,-2.49503 2.27497,-4.53509 2.92862,-4.53509 z m -217.70994,3.93515 c -0.69112,0.0459 -1.76091,0.76356 -3.38639,2.11258 -2.49501,2.0707 -4.53792,4.27959 -4.53792,4.90756 0,0.628 2.04295,1.14017 4.53792,1.14017 2.49504,0 4.5351,-2.20601 4.5351,-4.90472 0,-2.2605 -0.26013,-3.3145 -1.14871,-3.25559 z m 146.31425,2.50496 c 1.37038,0 2.74201,0.20889 3.78161,0.62837 2.07921,0.83897 0.37679,1.52687 -3.78161,1.52687 -4.15842,0 -5.85797,-0.6879 -3.77877,-1.52687 1.03962,-0.41948 2.40839,-0.62837 3.77877,-0.62837 z m -237.2748,0.78191 c -0.64883,-0.0269 -1.31134,0.13248 -1.90218,0.49759 -1.57556,0.97374 -2.06844,3.05904 -1.09467,4.6346 0.97372,1.57557 3.06189,2.06844 4.63745,1.09467 1.57557,-0.97372 2.0656,-3.05902 1.09183,-4.6346 -0.60858,-0.98472 -1.65112,-1.54726 -2.73243,-1.59226 z m -26.12156,7.65137 c 0.56151,-0.0581 1.07457,0.15216 1.4899,0.69946 0.44196,0.58241 -0.99017,4.4625 -3.18167,8.62093 -3.82132,7.25119 -3.98632,7.29035 -4.02897,0.93545 -0.0317,-4.71461 3.28751,-10.0044 5.72074,-10.25584 z m -11.99311,0.24737 c 1.76152,0 3.20442,1.36192 3.20442,3.0253 0,1.66335 -0.6,3.02244 -1.33351,3.02244 -0.73352,0 -2.17639,-1.35909 -3.20441,-3.02244 -1.02802,-1.66338 -0.42803,-3.0253 1.3335,-3.0253 z m 306.8394,2.849 c 0.4995,0.18422 0.96872,3.98732 1.15439,10.00564 0.2439,7.90097 -0.82657,14.36444 -2.37701,14.36444 -1.55046,0 -2.03506,2.04004 -1.07762,4.53508 0.99645,2.59666 0.0635,4.53794 -2.18367,4.53794 -2.32441,0 -1.53093,1.78758 1.94483,4.3844 5.59711,4.18171 5.51679,4.3121 -1.69177,2.76369 -5.95181,-1.27849 -6.59353,-0.93577 -3.02245,1.61501 4.03239,2.8803 4.03239,3.25011 0,3.33237 -4.03237,0.0824 -4.03237,0.41935 0,3.02529 3.64964,2.3586 3.16996,2.93968 -2.44809,2.97695 -3.89399,0.0258 -6.1574,-1.2905 -5.11512,-2.97695 1.02801,-1.66336 -0.5906,-3.04662 -3.59965,-3.07079 -4.63871,-0.0393 -4.78175,-0.49128 -0.93545,-2.97695 3.0243,-1.95445 3.27656,-2.94894 0.75632,-2.9798 -2.0792,-0.0255 -3.78161,-3.06307 -3.78161,-6.75002 0,-10.77266 9.50935,-32.61 14.19952,-32.61 2.36726,0 3.46191,1.35907 2.43389,3.02244 -1.02802,1.66336 -0.52782,3.02522 1.11173,3.02528 1.63957,0 3.51359,-2.38052 4.16261,-5.2914 0.1217,-0.54579 0.24595,-0.84628 0.36964,-0.92125 0.0335,-0.0202 0.0662,-0.0229 0.0996,-0.0117 z m 32.58157,0.47483 c 1.54509,-0.0448 2.52052,1.42522 3.65935,4.39293 1.03276,2.69125 0.52584,3.90569 -1.18851,2.84616 -1.6443,-1.01622 -2.99116,-0.73304 -2.99116,0.62837 0,1.36139 -2.72101,4.17487 -6.04774,6.25246 -8.0745,5.04258 -8.47329,-2.21433 -0.51749,-9.41422 3.42558,-3.10012 5.54046,-4.66089 7.08555,-4.7057 z m -285.04538,13.30957 -1.94198,7.56038 c -1.06739,4.1584 -4.54782,11.98379 -7.73666,17.38973 -6.19588,10.50361 -10.54481,13.76476 -5.30848,3.98065 4.5925,-8.58119 3.63754,-11.70737 -1.50127,-4.91326 -2.44211,3.2288 -4.44126,4.1693 -4.44126,2.08983 0,-2.07945 -1.50564,-2.84945 -3.34658,-1.71167 -2.33701,1.44433 -2.12007,2.82464 0.71651,4.57775 3.208,1.98267 2.66519,3.81194 -2.57604,8.69486 -7.713,7.18578 -6.5145,7.01992 -15.30273,2.14101 -3.79474,-2.10673 -6.01216,-4.71565 -4.93032,-5.79752 1.08188,-1.08189 3.95495,0.0198 6.3861,2.45095 6.9837,6.9837 10.97675,1.80024 5.29425,-6.87231 -2.75794,-4.20919 -3.71195,-6.84896 -2.12111,-5.86575 3.39652,2.09916 14.19998,-5.13202 14.74829,-9.872 0.77564,-6.70532 1.24071,-6.94256 5.9539,-3.03099 4.11601,3.41597 5.64661,2.91782 10.4634,-3.40913 z m 261.75009,0.88137 c 0.20616,0.0574 0.43709,0.52487 0.67671,1.44441 0.76658,2.94255 0.71765,7.02549 -0.11093,9.07302 -0.82846,2.04754 -1.45781,-0.36104 -1.39608,-5.35112 0.0424,-3.43068 0.37673,-5.29257 0.83026,-5.16631 z m 6.90073,5.30847 c 0.65475,0.1022 1.21828,1.24749 2.02159,3.34091 1.34134,3.49551 0.004,6.95329 -3.87259,10.00278 -3.25844,2.56342 -6.46517,7.3841 -7.12536,10.71078 -0.86686,4.36819 -1.63094,3.36888 -2.74663,-3.5968 -0.88567,-5.52974 -0.2711,-9.40124 1.43871,-9.07302 1.64032,0.3149 4.61878,-2.56764 6.61924,-6.40599 1.8325,-3.51601 2.82322,-5.11004 3.66504,-4.97866 z M 117.4574,268.1487 c 1.76154,0 2.36155,1.36193 1.33353,3.02528 -1.02802,1.66336 -2.47091,3.02245 -3.20442,3.02245 -0.73351,0 -1.33352,-1.35909 -1.33352,-3.02245 0,-1.66335 1.44285,-3.02528 3.20441,-3.02528 z m 322.99798,6.11312 c 1.86955,-0.0316 4.24612,1.52306 5.33975,4.37303 0.93638,2.44019 1.23237,5.70746 0.65964,7.26183 -1.23207,3.34367 -8.60103,-3.97911 -8.60103,-8.54701 0,-2.07903 1.14755,-3.06323 2.60164,-3.08785 z m -129.87419,6.35766 c 1.05063,0.0432 1.95415,0.32211 2.45662,0.82457 1.00494,1.00495 -0.78118,1.71786 -3.96926,1.58656 -3.52316,-0.14514 -4.24083,-0.85995 -1.82826,-1.8254 1.09157,-0.43689 2.29026,-0.62892 3.3409,-0.58573 z m -251.39472,1.31646 c -3.111297,0.0756 -5.715772,2.89634 -4.461164,7.69402 0.8355,3.19488 -1.552547,8.75983 -5.661045,13.19299 -4.306876,4.64718 -5.559729,7.66558 -3.181672,7.66558 2.157842,0 6.274545,-2.6005 9.149794,-5.77762 2.875264,-3.17714 8.531448,-6.60426 12.567462,-7.61725 4.035985,-1.01296 7.338605,-3.85734 7.338605,-6.32069 0,-5.40816 -5.968287,-6.07708 -6.241085,-0.69946 -0.105428,2.0792 -1.414666,0.74074 -2.908714,-2.97411 -1.456584,-3.62163 -4.182283,-5.22223 -6.602181,-5.16346 z m 1.73158,2.37985 c 0.275041,0.0416 0.601853,0.50556 0.963884,1.41028 0.873743,2.18315 0.7661,4.79256 -0.238838,5.79754 -1.004982,1.00494 -1.720726,-0.78119 -1.589415,-3.96928 0.09069,-2.20197 0.405966,-3.30795 0.864369,-3.23854 z m 99.80043,0 c 0.27504,0.0416 0.6047,0.50556 0.96672,1.41028 h -0.003 c 0.87377,2.18315 0.76894,4.79257 -0.236,5.79754 -1.00498,1.00494 -1.72074,-0.7812 -1.58942,-3.96928 0.0907,-2.20198 0.40314,-3.30795 0.86153,-3.23854 z M 49.965592,290.9322 c -0.817356,0.0536 -2.199463,0.93133 -3.758865,2.49073 -2.495044,2.49505 -4.53509,5.47929 -4.53509,6.63346 0,1.15416 2.040046,0.40453 4.53509,-1.66618 2.495044,-2.0707 4.537935,-5.05496 4.537935,-6.63346 0,-0.59195 -0.288656,-0.85671 -0.77907,-0.82455 z m 48.228338,4.43557 c -0.63241,0 -3.6114,2.72101 -6.62208,6.04774 -3.01063,3.32671 -3.94963,6.04772 -2.08699,6.04774 1.86262,0 4.84168,-2.72103 6.62209,-6.04774 1.7804,-3.32673 2.71939,-6.04774 2.08698,-6.04774 z m 329.98401,9.26637 c 0.4237,0.0823 0.53734,1.2027 0.55728,3.40629 0.0255,2.81273 -1.31643,5.95516 -2.9798,6.98318 -3.82755,2.36554 -3.82755,-1.63769 0,-7.56036 1.26325,-1.95475 1.99881,-2.91128 2.42252,-2.82911 z m -154.03103,0.16775 c -2.1926,-0.0116 -4.49372,0.16149 -6.3747,0.52317 -3.76195,0.72339 -1.39615,1.34254 5.25729,1.37617 6.65333,0.0336 9.72967,-0.55667 6.83817,-1.31362 -1.44579,-0.37853 -3.52814,-0.57464 -5.72076,-0.58572 z m 143.87754,4.20243 c 0.69786,0.007 1.26516,0.18823 1.5951,0.55161 0.87986,0.96895 -0.15728,2.3875 -2.30592,3.15323 -2.93177,1.0448 -3.0579,2.41292 -0.50612,5.4876 1.87014,2.25338 2.94725,6.26456 2.39407,8.91096 -0.66465,3.1796 -2.42397,1.57687 -5.18621,-4.72275 -3.50857,-8.00161 -3.52332,-9.93842 -0.0881,-12.06135 1.40682,-0.86947 2.93413,-1.3324 4.09723,-1.3193 z m -330.6209,2.43956 c -2.86418,0.11865 -6.30055,0.94375 -7.72245,2.36564 -0.80317,0.8032 1.17601,1.65933 4.39861,1.90218 3.22263,0.24272 6.65157,-0.83723 7.61725,-2.39976 0.86451,-1.3988 -1.42924,-1.98676 -4.29341,-1.86806 z m 168.62291,2.40544 c 3.28893,0.006 6.46813,0.18103 8.74036,0.52602 4.54446,0.69014 0.0968,1.24367 -9.88338,1.22547 -9.98017,-0.017 -13.69839,-0.58365 -8.26267,-1.25674 2.71786,-0.33653 6.11677,-0.50034 9.40569,-0.49475 z m -127.93789,0.86437 c 0.80726,-0.12345 1.28518,0.24371 1.28518,1.1288 0,1.68906 -2.04005,3.85628 -4.5351,4.81375 -2.49504,0.95758 -4.53792,1.26957 -4.53792,0.69376 0,-0.57579 2.04288,-2.74303 4.53792,-4.81373 1.30739,-1.08505 2.44267,-1.69911 3.24992,-1.82258 z m 278.12475,3.29256 c 0.58563,-0.0954 1.05874,1.90623 1.15722,5.33692 0.15742,5.48266 -1.3057,8.3167 -4.29626,8.3167 -2.56357,0 -4.53792,-2.71078 -4.53792,-6.22971 0,-3.42494 1.24525,-5.45537 2.76654,-4.51519 1.52128,0.94023 3.45668,-2.6e-4 4.29909,-2.08984 0.21061,-0.52239 0.41609,-0.7871 0.61133,-0.81888 z m -177.68743,0.091 c 0.7537,-0.0739 2.41699,0.0328 4.80806,0.34121 4.78217,0.61698 14.87648,1.12311 22.43092,1.1231 7.55443,0 13.16953,0.491 12.47647,1.09183 -0.69306,0.60076 -11.46834,1.88874 -23.94356,2.86039 -12.60946,0.98214 -19.99593,0.67743 -16.6334,-0.68525 4.77645,-1.93573 5.09497,-2.77292 1.51264,-3.98064 -1.24752,-0.42059 -1.40484,-0.67676 -0.65113,-0.75064 z m 63.90924,4.86208 c 1.05062,0.0432 1.95415,0.32208 2.45662,0.82455 1.00496,1.00499 -0.78112,1.7179 -3.96926,1.58658 -3.52312,-0.14514 -4.24083,-0.86 -1.82826,-1.82541 1.09158,-0.43687 2.29028,-0.62897 3.3409,-0.58572 z m -36.03903,2.98832 c 3.01484,0 6.02957,0.17384 8.3167,0.52033 4.57425,0.69292 0.83179,1.25959 -8.3167,1.25959 -9.14849,0 -12.89095,-0.56667 -8.3167,-1.25959 2.2871,-0.34649 5.30185,-0.52033 8.3167,-0.52033 z m 93.50247,0.037 c -1.05062,-0.0432 -2.24932,0.1461 -3.34089,0.58288 -2.41258,0.96545 -1.69773,1.68311 1.82541,1.82825 3.1881,0.13131 4.97421,-0.58445 3.96927,-1.58942 -0.50249,-0.50242 -1.40315,-0.77845 -2.45379,-0.82171 z m -23.94356,0.017 c 1.37038,0 2.73916,0.21173 3.77876,0.63121 2.07922,0.83897 0.37964,1.52403 -3.77876,1.52403 -4.15841,0 -5.86082,-0.68506 -3.78162,-1.52403 1.0396,-0.41948 2.41123,-0.63121 3.78162,-0.63121 z m -20.99223,2.63291 c 1.76154,0 2.36154,1.36194 1.33353,3.02529 -1.02802,1.66336 -2.46807,3.02245 -3.20158,3.02245 -0.73352,0 -1.33636,-1.35909 -1.33636,-3.02245 0,-1.66335 1.44288,-3.02529 3.20441,-3.02529 z m -48.56668,3.37218 c 2.46668,0 4.93276,0.18264 6.80404,0.54307 3.74258,0.72085 0.68109,1.31077 -6.80404,1.31077 -7.48513,0 -10.54662,-0.58992 -6.80406,-1.31077 1.87129,-0.36043 4.33736,-0.54307 6.80406,-0.54307 z m 26.96601,0.0256 c 1.05062,0.0432 1.95413,0.32207 2.45662,0.82455 1.00496,1.00497 -0.78117,1.71789 -3.96926,1.58658 -3.52315,-0.14514 -4.23798,-0.86006 -1.82542,-1.82541 1.09157,-0.43688 2.28742,-0.62897 3.33806,-0.58572 z m 71.32176,0.28433 c -4.99008,0.031 -13.15595,1.09589 -18.14604,2.36564 l -9.07018,2.30877 10.58282,0.0569 c 5.82177,0.031 13.98764,-1.03389 18.14604,-2.36564 7.33746,-2.34988 7.29229,-2.42037 -1.51264,-2.36564 z m -227.66439,1.1231 c 0.92087,0.1054 1.60995,0.64516 1.93914,1.60364 1.72162,5.01268 -4.54062,9.90071 -7.19074,5.61271 -1.23254,-1.99427 -0.36453,-4.79139 1.92777,-6.2155 1.2515,-0.77749 2.40298,-1.10628 3.32383,-1.00085 z m 13.11907,1.24254 c 0.73351,0 1.33352,1.36193 1.33352,3.02529 0,1.66337 -1.44006,3.02528 -3.20158,3.02528 -1.76153,0 -2.36155,-1.36191 -1.33352,-3.02528 1.02801,-1.66336 2.46807,-3.02529 3.20158,-3.02529 z m 129.28561,3.28972 c 10.63168,-0.0658 19.97304,0.73959 18.89954,2.47653 -0.93214,1.50824 1.03432,2.02883 4.36734,1.15722 3.33305,-0.8716 16.60384,-0.5083 29.49088,0.80751 19.62289,2.00351 21.95424,2.78418 14.35591,4.79098 -6.22101,1.64304 -2.89323,2.04113 10.58566,1.27097 12.72109,-0.72683 16.99106,-0.26303 12.09832,1.3136 -4.1584,1.34 -13.00525,2.80162 -19.6587,3.24707 -10.58212,0.70844 -9.82541,1.06169 6.04774,2.81774 l 18.14605,2.00738 -16.63341,0.55445 c -9.1485,0.3051 -18.51809,1.74839 -20.8216,3.20726 -2.56056,1.62162 1.55372,2.03485 10.58566,1.0634 8.12528,-0.87396 13.83282,-0.58322 12.68404,0.64827 -1.14877,1.2315 -12.71663,2.88444 -25.70643,3.67073 -12.9898,0.78631 -28.3805,2.6729 -34.20226,4.19388 -13.66619,3.57158 -17.12627,3.57554 -13.45741,0.0117 1.5802,-1.53538 6.95469,-3.38564 11.94477,-4.11144 4.99009,-0.72568 0.51816,-1.17154 -9.9374,-0.98948 -19.28602,0.33567 -26.65785,-3.61071 -23.39197,-12.52196 0.81979,-2.23687 -1.11989,-3.77877 -4.74833,-3.77877 -3.37269,0 -5.29015,-1.36194 -4.26214,-3.0253 1.02803,-1.66335 -0.59343,-3.12149 -3.60248,-3.23853 -4.88354,-0.18972 -4.82192,-0.48912 0.5772,-2.8092 4.0855,-1.75567 16.00734,-2.695 26.63902,-2.76086 z m -9.9061,3.24138 c -12.15132,-0.10613 -12.51201,0.61464 -7.83619,4.15124 3.49986,2.64715 11.43618,4.22033 19.65586,3.89534 l 13.78724,-0.54592 -15.12076,-1.54107 -15.12077,-1.54109 15.12077,-1.9761 15.12076,-1.97326 -19.65585,-0.381 c -2.23674,-0.0431 -4.21516,-0.0726 -5.95106,-0.0882 z m 143.14394,6.61355 c 0.27506,0.0416 0.60469,0.50558 0.96673,1.41029 0.87374,2.18314 0.7661,4.79255 -0.23884,5.79752 -1.00498,1.00494 -1.72071,-0.78118 -1.58942,-3.96927 0.0907,-2.20196 0.40314,-3.30795 0.86153,-3.23854 z m -127.43746,5.00139 c -8.49585,0 -16.25267,1.30315 -17.23618,2.89451 -1.10332,1.78521 4.33148,2.20265 14.18814,1.08898 20.99157,-2.37174 22.22387,-3.98349 3.04804,-3.98349 z m -6.73298,6.04774 c -1.66337,0 -3.02244,1.36192 -3.02244,3.0253 0,1.66335 1.35907,3.02528 3.02244,3.02528 1.66336,0 3.02529,-1.36193 3.02529,-3.02528 0,-1.66338 -1.36193,-3.0253 -3.02529,-3.0253 z m 14.75966,0.3867 c -1.64445,-0.0202 -3.40217,0.15967 -4.87344,0.54306 -2.94255,0.76679 -1.26533,1.44524 3.72474,1.50696 4.99009,0.0616 7.39582,-0.56762 5.34829,-1.39607 -1.02378,-0.41416 -2.55513,-0.63366 -4.19959,-0.65395 z m -129.53868,1.79697 c 0.83147,-0.12185 -0.76563,2.17912 -4.38723,6.14156 -4.82877,5.28324 -9.93033,8.89454 -11.33915,8.02384 -1.40881,-0.87073 -2.56183,-0.14077 -2.56183,1.62069 0,1.76154 -1.5279,3.20158 -3.39492,3.20158 -2.35653,0 -2.25321,-1.37776 0.34119,-4.50381 2.05549,-2.47672 4.86274,-3.80823 6.23541,-2.95989 1.37263,0.84835 3.59762,-0.18889 4.94736,-2.30309 1.34974,-2.1142 5.17765,-5.83115 8.50436,-8.26269 0.83169,-0.60787 1.37766,-0.91755 1.65481,-0.95819 z m 262.37561,1.44441 c 0.31692,-0.007 0.50326,0.2861 0.50326,0.90986 0,1.66335 -1.31902,5.06533 -2.93145,7.56038 -1.61244,2.49504 -2.93431,3.17601 -2.93431,1.51264 0,-1.66336 1.32187,-5.06534 2.93431,-7.56038 1.00777,-1.5594 1.89998,-2.40996 2.42819,-2.4225 z m -38.14309,8.68348 c 2.81272,-0.1169 5.95516,1.14867 6.98318,2.81204 2.14923,3.47758 2.04499,3.47758 -6.04774,0 -4.93086,-2.11886 -5.1044,-2.63876 -0.93544,-2.81204 z m -53.50271,0.33835 12.09548,0.20473 -13.60812,2.4225 c -7.48513,1.33189 -18.37201,2.36554 -24.19378,2.29741 l -10.58567,-0.12229 12.09831,-2.50212 c 6.65341,-1.3762 17.54033,-2.41248 24.19378,-2.30024 z m -60.48588,5.58997 c 1.66337,0 5.06533,1.31902 7.56038,2.93146 2.49504,1.61243 3.17601,2.93147 1.51265,2.93146 -1.66336,0 -5.06534,-1.31903 -7.56038,-2.93146 -2.49504,-1.61244 -3.176,-2.93146 -1.51265,-2.93146 z m 110.3861,0.29855 c 1.37039,0 2.742,0.21173 3.78161,0.63121 2.07921,0.83897 0.37681,1.52401 -3.78161,1.52401 -4.1584,0 -5.85798,-0.68504 -3.77878,-1.52401 1.0396,-0.41948 2.4084,-0.63121 3.77878,-0.63121 z m 2.77223,6.03067 c 1.05062,0.0432 1.95413,0.3221 2.45662,0.82456 1.00496,1.00494 -0.78117,1.71788 -3.96926,1.58657 -3.52316,-0.14514 -4.23798,-0.85999 -1.82542,-1.8254 1.09157,-0.43687 2.28742,-0.629 3.33806,-0.58573 z m -206.73473,2.64998 c 0.73352,0 1.33636,1.36189 1.33636,3.02528 0,1.66337 -1.44289,3.0253 -3.20443,3.0253 -1.76152,0 -2.36152,-1.36193 -1.33351,-3.0253 1.02803,-1.66339 2.46807,-3.02528 3.20158,-3.02528 z m 106.79214,0.36109 c 2.19262,0.0117 4.27501,0.20726 5.72076,0.58573 2.89149,0.75695 -0.18758,1.35008 -6.84103,1.31645 -6.65344,-0.0336 -9.01924,-0.65274 -5.25729,-1.37616 1.88098,-0.36162 4.18495,-0.5371 6.37756,-0.52602 z m 109.95106,0.57151 c 1.68492,-0.0825 1.38822,0.55216 -0.68239,1.95336 -2.49505,1.68844 -7.1445,3.09211 -10.33261,3.11627 -7.73747,0.0619 -5.32544,-1.66951 5.79468,-4.15693 2.48474,-0.5558 4.20936,-0.8632 5.22032,-0.9127 z m -298.39759,2.09268 c 0.73351,0 1.33354,1.36194 1.33353,3.0253 0,1.66337 -1.44005,3.02244 -3.20158,3.02244 -1.76153,0 -2.36153,-1.35907 -1.33351,-3.02244 1.02802,-1.66336 2.46804,-3.0253 3.20156,-3.0253 z m 33.26682,3.0253 c 0.73351,0 1.33355,1.35907 1.33351,3.02244 0,1.66336 -1.44004,3.02528 -3.20158,3.02528 -1.76152,0 -2.36152,-1.36192 -1.3335,-3.02528 1.02802,-1.66337 2.46805,-3.02244 3.20157,-3.02244 z m 161.62266,0.34688 c 2.4667,0 4.93279,0.18263 6.80406,0.54306 3.74256,0.72085 0.68106,1.30793 -6.80406,1.30793 -7.48513,0 -10.54945,-0.58707 -6.80689,-1.30793 1.87128,-0.36043 4.34021,-0.54306 6.80689,-0.54306 z m 93.75269,3.06794 c 1.3704,0 2.73917,0.20889 3.77877,0.62837 2.07921,0.83896 0.37965,1.52686 -3.77877,1.52686 -4.1584,0 -5.8608,-0.6879 -3.7816,-1.52686 1.0396,-0.41948 2.41122,-0.62837 3.7816,-0.62837 z m -244.32906,2.85469 c 0.39178,0.0116 0.71971,0.12825 0.9525,0.36109 0.93116,0.93115 -0.7478,2.62317 -3.73043,3.75888 -4.31023,1.64123 -4.65635,1.29222 -1.69178,-1.69463 1.53863,-1.54979 3.29439,-2.45983 4.46971,-2.42534 z m 156.25733,0.1137 c 3.2889,0.006 6.46529,0.18099 8.73751,0.52601 4.54446,0.69009 0.0968,1.24367 -9.88337,1.22548 -9.98017,-0.017 -13.6984,-0.58083 -8.26269,-1.25391 2.71785,-0.33653 6.11961,-0.50319 9.40855,-0.49758 z m -215.6457,0.86437 c 0.80727,-0.12345 1.28803,0.24372 1.28803,1.12879 0,1.68907 -2.04289,3.85627 -4.537938,4.81374 -2.495044,0.95758 -4.535092,1.26957 -4.535092,0.69378 0,-0.57581 2.040048,-2.74304 4.535092,-4.81374 1.307391,-1.08505 2.442648,-1.69911 3.249908,-1.82257 z m 246.00379,2.19789 c 1.05063,0.0432 1.95413,0.31925 2.45662,0.82171 v 0.003 c 1.00494,1.00494 -0.78117,1.71789 -3.96926,1.58658 -3.52315,-0.14514 -4.24083,-0.85996 -1.82826,-1.82541 1.09158,-0.43687 2.29028,-0.62897 3.3409,-0.58572 z m -33.0166,2.98832 c 3.01484,0 6.02957,0.17383 8.3167,0.52032 4.57424,0.69292 0.83179,1.2596 -8.3167,1.2596 -9.14849,0 -12.89099,-0.56668 -8.3167,-1.2596 2.2871,-0.34649 5.30185,-0.52032 8.3167,-0.52032 z m -210.49644,2.87459 c 0.60148,-0.031 1.61948,0.24796 3.085,0.81034 2.90396,1.11437 10.15862,2.02445 16.1216,2.02445 14.33157,0 11.38358,2.57356 -3.88965,3.39492 -6.59074,0.35443 -14.13908,1.70188 -16.77273,2.99685 -3.167031,1.55723 -4.788145,0.97287 -4.788145,-1.72873 0,-2.38515 1.88507,-3.36329 4.529405,-2.34858 3.20823,1.23111 3.79867,0.55629 2.02444,-2.31446 -1.15855,-1.87457 -1.31239,-2.78307 -0.30992,-2.83479 z m 249.56078,0.18483 c 1.05063,0.0432 1.95413,0.32209 2.45662,0.82455 1.00494,1.00494 -0.7812,1.71789 -3.96928,1.58656 -3.52314,-0.14514 -4.23797,-0.85998 -1.8254,-1.8254 1.09157,-0.43688 2.28742,-0.62898 3.33806,-0.58571 z m -159.45607,0.0227 c 0.51967,0.15208 1.47796,1.31193 2.81489,3.61101 1.76657,3.03565 2.5728,6.15618 1.79413,6.93485 -0.77867,0.77867 -2.26678,-0.79446 -3.30393,-3.49727 -1.82399,-4.75324 -2.17122,-7.30206 -1.30509,-7.04859 z m 123.41702,2.95989 c 4.11115,0 8.22317,0.16283 11.34199,0.48905 6.2376,0.6525 1.13323,1.18566 -11.34199,1.18566 -12.47522,0 -17.57961,-0.53316 -11.34199,-1.18566 3.11877,-0.32622 7.23085,-0.48905 11.34199,-0.48905 z m -25.37376,1.95905 c 0.85485,-0.10845 1.90499,0.76398 3.56552,2.56182 3.21303,3.47864 3.05044,4.21949 -0.93261,4.21949 -2.65878,0 -3.9936,1.36192 -2.96558,3.02528 1.02802,1.66337 0.42802,3.0253 -1.33351,3.0253 -3.57877,0 -3.74544,-2.19549 -0.7222,-9.51658 0.87533,-2.11976 1.53353,-3.20678 2.38838,-3.31531 z m -105.59511,0.87005 c 2.3,-0.0996 3.94798,0.59661 3.94653,2.1325 -0.001,1.24751 -3.61164,2.47657 -8.02385,2.73242 -5.74013,0.33273 -6.81549,-0.29806 -3.77876,-2.22063 2.60401,-1.64863 5.55608,-2.54466 7.85608,-2.64429 z m -47.30427,1.16292 c 0.86226,-10e-4 -0.66421,1.23147 -4.20242,3.27834 -4.71761,2.72916 -13.2172,5.19721 -18.88814,5.48476 -5.67096,0.28762 -10.31827,1.54461 -10.32409,2.79214 -0.007,1.24751 -1.48774,2.26612 -3.28972,2.26612 -1.80182,0 -2.672414,-1.69956 -1.9363,-3.77876 0.73612,-2.07922 4.93066,-3.52609 9.32324,-3.21295 4.39261,0.31317 7.98689,-0.68999 7.98688,-2.23201 1e-5,-1.54206 3.0615,-2.63476 6.80406,-2.4282 3.74257,0.20646 9.5279,-0.57748 12.85463,-1.7401 0.83168,-0.29066 1.38444,-0.42864 1.67186,-0.42934 z m 181.29843,2.05856 c 3.56298,0 7.12353,0.16785 9.8265,0.50327 5.40592,0.67088 0.98536,1.21979 -9.8265,1.21979 -10.81185,0 -15.23526,-0.54891 -9.82935,-1.21979 2.70298,-0.33542 6.26634,-0.50327 9.82935,-0.50327 z m 69.30586,0.0397 c 1.05062,0.0432 1.95413,0.32208 2.45663,0.82455 1.00493,1.00494 -0.78122,1.71789 -3.96929,1.58658 -3.52315,-0.14514 -4.24082,-0.86 -1.82825,-1.82541 1.09157,-0.43687 2.29027,-0.62897 3.34091,-0.58572 z m -221.36929,0.11937 c 0.58247,-0.006 0.47111,0.69471 -0.37533,2.06425 -1.18682,1.92036 -0.71803,3.49159 1.04351,3.49159 1.76152,0 3.15336,1.02144 3.09352,2.26897 -0.0598,1.24752 -3.31742,6.19108 -7.23909,10.98657 -6.98409,8.54034 -7.19738,8.59187 -10.47477,2.46801 -4.32128,-8.07439 -4.24549,-8.68386 1.34773,-10.8302 2.58141,-0.99059 3.91929,-0.54844 2.97411,0.98094 -0.94521,1.52937 -0.33423,3.63533 1.35626,4.6801 2.94497,1.82011 4.28593,-2.00746 3.35228,-9.57059 -0.24119,-1.95379 1.16883,-4.54649 3.13333,-5.76058 0.84059,-0.51952 1.43893,-0.77574 1.78845,-0.77906 z m -12.58737,0.49473 c 0.80481,0.0475 1.33636,0.64081 1.33636,1.68041 0,1.66336 -1.35909,3.86534 -3.02244,4.89335 -1.66336,1.02803 -3.02527,0.50898 -3.0253,-1.15439 0,-1.66336 1.36194,-3.86532 3.0253,-4.89335 0.62375,-0.3855 1.2032,-0.55458 1.68608,-0.52602 z m 158.94995,5.39378 c 3.83707,-0.004 7.78666,0.15603 10.92402,0.48336 6.27468,0.65471 1.88244,1.2053 -9.7611,1.21695 -11.64353,0.0131 -16.77623,-0.52326 -11.40739,-1.19136 2.68441,-0.33392 6.40741,-0.50455 10.24447,-0.50895 z m 41.73989,0.0397 c 1.05062,0.0432 1.95409,0.32209 2.45663,0.82457 1.00493,1.00494 -0.78117,1.72073 -3.96927,1.58942 -3.52316,-0.14514 -4.24083,-0.86284 -1.82825,-1.82826 1.09157,-0.43687 2.29025,-0.62899 3.34089,-0.58573 z m -214.73867,2.43976 c 0.55323,0.28857 -1.09556,5.03604 -4.49244,11.84524 -2.61685,5.24564 -5.0003,9.42896 -5.29426,9.29765 -0.29402,-0.13131 -2.23411,-0.92388 -4.31331,-1.76285 -2.0792,-0.83898 -3.67408,-5.15491 -3.54277,-9.59052 0.13131,-4.43564 0.92673,-6.36408 1.7657,-4.28488 2.20758,5.47095 9.29196,4.63829 12.87454,-1.51264 1.51344,-2.59843 2.45162,-3.8357 2.86322,-3.98917 0.0566,-0.0211 0.10249,-0.022 0.13932,-0.003 z m 187.40303,3.57403 c 3.28892,0.006 6.46811,0.181 8.74036,0.52602 4.54444,0.69008 0.0968,1.24083 -9.88338,1.22262 -9.98018,-0.017 -13.6984,-0.58081 -8.26268,-1.25389 2.71786,-0.33653 6.11677,-0.50035 9.4057,-0.49475 z m 39.43396,0.037 c 1.05063,0.0432 1.95415,0.31927 2.45662,0.82173 1.00494,1.00495 -0.78403,1.72071 -3.97212,1.5894 -3.52315,-0.14514 -4.23797,-0.86284 -1.8254,-1.82825 1.09158,-0.43688 2.29028,-0.62615 3.3409,-0.58288 z m -213.53311,2.93431 c -0.45106,0.0326 -0.15826,1.20071 0.76485,3.62522 1.13574,2.98263 2.82773,4.66159 3.75886,3.73044 0.93115,-0.93115 -2.2e-4,-3.37071 -2.06709,-5.42221 -1.30673,-1.29701 -2.10579,-1.95881 -2.45662,-1.93345 z m 180.12129,3.09922 c 2.19262,0.0116 4.27785,0.20725 5.7236,0.58572 2.8915,0.75696 -0.18758,1.35009 -6.84102,1.31646 -6.65345,-0.0336 -9.01925,-0.6528 -5.2573,-1.37618 1.88098,-0.36163 4.1821,-0.53708 6.37472,-0.526 z m -27.21055,3.01106 c 2.74077,0.007 5.37356,0.18985 7.2334,0.54877 3.71971,0.71785 -0.0425,1.28638 -8.35935,1.26528 -8.31681,-0.0227 -11.35852,-0.60996 -6.76141,-1.30509 2.29854,-0.34763 5.1466,-0.51644 7.88736,-0.50896 z m -191.01971,1.33352 c 2.21049,-0.15399 3.87749,2.20423 3.66218,6.81543 -0.15623,3.34636 -0.78265,3.76469 -1.80834,1.20842 -1.28101,-3.1926 -2.43199,-3.1926 -6.30364,0 -4.2028,3.46571 -4.32308,3.12921 -1.06624,-2.98265 1.7482,-3.28071 3.79676,-4.92142 5.51604,-5.0412 z m 219.84242,1.68894 c 4.46815,0.0999 7.85608,1.11073 7.85608,2.45946 0,1.5414 2.38053,3.42469 5.29142,4.18537 2.91089,0.7607 -2.19351,1.32143 -11.342,1.24821 -12.46557,-0.0999 -13.98036,-0.51276 -6.04772,-1.64628 l 10.58566,-1.5098 -9.07302,-2.18367 -9.07302,-2.18082 9.82934,-0.35826 c 0.67574,-0.0246 1.33496,-0.0277 1.97326,-0.0146 z m -25.41073,3.07077 c 1.3704,0 2.73917,0.21173 3.77877,0.63123 2.0792,0.83896 0.37964,1.52401 -3.77877,1.52401 -4.15841,0 -5.8608,-0.68505 -3.7816,-1.52401 1.0396,-0.41948 2.41122,-0.63123 3.7816,-0.63123 z m 69.55891,0 c 1.37038,0 2.73916,0.21173 3.77877,0.63123 2.0792,0.83896 0.37963,1.52401 -3.77877,1.52401 -4.1584,0 -5.86082,-0.68505 -3.78162,-1.52401 1.0396,-0.41948 2.41124,-0.63123 3.78162,-0.63123 z m -283.535568,3.4518 c 0.597621,0.0186 1.679587,0.30321 3.104908,0.85014 2.85061,1.09389 4.68279,2.86764 4.06878,3.94084 -0.61399,1.07323 -0.008,4.67436 1.35058,8.00109 2.41269,5.90916 2.51772,5.89462 4.45832,-0.54876 1.29079,-4.28582 3.58454,-5.9816 6.55385,-4.84216 4.02857,1.5459 4.00994,2.06757 -0.17061,4.40713 -2.82028,1.57881 -3.974,4.66222 -2.84331,7.60873 1.20283,3.13445 0.69684,4.2059 -1.37901,2.92293 -1.80397,-1.11491 -3.96848,-0.31535 -4.81089,1.77423 -1.44834,3.59241 -3.13971,0.36644 -2.36849,-4.51804 0.19697,-1.24752 -0.9592,-2.26896 -2.57036,-2.26896 -1.61116,0 -2.14592,-2.04006 -1.1885,-4.5351 0.96291,-2.50924 0.0878,-4.53792 -1.959047,-4.53792 -2.210921,0 -3.065725,2.43279 -2.121114,6.04488 0.869522,3.32509 0.442613,6.7511 -0.949668,7.61157 -4.772634,2.94962 -5.66347,-3.5047 -1.572354,-11.39033 2.250458,-4.33742 3.243597,-8.73533 2.206414,-9.77248 -0.518592,-0.51861 -0.40712,-0.7665 0.190501,-0.74779 z m 210.951378,2.57604 c 1.91854,0 3.83596,0.18832 5.29141,0.56866 2.91088,0.7607 0.53035,1.38469 -5.29141,1.38469 -5.82177,0 -8.20229,-0.62399 -5.29142,-1.38469 1.45545,-0.38034 3.37288,-0.56866 5.29142,-0.56866 z m 29.99131,6.05058 c -1.05064,-0.0432 -2.24933,0.1489 -3.3409,0.58572 -2.41257,0.96541 -1.6949,1.68311 1.82826,1.82825 3.18808,0.13131 4.9742,-0.58448 3.96926,-1.58942 -0.50247,-0.50241 -1.40599,-0.7813 -2.45662,-0.82455 z m -210.3486,0.67387 c 0.27504,0.0416 0.60469,0.50556 0.96673,1.41028 h -0.003 c 0.87378,2.18315 0.76895,4.79254 -0.23599,5.79752 -1.00494,1.00494 -1.72073,-0.78117 -1.58942,-3.96926 0.0907,-2.20197 0.40313,-3.30795 0.86153,-3.23854 z m 210.3486,5.37671 c -1.05064,-0.0432 -2.24933,0.14891 -3.3409,0.58572 v -0.003 c -2.41257,0.96541 -1.6949,1.68311 1.82826,1.82825 3.18808,0.13131 4.9742,-0.58448 3.96926,-1.58942 -0.50247,-0.5024 -1.40599,-0.77846 -2.45662,-0.82171 z m 27.46928,0.017 c 1.37038,0 2.742,0.21175 3.78162,0.63123 2.0792,0.83898 0.3768,1.52401 -3.78162,1.52401 -4.1584,0 -5.85796,-0.68503 -3.77876,-1.52401 1.0396,-0.41948 2.40838,-0.63121 3.77876,-0.63123 z m -27.46928,6.03068 c -1.05064,-0.0432 -2.24933,0.14893 -3.3409,0.58573 -2.41257,0.96542 -1.6949,1.68026 1.82826,1.8254 3.18808,0.13131 4.9742,-0.58161 3.96926,-1.58656 -0.50247,-0.50241 -1.40599,-0.78132 -2.45662,-0.82457 z m -179.84549,0.44356 c -4.14236,0.38669 -21.54665,19.2794 -20.35246,22.62143 0.74296,2.0792 2.06327,3.78162 2.93429,3.78162 0.87088,0 0.80108,-2.0429 -0.15638,-4.53794 -0.95743,-2.49503 -0.42264,-4.53509 1.18852,-4.53509 1.61114,0 3.02481,1.69957 3.14186,3.77877 0.1169,2.0792 1.37964,1.0606 2.8092,-2.26613 1.77777,-4.13706 2.70523,-4.61544 2.93146,-1.51264 0.182,2.49505 2.34121,-0.0943 4.79667,-5.75202 2.45549,-5.65761 3.96191,-10.78629 3.34942,-11.39886 -0.14883,-0.14883 -0.36642,-0.20491 -0.64258,-0.17914 z m 201.01683,11.65476 c -1.05064,-0.0432 -2.24933,0.14607 -3.3409,0.58288 -2.41256,0.96541 -1.6949,1.68311 1.82826,1.82825 3.18808,0.13131 4.97422,-0.58448 3.96926,-1.58942 -0.50249,-0.50242 -1.40599,-0.77845 -2.45662,-0.82171 z"
   id="path844"
   inkscape:connector-curvature="0" /></svg>