<?xml version="1.0" encoding="UTF-8" standalone="no"?>
<!-- Generator: Adobe Illustrator 21.1.0, SVG Export Plug-In . SVG Version: 6.00 Build 0)  -->

<svg
   xmlns:dc="http://purl.org/dc/elements/1.1/"
   xmlns:cc="http://creativecommons.org/ns#"
   xmlns:rdf="http://www.w3.org/1999/02/22-rdf-syntax-ns#"
   xmlns:svg="http://www.w3.org/2000/svg"
   xmlns="http://www.w3.org/2000/svg"
   xmlns:sodipodi="http://sodipodi.sourceforge.net/DTD/sodipodi-0.dtd"
   xmlns:inkscape="http://www.inkscape.org/namespaces/inkscape"
   version="1.1"
   id="Layer_1"
   inkscape:version="0.92.3 (2405546, 2018-03-11)"
   sodipodi:docname="movies.svg"
   x="0px"
   y="0px"
   viewBox="0 0 512 512"
   style="enable-background:new 0 0 512 512;"
   xml:space="preserve"><metadata
   id="metadata153"><rdf:RDF><cc:Work
       rdf:about=""><dc:format>image/svg+xml</dc:format><dc:type
         rdf:resource="http://purl.org/dc/dcmitype/StillImage" /><dc:title></dc:title></cc:Work></rdf:RDF></metadata><defs
   id="defs151" />
<style
   type="text/css"
   id="style139">
	.st0{display:none;fill:#EFEAEA;}
	.st1{fill:none;stroke:#000000;stroke-width:89;stroke-miterlimit:10;}
	.st2{fill:#262626;}
</style>
<path
   class="st0"
   d="M419,501.3H90.1c-48.3,0-87.8-39.5-87.8-87.8V100c0-48.3,39.5-87.8,87.8-87.8H419c48.3,0,87.8,39.5,87.8,87.8  v313.5C506.8,461.8,467.3,501.3,419,501.3z"
   id="path141" />
<sodipodi:namedview
   bordercolor="#666666"
   borderopacity="1"
   gridtolerance="10"
   guidetolerance="10"
   id="namedview4578"
   inkscape:current-layer="Layer_1"
   inkscape:cx="133.29457"
   inkscape:cy="284.3777"
   inkscape:pagecheckerboard="true"
   inkscape:pageopacity="0"
   inkscape:pageshadow="2"
   inkscape:snap-intersection-paths="true"
   inkscape:snap-object-midpoints="true"
   inkscape:window-height="1049"
   inkscape:window-maximized="0"
   inkscape:window-width="958"
   inkscape:window-x="1920"
   inkscape:window-y="0"
   inkscape:zoom="0.44921875"
   objecttolerance="10"
   pagecolor="#ffffff"
   showgrid="false"
   inkscape:snap-bbox="false"
   inkscape:snap-bbox-midpoints="false"
   inkscape:snap-global="false">
	</sodipodi:namedview>



<path
   style="fill:#000000;stroke-width:0.99999994"
   d="M 7.745915,40.583467 C 12.225825,33.538 22.980845,33.222223 258.46788,33.222223 h 236.62303 l 5.45452,5.454533 L 506,44.131311 v 50.101 c 0,47.138069 -0.26284,50.363869 -4.44444,54.545469 -2.75135,2.75131 -7.40741,4.44445 -12.22223,4.44445 h -7.77777 v 103.33333 103.33333 h 7.77777 c 4.81483,0 9.47089,1.69311 12.22223,4.44444 4.18503,4.18505 4.44444,7.4074 4.44444,55.21114 0,48.78851 -0.18223,50.93166 -4.67777,55 -4.53935,4.10806 -11.797,4.23331 -245.32223,4.23331 -233.525245,0 -240.782885,-0.12534 -245.322245,-4.23331 -4.49549,-4.06834 -4.67775,-6.21149 -4.67775,-55 0,-47.80374 0.2594,-51.02609 4.44444,-55.21114 3.367,-3.367 7.4074,-4.44444 16.66667,-4.44444 h 12.22222 V 256.55556 153.22223 h -12.22222 c -9.25927,0 -13.29967,-1.07745 -16.66667,-4.44445 -4.18613,-4.18613 -4.44247,-7.38273 -4.41042,-55.000003 0.0178,-27.805555 0.78906,-51.742999 1.71189,-53.19431 z m 75.47631,87.698163 32.777765,-0.61496 0.61496,-32.777781 0.61498,-32.777778 H 83.837175 50.444445 V 95.503844 128.8966 Z m 0.55555,324.94059 H 117.11111 V 419.88889 386.55556 H 83.777775 50.444445 v 33.33333 33.33333 z M 167.1111,359.88889 h 61.11112 V 256.55556 153.22223 H 167.1111 105.99999 v 103.33333 103.33333 z m 30,-232.22222 h 32.22223 l 0.61495,-32.77778 0.61498,-32.777778 H 197.1111 163.65895 l 0.61498,32.777778 0.61496,32.77778 z m 0,325.55555 h 33.33334 V 419.88889 386.55556 H 197.1111 163.77777 v 33.33333 33.33333 z M 308.22221,127.66667 h 32.22223 l 0.61495,-32.777781 0.61498,-32.777778 H 308.22221 274.77006 L 275.38504,94.888889 276,127.66667 Z m 0,325.55555 h 33.33334 v -33.33333 -33.33333 h -33.33334 -33.33333 v 33.33333 33.33333 z m 46.66667,-93.33333 h 60 V 256.55556 153.22223 h -60 -60 v 103.33333 103.33333 z m 50,-232.5498 c 8.55556,-0.18022 23.30556,-0.43015 32.77778,-0.55555 l 17.22222,-0.22798 V 94.333333 62.111111 h -33.39273 -33.39276 l 0.61498,32.777778 0.61495,32.777781 z m 16.66667,325.88313 h 33.33333 v -33.33333 -33.33333 h -33.33333 -33.33334 v 33.33333 33.33333 z"
   id="path908"
   inkscape:connector-curvature="0" /></svg>