<?xml version="1.0" encoding="UTF-8" standalone="no"?>
<!-- Generator: Adobe Illustrator 19.2.1, SVG Export Plug-In . SVG Version: 6.00 Build 0)  -->

<svg
   xmlns:dc="http://purl.org/dc/elements/1.1/"
   xmlns:cc="http://creativecommons.org/ns#"
   xmlns:rdf="http://www.w3.org/1999/02/22-rdf-syntax-ns#"
   xmlns:svg="http://www.w3.org/2000/svg"
   xmlns="http://www.w3.org/2000/svg"
   xmlns:sodipodi="http://sodipodi.sourceforge.net/DTD/sodipodi-0.dtd"
   xmlns:inkscape="http://www.inkscape.org/namespaces/inkscape"
   version="1.1"
   id="Layer_1"
   x="0px"
   y="0px"
   viewBox="0 0 512 512"
   style="enable-background:new 0 0 512 512;"
   xml:space="preserve"
   sodipodi:docname="neighborhood.svg"
   inkscape:version="0.92.3 (2405546, 2018-03-11)"><metadata
     id="metadata4385"><rdf:RDF><cc:Work
         rdf:about=""><dc:format>image/svg+xml</dc:format><dc:type
           rdf:resource="http://purl.org/dc/dcmitype/StillImage" /><dc:title></dc:title></cc:Work></rdf:RDF></metadata><defs
     id="defs4383" /><sodipodi:namedview
     pagecolor="#ffffff"
     bordercolor="#666666"
     borderopacity="1"
     objecttolerance="10"
     gridtolerance="10"
     guidetolerance="10"
     inkscape:pageopacity="0"
     inkscape:pageshadow="2"
     inkscape:window-width="1920"
     inkscape:window-height="1007"
     id="namedview4381"
     showgrid="false"
     inkscape:pagecheckerboard="true"
     inkscape:zoom="1.3037281"
     inkscape:cx="206.32018"
     inkscape:cy="246.93741"
     inkscape:window-x="0"
     inkscape:window-y="0"
     inkscape:window-maximized="1"
     inkscape:current-layer="Layer_1"
     inkscape:snap-object-midpoints="true" /><style
     type="text/css"
     id="style4376">
	.st0{fill:#000000;}
</style><path
     style="fill:#000000;fill-opacity:1;stroke:none;stroke-width:64;stroke-linejoin:round;stroke-miterlimit:4;stroke-dasharray:31.99999987, 31.99999987;stroke-dashoffset:0;stroke-opacity:1"
     d="m 179.76472,6 a 41.1171,41.1171 0 0 0 -41.1171,41.1171 41.1171,41.1171 0 0 0 39.21543,41.02234 L 229.147,202.65699 a 61.67565,61.67565 0 0 0 -19.56435,33.93927 L 84.944834,249.96896 A 41.1171,41.1171 0 0 0 50.4145,231.16592 41.1171,41.1171 0 0 0 9.2973995,272.28302 41.1171,41.1171 0 0 0 50.4145,313.40012 41.1171,41.1171 0 0 0 88.842927,286.76876 L 213.59959,273.38322 a 61.67565,61.67565 0 0 0 26.24107,29.06947 l -25.8058,122.71205 A 41.1171,41.1171 0 0 0 183.47168,464.8829 41.1171,41.1171 0 0 0 224.58878,506 41.1171,41.1171 0 0 0 265.70588,464.8829 41.1171,41.1171 0 0 0 250.242,432.80032 l 25.81865,-122.76186 a 61.67565,61.67565 0 0 0 35.73172,-16.00033 l 108.78686,62.49479 a 41.1171,41.1171 0 0 0 -0.11083,2.21807 41.1171,41.1171 0 0 0 41.1171,41.1171 41.1171,41.1171 0 0 0 41.1171,-41.1171 41.1171,41.1171 0 0 0 -41.1171,-41.1171 41.1171,41.1171 0 0 0 -22.60316,6.79396 L 330.24206,261.96037 a 61.67565,61.67565 0 0 0 1.48086,-13.2426 61.67565,61.67565 0 0 0 -5.68572,-25.68694 l 93.05956,-84.15674 a 41.1171,41.1171 0 0 0 14.78609,2.79949 41.1171,41.1171 0 0 0 41.1171,-41.1171 41.1171,41.1171 0 0 0 -41.1171,-41.1171 41.1171,41.1171 0 0 0 -41.1171,41.1171 41.1171,41.1171 0 0 0 1.47604,10.90246 l -93.0178,84.1198 a 61.67565,61.67565 0 0 0 -31.17672,-8.53662 61.67565,61.67565 0 0 0 -7.12804,0.48988 L 211.64493,73.03533 A 41.1171,41.1171 0 0 0 220.88182,47.1171 41.1171,41.1171 0 0 0 179.76472,6 Z"
     id="path837"
     inkscape:connector-curvature="0" /></svg>