<?xml version="1.0" encoding="UTF-8" standalone="no"?>
<!-- Generator: Adobe Illustrator 19.2.1, SVG Export Plug-In . SVG Version: 6.00 Build 0)  -->

<svg
   xmlns:dc="http://purl.org/dc/elements/1.1/"
   xmlns:cc="http://creativecommons.org/ns#"
   xmlns:rdf="http://www.w3.org/1999/02/22-rdf-syntax-ns#"
   xmlns:svg="http://www.w3.org/2000/svg"
   xmlns="http://www.w3.org/2000/svg"
   xmlns:sodipodi="http://sodipodi.sourceforge.net/DTD/sodipodi-0.dtd"
   xmlns:inkscape="http://www.inkscape.org/namespaces/inkscape"
   version="1.1"
   id="Layer_1"
   x="0px"
   y="0px"
   viewBox="0 0 512 512"
   style="enable-background:new 0 0 512 512;"
   xml:space="preserve"
   sodipodi:docname="newDocument.svg"
   inkscape:version="0.92.3 (2405546, 2018-03-11)"><metadata
     id="metadata4582"><rdf:RDF><cc:Work
         rdf:about=""><dc:format>image/svg+xml</dc:format><dc:type
           rdf:resource="http://purl.org/dc/dcmitype/StillImage" /><dc:title></dc:title></cc:Work></rdf:RDF></metadata><defs
     id="defs4580" /><sodipodi:namedview
     pagecolor="#ffffff"
     bordercolor="#666666"
     borderopacity="1"
     objecttolerance="10"
     gridtolerance="10"
     guidetolerance="10"
     inkscape:pageopacity="0"
     inkscape:pageshadow="2"
     inkscape:window-width="958"
     inkscape:window-height="1049"
     id="namedview4578"
     showgrid="false"
     inkscape:pagecheckerboard="true"
     inkscape:zoom="0.63529124"
     inkscape:cx="252.76206"
     inkscape:cy="90.873101"
     inkscape:window-x="1920"
     inkscape:window-y="0"
     inkscape:window-maximized="0"
     inkscape:current-layer="Layer_1" /><style
     type="text/css"
     id="style4569">
	.st0{fill:#ffffff;}
</style><path
     style="fill:#ffffff;stroke-width:1"
     d="m 179.99222,6.0001357 c -34.31037,-0.0049 -68.79017,0.122146 -70.79734,0.386307 -11.197173,1.473575 -21.476587,5.6703223 -30.669532,12.5202463 -3.266272,2.433843 -9.907825,9.080466 -12.368928,12.37961 -6.392494,8.56933 -10.389026,17.989159 -12.30128,28.985452 -0.430561,2.47589 -0.463178,11.46838 -0.542965,151.108129 -0.06193,108.37206 -0.0056,149.2954 0.210065,151.50514 2.159325,22.12619 15.509512,41.43436 35.401344,51.20074 7.587213,3.7252 15.035296,5.7949 23.165926,6.43726 1.44791,0.11441 47.53102,0.18894 102.40683,0.16734 4.65049,-0.002 6.79849,-0.005 11.0302,-0.007 2.11568,-10.87675 5.27036,-21.51182 9.20549,-31.86227 -7.22423,0.004 -11.81969,0.0104 -20.49917,0.0142 -54.00705,0.0242 -99.15035,-0.0493 -100.31863,-0.16378 -10.62811,-1.04188 -19.970503,-7.31353 -25.07966,-16.83548 -1.32514,-2.46968 -2.161259,-4.69429 -2.967618,-7.89882 l -0.628415,-2.5012 V 213.61762 c 0,-124.959909 0.05636,-148.103069 0.364944,-149.660829 2.262397,-11.42135 10.432506,-20.855687 21.170309,-24.444122 5.22083,-1.744786 -0.004,-1.618215 66.79186,-1.618215 h 60.42225 l 1.83896,0.900789 c 4.57905,2.245155 7.09406,6.748627 8.31894,14.895048 0.22634,1.50535 0.36027,11.34113 0.47353,34.48631 l 0.16023,32.380319 0.57857,1.71613 c 1.66547,4.92425 5.66318,8.91901 10.60117,10.59405 l 1.71078,0.58035 31.98689,0.15488 c 27.97245,0.13684 32.32402,0.2122 34.68926,0.59281 10.27377,1.65306 14.79049,5.27551 15.84569,12.70717 0.2161,1.52724 0.27392,30.55119 0.21185,108.17828 -0.01,11.98782 -0.0179,18.6722 -0.0267,28.11492 9.37315,-3.26394 18.75478,-6.48888 28.80743,-6.76837 1.05646,-0.0522 2.06083,0.0264 3.02814,0.19582 0.0523,-66.53831 -0.0744,-146.57922 -0.38631,-148.16901 -1.69294,-8.62896 -6.99497,-17.39632 -18.06917,-29.879109 C 348.84963,93.043061 286.93362,31.381929 280.17912,25.299438 267.08263,13.505857 258.42897,8.1279197 249.77306,6.4060247 248.44276,6.1414907 214.30259,6.0050187 179.99222,6.0001357 Z M 211.67825,165.4468 c -91.5144,0.005 -83.73725,-0.16059 -87.61145,1.85499 -6.09367,3.17025 -9.51695,10.10127 -8.31539,16.83192 1.08091,6.0548 5.70721,11.1395 11.60699,12.75524 1.10042,0.30114 14.93896,0.36465 84.38394,0.38452 92.35472,0.0262 84.23898,0.19091 88.31287,-1.80335 3.54782,-1.73674 6.34526,-4.91453 7.68874,-8.73552 0.90278,-2.56755 1.1199,-6.45281 0.50024,-8.92065 -1.53426,-6.11061 -6.29845,-10.73447 -12.32442,-11.95948 -1.81681,-0.36963 -10.63185,-0.40767 -84.24152,-0.40767 z m -83.19475,63.96132 -2.15405,0.74235 c -4.07746,1.40541 -7.18351,4.14289 -9.10402,8.01986 -3.18863,6.43681 -1.8379,13.84176 3.41088,18.70115 2.32746,2.15483 5.44172,3.71231 8.43466,4.21733 0.36198,0.0605 30.74661,0.0937 67.52353,0.073 62.03976,-0.0345 66.97094,-0.0686 68.30326,-0.48244 5.35258,-1.66243 9.47559,-5.55755 11.08184,-10.46944 0.84472,-2.58313 0.91897,-7.21368 0.15131,-9.47608 -1.71756,-5.06201 -4.97143,-8.54246 -9.77338,-10.4552 l -1.84252,-0.73345 -68.01486,-0.0695 z m 134.99186,63.73345 c -12.37019,-0.005 -29.25566,0.0189 -52.4006,0.0392 l -83.18941,0.073 -1.6734,0.62485 c -2.16741,0.81072 -5.27346,2.89604 -6.56721,4.40959 -5.32826,6.23352 -5.52215,14.79129 -0.47709,20.95491 2.03659,2.48816 4.74602,4.21816 8.19075,5.23026 1.49338,0.43894 6.09783,0.46504 84.39819,0.48244 81.64477,0.0185 82.84577,0.0124 84.85034,-0.50024 2.95552,-0.75591 4.99173,-1.93129 7.29532,-4.2102 5.00742,-4.95378 6.16007,-12.1506 2.96406,-18.50355 -1.30973,-2.60338 -4.27022,-5.55261 -6.87519,-6.8467 -2.93123,-1.45627 0.59484,-1.73773 -36.51576,-1.75352 z m 103.07797,10.66348 c -4.20736,0.97095 -8.65798,2.26541 -13.43172,3.96454 -4.77374,1.69912 -8.97974,3.07389 -12.53982,4.20664 v 77.4322 H 264.0397 c -1.69914,3.72191 -3.31832,7.76654 -4.93654,12.13572 -1.53731,4.28829 -2.8316,8.4156 -3.80253,12.13751 l 7.03896,6.79685 h 78.2422 v 79.29252 L 347.70087,506 c 4.12645,-0.89002 8.57669,-2.10323 13.10771,-3.64054 4.531,-1.5373 8.7388,-3.15489 12.54161,-5.09675 v -76.70409 h 76.86431 c 1.53731,-3.15553 3.0762,-7.11968 4.69442,-11.73162 1.53731,-4.61191 2.83161,-8.8189 3.80254,-12.62171 l -6.79686,-6.79686 h -78.56441 v -79.05041 z"
     id="path4626"
     inkscape:connector-curvature="0" /></svg>