<?xml version="1.0" encoding="UTF-8" standalone="no"?>
<!-- Generator: Adobe Illustrator 19.2.1, SVG Export Plug-In . SVG Version: 6.00 Build 0)  -->

<svg
   xmlns:dc="http://purl.org/dc/elements/1.1/"
   xmlns:cc="http://creativecommons.org/ns#"
   xmlns:rdf="http://www.w3.org/1999/02/22-rdf-syntax-ns#"
   xmlns:svg="http://www.w3.org/2000/svg"
   xmlns="http://www.w3.org/2000/svg"
   xmlns:sodipodi="http://sodipodi.sourceforge.net/DTD/sodipodi-0.dtd"
   xmlns:inkscape="http://www.inkscape.org/namespaces/inkscape"
   version="1.1"
   id="Layer_1"
   x="0px"
   y="0px"
   viewBox="0 0 512 512"
   style="enable-background:new 0 0 512 512;"
   xml:space="preserve"
   sodipodi:docname="node.svg"
   inkscape:version="0.92.3 (2405546, 2018-03-11)"><metadata
     id="metadata4582"><rdf:RDF><cc:Work
         rdf:about=""><dc:format>image/svg+xml</dc:format><dc:type
           rdf:resource="http://purl.org/dc/dcmitype/StillImage" /><dc:title /></cc:Work></rdf:RDF></metadata><defs
     id="defs4580" /><sodipodi:namedview
     pagecolor="#ffffff"
     bordercolor="#666666"
     borderopacity="1"
     objecttolerance="10"
     gridtolerance="10"
     guidetolerance="10"
     inkscape:pageopacity="0"
     inkscape:pageshadow="2"
     inkscape:window-width="958"
     inkscape:window-height="1049"
     id="namedview4578"
     showgrid="false"
     inkscape:pagecheckerboard="true"
     inkscape:zoom="0.63529125"
     inkscape:cx="334.63053"
     inkscape:cy="146.76276"
     inkscape:window-x="2880"
     inkscape:window-y="0"
     inkscape:window-maximized="0"
     inkscape:current-layer="Layer_1"
     inkscape:snap-object-midpoints="true"
     inkscape:snap-intersection-paths="true" /><style
     type="text/css"
     id="style4569">
	.st0{fill:#ffffff;}
</style><path
     d="M 194.72828,17.596502 A 214.09569,64.846291 47.557945 0 0 291.35634,219.34853 214.09569,64.846291 47.557945 0 0 483.68945,333.58054 214.09569,64.846291 47.557945 0 0 387.0614,131.82852 214.09569,64.846291 47.557945 0 0 194.72828,17.596502 Z M 311.72299,133.18602 a 46.944994,16.376162 47.568431 0 1 43.7623,23.5885 46.944994,16.376162 47.568431 0 1 19.5886,45.7105 46.944994,16.376162 47.568431 0 1 -43.761,-23.603 46.944994,16.376162 47.568431 0 1 -19.5899,-45.696 z M 105.41672,61.382512 c -13.989846,12.788 -11.029946,41.590998 4.94075,78.612008 12.16175,-3.3225 22.64485,-1.129 27.39185,5.7325 5.5145,8.007 2.16395,20.728 -8.3682,31.773 13.6438,23.655 31.10155,49.18401 51.842,75.25101 20.27166,-8.7465 43.34336,-0.47 51.56771,18.4955 5.0069,11.562 3.47535,25.037 -4.0766,35.8665 23.957,25.10301 48.14815,47.16401 71.33646,65.65401 16.2639,-11.8155 34.9675,-13.0515 44.95165,-2.971 8.06795,8.1655 8.8031,22.1825 1.8975,36.1735 42.14041,25.80651 76.47866,34.76601 92.32136,20.285 28.613,-21.491 65.53991,-55.3815 65.53991,-55.3815 C 474.1209,398.88004 374.55829,339.90554 282.38108,239.14903 190.20388,138.39202 140.31817,34.007512 170.95812,6.0000025 Z M 385.88575,473.65555 c -12.79861,14.434 -35.81711,25.3795 -35.81711,25.3795 -30.6402,28.007 -130.20311,-30.968 -222.38007,-131.72401 C 35.511464,266.55403 -14.374286,162.16952 16.265664,134.16202 c 0,0 28.60055,-32.20851 44.4789,-35.777008 15.87895,-3.567 21.0281,-5.312 21.0281,-5.312 -12.6607,11.502008 -11.4343,34.890508 0.1165,65.189008 -8.9391,10.545 -11.4027,22.059 -6.3053,29.469 4.16785,6.0065 12.78476,8.4765 23.21051,6.6525 14.446896,26.50901 34.336046,55.88901 58.720796,85.85851 -1.89785,7.723 -1.26345,15.705 1.8153,22.8395 6.20515,14.2685 21.17925,22.9605 37.62851,21.843 27.95205,29.34201 56.25975,54.35801 82.67295,73.90201 -4.82175,12.5965 -3.3997,24.582 3.7793,31.85401 9.62946,9.7005 27.40991,8.9315 43.35261,-1.87601 31.44385,16.26501 56.5482,20.55801 68.71331,9.41501 -12.40951,11.1395 3.20675,21.0015 -9.5915,35.436 z"
     style="fill:#ffffff;fill-opacity:1;stroke:none;stroke-width:0.99999994;stroke-miterlimit:4;stroke-dasharray:none;stroke-dashoffset:0;stroke-opacity:1"
     id="path2298"
     inkscape:connector-curvature="0" /></svg>