<?xml version="1.0" encoding="UTF-8" standalone="no"?>
<!-- Generator: Adobe Illustrator 19.2.1, SVG Export Plug-In . SVG Version: 6.00 Build 0)  -->

<svg
   xmlns:dc="http://purl.org/dc/elements/1.1/"
   xmlns:cc="http://creativecommons.org/ns#"
   xmlns:rdf="http://www.w3.org/1999/02/22-rdf-syntax-ns#"
   xmlns:svg="http://www.w3.org/2000/svg"
   xmlns="http://www.w3.org/2000/svg"
   xmlns:sodipodi="http://sodipodi.sourceforge.net/DTD/sodipodi-0.dtd"
   xmlns:inkscape="http://www.inkscape.org/namespaces/inkscape"
   version="1.1"
   id="Layer_1"
   x="0px"
   y="0px"
   viewBox="0 0 512 512"
   style="enable-background:new 0 0 512 512;"
   xml:space="preserve"
   sodipodi:docname="node.svg"
   inkscape:version="0.92.3 (2405546, 2018-03-11)"><metadata
     id="metadata4582"><rdf:RDF><cc:Work
         rdf:about=""><dc:format>image/svg+xml</dc:format><dc:type
           rdf:resource="http://purl.org/dc/dcmitype/StillImage" /><dc:title /></cc:Work></rdf:RDF></metadata><defs
     id="defs4580" /><sodipodi:namedview
     pagecolor="#ffffff"
     bordercolor="#666666"
     borderopacity="1"
     objecttolerance="10"
     gridtolerance="10"
     guidetolerance="10"
     inkscape:pageopacity="0"
     inkscape:pageshadow="2"
     inkscape:window-width="958"
     inkscape:window-height="1006"
     id="namedview4578"
     showgrid="false"
     inkscape:pagecheckerboard="true"
     inkscape:zoom="0.63529125"
     inkscape:cx="197.68547"
     inkscape:cy="146.76276"
     inkscape:window-x="0"
     inkscape:window-y="0"
     inkscape:window-maximized="0"
     inkscape:current-layer="Layer_1"
     inkscape:snap-object-midpoints="true"
     inkscape:snap-intersection-paths="true" /><style
     type="text/css"
     id="style4569">
	.st0{fill:#ffffff;}
</style><path
     id="path6083"
     style="fill:#ffffff;fill-opacity:1;stroke:none;stroke-width:60;stroke-miterlimit:4;stroke-dasharray:none;stroke-dashoffset:0;stroke-opacity:1"
     d="M 149.61383,6.1275377 C 74.383453,7.5678397 6.8409322,74.273777 6.0285822,149.78523 4.6668782,216.35013 52.111439,282.18493 117.85049,297.58893 174.99028,311.57056 239.98266,289.09915 274.37743,240.50078 311.86642,188.0244 311.17673,111.38383 269.5669,61.635983 240.71965,26.224617 195.14118,4.3732977 149.61383,6.1275377 Z M 319.31836,267.35347 a 200.32048,200.32048 0 0 1 -51.94471,51.65854 l 81.72673,81.72674 c -5.00013,14.14655 -6.02376,29.54484 -1.58736,44.3589 10.48761,40.47178 55.90459,70.2928 97.07495,58.12424 38.61778,-9.24157 67.88526,-50.14165 60.17214,-89.86698 -5.46778,-38.19743 -41.40768,-70.13544 -80.48813,-68.21405 l -1.14469,0.009 -1.09327,0.009 c -7.31141,0.10588 -14.4366,1.40683 -21.21921,3.69117 z"
     inkscape:connector-curvature="0" /></svg>