<?xml version="1.0" encoding="UTF-8" standalone="no"?>
<!-- Generator: Adobe Illustrator 19.2.1, SVG Export Plug-In . SVG Version: 6.00 Build 0)  -->

<svg
   xmlns:dc="http://purl.org/dc/elements/1.1/"
   xmlns:cc="http://creativecommons.org/ns#"
   xmlns:rdf="http://www.w3.org/1999/02/22-rdf-syntax-ns#"
   xmlns:svg="http://www.w3.org/2000/svg"
   xmlns="http://www.w3.org/2000/svg"
   xmlns:sodipodi="http://sodipodi.sourceforge.net/DTD/sodipodi-0.dtd"
   xmlns:inkscape="http://www.inkscape.org/namespaces/inkscape"
   version="1.1"
   id="Layer_1"
   x="0px"
   y="0px"
   viewBox="0 0 512 512"
   style="enable-background:new 0 0 512 512;"
   xml:space="preserve"
   sodipodi:docname="nodesToBeGobbled.svg"
   inkscape:version="0.92.3 (2405546, 2018-03-11)"><metadata
     id="metadata4582"><rdf:RDF><cc:Work
         rdf:about=""><dc:format>image/svg+xml</dc:format><dc:type
           rdf:resource="http://purl.org/dc/dcmitype/StillImage" /><dc:title></dc:title></cc:Work></rdf:RDF></metadata><defs
     id="defs4580" /><sodipodi:namedview
     pagecolor="#ffffff"
     bordercolor="#666666"
     borderopacity="1"
     objecttolerance="10"
     gridtolerance="10"
     guidetolerance="10"
     inkscape:pageopacity="0"
     inkscape:pageshadow="2"
     inkscape:window-width="1920"
     inkscape:window-height="1037"
     id="namedview4578"
     showgrid="false"
     inkscape:pagecheckerboard="true"
     inkscape:zoom="0.8984375"
     inkscape:cx="113.17885"
     inkscape:cy="279.72625"
     inkscape:window-x="0"
     inkscape:window-y="0"
     inkscape:window-maximized="1"
     inkscape:current-layer="g6318"
     inkscape:snap-object-midpoints="true"
     inkscape:snap-intersection-paths="true"
     inkscape:snap-bbox="true"
     inkscape:snap-page="true" /><style
     type="text/css"
     id="style4569">
	.st0{fill:#ffffff;}
</style><g
     id="g6318"
     transform="matrix(0.9765625,0,0,0.9765625,6,6)"
     style="stroke-width:1.02400005"><path
       style="fill:#ffffff;stroke-width:1.02400005"
       d="m 361.49399,418.26166 c -18.98543,-4.13088 -34.71636,-19.92817 -38.6843,-38.84758 -0.6399,-3.05104 -1.07891,-9.85377 -0.97559,-15.11719 l 0.18784,-9.56985 -16.02453,-15.42133 c -8.81349,-8.48173 -19.28129,-18.38417 -23.26175,-22.0054 l -7.2372,-6.58408 -7.59721,1.56925 c -22.05919,4.55645 -43.64654,-0.54613 -59.6126,-14.09055 l -6.8711,-5.82892 -25.82041,7.34453 c -14.20124,4.03949 -27.94373,7.97462 -30.53888,8.74472 -4.10392,1.21781 -4.87507,1.8905 -5.92098,5.16489 -2.41656,7.56545 -7.38191,15.39994 -13.45808,21.23458 -11.19539,10.75035 -23.01418,14.84926 -40.453226,14.02972 -11.79913,-0.55452 -18.680359,-2.81341 -28.079753,-9.21766 -28.776341,-19.60671 -28.776341,-67.3186 0,-86.92532 9.259175,-6.30871 16.247155,-8.59674 28.079753,-9.19389 14.683632,-0.74102 25.990916,2.28124 35.653916,9.52977 l 3.37854,2.53436 31.28777,-8.98064 31.28778,-8.98063 1.85891,-7.31988 c 5.45075,-21.46364 22.5074,-39.03312 43.78947,-45.10604 3.32839,-0.94977 6.21182,-1.8693 6.40761,-2.0434 0.19577,-0.17408 3.88731,-14.41968 8.20338,-31.65686 l 7.84746,-31.34033 -2.88937,-3.6358 c -3.6099,-4.54246 -7.57956,-12.84342 -8.91766,-18.647708 -1.46012,-6.33352 -1.28221,-23.714115 0.30339,-29.641122 5.66307,-21.168473 23.91556,-35.859167 46.59877,-37.505446 21.18537,-1.537576 38.83243,6.945383 49.82303,23.949919 5.31822,8.228383 7.47478,16.470404 7.50529,28.684609 0.0591,23.672218 -12.4945,42.726288 -32.87971,49.905188 l -5.1058,1.79807 -7.53866,30.63028 -7.53865,30.63027 6.22345,6.53705 c 7.474,7.85061 13.50179,19.40934 15.78929,30.27705 1.54604,7.34521 1.44223,24.32541 -0.20084,32.85092 -0.57039,2.95957 0.44545,4.09015 22.88236,25.46729 l 23.47918,22.37023 h 10.68943 c 16.96886,0 27.1897,3.55247 37.60329,13.06992 10.75428,9.82883 15.67153,20.62562 16.5557,36.35174 0.39004,6.93632 0.086,11.50234 -1.10128,16.53808 -6.71619,28.48685 -34.54233,45.01503 -64.72803,38.44719 z"
       id="path1826"
       inkscape:connector-curvature="0" /></g></svg>