<?xml version="1.0" encoding="UTF-8" standalone="no"?>
<!-- Generator: Adobe Illustrator 21.1.0, SVG Export Plug-In . SVG Version: 6.00 Build 0)  -->

<svg
   xmlns:dc="http://purl.org/dc/elements/1.1/"
   xmlns:cc="http://creativecommons.org/ns#"
   xmlns:rdf="http://www.w3.org/1999/02/22-rdf-syntax-ns#"
   xmlns:svg="http://www.w3.org/2000/svg"
   xmlns="http://www.w3.org/2000/svg"
   xmlns:sodipodi="http://sodipodi.sourceforge.net/DTD/sodipodi-0.dtd"
   xmlns:inkscape="http://www.inkscape.org/namespaces/inkscape"
   version="1.1"
   id="Layer_1"
   inkscape:version="0.92.3 (2405546, 2018-03-11)"
   sodipodi:docname="nofab.svg"
   x="0px"
   y="0px"
   viewBox="0 0 512 512"
   style="enable-background:new 0 0 512 512;"
   xml:space="preserve"><metadata
   id="metadata153"><rdf:RDF><cc:Work
       rdf:about=""><dc:format>image/svg+xml</dc:format><dc:type
         rdf:resource="http://purl.org/dc/dcmitype/StillImage" /><dc:title></dc:title></cc:Work></rdf:RDF></metadata><defs
   id="defs151" />
<style
   type="text/css"
   id="style139">
	.st0{display:none;fill:#EFEAEA;}
	.st1{fill:none;stroke:#000000;stroke-width:89;stroke-miterlimit:10;}
	.st2{fill:#262626;}
</style>
<path
   class="st0"
   d="M419,501.3H90.1c-48.3,0-87.8-39.5-87.8-87.8V100c0-48.3,39.5-87.8,87.8-87.8H419c48.3,0,87.8,39.5,87.8,87.8  v313.5C506.8,461.8,467.3,501.3,419,501.3z"
   id="path141" />
<sodipodi:namedview
   bordercolor="#666666"
   borderopacity="1"
   gridtolerance="10"
   guidetolerance="10"
   id="namedview4578"
   inkscape:current-layer="Layer_1"
   inkscape:cx="236.99486"
   inkscape:cy="48.639709"
   inkscape:pagecheckerboard="true"
   inkscape:pageopacity="0"
   inkscape:pageshadow="2"
   inkscape:snap-intersection-paths="true"
   inkscape:snap-object-midpoints="true"
   inkscape:window-height="1049"
   inkscape:window-maximized="0"
   inkscape:window-width="958"
   inkscape:window-x="1920"
   inkscape:window-y="0"
   inkscape:zoom="0.8984375"
   objecttolerance="10"
   pagecolor="#ffffff"
   showgrid="false"
   inkscape:snap-bbox="false"
   inkscape:snap-bbox-midpoints="false">
	</sodipodi:namedview>



<path
   style="fill:#000000;stroke-width:1"
   d="m 421.62543,15.022586 c -1.95157,-0.0182 -4.08341,-0.0141 -6.32927,0.008 -2.99447,0.0294 -6.19611,0.0962 -9.45644,0.20085 -22.58594,0.72575 -24.45646,1.12247 -39.39731,8.38123 -26.07356,12.66742 -47.7187,37.248544 -56.20308,63.820249 -3.42628,10.730518 -4.18141,18.039195 -4.03703,39.097965 0.20146,29.36461 -0.52841,31.2705 -18.05822,47.26652 l -9.25561,8.44818 -91.1183,80.55515 -12.76484,11.87472 c -7.01987,6.52916 -24.56399,22.2127 -38.98771,34.85221 -23.56858,20.65313 -33.25453,29.34729 -51.839165,46.54183 -3.14699,2.91162 -11.32294,10.17567 -18.16852,16.14018 -25.1155,21.88296 -31.06299,27.19272 -40.94515,36.56155 -5.54758,5.25943 -10.78045,9.56855 -11.63054,9.57462 -0.85009,0.006 -3.01206,3.08532 -4.80503,6.84519 -5.83882,12.24419 -2.70211,19.6056 17.03817,39.95657 9.60591,9.90316 17.94028,18.64595 18.51905,19.42885 0.57874,0.78272 4.07183,3.90632 7.76288,6.93973 7.11502,5.84715 15.7995,7.10323 22.88297,3.31233 3.90275,-2.08873 33.722485,-32.17742 91.642145,-92.47318 14.31527,-14.90249 37.06362,-38.47008 50.55127,-52.3709 l 24.52139,-25.27366 84.5252,-88.19197 9.87,-10.10632 c 16.30925,-16.69253 21.71462,-18.1056 52.03611,-13.59588 11.12163,1.65421 18.51788,1.6504 28.10548,-0.0202 13.19211,-2.2973 34.07502,-9.83047 35.30515,-12.73725 0.36985,-0.87393 1.54364,-1.59117 2.60732,-1.59117 4.23473,0 19.91917,-13.82384 29.70454,-26.17955 14.80436,-18.69305 20.62092,-34.54457 21.93377,-59.78322 0.74622,-14.344757 0.36425,-20.832399 -1.28397,-21.851073 -1.32289,-0.817585 -11.1156,4.115147 -22.47729,11.323343 -11.07349,7.02535 -24.39403,15.35447 -29.60214,18.51116 L 442.803,126.23109 419.02204,101.4458 C 405.94258,87.814726 395.24108,76.068116 395.24108,75.341155 c 0,-1.035613 17.16761,-25.969043 25.67935,-37.294119 12.06496,-16.05268 14.7874,-21.21455 11.78413,-22.36702 -0.97507,-0.37415 -5.22446,-0.60434 -11.07913,-0.65773 z M 63.973695,427.5186 c 6.45153,-0.28183 16.56553,7.32467 16.56553,12.93421 0,5.2674 -8.04421,14.65526 -11.44146,13.35167 -1.60376,-0.61528 -2.33866,-0.22113 -1.65421,0.88617 1.55572,2.51718 -2.70172,2.16776 -8.45607,-0.69319 -5.46298,-2.71629 -8.37377,-8.84001 -7.34537,-15.45879 0.96106,-6.18585 4.05433,-9.21138 11.09488,-10.85465 0.39345,-0.0918 0.80662,-0.14661 1.2367,-0.16536 z"
   id="path877"
   inkscape:connector-curvature="0"
   sodipodi:nodetypes="cccsscccccscscccccccccccccccssccscccsscccccccccccc" /></svg>