<?xml version="1.0" encoding="UTF-8" standalone="no"?>
<!-- Generator: Adobe Illustrator 19.2.1, SVG Export Plug-In . SVG Version: 6.00 Build 0)  -->

<svg
   xmlns:dc="http://purl.org/dc/elements/1.1/"
   xmlns:cc="http://creativecommons.org/ns#"
   xmlns:rdf="http://www.w3.org/1999/02/22-rdf-syntax-ns#"
   xmlns:svg="http://www.w3.org/2000/svg"
   xmlns="http://www.w3.org/2000/svg"
   xmlns:sodipodi="http://sodipodi.sourceforge.net/DTD/sodipodi-0.dtd"
   xmlns:inkscape="http://www.inkscape.org/namespaces/inkscape"
   version="1.1"
   id="Layer_1"
   x="0px"
   y="0px"
   viewBox="0 0 512 512"
   style="enable-background:new 0 0 512 512;"
   xml:space="preserve"
   sodipodi:docname="northwind.svg"
   inkscape:version="0.92.3 (2405546, 2018-03-11)"><metadata
     id="metadata4385"><rdf:RDF><cc:Work
         rdf:about=""><dc:format>image/svg+xml</dc:format><dc:type
           rdf:resource="http://purl.org/dc/dcmitype/StillImage" /><dc:title></dc:title></cc:Work></rdf:RDF></metadata><defs
     id="defs4383" /><sodipodi:namedview
     pagecolor="#ffffff"
     bordercolor="#666666"
     borderopacity="1"
     objecttolerance="10"
     gridtolerance="10"
     guidetolerance="10"
     inkscape:pageopacity="0"
     inkscape:pageshadow="2"
     inkscape:window-width="1920"
     inkscape:window-height="1054"
     id="namedview4381"
     showgrid="false"
     inkscape:pagecheckerboard="true"
     inkscape:zoom="0.65186405"
     inkscape:cx="63.847955"
     inkscape:cy="527.02172"
     inkscape:window-x="1920"
     inkscape:window-y="0"
     inkscape:window-maximized="1"
     inkscape:current-layer="Layer_1"
     inkscape:snap-object-midpoints="true" /><style
     type="text/css"
     id="style4376">
	.st0{fill:#000000;}
</style><path
     style="fill:#000000;stroke-width:1"
     d="m 314.49036,505.70591 c -28.48924,-2.94875 -41.86118,-6.14858 -73.46555,-17.57974 -19.76318,-7.14827 -35.88673,-10.42026 -58.25525,-11.82178 -20.74721,-1.29998 -48.51833,2.64876 -69.1661,9.8346 -15.170832,5.27977 -15.733402,5.39242 -19.381772,3.88122 -6.20014,-2.56817 -7.71264,-11.42376 -2.72564,-15.95838 3.04355,-2.76749 16.561282,-7.82324 30.538572,-11.42171 18.67895,-4.80898 35.7077,-6.51355 58.70062,-5.87597 27.73675,0.76906 44.99879,4.17692 72.25868,14.26523 16.67585,6.17137 24.0736,8.40986 35.64048,10.78445 35.49396,7.28654 75.59653,4.92705 111.59765,-6.56589 13.01113,-4.15379 17.32077,-4.41381 20.29767,-1.22464 4.93134,5.2831 3.67212,12.74207 -2.68999,15.93324 -9.4584,4.74423 -31.38958,10.57433 -50.43494,13.40741 -12.63541,1.87961 -43.97855,3.26683 -52.91443,2.34196 z m -13.22295,-31.39518 c -13.51721,-1.8427 -30.55934,-5.79337 -41.19453,-9.54957 -28.51557,-10.07144 -36.11176,-12.47269 -45.26314,-14.30823 -39.1658,-7.85568 -73.8264,-4.93243 -111.88634,9.43649 -4.690562,1.77086 -8.199002,1.25696 -11.427352,-1.67382 -5.2534,-4.7691 -3.46628,-13.20743 3.4996,-16.52428 7.413892,-3.53021 24.298422,-8.71107 36.407852,-11.1714 37.07196,-7.53209 76.36209,-4.98815 111.79841,7.23857 39.82519,13.74106 48.29334,15.81631 72.45926,17.75736 27.30177,2.19289 60.19047,-2.00708 87.47108,-11.17035 10.6233,-3.56817 11.60686,-3.67259 15.5232,-1.64749 5.75546,2.9762 6.5651,11.74101 1.45587,15.75985 -5.29665,4.16639 -26.51447,10.44086 -48.66071,14.38983 -15.68123,2.79621 -54.47193,3.60485 -70.1832,1.46304 z m 5.59431,-25.07661 c -17.21302,-1.97787 -30.31939,-5.33837 -51.87459,-13.30075 -17.54846,-6.48237 -36.80534,-11.39066 -52.73072,-13.44038 -14.36021,-1.84826 -39.46259,-2.11487 -51.93047,-0.55151 -4.668,0.58531 -8.61298,0.92859 -8.76682,0.76285 -0.59349,-0.63984 10.07345,-13.96871 18.57173,-23.20627 28.55925,-31.04355 52.07885,-42.39748 69.45918,-33.53074 6.40439,3.26732 12.6208,9.47979 21.94337,21.92957 18.57528,24.80641 25.38671,27.56668 45.15683,18.29986 9.80937,-4.59794 11.42635,-5.04066 19.83441,-5.43033 20.79103,-0.96353 31.63206,4.45884 59.85901,29.94022 l 13.29572,12.00221 -9.47856,2.25647 c -20.36287,4.84764 -52.18235,6.69979 -73.33909,4.2688 z m -23.3944,-62.15265 c -27.82119,-6.43588 -30.14832,-7.14307 -31.9626,-9.71286 -4.18834,-5.93234 -13.62898,-14.23157 -19.42764,-17.0786 -5.39924,-2.65095 -7.10184,-2.97817 -15.23305,-2.92767 -6.15681,0.0394 -10.40326,0.60412 -12.96863,1.72814 l -3.81432,1.67119 0.0485,-2.74522 c 0.1325,-7.52063 2.68851,-41.92997 3.14867,-42.39013 0.408,-0.40799 106.65577,23.58825 107.31621,24.23759 0.3682,0.36207 3.60215,53.68243 3.26955,53.90773 -0.20378,0.13818 -13.87343,-2.87249 -30.37664,-6.69017 z m -26.95448,-91.05771 c -27.97157,-6.48787 -51.04277,-11.94046 -51.26929,-12.11695 -0.56856,-0.44285 2.6757,-51.26212 3.31327,-51.89969 0.2825,-0.28249 22.17353,4.48705 48.64646,10.59911 l 48.13273,11.1129 1.17002,19.24441 c 0.64356,10.58438 1.45522,22.79168 1.80383,27.1273 0.34852,4.33561 0.27986,7.84829 -0.15305,7.80596 -0.43249,-0.0437 -23.67252,-5.3852 -51.64414,-11.87304 z M 255.4957,210.88703 210.74114,200.4442 210.92918,191.4 c 0.10363,-4.97423 0.48946,-13.27801 0.85774,-18.45274 l 0.6698,-9.40864 h 43.64249 c 40.87789,0 43.64384,0.11282 43.66418,1.78 0.0131,0.97901 0.68869,11.62093 1.50397,23.64873 1.86829,27.56406 1.90756,32.57673 0.25407,32.45565 -0.69927,-0.0512 -21.41098,-4.79237 -46.02599,-10.53597 z m -51.36602,-65.65711 v -10.17149 h 51.87459 51.87459 v 10.17149 10.17149 h -51.87459 -51.87459 z m 9.15435,-26.44586 v -7.12003 h 7.6286 7.62864 V 91.829624 71.995214 h -7.62864 -7.6286 v -7.62859 -7.62864 h 42.72024 42.72024 v 7.62864 7.62859 h -7.62859 -7.6286 v 19.83441 19.834406 h 7.6286 7.62859 v 7.12003 7.12002 H 256.00427 213.28403 Z M 268.21004,91.829624 V 71.995214 H 256.00427 243.7985 v 19.83441 19.834406 h 12.20577 12.20577 z m -76.74384,-45.1452 c 0.53144,-0.49453 15.26996,-9.85082 32.75218,-20.79181 l 31.78589,-19.8926102 31.7859,19.8926102 c 17.48226,10.94099 32.22074,20.29728 32.75222,20.79181 0.56043,0.52156 -26.54618,0.89925 -64.53812,0.89925 -37.9918,0 -65.09855,-0.37782 -64.53807,-0.89925 z"
     id="path861"
     inkscape:connector-curvature="0"
     sodipodi:nodetypes="scssscsssssccssscssssccscccssscssccccssccssccccccccccccsccsccssssccccscscsccccccccccccccccccccccccccccccccccccccccccccscscsc" /></svg>