<?xml version="1.0" encoding="UTF-8" standalone="no"?>
<!-- Generator: Adobe Illustrator 19.2.1, SVG Export Plug-In . SVG Version: 6.00 Build 0)  -->

<svg
   xmlns:dc="http://purl.org/dc/elements/1.1/"
   xmlns:cc="http://creativecommons.org/ns#"
   xmlns:rdf="http://www.w3.org/1999/02/22-rdf-syntax-ns#"
   xmlns:svg="http://www.w3.org/2000/svg"
   xmlns="http://www.w3.org/2000/svg"
   xmlns:sodipodi="http://sodipodi.sourceforge.net/DTD/sodipodi-0.dtd"
   xmlns:inkscape="http://www.inkscape.org/namespaces/inkscape"
   version="1.1"
   id="Layer_1"
   x="0px"
   y="0px"
   viewBox="0 0 512 512"
   style="enable-background:new 0 0 512 512;"
   xml:space="preserve"
   sodipodi:docname="null.svg"
   inkscape:version="0.92.3 (2405546, 2018-03-11)"><metadata
     id="metadata4582"><rdf:RDF><cc:Work
         rdf:about=""><dc:format>image/svg+xml</dc:format><dc:type
           rdf:resource="http://purl.org/dc/dcmitype/StillImage" /><dc:title /></cc:Work></rdf:RDF></metadata><defs
     id="defs4580" /><sodipodi:namedview
     pagecolor="#ffffff"
     bordercolor="#666666"
     borderopacity="1"
     objecttolerance="10"
     gridtolerance="10"
     guidetolerance="10"
     inkscape:pageopacity="0"
     inkscape:pageshadow="2"
     inkscape:window-width="958"
     inkscape:window-height="1049"
     id="namedview4578"
     showgrid="false"
     inkscape:pagecheckerboard="true"
     inkscape:zoom="0.31764562"
     inkscape:cx="-146.52936"
     inkscape:cy="114.84489"
     inkscape:window-x="960"
     inkscape:window-y="0"
     inkscape:window-maximized="0"
     inkscape:current-layer="Layer_1" /><style
     type="text/css"
     id="style4569">
	.st0{fill:#ffffff;}
</style><path
     style="fill:#ffffff;stroke-width:1"
     d="M 18.452778,503.18621 C 9.9506082,498.48372 4.1944482,486.75099 6.5184182,478.86061 7.4619682,475.65709 31.574748,449.56338 60.102348,420.87458 l 51.868392,-52.16146 -11.09743,-18.3998 C 57.302658,278.07219 68.309978,187.84077 127.97143,128.17928 187.63289,68.517829 277.86434,57.510514 350.10546,101.08119 l 18.39981,11.09743 52.16145,-51.868387 c 28.6888,-28.527631 54.78252,-52.6403871 57.98604,-53.5839301 13.33729,-3.928304 30.70165,13.2847821 26.7851,26.5517491 -0.97445,3.300939 -25.11252,29.474392 -53.64013,58.163168 l -51.86838,52.16149 11.09742,18.39977 c 43.57066,72.24115 32.56334,162.47258 -27.09811,222.13403 -59.66146,59.66146 -149.89291,70.66877 -222.13406,27.09812 l -18.39978,-11.09742 -52.161452,51.98102 c -31.13301,31.02533 -54.9109,52.57508 -58.98152,53.45454 -3.75104,0.81041 -9.96063,-0.26353 -13.79907,-2.38656 z M 283.77805,389.54455 c 52.35004,-10.91693 95.66559,-55.17284 105.99644,-108.29759 5.9169,-30.42672 -0.0707,-65.8239 -15.72377,-92.95607 l -6.88985,-11.94245 -95.19098,95.14727 c -105.69598,105.64748 -99.33916,96.26326 -73.30841,108.2211 26.36491,12.11137 57.13127,15.6637 85.11657,9.82774 z m 46.53989,-247.58712 c -8.22438,-6.36167 -31.43336,-15.8954 -46.53989,-19.11747 -87.49197,-18.66112 -170.9554,54.71075 -163.4568,143.69323 1.77309,21.04037 7.68436,40.42922 17.52812,57.49171 l 6.88985,11.94246 95.19098,-95.14725 c 86.50668,-86.46699 94.75277,-95.48625 90.38774,-98.86268 z"
     id="path4658"
     inkscape:connector-curvature="0" /></svg>