<?xml version="1.0" encoding="UTF-8" standalone="no"?>
<!-- Generator: Adobe Illustrator 19.2.1, SVG Export Plug-In . SVG Version: 6.00 Build 0)  -->

<svg
   xmlns:dc="http://purl.org/dc/elements/1.1/"
   xmlns:cc="http://creativecommons.org/ns#"
   xmlns:rdf="http://www.w3.org/1999/02/22-rdf-syntax-ns#"
   xmlns:svg="http://www.w3.org/2000/svg"
   xmlns="http://www.w3.org/2000/svg"
   xmlns:sodipodi="http://sodipodi.sourceforge.net/DTD/sodipodi-0.dtd"
   xmlns:inkscape="http://www.inkscape.org/namespaces/inkscape"
   version="1.1"
   id="Layer_1"
   x="0px"
   y="0px"
   viewBox="0 0 512 512"
   style="enable-background:new 0 0 512 512;"
   xml:space="preserve"
   sodipodi:docname="openContainer.svg"
   inkscape:version="0.92.3 (2405546, 2018-03-11)"><metadata
     id="metadata4582"><rdf:RDF><cc:Work
         rdf:about=""><dc:format>image/svg+xml</dc:format><dc:type
           rdf:resource="http://purl.org/dc/dcmitype/StillImage" /><dc:title></dc:title></cc:Work></rdf:RDF></metadata><defs
     id="defs4580" /><sodipodi:namedview
     pagecolor="#ffffff"
     bordercolor="#666666"
     borderopacity="1"
     objecttolerance="10"
     gridtolerance="10"
     guidetolerance="10"
     inkscape:pageopacity="0"
     inkscape:pageshadow="2"
     inkscape:window-width="958"
     inkscape:window-height="1049"
     id="namedview4578"
     showgrid="false"
     inkscape:pagecheckerboard="true"
     inkscape:zoom="0.63529124"
     inkscape:cx="185.07617"
     inkscape:cy="123.42295"
     inkscape:window-x="1920"
     inkscape:window-y="0"
     inkscape:window-maximized="0"
     inkscape:current-layer="Layer_1" /><style
     type="text/css"
     id="style4569">
	.st0{fill:#ffffff;}
</style><path
     style="fill:#ffffff;stroke-width:1"
     d="M 205.43055,6.6898772 C 179.58805,17.209927 155.79845,32.199807 131.15232,45.230497 90.34409,67.591777 48.912316,88.978387 9.2030958,113.23264 c -6.88639,7.28497 -1.20442,17.57189 3.3813002,24.38576 12.36618,22.7617 25.42013,45.14077 38.16115,67.69432 0.1317,60.84057 -0.46978,121.68564 0.47676,182.52224 51.839124,33.8038 105.364224,64.92071 158.163114,97.18219 12.21974,6.96066 24.2143,15.06219 37.14349,20.30129 9.42415,-0.17069 15.93929,-8.04071 24.19918,-11.43216 57.57362,-33.92355 115.524,-67.30849 171.78605,-103.36564 6.51408,-5.39457 9.40675,-14.16602 8.09263,-22.41746 1.24144,-53.99644 -0.35949,-108.12011 0.768,-162.04646 6.79453,-12.7567 16.14143,-23.99679 23.74229,-36.25621 10.69821,-16.04019 22.29772,-31.78948 30.69217,-49.14718 2.07363,-11.52076 -13.23611,-21.567463 -22.67927,-14.16276 -31.78947,17.70488 -63.17881,36.14716 -94.90225,53.93847 -44.4492,-24.3535 -88.48086,-49.45681 -132.70553,-74.210823 -14.22793,-25.50631 -25.30949,-53.05936 -42.16725,-76.9330198 -2.29392,-1.63643 -5.0758,-2.70956 -7.92438,-2.59532 z m 7.10349,59.7577598 c 4.49963,8.96892 9.41633,17.72922 13.62063,26.84524 C 174.44054,123.1522 122.58596,152.77335 70.554572,182.09324 60.170286,164.27973 50.142766,146.1605 40.562266,127.86448 93.343107,98.666697 146.33529,69.854217 199.14603,40.713577 c 4.46267,8.57802 8.92534,17.15603 13.38801,25.73406 z m 54.12303,59.094513 c 30.74497,17.23503 61.41703,34.60119 92.06087,52.01601 -21.40209,13.16654 -44.3332,24.09984 -64.93303,38.49727 -9.15517,14.24942 -17.45725,29.08652 -27.08746,42.91509 -2.9914,-1.25451 -5.91788,-3.657 -4.37937,-7.18616 0,-42.88881 0,-85.77763 0,-128.66643 1.44633,0.80807 2.89266,1.61614 4.33899,2.42422 z m -33.79685,4.3736 c 0.25825,42.17608 -0.0717,84.35248 -0.12304,126.52865 -7.87851,4.99873 -15.62346,10.12766 -23.65011,14.88946 C 170.61637,248.83642 132.305,226.1098 94.075875,203.2057 140.16547,176.34166 186.41982,149.76086 232.81215,123.42359 c 0.016,2.16405 0.032,4.32811 0.0481,6.49216 z m 209.59817,33.7757 c -7.49878,10.54034 -13.58995,22.66399 -23.40102,31.13272 -41.08055,24.28521 -82.13606,48.59528 -123.25579,72.8128 7.08461,-10.85912 13.05597,-22.96483 21.35881,-32.71012 41.95907,-24.03657 83.84553,-48.18591 125.87282,-72.09858 l -0.54558,0.81926 z m -20.81064,81.90066 c 0.13051,42.42561 -0.13053,84.851 -0.18647,127.27649 -53.03912,31.14248 -106.04472,62.33841 -159.1432,93.37198 0,-48.23965 0,-96.47931 0,-144.71897 53.06836,-31.06961 106.06924,-62.25589 159.24701,-93.13936 0.0276,5.73662 0.0551,11.47324 0.0827,17.20986 z M 94.223904,237.19096 c 46.330146,27.98744 92.610686,56.05585 138.899686,84.11149 -0.0173,48.17045 0.0564,96.34107 -0.10573,144.51135 -51.02959,-30.82975 -102.03319,-61.70248 -153.043232,-92.56455 0.03954,-48.18708 -0.169232,-96.37477 0.138416,-144.56134 4.70362,2.83435 9.40724,5.6687 14.11086,8.50305 z M 248.60324,282.0112 c 1.14848,1.43058 4.30449,1.49035 1.68023,3.61423 -2.27765,2.36818 -3.56971,9.66898 -7.41487,6.02688 -7.27418,-2.42018 -5.95584,-5.11631 0.50694,-7.83183 1.71886,-0.50578 3.52666,-3.70249 5.2277,-1.80928 z"
     id="path833"
     inkscape:connector-curvature="0" /></svg>