<?xml version="1.0" encoding="UTF-8" standalone="no"?>
<!-- Generator: Adobe Illustrator 19.2.1, SVG Export Plug-In . SVG Version: 6.00 Build 0)  -->

<svg
   xmlns:dc="http://purl.org/dc/elements/1.1/"
   xmlns:cc="http://creativecommons.org/ns#"
   xmlns:rdf="http://www.w3.org/1999/02/22-rdf-syntax-ns#"
   xmlns:svg="http://www.w3.org/2000/svg"
   xmlns="http://www.w3.org/2000/svg"
   xmlns:sodipodi="http://sodipodi.sourceforge.net/DTD/sodipodi-0.dtd"
   xmlns:inkscape="http://www.inkscape.org/namespaces/inkscape"
   version="1.1"
   id="Layer_1"
   x="0px"
   y="0px"
   viewBox="0 0 512 512"
   style="enable-background:new 0 0 512 512;"
   xml:space="preserve"
   sodipodi:docname="packageNew.svg"
   inkscape:version="0.92.3 (2405546, 2018-03-11)"><metadata
     id="metadata4582"><rdf:RDF><cc:Work
         rdf:about=""><dc:format>image/svg+xml</dc:format><dc:type
           rdf:resource="http://purl.org/dc/dcmitype/StillImage" /><dc:title /></cc:Work></rdf:RDF></metadata><defs
     id="defs4580" /><sodipodi:namedview
     pagecolor="#ffffff"
     bordercolor="#666666"
     borderopacity="1"
     objecttolerance="10"
     gridtolerance="10"
     guidetolerance="10"
     inkscape:pageopacity="0"
     inkscape:pageshadow="2"
     inkscape:window-width="958"
     inkscape:window-height="1049"
     id="namedview4578"
     showgrid="false"
     inkscape:pagecheckerboard="true"
     inkscape:zoom="1.2705825"
     inkscape:cx="248.07687"
     inkscape:cy="82.472525"
     inkscape:window-x="1920"
     inkscape:window-y="0"
     inkscape:window-maximized="0"
     inkscape:current-layer="Layer_1"
     inkscape:snap-global="false" /><style
     type="text/css"
     id="style4569">
	.st0{fill:#ffffff;}
</style><path
     style="fill:#000000;stroke-width:1"
     d="M 203.12891 19.003906 L 105.25 77.753906 L 7.3710938 136.50781 L 6.6855469 255.41992 L 6 374.33594 L 104.16602 433.55664 C 158.15803 466.12852 202.54221 492.87622 202.79883 492.99609 C 203.01572 493.09745 235.67345 473.67984 278.46875 448.04492 L 278.46875 424.19336 L 254.18359 424.19336 C 246.48547 428.81062 233.85987 436.38105 232.20312 437.37695 L 222.09375 443.45508 L 222.09375 354.09766 L 222.09375 264.73828 L 293.88867 221.82812 C 333.37543 198.22622 366.5714 178.42661 367.6582 177.83008 C 367.96406 177.6622 368.24982 181.03191 368.50781 186.58984 L 400.2207 186.58984 L 399.93359 136.79297 L 301.53125 77.898438 L 203.12891 19.003906 z M 203.53711 57.863281 L 231.35547 74.328125 C 246.65639 83.383982 258.83436 91.090702 258.41797 91.453125 C 258.0016 91.815572 223.99048 111.22635 182.83789 134.58594 C 141.68529 157.94556 107.30557 177.05557 106.43555 177.05273 C 104.58058 177.04673 61.043536 151.17909 57.978516 148.26172 C 56.831263 147.16972 89.112558 126.38121 129.71484 102.06836 L 203.53711 57.863281 z M 288.08789 108.38672 L 319.59961 127.22852 C 336.93124 137.59199 350.5302 147.01426 349.81836 148.16602 C 349.10654 149.31778 317.62577 168.87122 279.85938 191.61719 C 242.09293 214.36318 209.19953 233.45859 206.76367 234.05273 C 204.32778 234.64684 187.7243 226.36 169.86719 215.63672 L 137.40039 196.14062 L 212.74414 152.26172 L 288.08789 108.38672 z M 39.177734 177.05664 C 40.007724 177.05664 51.243065 183.28113 64.144531 190.88867 L 87.601562 204.71875 L 87.664062 230.19141 L 87.726562 255.66016 L 101.56055 263.6543 L 115.39062 271.64844 L 116.14844 248.06445 C 116.56508 235.09322 117.6844 224.47852 118.63477 224.47852 C 119.58514 224.47852 135.54406 233.50844 154.10156 244.54297 L 187.84375 264.60547 L 187.84375 353.88086 C 187.84375 402.98209 186.95398 443.10789 185.86719 443.04883 C 184.7804 442.98993 150.99059 423.13238 110.7793 398.92188 L 37.667969 354.90234 L 37.667969 265.98047 C 37.667969 217.07259 38.347762 177.05664 39.177734 177.05664 z "
     id="path4690" /><path
     inkscape:connector-curvature="0"
     id="path869"
     d="m 368.951,330.10294 c -29.93219,0.0393 -59.86438,0.0786 -89.79658,0.11792 0,10.46075 0,20.9215 0,31.38225 29.9322,0 59.86439,0 89.79658,0 0,29.94412 0,59.88821 0,89.83232 10.45957,0 20.91913,0 31.37869,0 0,-29.94411 0,-59.8882 0,-89.83232 29.94411,0 59.8882,0 89.8323,0 0,-10.45955 0,-20.91911 0,-31.37867 -29.9441,0 -59.88819,0 -89.8323,0 0,-29.93219 0,-59.8644 0,-89.79659 -10.45956,0 -20.91912,0 -31.37869,0 0,29.8917 0,59.7834 0,89.67509 z"
     style="fill:#000000;stroke-width:0.99999046" /></svg>