<?xml version="1.0" encoding="UTF-8" standalone="no"?>
<!-- Generator: Adobe Illustrator 19.2.1, SVG Export Plug-In . SVG Version: 6.00 Build 0)  -->

<svg
   xmlns:dc="http://purl.org/dc/elements/1.1/"
   xmlns:cc="http://creativecommons.org/ns#"
   xmlns:rdf="http://www.w3.org/1999/02/22-rdf-syntax-ns#"
   xmlns:svg="http://www.w3.org/2000/svg"
   xmlns="http://www.w3.org/2000/svg"
   xmlns:sodipodi="http://sodipodi.sourceforge.net/DTD/sodipodi-0.dtd"
   xmlns:inkscape="http://www.inkscape.org/namespaces/inkscape"
   version="1.1"
   id="Layer_1"
   x="0px"
   y="0px"
   viewBox="0 0 512 512"
   style="enable-background:new 0 0 512 512;"
   xml:space="preserve"
   sodipodi:docname="panama.svg"
   inkscape:version="0.92.3 (2405546, 2018-03-11)"><metadata
     id="metadata4385"><rdf:RDF><cc:Work
         rdf:about=""><dc:format>image/svg+xml</dc:format><dc:type
           rdf:resource="http://purl.org/dc/dcmitype/StillImage" /><dc:title></dc:title></cc:Work></rdf:RDF></metadata><defs
     id="defs4383" /><sodipodi:namedview
     pagecolor="#ffffff"
     bordercolor="#666666"
     borderopacity="1"
     objecttolerance="10"
     gridtolerance="10"
     guidetolerance="10"
     inkscape:pageopacity="0"
     inkscape:pageshadow="2"
     inkscape:window-width="958"
     inkscape:window-height="1049"
     id="namedview4381"
     showgrid="false"
     inkscape:pagecheckerboard="true"
     inkscape:zoom="0.65186405"
     inkscape:cx="140.68942"
     inkscape:cy="228.32882"
     inkscape:window-x="1920"
     inkscape:window-y="0"
     inkscape:window-maximized="0"
     inkscape:current-layer="Layer_1"
     inkscape:snap-object-midpoints="true" /><style
     type="text/css"
     id="style4376">
	.st0{fill:#000000;}
</style><g
     id="g877"
     transform="translate(-1.2558326,1.7802237e-6)"><path
       inkscape:connector-curvature="0"
       id="path846"
       d="m 506.32125,500.63225 c 0,-21.64203 -33.13896,-45.53271 -79.66257,-57.43061 -11.4062,-2.91703 -21.15189,-5.71699 -21.65705,-6.22217 -0.50516,-0.50517 1.09954,-9.04643 3.566,-18.98061 5.59665,-22.5416 6.43267,-95.49529 1.40741,-122.81588 -9.20631,-50.0514 -36.10523,-103.99988 -69.53207,-139.45352 l -12.96293,-13.74894 h 10.5122 c 16.91641,0 55.43042,7.3793 76.83183,14.72096 37.88807,12.99735 54.16338,31.04018 51.46174,57.05055 l -1.38567,13.34097 7.79533,-16.25417 c 20.79739,-43.36513 0.89838,-97.2757 -43.38367,-117.535576 -19.44135,-8.894735 -44.57309,-11.00911 -62.97655,-5.298243 -7.13461,2.213958 -13.35507,3.642333 -13.82323,3.174168 -0.46818,-0.468181 6.54771,-6.941329 15.59087,-14.384762 39.52586,-32.533965 72.43798,-37.592972 97.17287,-14.936721 11.59236,10.618204 11.87112,9.497286 1.94278,-7.812332 C 431.45451,-8.3074742 339.48706,-3.143531 309.03118,62.927563 l -6.41469,13.916034 -1.813,-18.053116 c -1.89024,-18.822037 1.08715,-36.201659 8.06849,-47.09749 5.25524,-8.2018876 0.40678,-7.5129994 -13.24915,1.882522 -14.92375,10.267815 -24.26891,21.69449 -27.472,33.590963 l -2.61208,9.701584 h -19.06226 c -15.88123,0 -21.68435,1.300728 -34.7753,7.794673 l -15.71308,7.794658 13.45875,1.704615 c 7.4023,0.937526 19.688,5.090052 27.30154,9.22784 l 13.84279,7.523197 -18.29556,1.845145 c -23.55667,2.375718 -39.75929,9.453272 -55.63309,24.301392 -18.76474,17.55221 -27.63057,38.61275 -27.57899,65.51305 0.0309,16.12261 1.43259,24.10024 6.08219,34.61724 8.22841,18.61194 13.28192,22.68217 10.71187,8.62769 -2.23602,-12.22786 0.0129,-26.86659 5.8362,-38.00724 10.64146,-20.35462 44.12153,-43.23153 68.79467,-47.00735 9.11984,-1.39563 9.81987,-1.16901 5.40963,1.75139 -23.69981,15.6935 -41.58633,43.05925 -44.7632,68.48602 -3.39695,27.18831 11.91978,64.35805 32.91759,79.88238 11.55424,8.54244 34.13949,18.61005 41.79038,18.62847 6.50954,0.0161 6.50199,-0.0129 -1.30942,-4.83713 -13.88801,-8.57856 -17.93495,-15.20179 -19.08498,-31.23473 -1.81328,-25.27901 11.13106,-56.27295 43.36503,-103.83333 7.87211,-11.61513 14.77492,-21.62162 15.33955,-22.23663 3.94079,-4.29248 30.05322,48.80211 38.55378,78.39174 9.27695,32.29202 13.22285,68.81622 11.29135,104.51552 -1.92276,35.53782 -6.33148,53.84488 -20.03721,83.204 -9.57086,20.50176 -10.44982,21.51114 -20.07694,23.05598 -66.97465,10.74707 -106.75457,32.36128 -112.50848,61.1308 l -1.6585,8.29254 h 148.2921 c 147.74382,0 148.29209,-0.0209 148.29209,-5.36774 z"
       style="fill:#000000;stroke-width:0.99999994" /><g
       transform="matrix(3.3816069,0,0,3.3816069,-335.82059,-1020.4012)"
       id="text869"
       style="font-style:normal;font-weight:normal;font-size:40px;line-height:1.25;font-family:sans-serif;letter-spacing:0px;word-spacing:0px;fill:#000000;fill-opacity:1;stroke:none;stroke-width:0.29571739"
       aria-label="$"><path
         inkscape:connector-curvature="0"
         id="path871"
         style="font-style:normal;font-variant:normal;font-weight:bold;font-stretch:normal;font-size:96px;font-family:'Josefin Slab';-inkscape-font-specification:'Josefin Slab Bold';stroke-width:0.29571739"
         d="m 132.83404,379.81276 v -5.664 q -1.344,-0.576 -2.88,-1.056 -1.44,-0.48 -3.264,-0.672 v 21.6 q 3.072,1.056 6.144,2.4 3.072,1.344 5.472,3.552 2.496,2.208 3.936,5.664 1.536,3.456 1.536,8.64 0,3.936 -1.344,7.2 -1.344,3.168 -3.648,5.568 -2.304,2.4 -5.472,3.936 -3.072,1.44 -6.624,1.824 v 5.952 h -8.064 v -6.24 q -5.76,-0.864 -10.272,-3.456 -4.512,-2.592 -6.624,-5.76 v -11.136 h 7.584 v 8.544 q 1.92,1.44 4.224,2.592 2.304,1.152 5.088,1.728 v -25.728 q -2.784,-0.864 -5.28,-2.016 -2.496,-1.152 -4.512,-2.976 -1.92,-1.92 -3.168,-4.704 -1.152,-2.784 -1.248,-7.008 -0.096,-2.688 0.576,-5.472 0.768,-2.88 2.496,-5.28 1.728,-2.496 4.416,-4.224 2.784,-1.824 6.72,-2.592 v -6.144 h 8.064 v 5.952 q 3.072,0.288 6.528,1.44 3.552,1.152 7.2,4.128 v 9.408 z m 2.976,34.368 q 0,-2.688 -0.768,-4.608 -0.672,-2.016 -1.92,-3.456 -1.152,-1.44 -2.88,-2.4 -1.632,-1.056 -3.552,-1.824 v 23.136 q 3.84,-0.864 6.432,-3.552 2.688,-2.688 2.688,-7.296 z m -23.424,-31.296 q 0,3.264 1.728,5.184 1.728,1.824 4.512,3.168 v -18.144 q -3.168,1.248 -4.704,3.936 -1.536,2.592 -1.536,5.856 z" /></g></g></svg>