<?xml version="1.0" encoding="UTF-8" standalone="no"?>
<!-- Created with Inkscape (http://www.inkscape.org/) -->

<svg
   xmlns:dc="http://purl.org/dc/elements/1.1/"
   xmlns:cc="http://creativecommons.org/ns#"
   xmlns:rdf="http://www.w3.org/1999/02/22-rdf-syntax-ns#"
   xmlns:svg="http://www.w3.org/2000/svg"
   xmlns="http://www.w3.org/2000/svg"
   xmlns:sodipodi="http://sodipodi.sourceforge.net/DTD/sodipodi-0.dtd"
   xmlns:inkscape="http://www.inkscape.org/namespaces/inkscape"
   width="512"
   height="512"
   version="1.1"
   id="svg8"
   sodipodi:docname="paste.svg"
   inkscape:version="0.92.2 (5c3e80d, 2017-08-06)">
  <metadata
     id="metadata823">
    <rdf:RDF>
      <cc:Work
         rdf:about="">
        <dc:format>image/svg+xml</dc:format>
        <dc:type
           rdf:resource="http://purl.org/dc/dcmitype/StillImage" />
        <dc:title></dc:title>
      </cc:Work>
    </rdf:RDF>
  </metadata>
  <defs
     id="defs821" />
  <sodipodi:namedview
     pagecolor="#ffffff"
     bordercolor="#666666"
     borderopacity="1"
     objecttolerance="10"
     gridtolerance="10"
     guidetolerance="10"
     inkscape:pageopacity="0"
     inkscape:pageshadow="2"
     inkscape:window-width="958"
     inkscape:window-height="1010"
     id="namedview819"
     showgrid="false"
     inkscape:pagecheckerboard="true"
     inkscape:zoom="0.9140625"
     inkscape:cx="273.04293"
     inkscape:cy="401.67306"
     inkscape:window-x="0"
     inkscape:window-y="0"
     inkscape:window-maximized="0"
     inkscape:current-layer="svg8" />
  <g
     id="g1639"
     transform="matrix(0.97651358,0,0,0.97651358,-60.779057,6.0118014)"
     style="stroke-width:1.02405131">
    <path
       id="path1623"
       d="m 255.9082,6.0019531 c -12.65876,-0.0372 -16.35024,0.8080996 -27.53125,6.3124999 -18.85278,9.28119 -31.1505,26.017107 -34.05273,46.341797 l -1.32031,9.234375 -46.46485,0.96875 -46.46484,0.96875 -9.246095,5.435547 c -10.61322,6.23859 -17.689431,15.945147 -20.744141,28.460938 -1.48879,6.09969 -1.959496,62.79745 -1.566406,188.85742 0.53462,171.44611 0.737248,180.46765 4.173828,186.91992 7.06102,13.25721 17.856016,22.0075 31.255864,25.33594 3.19607,0.79388 73.36319,1.30208 155.92773,1.12891 149.81274,-0.31406 150.13495,-0.32373 157.86719,-4.4961 9.06606,-4.89208 16.51254,-12.48003 21.5664,-21.96875 2.97071,-5.57758 3.52406,-13.56579 3.96485,-126.24218 h -45.95117 c -0.20021,76.05208 -0.83154,103.13621 -2.2461,104.55078 -3.36275,3.36274 -274.78959,3.36274 -278.15234,0 -1.77235,-1.77236 -2.32227,-42.47091 -2.32227,-171.35743 0,-167.03898 0.0453,-169.05699 3.87305,-171.10546 1.68565,-0.90212 7.70766,-1.48514 15.47461,-1.58594 2.58897,-0.0335 5.37366,-0.0153 8.2539,0.0645 l 19.85352,0.55274 0.50781,20.33789 c 0.44876,17.93341 0.99087,20.7396 4.57422,23.72851 3.7343,3.11482 10.94207,3.38867 88.86328,3.38867 77.92121,0 85.12898,-0.27385 88.86328,-3.38867 3.58335,-2.98891 4.12156,-5.7951 4.57032,-23.72851 l 0.50976,-20.33789 19.85547,-0.55274 c 11.52099,-0.32031 21.48102,0.31865 23.72852,1.52149 3.2078,1.71677 3.75104,4.73396 3.8457,103.56445 h 46.23242 c 1.8e-4,-74.6384 -0.53463,-110.44799 -1.6914,-115.1875 C 438.86131,91.208819 431.7851,81.502262 421.17188,75.263672 l -9.24219,-5.435547 -46.33594,-0.96875 -46.33594,-0.96875 -2.18359,-10.654297 C 310.60968,25.687218 287.21538,6.0941531 255.9082,6.0019531 Z m 0.0938,38.6445309 c 9.0538,0 10.59765,0.676192 16.61133,7.238282 5.43896,5.93492 6.63281,8.75976 6.63281,15.71875 0,10.06607 -5.28063,17.853615 -14.79297,21.828125 -7.78016,3.25074 -9.69934,3.242158 -17.33398,-0.08203 -9.16535,-3.99061 -14.36133,-11.858473 -14.36133,-21.746093 2e-5,-6.95899 1.19386,-9.785784 6.63281,-15.720704 6.01369,-6.562089 7.55755,-7.236328 16.61133,-7.236328 z"
       style="fill:#ffffff;stroke-width:1.02405119"
       inkscape:connector-curvature="0" />
    <path
       style="fill:#ffffff;stroke-width:1.02405131"
       d="m 530.6358,236.18015 49.77503,49.77716 -49.90533,49.90533 -49.90533,49.90533 v -33.2269 -33.2269 H 397.2063 313.81244 v -33.35754 -33.35755 h 83.39001 83.39 l 0.13416,-33.09805 0.13416,-33.09805 z"
       id="path1660"
       inkscape:connector-curvature="0" />
  </g>
</svg>
