<?xml version="1.0" encoding="UTF-8" standalone="no"?>
<!-- Generator: Adobe Illustrator 19.2.1, SVG Export Plug-In . SVG Version: 6.00 Build 0)  -->

<svg
   xmlns:dc="http://purl.org/dc/elements/1.1/"
   xmlns:cc="http://creativecommons.org/ns#"
   xmlns:rdf="http://www.w3.org/1999/02/22-rdf-syntax-ns#"
   xmlns:svg="http://www.w3.org/2000/svg"
   xmlns="http://www.w3.org/2000/svg"
   xmlns:sodipodi="http://sodipodi.sourceforge.net/DTD/sodipodi-0.dtd"
   xmlns:inkscape="http://www.inkscape.org/namespaces/inkscape"
   version="1.1"
   id="Layer_1"
   x="0px"
   y="0px"
   viewBox="0 0 512 512"
   style="enable-background:new 0 0 512 512;"
   xml:space="preserve"
   sodipodi:docname="pivot.svg"
   inkscape:version="0.92.3 (2405546, 2018-03-11)"><metadata
     id="metadata4582"><rdf:RDF><cc:Work
         rdf:about=""><dc:format>image/svg+xml</dc:format><dc:type
           rdf:resource="http://purl.org/dc/dcmitype/StillImage" /><dc:title></dc:title></cc:Work></rdf:RDF></metadata><defs
     id="defs4580" /><sodipodi:namedview
     pagecolor="#ffffff"
     bordercolor="#666666"
     borderopacity="1"
     objecttolerance="10"
     gridtolerance="10"
     guidetolerance="10"
     inkscape:pageopacity="0"
     inkscape:pageshadow="2"
     inkscape:window-width="958"
     inkscape:window-height="1049"
     id="namedview4578"
     showgrid="false"
     inkscape:pagecheckerboard="true"
     inkscape:zoom="1.2705825"
     inkscape:cx="119.32071"
     inkscape:cy="228.32782"
     inkscape:window-x="2880"
     inkscape:window-y="0"
     inkscape:window-maximized="0"
     inkscape:current-layer="Layer_1" /><style
     type="text/css"
     id="style4569">
	.st0{fill:#ffffff;}
</style><path
     style="font-style:normal;font-variant:normal;font-weight:bold;font-stretch:normal;font-size:192px;line-height:1.25;font-family:'Josefin sans';-inkscape-font-specification:'Josefin sans Bold';font-variant-ligatures:normal;font-variant-caps:normal;font-variant-numeric:normal;font-feature-settings:normal;text-align:start;letter-spacing:0px;word-spacing:0px;writing-mode:lr-tb;text-anchor:start;fill:#ffffff;fill-opacity:1;stroke:none;stroke-width:1"
     d="M 155.40035,5.9999925 V 218.39267 h 83.67639 V 84.876093 h 67.90114 c 17.8328,0 32.46167,2.9725 43.89295,8.91676 11.43128,5.94427 20.34868,13.255217 26.7502,21.942997 6.85877,8.68777 11.43071,18.06514 13.71697,28.12467 2.74351,9.60228 4.11651,18.05971 4.11651,25.37574 0,7.77327 -1.373,16.69067 -4.11651,26.7502 -2.74351,9.60228 -7.54197,18.97268 -14.40074,28.1177 -6.85877,8.68778 -16.00265,16.00577 -27.43393,21.94996 -11.43129,5.94427 -25.84063,8.91676 -43.21618,8.91676 H 118.82699 v -47.06752 l -85.95789,85.95789 85.95789,85.95789 v -45.97212 h 190.20913 c 31.55034,0 58.0691,-4.79846 79.55991,-14.40073 21.49081,-10.05953 38.86561,-22.86243 52.1259,-38.40898 13.71754,-16.00379 23.54794,-33.8386 29.49221,-53.5004 5.94427,-20.11906 8.91676,-40.23983 8.91676,-60.35889 0,-25.14883 -4.34546,-47.78212 -13.03324,-67.901187 C 457.40989,79.157773 445.067,62.242943 429.0632,48.525403 413.51666,34.807863 394.30885,24.290973 371.44628,16.974953 349.04097,9.6589325 324.12173,5.9999925 296.68665,5.9999925 Z m 0,364.3205675 v 135.67945 h 83.67639 V 370.32056 Z"
     id="path848"
     inkscape:connector-curvature="0"
     sodipodi:nodetypes="ccccssccscccscccccscccssccscccccc" /></svg>