<?xml version="1.0" encoding="UTF-8" standalone="no"?>
<!-- Generator: Adobe Illustrator 19.2.1, SVG Export Plug-In . SVG Version: 6.00 Build 0)  -->

<svg
   xmlns:dc="http://purl.org/dc/elements/1.1/"
   xmlns:cc="http://creativecommons.org/ns#"
   xmlns:rdf="http://www.w3.org/1999/02/22-rdf-syntax-ns#"
   xmlns:svg="http://www.w3.org/2000/svg"
   xmlns="http://www.w3.org/2000/svg"
   xmlns:sodipodi="http://sodipodi.sourceforge.net/DTD/sodipodi-0.dtd"
   xmlns:inkscape="http://www.inkscape.org/namespaces/inkscape"
   version="1.1"
   id="Layer_1"
   x="0px"
   y="0px"
   viewBox="0 0 512 512"
   style="enable-background:new 0 0 512 512;"
   xml:space="preserve"
   sodipodi:docname="politics.svg"
   inkscape:version="0.92.3 (2405546, 2018-03-11)"><metadata
     id="metadata4385"><rdf:RDF><cc:Work
         rdf:about=""><dc:format>image/svg+xml</dc:format><dc:type
           rdf:resource="http://purl.org/dc/dcmitype/StillImage" /><dc:title></dc:title></cc:Work></rdf:RDF></metadata><defs
     id="defs4383" /><sodipodi:namedview
     pagecolor="#ffffff"
     bordercolor="#666666"
     borderopacity="1"
     objecttolerance="10"
     gridtolerance="10"
     guidetolerance="10"
     inkscape:pageopacity="0"
     inkscape:pageshadow="2"
     inkscape:window-width="958"
     inkscape:window-height="1049"
     id="namedview4381"
     showgrid="false"
     inkscape:pagecheckerboard="true"
     inkscape:zoom="0.65186405"
     inkscape:cx="256.16081"
     inkscape:cy="87.243455"
     inkscape:window-x="1920"
     inkscape:window-y="0"
     inkscape:window-maximized="0"
     inkscape:current-layer="Layer_1"
     inkscape:snap-object-midpoints="true" /><style
     type="text/css"
     id="style4376">
	.st0{fill:#000000;}
</style><path
     style="fill:#000000;stroke-width:1"
     d="M 39.318973,489.33223 V 472.66445 H 55.986748 72.654519 V 455.99668 439.32891 H 256 439.34549 v 16.66777 16.66777 h 16.66777 16.66777 V 489.33223 506 H 256 39.318973 Z M 105.99006,322.65451 v -83.33885 h 16.66777 16.66778 v 83.33885 83.33886 h -16.66778 -16.66777 z m 66.67109,0 v -83.33885 h 16.66777 16.66777 v 83.33885 83.33886 h -16.66777 -16.66777 z m 66.67108,0 V 239.31566 H 256 272.66777 v 83.33885 83.33886 H 256 239.33223 Z m 66.67109,0 v -83.33885 h 16.66777 16.66777 v 83.33885 83.33886 h -16.66777 -16.66777 z m 66.67108,0 v -83.33885 h 16.66777 16.66777 v 83.33885 83.33886 H 389.34217 372.6744 Z M 72.654519,189.31234 V 172.64457 H 256 439.34549 v 16.66777 16.66778 H 256 72.654519 Z M 39.553602,122.55542 39.839841,105.8018 147.93723,55.9009 256.03461,6 l 108.06278,49.91191 108.06277,49.9119 0.28624,16.74261 0.28624,16.74261 H 256 39.267362 Z"
     id="path863"
     inkscape:connector-curvature="0" /></svg>