<?xml version="1.0" encoding="UTF-8" standalone="no"?>
<!-- Created with Inkscape (http://www.inkscape.org/) -->

<svg
   xmlns="http://www.w3.org/2000/svg"
   width="512"
   height="512"
   version="1.1"
   id="svg8">
  <g
     id="layer1"
     transform="translate(0,-579.25001)">
    <path
       d="m 97.96981,585.25002 c 0,0 -1.35075,5.03122 -2.61842,13.82446 -0.68265,4.34147 -1.11656,9.74085 -1.49129,15.87525 -0.36844,6.03043 -0.48442,13.01459 -0.30518,20.33081 0.16655,7.52414 0.61952,15.48448 1.45671,23.98885 0.57774,4.20972 0.93598,8.61533 1.61133,12.93538 0.38649,2.21518 0.66761,4.42524 1.04777,6.74439 0.38015,2.31915 0.77339,4.42726 1.15357,6.74641 0.38017,2.31915 0.96869,4.6531 1.34887,6.97225 0.4841,2.3255 0.96831,4.65057 1.5564,6.98243 1.17615,4.66372 2.24091,9.42469 3.73535,14.0035 1.28014,4.67008 2.76204,9.45657 4.34774,14.24968 1.48174,4.78674 3.18,9.48269 5.09033,14.0869 3.60637,9.29969 7.53034,18.51499 11.88355,27.54721 1.1143,2.25966 2.13052,4.40921 3.34879,6.67521 1.1143,2.25965 2.23399,4.41395 3.361,6.46566 2.2413,4.31135 4.70384,8.42844 7.15943,12.64852 1.23097,2.05804 2.57127,4.01923 3.80859,5.9733 1.23733,1.95409 2.47544,3.90709 3.81673,5.86752 2.58498,3.81053 5.17846,7.5178 7.76978,11.22437 5.19533,7.20518 10.32309,13.77994 15.39306,19.62076 1.26909,1.43422 2.53138,2.97253 3.80046,4.40674 1.26907,1.43421 2.55147,2.65943 3.82691,3.98967 2.34928,2.54381 4.80829,4.99068 6.95597,7.4178 1.09689,1.0781 2.06511,1.98915 3.10262,2.98869 l -79.20532,79.3986 C 193.32161,912.08776 311.81658,907.9511 402.26262,915.3546 338.4807,850.72039 265.50318,757.24288 230.47916,677.98073 l -7.8125,87.33928 c -1.63902,-2.15112 -3.30442,-4.31378 -4.95402,-6.50838 -2.21353,-3.05733 -4.641,-6.022 -6.9458,-9.29362 -2.20083,-3.26526 -4.71854,-6.447 -7.01701,-9.82259 -2.29845,-3.37559 -4.80627,-6.76418 -7.09839,-10.24374 -2.29211,-3.47956 -4.90192,-6.87358 -7.29166,-10.46346 -1.24366,-1.8501 -2.4998,-3.4925 -3.74349,-5.3426 -1.24366,-1.85012 -2.49371,-3.59629 -3.73739,-5.44638 l -3.73941,-5.44638 c -1.24368,-1.85011 -2.49168,-3.59627 -3.73536,-5.44636 -1.24368,-1.85011 -2.49371,-3.59628 -3.73738,-5.44638 -1.24367,-1.85011 -2.49371,-3.59626 -3.73739,-5.44636 -4.87073,-7.39405 -9.65101,-14.57383 -14.3392,-21.53931 -4.77947,-7.17977 -9.37624,-13.9323 -13.77156,-20.56681 -4.38897,-6.73848 -8.70597,-12.94852 -12.63224,-18.71949 -3.91991,-5.87492 -7.75898,-11.32837 -11.11857,-16.12549 -3.35324,-4.90107 -6.44207,-9.05659 -8.8318,-12.64648 -2.50005,-3.49226 -4.6198,-6.33425 -5.96109,-8.29468 -1.43257,-2.17472 -2.305091,-3.27148 -2.30509,-3.27148 z m 201.36352,0 v 66.66667 H 439.33334 V 1018.5834 H 72.666659 V 828.58336 H 5.9999905 V 1085.25 H 506.00001 V 585.25002 Z"
       id="rect827"
       style="fill:#000000"/>
  </g>
</svg>
