<?xml version="1.0" encoding="UTF-8" standalone="no"?>
<!-- Generator: Adobe Illustrator 21.1.0, SVG Export Plug-In . SVG Version: 6.00 Build 0)  -->

<svg
   xmlns:dc="http://purl.org/dc/elements/1.1/"
   xmlns:cc="http://creativecommons.org/ns#"
   xmlns:rdf="http://www.w3.org/1999/02/22-rdf-syntax-ns#"
   xmlns:svg="http://www.w3.org/2000/svg"
   xmlns="http://www.w3.org/2000/svg"
   xmlns:sodipodi="http://sodipodi.sourceforge.net/DTD/sodipodi-0.dtd"
   xmlns:inkscape="http://www.inkscape.org/namespaces/inkscape"
   version="1.1"
   id="Layer_1"
   inkscape:version="0.92.3 (2405546, 2018-03-11)"
   sodipodi:docname="prefab.svg"
   x="0px"
   y="0px"
   viewBox="0 0 512 512"
   style="enable-background:new 0 0 512 512;"
   xml:space="preserve"><metadata
   id="metadata153"><rdf:RDF><cc:Work
       rdf:about=""><dc:format>image/svg+xml</dc:format><dc:type
         rdf:resource="http://purl.org/dc/dcmitype/StillImage" /><dc:title></dc:title></cc:Work></rdf:RDF></metadata><defs
   id="defs151" />
<style
   type="text/css"
   id="style139">
	.st0{display:none;fill:#EFEAEA;}
	.st1{fill:none;stroke:#000000;stroke-width:89;stroke-miterlimit:10;}
	.st2{fill:#262626;}
</style>
<path
   class="st0"
   d="M419,501.3H90.1c-48.3,0-87.8-39.5-87.8-87.8V100c0-48.3,39.5-87.8,87.8-87.8H419c48.3,0,87.8,39.5,87.8,87.8  v313.5C506.8,461.8,467.3,501.3,419,501.3z"
   id="path141" />
<sodipodi:namedview
   bordercolor="#666666"
   borderopacity="1"
   gridtolerance="10"
   guidetolerance="10"
   id="namedview4578"
   inkscape:current-layer="Layer_1"
   inkscape:cx="-19.737317"
   inkscape:cy="340.66684"
   inkscape:pagecheckerboard="true"
   inkscape:pageopacity="0"
   inkscape:pageshadow="2"
   inkscape:snap-intersection-paths="true"
   inkscape:snap-object-midpoints="true"
   inkscape:window-height="1049"
   inkscape:window-maximized="0"
   inkscape:window-width="958"
   inkscape:window-x="1920"
   inkscape:window-y="0"
   inkscape:zoom="0.31764563"
   objecttolerance="10"
   pagecolor="#ffffff"
   showgrid="false"
   inkscape:snap-bbox="false"
   inkscape:snap-bbox-midpoints="false">
	</sodipodi:namedview>



<path
   style="fill:#000000;stroke-width:1"
   d="m 235.99075,497.39658 c -39.41757,-2.8935 -80.99828,-16.34691 -114.43941,-37.02677 -4.89459,-3.02686 -9.3963,-5.92586 -10.0038,-6.44235 -0.6075,-0.5165 -3.87156,-2.85419 -7.25348,-5.19478 -7.199594,-4.98299 -17.99296,-14.33555 -27.90971,-24.184 -7.765683,-7.71223 -19.732714,-21.13103 -20.363504,-22.83378 -0.220894,-0.59623 -1.26361,-2.00496 -2.317151,-3.13049 -1.053541,-1.12553 -2.881736,-3.62198 -4.062655,-5.54771 -1.180919,-1.92573 -2.70886,-4.07845 -3.395421,-4.78362 C 42.866584,384.78186 27.986286,357.14815 23.204428,345.46391 19.017956,335.23449 13.510141,317.46415 11.438183,307.50149 6.2069742,282.34816 4.5693112,251.1522 7.3158062,228.97428 13.441905,179.50603 33.491219,134.85973 65.921681,98.469222 95.465366,65.317996 132.2655,41.155188 174.96754,26.870176 c 23.42532,-7.83641 44.86119,-11.614827 71.5272,-12.607805 37.07918,-1.380745 74.45298,5.221416 108.54127,19.174042 9.16786,3.752486 27.69081,13.152461 32.67583,16.582245 2.3092,1.588764 4.44191,2.888678 4.73934,2.888678 0.56494,0 9.73223,6.096089 10.60309,7.050862 0.27511,0.301614 2.07579,1.620156 4.00152,2.930094 13.36383,9.090456 39.46005,34.094124 47.00801,45.039968 1.32793,1.92573 2.66376,3.72641 2.9685,4.00152 4.28248,3.86599 18.70315,27.05974 25.2202,40.56333 6.62317,13.72348 7.04353,14.73931 11.39887,27.54587 15.34962,45.13441 16.43862,97.00737 2.99097,142.47086 -3.24903,10.98426 -4.34666,14.19144 -7.86535,22.98188 -4.1889,10.46478 -21.0395,41.63483 -23.5373,43.53896 -0.36411,0.2775 -2.46271,3.18161 -4.66354,6.45345 -8.08809,12.02397 -21.92844,27.13932 -35.64598,38.92961 -13.24756,11.38643 -13.30216,11.43054 -19.37495,15.66125 -2.75104,1.91663 -5.22698,3.74032 -5.50209,4.05284 -0.2751,0.31242 -4.62867,3.10698 -9.67459,6.20996 -40.58148,24.95629 -87.56856,38.09139 -134.37405,37.56409 -8.53162,-0.096 -17.5378,-0.32353 -20.01374,-0.5053 z m 40.04145,-60.35845 c 17.53018,-2.1004 38.3905,-7.33749 52.37609,-13.1493 8.37882,-3.48182 23.61858,-11.12653 23.61307,-11.8449 -0.002,-0.27511 -1.47666,-2.07579 -3.27679,-4.00152 -1.80012,-1.92573 -7.74506,-8.6783 -13.21099,-15.00571 -12.90017,-14.93338 -37.78876,-43.37339 -38.52015,-44.01674 -0.31276,-0.2751 -1.55997,-1.79128 -2.7716,-3.36908 -1.21162,-1.5779 -4.12222,-5.0015 -6.46798,-7.60799 -2.34578,-2.60652 -6.72578,-7.57056 -9.73336,-11.03122 -3.00758,-3.46068 -5.93369,-6.80055 -6.50248,-7.42194 -0.56877,-0.62139 -3.95164,-4.4952 -7.51747,-8.60846 -3.56582,-4.11325 -6.71982,-7.70374 -7.00888,-7.97884 -0.28906,-0.27511 -2.97638,-3.42631 -5.97183,-7.00267 -2.99545,-3.57636 -6.74873,-7.83509 -8.34061,-9.46384 l -2.89436,-2.96135 -12.16096,12.53346 c -6.68852,6.89341 -17.96917,18.57996 -25.06811,25.97011 -28.72234,29.90065 -43.50933,44.82202 -45.4447,45.85782 -3.51269,1.87991 -7.81958,1.25627 -11.34792,-1.64333 -1.83039,-1.50427 -3.56281,-3.05266 -3.84981,-3.44081 -0.28701,-0.38824 -4.4193,-4.72389 -9.18287,-9.63486 -9.7892,-10.09204 -11.34603,-13.74233 -8.45056,-19.81422 0.88913,-1.86452 1.96151,-3.39255 2.38307,-3.39564 0.42156,-0.003 3.01733,-2.13952 5.76837,-4.74767 4.90056,-4.646 7.84968,-7.27947 20.30445,-18.13122 3.39472,-2.9578 7.44908,-6.55917 9.00967,-8.00304 9.21611,-8.52677 14.01916,-12.83926 25.70681,-23.08114 7.15272,-6.26793 15.85315,-14.04536 19.3343,-17.28317 l 6.32937,-5.88693 -2.77659,-3.69669 c -1.52712,-2.03318 -3.47839,-4.37194 -4.33616,-5.19726 -0.85778,-0.82531 -4.48229,-4.87621 -8.05449,-9.00201 -3.5722,-4.12579 -6.94508,-7.99087 -7.49529,-8.58908 -4.2556,-4.6268 -13.94919,-15.71872 -15.77067,-18.04566 -1.2299,-1.57119 -2.91144,-3.56948 -3.73675,-4.44064 -0.82531,-0.87117 -2.626,-2.91175 -4.00152,-4.53461 -3.30884,-3.90384 -15.3668,-17.77517 -16.00499,-18.41196 -0.2757,-0.27511 -3.41879,-3.87648 -6.98461,-8.00305 -3.56583,-4.12657 -6.71703,-7.72793 -7.00267,-8.00304 -0.28564,-0.2751 -3.44545,-3.87598 -7.02181,-8.00196 -3.57636,-4.12597 -7.40281,-8.46542 -8.50323,-9.64322 -1.10042,-1.1778 -3.47441,-3.79345 -5.27553,-5.81258 l -3.27477,-3.67114 -4.81044,5.8115 c -26.437339,31.93901 -41.390485,76.18429 -39.830021,117.85411 1.430664,38.20365 13.036297,70.75288 36.560921,102.53903 9.38629,12.68252 37.10356,39.01484 41.06696,39.01484 0.49822,0 1.0559,0.36043 1.23931,0.8011 1.20913,2.9048 29.99209,17.8728 43.34982,22.54317 28.70689,10.03702 59.10879,13.82246 85.55876,10.65335 z m 124.41084,-64.40899 c 11.02261,-13.89688 19.93287,-27.48785 25.31603,-38.61492 16.27677,-33.64426 21.84131,-71.33997 15.80107,-107.0407 -7.09241,-41.91964 -29.68912,-81.20104 -62.01481,-107.8046 -15.7969,-13.00061 -20.37233,-16.03944 -36.51388,-24.251139 -22.15192,-11.269365 -45.47654,-17.93617 -70.25751,-20.081496 -29.84557,-2.583772 -57.38619,1.361338 -87.75619,12.57081 -3.97995,1.468989 -23.96169,11.157263 -24.94882,12.0966 -0.21621,0.205738 2.25974,3.350575 5.50209,6.988535 3.24235,3.63797 7.85409,8.93816 10.24831,11.7782 2.39421,2.84005 7.121,8.29429 10.50399,12.12055 3.38299,3.82624 7.95156,9.00321 10.1524,11.50437 2.20084,2.50116 4.22661,4.77264 4.50171,5.04774 0.6363,0.63631 9.7301,11.15 22.92983,26.51008 5.67389,6.60251 11.95179,13.80612 13.95087,16.00802 3.47443,3.8269 13.20686,14.95329 18.1367,20.73438 l 2.32756,2.72946 4.59017,-4.18854 c 8.69303,-7.93242 9.05399,-8.87732 8.95406,-23.43922 -0.0716,-10.44304 0.30257,-14.06812 2.00166,-19.38938 4.2074,-13.1769 14.94218,-25.3658 27.87205,-31.64757 7.40916,-3.59962 8.33651,-3.79693 19.53687,-4.15683 6.46717,-0.20781 12.46182,-0.10794 13.32144,0.22192 1.48932,0.57151 0.14105,3.13143 -5.84196,11.09195 -4.22097,5.6161 -12.7355,17.98081 -12.7355,18.49437 0,0.3605 5.30682,6.18609 11.79292,12.94576 l 11.79292,12.29029 4.69583,-2.84616 c 2.5827,-1.5654 9.18875,-5.69662 14.68009,-9.18049 5.63426,-3.57454 10.49076,-6.0213 11.14678,-5.61586 0.81735,0.50516 1.00626,3.72247 0.63621,10.83603 -0.65105,12.51584 -3.53519,20.37729 -10.87667,29.64717 -4.85256,6.12719 -12.63163,12.98276 -14.73163,12.98276 -0.52748,0 -1.10912,0.35461 -1.29253,0.78799 -0.61002,1.44147 -10.96489,5.17792 -17.50685,6.31715 -4.75449,0.82797 -8.42263,0.83072 -13.93784,0.0104 -15.03642,-2.23637 -17.71647,-1.5362 -25.80422,6.74162 l -4.89568,5.01071 9.39739,10.74949 c 5.16856,5.91224 11.42315,13.04737 13.89909,15.85586 2.47594,2.8085 6.75257,7.74955 9.50362,10.98012 2.75104,3.23057 5.45207,6.37906 6.00228,6.99667 0.55021,0.61759 3.91788,4.4883 7.48371,8.60156 3.56582,4.11325 6.71702,7.70374 7.00266,7.97885 0.28564,0.2751 3.43683,3.87648 7.00266,8.00305 3.56583,4.12657 6.71983,7.72794 7.00889,8.00304 0.28906,0.2751 2.9959,3.4263 6.0152,7.00266 3.01931,3.57635 5.71754,6.72756 5.99606,7.00267 0.27853,0.27509 3.8827,4.2992 8.00927,8.94244 4.12657,4.64326 10.09337,11.07711 13.25955,14.29753 3.16618,3.22033 6.52619,7.07429 7.4667,8.56416 2.31499,3.66739 8.40167,11.21226 9.04529,11.21226 0.28572,0 1.01929,-0.63014 1.63016,-1.40033 z M 153.46645,348.03099 c -0.33942,-0.54911 0.0256,-0.74449 0.8209,-0.43937 1.6847,0.64645 5.67449,-4.00862 5.67449,-6.62072 0,-2.96723 -5.70822,-7.06073 -8.8299,-6.33212 -3.49141,0.8149 -5.0243,2.3147 -5.50089,5.38226 -0.50998,3.28225 0.93291,6.31961 3.642,7.66662 2.85358,1.41874 4.96488,1.5916 4.1934,0.34333 z"
   id="path846"
   inkscape:connector-curvature="0"
   sodipodi:nodetypes="ccccccsscssssssscscsscsssscccccccccccscccccccssccscccccccccssccccccscscsscsccsscscscccssssscscccsscccccssscsssccscssscccccssscccsccccccscccssccc" /></svg>