<?xml version="1.0" encoding="UTF-8" standalone="no"?>
<!-- Generator: Adobe Illustrator 21.1.0, SVG Export Plug-In . SVG Version: 6.00 Build 0)  -->

<svg
   xmlns:dc="http://purl.org/dc/elements/1.1/"
   xmlns:cc="http://creativecommons.org/ns#"
   xmlns:rdf="http://www.w3.org/1999/02/22-rdf-syntax-ns#"
   xmlns:svg="http://www.w3.org/2000/svg"
   xmlns="http://www.w3.org/2000/svg"
   xmlns:sodipodi="http://sodipodi.sourceforge.net/DTD/sodipodi-0.dtd"
   xmlns:inkscape="http://www.inkscape.org/namespaces/inkscape"
   version="1.1"
   id="Layer_1"
   inkscape:version="0.92.3 (2405546, 2018-03-11)"
   sodipodi:docname="aggregate.svg"
   x="0px"
   y="0px"
   viewBox="0 0 512 512"
   style="enable-background:new 0 0 512 512;"
   xml:space="preserve"><metadata
   id="metadata78"><rdf:RDF><cc:Work
       rdf:about=""><dc:format>image/svg+xml</dc:format><dc:type
         rdf:resource="http://purl.org/dc/dcmitype/StillImage" /><dc:title /></cc:Work></rdf:RDF></metadata><defs
   id="defs76"><marker
     inkscape:stockid="Arrow2Send"
     orient="auto"
     refY="0.0"
     refX="0.0"
     id="marker13013"
     style="overflow:visible;"
     inkscape:isstock="true"><path
       id="path2405"
       style="fill-rule:evenodd;stroke-width:0.625;stroke-linejoin:round;stroke:#000000;stroke-opacity:1;fill:#000000;fill-opacity:1"
       d="M 8.7185878,4.0337352 L -2.2072895,0.016013256 L 8.7185884,-4.0017078 C 6.9730900,-1.6296469 6.9831476,1.6157441 8.7185878,4.0337352 z "
       transform="scale(0.3) rotate(180) translate(-2.3,0)" /></marker><marker
     inkscape:stockid="Arrow2Send"
     orient="auto"
     refY="0.0"
     refX="0.0"
     id="Arrow2Send"
     style="overflow:visible;"
     inkscape:isstock="true"><path
       id="path3546"
       style="fill-rule:evenodd;stroke-width:0.625;stroke-linejoin:round;stroke:#000000;stroke-opacity:1;fill:#000000;fill-opacity:1"
       d="M 8.7185878,4.0337352 L -2.2072895,0.016013256 L 8.7185884,-4.0017078 C 6.9730900,-1.6296469 6.9831476,1.6157441 8.7185878,4.0337352 z "
       transform="scale(0.3) rotate(180) translate(-2.3,0)" /></marker></defs>
<style
   type="text/css"
   id="style64">
	.st0{display:none;fill:#EFEAEA;}
	.st1{fill:none;stroke:#000000;stroke-width:49;stroke-miterlimit:10;}
	.st2{fill:#262626;}
</style>
<path
   class="st0"
   d="M420,500.3H91.1c-48.3,0-87.8-39.5-87.8-87.8V99c0-48.3,39.5-87.8,87.8-87.8H420c48.3,0,87.8,39.5,87.8,87.8  v313.5C507.8,460.8,468.3,500.3,420,500.3z"
   id="path66" />
<sodipodi:namedview
   bordercolor="#666666"
   borderopacity="1"
   gridtolerance="10"
   guidetolerance="10"
   id="namedview4578"
   inkscape:current-layer="Layer_1"
   inkscape:cx="39.228031"
   inkscape:cy="437.44435"
   inkscape:pagecheckerboard="true"
   inkscape:pageopacity="0"
   inkscape:pageshadow="2"
   inkscape:snap-intersection-paths="true"
   inkscape:snap-object-midpoints="true"
   inkscape:window-height="1049"
   inkscape:window-maximized="0"
   inkscape:window-width="958"
   inkscape:window-x="2880"
   inkscape:window-y="0"
   inkscape:zoom="0.5"
   objecttolerance="10"
   pagecolor="#ffffff"
   showgrid="false">
	</sodipodi:namedview>



<path
   style="color:#000000;font-style:normal;font-variant:normal;font-weight:normal;font-stretch:normal;font-size:medium;line-height:normal;font-family:sans-serif;font-variant-ligatures:normal;font-variant-position:normal;font-variant-caps:normal;font-variant-numeric:normal;font-variant-alternates:normal;font-feature-settings:normal;text-indent:0;text-align:start;text-decoration:none;text-decoration-line:none;text-decoration-style:solid;text-decoration-color:#000000;letter-spacing:normal;word-spacing:normal;text-transform:none;writing-mode:lr-tb;direction:ltr;text-orientation:mixed;dominant-baseline:auto;baseline-shift:baseline;text-anchor:start;white-space:normal;shape-padding:0;clip-rule:nonzero;display:inline;overflow:visible;visibility:visible;opacity:1;isolation:auto;mix-blend-mode:normal;color-interpolation:sRGB;color-interpolation-filters:linearRGB;solid-color:#000000;solid-opacity:1;vector-effect:none;fill:#000000;fill-opacity:1;fill-rule:nonzero;stroke:none;stroke-width:50;stroke-linecap:butt;stroke-linejoin:miter;stroke-miterlimit:4;stroke-dasharray:none;stroke-dashoffset:0;stroke-opacity:1;color-rendering:auto;image-rendering:auto;shape-rendering:auto;text-rendering:auto;enable-background:accumulate"
   d="m 303.38497,505.99522 c -4.61044,-0.0456 -9.20228,-0.41787 -13.73893,-1.11776 -31.36394,-4.83869 -60.54675,-21.72527 -83.5845,-46.3862 v 46.89338 H 6.30768 V 480.41541 355.56925 330.60002 305.63079 205.75386 180.78463 155.81539 6.0000008 H 206.06154 V 205.75386 330.60002 c 0,62.42308 51.42493,118.78591 91.20012,124.92224 19.88759,3.06817 36.30668,-1.64905 52.91721,-25.62077 9.34322,-13.4838 17.87878,-33.94899 23.55886,-62.48745 -9.81963,3.25498 -19.23464,8.04494 -27.87385,14.40217 l 34.97643,-95.11522 c 6.3e-4,-0.35147 0.006,-0.69284 0.006,-1.04559 h 0.37845 l 24.83072,-67.52617 60.19146,163.68698 c -12.52953,-8.9927 -26.54161,-14.88816 -40.9827,-17.67744 -6.29633,39.94635 -17.85294,70.84828 -34.03814,94.20618 -22.33442,32.23223 -55.5679,47.97014 -87.84098,47.65027 z M 56.24614,455.44618 h 99.87693 V 355.56925 H 56.24614 Z m 0,-149.81539 h 99.87693 V 205.75386 H 56.24614 Z M 405.8154,205.75386 A 99.876929,99.876929 0 0 1 305.93847,105.87693 99.876929,99.876929 0 0 1 405.8154,6.0000008 99.876929,99.876929 0 0 1 505.69232,105.87693 99.876929,99.876929 0 0 1 405.8154,205.75386 Z M 56.24614,155.81539 h 99.87693 V 55.938461 H 56.24614 Z"
   id="rect12996"
   inkscape:connector-curvature="0" /></svg>