<?xml version="1.0" encoding="UTF-8" standalone="no"?>
<!-- Generator: Adobe Illustrator 19.2.1, SVG Export Plug-In . SVG Version: 6.00 Build 0)  -->

<svg
   xmlns:dc="http://purl.org/dc/elements/1.1/"
   xmlns:cc="http://creativecommons.org/ns#"
   xmlns:rdf="http://www.w3.org/1999/02/22-rdf-syntax-ns#"
   xmlns:svg="http://www.w3.org/2000/svg"
   xmlns="http://www.w3.org/2000/svg"
   xmlns:sodipodi="http://sodipodi.sourceforge.net/DTD/sodipodi-0.dtd"
   xmlns:inkscape="http://www.inkscape.org/namespaces/inkscape"
   version="1.1"
   id="Layer_1"
   x="0px"
   y="0px"
   viewBox="0 0 512 512"
   style="enable-background:new 0 0 512 512;"
   xml:space="preserve"
   sodipodi:docname="removeSeed.svg"
   inkscape:version="0.92.3 (2405546, 2018-03-11)"><metadata
     id="metadata4385"><rdf:RDF><cc:Work
         rdf:about=""><dc:format>image/svg+xml</dc:format><dc:type
           rdf:resource="http://purl.org/dc/dcmitype/StillImage" /><dc:title /></cc:Work></rdf:RDF></metadata><defs
     id="defs4383" /><sodipodi:namedview
     pagecolor="#ffffff"
     bordercolor="#666666"
     borderopacity="1"
     objecttolerance="10"
     gridtolerance="10"
     guidetolerance="10"
     inkscape:pageopacity="0"
     inkscape:pageshadow="2"
     inkscape:window-width="1920"
     inkscape:window-height="1007"
     id="namedview4381"
     showgrid="false"
     inkscape:pagecheckerboard="true"
     inkscape:zoom="0.921875"
     inkscape:cx="191.88102"
     inkscape:cy="214.41166"
     inkscape:window-x="0"
     inkscape:window-y="0"
     inkscape:window-maximized="1"
     inkscape:current-layer="Layer_1"
     inkscape:snap-object-midpoints="true" /><style
     type="text/css"
     id="style4376">
	.st0{fill:#000000;}
</style><path
     style="fill:#000000;stroke-width:0.99999046"
     d="m 250,353.55664 v 48.8457 l 256,0 v -48.8457 z"
     id="rect920"
     inkscape:connector-curvature="0"
     sodipodi:nodetypes="ccccc" /><path
     style="color:#000000;font-style:normal;font-variant:normal;font-weight:normal;font-stretch:normal;font-size:medium;line-height:normal;font-family:sans-serif;font-variant-ligatures:normal;font-variant-position:normal;font-variant-caps:normal;font-variant-numeric:normal;font-variant-alternates:normal;font-feature-settings:normal;text-indent:0;text-align:start;text-decoration:none;text-decoration-line:none;text-decoration-style:solid;text-decoration-color:#000000;letter-spacing:normal;word-spacing:normal;text-transform:none;writing-mode:lr-tb;direction:ltr;text-orientation:mixed;dominant-baseline:auto;baseline-shift:baseline;text-anchor:start;white-space:normal;shape-padding:0;clip-rule:nonzero;display:inline;overflow:visible;visibility:visible;opacity:1;isolation:auto;mix-blend-mode:normal;color-interpolation:sRGB;color-interpolation-filters:linearRGB;solid-color:#000000;solid-opacity:1;vector-effect:none;fill:#000000;fill-opacity:1;fill-rule:nonzero;stroke:none;stroke-width:50;stroke-linecap:butt;stroke-linejoin:miter;stroke-miterlimit:4;stroke-dasharray:none;stroke-dashoffset:0;stroke-opacity:1;color-rendering:auto;image-rendering:auto;shape-rendering:auto;text-rendering:auto;enable-background:accumulate"
     d="m 197.45623,5.9999975 a 45.524691,45.524691 0 0 1 43.31248,31.5803855 c 39.55218,9.863864 70.33006,42.382381 77.62672,82.865607 a 45.524691,45.524691 0 0 1 28.76946,42.31425 45.524691,45.524691 0 0 1 -45.5247,45.5247 45.524691,45.524691 0 0 1 -7.48786,-0.63189 c -19.17656,21.89768 -47.31204,35.77126 -78.57277,35.77126 -9.86023,0 -19.41003,-1.38082 -28.46597,-3.95733 a 45.524691,45.524691 0 0 1 -30.64855,11.936 45.524691,45.524691 0 0 1 -19.58747,-4.47659 l -44.315445,44.31544 a 45.524691,45.524691 0 0 1 4.48726,19.5768 45.524691,45.524691 0 0 1 -45.52469,45.52469 45.524691,45.524691 0 0 1 -45.52469,-45.52469 45.524691,45.524691 0 0 1 45.52469,-45.52469 45.524691,45.524691 0 0 1 19.58748,4.47778 l 44.315445,-44.31544 a 45.524691,45.524691 0 0 1 -4.48728,-19.57799 45.524691,45.524691 0 0 1 8.42681,-26.28814 c -5.31285,-12.50229 -8.25491,-26.23643 -8.25491,-40.63316 0,-33.70216 16.12563,-63.771157 41.04692,-82.897611 a 45.524691,45.524691 0 0 1 -0.22763,-4.53469 45.524691,45.524691 0 0 1 45.5247,-45.5246915 z m 42.0973,62.7636145 A 45.524691,45.524691 0 0 1 197.45623,97.049379 45.524691,45.524691 0 0 1 165.634,84.068914 c -14.87356,13.53 -24.17195,33.066066 -24.17195,54.888076 0,8.00728 1.25686,15.70474 3.57677,22.91291 a 45.524691,45.524691 0 0 1 11.42622,-1.5163 45.524691,45.524691 0 0 1 45.5247,45.52469 45.524691,45.524691 0 0 1 -0.43747,5.88028 c 4.5395,0.86019 9.22709,1.31594 14.02729,1.31594 20.06841,0 38.20198,-7.86618 51.51049,-20.69831 a 45.524691,45.524691 0 0 1 -10.97454,-29.61596 45.524691,45.524691 0 0 1 31.05994,-43.12279 C 280.79367,95.704334 262.81923,76.642133 239.55353,68.763612 Z"
     id="path872"
     inkscape:connector-curvature="0" /></svg>