<?xml version="1.0" encoding="UTF-8" standalone="no"?>
<!-- Generator: Adobe Illustrator 19.2.1, SVG Export Plug-In . SVG Version: 6.00 Build 0)  -->

<svg
   xmlns:dc="http://purl.org/dc/elements/1.1/"
   xmlns:cc="http://creativecommons.org/ns#"
   xmlns:rdf="http://www.w3.org/1999/02/22-rdf-syntax-ns#"
   xmlns:svg="http://www.w3.org/2000/svg"
   xmlns="http://www.w3.org/2000/svg"
   xmlns:sodipodi="http://sodipodi.sourceforge.net/DTD/sodipodi-0.dtd"
   xmlns:inkscape="http://www.inkscape.org/namespaces/inkscape"
   version="1.1"
   id="Layer_1"
   x="0px"
   y="0px"
   viewBox="0 0 512 512"
   style="enable-background:new 0 0 512 512;"
   xml:space="preserve"
   sodipodi:docname="rollup.svg"
   inkscape:version="0.92.3 (2405546, 2018-03-11)"><metadata
     id="metadata4385"><rdf:RDF><cc:Work
         rdf:about=""><dc:format>image/svg+xml</dc:format><dc:type
           rdf:resource="http://purl.org/dc/dcmitype/StillImage" /><dc:title></dc:title></cc:Work></rdf:RDF></metadata><defs
     id="defs4383" /><sodipodi:namedview
     pagecolor="#ffffff"
     bordercolor="#666666"
     borderopacity="1"
     objecttolerance="10"
     gridtolerance="10"
     guidetolerance="10"
     inkscape:pageopacity="0"
     inkscape:pageshadow="2"
     inkscape:window-width="958"
     inkscape:window-height="1002"
     id="namedview4381"
     showgrid="false"
     inkscape:pagecheckerboard="true"
     inkscape:zoom="0.46093749"
     inkscape:cx="305.49782"
     inkscape:cy="-35.478749"
     inkscape:window-x="0"
     inkscape:window-y="0"
     inkscape:window-maximized="0"
     inkscape:current-layer="Layer_1"
     inkscape:snap-object-midpoints="true" /><style
     type="text/css"
     id="style4376">
	.st0{fill:#000000;}
</style><path
     style="fill:#000000;stroke-width:0.99999994"
     d="m 437.75385,71.383323 c -0.99788,-0.31439 -5.57264,-3.888766 -10.54026,-8.261433 -5.2002,-4.577358 -14.60431,-11.742924 -20.90171,-15.922897 l -8.49797,-4.644196 -17.27576,17.183516 c -6.78415,6.748849 -11.69354,11.151258 -14.83828,13.344074 -0.91567,-0.855182 -4.7988,-4.689611 -5.70579,-5.532545 1.55417,-2.478354 4.36114,-5.841033 8.24992,-9.778756 9.73928,-9.86175 10.69607,-11.583513 8.15762,-14.642136 -1.31792,-1.587759 -1.87417,-2.571063 -1.64423,-3.501887 l -4.52592,-4.525905 -10.84314,-9.008561 c -6.0955,-5.062905 -15.14953,-11.62982 -20.11998,-14.593121 l -9.03741,-5.3855 -10.94988,10.811404 c -3.76629,3.719505 -6.61123,6.209121 -8.87299,7.736449 -1.0317,-0.702971 -1.97727,-1.309265 -3.0115,-1.857663 -1.09732,-0.581855 -1.75377,-1.485588 -5.32205,-1.485569 -3.39908,5.8e-5 -3.70602,0.803207 -4.31535,1.136541 -0.60933,0.333335 -0.97889,0.595265 -1.3471,0.856712 -0.73639,0.522913 -1.39307,1.050392 -2.15765,1.690357 -1.52919,1.279968 -3.40347,2.960069 -5.61918,5.013425 -4.4314,4.106673 -10.17068,9.67045 -16.26041,15.79886 l -21.89399,22.032441 c -3.35981,3.381701 -3.21395,8.884484 0.32018,12.083534 l 0.98649,0.894271 C 232.18182,105.82184 110.91842,227.18678 84.467212,248.34119 c -0.222672,-0.22131 -0.425929,-0.42724 -0.684423,-0.6598 -0.291881,-0.26452 0.674192,-0.24273 -2.46054,-1.64134 -2.99063,-1.33436 -4.694484,-0.69421 -5.645135,-0.44133 -0.95064,0.25285 -1.410852,0.49565 -1.791319,0.6894 -0.760947,0.38752 -1.120337,0.65212 -1.491328,0.91442 -0.741987,0.52456 -1.358238,1.03025 -2.097106,1.65287 -1.477706,1.2452 -3.31801,2.90034 -5.521091,4.94994 -4.406167,4.09924 -10.208923,9.728 -16.453661,15.99213 l -22.485333,22.55456 c -3.04081,3.05067 -3.264457,7.91293 -0.516336,11.22969 l 2.662465,3.21055 c -1.887952,2.8184 -4.989534,6.36584 -9.571047,10.99602 l -12.4123624,12.54507 9.6922084,14.15177 c 5.330643,7.78312 14.445321,18.81909 20.255542,24.52475 l 10.563392,10.37292 13.10178,-12.98062 c 4.983232,-5.47553 8.463728,-8.53522 10.944104,-10.17679 1.882132,2.09203 6.730728,7.14248 8.648,9.2422 -2.685816,3.66354 -7.491361,8.97109 -14.685419,16.20272 l -17.122905,17.20939 3.807643,8.25567 c 12.503574,18.22806 36.352607,42.08983 54.357179,54.39166 l 11.20949,6.72683 17.20938,-17.12291 c 6.25339,-6.22083 12.30298,-11.64 16.20271,-14.63929 1.75684,1.60442 6.47224,6.17747 8.22106,7.75379 -1.63484,2.4156 -4.48182,5.58851 -9.28547,9.82777 l -14.048,14.15746 9.06054,8.80083 c 6.60895,6.46446 17.57602,15.601 24.37184,20.30458 6.79586,4.70363 12.7161,8.54992 13.15371,8.54992 0.43761,0 6.43174,-5.40025 13.32101,-12.00567 4.51308,-4.327 8.05281,-7.31643 10.88066,-9.16141 l 3.23649,2.69419 c 3.31937,2.76124 8.19585,2.53865 11.24989,-0.51345 l 22.82019,-22.82019 22.81993,-22.81993 c 3.32969,-3.33075 3.25006,-8.75385 -0.1759,-11.98547 -0.0609,-0.0582 -0.12345,-0.11514 -0.18712,-0.17067 l -1.12789,-1.00093 c 21.1917,-26.6785 143.69617,-149.19232 167.61737,-167.5194 0.27939,0.25204 0.55229,0.51782 0.86244,0.77023 0.3009,0.24479 0.60401,0.49401 1.17116,0.85383 0.56721,0.35977 0.62725,1.39327 4.69323,1.39327 2.37278,0 3.0062,-0.5292 3.56534,-0.78461 0.55912,-0.25545 0.85737,-0.43955 1.11345,-0.59999 0.51206,-0.32105 0.80768,-0.54989 1.1163,-0.78751 0.61715,-0.47539 1.19984,-0.96531 1.89232,-1.56921 1.38487,-1.20781 3.14495,-2.82225 5.24993,-4.79994 4.20991,-3.95541 9.75726,-9.33906 15.70368,-15.26523 5.96739,-5.94549 11.38395,-11.5517 15.3835,-15.87963 1.99975,-2.16397 3.63442,-3.99326 4.8836,-5.48937 0.62462,-0.74804 1.1419,-1.3923 1.65574,-2.11728 0.25703,-0.36238 0.51207,-0.72826 0.84231,-1.33268 0.33026,-0.60437 1.13362,-0.89854 1.13362,-4.30091 2e-5,-3.66021 -0.92326,-4.25085 -1.50573,-5.33648 -0.57106,-1.06427 -1.20073,-2.03215 -1.94134,-3.10671 1.47257,-2.21056 3.92461,-4.9552 7.62397,-8.59895 C 501.29863,187.97441 506,182.49063 506,181.44455 c 0,-2.40124 -16.73044,-25.65292 -23.81514,-33.09768 -2.2789,-2.39468 -3.50303,-3.84008 -3.93743,-5.22975 l -5.76053,-5.76053 c -0.99209,-0.23831 -2.1028,-0.97202 -3.36053,-2.22978 -3.16964,-3.1696 -4.28497,-2.56473 -15.18446,8.22105 -4.09626,4.05355 -7.15624,6.92771 -9.41239,8.80666 -0.77459,-0.83369 -4.52881,-4.63992 -5.31348,-5.48067 3.036,-3.46797 8.02863,-8.77649 13.95852,-14.73736 l 16.96717,-17.05364 -4.64419,-8.49797 c -4.18001,-6.29742 -11.56792,-15.956238 -16.41617,-21.464208 -2.99215,-3.399213 -5.11525,-6.340455 -6.10377,-8.31337 z m -46.24566,49.718737 0.006,0.006 c 20.24651,20.27989 41.57794,42.919 57.76669,60.97432 8.09514,9.02851 14.91715,16.92526 19.60653,22.71612 1.77891,2.19678 2.90022,3.7276 3.98651,5.20955 -0.75702,0.85251 -1.28841,1.48926 -2.2846,2.56729 -3.7739,4.0838 -9.07969,9.57836 -14.90753,15.38638 -5.84904,5.82714 -11.31444,11.13136 -15.34888,14.92192 -0.51254,0.48162 -0.75313,0.68279 -1.21737,1.11338 -3.05038,-3.1946 -7.13845,-7.64656 -11.48931,-12.56234 -44.45249,-50.22442 -90.04717,-95.538 -157.26484,-156.335793 l -1.86049,-1.681804 15.72388,-15.821946 c 5.95176,-5.989568 11.58028,-11.442853 15.76713,-15.322892 1.16245,-1.07727 1.86406,-1.670928 2.76921,-2.474987 1.48454,1.081644 3.02859,2.212399 5.23553,3.995136 5.78225,4.670938 13.65881,11.470816 22.66416,19.548842 18.01072,16.156035 40.58682,37.467274 60.84744,57.760904 z m -10.46526,84.14908 c 1.65252,1.74887 3.26091,3.50668 4.89802,5.25571 -9.47774,10.15983 -44.91916,46.04502 -86.82023,87.84709 -41.16358,41.06646 -74.60983,74.26494 -84.70001,84.1116 -1.67252,-1.57617 -6.28552,-6.12897 -7.95564,-7.71342 20.38067,-22.54731 148.8728,-151.65893 171.6241,-172.45486 z m -81.35798,-61.10073 c -7.05245,7.08199 -12.62487,14.93263 -36.59269,38.95288 -38.89648,41.15388 -67.67533,66.9602 -99.12583,98.63546 -12.31285,14.14189 -20.33838,21.54883 -25.57762,25.05263 -1.96467,-2.07632 -6.89823,-7.1125 -8.80951,-9.15568 10.58735,-11.21897 44.97753,-46.05045 85.90869,-86.94138 45.61224,-45.5674 75.57736,-74.59301 86.46251,-83.80868 1.54461,1.44907 6.10622,5.89876 7.62685,7.33262 z M 77.267362,265.0428 c 0.925822,0.99723 1.590521,1.6956 2.725925,2.93361 4.738659,5.16634 11.143884,12.2569 18.043071,19.98729 39.175732,43.89574 95.960352,99.9565 147.396482,145.56188 l 2.46624,2.18947 -16.54886,16.54886 -17.42866,17.42866 -17.01904,-14.15177 C 150.01046,416.53476 94.189909,360.51304 54.551189,312.67023 L 43.033034,298.76944 60.155928,281.59459 c 6.122011,-6.14089 11.829728,-11.67069 16.006547,-15.55655 0.471242,-0.43843 0.673791,-0.59999 1.104804,-0.99517 z"
     id="path840"
     inkscape:connector-curvature="0"
     sodipodi:nodetypes="cscccccccccccccccccscscccccccccccscccccccccccccccccccccccssccccccccccccscccccccsccccccccccccccccccccccssccccccccccccccccscccccsccsccccscccccccccccccc" /></svg>