<?xml version="1.0" encoding="UTF-8" standalone="no"?>
<!-- Generator: Adobe Illustrator 19.2.1, SVG Export Plug-In . SVG Version: 6.00 Build 0)  -->

<svg
   xmlns:dc="http://purl.org/dc/elements/1.1/"
   xmlns:cc="http://creativecommons.org/ns#"
   xmlns:rdf="http://www.w3.org/1999/02/22-rdf-syntax-ns#"
   xmlns:svg="http://www.w3.org/2000/svg"
   xmlns="http://www.w3.org/2000/svg"
   xmlns:sodipodi="http://sodipodi.sourceforge.net/DTD/sodipodi-0.dtd"
   xmlns:inkscape="http://www.inkscape.org/namespaces/inkscape"
   version="1.1"
   id="Layer_1"
   x="0px"
   y="0px"
   viewBox="0 0 512 512"
   style="enable-background:new 0 0 512 512;"
   xml:space="preserve"
   sodipodi:docname="select.svg"
   inkscape:version="0.92.3 (2405546, 2018-03-11)"><metadata
     id="metadata4582"><rdf:RDF><cc:Work
         rdf:about=""><dc:format>image/svg+xml</dc:format><dc:type
           rdf:resource="http://purl.org/dc/dcmitype/StillImage" /><dc:title></dc:title></cc:Work></rdf:RDF></metadata><defs
     id="defs4580" /><sodipodi:namedview
     pagecolor="#ffffff"
     bordercolor="#666666"
     borderopacity="1"
     objecttolerance="10"
     gridtolerance="10"
     guidetolerance="10"
     inkscape:pageopacity="0"
     inkscape:pageshadow="2"
     inkscape:window-width="958"
     inkscape:window-height="1049"
     id="namedview4578"
     showgrid="false"
     inkscape:pagecheckerboard="true"
     inkscape:zoom="1.2705825"
     inkscape:cx="119.32071"
     inkscape:cy="228.32782"
     inkscape:window-x="2880"
     inkscape:window-y="0"
     inkscape:window-maximized="0"
     inkscape:current-layer="Layer_1" /><style
     type="text/css"
     id="style4569">
	.st0{fill:#ffffff;}
</style><path
     style="fill:#ffffff;stroke-width:1"
     d="m 305.36964,505.41607 c -5.78986,-1.40451 -12.3891,-4.94737 -15.23458,-8.17882 -3.42991,-3.89515 -6.09253,-9.50216 -36.62009,-77.11551 -16.01001,-35.45943 -29.41889,-63.28982 -31.58824,-65.562 -4.65781,-4.87862 -11.48442,-6.88962 -18.22613,-5.36911 -6.09074,1.37369 -1.98282,-1.75128 -44.75188,34.04343 -19.08241,15.97065 -36.97664,30.38356 -39.76495,32.02871 -6.50825,3.83996 -11.37587,2.70549 -14.5256,-3.38542 -2.16071,-4.17837 -2.51458,-22.4736 -3.85754,-199.43814 -0.813219,-107.16079 -1.033318,-196.602203 -0.48911,-198.758708 0.5442,-2.156505 2.52964,-4.9300798 4.41206,-6.1635018 3.02534,-1.982271 3.97866,-2.00251 8.21345,-0.174263 7.38241,3.1871448 297.4973,265.2984228 298.62773,269.8024228 1.50731,6.00558 -1.08699,10.97738 -6.67769,12.79739 -2.7392,0.89172 -26.57349,4.332 -52.96509,7.64508 -50.42799,6.33047 -53.53742,7.10823 -59.29404,14.831 -6.43337,8.6307 -5.47207,11.57777 27.41487,84.04729 16.62424,36.63311 30.65038,68.92017 31.16917,71.74901 2.37251,12.93674 -5.63545,24.9241 -21.49189,32.17187 -11.28562,5.1585 -18.05456,6.55653 -24.35045,5.02927 z"
     id="path902"
     inkscape:connector-curvature="0" /></svg>