<?xml version="1.0" encoding="UTF-8" standalone="no"?>
<!-- Generator: Adobe Illustrator 21.1.0, SVG Export Plug-In . SVG Version: 6.00 Build 0)  -->

<svg
   xmlns:dc="http://purl.org/dc/elements/1.1/"
   xmlns:cc="http://creativecommons.org/ns#"
   xmlns:rdf="http://www.w3.org/1999/02/22-rdf-syntax-ns#"
   xmlns:svg="http://www.w3.org/2000/svg"
   xmlns="http://www.w3.org/2000/svg"
   xmlns:sodipodi="http://sodipodi.sourceforge.net/DTD/sodipodi-0.dtd"
   xmlns:inkscape="http://www.inkscape.org/namespaces/inkscape"
   version="1.1"
   id="Layer_1"
   inkscape:version="0.92.3 (2405546, 2018-03-11)"
   sodipodi:docname="separate.svg"
   x="0px"
   y="0px"
   viewBox="0 0 512 512"
   style="enable-background:new 0 0 512 512;"
   xml:space="preserve"><metadata
   id="metadata78"><rdf:RDF><cc:Work
       rdf:about=""><dc:format>image/svg+xml</dc:format><dc:type
         rdf:resource="http://purl.org/dc/dcmitype/StillImage" /><dc:title /></cc:Work></rdf:RDF></metadata><defs
   id="defs76"><marker
     inkscape:stockid="Arrow2Send"
     orient="auto"
     refY="0.0"
     refX="0.0"
     id="Arrow2Send"
     style="overflow:visible;"
     inkscape:isstock="true"><path
       id="path2378"
       style="fill-rule:evenodd;stroke-width:0.625;stroke-linejoin:round;stroke:#000000;stroke-opacity:1;fill:#000000;fill-opacity:1"
       d="M 8.7185878,4.0337352 L -2.2072895,0.016013256 L 8.7185884,-4.0017078 C 6.9730900,-1.6296469 6.9831476,1.6157441 8.7185878,4.0337352 z "
       transform="scale(0.3) rotate(180) translate(-2.3,0)" /></marker><marker
     inkscape:stockid="Arrow2Sstart"
     orient="auto"
     refY="0.0"
     refX="0.0"
     id="Arrow2Sstart"
     style="overflow:visible"
     inkscape:isstock="true"><path
       id="path2375"
       style="fill-rule:evenodd;stroke-width:0.625;stroke-linejoin:round;stroke:#000000;stroke-opacity:1;fill:#000000;fill-opacity:1"
       d="M 8.7185878,4.0337352 L -2.2072895,0.016013256 L 8.7185884,-4.0017078 C 6.9730900,-1.6296469 6.9831476,1.6157441 8.7185878,4.0337352 z "
       transform="scale(0.3) translate(-2.3,0)" /></marker><marker
     inkscape:stockid="Arrow1Send"
     orient="auto"
     refY="0.0"
     refX="0.0"
     id="Arrow1Send"
     style="overflow:visible;"
     inkscape:isstock="true"><path
       id="path2360"
       d="M 0.0,0.0 L 5.0,-5.0 L -12.5,0.0 L 5.0,5.0 L 0.0,0.0 z "
       style="fill-rule:evenodd;stroke:#000000;stroke-width:1pt;stroke-opacity:1;fill:#000000;fill-opacity:1"
       transform="scale(0.2) rotate(180) translate(6,0)" /></marker></defs>
<style
   type="text/css"
   id="style64">
	.st0{display:none;fill:#EFEAEA;}
	.st1{fill:none;stroke:#000000;stroke-width:49;stroke-miterlimit:10;}
	.st2{fill:#262626;}
</style>
<path
   class="st0"
   d="M420,500.3H91.1c-48.3,0-87.8-39.5-87.8-87.8V99c0-48.3,39.5-87.8,87.8-87.8H420c48.3,0,87.8,39.5,87.8,87.8  v313.5C507.8,460.8,468.3,500.3,420,500.3z"
   id="path66" />
<sodipodi:namedview
   bordercolor="#666666"
   borderopacity="1"
   gridtolerance="10"
   guidetolerance="10"
   id="namedview4578"
   inkscape:current-layer="Layer_1"
   inkscape:cx="260.60002"
   inkscape:cy="285.39938"
   inkscape:pagecheckerboard="true"
   inkscape:pageopacity="0"
   inkscape:pageshadow="2"
   inkscape:snap-intersection-paths="true"
   inkscape:snap-object-midpoints="false"
   inkscape:window-height="1054"
   inkscape:window-maximized="1"
   inkscape:window-width="1920"
   inkscape:window-x="1920"
   inkscape:window-y="0"
   inkscape:zoom="1.2705825"
   objecttolerance="10"
   pagecolor="#ffffff"
   showgrid="false"
   inkscape:snap-bbox="true"
   inkscape:snap-center="false"
   inkscape:bbox-nodes="true">
	</sodipodi:namedview>



<path
   style="color:#000000;font-style:normal;font-variant:normal;font-weight:normal;font-stretch:normal;font-size:medium;line-height:normal;font-family:sans-serif;font-variant-ligatures:normal;font-variant-position:normal;font-variant-caps:normal;font-variant-numeric:normal;font-variant-alternates:normal;font-feature-settings:normal;text-indent:0;text-align:start;text-decoration:none;text-decoration-line:none;text-decoration-style:solid;text-decoration-color:#000000;letter-spacing:normal;word-spacing:normal;text-transform:none;writing-mode:lr-tb;direction:ltr;text-orientation:mixed;dominant-baseline:auto;baseline-shift:baseline;text-anchor:start;white-space:normal;shape-padding:0;clip-rule:nonzero;display:inline;overflow:visible;visibility:visible;opacity:1;isolation:auto;mix-blend-mode:normal;color-interpolation:sRGB;color-interpolation-filters:linearRGB;solid-color:#000000;solid-opacity:1;vector-effect:none;fill:#000000;fill-opacity:1;fill-rule:nonzero;stroke:none;stroke-width:25.31645584;stroke-linecap:butt;stroke-linejoin:miter;stroke-miterlimit:4;stroke-dasharray:none;stroke-dashoffset:0;stroke-opacity:1;color-rendering:auto;image-rendering:auto;shape-rendering:auto;text-rendering:auto;enable-background:accumulate"
   d="M 49.226562 6 L 49.226562 18.78125 L 49.226562 103.65625 L 146.88281 103.65625 L 146.88281 6 L 49.226562 6 z M 207.17188 6 L 207.17188 18.78125 L 207.17188 103.65625 L 304.82812 103.65625 L 304.82812 6 L 207.17188 6 z M 365.11719 6 L 365.11719 18.78125 L 365.11719 103.65625 L 462.77344 103.65625 L 462.77344 6 L 365.11719 6 z M 74.789062 31.5625 L 121.31836 31.5625 L 121.31836 78.09375 L 74.789062 78.09375 L 74.789062 31.5625 z M 232.73438 31.5625 L 279.26562 31.5625 L 279.26562 78.09375 L 232.73438 78.09375 L 232.73438 31.5625 z M 390.68164 31.5625 L 437.21094 31.5625 L 437.21094 78.09375 L 390.68164 78.09375 L 390.68164 31.5625 z M 171.58984 70.759766 C 168.71484 70.759766 166.21484 71.697264 164.08984 73.572266 C 162.08984 75.322266 161.08984 77.634766 161.08984 80.509766 C 161.08984 84.134766 163.52734 87.259766 168.40234 89.884766 C 168.65234 90.009766 169.33984 90.384766 170.46484 91.009766 C 171.58984 91.634766 172.27734 92.072266 172.52734 92.322266 C 172.90234 92.572266 173.52734 92.947266 174.40234 93.447266 C 175.27734 94.072266 175.83984 94.572266 176.08984 94.947266 C 176.46484 95.447266 176.83984 96.009766 177.21484 96.634766 C 177.71484 97.384766 178.02734 98.134766 178.15234 98.884766 C 178.40234 99.759768 178.52734 100.69727 178.52734 101.69727 C 178.52734 105.19727 176.21484 109.38477 171.58984 114.25977 C 167.08984 119.13477 164.83984 121.88477 164.83984 122.50977 C 164.83984 124.13477 165.71484 124.94727 167.46484 124.94727 C 172.83984 124.94727 178.40234 120.94727 184.15234 112.94727 C 190.02734 104.94727 192.96484 97.759768 192.96484 91.384766 C 192.96484 85.759766 190.83984 80.947266 186.58984 76.947266 C 182.46484 72.822264 177.46484 70.759766 171.58984 70.759766 z M 329.53516 70.759766 C 326.66016 70.759766 324.16016 71.697264 322.03516 73.572266 C 320.03516 75.322266 319.03516 77.634766 319.03516 80.509766 C 319.03516 84.134766 321.47266 87.259766 326.34766 89.884766 C 326.59766 90.009766 327.28516 90.384766 328.41016 91.009766 C 329.53516 91.634766 330.22266 92.072266 330.47266 92.322266 C 330.84766 92.572266 331.47266 92.947266 332.34766 93.447266 C 333.22266 94.072266 333.78516 94.572266 334.03516 94.947266 C 334.41016 95.447266 334.78516 96.009766 335.16016 96.634766 C 335.66016 97.384766 335.97266 98.134766 336.09766 98.884766 C 336.34766 99.759768 336.47266 100.69727 336.47266 101.69727 C 336.47266 105.19727 334.16016 109.38477 329.53516 114.25977 C 325.03516 119.13477 322.78516 121.88477 322.78516 122.50977 C 322.78516 124.13477 323.66016 124.94727 325.41016 124.94727 C 330.78516 124.94727 336.34766 120.94727 342.09766 112.94727 C 347.97266 104.94727 350.91016 97.759768 350.91016 91.384766 C 350.91016 85.759766 348.78516 80.947266 344.53516 76.947266 C 340.41016 72.822264 335.41016 70.759766 329.53516 70.759766 z M 255.88672 109.83203 L 227.63867 186.6543 C 232.76623 182.97415 238.4234 180.40487 244.28125 178.9375 L 244.28125 249.38477 C 238.46994 247.92206 232.88712 245.35308 227.86328 241.65625 L 244.28125 286.30469 L 244.28125 286.78906 L 244.45898 286.78906 L 256.11328 318.48047 L 284.36133 241.65625 C 279.23377 245.3364 273.5766 247.90568 267.71875 249.37305 L 267.71875 178.92578 C 273.53006 180.38849 279.11288 182.95746 284.13672 186.6543 L 267.71875 142.00781 L 267.71875 141.52344 L 267.54102 141.52344 L 255.88672 109.83203 z M 6 322.45508 L 6 335.11328 L 6 506 L 164.22852 506 L 189.54492 506 L 347.77148 506 L 506 506 L 506 322.45508 L 347.77148 322.45508 L 189.54492 322.45508 L 164.22852 322.45508 L 6 322.45508 z M 31.316406 347.77148 L 164.22852 347.77148 L 164.22852 480.68359 L 31.316406 480.68359 L 31.316406 347.77148 z M 189.54492 347.77148 L 322.45508 347.77148 L 322.45508 480.68359 L 189.54492 480.68359 L 189.54492 347.77148 z M 347.77148 347.77148 L 480.68359 347.77148 L 480.68359 480.68359 L 347.77148 480.68359 L 347.77148 347.77148 z "
   id="rect1516" /></svg>