<?xml version="1.0" encoding="UTF-8" standalone="no"?>
<!-- Generator: Adobe Illustrator 19.2.1, SVG Export Plug-In . SVG Version: 6.00 Build 0)  -->

<svg
   xmlns:dc="http://purl.org/dc/elements/1.1/"
   xmlns:cc="http://creativecommons.org/ns#"
   xmlns:rdf="http://www.w3.org/1999/02/22-rdf-syntax-ns#"
   xmlns:svg="http://www.w3.org/2000/svg"
   xmlns="http://www.w3.org/2000/svg"
   xmlns:sodipodi="http://sodipodi.sourceforge.net/DTD/sodipodi-0.dtd"
   xmlns:inkscape="http://www.inkscape.org/namespaces/inkscape"
   version="1.1"
   id="Layer_1"
   x="0px"
   y="0px"
   viewBox="0 0 512 512"
   style="enable-background:new 0 0 512 512;"
   xml:space="preserve"
   sodipodi:docname="set.svg"
   inkscape:version="0.92.2 (5c3e80d, 2017-08-06)"><metadata
     id="metadata4385"><rdf:RDF><cc:Work
         rdf:about=""><dc:format>image/svg+xml</dc:format><dc:type
           rdf:resource="http://purl.org/dc/dcmitype/StillImage" /><dc:title></dc:title></cc:Work></rdf:RDF></metadata><defs
     id="defs4383" /><sodipodi:namedview
     pagecolor="#ffffff"
     bordercolor="#666666"
     borderopacity="1"
     objecttolerance="10"
     gridtolerance="10"
     guidetolerance="10"
     inkscape:pageopacity="0"
     inkscape:pageshadow="2"
     inkscape:window-width="958"
     inkscape:window-height="1010"
     id="namedview4381"
     showgrid="false"
     inkscape:pagecheckerboard="true"
     inkscape:zoom="0.921875"
     inkscape:cx="276.72373"
     inkscape:cy="192.25225"
     inkscape:window-x="0"
     inkscape:window-y="0"
     inkscape:window-maximized="0"
     inkscape:current-layer="Layer_1" /><style
     type="text/css"
     id="style4376">
	.st0{fill:#ffffff;}
</style><path
     style="fill:#ffffff;stroke-width:1"
     d="M 252.71885,489.4528 C 180.73184,489.66261 112.63069,436.99351 93.912864,367.63635 90.925671,357.3426 88.887246,346.78186 87.667638,336.1359 65.774823,320.66627 44.649041,302.97149 31.007645,279.48952 -2.3155715,226.14361 -2.6735548,153.70006 31.963664,100.86623 61.120622,54.651457 113.66189,23.350187 168.6679,22.796577 c 30.05038,-1.32651 60.33732,5.86796 86.76807,20.04617 5.16272,-0.92633 9.20054,-5.05744 14.33716,-6.36234 58.52947,-26.10775 131.71652,-14.98104 179.30171,28.16574 47.07821,41.172523 68.09654,109.802303 51.06603,170.134653 -11.30848,41.7096 -39.47553,78.15139 -75.9891,100.95067 -2.48467,5.1185 -0.47081,11.26244 -2.55682,16.63119 -11.93941,64.97843 -65.15804,120.74625 -130.29087,133.57233 -12.67511,2.61819 -25.648,3.75061 -38.58523,3.51781 z m -1.10127,-43.9448 c 26.70058,1.2505 53.83631,-6.5476 75.58332,-22.29707 23.29526,-16.40283 41.01941,-40.75855 48.60287,-68.18811 -40.32772,8.92835 -83.86174,3.21 -120.24248,-16.46031 -8.07356,3.92508 -15.81691,8.55286 -24.53193,11.01658 -30.39446,10.72995 -63.81612,12.39765 -95.22828,5.3336 13.72978,50.44718 63.04408,90.4282 115.8165,90.59531 z M 337.4641,315.48693 c 14.43623,-0.18061 29.04781,-2.2528 42.37263,-7.84945 -3.35884,-30.12277 -18.55112,-58.83465 -41.14983,-79.11164 -7.02705,29.71901 -22.04457,57.53847 -43.19669,79.58253 13.55751,4.6778 27.62711,7.43009 41.97389,7.37856 z m -160.41825,-0.0665 c 13.14983,-0.51343 27.31925,-2.39142 38.85044,-7.69756 -20.95058,-22.00169 -35.9335,-49.63261 -42.90808,-79.20467 -22.65075,20.31144 -38.25327,49.14071 -40.5802,79.51987 14.21284,5.48515 29.48091,7.59597 44.63784,7.38236 z m 79.86545,-31.21934 c 22.80588,-20.55551 38.18708,-49.48906 41.32641,-80.06292 -27.23467,-9.27979 -57.69221,-10.2472 -84.62183,0.35697 3.15226,30.97775 19.01076,60.12475 42.32326,80.57178 l 0.72597,-0.64657 z m 163.53601,-0.65697 c 32.04356,-28.58115 48.03935,-74.59956 39.27575,-116.64813 -10.37211,-54.5772 -61.26682,-99.112483 -116.75637,-100.254293 -16.03657,-0.71437 -32.21993,1.59696 -47.36635,6.93425 26.44893,27.870623 43.11262,64.683613 47.20496,102.844193 38.42667,23.94947 67.51401,62.99943 77.3458,107.38791 z M 91.797431,282.49031 C 102.04431,238.59597 131.00294,199.72418 169.40336,176.3309 172.92909,138.11845 189.70584,101.26976 216.20578,73.515187 167.71112,55.812247 108.80851,72.163647 77.209067,113.21399 45.50079,152.15409 40.470324,210.68052 66.983734,253.61166 c 6.654341,11.18157 14.876312,21.27745 24.576353,29.93251 l 0.213605,-0.9484 z M 217.67922,156.93137 c 25.21223,-5.22073 51.37087,-4.49359 76.63946,-0.0494 -7.25763,-22.92199 -19.96124,-44.61977 -38.50486,-60.103203 -18.16632,15.786443 -31.83233,37.391353 -38.1346,60.152573 z"
     id="path4979"
     inkscape:connector-curvature="0" /></svg>