<?xml version="1.0" encoding="UTF-8" standalone="no"?>
<!-- Generator: Adobe Illustrator 21.1.0, SVG Export Plug-In . SVG Version: 6.00 Build 0)  -->

<svg
   xmlns:dc="http://purl.org/dc/elements/1.1/"
   xmlns:cc="http://creativecommons.org/ns#"
   xmlns:rdf="http://www.w3.org/1999/02/22-rdf-syntax-ns#"
   xmlns:svg="http://www.w3.org/2000/svg"
   xmlns="http://www.w3.org/2000/svg"
   xmlns:sodipodi="http://sodipodi.sourceforge.net/DTD/sodipodi-0.dtd"
   xmlns:inkscape="http://www.inkscape.org/namespaces/inkscape"
   version="1.1"
   id="Layer_1"
   inkscape:version="0.92.3 (2405546, 2018-03-11)"
   sodipodi:docname="show.svg"
   x="0px"
   y="0px"
   viewBox="0 0 512 512"
   style="enable-background:new 0 0 512 512;"
   xml:space="preserve"><metadata
   id="metadata153"><rdf:RDF><cc:Work
       rdf:about=""><dc:format>image/svg+xml</dc:format><dc:type
         rdf:resource="http://purl.org/dc/dcmitype/StillImage" /><dc:title></dc:title></cc:Work></rdf:RDF></metadata><defs
   id="defs151" />
<style
   type="text/css"
   id="style139">
	.st0{display:none;fill:#EFEAEA;}
	.st1{fill:none;stroke:#000000;stroke-width:89;stroke-miterlimit:10;}
	.st2{fill:#262626;}
</style>
<path
   class="st0"
   d="M419,501.3H90.1c-48.3,0-87.8-39.5-87.8-87.8V100c0-48.3,39.5-87.8,87.8-87.8H419c48.3,0,87.8,39.5,87.8,87.8  v313.5C506.8,461.8,467.3,501.3,419,501.3z"
   id="path141" />
<sodipodi:namedview
   bordercolor="#666666"
   borderopacity="1"
   gridtolerance="10"
   guidetolerance="10"
   id="namedview4578"
   inkscape:current-layer="Layer_1"
   inkscape:cx="38.068156"
   inkscape:cy="234.16613"
   inkscape:pagecheckerboard="true"
   inkscape:pageopacity="0"
   inkscape:pageshadow="2"
   inkscape:snap-intersection-paths="true"
   inkscape:snap-object-midpoints="true"
   inkscape:window-height="1002"
   inkscape:window-maximized="0"
   inkscape:window-width="1918"
   inkscape:window-x="0"
   inkscape:window-y="0"
   inkscape:zoom="1.2705825"
   objecttolerance="10"
   pagecolor="#ffffff"
   showgrid="false"
   inkscape:snap-bbox="false"
   inkscape:snap-bbox-midpoints="false">
	</sodipodi:namedview>



<path
   style="fill:#000000;stroke-width:0.97781271"
   d="m 235.14588,414.20667 c -8.44687,-0.78689 -28.65605,-4.3617 -37.88981,-6.70234 C 136.53813,392.11313 78.22337,353.96939 34.96974,301.35269 25.6293,289.99033 13.48537,273.02577 8.6804303,264.62761 c -4.2465,-7.42211 -3.71,-10.91129 3.5058997,-22.80068 42.29388,-69.68627 106.2537,-118.21693 180.42469,-136.90046 24.43496,-6.155123 44.71294,-8.305802 70.89142,-7.518751 38.75876,1.165279 72.27279,9.932371 108.4249,28.363361 47.71143,24.32414 90.34479,63.28528 125.3896,114.58913 8.15861,11.9438 8.68306,13.01601 8.68306,17.75205 0,5.43769 -2.06061,8.95907 -16.50483,28.20515 -61.05501,81.35225 -148.75739,129.32152 -234.78705,128.418 -8.60804,-0.0904 -17.41106,-0.32834 -19.56224,-0.52874 z m 39.1125,-53.56082 c 17.50409,-2.87252 31.31876,-8.07986 45.12967,-17.01129 58.37648,-37.7517 66.21272,-115.05659 16.4543,-162.32224 -35.32848,-33.55859 -88.80715,-40.9614 -132.90884,-18.39797 -32.96194,16.86408 -53.97835,46.46739 -58.32826,82.16009 -3.93284,32.27033 10.28934,67.285 36.34045,89.46936 25.3024,21.54678 60.7125,31.45193 93.31268,26.10205 z m -26.49666,-52.26623 c -27.38597,-4.33692 -47.3282,-26.40542 -47.3282,-52.3744 0,-22.77634 14.56181,-42.07799 37.68308,-49.94888 9.04837,-3.08022 22.62922,-3.72401 31.74162,-1.50466 42.88738,10.44529 56.92384,61.21375 24.85932,89.91362 -6.09205,5.45278 -16.40222,10.92613 -23.99436,12.73784 -6.47692,1.54559 -17.17078,2.09352 -22.96146,1.17648 z"
   id="path52"
   inkscape:connector-curvature="0" /></svg>