<?xml version="1.0" encoding="UTF-8" standalone="no"?>
<!-- Created with Inkscape (http://www.inkscape.org/) -->

<svg
   xmlns:dc="http://purl.org/dc/elements/1.1/"
   xmlns:cc="http://creativecommons.org/ns#"
   xmlns:rdf="http://www.w3.org/1999/02/22-rdf-syntax-ns#"
   xmlns:svg="http://www.w3.org/2000/svg"
   xmlns="http://www.w3.org/2000/svg"
   xmlns:sodipodi="http://sodipodi.sourceforge.net/DTD/sodipodi-0.dtd"
   xmlns:inkscape="http://www.inkscape.org/namespaces/inkscape"
   width="512"
   height="512"
   version="1.1"
   id="svg8"
   sodipodi:docname="sort.svg"
   inkscape:version="0.92.3 (2405546, 2018-03-11)">
  <metadata
     id="metadata823">
    <rdf:RDF>
      <cc:Work
         rdf:about="">
        <dc:format>image/svg+xml</dc:format>
        <dc:type
           rdf:resource="http://purl.org/dc/dcmitype/StillImage" />
        <dc:title></dc:title>
      </cc:Work>
    </rdf:RDF>
  </metadata>
  <defs
     id="defs821" />
  <sodipodi:namedview
     pagecolor="#ffffff"
     bordercolor="#666666"
     borderopacity="1"
     objecttolerance="10"
     gridtolerance="10"
     guidetolerance="10"
     inkscape:pageopacity="0"
     inkscape:pageshadow="2"
     inkscape:window-width="1918"
     inkscape:window-height="1049"
     id="namedview819"
     showgrid="false"
     inkscape:pagecheckerboard="true"
     inkscape:zoom="1.2926796"
     inkscape:cx="362.86284"
     inkscape:cy="267.83229"
     inkscape:window-x="1920"
     inkscape:window-y="0"
     inkscape:window-maximized="0"
     inkscape:current-layer="svg8"
     showguides="true"
     inkscape:guide-bbox="true" />
  <path
     style="fill:#ffffff;stroke-width:0.27913758"
     d="m 236.71759,220.16128 c -115.84919,0 -218.242297,-0.0106 -219.602341,-0.53515 -1.823297,-0.70316 -3.832734,-2.61706 -4.652357,-4.42971 l -0.658202,-1.45508 v -29.03135 c 0,-27.88334 0.0203,-29.0835 0.531252,-30.40831 0.923553,-2.39463 2.95203,-4.22801 5.609389,-5.07033 0.895224,-0.2837 124.524149,-0.34424 219.192179,-0.30274 l 258.07512,0.0527 1.45509,0.6582 c 1.8126,0.81965 3.72649,2.82907 4.42969,4.65236 0.5152,1.33593 0.53516,2.47311 0.53516,30.41808 v 29.03135 l -0.6582,1.45508 c -0.8196,1.81265 -2.82906,3.72655 -4.65236,4.42971 -1.36011,0.52453 -143.75522,0.53515 -259.60442,0.53515 z"
     id="path3928"
     inkscape:connector-curvature="0" />
  <path
     style="fill:#ffffff;stroke-width:0.27913758"
     d="m 209.92061,77.242715 c -89.43664,0 -191.447607,-0.0115 -192.805361,-0.53515 -1.823297,-0.70317 -3.832734,-2.61705 -4.652357,-4.42971 l -0.658202,-1.45508 v -29.03135 c 0,-27.88334 0.0203,-29.0835 0.531252,-30.40831 0.923533,-2.3945099 2.95158,-4.2274099 5.609389,-5.0703399 0.893714,-0.28331 119.334539,-0.34433 192.395199,-0.30273 l 231.27816,0.0527 1.45509,0.65821 c 1.81271,0.81965 3.72649,2.82907 4.42969,4.6523599 0.51521,1.33593 0.53517,2.47311 0.53517,30.41808 v 29.03135 l -0.65821,1.45508 c -0.8196,1.81266 -2.82906,3.72655 -4.65236,4.42971 -1.35771,0.52362 -143.37084,0.53515 -232.80746,0.53515 z"
     id="path3926"
     inkscape:connector-curvature="0" />
  <path
     id="path3930"
     d="m 156.32668,363.07978 c -36.61161,0 -137.868057,-0.0172 -139.211431,-0.53515 -1.823297,-0.7032 -3.832734,-2.6171 -4.652357,-4.42971 l -0.658202,-1.45508 v -29.02939 c 0,-27.8833 0.0203,-29.08517 0.531252,-30.41027 0.923253,-2.39381 2.94887,-4.22598 5.609389,-5.07229 0.884364,-0.281 108.954359,-0.34278 138.801269,-0.30078 l 177.68226,0.0527 1.45704,0.6582 c 1.81261,0.81971 3.72465,2.82905 4.42775,4.65236 0.5153,1.3359 0.53711,2.47514 0.53711,30.42004 v 29.02939 l -0.6582,1.45508 c -0.8197,1.81261 -2.83101,3.72651 -4.65432,4.42971 -1.3434,0.5182 -142.60004,0.53515 -179.21156,0.53515 z"
     style="fill:#ffffff;stroke-width:0.27913758"
     inkscape:connector-curvature="0" />
  <path
     id="path3932"
     d="m 183.12365,505.99825 c -63.02413,0 -164.654867,-0.0132 -166.008401,-0.53515 -1.823297,-0.70318 -3.832734,-2.61707 -4.652357,-4.42971 l -0.658202,-1.45508 v -29.03135 c 0,-27.88333 0.0203,-29.08319 0.531252,-30.40831 0.923443,-2.3943 2.95077,-4.22665 5.609389,-5.07033 0.890984,-0.28274 114.144729,-0.34454 165.598239,-0.30274 l 204.48119,0.0527 1.45508,0.6582 c 1.81261,0.81964 3.72649,2.82905 4.4297,4.65236 0.5152,1.33592 0.53516,2.47312 0.53516,30.41808 v 29.03135 l -0.6582,1.45508 c -0.81961,1.81264 -2.83101,3.72653 -4.65432,4.42971 -1.3535,0.52211 -142.98441,0.53515 -206.00853,0.53515 z"
     style="fill:#ffffff;stroke-width:0.27913758"
     inkscape:connector-curvature="0" />
</svg>
