<?xml version="1.0" encoding="UTF-8" standalone="no"?>
<!-- Generator: Adobe Illustrator 19.2.1, SVG Export Plug-In . SVG Version: 6.00 Build 0)  -->

<svg
   xmlns:dc="http://purl.org/dc/elements/1.1/"
   xmlns:cc="http://creativecommons.org/ns#"
   xmlns:rdf="http://www.w3.org/1999/02/22-rdf-syntax-ns#"
   xmlns:svg="http://www.w3.org/2000/svg"
   xmlns="http://www.w3.org/2000/svg"
   xmlns:sodipodi="http://sodipodi.sourceforge.net/DTD/sodipodi-0.dtd"
   xmlns:inkscape="http://www.inkscape.org/namespaces/inkscape"
   version="1.1"
   id="Layer_1"
   x="0px"
   y="0px"
   viewBox="0 0 512 512"
   style="enable-background:new 0 0 512 512;"
   xml:space="preserve"
   sodipodi:docname="supernode.svg"
   inkscape:version="0.92.3 (2405546, 2018-03-11)"><metadata
     id="metadata4582"><rdf:RDF><cc:Work
         rdf:about=""><dc:format>image/svg+xml</dc:format><dc:type
           rdf:resource="http://purl.org/dc/dcmitype/StillImage" /><dc:title /></cc:Work></rdf:RDF></metadata><defs
     id="defs4580" /><sodipodi:namedview
     pagecolor="#ffffff"
     bordercolor="#666666"
     borderopacity="1"
     objecttolerance="10"
     gridtolerance="10"
     guidetolerance="10"
     inkscape:pageopacity="0"
     inkscape:pageshadow="2"
     inkscape:window-width="1920"
     inkscape:window-height="1080"
     id="namedview4578"
     showgrid="false"
     inkscape:pagecheckerboard="true"
     inkscape:zoom="0.44921875"
     inkscape:cx="201.78964"
     inkscape:cy="125.62856"
     inkscape:window-x="1920"
     inkscape:window-y="0"
     inkscape:window-maximized="1"
     inkscape:current-layer="g6318"
     inkscape:snap-object-midpoints="true"
     inkscape:snap-intersection-paths="true"
     inkscape:snap-bbox="true"
     inkscape:snap-page="true" /><style
     type="text/css"
     id="style4569">
	.st0{fill:#ffffff;}
</style><g
     id="g6318"
     transform="matrix(0.9765625,0,0,0.9765625,6,6)"
     style="stroke-width:1.02400005"><path
       style="fill:#ffffff;stroke-width:1.02400005"
       d="M 227.50437,511.7496 C 167.45399,504.4617 115.08624,479.3686 73.83165,438.1139 36.28087,400.56318 12.12824,353.87144 2.41192,300.04574 0.28397,288.25747 0.05436,283.96238 0.05436,255.94562 c 0,-28.01676 0.22961,-32.31185 2.35756,-44.10012 C 12.12824,158.0198 36.28087,111.32806 73.83165,73.777289 111.38242,36.226509 158.07413,12.073869 211.89986,2.357559 223.68814,0.22959899 227.9832,-1.0055853e-6 255.99995,-1.0055853e-6 c 28.01682,0 32.31188,0.2295999955853 44.10016,2.3575600055853 53.82573,9.71631 100.51745,33.86895 138.0682,71.41973 37.55076,37.550771 61.70342,84.242511 71.41975,138.068211 2.12793,11.78827 2.35758,16.08336 2.35758,44.10012 0,28.01676 -0.22965,32.31185 -2.35758,44.10012 -9.71633,53.8257 -33.86899,100.51744 -71.41975,138.06816 -37.40935,37.4094 -84.31164,61.7292 -137.52019,71.3071 -10.72849,1.9312 -16.80495,2.303 -41.08619,2.5136 -15.67256,0.136 -30.09846,0.053 -32.05756,-0.185 z m 54.82343,-56.8544 c 81.9794,-11.6522 148.13822,-71.38883 168.63775,-152.26776 7.41748,-29.2649 7.41748,-64.09874 0,-93.36364 C 432.27306,135.51453 376.43106,79.672519 302.68183,60.980059 c -29.26489,-7.41747 -64.09879,-7.41747 -93.36368,0 C 135.56892,79.672519 79.72689,135.51453 61.03443,209.2638 c -7.41747,29.2649 -7.41747,64.09874 0,93.36364 20.3959,80.47006 86.40297,140.35106 167.79419,152.22106 12.82563,1.8706 40.49779,1.8947 53.49918,0.047 z m 52.45333,-58.99939 c -19.06884,-4.149 -35.05125,-20.13542 -38.98391,-38.99354 -0.61852,-2.96616 -1.12747,-9.60665 -1.1309,-14.75665 l -0.007,-9.36363 -23.01566,-21.88056 c -12.65859,-12.03431 -23.56686,-22.01321 -24.24062,-22.17534 -1.2471,-0.3001 -56.17302,15.22249 -60.353,17.05631 -1.2594,0.55253 -2.28982,1.63983 -2.28982,2.41622 0,3.90485 -7.48591,15.95794 -13.49477,21.72794 -11.4363,10.98166 -23.28645,15.11526 -40.95217,14.28506 -11.90553,-0.55952 -18.84883,-2.83877 -28.33297,-9.30077 -29.03582,-19.78352 -29.03582,-67.92563 0,-87.70915 9.34266,-6.3656 16.39368,-8.67424 28.33297,-9.27678 15.08266,-0.76117 28.0166,2.8622 36.90048,10.33749 l 3.09767,2.60654 30.9614,-8.90537 30.96139,-8.90539 7.7576,-31.04527 7.75753,-31.04527 -3.13487,-3.92585 c -4.06705,-5.09314 -8.58155,-14.20293 -9.9064,-19.99011 -1.48913,-6.50448 -1.32172,-24.00811 0.2872,-30.02215 5.71412,-21.359351 24.13119,-36.182521 47.01894,-37.843641 26.24578,-1.90484 49.10885,13.00555 55.94285,36.483671 2.74064,9.4155 2.60043,24.62839 -0.31381,34.04854 -4.68095,15.13108 -16.63649,27.91717 -30.80896,32.94935 l -3.61199,1.28248 -7.43403,29.84759 c -4.08874,16.41618 -7.50104,30.46692 -7.58281,31.22387 -0.0818,0.75695 10.30772,11.38818 23.08773,23.62495 l 23.23644,22.24867 11.36534,-0.21525 c 17.46462,-0.33074 27.7701,3.15454 38.60332,13.05543 10.85125,9.91746 15.81276,20.81162 16.70499,36.67954 0.39349,6.99886 0.0867,11.60605 -1.1113,16.6872 -6.77675,28.74373 -34.85372,45.42095 -65.31161,38.79387 z"
       id="path1023"
       inkscape:connector-curvature="0" /></g></svg>