<?xml version="1.0" encoding="UTF-8" standalone="no"?>
<!-- Generator: Adobe Illustrator 19.2.1, SVG Export Plug-In . SVG Version: 6.00 Build 0)  -->

<svg
   xmlns:dc="http://purl.org/dc/elements/1.1/"
   xmlns:cc="http://creativecommons.org/ns#"
   xmlns:rdf="http://www.w3.org/1999/02/22-rdf-syntax-ns#"
   xmlns:svg="http://www.w3.org/2000/svg"
   xmlns="http://www.w3.org/2000/svg"
   xmlns:sodipodi="http://sodipodi.sourceforge.net/DTD/sodipodi-0.dtd"
   xmlns:inkscape="http://www.inkscape.org/namespaces/inkscape"
   version="1.1"
   id="Layer_1"
   x="0px"
   y="0px"
   viewBox="0 0 512 512"
   style="enable-background:new 0 0 512 512;"
   xml:space="preserve"
   sodipodi:docname="group.svg"
   inkscape:version="0.92.3 (2405546, 2018-03-11)"><metadata
     id="metadata4582"><rdf:RDF><cc:Work
         rdf:about=""><dc:format>image/svg+xml</dc:format><dc:type
           rdf:resource="http://purl.org/dc/dcmitype/StillImage" /><dc:title /></cc:Work></rdf:RDF></metadata><defs
     id="defs4580" /><sodipodi:namedview
     pagecolor="#ffffff"
     bordercolor="#666666"
     borderopacity="1"
     objecttolerance="10"
     gridtolerance="10"
     guidetolerance="10"
     inkscape:pageopacity="0"
     inkscape:pageshadow="2"
     inkscape:window-width="958"
     inkscape:window-height="1049"
     id="namedview4578"
     showgrid="false"
     inkscape:pagecheckerboard="true"
     inkscape:zoom="0.31764563"
     inkscape:cx="288.76848"
     inkscape:cy="239.84964"
     inkscape:window-x="2880"
     inkscape:window-y="0"
     inkscape:window-maximized="0"
     inkscape:current-layer="Layer_1" /><style
     type="text/css"
     id="style4569">
	.st0{fill:#ffffff;}
</style><g
     id="g9360"><path
       id="path9302"
       d="m 256,6.8476562 -0.39453,0.00391 -5.62695,0.072266 -0.39454,0.00391 -0.39257,0.015625 -5.5918,0.2128906 -0.39453,0.015625 -0.39258,0.023437 -5.55469,0.3535156 -0.39453,0.023437 -0.39062,0.035156 -5.51758,0.4902343 -0.39063,0.035156 -0.39062,0.044922 -5.47656,0.625 -0.39063,0.044922 -0.38867,0.054688 -2.75391,0.3847656 8.63282,61.6992186 2.40429,-0.335937 4.62695,-0.527344 4.80665,-0.427735 4.67968,-0.296874 4.86328,-0.185547 4.82227,-0.05859 4.82227,0.05859 4.86328,0.185547 4.67968,0.296874 4.80665,0.427735 4.62695,0.527344 3.45508,0.482421 8.63281,-61.6992182 -3.80469,-0.53125 -0.38867,-0.054688 -0.39063,-0.044922 -5.47656,-0.625 -0.39062,-0.044922 -0.39063,-0.035156 -5.51758,-0.4902343 -0.39062,-0.035156 -0.39453,-0.023437 -5.55469,-0.3535156 -0.39258,-0.023437 -0.39453,-0.015625 -5.5918,-0.2128906 -0.39257,-0.015625 -0.39454,-0.00391 -5.62695,-0.072266 z"
       style="fill:#000000;stroke:none;stroke-width:3.77952766;stroke-miterlimit:4;stroke-dasharray:none" /><path
       id="path9300"
       d="m 152.68359,29.230469 -4.37304,2.041015 -0.34571,0.16211 -0.33984,0.167968 -4.73242,2.351563 -0.33789,0.167969 -0.33594,0.177734 -4.66602,2.462891 -0.33398,0.175781 -0.33008,0.183594 -4.59961,2.572265 -0.32812,0.183594 -0.32422,0.191406 -4.53125,2.677735 -0.32227,0.191406 -0.31836,0.199219 -4.45898,2.783203 -0.31836,0.199219 -0.31445,0.205078 -4.38477,2.886719 -0.3125,0.207031 -0.30859,0.21289 -4.31055,2.988282 -0.30859,0.21289 -0.30078,0.220703 -4.23633,3.087891 -0.30078,0.220703 -0.29688,0.226563 -4.15625,3.1875 -0.29687,0.226562 -0.28907,0.234375 -4.078121,3.283203 -0.289063,0.234375 -0.285156,0.240235 -3.748047,3.169921 40.224607,47.572268 3.44727,-2.91406 3.50781,-2.82422 3.56641,-2.73633 3.63086,-2.64844 3.74804,-2.59766 3.72266,-2.449214 3.77734,-2.359375 3.92578,-2.320312 3.94336,-2.205078 4.03321,-2.126953 3.99023,-1.982422 4.05078,-1.892578 z"
       style="fill:#000000;stroke:none;stroke-width:3.77952766;stroke-miterlimit:4;stroke-dasharray:none" /><path
       id="path9298"
       d="m 360.2793,29.679688 -26.35742,56.449218 3.08984,1.44336 3.99023,1.982422 4.03321,2.126953 3.94336,2.205078 3.92578,2.320312 3.77734,2.359375 3.72266,2.449214 3.74804,2.59766 3.63086,2.64844 3.56641,2.73633 3.50586,2.82226 3.41797,2.89063 0.26758,0.23828 0.006,-0.006 0.006,0.004 0.20118,-0.23829 41.13671,-46.359371 -0.55078,-0.490234 -0.27929,-0.246094 -0.28321,-0.240234 -3.99609,-3.378906 -0.28516,-0.240235 -0.28906,-0.234375 -4.07812,-3.283203 -0.28907,-0.234375 -0.29687,-0.226562 -4.15625,-3.1875 -0.29688,-0.226563 -0.30078,-0.220703 -4.23633,-3.087891 -0.30078,-0.220703 -0.30859,-0.21289 -4.31055,-2.988282 -0.30859,-0.21289 -0.3125,-0.207031 -4.38477,-2.886719 -0.31445,-0.205078 -0.31836,-0.199219 -4.45898,-2.783203 -0.31836,-0.199219 -0.32227,-0.191406 -4.53125,-2.677735 -0.32422,-0.191406 -0.32812,-0.183594 -4.59961,-2.572265 -0.33008,-0.183594 -0.33398,-0.175781 -4.66602,-2.462891 -0.33594,-0.177734 -0.33789,-0.167969 -4.73242,-2.351563 -0.33984,-0.167968 -0.34571,-0.16211 z"
       style="fill:#000000;stroke:none;stroke-width:3.77952766;stroke-miterlimit:4;stroke-dasharray:none" /><path
       id="path9296"
       d="m 46.796875,120.65625 -0.472656,0.7168 -0.205078,0.31445 -0.199219,0.31836 -2.783203,4.45898 -0.199219,0.31836 -0.191406,0.32227 -2.677735,4.53125 -0.191406,0.32422 -0.183594,0.32812 -2.572265,4.59961 -0.183594,0.33008 -0.175781,0.33398 -2.462891,4.66602 -0.177734,0.33594 -0.167969,0.33789 -2.351563,4.73242 -0.167968,0.33984 -0.16211,0.34571 -2.238281,4.79687 -0.162109,0.34375 -0.152344,0.34961 -2.125,4.85938 -0.154297,0.34961 -0.144531,0.35351 -2.009766,4.91992 -0.144531,0.35352 -0.136719,0.35937 -1.892578,4.97852 -0.136719,0.35937 -0.126953,0.36133 -1.773437,5.03711 -0.128907,0.36328 -0.11914,0.36719 -1.652344,5.0918 -0.11914,0.36719 -0.111329,0.36914 -0.90039,3.02734 59.714843,17.76367 0.798829,-2.6875 1.392578,-4.28906 1.53125,-4.3457 1.634765,-4.30079 1.699219,-4.16015 1.841797,-4.21094 1.916016,-4.09961 1.982422,-3.99023 2.126953,-4.03321 2.205078,-3.94336 2.320312,-3.92578 2.351563,-3.76562 0.277344,-0.41992 z"
       style="fill:#000000;stroke:none;stroke-width:3.77952766;stroke-miterlimit:4;stroke-dasharray:none" /><path
       id="path9294"
       d="m 466.1875,122.17773 -52.84766,32.99024 2.45313,3.92773 2.32031,3.92578 2.20508,3.94336 2.12695,4.03321 1.98242,3.99023 1.91602,4.09961 1.8418,4.21094 1.69922,4.16015 1.63476,4.30079 1.53125,4.3457 1.39258,4.28906 1.10156,3.70508 59.71485,-17.76367 -1.20313,-4.04492 -0.11133,-0.36914 -0.11914,-0.36719 -1.65234,-5.0918 -0.11914,-0.36719 -0.12891,-0.36328 -1.77344,-5.03711 -0.12695,-0.36133 -0.13672,-0.35937 -1.89258,-4.97852 -0.13671,-0.35937 -0.14454,-0.35352 -2.00976,-4.91992 -0.14453,-0.35351 -0.1543,-0.34961 -2.125,-4.85938 -0.15234,-0.34961 -0.16211,-0.34375 -2.23828,-4.79687 -0.16211,-0.34571 -0.16797,-0.33984 -2.35156,-4.73242 -0.16797,-0.33789 -0.17774,-0.33594 -2.46289,-4.66602 -0.17578,-0.33398 -0.18359,-0.33008 -2.57227,-4.59961 -0.18359,-0.32812 -0.19141,-0.32422 -2.67773,-4.53125 -0.19141,-0.32227 -0.19922,-0.31836 z"
       style="fill:#000000;stroke:none;stroke-width:3.77952766;stroke-miterlimit:4;stroke-dasharray:none" /><path
       inkscape:connector-curvature="0"
       id="path9292"
       d="m 295.70117,121.82031 c -35.95025,0.14559 -65.01792,40.18062 -53.65039,74.36719 8.93169,34.49584 54.05261,53.52534 84.61524,34.59961 29.75701,-16.20385 39.61199,-61.04657 16.80078,-86.9668 -11.35745,-14.2159 -29.57502,-22.6271 -47.76563,-22 z"
       style="fill:#000000;stroke:none;stroke-width:3.77952766;stroke-miterlimit:4;stroke-dasharray:none" /><path
       inkscape:connector-curvature="0"
       id="path9290"
       d="m 165.70117,199.82031 c -35.95025,0.14559 -65.01792,40.18062 -53.65039,74.36719 8.93169,34.49584 54.05261,53.52534 84.61524,34.59961 29.75701,-16.20385 39.61199,-61.04657 16.80078,-86.9668 -11.35745,-14.2159 -29.57502,-22.6271 -47.76563,-22 z"
       style="fill:#000000;stroke:none;stroke-width:3.77952766;stroke-miterlimit:4;stroke-dasharray:none" /><path
       id="path9288"
       d="m 6.8574219,255.25195 -0.00586,0.35352 -0.00391,0.39453 0.00391,0.39453 0.072266,5.62695 0.00391,0.39454 0.015625,0.39257 0.2128906,5.5918 0.015625,0.39453 0.023437,0.39258 0.3535156,5.55469 0.023437,0.39453 0.035156,0.39062 0.4902343,5.51758 0.035156,0.39063 0.044922,0.39062 0.625,5.47656 0.044922,0.39063 0.054688,0.38867 0.7597656,5.43359 0.054687,0.38868 0.064453,0.38672 0.892578,5.39062 0.06445,0.38477 0.07227,0.38476 1.025391,5.34571 0.07226,0.38281 0.08399,0.38086 1.152343,5.29883 0.08399,0.3789 0.0918,0.37891 1.28125,5.24804 0.0918,0.37891 0.101563,0.375 1.40625,5.19727 0.101562,0.375 0.109375,0.37109 0.429688,1.44141 59.714844,-17.76368 -0.326172,-1.09375 -1.199219,-4.42968 -1.087891,-4.46289 -0.980468,-4.49805 -0.882813,-4.60352 -0.769531,-4.63476 -0.660156,-4.7207 -0.527344,-4.625 -0.427735,-4.80665 -0.296874,-4.67968 -0.185547,-4.86328 -0.06445,-5.2168 -17.191407,0.2168 z"
       style="fill:#000000;stroke:none;stroke-width:3.77952766;stroke-miterlimit:4;stroke-dasharray:none" /><path
       id="path9286"
       d="m 442.85156,255.60547 -0.0645,5.2168 -0.18555,4.86328 -0.29687,4.67968 -0.42774,4.80665 -0.52734,4.625 -0.66016,4.7207 -0.76953,4.63476 -0.88281,4.60352 -0.98047,4.49805 -1.08789,4.46289 -1.20313,4.44336 -0.42187,1.41992 59.71289,17.76172 0.53125,-1.7793 0.10938,-0.37109 0.10156,-0.375 1.40625,-5.19727 0.10156,-0.375 0.0918,-0.37891 1.28125,-5.24804 0.0918,-0.37891 0.084,-0.3789 1.15234,-5.29883 0.084,-0.38086 0.0723,-0.38281 1.02539,-5.34571 0.0723,-0.38476 0.0644,-0.38477 0.89258,-5.39062 0.0645,-0.38672 0.0547,-0.38868 0.75977,-5.43359 0.0547,-0.38867 0.0449,-0.39063 0.625,-5.47656 0.0449,-0.39062 0.0351,-0.39063 0.49024,-5.51758 0.0351,-0.39062 0.0234,-0.39453 0.35352,-5.55469 0.0234,-0.39258 0.0156,-0.39453 0.21289,-5.5918 0.0156,-0.39257 0.004,-0.39454 0.0723,-5.62695 z"
       style="fill:#000000;stroke:none;stroke-width:3.77952766;stroke-miterlimit:4;stroke-dasharray:none" /><path
       inkscape:connector-curvature="0"
       id="path9284"
       d="m 295.70117,277.82031 c -35.95025,0.14559 -65.01792,40.18062 -53.65039,74.36719 8.93169,34.49584 54.05261,53.52534 84.61524,34.59961 29.75701,-16.20385 39.61199,-61.04657 16.80078,-86.9668 -11.35745,-14.2159 -29.57502,-22.6271 -47.76563,-22 z"
       style="fill:#000000;stroke:none;stroke-width:3.77952766;stroke-miterlimit:4;stroke-dasharray:none" /><path
       id="path9282"
       d="m 98.447266,356.5 -52.039063,34.25195 2.802735,4.25977 0.207031,0.3125 0.21289,0.30859 2.988282,4.31055 0.21289,0.30859 0.220703,0.30078 3.087891,4.23633 0.220703,0.30078 0.226563,0.29688 3.1875,4.15625 0.226562,0.29687 0.234375,0.28907 3.283203,4.07812 0.234375,0.28906 0.240235,0.28516 3.378906,3.99609 0.240234,0.28321 0.246094,0.27929 3.472656,3.91407 0.248047,0.27734 0.251953,0.27148 3.564453,3.82813 0.253907,0.27344 0.259765,0.26562 3.652344,3.74219 0.259766,0.26562 0.265625,0.25977 3.742187,3.65234 0.265625,0.25977 0.273438,0.25391 3.828125,3.56445 0.271484,0.25195 0.277344,0.24805 3.626953,3.2168 41.349613,-46.59961 -3.33594,-2.95899 -3.28711,-3.06055 -3.2207,-3.14453 -3.14453,-3.2207 -3.0625,-3.28906 -2.94336,-3.31836 -2.90821,-3.4375 -2.82226,-3.50586 -2.73633,-3.56641 -2.64844,-3.63086 -2.59766,-3.74804 z"
       style="fill:#000000;stroke:none;stroke-width:3.77952766;stroke-miterlimit:4;stroke-dasharray:none" /><path
       id="path9280"
       d="m 413.35938,356.79492 -2.375,3.60742 -2.59766,3.75 -2.64844,3.63086 -2.73633,3.56641 -2.82226,3.50586 -2.90821,3.4375 -2.94336,3.31836 -3.0625,3.28906 -3.14453,3.2207 -3.2207,3.14453 -3.28711,3.0625 -3.60156,3.19336 41.34961,46.59766 3.89258,-3.45117 0.27734,-0.24805 0.27148,-0.25195 3.82813,-3.56445 0.27344,-0.25391 0.26562,-0.25977 3.74219,-3.65234 0.26562,-0.25977 0.25977,-0.26562 3.65234,-3.74219 0.25977,-0.26562 0.25391,-0.27344 3.56445,-3.82813 0.25195,-0.27148 0.24805,-0.27734 3.47265,-3.91407 0.2461,-0.27929 0.24023,-0.28321 3.37891,-3.99609 0.24023,-0.28516 0.23438,-0.28906 3.2832,-4.07812 0.23438,-0.28907 0.22656,-0.29687 3.1875,-4.15625 0.22656,-0.29688 0.22071,-0.30078 3.08789,-4.23633 0.2207,-0.30078 0.21289,-0.30859 2.98828,-4.31055 0.21289,-0.30859 0.20703,-0.3125 2.60938,-3.96484 z"
       style="fill:#000000;stroke:none;stroke-width:3.77952766;stroke-miterlimit:4;stroke-dasharray:none" /><path
       id="path9278"
       d="m 178.39844,426.01953 -26.35742,56.45117 1.0664,0.4961 0.34375,0.16211 0.34961,0.15234 4.85938,2.125 0.34961,0.1543 0.35351,0.14453 4.91992,2.00976 0.35352,0.14454 0.35937,0.13671 4.97852,1.89258 0.35937,0.13672 0.36133,0.12695 5.03711,1.77344 0.36328,0.12891 0.36719,0.11914 5.0918,1.65234 0.36719,0.11914 0.36914,0.11133 5.14648,1.53125 0.37109,0.10938 0.375,0.10156 5.19727,1.40625 0.375,0.10156 0.37891,0.0918 5.24804,1.28125 0.37891,0.0918 0.3789,0.084 5.29883,1.15234 0.38086,0.084 0.38281,0.0723 5.34571,1.02539 0.38476,0.0723 0.38477,0.0644 5.39062,0.89258 0.38672,0.0645 0.38868,0.0547 1.97851,0.27734 8.63281,-61.69921 -1.60937,-0.22461 -4.63867,-0.77149 -4.60352,-0.88281 -4.49805,-0.98047 -4.46289,-1.08789 -4.4375,-1.20117 -4.44922,-1.32422 -4.29101,-1.39258 -4.3457,-1.53125 -4.30079,-1.63476 -4.16015,-1.69922 -4.19922,-1.83789 z"
       style="fill:#000000;stroke:none;stroke-width:3.77952766;stroke-miterlimit:4;stroke-dasharray:none" /><path
       id="path3566"
       d="m 333.28125,426.16992 -0.37305,0.17383 -4.20703,1.8418 -4.16015,1.69922 -4.30079,1.63476 -4.3457,1.53125 -4.29101,1.39258 -4.44922,1.32422 -4.4375,1.20117 -4.46289,1.08789 -4.49805,0.98047 -4.60352,0.88281 -4.63672,0.76953 -1.96289,0.27539 8.63282,61.69922 2.33007,-0.32617 0.38868,-0.0547 0.38672,-0.0645 5.39062,-0.89258 0.38477,-0.0644 0.38476,-0.0723 5.34571,-1.02539 0.38281,-0.0723 0.38086,-0.084 5.29883,-1.15234 0.3789,-0.084 0.37891,-0.0918 5.24804,-1.28125 0.37891,-0.0918 0.375,-0.10156 5.19727,-1.40625 0.375,-0.10156 0.37109,-0.10938 5.14648,-1.53125 0.36914,-0.11133 0.36719,-0.11914 5.0918,-1.65234 0.36719,-0.11914 0.36328,-0.12891 5.03711,-1.77344 0.36133,-0.12695 0.35937,-0.13672 4.97852,-1.89258 0.35937,-0.13671 0.35352,-0.14454 4.91992,-2.00976 0.35351,-0.14453 0.34961,-0.1543 4.85938,-2.125 0.34961,-0.15234 0.34375,-0.16211 0.74414,-0.34571 z"
       style="fill:#000000;stroke:none;stroke-width:3.77952766;stroke-miterlimit:4;stroke-dasharray:none" /></g></svg>