<?xml version="1.0" encoding="UTF-8" standalone="no"?>
<!-- Generator: Adobe Illustrator 19.2.1, SVG Export Plug-In . SVG Version: 6.00 Build 0)  -->

<svg
   xmlns:dc="http://purl.org/dc/elements/1.1/"
   xmlns:cc="http://creativecommons.org/ns#"
   xmlns:rdf="http://www.w3.org/1999/02/22-rdf-syntax-ns#"
   xmlns:svg="http://www.w3.org/2000/svg"
   xmlns="http://www.w3.org/2000/svg"
   xmlns:sodipodi="http://sodipodi.sourceforge.net/DTD/sodipodi-0.dtd"
   xmlns:inkscape="http://www.inkscape.org/namespaces/inkscape"
   version="1.1"
   id="Layer_1"
   x="0px"
   y="0px"
   viewBox="0 0 512 512"
   style="enable-background:new 0 0 512 512;"
   xml:space="preserve"
   sodipodi:docname="supernode.svg"
   inkscape:version="0.92.3 (2405546, 2018-03-11)"><metadata
     id="metadata4582"><rdf:RDF><cc:Work
         rdf:about=""><dc:format>image/svg+xml</dc:format><dc:type
           rdf:resource="http://purl.org/dc/dcmitype/StillImage" /><dc:title></dc:title></cc:Work></rdf:RDF></metadata><defs
     id="defs4580" /><sodipodi:namedview
     pagecolor="#ffffff"
     bordercolor="#666666"
     borderopacity="1"
     objecttolerance="10"
     gridtolerance="10"
     guidetolerance="10"
     inkscape:pageopacity="0"
     inkscape:pageshadow="2"
     inkscape:window-width="958"
     inkscape:window-height="1006"
     id="namedview4578"
     showgrid="false"
     inkscape:pagecheckerboard="true"
     inkscape:zoom="0.44921875"
     inkscape:cx="201.78964"
     inkscape:cy="125.62856"
     inkscape:window-x="0"
     inkscape:window-y="0"
     inkscape:window-maximized="0"
     inkscape:current-layer="g6318"
     inkscape:snap-object-midpoints="true"
     inkscape:snap-intersection-paths="true"
     inkscape:snap-bbox="true"
     inkscape:snap-page="true" /><style
     type="text/css"
     id="style4569">
	.st0{fill:#ffffff;}
</style><g
     id="g6318"
     transform="matrix(0.9765625,0,0,0.9765625,6,6)"
     style="stroke-width:1.02400005"><path
       inkscape:connector-curvature="0"
       id="path6193"
       d="m 194.9822,243.72109 a 18.000003,18.000004 0 0 1 -18,18.00001 18.000003,18.000004 0 0 1 -18,-18.00001 18.000003,18.000004 0 0 1 18,-18.00001 18.000003,18.000004 0 0 1 18,18.00001 z"
       style="fill:#ffffff;fill-opacity:1;stroke:#ffffff;stroke-width:65.53600311;stroke-miterlimit:4;stroke-dasharray:none;stroke-dashoffset:0;stroke-opacity:1" /><path
       style="fill:#ffffff;fill-opacity:1;stroke:#ffffff;stroke-width:64;stroke-miterlimit:4;stroke-dasharray:none;stroke-dashoffset:0;stroke-opacity:1"
       d="M 256 43.109375 A 212.89062 212.89056 0 0 0 43.109375 256 A 212.89062 212.89056 0 0 0 256 468.89062 A 212.89062 212.89056 0 0 0 468.89062 256 A 212.89062 212.89056 0 0 0 256 43.109375 z M 254.84375 62.267578 C 314.12252 61.525749 372.27466 90.887319 408.66602 137.35938 C 461.02229 201.19851 462.32374 299.57042 414.96289 366.50391 C 368.39972 436.46179 272.50335 466.65735 193.57227 439.40039 C 109.767 412.35882 53.244398 321.72957 63.287109 234.66016 C 72.256285 140.39479 160.28596 61.559573 254.84375 62.267578 z "
       transform="matrix(1.024,0,0,1.024,-6.144,-6.144)"
       id="path6322" /><path
       style="fill:#ffffff;fill-opacity:1;stroke:#ffffff;stroke-width:65.53600311;stroke-miterlimit:4;stroke-dasharray:none;stroke-dashoffset:0;stroke-opacity:1"
       d="m 317.76054,191.77641 a 18.000003,18.000004 0 0 1 -18,18.00001 18.000003,18.000004 0 0 1 -18,-18.00001 18.000003,18.000004 0 0 1 18,-18.00001 18.000003,18.000004 0 0 1 18,18.00001 z"
       id="path6276"
       inkscape:connector-curvature="0" /><path
       inkscape:connector-curvature="0"
       id="path6278"
       d="m 303.59381,331.86963 a 18.000003,18.000004 0 0 1 -18,18.00001 18.000003,18.000004 0 0 1 -18,-18.00001 18.000003,18.000004 0 0 1 18,-18.00001 18.000003,18.000004 0 0 1 18,18.00001 z"
       style="fill:#ffffff;fill-opacity:1;stroke:#ffffff;stroke-width:65.53600311;stroke-miterlimit:4;stroke-dasharray:none;stroke-dashoffset:0;stroke-opacity:1" /></g></svg>