<?xml version="1.0" encoding="UTF-8" standalone="no"?>
<!-- Generator: Adobe Illustrator 19.2.1, SVG Export Plug-In . SVG Version: 6.00 Build 0)  -->

<svg
   xmlns:dc="http://purl.org/dc/elements/1.1/"
   xmlns:cc="http://creativecommons.org/ns#"
   xmlns:rdf="http://www.w3.org/1999/02/22-rdf-syntax-ns#"
   xmlns:svg="http://www.w3.org/2000/svg"
   xmlns="http://www.w3.org/2000/svg"
   xmlns:sodipodi="http://sodipodi.sourceforge.net/DTD/sodipodi-0.dtd"
   xmlns:inkscape="http://www.inkscape.org/namespaces/inkscape"
   version="1.1"
   id="Layer_1"
   x="0px"
   y="0px"
   viewBox="0 0 512 512"
   style="enable-background:new 0 0 512 512;"
   xml:space="preserve"
   sodipodi:docname="supernode.svg"
   inkscape:version="0.92.3 (2405546, 2018-03-11)"><metadata
     id="metadata4582"><rdf:RDF><cc:Work
         rdf:about=""><dc:format>image/svg+xml</dc:format><dc:type
           rdf:resource="http://purl.org/dc/dcmitype/StillImage" /><dc:title /></cc:Work></rdf:RDF></metadata><defs
     id="defs4580" /><sodipodi:namedview
     pagecolor="#ffffff"
     bordercolor="#666666"
     borderopacity="1"
     objecttolerance="10"
     gridtolerance="10"
     guidetolerance="10"
     inkscape:pageopacity="0"
     inkscape:pageshadow="2"
     inkscape:window-width="1920"
     inkscape:window-height="1037"
     id="namedview4578"
     showgrid="false"
     inkscape:pagecheckerboard="true"
     inkscape:zoom="0.44921875"
     inkscape:cx="201.78964"
     inkscape:cy="125.62856"
     inkscape:window-x="0"
     inkscape:window-y="0"
     inkscape:window-maximized="1"
     inkscape:current-layer="g6318"
     inkscape:snap-object-midpoints="true"
     inkscape:snap-intersection-paths="true"
     inkscape:snap-bbox="true"
     inkscape:snap-page="true" /><style
     type="text/css"
     id="style4569">
	.st0{fill:#ffffff;}
</style><g
     id="g6318"
     transform="matrix(0.9765625,0,0,0.9765625,6,6)"
     style="stroke-width:1.02400005"><path
       style="fill:#ffffff;stroke-width:1.02400005"
       d="M 227.50439,511.74961 C 167.45397,504.46172 115.08628,479.3686 73.831665,438.11398 36.280885,400.5632 12.128245,353.87146 2.411935,300.04576 0.283975,288.25749 0.054365,283.9624 0.054365,255.94563 c 0,-28.01676 0.22961,-32.31185 2.35757,-44.10012 9.71631,-53.8257 33.86895,-100.51744 71.41973,-138.068221 C 111.38243,36.226519 158.07417,12.073869 211.89987,2.3575691 223.68814,0.22960909 227.98324,-9.1166737e-7 256,-9.1166737e-7 c 28.01676,0 32.31185,0.22961000166737 44.10012,2.35757001166737 53.82571,9.7162999 100.51743,33.8689499 138.06825,71.4197199 37.55076,37.550781 61.70335,84.242521 71.41968,138.068221 2.128,11.78827 2.35758,16.08336 2.35758,44.10012 0,28.01677 -0.22958,32.31186 -2.35758,44.10013 -9.71633,53.8257 -33.86892,100.51744 -71.41968,138.06822 -37.40935,37.40935 -84.31172,61.72917 -137.52022,71.30708 -10.72849,1.93121 -16.80499,2.30297 -41.0862,2.51362 -15.67259,0.13597 -30.09848,0.0527 -32.05756,-0.18507 z m 54.82342,-56.85434 c 81.97938,-11.65223 148.13819,-71.38888 168.63772,-152.26781 7.41749,-29.26491 7.41749,-64.09874 0,-93.36365 C 432.27312,135.51454 376.43111,79.672529 302.68182,60.980069 c -29.2649,-7.41747 -64.09874,-7.41747 -93.36364,0 C 135.5689,79.672529 79.726895,135.51454 61.034435,209.26381 c -7.41747,29.26491 -7.41747,64.09874 0,93.36365 20.39591,80.47006 86.403005,140.35102 167.794165,152.22112 12.82568,1.8705 40.49785,1.89465 53.49921,0.0467 z m 52.4533,-58.99944 c -19.06881,-4.149 -35.05124,-20.13542 -38.98386,-38.99354 -1.59895,-7.66748 -1.39137,-21.14208 0.43365,-28.1488 4.48154,-17.20579 17.55334,-30.74568 34.9317,-36.18256 7.95226,-2.48789 23.45688,-2.73272 32.00802,-0.50541 16.35206,4.25916 29.75425,16.63109 35.37647,32.65704 2.98102,8.49743 3.68742,23.29509 1.5457,32.3794 -6.77675,28.74373 -34.85379,45.42095 -65.31168,38.79387 z m -216.05633,-53.0188 c -13.63395,-3.66662 -26.729905,-14.12283 -32.561675,-25.9982 -13.60973,-27.71385 -3.51825,-60.82517 22.414885,-73.54577 8.57354,-4.20545 15.37656,-5.71242 25.69132,-5.69099 15.44871,0.0321 28.08477,5.2227 38.09693,15.64932 10.38295,10.81276 14.43015,21.40464 14.43015,37.7649 0,16.36027 -4.0472,26.95215 -14.43015,37.76491 -10.36704,10.79619 -22.75696,15.6829 -39.50796,15.58234 -4.75776,-0.0286 -11.11783,-0.71549 -14.1335,-1.52651 z M 271.37982,184.11579 c -17.69169,-4.75789 -32.7241,-19.95403 -36.66472,-37.06409 -1.49466,-6.48979 -1.33083,-23.99732 0.28093,-30.02215 5.71413,-21.359351 24.13122,-36.182521 47.01896,-37.843641 21.37642,-1.55144 39.18262,7.00801 50.27229,24.165871 5.36626,8.30258 7.54219,16.61893 7.57297,28.94327 0.0649,25.80218 -14.53001,45.6516 -38.19748,51.95091 -6.96437,1.85364 -23.16533,1.784 -30.28295,-0.13017 z"
       id="path885"
       inkscape:connector-curvature="0" /></g></svg>