<?xml version="1.0" encoding="UTF-8" standalone="no"?>
<!-- Generator: Adobe Illustrator 19.2.1, SVG Export Plug-In . SVG Version: 6.00 Build 0)  -->

<svg
   xmlns:dc="http://purl.org/dc/elements/1.1/"
   xmlns:cc="http://creativecommons.org/ns#"
   xmlns:rdf="http://www.w3.org/1999/02/22-rdf-syntax-ns#"
   xmlns:svg="http://www.w3.org/2000/svg"
   xmlns="http://www.w3.org/2000/svg"
   xmlns:sodipodi="http://sodipodi.sourceforge.net/DTD/sodipodi-0.dtd"
   xmlns:inkscape="http://www.inkscape.org/namespaces/inkscape"
   version="1.1"
   id="Layer_1"
   x="0px"
   y="0px"
   viewBox="0 0 512 512"
   style="enable-background:new 0 0 512 512;"
   xml:space="preserve"
   sodipodi:docname="taggable.svg"
   inkscape:version="0.92.3 (2405546, 2018-03-11)"><metadata
     id="metadata4582"><rdf:RDF><cc:Work
         rdf:about=""><dc:format>image/svg+xml</dc:format><dc:type
           rdf:resource="http://purl.org/dc/dcmitype/StillImage" /><dc:title /></cc:Work></rdf:RDF></metadata><defs
     id="defs4580" /><sodipodi:namedview
     pagecolor="#ffffff"
     bordercolor="#666666"
     borderopacity="1"
     objecttolerance="10"
     gridtolerance="10"
     guidetolerance="10"
     inkscape:pageopacity="0"
     inkscape:pageshadow="2"
     inkscape:window-width="958"
     inkscape:window-height="1049"
     id="namedview4578"
     showgrid="false"
     inkscape:pagecheckerboard="true"
     inkscape:zoom="0.8984375"
     inkscape:cx="-48.442971"
     inkscape:cy="220.4085"
     inkscape:window-x="960"
     inkscape:window-y="0"
     inkscape:window-maximized="0"
     inkscape:current-layer="Layer_1" /><style
     type="text/css"
     id="style4569">
	.st0{fill:#ffffff;}
</style><path
     id="path4722"
     style="color:#000000;font-style:normal;font-variant:normal;font-weight:normal;font-stretch:normal;font-size:medium;line-height:normal;font-family:sans-serif;font-variant-ligatures:normal;font-variant-position:normal;font-variant-caps:normal;font-variant-numeric:normal;font-variant-alternates:normal;font-feature-settings:normal;text-indent:0;text-align:start;text-decoration:none;text-decoration-line:none;text-decoration-style:solid;text-decoration-color:#000000;letter-spacing:normal;word-spacing:normal;text-transform:none;writing-mode:lr-tb;direction:ltr;text-orientation:mixed;dominant-baseline:auto;baseline-shift:baseline;text-anchor:start;white-space:normal;shape-padding:0;clip-rule:nonzero;display:inline;overflow:visible;visibility:visible;opacity:1;isolation:auto;mix-blend-mode:normal;color-interpolation:sRGB;color-interpolation-filters:linearRGB;solid-color:#000000;solid-opacity:1;vector-effect:none;fill:#ffffff;fill-opacity:1;fill-rule:nonzero;stroke:none;stroke-width:31.99999809;stroke-linecap:butt;stroke-linejoin:miter;stroke-miterlimit:4;stroke-dasharray:15.99999996, 15.99999996000000024;stroke-dashoffset:0;stroke-opacity:1;color-rendering:auto;image-rendering:auto;shape-rendering:auto;text-rendering:auto;enable-background:accumulate"
     d="m 272.66534,495.17895 3.02054,2.91758 1.24278,1.20051 1.48177,0.88611 1.22808,0.73721 0.28128,0.16914 0.28863,0.15626 1.23175,0.66552 0.30334,0.16362 0.30886,0.15075 1.23542,0.59566 0.32173,0.15626 0.33091,0.14156 1.24094,0.52946 0.34011,0.1434 0.34562,0.12869 1.25198,0.46146 0.35298,0.13052 0.35665,0.11214 1.26484,0.39711 0.36034,0.11215 0.36585,0.0956 1.27954,0.33275 0.36217,0.0938 0.36769,0.0754 1.29977,0.26841 6.10359,-29.4958 -0.94495,-0.19487 -0.53499,-0.13972 -0.55704,-0.17465 -0.53866,-0.19855 -0.59565,-0.25369 -0.57727,-0.27946 -0.18385,-0.10111 -1.70606,-1.64723 z m 34.50184,-20.97651 -0.0644,0.0625 -0.88061,0.84568 -0.002,0.002 -0.006,0.002 -0.50373,0.25187 -0.5166,0.2298 -0.52947,0.2059 -0.008,0.002 -0.31988,0.12501 2.708,6.9695 7.22136,21.45265 0.32908,-0.11032 0.32724,-0.1103 0.32356,-0.12685 1.18763,-0.46146 0.32724,-0.12684 0.31989,-0.14157 1.16557,-0.51659 0.32539,-0.1434 0.31805,-0.15995 1.13616,-0.56991 0.32539,-0.16178 0.31806,-0.17833 1.10305,-0.62138 0.32541,-0.18385 0.3162,-0.19854 1.06813,-0.67288 1.29794,-0.8181 1.10489,-1.06077 2.14361,-2.05905 0.0717,-0.0681 0.0717,-0.0699 3.83681,-3.78534 -21.14747,-21.44713 z m -56.04275,-0.38423 10.67946,10.61878 21.23755,-21.36073 -10.68128,-10.61878 z m 80.89465,-24.26178 -0.022,0.022 -10.48273,10.41104 21.22654,21.36992 10.50479,-10.43311 0.011,-0.011 0.011,-0.011 0.18016,-0.18017 -21.27065,-21.3258 z m -102.2664,2.99849 4.80015,4.78911 0.009,0.009 0.009,0.009 5.87194,5.83703 21.23756,-21.36073 -5.85356,-5.81864 -0.0184,-0.0183 -4.78176,-4.77072 z m 113.08741,-13.79191 21.27065,21.3258 10.6629,-10.63716 -21.27065,-21.32581 z m -134.41138,-7.48242 10.6629,10.63717 21.27249,-21.32397 -10.66106,-10.63716 z m 155.73718,-13.79007 21.27065,21.3258 10.66291,-10.63533 -21.27065,-21.3258 z m -177.06114,-7.48242 10.6629,10.63717 21.27249,-21.32397 -10.66107,-10.63716 z m 203.38563,-18.7759 -4.99869,4.98767 21.27066,21.3258 5.01523,-5.00237 0.009,-0.009 0.008,-0.008 5.63847,-5.64214 -21.30374,-21.29271 z m -224.70959,-2.49842 10.6629,10.63717 21.27248,-21.32397 -10.66106,-10.63717 z m 240.99625,-13.79375 21.30375,21.29271 10.64635,-10.65187 -21.30373,-21.29271 z m -262.33125,-7.49345 1.37515,1.37515 0.008,0.006 0.006,0.008 9.28592,9.26202 21.27249,-21.32213 -9.27121,-9.25098 -0.0129,-0.0129 -1.36227,-1.36229 z m 283.62397,-13.81028 21.30374,21.2927 10.64636,-10.65187 -21.30374,-21.29272 z m -304.92035,-7.48977 10.64819,10.65002 21.30007,-21.29822 -10.6482,-10.65003 z m 326.191,-13.79376 21.34785,21.24859 10.6243,-10.67392 -21.34786,-21.2486 z m 26.50282,-27.35769 -0.24819,0.5405 -0.27392,0.50924 -0.20407,0.33276 -1.15453,1.19865 -0.0515,0.0515 -3.368,3.40846 21.42507,21.17136 3.41949,-3.45993 0.0662,-0.0681 0.0662,-0.0681 2.13993,-2.22082 0.81259,-0.84384 0.67286,-0.95966 0.82179,-1.17109 0.26105,-0.37319 0.239,-0.38975 0.75559,-1.22808 0.23348,-0.38055 0.20959,-0.39342 0.68757,-1.28139 0.20591,-0.38424 0.182,-0.3971 0.61772,-1.33102 0.18015,-0.38791 0.15628,-0.39709 0.48718,-1.22808 -28.0085,-11.08574 z m -373.99205,19.85138 10.6482,10.65003 21.30005,-21.29823 -10.64819,-10.65002 z m -21.296383,-21.30007 10.648193,10.65004 21.30007,-21.29823 -10.6482,-10.65003 z m 392.527103,-10.88166 0.23165,0.23347 0.0349,0.0349 0.0717,0.0735 1.65825,1.70973 0.59566,1.1619 0.61037,1.43029 0.12501,0.34563 0.0386,0.1287 0.0828,0.37319 0.0276,-0.006 0.0515,0.16914 2.30539,-0.69676 27.01023,-6.03925 -0.20223,-0.90634 -0.12133,-0.54051 -0.15995,-0.5313 -0.31438,-1.03871 -0.1103,-0.36585 -0.12869,-0.36033 -0.40077,-1.11961 -0.15076,-0.421 -0.17648,-0.40997 -0.99827,-2.34032 -0.21143,-0.4927 -0.2445,-0.47615 -1.14903,-2.23921 -0.21326,-0.41365 -0.23715,-0.39894 -0.59013,-0.99459 -0.21142,-0.35298 -0.22798,-0.34195 -0.5791,-0.86222 -0.7556,-1.12512 -0.94127,-0.97252 -2.86795,-2.95621 -0.0533,-0.0533 -0.0533,-0.0533 -0.33643,-0.34195 z M 59.256572,282.24634 69.904766,292.89636 91.204829,271.59814 80.556636,260.9481 Z m 392.626388,-10.91845 10.62613,10.67393 21.34602,-21.25043 -10.6243,-10.67393 z m -413.908067,-10.4331 10.62981,10.66842 21.336831,-21.26146 -10.631646,-10.66842 z m 392.663147,-10.88903 6.94192,6.95479 0.0147,0.0147 3.66399,3.67869 21.34602,-21.25042 -3.6787,-3.69341 -0.006,-0.008 -0.008,-0.008 -6.95663,-6.9695 z m -414.011009,-10.64634 2.230017,2.29802 0.05515,0.0571 0.05515,0.0552 8.344638,8.42554 21.399338,-21.19894 -8.234333,-8.31156 -0.03861,-0.0386 -0.0717,-0.0735 -2.119711,-2.18588 z m 392.731179,-10.67211 10.639,10.65924 21.31844,-21.27986 -10.63899,-10.65921 z m -403.2322973,-28.3008 0.051476,9.90363 v 0.0791 l 0.00184,0.0772 0.05883,3.87725 0.00368,0.22614 0.0092,0.22612 0.05883,1.2777 30.0896023,-1.36778 -0.0478,-1.07181 -0.05515,-3.63091 -0.04963,-9.7492 z m 381.9542873,6.9989 8.22147,8.22331 0.009,0.009 2.40835,2.41203 21.31661,-21.27985 -2.41569,-2.42122 -0.006,-0.004 -0.004,-0.006 -8.23065,-8.23066 z M 6.0744366,170.20499 6.0891436,185.26542 36.21,185.23602 36.19529,170.17559 Z M 366.78381,186.08535 377.432,196.73539 398.73208,175.439 388.08389,164.78897 Z m -226.92857,-26.0285 -1.22625,0.47615 -1.15269,0.40445 -1.21336,0.38055 -1.21888,0.33461 -1.20418,0.28863 -1.22439,0.25003 -1.21705,0.2059 -1.48912,0.19855 3.99674,29.85611 1.74468,-0.23531 0.25554,-0.0331 0.25555,-0.0442 1.73364,-0.29231 0.2537,-0.0423 0.25186,-0.0515 1.72261,-0.35298 0.25186,-0.0496 0.24819,-0.0606 1.70975,-0.40998 0.24818,-0.0588 0.24636,-0.0681 1.69503,-0.46879 0.24451,-0.0681 0.24267,-0.0754 1.67848,-0.5258 0.24267,-0.0754 0.23901,-0.0828 1.66194,-0.58278 0.23716,-0.0828 0.23532,-0.0919 1.64355,-0.63794 0.23532,-0.0901 0.23164,-0.0993 0.90267,-0.38607 -11.8303,-27.69964 z m -33.99628,12.03436 -7.068764,15.2167 0.09008,0.0423 0.397102,0.18384 0.406293,0.16179 2.787059,1.10122 0.40814,0.16178 0.41548,0.13789 2.84589,0.93759 0.41549,0.13789 0.42284,0.11214 2.89737,0.77214 0.42468,0.11399 0.42835,0.0864 2.94333,0.60485 0.43019,0.0882 0.43204,0.0625 2.93597,0.42468 4.32399,-29.80833 -2.5205,-0.36585 -2.08294,-0.42835 -2.02594,-0.5405 -2.03147,-0.67103 -2.36607,-0.93576 z m -36.051631,-9.0267 0.786848,1.16557 0.202228,0.29967 0.216935,0.29046 1.481775,1.98367 0.218774,0.29231 0.231642,0.28129 1.579212,1.9138 0.233481,0.28312 0.248189,0.27209 1.674811,1.83659 0.266572,0.29415 0.283118,0.27945 2.222663,2.19509 0.303341,0.29965 0.319888,0.28312 2.316423,2.04249 19.919401,-22.59433 -1.99286,-1.75752 -1.634365,-1.61232 -1.176595,-1.29241 -1.10122,-1.3347 -1.047906,-1.40271 -0.582783,-0.86407 z m 85.946651,-15.42259 -0.96885,1.27035 -0.44674,0.53315 -0.67287,0.74641 -1.94873,2.01124 -1.9708,1.87152 -0.47615,0.41732 19.86976,22.63845 0.68574,-0.60302 0.21877,-0.19302 0.21325,-0.20039 2.43225,-2.30908 0.22981,-0.21693 0.21876,-0.22796 2.36607,-2.44145 0.19303,-0.20039 0.18569,-0.2059 1.02768,-1.14167 0.18016,-0.20039 0.17282,-0.2059 0.85487,-1.02032 0.22061,-0.26474 0.20958,-0.27392 1.35126,-1.77225 0.19302,-0.25371 0.182,-0.26104 1.27221,-1.82374 0.18016,-0.25923 0.16914,-0.26657 0.0405,-0.0644 -14.21843,-9.05242 -10.87983,-7.58538 z m 189.73713,17.14889 0.60851,0.60851 0.006,0.006 10.03048,10.03048 21.30007,-21.29639 -10.03599,-10.03782 -0.002,-0.002 -0.004,-0.004 -0.6122,-0.6122 z m -339.411158,-9.67015 30.120855,0.0166 0.0073,-15.06042 -30.1208556,-0.0166 z m 156.911928,-28.00483 -0.10295,1.58841 -0.16546,1.52405 -0.23348,1.53326 -0.30333,1.55163 -0.36035,1.51303 -0.43018,1.51488 -0.0129,0.0368 h 0.002 l -0.0772,0.27207 6.53379,1.85314 22.15493,7.28938 0.10663,-0.3254 0.0974,-0.29783 0.0846,-0.3015 0.60117,-2.11787 0.0864,-0.3015 0.0735,-0.30518 0.51109,-2.14177 0.0735,-0.30702 0.0606,-0.30885 0.421,-2.15833 0.0607,-0.31253 0.0478,-0.31437 0.32909,-2.17303 0.0478,-0.31805 0.0349,-0.31804 0.23715,-2.18589 0.0349,-0.3199 0.0202,-0.32356 0.1434,-2.19325 0.022,-0.3254 0.008,-0.3254 0.0331,-1.52039 -30.1135,-0.65632 z m -104.593854,-0.46512 0.04412,1.80534 0.0092,0.36217 0.02573,0.36401 0.180166,2.48554 0.02573,0.36035 0.04412,0.35848 0.299663,2.47086 0.04228,0.35666 0.06067,0.35298 0.415484,2.44879 0.05883,0.35113 0.07721,0.3493 0.529469,2.42123 0.07538,0.34746 0.09376,0.34378 0.641612,2.38997 0.09376,0.34379 0.10663,0.33643 0.255541,0.79605 28.68688,-9.18297 -0.148912,-0.46146 -0.454093,-1.68951 -0.378717,-1.73732 -0.297826,-1.74835 -0.21142,-1.74099 -0.128689,-1.77592 -0.03493,-1.43766 z m 265.785664,16.85105 10.6537,10.64451 21.28904,-21.30741 -10.6537,-10.64635 z M 6.0983363,124.99428 l 30.1208557,0.0294 0.01287,-15.06043 -30.1208558,-0.0294 z m 296.7779337,-2.78338 10.65371,10.64452 21.28904,-21.30743 -10.65371,-10.64451 z M 67.911907,91.071545 l -0.158105,0.25922 -0.148914,0.26474 -1.057097,1.8899 -0.147075,0.26474 -0.137883,0.27025 -0.978045,1.92851 -0.137881,0.26841 -0.125014,0.27577 -0.898994,1.9616 -0.126851,0.27577 -0.113982,0.27944 -0.818102,1.994705 -0.113983,0.27944 -0.104791,0.28495 -0.735372,2.02228 -0.10479,0.28496 -0.09192,0.28863 -0.652644,2.04801 -0.09192,0.28864 -0.08089,0.29414 -0.170975,0.61956 29.041697,7.99166 0.09008,-0.32541 0.474315,-1.49097 0.523953,-1.43765 0.58462,-1.42478 0.652644,-1.42111 0.715149,-1.40824 0.740888,-1.3255 0.617713,-1.00563 -25.673691,-15.755355 z m 92.550293,12.720115 -3.22827,1.88623 0.0809,0.13788 -0.008,0.004 0.0938,0.14524 0.8034,1.37882 0.74089,1.39721 0.69308,1.45787 0.62875,1.47259 0.58094,1.53325 0.50189,1.51303 0.23532,0.82729 28.95714,-8.29132 -0.32356,-1.13247 -0.0864,-0.30151 -0.0974,-0.29598 -0.70412,-2.11972 -0.0974,-0.29598 -0.1103,-0.29047 -0.79053,-2.0903 -0.1103,-0.29047 -0.12318,-0.2868 -0.87693,-2.055365 -0.12133,-0.28864 -0.13605,-0.28128 -0.95966,-2.01676 -0.13605,-0.28495 -0.14707,-0.27761 -1.04422,-1.97447 -0.14708,-0.27944 -0.15994,-0.27393 -1.12696,-1.92851 -0.15994,-0.27577 -0.17283,-0.27025 -0.26105,-0.40445 z M 6.1259127,94.873425 l 30.1208553,0.0294 0.01471,-15.060428 -30.1208553,-0.02941 z m 275.4429473,6.048445 10.6537,10.64451 21.28904,-21.307415 -10.65372,-10.64452 z m -140.2098,-9.124145 0.5736,0.2629 1.16005,0.58094 1.15637,0.62875 1.17476,0.69125 1.11592,0.70779 1.06078,0.72802 1.00195,0.73905 0.42651,0.34379 0.66183,0.58094 0.18937,0.17833 0.008,-0.007 0.009,0.009 0.24083,-0.27392 20.40843,-21.640177 -0.38976,-0.369525 -0.19854,-0.18752 -0.20592,-0.180166 -1.08466,-0.950469 -0.21877,-0.191197 -0.22429,-0.182004 -0.93024,-0.753757 -0.27026,-0.218773 -0.28128,-0.207743 -1.47994,-1.09019 -0.20957,-0.154429 -0.21326,-0.147074 -1.51671,-1.036875 -0.21326,-0.145236 -0.21693,-0.139721 -1.5498,-0.98356 -0.21693,-0.137883 -0.22246,-0.130528 -1.58104,-0.930247 -0.22062,-0.130528 -0.22428,-0.121336 -1.61048,-0.875094 -0.22429,-0.123175 -0.22796,-0.113983 -1.63804,-0.81994 -0.22796,-0.113982 -0.23165,-0.10479 -0.79788,-0.367688 z m -43.706852,-27.40549 -0.332756,0.145236 -0.325403,0.159944 -2.294362,1.132473 -0.327241,0.161782 -0.318049,0.17649 -2.239208,1.244618 -0.321726,0.178327 -0.312533,0.193035 -2.178541,1.353086 -0.314372,0.196712 -0.30518,0.209581 -2.114195,1.461553 -0.307018,0.213258 -0.295988,0.227965 -2.044335,1.566344 -0.303342,0.233481 -0.290471,0.248188 -0.957823,0.814425 -0.204066,0.174651 -0.19855,0.180166 -0.555207,0.509246 20.331208,22.224799 0.3493,-0.32173 0.47432,-0.40262 1.4542,-1.11592 1.48361,-1.02585 1.55715,-0.96701 1.59576,-0.88429 1.96712,-0.97253 -4.64939,-9.42196 -7.820686,-17.979856 z M 260.25593,79.664082 270.92434,90.295735 292.1858,68.960736 281.51922,58.329089 Z m -134.69634,-21.445299 -2.55357,0.06067 -0.37138,0.0092 -0.36768,0.02757 -2.54623,0.18568 -0.36585,0.02757 -0.36584,0.04412 -2.53153,0.310695 -0.36217,0.04412 -0.36032,0.06067 -0.0368,0.0073 2.68228,15.600926 1.73548,14.183491 2.19693,-0.26841 1.76489,-0.12869 1.81637,-0.0441 1.81821,0.0478 1.86601,0.14156 1.18394,0.14156 0.17098,0.0276 0.002,-0.006 0.0956,0.011 0.32356,-2.69882 4.22654,-27.067221 -0.4357,-0.06803 -0.26474,-0.04045 -0.26841,-0.03309 -1.79246,-0.215095 -0.32357,-0.03861 -0.3254,-0.02389 -2.55359,-0.194873 -0.37687,-0.02757 -0.37688,-0.01103 -2.55726,-0.06618 -0.3732,-0.0092 z M 6.1534892,64.752568 36.274346,64.781978 36.289046,49.72155 6.1681907,49.69214 Z M 238.92093,58.402626 249.58935,69.032436 270.85081,47.697442 260.18422,37.067633 Z m -21.11621,-20.711765 1.66561,1.544282 5.85172,5.69546 2.94517,2.910237 21.17873,-21.417723 -2.94517,-2.910237 -0.0423,-0.04228 -0.0423,-0.04228 -6.07417,-5.910556 -0.13054,-0.126852 -0.13419,-0.125013 -1.79064,-1.661942 z m -192.698844,-25.25269 -0.413647,0.251865 -0.39894,0.279441 -1.472583,1.033199 -0.411809,0.288633 -0.389747,0.314372 -1.384339,1.115928 -0.411808,0.330917 -0.387909,0.360333 -1.279548,1.189465 -0.382394,0.354817 -0.356656,0.380555 -1.217041,1.297933 -0.341948,0.364009 -0.31621,0.386071 -1.115928,1.362277 -0.323564,0.393424 -0.295987,0.415486 -1.016653,1.426622 -0.297826,0.419163 -0.268411,0.435708 -0.919215,1.496483 -0.264734,0.432031 -0.237158,0.450415 -0.490861,0.933923 26.668282,14.003331 0.261057,-0.498215 0.37504,-0.608521 0.421001,-0.590136 0.476153,-0.582782 0.52763,-0.562561 0.507407,-0.470638 0.58646,-0.472477 0.661835,-0.463284 0.976207,-0.595653 L 26.503083,11.586977 Z M 199.35421,36.12084 h 15.06043 V 5.999985 h -15.06043 z m -30.12085,0 h 15.06042 V 5.999985 h -15.06042 z m -30.12086,0 h 15.06043 V 5.999985 H 139.1125 Z m -30.12085,0 h 15.06042 V 5.999985 h -15.06042 z m -30.120855,0 H 93.931223 V 5.999985 H 78.870795 Z m -30.120857,0 H 63.810367 V 5.999985 H 48.749938 Z"
     inkscape:connector-curvature="0" /></svg>