<?xml version="1.0" encoding="UTF-8" standalone="no"?>
<!-- Created with Inkscape (http://www.inkscape.org/) -->

<svg
   xmlns:dc="http://purl.org/dc/elements/1.1/"
   xmlns:cc="http://creativecommons.org/ns#"
   xmlns:rdf="http://www.w3.org/1999/02/22-rdf-syntax-ns#"
   xmlns:svg="http://www.w3.org/2000/svg"
   xmlns="http://www.w3.org/2000/svg"
   xmlns:sodipodi="http://sodipodi.sourceforge.net/DTD/sodipodi-0.dtd"
   xmlns:inkscape="http://www.inkscape.org/namespaces/inkscape"
   width="1545.7937"
   height="787.16132"
   viewBox="0 0 1545.7937 787.16132"
   version="1.1"
   id="svg8"
   inkscape:version="0.92.3 (2405546, 2018-03-11)"
   sodipodi:docname="teaser.svg">
  <defs
     id="defs2" />
  <sodipodi:namedview
     id="base"
     pagecolor="#333333"
     bordercolor="#666666"
     borderopacity="1.0"
     inkscape:pageopacity="0"
     inkscape:pageshadow="2"
     inkscape:zoom="0.49497475"
     inkscape:cx="506.15576"
     inkscape:cy="314.20919"
     inkscape:document-units="px"
     inkscape:current-layer="layer1"
     showgrid="true"
     units="px"
     showborder="true"
     borderlayer="true"
     inkscape:pagecheckerboard="true"
     inkscape:snap-text-baseline="true"
     inkscape:window-width="1920"
     inkscape:window-height="1080"
     inkscape:window-x="1920"
     inkscape:window-y="0"
     inkscape:window-maximized="1"
     inkscape:snap-global="true"
     inkscape:snap-grids="true"
     inkscape:object-paths="true"
     inkscape:snap-object-midpoints="true"
     fit-margin-top="20"
     fit-margin-left="20"
     fit-margin-right="20"
     fit-margin-bottom="20">
    <inkscape:grid
       type="xygrid"
       id="grid815"
       spacingx="20"
       spacingy="20"
       originx="-274.20625"
       originy="-59.999921" />
  </sodipodi:namedview>
  <metadata
     id="metadata5">
    <rdf:RDF>
      <cc:Work
         rdf:about="">
        <dc:format>image/svg+xml</dc:format>
        <dc:type
           rdf:resource="http://purl.org/dc/dcmitype/StillImage" />
        <dc:title></dc:title>
      </cc:Work>
    </rdf:RDF>
  </metadata>
  <g
     inkscape:label="Layer 1"
     inkscape:groupmode="layer"
     id="layer1"
     transform="translate(-274.20625,-275.35838)">
    <path
       inkscape:connector-curvature="0"
       id="path990"
       style="font-style:normal;font-variant:normal;font-weight:300;font-stretch:normal;font-size:320px;line-height:1;font-family:'Josefin Sans';-inkscape-font-specification:'Josefin Sans weight=250';font-variant-ligatures:normal;font-variant-caps:normal;font-variant-numeric:normal;font-feature-settings:normal;text-align:center;letter-spacing:0px;word-spacing:0px;writing-mode:lr-tb;text-anchor:middle;fill:#e6ab02;fill-opacity:1;stroke:none"
       d="m 815.805,820.43965 q 0,-13.44 5.12,-25.28 5.12,-11.84 13.76,-20.48 8.96,-8.96 20.8,-14.08 11.84,-5.12 25.28,-5.12 13.44,0 25.28,5.12 11.84,5.12 20.48,14.08 8.96,8.64 14.08,20.48 5.12,11.84 5.12,25.28 0,13.44 -5.12,25.28 -5.12,11.52 -14.08,20.16 -8.64,8.64 -20.48,13.76 -11.84,5.12 -25.6,5.12 -13.44,0 -25.28,-4.8 -11.84,-5.12 -20.48,-13.76 -8.64,-8.64 -13.76,-20.16 -5.12,-11.84 -5.12,-25.6 z m 11.2,0 q 0,11.2 4.16,21.12 4.16,9.6 11.2,16.96 7.36,7.04 16.96,11.2 9.92,4.16 21.12,4.16 11.2,0 20.8,-4.16 9.92,-4.16 17.28,-11.2 7.36,-7.36 11.52,-16.96 4.16,-9.92 4.16,-21.12 0,-11.2 -4.16,-20.8 -4.16,-9.92 -11.52,-17.28 -7.36,-7.36 -17.28,-11.52 -9.6,-4.16 -20.8,-4.16 -11.2,0 -21.12,4.16 -9.6,4.16 -16.96,11.52 -7.04,7.36 -11.2,17.28 -4.16,9.6 -4.16,20.8 z" />
    <path
       inkscape:connector-curvature="0"
       id="path992"
       style="font-style:normal;font-variant:normal;font-weight:300;font-stretch:normal;font-size:320px;line-height:1;font-family:'Josefin Sans';-inkscape-font-specification:'Josefin Sans weight=250';font-variant-ligatures:normal;font-variant-caps:normal;font-variant-numeric:normal;font-feature-settings:normal;text-align:center;letter-spacing:0px;word-spacing:0px;writing-mode:lr-tb;text-anchor:middle;fill:#e6ab02;fill-opacity:1;stroke:none"
       d="m 1041.845,769.23965 q -9.92,0.32 -19.2,3.52 -8.96,3.2 -16,9.28 -7.04,5.76 -11.2,14.08 -4.16,8 -4.16,17.92 v 68.48 h -10.88 v -123.84 h 9.28 q 0,1.28 0,6.08 0.32,4.8 0.32,10.24 0,5.44 0,10.24 0.32,4.48 0.32,5.44 7.36,-16 22.08,-24.96 15.04,-9.28 31.36,-9.6 z" />
    <path
       style="font-style:normal;font-variant:normal;font-weight:300;font-stretch:normal;font-size:320px;line-height:1;font-family:'Josefin Sans';-inkscape-font-specification:'Josefin Sans weight=250';font-variant-ligatures:normal;font-variant-caps:normal;font-variant-numeric:normal;font-feature-settings:normal;text-align:center;letter-spacing:0px;word-spacing:0px;writing-mode:lr-tb;text-anchor:middle;fill:#e6ab02;fill-opacity:1;stroke:none"
       d="m 1078.16,882.51965 h -10.88 v -123.84 h 10.88 z"
       id="path994"
       inkscape:connector-curvature="0" />
    <path
       inkscape:connector-curvature="0"
       id="path996"
       style="font-style:normal;font-variant:normal;font-weight:300;font-stretch:normal;font-size:320px;line-height:1;font-family:'Josefin Sans';-inkscape-font-specification:'Josefin Sans weight=250';font-variant-ligatures:normal;font-variant-caps:normal;font-variant-numeric:normal;font-feature-settings:normal;text-align:center;letter-spacing:0px;word-spacing:0px;writing-mode:lr-tb;text-anchor:middle;fill:#e6ab02;fill-opacity:1;stroke:none"
       d="m 1113.305,820.43965 q 0,-13.44 4.8,-25.28 5.12,-11.84 13.76,-20.48 8.64,-8.96 20.16,-13.76 11.84,-5.12 25.28,-5.12 10.24,0 18.88,2.88 8.96,2.88 16,7.68 7.04,4.8 12.16,11.2 5.12,6.08 7.68,12.8 0,-8 0.32,-16 0.64,-8 0.96,-15.68 h 9.92 v 123.84 q 0,12.16 -3.52,22.72 -3.52,10.88 -11.2,18.88 -7.68,8.32 -20.16,13.12 -12.16,4.8 -30.08,4.8 -14.72,0 -28.16,-5.44 -13.12,-5.44 -28.48,-20.16 l 7.04,-7.68 q 7.04,7.04 13.44,11.2 6.72,4.48 12.8,6.72 6.08,2.56 11.52,3.52 5.76,0.96 11.52,0.96 15.04,0 25.28,-3.84 10.24,-3.52 16.32,-10.24 6.4,-6.72 9.28,-16 2.88,-8.96 3.2,-20.16 v -13.76 q 0,-0.64 0,-3.2 0.32,-2.56 0.32,-5.44 0,-2.88 0,-5.44 0.32,-2.56 0.32,-3.2 -6.4,14.72 -20.8,24.96 -14.4,9.92 -34.56,9.92 -13.44,0 -25.28,-4.8 -11.52,-5.12 -20.16,-13.76 -8.64,-8.96 -13.76,-20.48 -4.8,-11.84 -4.8,-25.28 z m 11.2,0 q 0,11.2 4.16,21.12 4.16,9.6 11.2,16.96 7.36,7.04 17.28,11.2 9.92,4.16 21.12,4.16 11.2,0 21.12,-4.16 9.92,-4.16 16.96,-11.2 7.36,-7.36 11.52,-16.96 4.16,-9.92 4.16,-21.12 0,-11.2 -4.16,-21.12 -4.16,-9.92 -11.52,-16.96 -7.04,-7.36 -16.96,-11.52 -9.92,-4.16 -21.12,-4.16 -11.2,0 -21.12,4.16 -9.92,4.16 -17.28,11.52 -7.04,7.04 -11.2,16.96 -4.16,9.92 -4.16,21.12 z" />
    <path
       inkscape:connector-curvature="0"
       id="path998"
       style="font-style:normal;font-variant:normal;font-weight:300;font-stretch:normal;font-size:320px;line-height:1;font-family:'Josefin Sans';-inkscape-font-specification:'Josefin Sans weight=250';font-variant-ligatures:normal;font-variant-caps:normal;font-variant-numeric:normal;font-feature-settings:normal;text-align:center;letter-spacing:0px;word-spacing:0px;writing-mode:lr-tb;text-anchor:middle;fill:#e6ab02;fill-opacity:1;stroke:none"
       d="m 1349.345,769.23965 q -9.92,0.32 -19.2,3.52 -8.96,3.2 -16,9.28 -7.04,5.76 -11.2,14.08 -4.16,8 -4.16,17.92 v 68.48 h -10.88 v -123.84 h 9.28 q 0,1.28 0,6.08 0.32,4.8 0.32,10.24 0,5.44 0,10.24 0.32,4.48 0.32,5.44 7.36,-16 22.08,-24.96 15.04,-9.28 31.36,-9.6 z" />
    <path
       inkscape:connector-curvature="0"
       id="path1000"
       style="font-style:normal;font-variant:normal;font-weight:300;font-stretch:normal;font-size:320px;line-height:1;font-family:'Josefin Sans';-inkscape-font-specification:'Josefin Sans weight=250';font-variant-ligatures:normal;font-variant-caps:normal;font-variant-numeric:normal;font-feature-settings:normal;text-align:center;letter-spacing:0px;word-spacing:0px;writing-mode:lr-tb;text-anchor:middle;fill:#e6ab02;fill-opacity:1;stroke:none"
       d="m 1357.985,820.75965 q 0,-13.44 5.12,-25.28 5.12,-11.84 13.76,-20.48 8.64,-8.96 20.16,-14.08 11.84,-5.12 25.28,-5.12 9.6,0 18.24,2.88 8.64,2.56 15.68,7.36 7.04,4.8 12.16,11.2 5.44,6.08 8.32,13.12 0,-8 0.32,-16 0.32,-8 0.96,-15.68 h 9.6 v 123.84 h -10.88 v -31.68 q -5.44,14.08 -19.84,24 -14.4,9.92 -34.56,9.92 -13.76,0 -25.6,-5.12 -11.52,-5.12 -20.16,-13.76 -8.64,-8.64 -13.76,-20.16 -4.8,-11.84 -4.8,-24.96 z m 10.88,-0.32 q 0,11.2 4.16,21.12 4.16,9.6 11.2,16.96 7.36,7.04 17.28,11.2 9.92,4.16 21.12,4.16 11.2,0 21.12,-4.16 9.92,-4.16 17.28,-11.2 7.36,-7.36 11.52,-16.96 4.16,-9.92 4.16,-21.12 0,-11.2 -4.16,-21.12 -4.16,-9.92 -11.52,-16.96 -7.36,-7.36 -17.28,-11.52 -9.92,-4.16 -21.12,-4.16 -11.2,0 -21.12,4.16 -9.92,4.16 -17.28,11.52 -7.04,7.04 -11.2,16.96 -4.16,9.92 -4.16,21.12 z" />
    <path
       inkscape:connector-curvature="0"
       id="path1002"
       style="font-style:normal;font-variant:normal;font-weight:300;font-stretch:normal;font-size:320px;line-height:1;font-family:'Josefin Sans';-inkscape-font-specification:'Josefin Sans weight=250';font-variant-ligatures:normal;font-variant-caps:normal;font-variant-numeric:normal;font-feature-settings:normal;text-align:center;letter-spacing:0px;word-spacing:0px;writing-mode:lr-tb;text-anchor:middle;fill:#e6ab02;fill-opacity:1;stroke:none"
       d="m 1650.36,820.43965 q 0,-11.2 -4.16,-21.12 -3.84,-9.92 -11.2,-16.96 -7.04,-7.36 -16.64,-11.52 -9.6,-4.16 -21.12,-4.16 -11.2,0 -21.12,4.16 -9.92,4.16 -17.28,11.52 -7.04,7.04 -11.2,16.96 -4.16,9.92 -4.16,21.12 0,11.2 4.16,21.12 4.16,9.6 11.2,16.96 7.36,7.04 17.28,11.2 9.92,4.16 21.12,4.16 11.52,0 21.12,-4.16 9.6,-4.16 16.64,-11.2 7.36,-7.36 11.2,-16.96 4.16,-9.92 4.16,-21.12 z m 11.84,0 q 0,13.44 -5.12,25.28 -4.8,11.84 -13.44,20.48 -8.64,8.64 -20.48,13.76 -11.84,4.8 -25.6,4.8 -18.88,0 -33.6,-9.6 -14.72,-9.92 -20.8,-24.32 0,4.16 0,8.32 0.32,3.84 0.32,8 v 74.88 h -11.2 v -183.36 h 10.88 q 0,0.64 0,4.16 0,3.52 0,8.32 0.32,4.8 0.32,10.24 0,5.12 0,8.96 3.2,-7.04 8.32,-13.44 5.44,-6.4 12.48,-10.88 7.04,-4.8 15.68,-7.36 8.64,-2.88 18.24,-2.88 13.44,0 24.96,5.12 11.84,4.8 20.48,13.44 8.64,8.64 13.44,20.48 5.12,11.84 5.12,25.6 z" />
    <path
       inkscape:connector-curvature="0"
       id="path1004"
       style="font-style:normal;font-variant:normal;font-weight:300;font-stretch:normal;font-size:320px;line-height:1;font-family:'Josefin Sans';-inkscape-font-specification:'Josefin Sans weight=250';font-variant-ligatures:normal;font-variant-caps:normal;font-variant-numeric:normal;font-feature-settings:normal;text-align:center;letter-spacing:0px;word-spacing:0px;writing-mode:lr-tb;text-anchor:middle;fill:#e6ab02;fill-opacity:1;stroke:none"
       d="m 1697.28,639.95965 h 10.88 v 148.8 q 6.4,-14.4 19.84,-23.36 13.76,-9.28 32.32,-9.28 17.92,-0.32 28.48,10.24 10.56,10.24 11.2,26.56 v 89.6 h -11.2 v -87.68 q -0.64,-11.2 -8,-19.2 -7.36,-8 -21.44,-8.64 -10.56,0 -19.84,3.52 -9.28,3.52 -16.32,9.6 -6.72,6.08 -10.88,14.72 -4.16,8.64 -4.16,18.56 v 69.12 h -10.88 z" />
    <path
       style="fill:none;stroke:#ffffff;stroke-width:3;stroke-linecap:butt;stroke-linejoin:miter;stroke-miterlimit:4;stroke-dasharray:none;stroke-opacity:1"
       d="m 847.17691,615.35839 225.71429,100"
       id="path1025"
       inkscape:connector-curvature="0" />
    <g
       id="g1055"
       transform="translate(312.0675,160)">
      <path
         id="path1037"
         d="M 909.39513,446.78696 830.8237,418.21553"
         style="fill:none;stroke:#ffffff;stroke-width:3;stroke-linecap:butt;stroke-linejoin:miter;stroke-miterlimit:4;stroke-dasharray:none;stroke-opacity:1"
         inkscape:connector-curvature="0" />
      <circle
         r="10"
         cy="418.21552"
         cx="830.82373"
         id="circle974"
         style="fill:#b3b3b3;fill-opacity:1;stroke:none;stroke-width:2;stroke-miterlimit:4;stroke-dasharray:1.99999995, 1.99999995;stroke-dashoffset:0;stroke-opacity:1" />
    </g>
    <g
       id="g1041"
       transform="translate(312.0675,160)">
      <path
         id="path1033"
         d="M 700.8237,419.64411 687.96655,145.35839"
         style="fill:none;stroke:#ffffff;stroke-width:3;stroke-linecap:butt;stroke-linejoin:miter;stroke-miterlimit:4;stroke-dasharray:none;stroke-opacity:1"
         inkscape:connector-curvature="0" />
      <circle
         style="fill:#b3b3b3;fill-opacity:1;stroke:none;stroke-width:2;stroke-miterlimit:4;stroke-dasharray:1.99999995, 1.99999995;stroke-dashoffset:0;stroke-opacity:1"
         id="circle976"
         cx="700.82373"
         cy="419.6441"
         r="10" />
    </g>
    <g
       id="g1045"
       transform="translate(312.0675,160)">
      <path
         id="path1031"
         d="M 687.96655,145.35839 893.68084,342.50125"
         style="fill:none;stroke:#ffffff;stroke-width:3;stroke-linecap:butt;stroke-linejoin:miter;stroke-miterlimit:4;stroke-dasharray:none;stroke-opacity:1"
         inkscape:connector-curvature="0" />
      <circle
         r="10"
         cy="145.35838"
         cx="687.96655"
         id="circle978"
         style="fill:#b3b3b3;fill-opacity:1;stroke:none;stroke-width:2;stroke-miterlimit:4;stroke-dasharray:1.99999995, 1.99999995;stroke-dashoffset:0;stroke-opacity:1" />
    </g>
    <g
       id="g1049"
       transform="translate(312.0675,160)">
      <path
         id="path1029"
         d="m 893.68084,342.50125 15.71429,104.28571"
         style="fill:none;stroke:#ffffff;stroke-width:3;stroke-linecap:butt;stroke-linejoin:miter;stroke-miterlimit:4;stroke-dasharray:none;stroke-opacity:1"
         inkscape:connector-curvature="0" />
      <circle
         style="fill:#b3b3b3;fill-opacity:1;stroke:none;stroke-width:2;stroke-miterlimit:4;stroke-dasharray:1.99999995, 1.99999995;stroke-dashoffset:0;stroke-opacity:1"
         id="circle980"
         cx="893.68085"
         cy="342.50122"
         r="10" />
    </g>
    <g
       id="g1067"
       transform="translate(312.0675,160)">
      <path
         id="path1021"
         d="m 1099.3951,253.92982 -78.5714,30"
         style="fill:none;stroke:#ffffff;stroke-width:3;stroke-linecap:butt;stroke-linejoin:miter;stroke-miterlimit:4;stroke-dasharray:none;stroke-opacity:1"
         inkscape:connector-curvature="0" />
      <circle
         style="fill:#b3b3b3;fill-opacity:1;stroke:none;stroke-width:2;stroke-miterlimit:4;stroke-dasharray:1.99999995, 1.99999995;stroke-dashoffset:0;stroke-opacity:1"
         id="circle984"
         cx="1099.3951"
         cy="253.92982"
         r="10" />
    </g>
    <g
       id="g1075"
       transform="translate(312.0675,160)">
      <path
         id="path1027"
         d="M 780.8237,502.50125 535.10941,455.35839"
         style="fill:none;stroke:#ffffff;stroke-width:3;stroke-linecap:butt;stroke-linejoin:miter;stroke-miterlimit:4;stroke-dasharray:none;stroke-opacity:1"
         inkscape:connector-curvature="0" />
      <circle
         r="10"
         cy="502.50122"
         cx="780.82373"
         id="circle986"
         style="fill:#b3b3b3;fill-opacity:1;stroke:none;stroke-width:2;stroke-miterlimit:4;stroke-dasharray:1.99999995, 1.99999995;stroke-dashoffset:0;stroke-opacity:1" />
    </g>
    <circle
       r="10"
       cy="615.35834"
       cx="847.17694"
       id="circle988"
       style="fill:#b3b3b3;fill-opacity:1;stroke:none;stroke-width:2;stroke-miterlimit:4;stroke-dasharray:1.99999995, 1.99999995;stroke-dashoffset:0;stroke-opacity:1" />
    <path
       inkscape:connector-curvature="0"
       id="path899"
       style="font-style:normal;font-variant:normal;font-weight:normal;font-stretch:normal;font-size:80px;line-height:0px;font-family:'Josefin Slab';-inkscape-font-specification:'Josefin Slab';font-variant-ligatures:normal;font-variant-caps:normal;font-variant-numeric:normal;font-feature-settings:normal;text-align:end;letter-spacing:0px;word-spacing:0px;writing-mode:lr-tb;text-anchor:end;fill:#ffffff;fill-opacity:1;stroke:none"
       d="m 294.20625,1019.3197 h 4.88 v -23.51999 h -4.88 v -3.28 h 4.88 v -11.44 q 0,-4.4 1.28,-7.84 1.28,-3.44 3.52,-5.76 2.24,-2.32 5.28,-3.52 3.04,-1.28 6.48,-1.44 v 3.2 q -2.72,0.08 -5.2,1.12 -2.4,1.04 -4.24,3.04 -1.76,2 -2.8,4.8 -1.04,2.8 -1.04,6.32 v 11.52 h 10 v 3.28 h -10 v 23.51999 h 7.28 v 3.2 h -15.44 z" />
    <path
       inkscape:connector-curvature="0"
       id="path901"
       style="font-style:normal;font-variant:normal;font-weight:normal;font-stretch:normal;font-size:80px;line-height:0px;font-family:'Josefin Slab';-inkscape-font-specification:'Josefin Slab';font-variant-ligatures:normal;font-variant-caps:normal;font-variant-numeric:normal;font-feature-settings:normal;text-align:end;letter-spacing:0px;word-spacing:0px;writing-mode:lr-tb;text-anchor:end;fill:#ffffff;fill-opacity:1;stroke:none"
       d="m 318.425,1019.3197 h 5.92 v -53.59999 h -5.68 v -3.2 h 8.96 v 56.79999 h 6.24 v 3.2 h -15.44 z" />
    <path
       inkscape:connector-curvature="0"
       id="path903"
       style="font-style:normal;font-variant:normal;font-weight:normal;font-stretch:normal;font-size:80px;line-height:0px;font-family:'Josefin Slab';-inkscape-font-specification:'Josefin Slab';font-variant-ligatures:normal;font-variant-caps:normal;font-variant-numeric:normal;font-feature-settings:normal;text-align:end;letter-spacing:0px;word-spacing:0px;writing-mode:lr-tb;text-anchor:end;fill:#ffffff;fill-opacity:1;stroke:none"
       d="m 355.19875,995.07971 q -2.96,0 -5.44,1.28 -2.4,1.2 -4.08,3.28 -1.68,1.99999 -2.4,4.71999 -0.64,2.64 -0.08,5.44 5.36,-2.16 10.72,-4.24 5.36,-2.16 10.8,-4.32 -1.36,-2.71999 -3.92,-4.39999 -2.56,-1.76 -5.6,-1.76 z m 13.76,7.99999 q -6.24,2.48 -12.4,4.96 -6.16,2.4 -12.4,4.88 1.36,3.04 4.32,4.96 2.96,1.92 6.72,1.92 2.48,0 4.64,-0.88 2.16,-0.88 3.76,-2.48 0.56,0.64 1.04,1.28 0.48,0.56 1.04,1.2 -2.08,1.92 -4.72,3.04 -2.64,1.12 -5.76,1.12 -3.28,0 -6.16,-1.2 -2.8,-1.28 -4.96,-3.36 -2.08,-2.08 -3.36,-4.88 -1.2,-2.88 -1.2,-6.16 0,-3.2 1.2,-6.08 1.28,-2.87999 3.36,-4.95999 2.16,-2.08 4.96,-3.28 2.88,-1.28 6.16,-1.28 2.4,0 4.56,0.88 2.16,0.8 3.92,2.32 1.84,1.44 3.2,3.52 1.36,1.99999 2.08,4.47999 z" />
    <path
       inkscape:connector-curvature="0"
       id="path905"
       style="font-style:normal;font-variant:normal;font-weight:normal;font-stretch:normal;font-size:80px;line-height:0px;font-family:'Josefin Slab';-inkscape-font-specification:'Josefin Slab';font-variant-ligatures:normal;font-variant-caps:normal;font-variant-numeric:normal;font-feature-settings:normal;text-align:end;letter-spacing:0px;word-spacing:0px;writing-mode:lr-tb;text-anchor:end;fill:#ffffff;fill-opacity:1;stroke:none"
       d="m 374.83125,992.51971 h 15.44 v 3.2 h -4.96 l 7.12,9.67999 6.96,-9.67999 h -4.64 v -3.2 h 14.72 v 3.2 h -6.08 l -8.96,12.31999 q 2.08,2.88 4.16,5.68 2.08,2.8 4.16,5.6 h 6.72 v 3.2 h -15.44 v -3.2 h 4.56 q -1.76,-2.4 -3.52,-4.72 -1.68,-2.4 -3.36,-4.72 -1.76,2.32 -3.44,4.72 -1.68,2.4 -3.36,4.72 h 4.64 v 3.2 h -14.72 v -3.2 h 5.92 l 8.88,-12.24 q -2.08,-2.8 -4.24,-5.6 -2.08,-2.87999 -4.16,-5.75999 h -6.4 z" />
    <path
       inkscape:connector-curvature="0"
       id="path907"
       style="font-style:normal;font-variant:normal;font-weight:normal;font-stretch:normal;font-size:80px;line-height:0px;font-family:'Josefin Slab';-inkscape-font-specification:'Josefin Slab';font-variant-ligatures:normal;font-variant-caps:normal;font-variant-numeric:normal;font-feature-settings:normal;text-align:end;letter-spacing:0px;word-spacing:0px;writing-mode:lr-tb;text-anchor:end;fill:#ffffff;fill-opacity:1;stroke:none"
       d="m 415.14375,1019.3197 h 6.16 v -23.59999 h -6.16 v -3.2 h 9.52 v 26.79999 h 5.92 v 3.2 h -15.44 z m 5.28,-37.43999 q 0,-1.12 0.8,-1.84 0.8,-0.8 1.84,-0.8 0.96,0 1.76,0.8 0.8,0.72 0.8,1.84 0,1.12 -0.8,1.92 -0.8,0.72 -1.76,0.72 -1.04,0 -1.84,-0.72 -0.8,-0.8 -0.8,-1.92 z" />
    <path
       inkscape:connector-curvature="0"
       id="path909"
       style="font-style:normal;font-variant:normal;font-weight:normal;font-stretch:normal;font-size:80px;line-height:0px;font-family:'Josefin Slab';-inkscape-font-specification:'Josefin Slab';font-variant-ligatures:normal;font-variant-caps:normal;font-variant-numeric:normal;font-feature-settings:normal;text-align:end;letter-spacing:0px;word-spacing:0px;writing-mode:lr-tb;text-anchor:end;fill:#ffffff;fill-opacity:1;stroke:none"
       d="m 436.2375,1019.3197 h 5.92 v -53.59999 h -5.6 v -3.2 h 8.96 v 33.04 q -0.08,0.96 -0.16,2 -0.08,0.96 -0.16,1.92 0.56,-1.44 1.68,-2.8 1.2,-1.36 2.88,-2.4 1.68,-1.12 3.76,-1.76 2.08,-0.64 4.4,-0.64 3.28,0 6.16,1.28 2.88,1.2 4.96,3.36 2.16,2.08 3.36,4.95999 1.28,2.8 1.28,6 0,3.28 -1.28,6.16 -1.2,2.8 -3.36,4.88 -2.08,2.08 -4.96,3.36 -2.88,1.2 -6.16,1.2 -2.4,0 -4.56,-0.64 -2.08,-0.64 -3.76,-1.68 -1.6,-1.04 -2.8,-2.4 -1.12,-1.36 -1.68,-2.72 0,0.88 0,1.84 0.08,0.88 0.08,1.84 v 3.2 h -8.96 z m 34.08,-11.84 q 0,-2.56 -0.96,-4.8 -0.96,-2.32 -2.64,-3.99999 -1.6,-1.68 -3.92,-2.64 -2.24,-0.96 -4.88,-0.96 -2.64,0 -4.88,0.96 -2.24,0.96 -3.92,2.64 -1.68,1.67999 -2.64,3.99999 -0.96,2.24 -0.96,4.8 0,2.56 0.96,4.8 0.96,2.24 2.64,3.92 1.68,1.68 3.92,2.64 2.24,0.96 4.88,0.96 2.64,0 4.88,-0.96 2.32,-0.96 3.92,-2.64 1.68,-1.68 2.64,-3.92 0.96,-2.24 0.96,-4.8 z" />
    <path
       inkscape:connector-curvature="0"
       id="path911"
       style="font-style:normal;font-variant:normal;font-weight:normal;font-stretch:normal;font-size:80px;line-height:0px;font-family:'Josefin Slab';-inkscape-font-specification:'Josefin Slab';font-variant-ligatures:normal;font-variant-caps:normal;font-variant-numeric:normal;font-feature-settings:normal;text-align:end;letter-spacing:0px;word-spacing:0px;writing-mode:lr-tb;text-anchor:end;fill:#ffffff;fill-opacity:1;stroke:none"
       d="m 479.20625,1019.3197 h 5.92 v -53.59999 h -5.68 v -3.2 h 8.96 v 56.79999 h 6.24 v 3.2 h -15.44 z" />
    <path
       inkscape:connector-curvature="0"
       id="path913"
       style="font-style:normal;font-variant:normal;font-weight:normal;font-stretch:normal;font-size:80px;line-height:0px;font-family:'Josefin Slab';-inkscape-font-specification:'Josefin Slab';font-variant-ligatures:normal;font-variant-caps:normal;font-variant-numeric:normal;font-feature-settings:normal;text-align:end;letter-spacing:0px;word-spacing:0px;writing-mode:lr-tb;text-anchor:end;fill:#ffffff;fill-opacity:1;stroke:none"
       d="m 515.98,995.07971 q -2.96,0 -5.44,1.28 -2.4,1.2 -4.08,3.28 -1.68,1.99999 -2.4,4.71999 -0.64,2.64 -0.08,5.44 5.36,-2.16 10.72,-4.24 5.36,-2.16 10.8,-4.32 -1.36,-2.71999 -3.92,-4.39999 -2.56,-1.76 -5.6,-1.76 z m 13.76,7.99999 q -6.24,2.48 -12.4,4.96 -6.16,2.4 -12.4,4.88 1.36,3.04 4.32,4.96 2.96,1.92 6.72,1.92 2.48,0 4.64,-0.88 2.16,-0.88 3.76,-2.48 0.56,0.64 1.04,1.28 0.48,0.56 1.04,1.2 -2.08,1.92 -4.72,3.04 -2.64,1.12 -5.76,1.12 -3.28,0 -6.16,-1.2 -2.8,-1.28 -4.96,-3.36 -2.08,-2.08 -3.36,-4.88 -1.2,-2.88 -1.2,-6.16 0,-3.2 1.2,-6.08 1.28,-2.87999 3.36,-4.95999 2.16,-2.08 4.96,-3.28 2.88,-1.28 6.16,-1.28 2.4,0 4.56,0.88 2.16,0.8 3.92,2.32 1.84,1.44 3.2,3.52 1.36,1.99999 2.08,4.47999 z" />
    <path
       inkscape:connector-curvature="0"
       id="path915"
       style="font-style:normal;font-variant:normal;font-weight:normal;font-stretch:normal;font-size:80px;line-height:0px;font-family:'Josefin Slab';-inkscape-font-specification:'Josefin Slab';font-variant-ligatures:normal;font-variant-caps:normal;font-variant-numeric:normal;font-feature-settings:normal;text-align:end;letter-spacing:0px;word-spacing:0px;writing-mode:lr-tb;text-anchor:end;fill:#ffffff;fill-opacity:1;stroke:none"
       d="m 559.675,1007.4797 q 0,-3.2 1.2,-6 1.28,-2.87999 3.36,-4.95999 2.16,-2.16 5.04,-3.36 2.88,-1.28 6.16,-1.28 2.32,0 4.4,0.72 2.08,0.64 3.76,1.76 1.68,1.04 2.8,2.48 1.2,1.36 1.76,2.72 0,-1.76 0.08,-3.52 0.16,-1.76 0.24,-3.52 h 2.72 v 26.79999 h 5.92 v 3.2 h -8.96 v -3.2 q 0,-0.96 0,-1.84 0.08,-0.96 0.08,-1.84 -0.56,1.36 -1.76,2.72 -1.12,1.36 -2.8,2.4 -1.6,1.04 -3.76,1.68 -2.08,0.64 -4.48,0.64 -3.28,0 -6.16,-1.2 -2.88,-1.28 -5.04,-3.36 -2.08,-2.08 -3.36,-4.88 -1.2,-2.88 -1.2,-6.16 z m 3.36,0 q 0,2.56 0.96,4.8 0.96,2.24 2.56,3.92 1.68,1.68 3.92,2.64 2.32,0.96 4.96,0.96 2.64,0 4.88,-0.96 2.24,-0.96 3.92,-2.64 1.68,-1.68 2.64,-3.92 0.96,-2.24 0.96,-4.8 0,-2.56 -0.96,-4.8 -0.96,-2.32 -2.64,-3.99999 -1.68,-1.68 -3.92,-2.64 -2.24,-0.96 -4.88,-0.96 -2.64,0 -4.96,0.96 -2.24,0.96 -3.92,2.64 -1.6,1.67999 -2.56,3.99999 -0.96,2.24 -0.96,4.8 z" />
    <path
       inkscape:connector-curvature="0"
       id="path917"
       style="font-style:normal;font-variant:normal;font-weight:normal;font-stretch:normal;font-size:80px;line-height:0px;font-family:'Josefin Slab';-inkscape-font-specification:'Josefin Slab';font-variant-ligatures:normal;font-variant-caps:normal;font-variant-numeric:normal;font-feature-settings:normal;text-align:end;letter-spacing:0px;word-spacing:0px;writing-mode:lr-tb;text-anchor:end;fill:#ffffff;fill-opacity:1;stroke:none"
       d="m 602.64375,992.51971 h 9.2 v 20.79999 q 0.16,2.56 1.84,4.48 1.76,1.92 5.12,2.08 2.48,0 4.72,-0.8 2.24,-0.88 3.92,-2.32 1.68,-1.44 2.64,-3.44 1.04,-2 1.04,-4.4 v -13.19999 h -5.92 v -3.2 h 9.28 v 27.11999 h 5.68 v 2.88 h -8.64 l -0.16,-4.16 v -3.6 q -1.6,3.84 -5.2,6.16 -3.52,2.24 -7.92,2.24 -4.4,0 -6.96,-2.48 -2.56,-2.48 -2.72,-6.48 v -18.47999 h -5.92 z" />
    <path
       inkscape:connector-curvature="0"
       id="path919"
       style="font-style:normal;font-variant:normal;font-weight:normal;font-stretch:normal;font-size:80px;line-height:0px;font-family:'Josefin Slab';-inkscape-font-specification:'Josefin Slab';font-variant-ligatures:normal;font-variant-caps:normal;font-variant-numeric:normal;font-feature-settings:normal;text-align:end;letter-spacing:0px;word-spacing:0px;writing-mode:lr-tb;text-anchor:end;fill:#ffffff;fill-opacity:1;stroke:none"
       d="m 652.72875,972.99971 h 3.36 v 19.52 h 9.2 v 3.28 h -9.2 v 23.51999 h 6.56 v 3.2 h -9.92 v -26.71999 h -6.96 v -3.28 h 6.96 z" />
    <path
       inkscape:connector-curvature="0"
       id="path921"
       style="font-style:normal;font-variant:normal;font-weight:normal;font-stretch:normal;font-size:80px;line-height:0px;font-family:'Josefin Slab';-inkscape-font-specification:'Josefin Slab';font-variant-ligatures:normal;font-variant-caps:normal;font-variant-numeric:normal;font-feature-settings:normal;text-align:end;letter-spacing:0px;word-spacing:0px;writing-mode:lr-tb;text-anchor:end;fill:#ffffff;fill-opacity:1;stroke:none"
       d="m 693.485,1019.3197 h 6.24 v -17.6 q -0.16,-2.55999 -1.92,-4.47999 -1.68,-1.92 -5.04,-2.08 -2.4,0 -4.64,0.88 -2.24,0.8 -4,2.24 -1.68,1.44 -2.72,3.43999 -0.96,2 -0.96,4.4 v 13.2 h 5.92 v 3.2 h -15.44 v -3.2 h 6.24 v -53.59999 h -5.92 v -3.2 h 9.2 v 34.16 l -0.24,3.59999 q 1.68,-3.83999 5.12,-5.99999 3.52,-2.24 8.08,-2.4 4.4,0 6.96,2.48 2.56,2.48 2.72,6.47999 v 18.48 h 5.84 v 3.2 h -15.44 z" />
    <path
       inkscape:connector-curvature="0"
       id="path923"
       style="font-style:normal;font-variant:normal;font-weight:normal;font-stretch:normal;font-size:80px;line-height:0px;font-family:'Josefin Slab';-inkscape-font-specification:'Josefin Slab';font-variant-ligatures:normal;font-variant-caps:normal;font-variant-numeric:normal;font-feature-settings:normal;text-align:end;letter-spacing:0px;word-spacing:0px;writing-mode:lr-tb;text-anchor:end;fill:#ffffff;fill-opacity:1;stroke:none"
       d="m 714.59875,1007.4797 q 0,-3.2 1.2,-6.08 1.28,-2.87999 3.36,-4.95999 2.16,-2.16 4.96,-3.36 2.88,-1.28 6.16,-1.28 3.28,0 6.16,1.28 2.88,1.2 5.04,3.36 2.16,2.08 3.36,4.95999 1.28,2.88 1.28,6.08 0,3.28 -1.28,6.16 -1.2,2.8 -3.36,4.88 -2.16,2.08 -5.04,3.36 -2.88,1.2 -6.16,1.2 -3.28,0 -6.16,-1.2 -2.8,-1.28 -4.96,-3.36 -2.08,-2.08 -3.36,-4.88 -1.2,-2.88 -1.2,-6.16 z m 3.28,0 q 0,2.56 0.96,4.8 0.96,2.24 2.64,3.92 1.68,1.68 3.92,2.64 2.24,0.96 4.8,0.96 2.56,0 4.8,-0.96 2.32,-0.96 4,-2.64 1.68,-1.68 2.64,-3.92 0.96,-2.24 0.96,-4.8 0,-2.56 -0.96,-4.8 -0.96,-2.24 -2.64,-3.91999 -1.68,-1.68 -4,-2.64 -2.24,-1.04 -4.8,-1.04 -2.56,0 -4.8,1.04 -2.24,0.96 -3.92,2.64 -1.68,1.67999 -2.64,3.91999 -0.96,2.24 -0.96,4.8 z" />
    <path
       inkscape:connector-curvature="0"
       id="path925"
       style="font-style:normal;font-variant:normal;font-weight:normal;font-stretch:normal;font-size:80px;line-height:0px;font-family:'Josefin Slab';-inkscape-font-specification:'Josefin Slab';font-variant-ligatures:normal;font-variant-caps:normal;font-variant-numeric:normal;font-feature-settings:normal;text-align:end;letter-spacing:0px;word-spacing:0px;writing-mode:lr-tb;text-anchor:end;fill:#ffffff;fill-opacity:1;stroke:none"
       d="m 751.70625,1019.3197 h 6.24 v -23.59999 h -5.76 v -3.2 h 8.48 l 0.08,2.8 q 0.08,1.36 0.16,2.48 0.08,1.12 0.08,2.47999 1.84,-3.91999 5.36,-6.07999 3.6,-2.24 7.28,-2.32 l -0.24,3.28 q -2.56,0.08 -4.8,0.96 -2.16,0.8 -3.84,2.24 -1.6,1.44 -2.56,3.43999 -0.96,2 -0.96,4.32 v 13.2 h 5.92 v 3.2 h -15.44 z" />
    <path
       inkscape:connector-curvature="0"
       id="path927"
       style="font-style:normal;font-variant:normal;font-weight:normal;font-stretch:normal;font-size:80px;line-height:0px;font-family:'Josefin Slab';-inkscape-font-specification:'Josefin Slab';font-variant-ligatures:normal;font-variant-caps:normal;font-variant-numeric:normal;font-feature-settings:normal;text-align:end;letter-spacing:0px;word-spacing:0px;writing-mode:lr-tb;text-anchor:end;fill:#ffffff;fill-opacity:1;stroke:none"
       d="m 779.20625,1019.3197 h 6.16 v -23.59999 h -6.16 v -3.2 h 9.52 v 26.79999 h 5.92 v 3.2 h -15.44 z m 5.28,-37.43999 q 0,-1.12 0.8,-1.84 0.8,-0.8 1.84,-0.8 0.96,0 1.76,0.8 0.8,0.72 0.8,1.84 0,1.12 -0.8,1.92 -0.8,0.72 -1.76,0.72 -1.04,0 -1.84,-0.72 -0.8,-0.8 -0.8,-1.92 z" />
    <path
       inkscape:connector-curvature="0"
       id="path929"
       style="font-style:normal;font-variant:normal;font-weight:normal;font-stretch:normal;font-size:80px;line-height:0px;font-family:'Josefin Slab';-inkscape-font-specification:'Josefin Slab';font-variant-ligatures:normal;font-variant-caps:normal;font-variant-numeric:normal;font-feature-settings:normal;text-align:end;letter-spacing:0px;word-spacing:0px;writing-mode:lr-tb;text-anchor:end;fill:#ffffff;fill-opacity:1;stroke:none"
       d="m 822.86,1019.3197 h 6.24 v -17.6 q -0.16,-2.55999 -1.92,-4.47999 -1.68,-1.92 -5.04,-2.08 -2.4,0 -4.64,0.88 -2.24,0.8 -4,2.24 -1.68,1.44 -2.72,3.43999 -0.96,2 -0.96,4.4 v 13.2 h 5.92 v 3.2 H 800.3 v -3.2 h 6.24 v -23.59999 h -5.76 v -3.2 h 8.48 l 0.08,2.8 q 0.08,1.36 0.16,2.48 0.08,1.12 0.08,2.47999 1.6,-3.75999 5.12,-6.07999 3.6,-2.32 8.08,-2.32 4.4,0 6.96,2.48 2.56,2.48 2.72,6.47999 v 18.48 h 5.84 v 3.2 h -15.44 z" />
    <path
       inkscape:connector-curvature="0"
       id="path931"
       style="font-style:normal;font-variant:normal;font-weight:normal;font-stretch:normal;font-size:80px;line-height:0px;font-family:'Josefin Slab';-inkscape-font-specification:'Josefin Slab';font-variant-ligatures:normal;font-variant-caps:normal;font-variant-numeric:normal;font-feature-settings:normal;text-align:end;letter-spacing:0px;word-spacing:0px;writing-mode:lr-tb;text-anchor:end;fill:#ffffff;fill-opacity:1;stroke:none"
       d="m 872.69375,992.51971 h 8.72 v 3.2 h -6 v 29.59999 q 0,3.92 -1.2,7.04 -1.2,3.2 -3.28,5.44 -2.08,2.24 -4.88,3.44 -2.72,1.2 -5.92,1.28 -3.36,-0.08 -6.8,-1.28 -3.36,-1.2 -5.52,-3.52 l 2.4,-2.48 q 1.76,1.92 4.48,2.88 2.72,0.96 5.36,0.96 2.48,0 4.64,-1.04 2.24,-0.96 3.84,-2.8 1.6,-1.84 2.56,-4.48 0.96,-2.56 0.96,-5.68 v -5.76 q 0.08,-0.88 0.16,-1.76 0.08,-0.96 0.16,-1.84 -0.64,1.44 -1.84,2.8 -1.12,1.28 -2.8,2.32 -1.6,0.96 -3.68,1.6 -2.08,0.64 -4.4,0.64 -3.28,0 -6.16,-1.2 -2.88,-1.28 -5.04,-3.36 -2.08,-2.08 -3.36,-4.88 -1.2,-2.88 -1.2,-6.16 0,-3.2 1.2,-6 1.28,-2.87999 3.36,-4.95999 2.16,-2.16 5.04,-3.36 2.88,-1.28 6.16,-1.28 2.32,0 4.4,0.72 2.08,0.64 3.76,1.76 1.68,1.04 2.8,2.48 1.2,1.36 1.76,2.72 0,-1.76 0.08,-3.52 0.16,-1.76 0.24,-3.52 z m -25.44,14.95999 q 0,2.56 0.96,4.8 0.96,2.24 2.56,3.92 1.68,1.68 3.92,2.64 2.32,0.96 4.96,0.96 2.64,0 4.88,-0.96 2.24,-0.96 3.92,-2.64 1.68,-1.68 2.64,-3.92 0.96,-2.24 0.96,-4.8 0,-2.56 -0.96,-4.8 -0.96,-2.32 -2.64,-3.99999 -1.68,-1.68 -3.92,-2.64 -2.24,-0.96 -4.88,-0.96 -2.64,0 -4.96,0.96 -2.24,0.96 -3.92,2.64 -1.6,1.67999 -2.56,3.99999 -0.96,2.24 -0.96,4.8 z" />
    <path
       inkscape:connector-curvature="0"
       id="path933"
       style="font-style:normal;font-variant:normal;font-weight:normal;font-stretch:normal;font-size:80px;line-height:0px;font-family:'Josefin Slab';-inkscape-font-specification:'Josefin Slab';font-variant-ligatures:normal;font-variant-caps:normal;font-variant-numeric:normal;font-feature-settings:normal;text-align:end;letter-spacing:0px;word-spacing:0px;writing-mode:lr-tb;text-anchor:end;fill:#ffffff;fill-opacity:1;stroke:none"
       d="m 911.08125,1007.4797 q 0,-3.2 1.2,-6 1.28,-2.87999 3.36,-4.95999 2.16,-2.16 5.04,-3.36 2.88,-1.28 6.16,-1.28 2.32,0 4.4,0.72 2.08,0.64 3.76,1.76 1.68,1.04 2.8,2.48 1.2,1.36 1.76,2.72 0,-1.76 0.08,-3.52 0.16,-1.76 0.24,-3.52 h 2.72 v 26.79999 h 5.92 v 3.2 h -8.96 v -3.2 q 0,-0.96 0,-1.84 0.08,-0.96 0.08,-1.84 -0.56,1.36 -1.76,2.72 -1.12,1.36 -2.8,2.4 -1.6,1.04 -3.76,1.68 -2.08,0.64 -4.48,0.64 -3.28,0 -6.16,-1.2 -2.88,-1.28 -5.04,-3.36 -2.08,-2.08 -3.36,-4.88 -1.2,-2.88 -1.2,-6.16 z m 3.36,0 q 0,2.56 0.96,4.8 0.96,2.24 2.56,3.92 1.68,1.68 3.92,2.64 2.32,0.96 4.96,0.96 2.64,0 4.88,-0.96 2.24,-0.96 3.92,-2.64 1.68,-1.68 2.64,-3.92 0.96,-2.24 0.96,-4.8 0,-2.56 -0.96,-4.8 -0.96,-2.32 -2.64,-3.99999 -1.68,-1.68 -3.92,-2.64 -2.24,-0.96 -4.88,-0.96 -2.64,0 -4.96,0.96 -2.24,0.96 -3.92,2.64 -1.6,1.67999 -2.56,3.99999 -0.96,2.24 -0.96,4.8 z" />
    <path
       inkscape:connector-curvature="0"
       id="path935"
       style="font-style:normal;font-variant:normal;font-weight:normal;font-stretch:normal;font-size:80px;line-height:0px;font-family:'Josefin Slab';-inkscape-font-specification:'Josefin Slab';font-variant-ligatures:normal;font-variant-caps:normal;font-variant-numeric:normal;font-feature-settings:normal;text-align:end;letter-spacing:0px;word-spacing:0px;writing-mode:lr-tb;text-anchor:end;fill:#ffffff;fill-opacity:1;stroke:none"
       d="m 976.61,1019.3197 h 6.24 v -17.6 q -0.16,-2.55999 -1.92,-4.47999 -1.68,-1.92 -5.04,-2.08 -2.4,0 -4.64,0.88 -2.24,0.8 -4,2.24 -1.68,1.44 -2.72,3.43999 -0.96,2 -0.96,4.4 v 13.2 h 5.92 v 3.2 h -15.44 v -3.2 h 6.24 v -23.59999 h -5.76 v -3.2 h 8.48 l 0.08,2.8 q 0.08,1.36 0.16,2.48 0.08,1.12 0.08,2.47999 1.6,-3.75999 5.12,-6.07999 3.6,-2.32 8.08,-2.32 4.4,0 6.96,2.48 2.56,2.48 2.72,6.47999 v 18.48 h 5.84 v 3.2 h -15.44 z" />
    <path
       inkscape:connector-curvature="0"
       id="path937"
       style="font-style:normal;font-variant:normal;font-weight:normal;font-stretch:normal;font-size:80px;line-height:0px;font-family:'Josefin Slab';-inkscape-font-specification:'Josefin Slab';font-variant-ligatures:normal;font-variant-caps:normal;font-variant-numeric:normal;font-feature-settings:normal;text-align:end;letter-spacing:0px;word-spacing:0px;writing-mode:lr-tb;text-anchor:end;fill:#ffffff;fill-opacity:1;stroke:none"
       d="m 1026.1238,1019.3197 q 0,-0.96 0,-1.84 0.08,-0.96 0.08,-1.84 -0.56,1.36 -1.76,2.72 -1.12,1.36 -2.8001,2.4 -1.5999,1.04 -3.76,1.68 -2.0799,0.64 -4.48,0.64 -3.28,0 -6.16,-1.2 -2.88,-1.28 -5.0399,-3.36 -2.0801,-2.08 -3.36005,-4.88 -1.2,-2.88 -1.2,-6.16 0,-3.2 1.2,-6 1.27995,-2.87999 3.36005,-4.95999 2.1599,-2.16 5.0399,-3.36 2.88,-1.28 6.16,-1.28 2.32,0 4.32,0.64 2.0801,0.64 3.76,1.76 1.6801,1.04 2.8801,2.4 1.2,1.36 1.76,2.8 -0.08,-1.68 -0.1601,-3.36 -0.08,-1.68 -0.1599,-3.36 v -27.04 h -5.6 v -3.2 h 8.96 v 56.79999 h 5.92 v 3.2 h -8.96 z m -25.1201,-11.84 q 0,2.56 0.96,4.8 0.9601,2.24 2.56,3.92 1.6801,1.68 3.9201,2.64 2.3199,0.96 4.9599,0.96 2.6401,0 4.8801,-0.96 2.2399,-0.96 3.92,-2.64 1.6799,-1.68 2.64,-3.92 0.96,-2.24 0.96,-4.8 0,-2.56 -0.96,-4.8 -0.9601,-2.32 -2.64,-3.99999 -1.6801,-1.68 -3.92,-2.64 -2.24,-0.96 -4.8801,-0.96 -2.64,0 -4.9599,0.96 -2.24,0.96 -3.9201,2.64 -1.5999,1.67999 -2.56,3.99999 -0.96,2.24 -0.96,4.8 z" />
    <path
       inkscape:connector-curvature="0"
       id="path939"
       style="font-style:normal;font-variant:normal;font-weight:normal;font-stretch:normal;font-size:80px;line-height:0px;font-family:'Josefin Slab';-inkscape-font-specification:'Josefin Slab';font-variant-ligatures:normal;font-variant-caps:normal;font-variant-numeric:normal;font-feature-settings:normal;text-align:end;letter-spacing:0px;word-spacing:0px;writing-mode:lr-tb;text-anchor:end;fill:#ffffff;fill-opacity:1;stroke:none"
       d="m 1064.675,1019.3197 h 6.24 v -23.59999 h -5.76 v -3.2 h 8.48 l 0.08,2.8 q 0.08,1.36 0.16,2.48 0.08,1.12 0.08,2.47999 1.84,-3.91999 5.36,-6.07999 3.6,-2.24 7.28,-2.32 l -0.24,3.28 q -2.56,0.08 -4.8,0.96 -2.16,0.8 -3.84,2.24 -1.6,1.44 -2.56,3.43999 -0.96,2 -0.96,4.32 v 13.2 h 5.92 v 3.2 h -15.44 z" />
    <path
       inkscape:connector-curvature="0"
       id="path941"
       style="font-style:normal;font-variant:normal;font-weight:normal;font-stretch:normal;font-size:80px;line-height:0px;font-family:'Josefin Slab';-inkscape-font-specification:'Josefin Slab';font-variant-ligatures:normal;font-variant-caps:normal;font-variant-numeric:normal;font-feature-settings:normal;text-align:end;letter-spacing:0px;word-spacing:0px;writing-mode:lr-tb;text-anchor:end;fill:#ffffff;fill-opacity:1;stroke:none"
       d="m 1107.855,995.07971 q -2.96,0 -5.44,1.28 -2.4,1.2 -4.08,3.28 -1.68,1.99999 -2.4,4.71999 -0.64,2.64 -0.08,5.44 5.36,-2.16 10.72,-4.24 5.36,-2.16 10.8,-4.32 -1.36,-2.71999 -3.92,-4.39999 -2.56,-1.76 -5.6,-1.76 z m 13.76,7.99999 q -6.24,2.48 -12.4,4.96 -6.16,2.4 -12.4,4.88 1.36,3.04 4.32,4.96 2.96,1.92 6.72,1.92 2.48,0 4.64,-0.88 2.16,-0.88 3.76,-2.48 0.56,0.64 1.04,1.28 0.48,0.56 1.04,1.2 -2.08,1.92 -4.72,3.04 -2.64,1.12 -5.76,1.12 -3.28,0 -6.16,-1.2 -2.8,-1.28 -4.96,-3.36 -2.08,-2.08 -3.36,-4.88 -1.2,-2.88 -1.2,-6.16 0,-3.2 1.2,-6.08 1.28,-2.87999 3.36,-4.95999 2.16,-2.08 4.96,-3.28 2.88,-1.28 6.16,-1.28 2.4,0 4.56,0.88 2.16,0.8 3.92,2.32 1.84,1.44 3.2,3.52 1.36,1.99999 2.08,4.47999 z" />
    <path
       inkscape:connector-curvature="0"
       id="path943"
       style="font-style:normal;font-variant:normal;font-weight:normal;font-stretch:normal;font-size:80px;line-height:0px;font-family:'Josefin Slab';-inkscape-font-specification:'Josefin Slab';font-variant-ligatures:normal;font-variant-caps:normal;font-variant-numeric:normal;font-feature-settings:normal;text-align:end;letter-spacing:0px;word-spacing:0px;writing-mode:lr-tb;text-anchor:end;fill:#ffffff;fill-opacity:1;stroke:none"
       d="m 1131.8875,1014.2797 v 4.08 q 1.44,1.04 3.12,1.28 1.76,0.24 3.44,0.24 0.72,0 1.76,-0.24 1.04,-0.32 2,-0.96 0.96,-0.72 1.68,-1.76 0.72,-1.04 0.72,-2.56 0,-2.08 -1.04,-3.2 -1.04,-1.12 -2.72,-1.76 -1.6,-0.72 -3.52,-1.2 -1.92,-0.56 -3.6,-1.44 -1.6,-0.88 -2.72,-2.32 -1.12,-1.44 -1.12,-4.08 0,-2.07999 0.8,-3.59999 0.8,-1.6 2,-2.64 1.28,-1.04 2.8,-1.52 1.6,-0.56 3.04,-0.56 0.32,0 1.28,0.08 1.04,0.08 2.32,0.4 1.28,0.24 2.48,0.8 1.28,0.56 2.16,1.52 v 5.91999 h -3.04 v -4.23999 q -0.56,-0.48 -1.36,-0.72 -0.8,-0.24 -1.6,-0.32 -0.72,-0.16 -1.36,-0.16 -0.56,0 -0.8,0 -0.96,0 -1.92,0.32 -0.96,0.24 -1.76,0.88 -0.8,0.56 -1.28,1.52 -0.4,0.88 -0.4,2.23999 0,1.76 1.12,2.8 1.12,0.96 2.72,1.68 1.68,0.64 3.52,1.28 1.92,0.56 3.52,1.52 1.68,0.96 2.72,2.48 1.12,1.52 1.12,4.08 0,1.36 -0.56,2.96 -0.48,1.52 -1.6,2.88 -1.12,1.36 -3.04,2.32 -1.84,0.88 -4.48,0.88 -0.8,0 -2.08,-0.16 -1.2,-0.08 -2.56,-0.4 -1.36,-0.32 -2.64,-0.88 -1.28,-0.56 -2.16,-1.52 v -5.92 z" />
    <path
       inkscape:connector-curvature="0"
       id="path945"
       style="font-style:normal;font-variant:normal;font-weight:normal;font-stretch:normal;font-size:80px;line-height:0px;font-family:'Josefin Slab';-inkscape-font-specification:'Josefin Slab';font-variant-ligatures:normal;font-variant-caps:normal;font-variant-numeric:normal;font-feature-settings:normal;text-align:end;letter-spacing:0px;word-spacing:0px;writing-mode:lr-tb;text-anchor:end;fill:#ffffff;fill-opacity:1;stroke:none"
       d="m 1175.8288,1019.3197 h 6.24 v -17.6 q -0.16,-2.55999 -1.92,-4.47999 -1.68,-1.92 -5.04,-2.08 -2.4,0 -4.64,0.88 -2.24,0.8 -4,2.24 -1.68,1.44 -2.72,3.43999 -0.96,2 -0.96,4.4 v 13.2 h 5.92 v 3.2 h -15.44 v -3.2 h 6.24 v -53.59999 h -5.9201 v -3.2 h 9.2001 v 34.16 l -0.24,3.59999 q 1.68,-3.83999 5.12,-5.99999 3.52,-2.24 8.08,-2.4 4.4,0 6.96,2.48 2.56,2.48 2.72,6.47999 v 18.48 h 5.84 v 3.2 h -15.44 z" />
    <path
       inkscape:connector-curvature="0"
       id="path947"
       style="font-style:normal;font-variant:normal;font-weight:normal;font-stretch:normal;font-size:80px;line-height:0px;font-family:'Josefin Slab';-inkscape-font-specification:'Josefin Slab';font-variant-ligatures:normal;font-variant-caps:normal;font-variant-numeric:normal;font-feature-settings:normal;text-align:end;letter-spacing:0px;word-spacing:0px;writing-mode:lr-tb;text-anchor:end;fill:#ffffff;fill-opacity:1;stroke:none"
       d="m 1196.8625,1007.4797 q 0,-3.2 1.2,-6 1.28,-2.87999 3.36,-4.95999 2.16,-2.16 5.04,-3.36 2.88,-1.28 6.16,-1.28 2.32,0 4.4,0.72 2.08,0.64 3.76,1.76 1.68,1.04 2.8,2.48 1.2,1.36 1.76,2.72 0,-1.76 0.08,-3.52 0.16,-1.76 0.24,-3.52 h 2.72 v 26.79999 h 5.92 v 3.2 h -8.96 v -3.2 q 0,-0.96 0,-1.84 0.08,-0.96 0.08,-1.84 -0.56,1.36 -1.76,2.72 -1.12,1.36 -2.8,2.4 -1.6,1.04 -3.76,1.68 -2.08,0.64 -4.48,0.64 -3.28,0 -6.16,-1.2 -2.88,-1.28 -5.04,-3.36 -2.08,-2.08 -3.36,-4.88 -1.2,-2.88 -1.2,-6.16 z m 3.36,0 q 0,2.56 0.96,4.8 0.96,2.24 2.56,3.92 1.68,1.68 3.92,2.64 2.32,0.96 4.96,0.96 2.64,0 4.88,-0.96 2.24,-0.96 3.92,-2.64 1.68,-1.68 2.64,-3.92 0.96,-2.24 0.96,-4.8 0,-2.56 -0.96,-4.8 -0.96,-2.32 -2.64,-3.99999 -1.68,-1.68 -3.92,-2.64 -2.24,-0.96 -4.88,-0.96 -2.64,0 -4.96,0.96 -2.24,0.96 -3.92,2.64 -1.6,1.67999 -2.56,3.99999 -0.96,2.24 -0.96,4.8 z" />
    <path
       inkscape:connector-curvature="0"
       id="path949"
       style="font-style:normal;font-variant:normal;font-weight:normal;font-stretch:normal;font-size:80px;line-height:0px;font-family:'Josefin Slab';-inkscape-font-specification:'Josefin Slab';font-variant-ligatures:normal;font-variant-caps:normal;font-variant-numeric:normal;font-feature-settings:normal;text-align:end;letter-spacing:0px;word-spacing:0px;writing-mode:lr-tb;text-anchor:end;fill:#ffffff;fill-opacity:1;stroke:none"
       d="m 1240.4713,1039.3197 h 5.36 v -43.59999 h -6 v -3.2 h 8.64 q 0,1.76 0.08,3.6 0.16,1.84 0.24,3.6 0.56,-1.44 1.68,-2.8 1.2,-1.44 2.88,-2.48 1.68,-1.12 3.76,-1.76 2.16,-0.72 4.48,-0.72 3.28,0 6.16,1.28 2.88,1.2 4.96,3.28 2.16,2.08 3.36,4.95999 1.2,2.88 1.2,6.08 0,3.2 -1.2,6.08 -1.2,2.8 -3.36,4.96 -2.08,2.08 -4.96,3.36 -2.88,1.2 -6.16,1.2 -2.4,0 -4.48,-0.64 -2.08,-0.64 -3.76,-1.6 -1.6,-1.04 -2.8,-2.32 -1.12,-1.36 -1.68,-2.8 0.08,0.8 0.16,1.6 0.08,0.8 0.16,1.6 v 20.32 h 6.72 v 3.2 h -15.44 z m 33.44,-31.76 q 0,-2.64 -0.96,-4.88 -0.96,-2.24 -2.64,-3.83999 -1.6,-1.68 -3.84,-2.64 -2.24,-0.96 -4.88,-0.96 -2.64,0 -4.96,0.96 -2.24,0.96 -3.92,2.64 -1.68,1.59999 -2.64,3.83999 -0.96,2.24 -0.96,4.88 0,2.56 0.96,4.88 0.96,2.24 2.64,3.92 1.68,1.68 3.92,2.64 2.32,0.96 4.96,0.96 2.64,0 4.88,-0.96 2.24,-0.96 3.84,-2.64 1.68,-1.68 2.64,-3.92 0.96,-2.32 0.96,-4.88 z" />
    <path
       inkscape:connector-curvature="0"
       id="path951"
       style="font-style:normal;font-variant:normal;font-weight:normal;font-stretch:normal;font-size:80px;line-height:0px;font-family:'Josefin Slab';-inkscape-font-specification:'Josefin Slab';font-variant-ligatures:normal;font-variant-caps:normal;font-variant-numeric:normal;font-feature-settings:normal;text-align:end;letter-spacing:0px;word-spacing:0px;writing-mode:lr-tb;text-anchor:end;fill:#ffffff;fill-opacity:1;stroke:none"
       d="m 1282.8,1019.3197 h 6.16 v -23.59999 h -6.16 v -3.2 h 9.52 v 26.79999 h 5.92 v 3.2 h -15.44 z m 5.28,-37.43999 q 0,-1.12 0.8,-1.84 0.8,-0.8 1.84,-0.8 0.96,0 1.76,0.8 0.8,0.72 0.8,1.84 0,1.12 -0.8,1.92 -0.8,0.72 -1.76,0.72 -1.04,0 -1.84,-0.72 -0.8,-0.8 -0.8,-1.92 z" />
    <path
       inkscape:connector-curvature="0"
       id="path953"
       style="font-style:normal;font-variant:normal;font-weight:normal;font-stretch:normal;font-size:80px;line-height:0px;font-family:'Josefin Slab';-inkscape-font-specification:'Josefin Slab';font-variant-ligatures:normal;font-variant-caps:normal;font-variant-numeric:normal;font-feature-settings:normal;text-align:end;letter-spacing:0px;word-spacing:0px;writing-mode:lr-tb;text-anchor:end;fill:#ffffff;fill-opacity:1;stroke:none"
       d="m 1326.4538,1019.3197 h 6.24 v -17.6 q -0.16,-2.55999 -1.92,-4.47999 -1.68,-1.92 -5.04,-2.08 -2.4,0 -4.64,0.88 -2.24,0.8 -4,2.24 -1.68,1.44 -2.72,3.43999 -0.96,2 -0.96,4.4 v 13.2 h 5.92 v 3.2 h -15.44 v -3.2 h 6.24 v -23.59999 h -5.76 v -3.2 h 8.48 l 0.08,2.8 q 0.08,1.36 0.16,2.48 0.08,1.12 0.08,2.47999 1.6,-3.75999 5.12,-6.07999 3.6,-2.32 8.08,-2.32 4.4,0 6.96,2.48 2.56,2.48 2.72,6.47999 v 18.48 h 5.84 v 3.2 h -15.44 z" />
    <path
       inkscape:connector-curvature="0"
       id="path955"
       style="font-style:normal;font-variant:normal;font-weight:normal;font-stretch:normal;font-size:80px;line-height:0px;font-family:'Josefin Slab';-inkscape-font-specification:'Josefin Slab';font-variant-ligatures:normal;font-variant-caps:normal;font-variant-numeric:normal;font-feature-settings:normal;text-align:end;letter-spacing:0px;word-spacing:0px;writing-mode:lr-tb;text-anchor:end;fill:#ffffff;fill-opacity:1;stroke:none"
       d="m 1376.2875,992.51971 h 8.72 v 3.2 h -6 v 29.59999 q 0,3.92 -1.2,7.04 -1.2,3.2 -3.28,5.44 -2.08,2.24 -4.88,3.44 -2.72,1.2 -5.92,1.28 -3.36,-0.08 -6.8,-1.28 -3.36,-1.2 -5.52,-3.52 l 2.4,-2.48 q 1.76,1.92 4.48,2.88 2.72,0.96 5.36,0.96 2.48,0 4.64,-1.04 2.24,-0.96 3.84,-2.8 1.6,-1.84 2.56,-4.48 0.96,-2.56 0.96,-5.68 v -5.76 q 0.08,-0.88 0.16,-1.76 0.08,-0.96 0.16,-1.84 -0.64,1.44 -1.84,2.8 -1.12,1.28 -2.8,2.32 -1.6,0.96 -3.68,1.6 -2.08,0.64 -4.4,0.64 -3.28,0 -6.16,-1.2 -2.88,-1.28 -5.04,-3.36 -2.08,-2.08 -3.36,-4.88 -1.2,-2.88 -1.2,-6.16 0,-3.2 1.2,-6 1.28,-2.87999 3.36,-4.95999 2.16,-2.16 5.04,-3.36 2.88,-1.28 6.16,-1.28 2.32,0 4.4,0.72 2.08,0.64 3.76,1.76 1.68,1.04 2.8,2.48 1.2,1.36 1.76,2.72 0,-1.76 0.08,-3.52 0.16,-1.76 0.24,-3.52 z m -25.44,14.95999 q 0,2.56 0.96,4.8 0.96,2.24 2.56,3.92 1.68,1.68 3.92,2.64 2.32,0.96 4.96,0.96 2.64,0 4.88,-0.96 2.24,-0.96 3.92,-2.64 1.68,-1.68 2.64,-3.92 0.96,-2.24 0.96,-4.8 0,-2.56 -0.96,-4.8 -0.96,-2.32 -2.64,-3.99999 -1.68,-1.68 -3.92,-2.64 -2.24,-0.96 -4.88,-0.96 -2.64,0 -4.96,0.96 -2.24,0.96 -3.92,2.64 -1.6,1.67999 -2.56,3.99999 -0.96,2.24 -0.96,4.8 z" />
    <path
       inkscape:connector-curvature="0"
       id="path957"
       style="font-style:normal;font-variant:normal;font-weight:normal;font-stretch:normal;font-size:80px;line-height:0px;font-family:'Josefin Slab';-inkscape-font-specification:'Josefin Slab';font-variant-ligatures:normal;font-variant-caps:normal;font-variant-numeric:normal;font-feature-settings:normal;text-align:end;letter-spacing:0px;word-spacing:0px;writing-mode:lr-tb;text-anchor:end;fill:#ffffff;fill-opacity:1;stroke:none"
       d="m 1414.755,1007.4797 q 0,-3.2 1.2,-6.08 1.28,-2.87999 3.36,-4.95999 2.16,-2.16 4.96,-3.36 2.88,-1.28 6.16,-1.28 3.28,0 6.16,1.28 2.88,1.2 5.04,3.36 2.16,2.08 3.36,4.95999 1.28,2.88 1.28,6.08 0,3.28 -1.28,6.16 -1.2,2.8 -3.36,4.88 -2.16,2.08 -5.04,3.36 -2.88,1.2 -6.16,1.2 -3.28,0 -6.16,-1.2 -2.8,-1.28 -4.96,-3.36 -2.08,-2.08 -3.36,-4.88 -1.2,-2.88 -1.2,-6.16 z m 3.28,0 q 0,2.56 0.96,4.8 0.96,2.24 2.64,3.92 1.68,1.68 3.92,2.64 2.24,0.96 4.8,0.96 2.56,0 4.8,-0.96 2.32,-0.96 4,-2.64 1.68,-1.68 2.64,-3.92 0.96,-2.24 0.96,-4.8 0,-2.56 -0.96,-4.8 -0.96,-2.24 -2.64,-3.91999 -1.68,-1.68 -4,-2.64 -2.24,-1.04 -4.8,-1.04 -2.56,0 -4.8,1.04 -2.24,0.96 -3.92,2.64 -1.68,1.67999 -2.64,3.91999 -0.96,2.24 -0.96,4.8 z" />
    <path
       inkscape:connector-curvature="0"
       id="path959"
       style="font-style:normal;font-variant:normal;font-weight:normal;font-stretch:normal;font-size:80px;line-height:0px;font-family:'Josefin Slab';-inkscape-font-specification:'Josefin Slab';font-variant-ligatures:normal;font-variant-caps:normal;font-variant-numeric:normal;font-feature-settings:normal;text-align:end;letter-spacing:0px;word-spacing:0px;writing-mode:lr-tb;text-anchor:end;fill:#ffffff;fill-opacity:1;stroke:none"
       d="m 1451.8625,1019.3197 h 4.88 v -23.51999 h -4.88 v -3.28 h 4.88 v -11.44 q 0,-4.4 1.28,-7.84 1.28,-3.44 3.52,-5.76 2.24,-2.32 5.28,-3.52 3.04,-1.28 6.48,-1.44 v 3.2 q -2.72,0.08 -5.2,1.12 -2.4,1.04 -4.24,3.04 -1.76,2 -2.8,4.8 -1.04,2.8 -1.04,6.32 v 11.52 h 10 v 3.28 h -10 v 23.51999 h 7.28 v 3.2 h -15.44 z" />
    <path
       inkscape:connector-curvature="0"
       id="path961"
       style="font-style:normal;font-variant:normal;font-weight:normal;font-stretch:normal;font-size:80px;line-height:0px;font-family:'Josefin Slab';-inkscape-font-specification:'Josefin Slab';font-variant-ligatures:normal;font-variant-caps:normal;font-variant-numeric:normal;font-feature-settings:normal;text-align:end;letter-spacing:0px;word-spacing:0px;writing-mode:lr-tb;text-anchor:end;fill:#ffffff;fill-opacity:1;stroke:none"
       d="m 1522.7038,1019.3197 h 6.24 v -17.6 q -0.16,-2.55999 -1.92,-4.47999 -1.68,-1.92 -5.04,-2.08 -2.4,0 -4.64,0.88 -2.24,0.8 -4,2.24 -1.68,1.44 -2.72,3.43999 -0.96,2 -0.96,4.4 v 13.2 h 5.92 v 3.2 h -15.44 v -3.2 h 6.24 v -23.59999 h -5.76 v -3.2 h 8.48 l 0.08,2.8 q 0.08,1.36 0.16,2.48 0.08,1.12 0.08,2.47999 1.6,-3.75999 5.12,-6.07999 3.6,-2.32 8.08,-2.32 4.4,0 6.96,2.48 2.56,2.48 2.72,6.47999 v 18.48 h 5.84 v 3.2 h -15.44 z" />
    <path
       inkscape:connector-curvature="0"
       id="path963"
       style="font-style:normal;font-variant:normal;font-weight:normal;font-stretch:normal;font-size:80px;line-height:0px;font-family:'Josefin Slab';-inkscape-font-specification:'Josefin Slab';font-variant-ligatures:normal;font-variant-caps:normal;font-variant-numeric:normal;font-feature-settings:normal;text-align:end;letter-spacing:0px;word-spacing:0px;writing-mode:lr-tb;text-anchor:end;fill:#ffffff;fill-opacity:1;stroke:none"
       d="m 1559.4175,995.07971 q -2.96,0 -5.44,1.28 -2.4,1.2 -4.08,3.28 -1.68,1.99999 -2.4,4.71999 -0.64,2.64 -0.08,5.44 5.36,-2.16 10.72,-4.24 5.36,-2.16 10.8,-4.32 -1.36,-2.71999 -3.92,-4.39999 -2.56,-1.76 -5.6,-1.76 z m 13.76,7.99999 q -6.24,2.48 -12.4,4.96 -6.16,2.4 -12.4,4.88 1.36,3.04 4.32,4.96 2.96,1.92 6.72,1.92 2.48,0 4.64,-0.88 2.16,-0.88 3.76,-2.48 0.56,0.64 1.04,1.28 0.48,0.56 1.04,1.2 -2.08,1.92 -4.72,3.04 -2.64,1.12 -5.76,1.12 -3.28,0 -6.16,-1.2 -2.8,-1.28 -4.96,-3.36 -2.08,-2.08 -3.36,-4.88 -1.2,-2.88 -1.2,-6.16 0,-3.2 1.2,-6.08 1.28,-2.87999 3.36,-4.95999 2.16,-2.08 4.96,-3.28 2.88,-1.28 6.16,-1.28 2.4,0 4.56,0.88 2.16,0.8 3.92,2.32 1.84,1.44 3.2,3.52 1.36,1.99999 2.08,4.47999 z" />
    <path
       inkscape:connector-curvature="0"
       id="path965"
       style="font-style:normal;font-variant:normal;font-weight:normal;font-stretch:normal;font-size:80px;line-height:0px;font-family:'Josefin Slab';-inkscape-font-specification:'Josefin Slab';font-variant-ligatures:normal;font-variant-caps:normal;font-variant-numeric:normal;font-feature-settings:normal;text-align:end;letter-spacing:0px;word-spacing:0px;writing-mode:lr-tb;text-anchor:end;fill:#ffffff;fill-opacity:1;stroke:none"
       d="m 1586.01,972.99971 h 3.36 v 19.52 h 9.2 v 3.28 h -9.2 v 23.51999 h 6.56 v 3.2 h -9.92 v -26.71999 h -6.96 v -3.28 h 6.96 z" />
    <path
       inkscape:connector-curvature="0"
       id="path968"
       style="font-style:normal;font-variant:normal;font-weight:normal;font-stretch:normal;font-size:80px;line-height:0px;font-family:'Josefin Slab';-inkscape-font-specification:'Josefin Slab';font-variant-ligatures:normal;font-variant-caps:normal;font-variant-numeric:normal;font-feature-settings:normal;text-align:end;letter-spacing:0px;word-spacing:0px;writing-mode:lr-tb;text-anchor:end;fill:#ffffff;fill-opacity:1;stroke:none"
       d="m 1652.9263,992.51971 h 13.52 v 3.2 h -5.52 q -3.6,7.27999 -7.2,14.39999 -3.52,7.04 -7.12,14.24 l -10.88,-21.76 -10.88,21.76 q -3.6,-7.2 -7.2,-14.24 -3.52,-7.12 -7.1201,-14.39999 h -6.3199 v -3.2 h 14.3199 v 3.2 h -4.6399 q 2.8,5.67999 5.6,11.35999 2.8,5.6 5.36,11.2 1.92,-4.16 3.92,-8.24 2,-4.16 4.08,-8.32 -0.4,-1.52 -0.8,-2.95999 -0.4,-1.52 -0.8,-3.04 h -5.12 v -3.2 h 14.8 v 3.2 h -5.28 q 2.8,5.67999 5.6,11.35999 2.8,5.6 5.36,11.2 2.64,-5.68 5.36,-11.28 2.8,-5.6 5.6,-11.27999 h -4.64 z" />
    <path
       inkscape:connector-curvature="0"
       id="path971"
       style="font-style:normal;font-variant:normal;font-weight:normal;font-stretch:normal;font-size:80px;line-height:0px;font-family:'Josefin Slab';-inkscape-font-specification:'Josefin Slab';font-variant-ligatures:normal;font-variant-caps:normal;font-variant-numeric:normal;font-feature-settings:normal;text-align:end;letter-spacing:0px;word-spacing:0px;writing-mode:lr-tb;text-anchor:end;fill:#ffffff;fill-opacity:1;stroke:none"
       d="m 1672.0988,1007.4797 q 0,-3.2 1.2,-6.08 1.28,-2.87999 3.36,-4.95999 2.16,-2.16 4.96,-3.36 2.88,-1.28 6.16,-1.28 3.28,0 6.16,1.28 2.88,1.2 5.04,3.36 2.16,2.08 3.3599,4.95999 1.2801,2.88 1.2801,6.08 0,3.28 -1.2801,6.16 -1.1999,2.8 -3.3599,4.88 -2.16,2.08 -5.04,3.36 -2.88,1.2 -6.16,1.2 -3.28,0 -6.16,-1.2 -2.8,-1.28 -4.96,-3.36 -2.08,-2.08 -3.36,-4.88 -1.2,-2.88 -1.2,-6.16 z m 3.28,0 q 0,2.56 0.9599,4.8 0.9601,2.24 2.6401,3.92 1.68,1.68 3.92,2.64 2.24,0.96 4.8,0.96 2.56,0 4.8,-0.96 2.32,-0.96 4,-2.64 1.68,-1.68 2.64,-3.92 0.96,-2.24 0.96,-4.8 0,-2.56 -0.96,-4.8 -0.96,-2.24 -2.64,-3.91999 -1.68,-1.68 -4,-2.64 -2.24,-1.04 -4.8,-1.04 -2.56,0 -4.8,1.04 -2.24,0.96 -3.92,2.64 -1.68,1.67999 -2.6401,3.91999 -0.9599,2.24 -0.9599,4.8 z" />
    <path
       inkscape:connector-curvature="0"
       id="path973"
       style="font-style:normal;font-variant:normal;font-weight:normal;font-stretch:normal;font-size:80px;line-height:0px;font-family:'Josefin Slab';-inkscape-font-specification:'Josefin Slab';font-variant-ligatures:normal;font-variant-caps:normal;font-variant-numeric:normal;font-feature-settings:normal;text-align:end;letter-spacing:0px;word-spacing:0px;writing-mode:lr-tb;text-anchor:end;fill:#ffffff;fill-opacity:1;stroke:none"
       d="m 1709.2063,1019.3197 h 6.24 v -23.59999 h -5.76 v -3.2 h 8.48 l 0.08,2.8 q 0.08,1.36 0.16,2.48 0.08,1.12 0.08,2.47999 1.84,-3.91999 5.36,-6.07999 3.6,-2.24 7.28,-2.32 l -0.24,3.28 q -2.56,0.08 -4.8,0.96 -2.16,0.8 -3.84,2.24 -1.6,1.44 -2.56,3.43999 -0.96,2 -0.96,4.32 v 13.2 h 5.92 v 3.2 h -15.44 z" />
    <path
       inkscape:connector-curvature="0"
       id="path975"
       style="font-style:normal;font-variant:normal;font-weight:normal;font-stretch:normal;font-size:80px;line-height:0px;font-family:'Josefin Slab';-inkscape-font-specification:'Josefin Slab';font-variant-ligatures:normal;font-variant-caps:normal;font-variant-numeric:normal;font-feature-settings:normal;text-align:end;letter-spacing:0px;word-spacing:0px;writing-mode:lr-tb;text-anchor:end;fill:#ffffff;fill-opacity:1;stroke:none"
       d="m 1756.5463,1019.3197 h 3.84 q -2.32,-3.2 -4.72,-6.32 -2.32,-3.2 -4.6401,-6.4 l -5.1199,4.8 v 7.92 h 6.24 v 3.2 h -15.44 v -3.2 h 5.92 v -53.59999 h -5.68 v -3.2 h 8.96 v 44.79999 l 12.4,-11.59999 h -4.8 v -3.2 h 14.8 v 3.2 h -5.76 q -2.48,2.32 -4.56,4.31999 -2,2 -4.48,4.32 2.64,3.84 5.36,7.52 2.72,3.68 5.52,7.44 h 6.96 v 3.2 h -14.8 z" />
    <path
       inkscape:connector-curvature="0"
       id="path977"
       style="font-style:normal;font-variant:normal;font-weight:normal;font-stretch:normal;font-size:80px;line-height:0px;font-family:'Josefin Slab';-inkscape-font-specification:'Josefin Slab';font-variant-ligatures:normal;font-variant-caps:normal;font-variant-numeric:normal;font-feature-settings:normal;text-align:end;letter-spacing:0px;word-spacing:0px;writing-mode:lr-tb;text-anchor:end;fill:#ffffff;fill-opacity:1;stroke:none"
       d="m 1781.4188,1014.2797 v 4.08 q 1.44,1.04 3.12,1.28 1.76,0.24 3.44,0.24 0.72,0 1.76,-0.24 1.04,-0.32 2,-0.96 0.96,-0.72 1.68,-1.76 0.72,-1.04 0.72,-2.56 0,-2.08 -1.04,-3.2 -1.04,-1.12 -2.72,-1.76 -1.6,-0.72 -3.52,-1.2 -1.92,-0.56 -3.6,-1.44 -1.6,-0.88 -2.72,-2.32 -1.12,-1.44 -1.12,-4.08 0,-2.07999 0.8,-3.59999 0.8,-1.6 2,-2.64 1.28,-1.04 2.8,-1.52 1.6,-0.56 3.04,-0.56 0.32,0 1.2799,0.08 1.0401,0.08 2.3201,0.4 1.28,0.24 2.48,0.8 1.28,0.56 2.16,1.52 v 5.91999 h -3.04 v -4.23999 q -0.56,-0.48 -1.36,-0.72 -0.8,-0.24 -1.6,-0.32 -0.72,-0.16 -1.36,-0.16 -0.56,0 -0.8,0 -0.96,0 -1.92,0.32 -0.96,0.24 -1.76,0.88 -0.8,0.56 -1.28,1.52 -0.4,0.88 -0.4,2.23999 0,1.76 1.12,2.8 1.12,0.96 2.72,1.68 1.68,0.64 3.52,1.28 1.92,0.56 3.52,1.52 1.6799,0.96 2.72,2.48 1.12,1.52 1.12,4.08 0,1.36 -0.56,2.96 -0.48,1.52 -1.6001,2.88 -1.1199,1.36 -3.0399,2.32 -1.84,0.88 -4.48,0.88 -0.8,0 -2.08,-0.16 -1.2,-0.08 -2.56,-0.4 -1.36,-0.32 -2.64,-0.88 -1.28,-0.56 -2.16,-1.52 v -5.92 z" />
    <g
       id="g1059"
       transform="translate(312.0675,160)">
      <path
         id="path967"
         d="M 1020.8237,283.92982 909.39513,446.78696"
         style="fill:none;stroke:#ffffff;stroke-width:3;stroke-linecap:butt;stroke-linejoin:miter;stroke-miterlimit:4;stroke-dasharray:none;stroke-opacity:1"
         inkscape:connector-curvature="0" />
      <circle
         style="fill:#b3b3b3;fill-opacity:1;stroke:none;stroke-width:2;stroke-miterlimit:4;stroke-dasharray:1.99999995, 1.99999995;stroke-dashoffset:0;stroke-opacity:1"
         id="circle1051"
         cx="909.39514"
         cy="446.78696"
         r="10" />
    </g>
    <g
       id="g1063"
       transform="translate(312.0675,160)">
      <path
         id="path1023"
         d="M 1020.8237,283.92982 965.1094,452.50125"
         style="fill:none;stroke:#ffffff;stroke-width:3;stroke-linecap:butt;stroke-linejoin:miter;stroke-miterlimit:4;stroke-dasharray:none;stroke-opacity:1"
         inkscape:connector-curvature="0" />
      <circle
         r="10"
         cy="283.92981"
         cx="1020.8237"
         id="circle982"
         style="fill:#b3b3b3;fill-opacity:1;stroke:none;stroke-width:2;stroke-miterlimit:4;stroke-dasharray:1.99999995, 1.99999995;stroke-dashoffset:0;stroke-opacity:1" />
    </g>
    <g
       id="g1071"
       transform="translate(312.0675,160)">
      <path
         id="path1035"
         d="M 965.1094,452.50125 760.8237,555.35839"
         style="fill:none;stroke:#ffffff;stroke-width:3;stroke-linecap:butt;stroke-linejoin:miter;stroke-miterlimit:4;stroke-dasharray:none;stroke-opacity:1"
         inkscape:connector-curvature="0" />
      <circle
         style="fill:#b3b3b3;fill-opacity:1;stroke:none;stroke-width:2;stroke-miterlimit:4;stroke-dasharray:1.99999995, 1.99999995;stroke-dashoffset:0;stroke-opacity:1"
         id="circle972"
         cx="965.10944"
         cy="452.50122"
         r="10" />
    </g>
    <circle
       style="fill:#e6ab02;fill-opacity:1;stroke:none;stroke-width:2;stroke-miterlimit:4;stroke-dasharray:1.99999995, 1.99999995;stroke-dashoffset:0;stroke-opacity:1"
       id="path970"
       cx="1072.8912"
       cy="715.3584"
       r="10" />
  </g>
</svg>
