<?xml version="1.0" encoding="UTF-8" standalone="no"?>
<!-- Generator: Adobe Illustrator 19.2.1, SVG Export Plug-In . SVG Version: 6.00 Build 0)  -->

<svg
   xmlns:dc="http://purl.org/dc/elements/1.1/"
   xmlns:cc="http://creativecommons.org/ns#"
   xmlns:rdf="http://www.w3.org/1999/02/22-rdf-syntax-ns#"
   xmlns:svg="http://www.w3.org/2000/svg"
   xmlns="http://www.w3.org/2000/svg"
   xmlns:sodipodi="http://sodipodi.sourceforge.net/DTD/sodipodi-0.dtd"
   xmlns:inkscape="http://www.inkscape.org/namespaces/inkscape"
   version="1.1"
   id="Layer_1"
   x="0px"
   y="0px"
   viewBox="0 0 512 512"
   style="enable-background:new 0 0 512 512;"
   xml:space="preserve"
   sodipodi:docname="tinkertoys.svg"
   inkscape:version="0.92.3 (2405546, 2018-03-11)"><metadata
     id="metadata4582"><rdf:RDF><cc:Work
         rdf:about=""><dc:format>image/svg+xml</dc:format><dc:type
           rdf:resource="http://purl.org/dc/dcmitype/StillImage" /><dc:title></dc:title></cc:Work></rdf:RDF></metadata><defs
     id="defs4580" /><sodipodi:namedview
     pagecolor="#ffffff"
     bordercolor="#666666"
     borderopacity="1"
     objecttolerance="10"
     gridtolerance="10"
     guidetolerance="10"
     inkscape:pageopacity="0"
     inkscape:pageshadow="2"
     inkscape:window-width="1920"
     inkscape:window-height="1080"
     id="namedview4578"
     showgrid="false"
     inkscape:pagecheckerboard="true"
     inkscape:zoom="0.44921875"
     inkscape:cx="-74.374126"
     inkscape:cy="-457.04449"
     inkscape:window-x="1920"
     inkscape:window-y="0"
     inkscape:window-maximized="1"
     inkscape:current-layer="Layer_1"
     inkscape:snap-object-midpoints="true"
     inkscape:snap-intersection-paths="true"
     inkscape:snap-smooth-nodes="true"
     inkscape:snap-global="true" /><style
     type="text/css"
     id="style4569">
	.st0{fill:#ffffff;}
</style><path
     id="path2171"
     style="fill:#ffffff;fill-opacity:0;stroke:#000000;stroke-width:1;stroke-miterlimit:4;stroke-dasharray:none;stroke-dashoffset:0;stroke-opacity:1"
     d="m 213.68882,122.83702 a 8.9739122,3.1304348 86.794794 0 1 -2.6238,9.135 8.9739122,3.1304348 86.794794 0 1 -3.62728,-8.7849 8.9739122,3.1304348 86.794794 0 1 2.62378,-9.1349 8.9739122,3.1304348 86.794794 0 1 3.6273,8.7848 z m -27.30193,30.2774 a 5.7739129,8.2782602 84.561387 0 1 -7.69375,6.5325 5.7739129,8.2782602 84.561387 0 1 -8.78823,-4.9633 5.7739129,8.2782602 84.561387 0 1 7.69373,-6.5325 5.7739129,8.2782602 84.561387 0 1 8.78825,4.9633 z m -3.60406,-58.2356 a 7.1708328,4.3949576 5.5430101 0 1 -7.49127,3.7345 7.1708328,4.3949576 5.5430101 0 1 -6.79142,-5.0283 7.1708328,4.3949576 5.5430101 0 1 7.49128,-3.7345 7.1708328,4.3949576 5.5430101 0 1 6.79141,5.0283 z m -1.09982,30.0772 a 7.6521735,7.1652174 15.796649 0 1 -9.31372,4.8115 7.6521735,7.1652174 15.796649 0 1 -5.41265,-8.9777 7.6521735,7.1652174 15.796649 0 1 9.31374,-4.8115 7.6521735,7.1652174 15.796649 0 1 5.41263,8.9777 z m -10.16989,47.9075 c 0,0 4.73175,1.1618 8.37182,0.5716 3.64006,-0.5903 2.51978,-3.9385 5.58862,-4.0844 3.06883,-0.146 1.20473,3.2364 8.03957,3.5128 6.83486,0.2764 16.4,-0.2783 16.4,-0.2783 m -28.88287,-92.2696 c 2.1996,0.1011 3.4645,-1.8524 7.16077,-1.8349 3.69629,0.018 16.4,-0.2782 16.4,-0.2782 m -38.4,0.2782 c 0,0 8.12877,-1.3121 10.91138,0.079 2.7826,1.3913 3.92785,1.7558 3.92785,1.7558 m 7.16037,-1.835 c -3.61753,0.2025 -6.6611,4.8255 -8.77148,12.2383 2.20262,0.9781 3.48979,2.5702 3.36328,4.1601 -0.15133,1.8523 -2.18526,3.331 -5.08008,3.6934 -0.83916,5.1522 -1.34011,11.043 -1.41992,17.4102 4.05914,1.1554 6.47531,5.1698 5.4004,8.9726 -0.65627,2.3174 -2.51204,4.1277 -4.93946,4.8184 0.51302,6.6133 1.42842,12.8045 2.62696,18.3457 3.83671,0.2164 6.75576,2.2944 7.01561,4.9941 0.20766,2.1844 -1.37791,4.3489 -4.09179,5.5859 3.12059,8.9156 7.12231,14.3934 11.21874,14.1641 m -12.82617,-92.5488 c -3.09351,0.1733 -5.7392,3.7849 -7.6914,9.6679 -2.59845,0.4809 -4.35514,1.8881 -4.49609,3.6016 -0.10893,1.3933 0.8685,2.8007 2.6328,3.791 -1.06524,5.6719 -1.67162,12.4268 -1.68358,19.8125 -1.21464,0.9142 -2.08554,2.1728 -2.4922,3.6016 -0.80591,2.8629 0.36072,5.9602 2.93164,7.7832 0.59214,7.724 1.7599,14.8504 3.3086,20.9375 -2.23673,1.2824 -3.47499,3.2291 -3.29102,5.1738 0.25324,2.6006 2.97916,4.6361 6.6465,4.9629 2.69,6.2097 5.88857,9.8801 9.15234,9.6973 m -14.19119,3.5196 c -7.92292,0.4435 -15.53711,-20.3253 -17.00678,-46.3883 -1.46964,-26.0631 3.76175,-47.5509 11.68469,-47.9945 m 55.4068,46.1101 a 47.266343,14.368197 86.770209 0 1 -11.6847,47.9944 47.266343,14.368197 86.770209 0 1 -17.00679,-46.3883 47.266343,14.368197 86.770209 0 1 11.68469,-47.9944 47.266343,14.368197 86.770209 0 1 17.0068,46.3883 z m -0.21603,-1.6314 a 40.926109,12.395889 86.784308 0 1 -10.08061,41.557 40.926109,12.395889 86.784308 0 1 -14.67212,-40.1663 40.926109,12.395889 86.784308 0 1 10.08061,-41.557 40.926109,12.395889 86.784308 0 1 14.67212,40.1663 z"
     inkscape:connector-curvature="0" /><path
     id="path2268"
     style="fill:#000000;fill-opacity:1;stroke:none;stroke-width:1;stroke-miterlimit:4;stroke-dasharray:none;stroke-dashoffset:0;stroke-opacity:1"
     d="m 56.449647,383.02252 c -2.65043,2.7478 -3.075604,12.9125 2.91994,18.695 5.994912,5.782 16.137761,4.9907 18.786597,2.2419 l 32.133206,-33.3145 c 2.33892,-2.4249 0.51867,-8.1784 -4.30502,-13.6158 l -20.566418,21.3224 c -2.649263,2.7471 -5.59422,4.2063 -6.578156,3.2594 -0.984805,-0.9472 0.366917,-3.9445 3.018379,-6.693 l 20.567945,-21.324 c -5.625579,-4.6718 -11.486098,-6.3168 -13.843269,-3.8859 z m 55.750183,-75.5999 c -0.29693,0.3241 -15.616978,17.1415 -15.616978,17.1415 -4.385849,4.5479 1.113788,16.9685 12.283928,27.7423 11.17005,10.7742 24.27172,15.3133 26.8426,12.4879 0.29798,-0.3252 16.71962,-17.4936 16.71962,-17.4936 4.38585,-4.5479 2.0213,-20.2189 -9.14883,-30.9927 -11.16974,-10.7732 -28.50997,-11.708 -31.08001,-8.8851 z m -8.33015,24.7876 c 2.26304,-2.3451 9.93975,2.7779 15.07707,7.8874 7.37286,7.1114 11.64473,13.2047 9.38283,15.551 -2.26304,2.345 -8.33243,-0.7647 -14.74029,-6.6368 -7.37286,-7.1114 -11.98151,-14.4554 -9.71961,-16.8016 z"
     inkscape:connector-curvature="0" /><path
     style="fill:#000000;fill-opacity:1;stroke:none;stroke-width:1;stroke-miterlimit:4;stroke-dasharray:none;stroke-dashoffset:0;stroke-opacity:1"
     d="m 216.15702,310.65512 c -2.47152,-2.5069 -8.52921,-0.7567 -14.33564,4.139 l 21.73213,22.0432 c 2.79994,2.8396 4.24668,5.9543 3.23181,6.9571 -1.0151,1.004 -4.11078,-0.487 -6.91201,-3.3288 l -21.73378,-22.0449 c -5.02785,5.7535 -6.90009,11.8318 -4.4228,14.358 l 37.26737,37.8008 37.26737,37.8009 c 2.47152,2.5069 8.52921,0.7568 14.33564,-4.1389 l -21.73213,-22.0433 c -2.79994,-2.8395 -4.24668,-5.9541 -3.23181,-6.957 1.0151,-1.004 4.11077,0.4869 6.912,3.3288 l 21.73379,22.0448 c 5.02785,-5.7534 6.90009,-11.8318 4.4228,-14.3579 l -37.26737,-37.8008 z"
     id="path2287"
     inkscape:connector-curvature="0" /><path
     d="m 386.91047,308.02942 a 42.819134,12.969257 47.557945 0 0 19.32561,40.3504 42.819134,12.969257 47.557945 0 0 38.46662,22.8464 42.819134,12.969257 47.557945 0 0 -19.32561,-40.3504 42.819134,12.969257 47.557945 0 0 -38.46662,-22.8464 z m 23.39894,23.1179 a 9.3889978,3.2752321 47.568431 0 1 8.75246,4.7177 9.3889978,3.2752321 47.568431 0 1 3.91772,9.1421 9.3889978,3.2752321 47.568431 0 1 -8.7522,-4.7206 9.3889978,3.2752321 47.568431 0 1 -3.91798,-9.1392 z m -41.26125,-14.3607 c -2.79797,2.5576 -2.20599,8.3182 0.98815,15.7224 2.43235,-0.6645 4.52897,-0.2258 5.47837,1.1465 1.1029,1.6014 0.43279,4.1456 -1.67364,6.3546 2.72876,4.731 6.22031,9.8368 10.3684,15.0502 4.05433,-1.7493 8.66867,-0.094 10.31354,3.6991 1.00138,2.3124 0.69507,5.0074 -0.81532,7.1733 4.7914,5.0206 9.62963,9.4328 14.26729,13.1308 3.25278,-2.3631 6.9935,-2.6103 8.99033,-0.5942 1.61359,1.6331 1.76062,4.4365 0.3795,7.2347 8.42808,5.1613 15.29573,6.9532 18.46427,4.057 5.7226,-4.2982 13.10798,-11.0763 13.10798,-11.0763 -6.12804,5.6014 -26.04056,-6.1935 -44.476,-26.3448 -18.43544,-20.1514 -28.41258,-41.0283 -22.28459,-46.6298 z m 56.0938,82.4546 c -2.55972,2.8868 -7.16342,5.0759 -7.16342,5.0759 -6.12804,5.6014 -26.04062,-6.1936 -44.47601,-26.3448 -18.43542,-20.1514 -28.41257,-41.0283 -22.28458,-46.6298 0,0 5.72011,-6.4417 8.89578,-7.1554 3.17579,-0.7134 4.20562,-1.0624 4.20562,-1.0624 -2.53214,2.3004 -2.28686,6.9781 0.0233,13.0378 -1.78782,2.109 -2.28054,4.4118 -1.26106,5.8938 0.83357,1.2013 2.55695,1.6953 4.6421,1.3305 2.88938,5.3018 6.86721,11.1778 11.74416,17.1717 -0.37957,1.5446 -0.25269,3.141 0.36306,4.5679 1.24103,2.8537 4.23585,4.5921 7.5257,4.3686 5.59041,5.8684 11.25195,10.8716 16.53459,14.7804 -0.96435,2.5193 -0.67994,4.9164 0.75586,6.3708 1.92589,1.9401 5.48198,1.7863 8.67052,-0.3752 6.28877,3.253 11.30964,4.1116 13.74266,1.883 -2.4819,2.2279 0.64135,4.2003 -1.9183,7.0872 z"
     style="fill:#000000;fill-opacity:1;stroke:none;stroke-width:1;stroke-miterlimit:4;stroke-dasharray:none;stroke-dashoffset:0;stroke-opacity:1"
     id="path2298"
     inkscape:connector-curvature="0" /></svg>