<?xml version="1.0" encoding="UTF-8" standalone="no"?>
<!-- Generator: Adobe Illustrator 19.2.1, SVG Export Plug-In . SVG Version: 6.00 Build 0)  -->

<svg
   xmlns:dc="http://purl.org/dc/elements/1.1/"
   xmlns:cc="http://creativecommons.org/ns#"
   xmlns:rdf="http://www.w3.org/1999/02/22-rdf-syntax-ns#"
   xmlns:svg="http://www.w3.org/2000/svg"
   xmlns="http://www.w3.org/2000/svg"
   xmlns:sodipodi="http://sodipodi.sourceforge.net/DTD/sodipodi-0.dtd"
   xmlns:inkscape="http://www.inkscape.org/namespaces/inkscape"
   version="1.1"
   id="Layer_1"
   x="0px"
   y="0px"
   viewBox="0 0 512 512"
   xml:space="preserve"
   sodipodi:docname="unmergedEdges.svg"
   inkscape:version="0.92.3 (2405546, 2018-03-11)"
   width="512"
   height="512"><metadata
     id="metadata4582"><rdf:RDF><cc:Work
         rdf:about=""><dc:format>image/svg+xml</dc:format><dc:type
           rdf:resource="http://purl.org/dc/dcmitype/StillImage" /><dc:title></dc:title></cc:Work></rdf:RDF></metadata><defs
     id="defs4580" /><sodipodi:namedview
     pagecolor="#ffffff"
     bordercolor="#666666"
     borderopacity="1"
     objecttolerance="10"
     gridtolerance="10"
     guidetolerance="10"
     inkscape:pageopacity="0"
     inkscape:pageshadow="2"
     inkscape:window-width="1920"
     inkscape:window-height="1037"
     id="namedview4578"
     showgrid="false"
     inkscape:pagecheckerboard="true"
     inkscape:zoom="1.2705825"
     inkscape:cx="292.06588"
     inkscape:cy="267.90468"
     inkscape:window-x="0"
     inkscape:window-y="0"
     inkscape:window-maximized="1"
     inkscape:current-layer="Layer_1"
     inkscape:snap-object-midpoints="true"
     inkscape:snap-intersection-paths="true"
     inkscape:snap-bbox="true"
     inkscape:snap-page="false"
     inkscape:object-paths="true" /><style
     type="text/css"
     id="style4569">
	.st0{fill:#ffffff;}
</style><path
     style="fill:#ffffff;stroke-width:1"
     d="m 112.63555,494.638 c -15.138593,-2.22531 -29.019243,-8.98898 -40.379352,-19.67574 -17.42199,-16.38935 -24.639989,-35.04427 -23.57932,-60.94074 0.748004,-18.26286 5.037679,-30.42168 15.590209,-44.18961 l 4.987295,-6.50696 -3.864272,-11.50234 C 48.256616,300.82337 43.890688,251.61631 51.416123,194.3261 c 1.079377,-8.21715 2.236276,-17.18134 2.5709,-19.92039 l 0.608399,-4.9801 -4.697796,-3.48606 C 38.527772,157.50239 27.335585,139.31081 23.9805,123.81432 21.347685,111.65389 22.268721,90.351549 25.884207,79.783857 32.170382,61.410032 45.497553,45.689505 61.996289,37.18663 c 12.163826,-6.268811 22.513835,-8.683818 37.216355,-8.683818 21.565256,0 38.724896,6.349445 52.839116,19.551656 l 4.84388,4.5309 15.23237,-3.028038 c 23.80829,-4.73284 33.74256,-5.634401 61.54726,-5.585553 28.22511,0.0496 39.75087,1.286212 60.25918,6.465277 24.06606,6.07753 47.32209,15.431585 67.92943,27.322623 l 11.15633,6.437513 4.34432,-1.921695 c 21.24503,-9.39769 50.9029,-7.29789 71.73628,5.07899 28.96589,17.208315 42.56183,52.926015 33.55356,88.148015 -3.21462,12.56913 -9.10078,22.53382 -19.36657,32.7858 -10.18347,10.16977 -17.79773,14.99487 -29.84889,18.91507 l -8.28224,2.69417 -3.2215,13.09089 c -15.78046,64.12524 -43.75528,118.73832 -74.71368,145.85769 -32.20427,28.21072 -80.64037,47.34037 -137.45067,54.28555 l -10.45823,1.27855 -3.98407,7.98376 c -6.67338,13.3729 -14.10269,22.07141 -25.72743,30.12261 -14.9918,10.38316 -36.97241,15.06032 -56.96554,12.12141 z M 216.24493,386.04297 c 31.25567,-5.3345 60.14837,-16.06957 81.15455,-30.15295 8.8986,-5.96596 21.73193,-18.58332 28.07171,-27.59929 16.67127,-23.70866 31.63259,-58.04322 41.52207,-95.28853 l 2.95393,-11.12488 -5.41839,-3.5976 c -15.71523,-10.43432 -26.88755,-26.38431 -31.26197,-44.63064 -2.59782,-10.83588 -2.64436,-30.12574 -0.0963,-39.89897 l 1.77055,-6.79096 -14.67466,-7.26834 C 276.95063,98.236518 232.96781,93.07355 184.2156,103.72033 l -7.12885,1.55685 -0.64524,6.17772 c -1.69553,16.2334 -5.02987,25.93992 -13.13679,38.24208 -5.8738,8.91347 -13.6137,16.43074 -22.4978,21.85067 -6.95739,4.24453 -19.67846,8.99889 -26.49888,9.90363 -5.6048,0.74351 -5.218,0.0664 -7.06968,12.37682 -5.40119,35.9092 -5.85564,64.56422 -1.43746,90.63777 2.17989,12.86437 7.54853,34.24264 11.63093,46.3149 l 3.36813,9.9602 10.86977,0.63767 c 27.2832,1.60059 49.77643,16.04891 62.24514,39.98262 3.93109,7.54573 4.12257,7.73798 7.20809,7.23665 1.74336,-0.28326 8.54825,-1.43298 15.12197,-2.55494 z"
     id="path1572"
     inkscape:connector-curvature="0" /></svg>